<?xml version="1.0" encoding="utf-8"?>
<!-- Generator: Adobe Illustrator 15.1.0, SVG Export Plug-In . SVG Version: 6.00 Build 0)  -->
<!DOCTYPE svg PUBLIC "-//W3C//DTD SVG 1.1//EN" "http://www.w3.org/Graphics/SVG/1.1/DTD/svg11.dtd">
<svg version="1.1" id="Layer_1" xmlns="http://www.w3.org/2000/svg" xmlns:xlink="http://www.w3.org/1999/xlink" x="0px" y="0px"
	 width="268.752px" height="301.628px" viewBox="-14.502 -27.298 268.752 301.628"
	 enable-background="new -14.502 -27.298 268.752 301.628" xml:space="preserve">
<symbol  id="Tab_2_-_Orange" viewBox="-66.007 -19.002 132.014 38.004">
	<g>
		<linearGradient id="SVGID_1_" gradientUnits="userSpaceOnUse" x1="0" y1="26.5322" x2="-1.986921e-006" y2="-18.9232">
			<stop  offset="0" style="stop-color:#FFF350"/>
			<stop  offset="1" style="stop-color:#FAA919"/>
		</linearGradient>
		<path fill="url(#SVGID_1_)" d="M65.991-19.002l0.016,30.161c0,4.313-3.6,7.843-8,7.843H-58.007c-4.4,0-8-3.529-8-7.843
			l0.016-30.161H65.991z"/>
	</g>
	<g>
		<linearGradient id="SVGID_2_" gradientUnits="userSpaceOnUse" x1="0" y1="20.7393" x2="-5.245403e-007" y2="8.7392">
			<stop  offset="0" style="stop-color:#FFFFFF"/>
			<stop  offset="1" style="stop-color:#000000"/>
		</linearGradient>
		<path fill="url(#SVGID_2_)" d="M-58.007,16H58.008c3.852,0,6.984-3.059,6.997-6.822l0.001,1.979c0,3.774-3.139,6.845-6.998,6.845
			H-58.007c-3.859,0-6.999-3.07-6.999-6.845l0.001-1.979C-64.992,12.941-61.858,16-58.007,16z"/>
	</g>
	<g opacity="0.8">
		<linearGradient id="SVGID_3_" gradientUnits="userSpaceOnUse" x1="0" y1="-19.002" x2="-1.666889e-006" y2="19.132">
			<stop  offset="0" style="stop-color:#FFFFFF"/>
			<stop  offset="1" style="stop-color:#F6921E"/>
		</linearGradient>
		<path fill="url(#SVGID_3_)" d="M-64.991-19.002l-0.018,30.162c0,3.784,3.141,6.862,7.002,6.862H58.007c3.859,0,7-3.078,7-6.862
			l-0.016-30.162h1l0.016,30.161c0,4.313-3.6,7.843-8,7.843H-58.007c-4.4,0-8-3.529-8-7.843l0.016-30.161H-64.991z"/>
	</g>
</symbol>
<g>
	<path fill="#72C9BA" d="M0.937-12.217v250.188c0,11.465,8.678,20.758,19.379,20.758h222.498V-12.217H0.937z"/>
	<path fill="#8ED4C8" d="M34.536,241.333c-9.977,0-18.065-8.914-18.065-19.91L9.48-13.77H9.338v239.979
		c0,10.996,8.323,19.909,18.588,19.909H241.61V246.1L34.536,241.333z"/>
	<g>
		<path fill="none" stroke="#FFFFFF" stroke-width="0.25" d="M213.94,4.759v31.328 M183.03,4.759v31.328"/>
		<text transform="matrix(1 0 0 1 185.5322 26.8213)" fill="#FFFFFF" font-family="'OpenSans-Bold'" font-size="22.6916">01</text>
	</g>
	<text transform="matrix(1 0 0 1 46.2993 23.4751)" fill="#FFFFFF" font-family="'OpenSans-Bold'" font-size="13.296">Hospedagem Linux</text>
	<rect x="47.049" y="49.597" fill="none" width="170.154" height="179.158"/>
	<text transform="matrix(1 0 0 1 47.0483 57.5728)"><tspan x="0" y="0" fill="#FFFFFF" font-family="'OpenSans-Bold'" font-size="10.4944">Espaço em disco 20GB</tspan><tspan x="0" y="19.34" fill="#FFFFFF" font-family="'OpenSans-Bold'" font-size="10.4944">10 contas de e-mail max 2GB</tspan><tspan x="0" y="38.679" fill="#FFFFFF" font-family="'OpenSans-Bold'" font-size="10.4944">Tráfego ilimitado</tspan><tspan x="0" y="58.019" fill="#FFFFFF" font-family="'OpenSans-Bold'" font-size="10.4944">Domínios ilimitados</tspan><tspan x="0" y="77.359" fill="#FFFFFF" font-family="'OpenSans-Bold'" font-size="10.4944">Banco de dados 3 máximo </tspan><tspan x="0" y="89.952" fill="#FFFFFF" font-family="'OpenSans-Bold'" font-size="10.4944">200mb</tspan><tspan x="0" y="109.292" fill="#FFFFFF" font-family="'OpenSans-Bold'" font-size="10.4944">Construtor de sites 2.0</tspan><tspan x="0" y="128.631" fill="#FFFFFF" font-family="'OpenSans-Bold'" font-size="10.4944">Acesso 2.600 acessos diários</tspan><tspan x="0" y="147.971" fill="#FFFFFF" font-family="'OpenSans-Bold'" font-size="10.4944">Painel do cliente</tspan></text>
	<g>
		
			<use xlink:href="#Tab_2_-_Orange"  width="132.014" height="38.004" x="-66.007" y="-19.002" transform="matrix(0.7496 0 0 -0.7496 120.6035 243.0039)" overflow="visible"/>
		<text transform="matrix(1 0 0 1 92.1055 245.9629)" fill="#FFFFFF" font-family="'OpenSans-Bold'" font-size="10.4944">Adquira já!</text>
	</g>
</g>
</svg>
