<?xml version="1.0" encoding="utf-8"?>
<!-- Generator: Adobe Illustrator 16.0.0, SVG Export Plug-In . SVG Version: 6.00 Build 0)  -->
<!DOCTYPE svg PUBLIC "-//W3C//DTD SVG 1.1//EN" "http://www.w3.org/Graphics/SVG/1.1/DTD/svg11.dtd">
<svg version="1.1" id="Layer_1" xmlns="http://www.w3.org/2000/svg" xmlns:xlink="http://www.w3.org/1999/xlink" x="0px" y="0px"
	 width="224px" height="224px" viewBox="0 0 224 224" enable-background="new 0 0 224 224" xml:space="preserve">
<g>
	
		<circle fill-rule="evenodd" clip-rule="evenodd" fill="#DA4A38" stroke="#FFFFFF" stroke-width="4" stroke-miterlimit="10" cx="112" cy="112" r="110"/>
	<g>
		<path fill="#FFFFFF" d="M43.136,43.116h3.943c6.626,0,6.896,5.438,6.896,6.374s-0.27,6.374-6.896,6.374h-3.943V43.116z
			 M44.324,54.784h2.449c3.385,0,6.014-1.639,6.014-5.294s-2.629-5.294-6.014-5.294h-2.449V54.784z"/>
		<path fill="#FFFFFF" d="M60.134,47.33c2.557,0,4.375,1.836,4.375,4.375s-1.818,4.375-4.375,4.375s-4.375-1.836-4.375-4.375
			S57.578,47.33,60.134,47.33z M60.134,55.108c2.035,0,3.295-1.531,3.295-3.403c0-1.873-1.26-3.403-3.295-3.403
			s-3.295,1.53-3.295,3.403C56.839,53.577,58.1,55.108,60.134,55.108z"/>
		<path fill="#FFFFFF" d="M66.834,49.887c0-0.612-0.09-1.909-0.09-2.341h1.08c0.018,0.612,0.036,1.296,0.072,1.458h0.054
			c0.432-0.918,1.495-1.674,2.845-1.674c1.099,0,2.107,0.54,2.503,1.8c0.522-1.242,1.675-1.8,2.827-1.8
			c2.593,0,3.169,1.765,3.169,3.583v4.951h-1.081v-4.897c0-1.351-0.378-2.665-2.088-2.665c-1.999,0-2.521,1.692-2.521,2.881v4.682
			h-1.081v-5.006c0-1.53-0.558-2.557-1.729-2.557c-1.602,0-2.881,1.116-2.881,3.403v4.159h-1.08V49.887z"/>
		<path fill="#FFFFFF" d="M83.535,43.116h1.44l-2.413,2.593h-0.9L83.535,43.116z M82.167,47.546h1.08v8.318h-1.08V47.546z"/>
		<path fill="#FFFFFF" d="M86.169,49.887c0-0.612-0.09-1.909-0.09-2.341h1.08c0.018,0.612,0.036,1.296,0.072,1.458h0.054
			c0.432-0.918,1.495-1.674,2.845-1.674c2.593,0,3.169,1.765,3.169,3.583v4.951h-1.08v-4.897c0-1.351-0.378-2.665-2.089-2.665
			c-1.602,0-2.881,1.116-2.881,3.403v4.159h-1.08V49.887z"/>
		<path fill="#FFFFFF" d="M96.692,43.44c0.45,0,0.81,0.36,0.81,0.811s-0.36,0.811-0.81,0.811s-0.81-0.36-0.81-0.811
			S96.242,43.44,96.692,43.44z M96.152,47.546h1.08v8.318h-1.08V47.546z"/>
		<path fill="#FFFFFF" d="M103.994,47.33c2.557,0,4.375,1.836,4.375,4.375s-1.819,4.375-4.375,4.375s-4.375-1.836-4.375-4.375
			S101.438,47.33,103.994,47.33z M103.994,55.108c2.035,0,3.295-1.531,3.295-3.403c0-1.873-1.26-3.403-3.295-3.403
			s-3.295,1.53-3.295,3.403C100.699,53.577,101.959,55.108,103.994,55.108z"/>
		<path fill="#FFFFFF" d="M126.856,54.964c-1.657,0.864-3.475,1.225-5.348,1.225c-3.979,0-6.878-2.611-6.878-6.698
			s2.899-6.698,6.878-6.698c2.017,0,3.799,0.45,5.078,1.639l-1.98,2.161c-0.756-0.793-1.675-1.207-3.097-1.207
			c-2.395,0-3.961,1.729-3.961,4.105s1.567,4.105,3.961,4.105c1.224,0,2.125-0.342,2.647-0.63v-2.071h-2.287v-2.593h4.988V54.964z"
			/>
		<path fill="#FFFFFF" d="M130.148,43.116h4.934c2.611,0,4.807,0.9,4.807,3.871c0,1.783-0.954,3.169-2.755,3.493l3.241,5.384h-3.367
			l-2.665-5.096h-1.386v5.096h-2.809V43.116z M132.958,48.392h1.656c1.026,0,2.359-0.035,2.359-1.422
			c0-1.278-1.152-1.477-2.179-1.477h-1.836V48.392z"/>
		<path fill="#FFFFFF" d="M147.432,43.116h2.323l5.545,12.748h-3.169l-1.098-2.701h-4.952l-1.062,2.701h-3.097L147.432,43.116z
			 M148.638,39.605h3.673l-3.115,2.593h-2.377L148.638,39.605z M148.512,46.825l-1.548,3.962h3.115L148.512,46.825z"/>
		<path fill="#FFFFFF" d="M158.629,45.602h-3.637v-2.485h10.083v2.485h-3.637v10.263h-2.809V45.602z"/>
		<path fill="#FFFFFF" d="M167.236,43.116h2.809v12.748h-2.809V43.116z"/>
		<path fill="#FFFFFF" d="M179.715,46.231c-0.45-0.576-1.351-0.847-2.035-0.847c-0.792,0-1.891,0.36-1.891,1.314
			c0,2.323,5.87,0.828,5.87,5.294c0,2.845-2.287,4.195-4.916,4.195c-1.638,0-3.078-0.486-4.285-1.603l1.999-2.196
			c0.576,0.756,1.513,1.206,2.448,1.206c0.919,0,1.945-0.433,1.945-1.333c0-2.34-5.979-1.08-5.979-5.329
			c0-2.719,2.359-4.142,4.862-4.142c1.439,0,2.826,0.379,3.906,1.333L179.715,46.231z"/>
		<path fill="#FFFFFF" d="M65.063,67.116h3.349c1.008,0,4.537,0,4.537,3.35c0,2.431-1.854,3.097-3.259,3.276l3.709,6.122h-1.351
			l-3.583-6.05h-2.214v6.05h-1.188V67.116z M66.251,72.734h2.521c2.503,0,2.989-1.387,2.989-2.269c0-0.883-0.486-2.27-2.989-2.27
			h-2.521V72.734z"/>
		<path fill="#FFFFFF" d="M82.391,78.298c-0.846,1.261-2.125,1.782-3.601,1.782c-2.539,0-4.213-1.818-4.213-4.394
			c0-2.484,1.729-4.356,4.159-4.356c2.557,0,3.907,1.962,3.907,3.889v0.757h-6.986c0,0.899,0.63,3.133,3.151,3.133
			c1.098,0,2.25-0.576,2.791-1.477L82.391,78.298z M81.563,75.003c0-1.477-1.278-2.701-2.881-2.701
			c-2.359,0-3.025,2.269-3.025,2.701H81.563z"/>
		<path fill="#FFFFFF" d="M93.314,79.324c0,4.142-2.737,4.861-4.429,4.861c-1.675,0-3.277-0.648-4.124-1.746l0.847-0.793
			c0.756,1.063,1.98,1.566,3.277,1.566c3.295,0,3.349-2.881,3.349-3.816v-1.152h-0.036c-0.63,0.99-1.729,1.62-3.151,1.62
			c-2.449,0-4.448-1.927-4.448-4.268s1.999-4.267,4.448-4.267c1.422,0,2.521,0.63,3.151,1.62h0.036v-1.404h1.08V79.324z
			 M88.975,72.302c-1.818,0-3.295,1.477-3.295,3.295s1.477,3.295,3.295,3.295c1.819,0,3.295-1.477,3.295-3.295
			S90.793,72.302,88.975,72.302z"/>
		<path fill="#FFFFFF" d="M96.64,67.44c0.45,0,0.81,0.36,0.81,0.811s-0.36,0.811-0.81,0.811s-0.81-0.36-0.81-0.811
			S96.189,67.44,96.64,67.44z M96.1,71.546h1.08v8.318H96.1V71.546z"/>
		<path fill="#FFFFFF" d="M100.205,77.739c0.45,0.883,1.44,1.369,2.413,1.369c0.937,0,1.909-0.576,1.909-1.531
			c0-2.286-4.934-0.684-4.934-3.853c0-1.621,1.477-2.395,2.845-2.395c1.351,0,2.395,0.504,2.935,1.566l-0.972,0.576
			c-0.414-0.757-0.99-1.171-1.963-1.171c-0.774,0-1.764,0.469-1.764,1.333c0,2.25,4.933,0.504,4.933,3.871
			c0,1.71-1.422,2.574-3.007,2.574c-1.422,0-2.701-0.54-3.349-1.692L100.205,77.739z"/>
		<path fill="#FFFFFF" d="M112.149,72.519h-2.377v5.419c0,0.738,0.432,1.171,1.152,1.171c0.414,0,0.846-0.126,1.225-0.288
			l0.09,0.972c-0.396,0.145-0.99,0.288-1.404,0.288c-1.548,0-2.143-0.954-2.143-2.143v-5.419h-1.801v-0.973h1.801v-2.395h1.08v2.395
			h2.377V72.519z"/>
		<path fill="#FFFFFF" d="M114.081,73.887c0-0.612-0.09-1.909-0.09-2.341h1.08c0.018,0.612,0.036,1.296,0.072,1.458
			c0.54-0.972,1.404-1.674,2.646-1.674c0.216,0,0.414,0.036,0.63,0.09l-0.126,1.063c-0.162-0.055-0.306-0.072-0.414-0.072
			c-1.873,0-2.719,1.296-2.719,2.917v4.537h-1.081V73.887z"/>
		<path fill="#FFFFFF" d="M127.173,78.298c-0.846,1.261-2.125,1.782-3.601,1.782c-2.539,0-4.213-1.818-4.213-4.394
			c0-2.484,1.729-4.356,4.159-4.356c2.557,0,3.907,1.962,3.907,3.889v0.757h-6.986c0,0.899,0.63,3.133,3.151,3.133
			c1.098,0,2.25-0.576,2.791-1.477L127.173,78.298z M126.345,75.003c0-1.477-1.278-2.701-2.881-2.701
			c-2.359,0-3.025,2.269-3.025,2.701H126.345z"/>
		<path fill="#FFFFFF" d="M134.532,77.739c0.45,0.883,1.44,1.369,2.413,1.369c0.937,0,1.909-0.576,1.909-1.531
			c0-2.286-4.934-0.684-4.934-3.853c0-1.621,1.477-2.395,2.845-2.395c1.351,0,2.395,0.504,2.935,1.566l-0.972,0.576
			c-0.414-0.757-0.99-1.171-1.963-1.171c-0.774,0-1.764,0.469-1.764,1.333c0,2.25,4.933,0.504,4.933,3.871
			c0,1.71-1.422,2.574-3.007,2.574c-1.422,0-2.701-0.54-3.349-1.692L134.532,77.739z"/>
		<path fill="#FFFFFF" d="M149.509,78.298c-0.846,1.261-2.125,1.782-3.601,1.782c-2.539,0-4.213-1.818-4.213-4.394
			c0-2.484,1.729-4.356,4.159-4.356c2.557,0,3.907,1.962,3.907,3.889v0.757h-6.986c0,0.899,0.63,3.133,3.151,3.133
			c1.098,0,2.25-0.576,2.791-1.477L149.509,78.298z M148.681,75.003c0-1.477-1.278-2.701-2.881-2.701
			c-2.359,0-3.025,2.269-3.025,2.701H148.681z"/>
		<path fill="#FFFFFF" d="M159.156,77.523c0,0.612,0.09,1.909,0.09,2.341h-1.081c-0.018-0.612-0.036-1.297-0.072-1.458h-0.054
			c-0.432,0.918-1.495,1.674-2.845,1.674c-2.593,0-3.169-1.765-3.169-3.583v-4.951h1.08v4.897c0,1.351,0.378,2.665,2.089,2.665
			c1.602,0,2.881-1.117,2.881-3.403v-4.159h1.08V77.523z"/>
		<path fill="#FFFFFF" d="M67.744,91.116h4.213c4.105,0,7.544,1.747,7.544,6.41c0,4.123-3.367,6.338-7.166,6.338h-4.591V91.116z
			 M70.552,101.271h1.458c2.611,0,4.574-0.99,4.574-3.89c0-2.502-1.999-3.673-4.375-3.673h-1.657V101.271z"/>
		<path fill="#FFFFFF" d="M88.467,90.792c3.979,0,6.878,2.611,6.878,6.698s-2.899,6.698-6.878,6.698s-6.878-2.611-6.878-6.698
			S84.488,90.792,88.467,90.792z M88.467,101.596c2.395,0,3.961-1.729,3.961-4.105s-1.567-4.105-3.961-4.105
			s-3.961,1.729-3.961,4.105S86.072,101.596,88.467,101.596z"/>
		<path fill="#FFFFFF" d="M98.107,91.116h4.25l2.935,8.318h0.036l2.953-8.318h4.231v12.748h-2.809v-9.777h-0.036l-3.349,9.777
			h-2.143l-3.223-9.777h-0.036v9.777h-2.809V91.116z"/>
		<path fill="#FFFFFF" d="M117.375,87.605h3.673l-3.115,2.593h-2.377L117.375,87.605z M115.952,91.116h2.809v12.748h-2.809V91.116z"
			/>
		<path fill="#FFFFFF" d="M122.188,91.116h3.817l5.42,8.859h0.036v-8.859h2.809v12.748h-3.673l-5.564-9.074h-0.036v9.074h-2.809
			V91.116z"/>
		<path fill="#FFFFFF" d="M137.68,91.116h2.809v12.748h-2.809V91.116z"/>
		<path fill="#FFFFFF" d="M150.067,90.792c3.979,0,6.878,2.611,6.878,6.698s-2.899,6.698-6.878,6.698s-6.878-2.611-6.878-6.698
			S146.088,90.792,150.067,90.792z M150.067,101.596c2.395,0,3.961-1.729,3.961-4.105s-1.567-4.105-3.961-4.105
			s-3.961,1.729-3.961,4.105S147.673,101.596,150.067,101.596z"/>
		<path fill="#FFFFFF" d="M32.888,115.116h2.809v12.748h-2.809V115.116z"/>
		<path fill="#FFFFFF" d="M39.072,115.116h3.817l5.42,8.859h0.036v-8.859h2.809v12.748h-3.673l-5.564-9.074h-0.036v9.074h-2.809
			V115.116z"/>
		<path fill="#FFFFFF" d="M56.978,117.602H53.34v-2.485h10.083v2.485h-3.637v10.263h-2.809V117.602z"/>
		<path fill="#FFFFFF" d="M65.656,115.116h8.661v2.593h-5.852v2.377h5.527v2.593h-5.527v2.593h6.176v2.593h-8.985V115.116z"/>
		<path fill="#FFFFFF" d="M77.689,115.116h4.934c2.611,0,4.807,0.9,4.807,3.871c0,1.783-0.954,3.169-2.754,3.493l3.241,5.384h-3.367
			l-2.665-5.096h-1.387v5.096h-2.809V115.116z M80.498,120.392h1.657c1.026,0,2.359-0.035,2.359-1.422
			c0-1.278-1.152-1.477-2.179-1.477h-1.837V120.392z"/>
		<path fill="#FFFFFF" d="M90.242,115.116h3.817l5.42,8.859h0.036v-8.859h2.809v12.748h-3.673l-5.564-9.074h-0.036v9.074h-2.809
			V115.116z"/>
		<path fill="#FFFFFF" d="M109.957,115.116h2.323l5.545,12.748h-3.169l-1.098-2.701h-4.952l-1.062,2.701h-3.097L109.957,115.116z
			 M111.037,118.825l-1.548,3.962h3.115L111.037,118.825z"/>
		<path fill="#FFFFFF" d="M127.65,118.43c-0.558-0.666-1.368-1.045-2.413-1.045c-2.125,0-3.691,1.729-3.691,4.105
			s1.566,4.105,3.601,4.105c1.135,0,2.053-0.504,2.629-1.368l2.341,1.746c-1.063,1.513-2.863,2.215-4.609,2.215
			c-3.979,0-6.878-2.611-6.878-6.698s2.899-6.698,6.878-6.698c1.422,0,3.223,0.486,4.303,1.873L127.65,118.43z"/>
		<path fill="#FFFFFF" d="M132.331,115.116h2.809v12.748h-2.809V115.116z"/>
		<path fill="#FFFFFF" d="M144.719,114.792c3.979,0,6.878,2.611,6.878,6.698s-2.899,6.698-6.878,6.698s-6.878-2.611-6.878-6.698
			S140.74,114.792,144.719,114.792z M144.719,125.596c2.395,0,3.961-1.729,3.961-4.105s-1.567-4.105-3.961-4.105
			s-3.961,1.729-3.961,4.105S142.324,125.596,144.719,125.596z"/>
		<path fill="#FFFFFF" d="M154.359,115.116h3.817l5.42,8.859h0.036v-8.859h2.809v12.748h-3.673l-5.564-9.074h-0.036v9.074h-2.809
			V115.116z"/>
		<path fill="#FFFFFF" d="M174.074,115.116h2.323l5.546,12.748h-3.169l-1.099-2.701h-4.951l-1.063,2.701h-3.097L174.074,115.116z
			 M175.155,118.825l-1.549,3.962h3.115L175.155,118.825z"/>
		<path fill="#FFFFFF" d="M184.111,115.116h2.809v10.155h5.204v2.593h-8.013V115.116z"/>
	</g>
	<g>
		<g>
			<path fill="#FFFFFF" d="M78.92,160.977c0.45,0.883,1.44,1.369,2.413,1.369c0.937,0,1.909-0.576,1.909-1.531
				c0-2.286-4.934-0.684-4.934-3.853c0-1.621,1.477-2.395,2.845-2.395c1.351,0,2.395,0.504,2.935,1.566l-0.972,0.576
				c-0.414-0.757-0.99-1.171-1.963-1.171c-0.774,0-1.764,0.469-1.764,1.333c0,2.25,4.933,0.504,4.933,3.871
				c0,1.71-1.422,2.574-3.007,2.574c-1.422,0-2.701-0.54-3.349-1.692L78.92,160.977z"/>
			<path fill="#FFFFFF" d="M90.449,154.567c2.557,0,4.375,1.836,4.375,4.375s-1.818,4.375-4.375,4.375s-4.375-1.836-4.375-4.375
				S87.892,154.567,90.449,154.567z M90.449,162.346c2.035,0,3.295-1.531,3.295-3.403c0-1.873-1.26-3.403-3.295-3.403
				s-3.295,1.53-3.295,3.403C87.154,160.814,88.414,162.346,90.449,162.346z"/>
			<path fill="#FFFFFF" d="M97.149,157.124c0-0.612-0.09-1.909-0.09-2.341h1.08c0.018,0.612,0.036,1.296,0.072,1.458h0.054
				c0.432-0.918,1.495-1.674,2.845-1.674c1.099,0,2.107,0.54,2.503,1.8c0.522-1.242,1.675-1.8,2.827-1.8
				c2.593,0,3.169,1.764,3.169,3.583v4.951h-1.081v-4.897c0-1.351-0.378-2.665-2.088-2.665c-1.999,0-2.521,1.692-2.521,2.881v4.682
				h-1.081v-5.006c0-1.53-0.558-2.557-1.729-2.557c-1.602,0-2.881,1.116-2.881,3.403v4.159h-1.08V157.124z"/>
			<path fill="#FFFFFF" d="M119.78,161.535c-0.846,1.261-2.125,1.782-3.601,1.782c-2.539,0-4.213-1.818-4.213-4.393
				c0-2.485,1.729-4.357,4.159-4.357c2.557,0,3.907,1.962,3.907,3.889v0.756h-6.986c0,0.9,0.63,3.134,3.151,3.134
				c1.098,0,2.25-0.576,2.791-1.477L119.78,161.535z M118.952,158.24c0-1.477-1.278-2.701-2.881-2.701
				c-2.359,0-3.025,2.269-3.025,2.701H118.952z"/>
			<path fill="#FFFFFF" d="M122.392,157.124c0-0.612-0.09-1.909-0.09-2.341h1.08c0.018,0.612,0.036,1.296,0.072,1.458h0.054
				c0.432-0.918,1.495-1.674,2.845-1.674c2.593,0,3.169,1.764,3.169,3.583v4.951h-1.081v-4.897c0-1.351-0.378-2.665-2.088-2.665
				c-1.603,0-2.881,1.116-2.881,3.403v4.159h-1.081V157.124z"/>
			<path fill="#FFFFFF" d="M136.331,155.755h-2.377v5.42c0,0.738,0.432,1.171,1.152,1.171c0.414,0,0.846-0.126,1.225-0.288
				l0.09,0.972c-0.396,0.145-0.99,0.288-1.404,0.288c-1.548,0-2.143-0.954-2.143-2.143v-5.42h-1.801v-0.972h1.801v-2.395h1.08v2.395
				h2.377V155.755z"/>
			<path fill="#FFFFFF" d="M145.317,161.535c-0.846,1.261-2.125,1.782-3.601,1.782c-2.539,0-4.213-1.818-4.213-4.393
				c0-2.485,1.729-4.357,4.159-4.357c2.557,0,3.907,1.962,3.907,3.889v0.756h-6.986c0,0.9,0.63,3.134,3.151,3.134
				c1.098,0,2.25-0.576,2.791-1.477L145.317,161.535z M144.489,158.24c0-1.477-1.278-2.701-2.881-2.701
				c-2.359,0-3.025,2.269-3.025,2.701H144.489z"/>
			<path fill="#FFFFFF" d="M47.417,181.496c0.918,0,1.656,0.738,1.656,1.656c0,0.919-0.738,1.657-1.656,1.657
				c-0.918,0-1.657-0.738-1.657-1.657C45.76,182.234,46.498,181.496,47.417,181.496z"/>
			<path fill="#FFFFFF" d="M56.574,178.777c-0.27-0.378-0.774-0.666-1.332-0.666c-1.351,0-2.161,0.9-2.161,2.215
				s0.811,2.214,2.161,2.214c0.594,0,1.026-0.306,1.332-0.666l1.783,1.873c-0.846,0.864-2.089,1.17-3.115,1.17
				c-2.701,0-4.862-1.801-4.862-4.591c0-2.791,2.161-4.592,4.862-4.592c1.026,0,2.269,0.307,3.115,1.171L56.574,178.777z"/>
			<path fill="#FFFFFF" d="M63.662,175.734c2.701,0,4.861,1.801,4.861,4.592c0,2.79-2.161,4.591-4.861,4.591
				s-4.861-1.801-4.861-4.591C58.801,177.535,60.961,175.734,63.662,175.734z M63.662,182.54c1.35,0,2.161-0.899,2.161-2.214
				s-0.811-2.215-2.161-2.215c-1.351,0-2.161,0.9-2.161,2.215S62.312,182.54,63.662,182.54z"/>
			<path fill="#FFFFFF" d="M70.167,175.95h2.593v1.188h0.036c0.36-0.684,1.243-1.404,2.557-1.404c1.225,0,2.233,0.504,2.701,1.566
				c0.63-1.116,1.476-1.566,2.772-1.566c2.377,0,3.097,1.675,3.097,3.799v5.168h-2.701v-5.096c0-0.81-0.306-1.494-1.188-1.494
				c-1.243,0-1.639,0.882-1.639,1.963v4.627h-2.701v-4.627c0-0.648,0.036-1.963-1.207-1.963c-1.404,0-1.62,1.099-1.62,2.232v4.357
				h-2.701V175.95z"/>
			<path fill="#FFFFFF" d="M92.866,181.496c0.918,0,1.656,0.738,1.656,1.656c0,0.919-0.738,1.657-1.656,1.657
				c-0.918,0-1.657-0.738-1.657-1.657C91.209,182.234,91.947,181.496,92.866,181.496z"/>
			<path fill="#FFFFFF" d="M96.482,175.95h2.593v1.188h0.036c0.36-0.684,1.243-1.404,2.557-1.404c2.737,0,3.241,1.801,3.241,4.142
				v4.825h-2.701v-4.285c0-1.009-0.018-2.305-1.405-2.305c-1.404,0-1.62,1.099-1.62,2.232v4.357h-2.701V175.95z"/>
			<path fill="#FFFFFF" d="M115.092,183.188c-0.864,1.099-2.287,1.729-3.691,1.729c-2.701,0-4.862-1.801-4.862-4.591
				c0-2.791,2.161-4.592,4.862-4.592c2.521,0,4.105,1.801,4.105,4.592v0.846h-6.266c0.216,1.026,0.991,1.692,2.035,1.692
				c0.882,0,1.477-0.45,1.927-1.062L115.092,183.188z M112.805,179.336c0.018-0.9-0.685-1.657-1.657-1.657
				c-1.188,0-1.836,0.811-1.909,1.657H112.805z"/>
			<path fill="#FFFFFF" d="M123.149,178.111h-2.376v2.917c0,0.936,0.108,1.62,1.278,1.62c0.288,0,0.864-0.036,1.098-0.252v2.251
				c-0.594,0.216-1.26,0.27-1.891,0.27c-1.8,0-3.187-0.738-3.187-2.646v-4.159h-1.729v-2.161h1.729v-2.593h2.701v2.593h2.376
				V178.111z"/>
			<path fill="#FFFFFF" d="M138.126,183.188c-0.864,1.099-2.287,1.729-3.691,1.729c-2.701,0-4.862-1.801-4.862-4.591
				c0-2.791,2.161-4.592,4.862-4.592c2.521,0,4.105,1.801,4.105,4.592v0.846h-6.266c0.216,1.026,0.991,1.692,2.035,1.692
				c0.882,0,1.477-0.45,1.927-1.062L138.126,183.188z M135.839,179.336c0.018-0.9-0.685-1.657-1.657-1.657
				c-1.188,0-1.836,0.811-1.909,1.657H135.839z"/>
			<path fill="#FFFFFF" d="M147.213,181.496c0.918,0,1.657,0.738,1.657,1.656c0,0.919-0.738,1.657-1.657,1.657
				c-0.918,0-1.656-0.738-1.656-1.657C145.557,182.234,146.295,181.496,147.213,181.496z"/>
			<path fill="#FFFFFF" d="M155.012,175.734c2.701,0,4.861,1.801,4.861,4.592c0,2.79-2.161,4.591-4.861,4.591
				s-4.861-1.801-4.861-4.591C150.15,177.535,152.311,175.734,155.012,175.734z M155.012,182.54c1.35,0,2.161-0.899,2.161-2.214
				s-0.811-2.215-2.161-2.215c-1.351,0-2.161,0.9-2.161,2.215S153.661,182.54,155.012,182.54z"/>
			<path fill="#FFFFFF" d="M161.517,175.95h2.701v1.404h0.036c0.576-1.062,1.333-1.62,2.521-1.62c0.306,0,0.648,0.019,0.9,0.09
				v2.467c-0.378-0.107-0.756-0.18-1.152-0.18c-2.053,0-2.305,1.188-2.305,2.935v3.655h-2.701V175.95z"/>
			<path fill="#FFFFFF" d="M178.046,183.963c0,3.295-1.675,5.06-5.06,5.06c-1.548,0-3.133-0.271-4.394-1.278l1.495-2.232
				c0.828,0.702,1.747,1.134,2.845,1.134c1.639,0,2.413-0.9,2.413-2.143v-0.846h-0.036c-0.612,0.846-1.657,1.152-2.467,1.152
				c-2.593,0-4.303-1.873-4.303-4.52c0-2.323,1.512-4.556,3.997-4.556c1.53,0,2.575,0.738,2.989,1.368h0.036v-1.152h2.485V183.963z
				 M173.4,182.433c1.224,0,2.161-1.026,2.161-2.161c0-1.134-0.937-2.16-2.161-2.16c-1.225,0-2.161,1.026-2.161,2.16
				C171.24,181.406,172.176,182.433,173.4,182.433z"/>
		</g>
	</g>
	<g>
		<circle fill="#8E2316" cx="35.52" cy="140" r="1"/>
		<circle fill="#8E2316" cx="45.458" cy="140" r="1"/>
		<circle fill="#8E2316" cx="55.395" cy="140" r="1"/>
		<circle fill="#8E2316" cx="65.333" cy="140" r="1"/>
		<circle fill="#8E2316" cx="75.27" cy="140" r="1"/>
		<circle fill="#8E2316" cx="85.208" cy="140" r="1"/>
		<circle fill="#8E2316" cx="95.146" cy="140" r="1"/>
		<circle fill="#8E2316" cx="105.083" cy="140" r="1"/>
		<circle fill="#8E2316" cx="115.02" cy="140" r="1"/>
		<circle fill="#8E2316" cx="124.958" cy="140" r="1"/>
		<circle fill="#8E2316" cx="134.896" cy="140" r="1"/>
		<circle fill="#8E2316" cx="144.833" cy="140" r="1"/>
		<circle fill="#8E2316" cx="154.77" cy="140" r="1"/>
		<circle fill="#8E2316" cx="164.708" cy="140" r="1"/>
		<circle fill="#8E2316" cx="174.645" cy="140" r="1"/>
		<circle fill="#8E2316" cx="184.583" cy="140" r="1"/>
		<circle fill="#8E2316" cx="194.52" cy="140" r="1"/>
	</g>
</g>
</svg>
