<?xml version="1.0" encoding="utf-8"?>
<!-- Generator: Adobe Illustrator 16.0.0, SVG Export Plug-In . SVG Version: 6.00 Build 0)  -->
<!DOCTYPE svg PUBLIC "-//W3C//DTD SVG 1.1//EN" "http://www.w3.org/Graphics/SVG/1.1/DTD/svg11.dtd">
<svg version="1.1" id="Layer_1" xmlns="http://www.w3.org/2000/svg" xmlns:xlink="http://www.w3.org/1999/xlink" x="0px" y="0px"
	 width="224px" height="224px" viewBox="0 0 224 224" enable-background="new 0 0 224 224" xml:space="preserve">
<g>
	<circle fill="#74B24A" stroke="#FFFFFF" stroke-width="4" stroke-miterlimit="10" cx="112" cy="112" r="110"/>
	<g>
		<g>
			<path fill="#054C15" d="M60.188,96.68c2.058,0,3.716,1.658,3.716,3.716s-1.659,3.716-3.716,3.716s-3.716-1.658-3.716-3.716
				S58.13,96.68,60.188,96.68z"/>
			<path fill="#054C15" d="M73.077,95.08h8.229v2.053h-5.96v3.35h5.618v2.052h-5.618v5.294h-2.269V95.08z"/>
			<path fill="#054C15" d="M84.206,94.954c0.792,0,1.404,0.559,1.404,1.297c0,0.738-0.612,1.296-1.404,1.296
				s-1.369-0.612-1.369-1.296C82.837,95.566,83.414,94.954,84.206,94.954z M83.144,99.186h2.161v8.643h-2.161V99.186z"/>
			<path fill="#054C15" d="M94.608,106.531h-0.036c-0.63,1.045-1.765,1.513-2.971,1.513c-2.665,0-4.268-1.98-4.268-4.537
				c0-2.557,1.711-4.537,4.178-4.537c1.62,0,2.484,0.756,2.935,1.314H94.5v-6.068h2.161v13.612h-2.053V106.531z M92.034,106.1
				c1.584,0,2.539-1.242,2.539-2.593c0-1.351-0.954-2.593-2.539-2.593s-2.539,1.242-2.539,2.593
				C89.495,104.858,90.449,106.1,92.034,106.1z"/>
			<path fill="#054C15" d="M100.863,104.263c0.144,1.278,1.116,2.053,2.322,2.053c1.081,0,1.783-0.504,2.323-1.17l1.548,1.17
				c-1.008,1.242-2.287,1.729-3.655,1.729c-2.611,0-4.7-1.818-4.7-4.537c0-2.719,2.089-4.537,4.7-4.537
				c2.413,0,4.051,1.692,4.051,4.699v0.594L100.863,104.263L100.863,104.263z M105.292,102.643
				c-0.018-1.261-0.846-2.053-2.197-2.053c-1.278,0-2.071,0.811-2.232,2.053H105.292z"/>
			<path fill="#054C15" d="M109.531,94.216h2.161v13.612h-2.161V94.216z"/>
			<path fill="#054C15" d="M115.273,94.954c0.791,0,1.403,0.559,1.403,1.297c0,0.738-0.612,1.296-1.403,1.296
				c-0.793,0-1.369-0.612-1.369-1.296C113.905,95.566,114.48,94.954,115.273,94.954z M114.211,99.186h2.161v8.643h-2.161V99.186z"/>
			<path fill="#054C15" d="M118.189,105.829l4.627-4.879v-0.036h-4.412v-1.729h7.021v1.963l-4.681,4.951h4.897v1.729h-7.455v-1.999
				H118.189z"/>
			<path fill="#054C15" d="M132.979,106.64h-0.054c-0.612,0.973-1.62,1.404-2.772,1.404c-1.603,0-3.15-0.882-3.15-2.593
				c0-2.809,3.277-3.007,5.438-3.007h0.541v-0.233c0-1.063-0.828-1.621-1.98-1.621c-0.9,0-1.729,0.36-2.305,0.9l-1.135-1.135
				c0.955-0.972,2.306-1.386,3.674-1.386c3.69,0,3.69,2.665,3.69,3.889v4.97h-1.944v-1.188H132.979z M132.854,103.957h-0.449
				c-1.188,0-3.241,0.09-3.241,1.332c0,0.793,0.812,1.135,1.513,1.135c1.477,0,2.18-0.774,2.18-1.98v-0.487H132.854z"/>
			<path fill="#054C15" d="M143.18,101.778c-0.504-0.522-1.062-0.864-1.638-0.864c-1.584,0-2.539,1.242-2.539,2.593
				c0,1.351,0.954,2.593,2.539,2.593c0.666,0,1.278-0.288,1.674-0.811l1.44,1.549c-0.864,0.864-2.323,1.206-3.079,1.206
				l-0.612,0.864c1.063,0,2.18,0.108,2.18,1.495c0,1.313-1.422,1.746-2.504,1.746c-0.666,0-1.332-0.18-1.908-0.504l0.396-0.828
				c0.45,0.233,0.954,0.359,1.476,0.359c0.396,0,1.026-0.162,1.026-0.756c0-0.468-0.54-0.648-0.918-0.648
				c-0.233,0-0.45,0.055-0.667,0.126l-0.486-0.45l1.026-1.494c-2.144-0.378-3.745-2.07-3.745-4.447c0-2.719,2.09-4.537,4.7-4.537
				c1.099,0,2.305,0.396,3.133,1.314L143.18,101.778z"/>
			<path fill="#054C15" d="M151.616,106.64h-0.054c-0.612,0.973-1.621,1.404-2.772,1.404c-1.603,0-3.151-0.882-3.151-2.593
				c0-2.809,3.277-3.007,5.438-3.007h0.54v-0.233c0-1.063-0.828-1.621-1.98-1.621c-0.9,0-1.729,0.36-2.305,0.9l-1.134-1.135
				c0.954-0.972,2.305-1.386,3.673-1.386c3.691,0,3.691,2.665,3.691,3.889v4.97h-1.944v-1.188H151.616z M146.521,97.602
				c0.197-1.152,0.666-2.287,2.017-2.287c0.973,0,2.017,0.666,2.593,0.666c0.486,0,0.702-0.36,0.829-0.756h1.188
				c-0.198,1.152-0.666,2.286-2.018,2.286c-0.972,0-2.017-0.684-2.593-0.684c-0.486,0-0.702,0.378-0.828,0.774L146.521,97.602
				L146.521,97.602z M151.49,103.957h-0.45c-1.188,0-3.241,0.09-3.241,1.332c0,0.793,0.811,1.135,1.514,1.135
				c1.477,0,2.179-0.774,2.179-1.98L151.49,103.957L151.49,103.957z"/>
			<path fill="#054C15" d="M160.178,98.97c2.611,0,4.7,1.818,4.7,4.537c0,2.719-2.089,4.537-4.7,4.537s-4.699-1.818-4.699-4.537
				C155.479,100.788,157.566,98.97,160.178,98.97z M160.178,106.1c1.584,0,2.539-1.242,2.539-2.593c0-1.351-0.953-2.593-2.539-2.593
				c-1.585,0-2.539,1.242-2.539,2.593C157.639,104.858,158.594,106.1,160.178,106.1z"/>
			<path fill="#054C15" d="M36.315,120.68c2.058,0,3.716,1.658,3.716,3.717c0,2.058-1.659,3.715-3.716,3.715
				s-3.716-1.657-3.716-3.715C32.599,122.338,34.257,120.68,36.315,120.68z"/>
			<path fill="#054C15" d="M55.254,118.756c3.979-0.07,6.788,2.594,6.788,6.682c0,3.979-2.809,6.644-6.788,6.715
				c-3.925,0-6.734-2.664-6.734-6.645C48.52,121.421,51.329,118.756,55.254,118.756z M55.272,130.1c2.647,0,4.393-2.017,4.393-4.734
				c0-2.539-1.746-4.557-4.393-4.557c-2.629,0-4.375,2.018-4.375,4.557C50.896,128.083,52.643,130.1,55.272,130.1z"/>
			<path fill="#054C15" d="M64.111,118.216h2.161v6.068h0.054c0.45-0.56,1.314-1.314,2.935-1.314c2.467,0,4.177,1.98,4.177,4.537
				c0,2.558-1.603,4.537-4.268,4.537c-1.206,0-2.34-0.468-2.971-1.513h-0.036v1.297H64.11L64.111,118.216L64.111,118.216z
				 M68.739,124.914c-1.584,0-2.539,1.242-2.539,2.593s0.954,2.593,2.539,2.593c1.585,0,2.539-1.242,2.539-2.593
				S70.323,124.914,68.739,124.914z"/>
			<path fill="#054C15" d="M75.489,123.186h2.16v1.369h0.036c0.468-0.99,1.422-1.585,2.557-1.585c0.271,0,0.522,0.054,0.774,0.126
				v2.09c-0.36-0.092-0.702-0.162-1.044-0.162c-2.035,0-2.323,1.709-2.323,2.179v4.627h-2.16V123.186z"/>
			<path fill="#054C15" d="M83.571,118.954c0.792,0,1.404,0.56,1.404,1.297c0,0.738-0.612,1.296-1.404,1.296
				s-1.369-0.611-1.369-1.296C82.203,119.566,82.779,118.954,83.571,118.954z M82.509,123.186h2.161v8.644h-2.161V123.186z"/>
			<path fill="#054C15" d="M95.986,123.186v7.869c0,3.114-1.513,5.096-4.879,5.096c-1.603,0-3.061-0.342-4.286-1.424l1.296-1.764
				c0.864,0.792,1.765,1.242,2.971,1.242c2.088,0,2.737-1.188,2.737-2.898v-0.631H93.79c-0.63,0.848-1.747,1.262-2.827,1.262
				c-2.593,0-4.304-1.981-4.304-4.431c0-2.557,1.603-4.537,4.268-4.537c1.206,0,2.341,0.468,2.971,1.513h0.036v-1.297H95.986z
				 M88.82,127.489c0,1.368,1.08,2.502,2.539,2.502c1.603,0,2.575-1.099,2.575-2.538c0-1.495-0.99-2.539-2.557-2.539
				C89.864,124.914,88.82,125.958,88.82,127.489z"/>
			<path fill="#054C15" d="M103.873,130.641h-0.054c-0.612,0.973-1.62,1.403-2.772,1.403c-1.603,0-3.151-0.882-3.151-2.593
				c0-2.809,3.277-3.008,5.438-3.008h0.54v-0.232c0-1.063-0.828-1.621-1.98-1.621c-0.9,0-1.729,0.36-2.305,0.9l-1.134-1.135
				c0.954-0.973,2.305-1.387,3.673-1.387c3.691,0,3.691,2.665,3.691,3.889v4.971h-1.945L103.873,130.641L103.873,130.641z
				 M103.747,127.957h-0.45c-1.188,0-3.241,0.09-3.241,1.332c0,0.793,0.81,1.135,1.512,1.135c1.477,0,2.179-0.773,2.179-1.98
				V127.957z"/>
			<path fill="#054C15" d="M107.14,125.021v-1.836h1.782v-2.504h2.161v2.504h2.377v1.836h-2.377v3.78
				c0,0.865,0.252,1.405,1.207,1.405c0.378,0,0.899-0.072,1.17-0.271v1.818c-0.45,0.217-1.207,0.288-1.71,0.288
				c-2.287,0-2.827-1.026-2.827-3.062v-3.961h-1.783V125.021z"/>
			<path fill="#054C15" d="M119.264,122.97c2.611,0,4.699,1.818,4.699,4.537c0,2.72-2.088,4.537-4.699,4.537
				s-4.699-1.817-4.699-4.537C114.564,124.788,116.652,122.97,119.264,122.97z M119.264,130.1c1.584,0,2.539-1.242,2.539-2.593
				s-0.953-2.593-2.539-2.593c-1.584,0-2.539,1.242-2.539,2.593S117.68,130.1,119.264,130.1z"/>
			<path fill="#054C15" d="M125.982,123.186h2.162v1.369h0.035c0.469-0.99,1.422-1.585,2.557-1.585c0.271,0,0.522,0.054,0.774,0.126
				v2.09c-0.36-0.092-0.702-0.162-1.044-0.162c-2.033,0-2.322,1.709-2.322,2.179v4.627h-2.16v-8.644H125.982z"/>
			<path fill="#054C15" d="M134.066,118.954c0.791,0,1.403,0.56,1.403,1.297c0,0.738-0.612,1.296-1.403,1.296
				c-0.793,0-1.369-0.611-1.369-1.296S133.273,118.954,134.066,118.954z M133.003,123.186h2.161v8.644h-2.161V123.186z"/>
			<path fill="#054C15" d="M139.314,128.264c0.145,1.277,1.117,2.053,2.322,2.053c1.081,0,1.783-0.504,2.323-1.17l1.549,1.17
				c-1.009,1.242-2.286,1.729-3.655,1.729c-2.61,0-4.699-1.818-4.699-4.537s2.089-4.537,4.699-4.537
				c2.414,0,4.051,1.692,4.051,4.699v0.594H139.314L139.314,128.264z M143.744,126.643c-0.018-1.261-0.846-2.053-2.197-2.053
				c-1.277,0-2.07,0.811-2.232,2.053H143.744z"/>
			<path fill="#054C15" d="M154.798,130.531h-0.036c-0.63,1.045-1.765,1.513-2.971,1.513c-2.665,0-4.268-1.979-4.268-4.537
				c0-2.557,1.711-4.537,4.178-4.537c1.619,0,2.484,0.757,2.935,1.314h0.054v-6.068h2.162v13.612h-2.054V130.531z M152.223,130.1
				c1.584,0,2.539-1.242,2.539-2.593s-0.953-2.593-2.539-2.593c-1.584,0-2.539,1.242-2.539,2.593S150.639,130.1,152.223,130.1z"/>
			<path fill="#054C15" d="M164.734,130.641h-0.055c-0.611,0.973-1.619,1.403-2.771,1.403c-1.604,0-3.151-0.882-3.151-2.593
				c0-2.809,3.277-3.008,5.438-3.008h0.539v-0.232c0-1.063-0.827-1.621-1.979-1.621c-0.899,0-1.729,0.36-2.305,0.9l-1.134-1.135
				c0.953-0.973,2.305-1.387,3.673-1.387c3.69,0,3.69,2.665,3.69,3.889v4.971h-1.945V130.641L164.734,130.641z M164.607,127.957
				h-0.449c-1.188,0-3.24,0.09-3.24,1.332c0,0.793,0.811,1.135,1.512,1.135c1.477,0,2.178-0.773,2.178-1.98V127.957L164.607,127.957
				z"/>
			<path fill="#054C15" d="M175.904,130.531h-0.036c-0.63,1.045-1.765,1.513-2.972,1.513c-2.664,0-4.268-1.979-4.268-4.537
				c0-2.557,1.711-4.537,4.178-4.537c1.62,0,2.484,0.757,2.936,1.314h0.054v-6.068h2.161v13.612h-2.053V130.531z M173.329,130.1
				c1.585,0,2.539-1.242,2.539-2.593s-0.954-2.593-2.539-2.593c-1.584,0-2.538,1.242-2.538,2.593S171.745,130.1,173.329,130.1z"/>
			<path fill="#054C15" d="M182.159,128.264c0.144,1.277,1.116,2.053,2.321,2.053c1.08,0,1.783-0.504,2.324-1.17l1.547,1.17
				c-1.008,1.242-2.285,1.729-3.654,1.729c-2.61,0-4.699-1.818-4.699-4.537s2.089-4.537,4.699-4.537
				c2.412,0,4.052,1.692,4.052,4.699v0.594H182.159L182.159,128.264z M186.588,126.643c-0.018-1.261-0.846-2.053-2.195-2.053
				c-1.278,0-2.07,0.811-2.232,2.053H186.588z"/>
			<path fill="#054C15" d="M55.066,154.531H55.03c-0.63,1.045-1.765,1.513-2.971,1.513c-2.665,0-4.268-1.979-4.268-4.537
				c0-2.557,1.711-4.537,4.178-4.537c1.62,0,2.484,0.757,2.935,1.314h0.054v-6.068h2.161v13.612h-2.053V154.531z M52.492,154.1
				c1.584,0,2.539-1.242,2.539-2.593s-0.954-2.593-2.539-2.593s-2.539,1.242-2.539,2.593S50.907,154.1,52.492,154.1z"/>
			<path fill="#054C15" d="M61.321,152.264c0.145,1.277,1.117,2.053,2.323,2.053c1.081,0,1.783-0.504,2.323-1.17l1.549,1.17
				c-1.009,1.242-2.287,1.729-3.655,1.729c-2.611,0-4.699-1.818-4.699-4.537s2.088-4.537,4.699-4.537
				c2.413,0,4.051,1.692,4.051,4.699v0.594H61.321L61.321,152.264z M65.751,150.643c-0.018-1.261-0.846-2.053-2.197-2.053
				c-1.278,0-2.071,0.811-2.233,2.053H65.751z"/>
			<path fill="#054C15" d="M84.201,146.068c-0.936-0.989-1.8-1.26-2.683-1.26c-2.629,0-4.375,2.017-4.375,4.556
				c0,2.719,1.747,4.735,4.375,4.735c1.026,0,2.017-0.469,2.863-1.55l1.873,1.333c-1.152,1.584-2.881,2.27-4.753,2.27
				c-3.925,0-6.734-2.666-6.734-6.646c0-4.087,2.809-6.752,6.734-6.752c1.729,0,3.205,0.56,4.465,2.017L84.201,146.068z"/>
			<path fill="#054C15" d="M91.902,146.97c2.611,0,4.699,1.818,4.699,4.537c0,2.72-2.088,4.537-4.699,4.537
				c-2.611,0-4.699-1.817-4.699-4.537C87.203,148.788,89.292,146.97,91.902,146.97z M91.902,154.1c1.584,0,2.539-1.242,2.539-2.593
				s-0.954-2.593-2.539-2.593s-2.539,1.242-2.539,2.593S90.318,154.1,91.902,154.1z"/>
			<path fill="#054C15" d="M98.577,147.186h2.053v1.352h0.036c0.378-0.811,1.206-1.566,2.646-1.566c1.333,0,2.251,0.521,2.701,1.604
				c0.63-1.1,1.549-1.604,2.845-1.604c2.305,0,3.115,1.639,3.115,3.709v5.149h-2.161v-4.897c0-1.08-0.324-2.017-1.603-2.017
				c-1.35,0-1.854,1.116-1.854,2.231v4.683h-2.161v-5.149c0-1.063-0.432-1.765-1.477-1.765c-1.422,0-1.98,1.044-1.98,2.196v4.718
				h-2.161L98.577,147.186L98.577,147.186z"/>
			<path fill="#054C15" d="M114.418,147.186h2.053v1.297h0.036c0.63-1.045,1.765-1.513,2.972-1.513c2.664,0,4.268,1.98,4.268,4.537
				c0,2.558-1.71,4.537-4.178,4.537c-1.62,0-2.484-0.756-2.935-1.313h-0.054v5.203h-2.161L114.418,147.186L114.418,147.186z
				 M119.045,148.914c-1.584,0-2.539,1.242-2.539,2.593s0.954,2.593,2.539,2.593s2.539-1.242,2.539-2.593
				S120.63,148.914,119.045,148.914z"/>
			<path fill="#054C15" d="M125.796,147.186h2.161v1.369h0.036c0.468-0.99,1.422-1.585,2.557-1.585c0.271,0,0.522,0.054,0.774,0.126
				v2.09c-0.36-0.092-0.702-0.162-1.044-0.162c-2.034,0-2.322,1.709-2.322,2.179v4.627h-2.161L125.796,147.186L125.796,147.186z"/>
			<path fill="#054C15" d="M138.208,154.641h-0.054c-0.612,0.973-1.62,1.403-2.772,1.403c-1.603,0-3.151-0.882-3.151-2.593
				c0-2.809,3.277-3.008,5.438-3.008h0.54v-0.232c0-1.063-0.828-1.621-1.98-1.621c-0.899,0-1.729,0.36-2.305,0.9l-1.134-1.135
				c0.954-0.973,2.305-1.387,3.673-1.387c3.691,0,3.691,2.665,3.691,3.889v4.971h-1.945L138.208,154.641L138.208,154.641z
				 M138.083,151.957h-0.45c-1.188,0-3.24,0.09-3.24,1.332c0,0.793,0.81,1.135,1.512,1.135c1.477,0,2.179-0.773,2.179-1.98V151.957z
				"/>
			<path fill="#054C15" d="M154.643,154.531h-0.035c-0.631,1.045-1.766,1.513-2.972,1.513c-2.665,0-4.268-1.979-4.268-4.537
				c0-2.557,1.711-4.537,4.178-4.537c1.62,0,2.484,0.757,2.935,1.314h0.055v-6.068h2.16v13.612h-2.053V154.531z M152.068,154.1
				c1.584,0,2.539-1.242,2.539-2.593s-0.955-2.593-2.539-2.593c-1.586,0-2.539,1.242-2.539,2.593S150.482,154.1,152.068,154.1z"/>
			<path fill="#054C15" d="M160.896,152.264c0.146,1.277,1.117,2.053,2.323,2.053c1.08,0,1.782-0.504,2.322-1.17l1.549,1.17
				c-1.009,1.242-2.286,1.729-3.655,1.729c-2.61,0-4.699-1.818-4.699-4.537s2.089-4.537,4.699-4.537
				c2.414,0,4.051,1.692,4.051,4.699v0.594H160.896L160.896,152.264z M165.327,150.643c-0.019-1.261-0.847-2.053-2.197-2.053
				c-1.278,0-2.071,0.811-2.233,2.053H165.327z"/>
			<path fill="#054C15" d="M73.565,167.08h4.285c2.467,0,4.7,0.863,4.7,3.691c0,3.205-2.395,3.78-5.096,3.78h-1.621v5.275h-2.269
				L73.565,167.08L73.565,167.08z M77.203,172.607c1.296,0,2.971-0.071,2.971-1.801c0-1.565-1.494-1.781-2.719-1.781h-1.621v3.582
				H77.203z"/>
			<path fill="#054C15" d="M84.182,171.186h2.161v1.369h0.036c0.468-0.99,1.422-1.585,2.557-1.585c0.27,0,0.522,0.054,0.774,0.126
				v2.09c-0.36-0.092-0.702-0.162-1.044-0.162c-2.034,0-2.322,1.709-2.322,2.179v4.627h-2.161L84.182,171.186L84.182,171.186z"/>
			<path fill="#054C15" d="M95.426,170.97c2.611,0,4.699,1.818,4.699,4.537c0,2.72-2.088,4.537-4.699,4.537
				c-2.611,0-4.699-1.817-4.699-4.537C90.727,172.788,92.815,170.97,95.426,170.97z M95.426,178.1c1.584,0,2.539-1.242,2.539-2.593
				s-0.954-2.593-2.539-2.593s-2.539,1.242-2.539,2.593S93.841,178.1,95.426,178.1z"/>
			<path fill="#054C15" d="M108.987,178.531h-0.036c-0.63,1.045-1.765,1.513-2.971,1.513c-2.665,0-4.268-1.979-4.268-4.537
				c0-2.557,1.711-4.537,4.178-4.537c1.62,0,2.484,0.757,2.935,1.314h0.054v-6.068h2.161v13.612h-2.053V178.531z M106.413,178.1
				c1.584,0,2.539-1.242,2.539-2.593s-0.954-2.593-2.539-2.593s-2.539,1.242-2.539,2.593S104.828,178.1,106.413,178.1z"/>
			<path fill="#054C15" d="M121.393,179.828h-2.054v-1.387h-0.036c-0.396,0.863-1.205,1.603-2.646,1.603
				c-2.323,0-3.151-1.639-3.151-3.401v-5.457h2.161v4.375c0,0.955,0.072,2.539,1.584,2.539c1.423,0,1.981-1.043,1.981-2.195v-4.719
				h2.16V179.828L121.393,179.828z"/>
			<path fill="#054C15" d="M122.857,173.021v-1.836h1.781v-2.504h2.161v2.504h2.377v1.836H126.8v3.78
				c0,0.865,0.252,1.405,1.207,1.405c0.378,0,0.9-0.072,1.17-0.271v1.818c-0.45,0.217-1.207,0.288-1.71,0.288
				c-2.287,0-2.826-1.026-2.826-3.062v-3.961h-1.783V173.021z"/>
			<path fill="#054C15" d="M134.982,170.97c2.61,0,4.699,1.818,4.699,4.537c0,2.72-2.089,4.537-4.699,4.537
				c-2.611,0-4.7-1.817-4.7-4.537C130.282,172.788,132.371,170.97,134.982,170.97z M134.982,178.1c1.584,0,2.539-1.242,2.539-2.593
				s-0.955-2.593-2.539-2.593c-1.586,0-2.539,1.242-2.539,2.593S133.396,178.1,134.982,178.1z"/>
			<path fill="#054C15" d="M146.305,173.58c-0.416-0.576-0.955-0.882-1.693-0.882c-0.576,0-1.26,0.27-1.26,0.918
				c0,1.549,4.664,0.288,4.664,3.655c0,2.053-1.964,2.771-3.728,2.771c-1.333,0-2.485-0.342-3.367-1.332l1.44-1.352
				c0.558,0.613,1.134,1.063,2.053,1.063c0.63,0,1.439-0.307,1.439-0.989c0-1.783-4.664-0.379-4.664-3.674
				c0-1.927,1.729-2.791,3.476-2.791c1.151,0,2.376,0.36,3.079,1.314L146.305,173.58z"/>
		</g>
	</g>
	<g>
		<g>
			<path fill="#FFFFFF" d="M77.659,46.025c-1.296-1.824-3.6-2.688-5.953-2.688c-2.784,0-5.568,1.248-5.568,4.369
				c0,6.816,16.129,2.928,16.129,15.025c0,7.296-5.76,10.849-12.433,10.849c-4.224,0-8.353-1.296-11.137-4.608l4.56-4.417
				c1.488,2.257,4.033,3.553,6.721,3.553c2.784,0,5.953-1.536,5.953-4.656c0-7.44-16.129-3.168-16.129-15.313
				c0-7.009,6.24-10.272,12.529-10.272c3.553,0,7.105,1.008,9.745,3.504L77.659,46.025z"/>
			<path fill="#FFFFFF" d="M91.169,38.729h22.515v5.473H97.218v8.353h15.603v5.473H97.218v9.217h17.33v5.473H91.169V38.729z"/>
			<path fill="#FFFFFF" d="M123.579,38.729h9.217l9.073,23.811l9.168-23.811h9.121v33.987h-5.762V44.489h-0.096l-10.32,28.227
				h-4.225l-10.32-28.227h-0.097v28.227h-5.76V38.729z"/>
		</g>
	</g>
	<g>
		<circle fill="#3C6620" cx="32.5" cy="85" r="1"/>
		<circle fill="#3C6620" cx="42.438" cy="85" r="1"/>
		<circle fill="#3C6620" cx="52.375" cy="85" r="1"/>
		<circle fill="#3C6620" cx="62.313" cy="85" r="1"/>
		<circle fill="#3C6620" cx="72.25" cy="85" r="1"/>
		<circle fill="#3C6620" cx="82.188" cy="85" r="1"/>
		<circle fill="#3C6620" cx="92.125" cy="85" r="1"/>
		<circle fill="#3C6620" cx="102.063" cy="85" r="1"/>
		<circle fill="#3C6620" cx="112" cy="85" r="1"/>
		<circle fill="#3C6620" cx="121.938" cy="85" r="1"/>
		<circle fill="#3C6620" cx="131.875" cy="85" r="1"/>
		<circle fill="#3C6620" cx="141.813" cy="85" r="1"/>
		<circle fill="#3C6620" cx="151.75" cy="85" r="1"/>
		<circle fill="#3C6620" cx="161.688" cy="85" r="1"/>
		<circle fill="#3C6620" cx="171.625" cy="85" r="1"/>
		<circle fill="#3C6620" cx="181.563" cy="85" r="1"/>
		<circle fill="#3C6620" cx="191.5" cy="85" r="1"/>
	</g>
</g>
</svg>
