<?xml version="1.0" encoding="utf-8"?>
<!-- Generator: Adobe Illustrator 16.0.0, SVG Export Plug-In . SVG Version: 6.00 Build 0)  -->
<!DOCTYPE svg PUBLIC "-//W3C//DTD SVG 1.1//EN" "http://www.w3.org/Graphics/SVG/1.1/DTD/svg11.dtd">
<svg version="1.1" id="Layer_1" xmlns="http://www.w3.org/2000/svg" xmlns:xlink="http://www.w3.org/1999/xlink" x="0px" y="0px"
	 width="224px" height="224px" viewBox="0 0 224 224" enable-background="new 0 0 224 224" xml:space="preserve">
<g>
	
		<circle fill-rule="evenodd" clip-rule="evenodd" fill="#4B7330" stroke="#FFFFFF" stroke-width="4" stroke-miterlimit="10" cx="112" cy="112" r="110"/>
	<g>
		<path fill="#FFFFFF" d="M68.408,42.822h12.229v1.73H70.313v7.268h9.604v1.729h-9.604v9.69h-1.904V42.822z"/>
		<path fill="#FFFFFF" d="M95.027,57.645c0,2.596,0.057,4.066,0.26,5.595h-1.615c-0.115-0.663-0.174-1.413-0.174-2.163h-0.057
			c-0.98,1.701-2.424,2.509-4.672,2.509c-2.279,0-4.701-1.124-4.701-3.95c0-4.066,4.758-4.471,7.383-4.471h2.02v-0.808
			c0-2.307-1.615-3.229-3.75-3.229c-1.557,0-2.885,0.49-4.066,1.5l-1.01-1.183c1.27-1.212,3.346-1.875,5.076-1.875
			c3.23,0,5.307,1.442,5.307,4.816V57.645z M91.566,56.549c-2.885,0-5.768,0.721-5.768,2.999c0,1.644,1.586,2.48,3.027,2.48
			c3.691,0,4.645-2.365,4.645-4.586v-0.894H91.566z"/>
		<path fill="#FFFFFF" d="M100.996,41.437h1.73V63.24h-1.73V41.437z"/>
		<path fill="#FFFFFF" d="M115.445,51.473h-3.807v8.681c0,1.183,0.691,1.875,1.846,1.875c0.664,0,1.355-0.202,1.961-0.462
			l0.145,1.558c-0.635,0.23-1.586,0.461-2.25,0.461c-2.48,0-3.432-1.528-3.432-3.432v-8.681h-2.885v-1.557h2.885v-3.836h1.73v3.836
			h3.807V51.473z"/>
		<path fill="#FFFFFF" d="M130.305,57.645c0,2.596,0.057,4.066,0.26,5.595h-1.615c-0.115-0.663-0.174-1.413-0.174-2.163h-0.057
			c-0.98,1.701-2.424,2.509-4.672,2.509c-2.279,0-4.701-1.124-4.701-3.95c0-4.066,4.758-4.471,7.383-4.471h2.02v-0.808
			c0-2.307-1.615-3.229-3.75-3.229c-1.557,0-2.885,0.49-4.066,1.5l-1.01-1.183c1.27-1.212,3.346-1.875,5.076-1.875
			c3.23,0,5.307,1.442,5.307,4.816V57.645z M126.844,56.549c-2.885,0-5.768,0.721-5.768,2.999c0,1.644,1.586,2.48,3.027,2.48
			c3.691,0,4.645-2.365,4.645-4.586v-0.894H126.844z"/>
		<path fill="#FFFFFF" d="M136.131,53.666c0-0.98-0.145-3.058-0.145-3.749h1.73c0.027,0.98,0.057,2.076,0.115,2.336h0.086
			c0.691-1.471,2.395-2.683,4.557-2.683c1.76,0,3.375,0.865,4.008,2.884c0.838-1.989,2.684-2.884,4.529-2.884
			c4.152,0,5.074,2.826,5.074,5.739v7.931h-1.73v-7.845c0-2.162-0.605-4.268-3.344-4.268c-3.201,0-4.039,2.711-4.039,4.614v7.498
			h-1.73v-8.018c0-2.451-0.893-4.095-2.768-4.095c-2.566,0-4.615,1.788-4.615,5.45v6.662h-1.729V53.666z"/>
		<path fill="#FFFFFF" d="M53.762,81.691c3.037,0,9.844,1.192,9.844,14.073c0,12.882-6.807,14.074-9.844,14.074
			c-3.039,0-9.844-1.192-9.844-14.074C43.918,82.883,50.723,81.691,53.762,81.691z M53.762,105.455c4.613,0,5.229-6.307,5.229-9.69
			s-0.615-9.689-5.229-9.689c-4.615,0-5.23,6.306-5.23,9.689S49.146,105.455,53.762,105.455z"/>
		<path fill="#FFFFFF" d="M77.768,103.839H66.193v-4.576l10.959-17.11h5.23v17.533h3.959v4.153h-3.959v5.537h-4.615V103.839z
			 M77.768,88.689h-0.076l-6.807,10.997h6.883V88.689z"/>
		<path fill="#FFFFFF" d="M116.254,106.608h-0.078c-1.346,2.23-3.768,3.23-6.344,3.23c-5.691,0-9.113-4.23-9.113-9.69
			s3.652-9.69,8.922-9.69c3.459,0,5.305,1.615,6.268,2.808h0.115V80.307h4.613v29.069h-4.383V106.608z M110.754,105.685
			c3.385,0,5.422-2.653,5.422-5.537s-2.037-5.537-5.422-5.537c-3.383,0-5.42,2.653-5.42,5.537S107.371,105.685,110.754,105.685z"/>
		<path fill="#FFFFFF" d="M128.02,81.883c1.693,0,3,1.191,3,2.769c0,1.576-1.307,2.769-3,2.769c-1.691,0-2.922-1.308-2.922-2.769
			S126.328,81.883,128.02,81.883z M125.752,90.919h4.613v18.457h-4.613V90.919z"/>
		<path fill="#FFFFFF" d="M146.902,106.838h-0.115c-1.307,2.076-3.461,3-5.922,3c-3.422,0-6.729-1.885-6.729-5.537
			c0-5.999,6.998-6.422,11.613-6.422h1.152v-0.5c0-2.269-1.768-3.461-4.229-3.461c-1.924,0-3.691,0.77-4.922,1.923l-2.424-2.423
			c2.039-2.076,4.922-2.961,7.846-2.961c7.883,0,7.883,5.691,7.883,8.307v10.612h-4.154V106.838z M146.633,101.109h-0.961
			c-2.537,0-6.92,0.192-6.92,2.846c0,1.692,1.729,2.423,3.229,2.423c3.154,0,4.652-1.653,4.652-4.23V101.109z"/>
		<path fill="#FFFFFF" d="M165.91,96.034c-0.885-1.23-2.037-1.885-3.615-1.885c-1.23,0-2.691,0.577-2.691,1.962
			c0,3.307,9.959,0.615,9.959,7.806c0,4.383-4.191,5.922-7.959,5.922c-2.846,0-5.307-0.731-7.191-2.846l3.076-2.884
			c1.193,1.307,2.424,2.269,4.385,2.269c1.346,0,3.076-0.654,3.076-2.115c0-3.807-9.959-0.808-9.959-7.844
			c0-4.115,3.691-5.961,7.42-5.961c2.461,0,5.076,0.77,6.576,2.808L165.91,96.034z"/>
		<path fill="#FFFFFF" d="M175.932,103.686c1.654,0,3.076,1.269,3.076,2.922s-1.385,2.999-3.076,2.999
			c-1.615,0-3.076-1.269-3.076-2.922S174.24,103.686,175.932,103.686z M178.238,100.84h-4.613V82.153h4.613V100.84z"/>
	</g>
	<g>
		<g>
			<path fill="#FFFFFF" d="M76.58,159.875c0.451,0.883,1.441,1.369,2.413,1.369c0.937,0,1.909-0.576,1.909-1.531
				c0-2.287-4.934-0.684-4.934-3.854c0-1.621,1.477-2.395,2.844-2.395c1.352,0,2.396,0.504,2.936,1.566l-0.973,0.576
				c-0.414-0.756-0.99-1.17-1.963-1.17c-0.773,0-1.764,0.469-1.764,1.332c0,2.25,4.934,0.504,4.934,3.871
				c0,1.711-1.423,2.574-3.008,2.574c-1.422,0-2.7-0.539-3.348-1.691L76.58,159.875z"/>
			<path fill="#FFFFFF" d="M88.109,153.465c2.557,0,4.375,1.836,4.375,4.375s-1.818,4.375-4.375,4.375s-4.376-1.836-4.376-4.375
				S85.553,153.465,88.109,153.465z M88.109,161.244c2.034,0,3.295-1.531,3.295-3.404s-1.261-3.402-3.295-3.402
				c-2.035,0-3.295,1.529-3.295,3.402S86.074,161.244,88.109,161.244z"/>
			<path fill="#FFFFFF" d="M94.809,156.021c0-0.611-0.09-1.908-0.09-2.34h1.08c0.019,0.611,0.037,1.295,0.072,1.457h0.055
				c0.432-0.918,1.494-1.674,2.844-1.674c1.1,0,2.107,0.541,2.504,1.801c0.521-1.242,1.674-1.801,2.826-1.801
				c2.594,0,3.17,1.766,3.17,3.584V162h-1.081v-4.898c0-1.35-0.378-2.664-2.089-2.664c-1.998,0-2.521,1.691-2.521,2.881V162h-1.081
				v-5.006c0-1.531-0.558-2.557-1.729-2.557c-1.602,0-2.881,1.115-2.881,3.402V162h-1.08V156.021z"/>
			<path fill="#FFFFFF" d="M117.44,160.434c-0.847,1.26-2.124,1.781-3.601,1.781c-2.539,0-4.214-1.818-4.214-4.393
				c0-2.484,1.729-4.357,4.159-4.357c2.557,0,3.907,1.963,3.907,3.889v0.758h-6.985c0,0.898,0.629,3.133,3.15,3.133
				c1.098,0,2.25-0.576,2.791-1.477L117.44,160.434z M116.612,157.139c0-1.477-1.278-2.701-2.881-2.701
				c-2.358,0-3.024,2.268-3.024,2.701H116.612z"/>
			<path fill="#FFFFFF" d="M120.052,156.021c0-0.611-0.09-1.908-0.09-2.34h1.08c0.019,0.611,0.036,1.295,0.072,1.457h0.054
				c0.432-0.918,1.494-1.674,2.846-1.674c2.592,0,3.168,1.766,3.168,3.584V162h-1.08v-4.898c0-1.35-0.378-2.664-2.088-2.664
				c-1.604,0-2.881,1.115-2.881,3.402V162h-1.081V156.021z"/>
			<path fill="#FFFFFF" d="M133.99,154.654h-2.377v5.418c0,0.738,0.433,1.172,1.152,1.172c0.414,0,0.847-0.127,1.225-0.289
				l0.09,0.973c-0.396,0.145-0.99,0.287-1.404,0.287c-1.548,0-2.143-0.953-2.143-2.143v-5.418h-1.801v-0.973h1.801v-2.395h1.08
				v2.395h2.377V154.654z"/>
			<path fill="#FFFFFF" d="M142.977,160.434c-0.846,1.26-2.124,1.781-3.601,1.781c-2.538,0-4.214-1.818-4.214-4.393
				c0-2.484,1.729-4.357,4.16-4.357c2.557,0,3.906,1.963,3.906,3.889v0.758h-6.985c0,0.898,0.63,3.133,3.151,3.133
				c1.098,0,2.25-0.576,2.791-1.477L142.977,160.434z M142.148,157.139c0-1.477-1.277-2.701-2.881-2.701
				c-2.358,0-3.024,2.268-3.024,2.701H142.148z"/>
			<path fill="#FFFFFF" d="M65.459,182.951l6.6-6.385c0.793-0.768,1.753-1.703,1.753-2.881c0-1.391-1.152-2.23-2.472-2.23
				c-1.417,0-2.425,0.912-2.617,2.303l-3.023-0.24c0.287-3.143,2.568-4.799,5.641-4.799c3.047,0,5.496,1.559,5.496,4.824
				c0,2.135-1.104,3.6-2.617,4.992l-5.256,4.873h7.873V186H65.459V182.951z"/>
			<path fill="#FFFFFF" d="M81.599,186l4.081-6.289l-0.049-0.049c-0.336,0.193-1.008,0.289-1.584,0.289
				c-3,0-5.112-2.473-5.112-5.424c0-3.529,2.568-5.809,6.048-5.809c3.553,0,6.049,2.184,6.049,5.783
				c0,1.777-0.648,3.168-1.584,4.656L85.104,186H81.599z M84.911,171.455c-1.704,0-3.097,1.391-3.097,3.096
				c0,1.703,1.393,3.096,3.097,3.096s3.097-1.393,3.097-3.096C88.008,172.846,86.615,171.455,84.911,171.455z"/>
			<path fill="#FFFFFF" d="M92.523,187.152l-1.992-0.721l7.488-18.625l1.992,0.768L92.523,187.152z"/>
			<path fill="#FFFFFF" d="M106.424,168.719c1.896,0,6.145,0.744,6.145,8.783c0,8.041-4.248,8.785-6.145,8.785
				c-1.896,0-6.145-0.744-6.145-8.785C100.279,169.463,104.528,168.719,106.424,168.719z M106.424,183.551
				c2.881,0,3.266-3.936,3.266-6.049c0-2.111-0.385-6.047-3.266-6.047c-2.879,0-3.264,3.936-3.264,6.047
				C103.16,179.615,103.545,183.551,106.424,183.551z"/>
			<path fill="#FFFFFF" d="M113.955,169.006H125.5v2.641L118.707,186h-3.385l6.938-14.258h-8.305V169.006z"/>
			<path fill="#FFFFFF" d="M126.805,187.152l-1.992-0.721l7.488-18.625l1.992,0.768L126.805,187.152z"/>
			<path fill="#FFFFFF" d="M139.947,172.318l-3.192,2.953l-1.681-1.992l5.137-4.273h2.617V186h-2.881V172.318z"/>
			<path fill="#FFFFFF" d="M153.79,182.543h-7.225v-2.855l6.841-10.682h3.264v10.945h2.473v2.592h-2.473V186h-2.88V182.543z
				 M153.79,173.086h-0.048l-4.248,6.865h4.296V173.086z"/>
		</g>
	</g>
	<g>
		<circle fill="#A9BD9B" cx="32.5" cy="131" r="1"/>
		<circle fill="#A9BD9B" cx="42.438" cy="131" r="1"/>
		<circle fill="#A9BD9B" cx="52.375" cy="131" r="1"/>
		<circle fill="#A9BD9B" cx="62.313" cy="131" r="1"/>
		<circle fill="#A9BD9B" cx="72.25" cy="131" r="1"/>
		<circle fill="#A9BD9B" cx="82.188" cy="131" r="1"/>
		<circle fill="#A9BD9B" cx="92.125" cy="131" r="1"/>
		<circle fill="#A9BD9B" cx="102.063" cy="131" r="1"/>
		<circle fill="#A9BD9B" cx="112" cy="131" r="1"/>
		<circle fill="#A9BD9B" cx="121.938" cy="131" r="1"/>
		<circle fill="#A9BD9B" cx="131.875" cy="131" r="1"/>
		<circle fill="#A9BD9B" cx="141.813" cy="131" r="1"/>
		<circle fill="#A9BD9B" cx="151.75" cy="131" r="1"/>
		<circle fill="#A9BD9B" cx="161.688" cy="131" r="1"/>
		<circle fill="#A9BD9B" cx="171.625" cy="131" r="1"/>
		<circle fill="#A9BD9B" cx="181.563" cy="131" r="1"/>
		<circle fill="#A9BD9B" cx="191.5" cy="131" r="1"/>
	</g>
</g>
</svg>
