<?xml version="1.0" encoding="utf-8"?>
<!-- Generator: Adobe Illustrator 16.0.0, SVG Export Plug-In . SVG Version: 6.00 Build 0)  -->
<!DOCTYPE svg PUBLIC "-//W3C//DTD SVG 1.1//EN" "http://www.w3.org/Graphics/SVG/1.1/DTD/svg11.dtd">
<svg version="1.1" id="Layer_1" xmlns="http://www.w3.org/2000/svg" xmlns:xlink="http://www.w3.org/1999/xlink" x="0px" y="0px"
	 width="224px" height="224px" viewBox="0 0 224 224" enable-background="new 0 0 224 224" xml:space="preserve">
<g>
	<circle fill="#2C3E50" stroke="#FFFFFF" stroke-width="4" stroke-miterlimit="10" cx="112" cy="112" r="110"/>
	<g>
		<path fill="#FFFFFF" d="M58.814,72.899h4.996c2.877,0,5.48,1.008,5.48,4.304c0,3.738-2.793,4.41-5.941,4.41h-1.891v6.151h-2.645
			L58.814,72.899L58.814,72.899z M63.055,79.346c1.512,0,3.465-0.084,3.465-2.1c0-1.827-1.742-2.079-3.17-2.079h-1.891v4.179H63.055
			z"/>
		<path fill="#FFFFFF" d="M72.752,77.687h2.52v1.596h0.042c0.546-1.155,1.659-1.848,2.981-1.848c0.314,0,0.609,0.063,0.902,0.147
			v2.436c-0.42-0.105-0.818-0.189-1.217-0.189c-2.373,0-2.709,1.994-2.709,2.541v5.396h-2.52L72.752,77.687L72.752,77.687z"/>
		<path fill="#FFFFFF" d="M87.041,77.435c3.044,0,5.479,2.12,5.479,5.291s-2.436,5.291-5.479,5.291c-3.045,0-5.48-2.12-5.48-5.291
			S83.996,77.435,87.041,77.435z M87.041,85.749c1.848,0,2.96-1.448,2.96-3.023c0-1.575-1.112-3.023-2.96-3.023
			s-2.961,1.448-2.961,3.023C84.08,84.301,85.193,85.749,87.041,85.749z"/>
		<path fill="#FFFFFF" d="M96.365,77.687h2.395v1.575h0.041c0.441-0.945,1.407-1.827,3.087-1.827c1.554,0,2.624,0.608,3.149,1.868
			c0.734-1.28,1.806-1.868,3.317-1.868c2.688,0,3.632,1.911,3.632,4.325v6.005h-2.52v-5.711c0-1.26-0.377-2.352-1.868-2.352
			c-1.575,0-2.163,1.302-2.163,2.604v5.459h-2.52V81.76c0-1.238-0.504-2.058-1.721-2.058c-1.659,0-2.311,1.218-2.311,2.562v5.501
			h-2.52V77.687H96.365z"/>
		<path fill="#FFFFFF" d="M121.307,77.435c3.045,0,5.479,2.12,5.479,5.291s-2.437,5.291-5.479,5.291
			c-3.045,0-5.479-2.12-5.479-5.291S118.262,77.435,121.307,77.435z M121.307,85.749c1.849,0,2.961-1.448,2.961-3.023
			c0-1.575-1.112-3.023-2.961-3.023c-1.848,0-2.961,1.448-2.961,3.023C118.346,84.301,119.459,85.749,121.307,85.749z"/>
		<path fill="#FFFFFF" d="M137.518,80.71c-0.588-0.608-1.237-1.008-1.91-1.008c-1.848,0-2.961,1.448-2.961,3.023
			c0,1.575,1.113,3.023,2.961,3.023c0.776,0,1.49-0.336,1.953-0.944l1.68,1.805c-1.008,1.008-2.708,1.407-3.592,1.407l-0.713,1.008
			c1.238,0,2.541,0.126,2.541,1.743c0,1.532-1.66,2.036-2.92,2.036c-0.775,0-1.553-0.21-2.225-0.588l0.461-0.966
			c0.525,0.273,1.113,0.42,1.723,0.42c0.461,0,1.196-0.189,1.196-0.882c0-0.546-0.63-0.756-1.071-0.756
			c-0.271,0-0.523,0.063-0.775,0.146l-0.567-0.525l1.197-1.742c-2.498-0.441-4.367-2.415-4.367-5.187
			c0-3.171,2.437-5.291,5.479-5.291c1.28,0,2.688,0.462,3.652,1.532L137.518,80.71z"/>
		<path fill="#FFFFFF" d="M148.896,86.379h-0.063c-0.713,1.134-1.89,1.638-3.231,1.638c-1.869,0-3.676-1.028-3.676-3.023
			c0-3.275,3.821-3.507,6.342-3.507h0.629v-0.272c0-1.239-0.965-1.89-2.31-1.89c-1.05,0-2.017,0.42-2.688,1.05l-1.321-1.323
			c1.112-1.133,2.688-1.616,4.282-1.616c4.305,0,4.305,3.107,4.305,4.535v5.795h-2.268V86.379z M142.953,75.839
			c0.23-1.344,0.777-2.667,2.352-2.667c1.135,0,2.353,0.777,3.023,0.777c0.566,0,0.818-0.42,0.967-0.882h1.385
			c-0.229,1.344-0.775,2.667-2.352,2.667c-1.133,0-2.352-0.799-3.023-0.799c-0.565,0-0.818,0.441-0.965,0.903L142.953,75.839
			L142.953,75.839z M148.748,83.25h-0.523c-1.387,0-3.779,0.105-3.779,1.555c0,0.924,0.943,1.322,1.764,1.322
			c1.723,0,2.54-0.902,2.54-2.31L148.748,83.25L148.748,83.25z"/>
		<path fill="#FFFFFF" d="M160.439,77.435c3.043,0,5.479,2.12,5.479,5.291s-2.436,5.291-5.479,5.291c-3.045,0-5.48-2.12-5.48-5.291
			S157.395,77.435,160.439,77.435z M160.439,85.749c1.848,0,2.959-1.448,2.959-3.023c0-1.575-1.111-3.023-2.959-3.023
			c-1.849,0-2.961,1.448-2.961,3.023C157.479,84.301,158.592,85.749,160.439,85.749z"/>
		<path fill="#FFFFFF" d="M50.206,99.771h11.257v2.736H53.23v4.176h7.8v2.736h-7.8v4.608h8.664v2.736H50.206V99.771z"/>
		<path fill="#FFFFFF" d="M69.373,107.884l-5.665-8.112h3.816l4.009,6.288l3.96-6.288h3.673l-5.569,8.112l6.169,8.882h-3.84
			l-4.489-7.178l-4.464,7.178h-3.648L69.373,107.884z"/>
		<path fill="#FFFFFF" d="M92.351,103.756c-1.248-1.32-2.4-1.681-3.577-1.681c-3.504,0-5.832,2.688-5.832,6.072
			c0,3.625,2.328,6.313,5.832,6.313c1.368,0,2.688-0.625,3.816-2.064l2.497,1.776c-1.536,2.111-3.841,3.023-6.337,3.023
			c-5.232,0-8.977-3.553-8.977-8.856c0-5.448,3.744-9.001,8.977-9.001c2.304,0,4.272,0.744,5.952,2.688L92.351,103.756z"/>
		<path fill="#FFFFFF" d="M96.986,99.771h3.024v14.256h7.225v2.736H96.986V99.771z"/>
		<path fill="#FFFFFF" d="M122.494,110.524c0,4.104-2.952,6.671-6.84,6.671c-3.889,0-6.841-2.566-6.841-6.671V99.771h3.024v10.656
			c0,1.681,0.912,3.89,3.815,3.89c2.904,0,3.816-2.208,3.816-3.89V99.771h3.023v10.753H122.494z"/>
		<path fill="#FFFFFF" d="M134.131,103.42c-0.646-0.912-1.8-1.345-2.976-1.345c-1.394,0-2.784,0.624-2.784,2.185
			c0,3.408,8.064,1.464,8.064,7.513c0,3.648-2.881,5.424-6.218,5.424c-2.112,0-4.177-0.647-5.567-2.305l2.279-2.207
			c0.744,1.127,2.016,1.775,3.36,1.775c1.392,0,2.976-0.77,2.976-2.329c0-3.72-8.063-1.584-8.063-7.656
			c0-3.504,3.12-5.137,6.265-5.137c1.776,0,3.553,0.504,4.872,1.752L134.131,103.42z"/>
		<path fill="#FFFFFF" d="M139.268,99.771h3.023v16.993h-3.023V99.771z"/>
		<path fill="#FFFFFF" d="M144.025,99.771h3.479l4.634,12.84l4.775-12.84h3.264l-6.863,16.993h-2.616L144.025,99.771z"/>
		<path fill="#FFFFFF" d="M165.756,99.771h2.616l7.319,16.993h-3.455l-1.584-3.889h-7.368l-1.536,3.889h-3.385L165.756,99.771z
			 M169.598,110.284l-2.617-6.913l-2.664,6.913H169.598z"/>
		<path fill="#FFFFFF" d="M65.424,130.898h2.289l6.403,14.865h-3.023l-1.386-3.4h-6.445l-1.344,3.4h-2.961L65.424,130.898z
			 M68.783,140.096l-2.289-6.047l-2.33,6.047H68.783z"/>
		<path fill="#FFFFFF" d="M77.227,135.688h2.52v1.596h0.042c0.546-1.155,1.659-1.848,2.981-1.848c0.314,0,0.609,0.063,0.902,0.146
			v2.436c-0.42-0.104-0.818-0.188-1.217-0.188c-2.373,0-2.709,1.994-2.709,2.541v5.396h-2.52L77.227,135.688L77.227,135.688z"/>
		<path fill="#FFFFFF" d="M96.954,135.688v9.174c0,3.634-1.764,5.943-5.69,5.943c-1.868,0-3.568-0.399-4.996-1.66l1.512-2.057
			c1.008,0.924,2.057,1.448,3.464,1.448c2.436,0,3.191-1.386,3.191-3.38v-0.735h-0.042c-0.734,0.987-2.037,1.47-3.297,1.47
			c-3.023,0-5.018-2.31-5.018-5.164c0-2.981,1.869-5.291,4.977-5.291c1.406,0,2.729,0.545,3.464,1.764h0.042v-1.512H96.954z
			 M88.598,140.705c0,1.596,1.26,2.918,2.961,2.918c1.868,0,3.002-1.281,3.002-2.961c0-1.742-1.154-2.96-2.981-2.96
			C89.815,137.702,88.598,138.92,88.598,140.705z"/>
		<path fill="#FFFFFF" d="M106.373,135.436c3.045,0,5.48,2.119,5.48,5.291c0,3.17-2.436,5.291-5.48,5.291s-5.479-2.121-5.479-5.291
			C100.894,137.555,103.329,135.436,106.373,135.436z M106.373,143.749c1.848,0,2.961-1.448,2.961-3.022
			c0-1.576-1.113-3.023-2.961-3.023s-2.96,1.447-2.96,3.023C103.413,142.301,104.525,143.749,106.373,143.749z"/>
		<path fill="#FFFFFF" d="M115.908,130.898h2.645v5.922h6.95v-5.922h2.646v14.865h-2.646v-6.551h-6.95v6.551h-2.645V130.898z"/>
		<path fill="#FFFFFF" d="M137.74,135.436c3.045,0,5.479,2.119,5.479,5.291c0,3.17-2.436,5.291-5.479,5.291
			c-3.045,0-5.479-2.121-5.479-5.291C132.261,137.555,134.695,135.436,137.74,135.436z M137.74,143.749
			c1.848,0,2.961-1.448,2.961-3.022c0-1.576-1.113-3.023-2.961-3.023s-2.96,1.447-2.96,3.023
			C134.78,142.301,135.893,143.749,137.74,143.749z"/>
		<path fill="#FFFFFF" d="M152.501,138.479c-0.483-0.672-1.112-1.027-1.974-1.027c-0.672,0-1.471,0.314-1.471,1.07
			c0,1.806,5.438,0.336,5.438,4.263c0,2.394-2.289,3.233-4.347,3.233c-1.555,0-2.897-0.399-3.928-1.555l1.68-1.574
			c0.651,0.713,1.324,1.238,2.396,1.238c0.734,0,1.681-0.357,1.681-1.154c0-2.078-5.438-0.44-5.438-4.283
			c0-2.246,2.017-3.254,4.052-3.254c1.344,0,2.771,0.42,3.592,1.531L152.501,138.479z"/>
		<path fill="#FFFFFF" d="M157.126,137.828v-2.143h2.079v-2.918h2.52v2.918h2.771v2.143h-2.771v4.408
			c0,1.009,0.293,1.639,1.406,1.639c0.441,0,1.051-0.084,1.365-0.314v2.121c-0.525,0.252-1.407,0.336-1.995,0.336
			c-2.667,0-3.296-1.197-3.296-3.569v-4.619L157.126,137.828L157.126,137.828z"/>
	</g>
</g>
</svg>
