<?xml version="1.0" encoding="utf-8"?>
<!-- Generator: Adobe Illustrator 15.1.0, SVG Export Plug-In . SVG Version: 6.00 Build 0)  -->
<!DOCTYPE svg PUBLIC "-//W3C//DTD SVG 1.1//EN" "http://www.w3.org/Graphics/SVG/1.1/DTD/svg11.dtd">
<svg version="1.1" id="Layer_1" xmlns="http://www.w3.org/2000/svg" xmlns:xlink="http://www.w3.org/1999/xlink" x="0px" y="0px"
	 width="174.01px" height="50.99px" viewBox="0 0 174.01 50.99" enable-background="new 0 0 174.01 50.99" xml:space="preserve">
<g>
	<polygon fill="#FF9900" points="52.735,41.892 47.309,39.945 47.309,31.99 52.735,33.84 	"/>
	<polygon fill="#FF9900" points="53.73,41.892 59.157,39.945 59.157,31.99 53.73,33.84 	"/>
	<polygon fill="#FF9900" points="47.867,31.396 53.358,29.85 58.451,31.491 53.358,33.221 	"/>
	<polygon fill="#FF9900" points="46.274,30.779 40.847,28.832 40.847,20.879 46.274,22.728 	"/>
	<polygon fill="#FF9900" points="47.27,30.779 52.696,28.832 52.696,20.879 47.27,22.728 	"/>
	<polygon fill="#FF9900" points="41.405,20.284 46.898,18.737 51.991,20.38 46.898,22.109 	"/>
	<polygon fill="#FF9900" points="58.938,30.779 53.51,28.832 53.51,20.879 58.938,22.728 	"/>
	<polygon fill="#FF9900" points="59.933,30.779 65.36,28.832 65.36,20.879 59.933,22.728 	"/>
	<polygon fill="#FF9900" points="54.069,20.284 59.56,18.737 64.653,20.38 59.56,22.109 	"/>
	<polygon fill="#FF9900" points="65.398,19.667 59.972,17.721 59.972,9.767 65.398,11.616 	"/>
	<polygon fill="#FF9900" points="66.394,19.667 71.821,17.721 71.821,9.767 66.394,11.616 	"/>
	<polygon fill="#FF9900" points="60.529,9.171 66.022,7.625 71.115,9.268 66.022,10.996 	"/>
	<polygon fill="#FF9900" points="78.062,19.667 72.634,17.721 72.634,9.767 78.062,11.616 	"/>
	<polygon fill="#FF9900" points="79.057,19.667 84.483,17.721 84.483,9.767 79.057,11.616 	"/>
	<polygon fill="#FF9900" points="73.192,9.171 78.684,7.625 83.777,9.268 78.684,10.996 	"/>
	<polygon points="75.301,36.71 73.478,43.044 72.686,43.044 71.267,38.339 69.965,43.044 69.157,43.044 67.263,36.71 68.242,36.71 
		69.623,41.43 70.935,36.71 71.658,36.71 73.086,41.445 74.505,36.71 	"/>
	<polygon fill="none" stroke="#000000" points="75.301,36.71 73.478,43.044 72.686,43.044 71.267,38.339 69.965,43.044 
		69.157,43.044 67.263,36.71 68.242,36.71 69.623,41.43 70.935,36.71 71.658,36.71 73.086,41.445 74.505,36.71 	"/>
	<g>
		<path fill="none" d="M73.196,27.144c-1.5,0-3.085,0.322-3.085,2.088c0,0.897,0.465,1.505,1.261,1.505
			c0.582,0,1.106-0.359,1.436-0.942c0.407-0.72,0.388-1.393,0.388-2.201V27.144L73.196,27.144z"/>
		<path fill="none" d="M100.391,37.691c-0.232-0.174-0.516-0.262-0.846-0.262c-0.452,0-0.822,0.157-1.138,0.481
			c-0.284,0.294-0.457,0.688-0.518,1.171h3.161c-0.019-0.276-0.071-0.528-0.158-0.748C100.794,38.086,100.626,37.869,100.391,37.691
			z"/>
		<path fill="none" d="M100.152,27.144c-1.5,0-3.084,0.322-3.084,2.088c0,0.897,0.466,1.505,1.261,1.505
			c0.582,0,1.105-0.359,1.436-0.942c0.407-0.72,0.388-1.393,0.388-2.201V27.144L100.152,27.144z"/>
		<path fill="none" d="M83.797,40.561c0.042,0.597,0.226,1.037,0.545,1.305c0.324,0.27,0.67,0.406,1.025,0.406
			c0.456,0,0.812-0.193,1.094-0.591c0.288-0.409,0.434-0.982,0.434-1.705c0-0.783-0.142-1.404-0.422-1.846
			c-0.271-0.425-0.636-0.633-1.111-0.633c-0.377,0-0.709,0.149-1.016,0.456c-0.307,0.307-0.492,0.711-0.549,1.201L83.797,40.561z"/>
		<path fill="none" d="M79.477,37.691c-0.231-0.174-0.516-0.262-0.845-0.262c-0.451,0-0.824,0.157-1.138,0.481
			c-0.284,0.294-0.458,0.688-0.517,1.171h3.161c-0.019-0.278-0.072-0.529-0.159-0.748C79.881,38.086,79.713,37.869,79.477,37.691z"
			/>
		<path fill="none" d="M117.978,23.52c-1.518,0-1.613,2.083-1.613,3.383c0,1.299-0.019,3.804,1.595,3.804
			c1.595,0,1.671-1.967,1.671-3.334c0-0.896-0.039-1.971-0.307-2.822C119.092,23.811,118.63,23.52,117.978,23.52z"/>
		<path fill="none" d="M125.144,37.691c-0.235-0.176-0.512-0.262-0.845-0.262c-0.452,0-0.823,0.157-1.138,0.481
			c-0.284,0.294-0.458,0.688-0.517,1.171h3.16c-0.019-0.276-0.07-0.528-0.159-0.748C125.548,38.086,125.379,37.869,125.144,37.691z"
			/>
		<path d="M75.823,39.911c0,0.947,0.257,1.721,0.765,2.299c0.51,0.581,1.16,0.865,1.988,0.865c0.62,0,1.167-0.17,1.623-0.505
			c0.409-0.299,0.703-0.676,0.871-1.118l-0.638-0.132c-0.359,0.814-0.96,1.227-1.789,1.227c-0.48,0-0.938-0.18-1.363-0.536
			c-0.438-0.366-0.653-1.036-0.653-2.05v-0.146h4.593c-0.031-1.025-0.277-1.809-0.733-2.326c-0.478-0.544-1.095-0.81-1.885-0.81
			c-0.803,0-1.451,0.29-1.982,0.885C76.091,38.154,75.823,38.944,75.823,39.911z M76.673,39.216c0.044-0.624,0.25-1.131,0.613-1.506
			c0.367-0.378,0.819-0.571,1.346-0.571c0.393,0,0.737,0.106,1.019,0.321c0.279,0.209,0.481,0.467,0.6,0.769
			c0.113,0.288,0.176,0.623,0.185,0.996l0.003,0.148h-3.777L76.673,39.216z"/>
		<path d="M76.402,37.37c-0.577,0.646-0.87,1.501-0.87,2.541c0,1.021,0.282,1.859,0.837,2.491c0.561,0.638,1.303,0.963,2.207,0.963
			c0.683,0,1.287-0.188,1.795-0.563c0.506-0.369,0.852-0.848,1.029-1.418l0.047-0.152l-1.193-0.244l-0.045,0.112
			c-0.308,0.777-0.821,1.155-1.566,1.155c-0.41,0-0.806-0.157-1.177-0.467c-0.344-0.287-0.528-0.854-0.547-1.684h4.597l-0.001-0.146
			c-0.012-1.171-0.285-2.066-0.81-2.663c-0.529-0.602-1.236-0.907-2.102-0.907C77.723,36.39,76.983,36.719,76.402,37.37z
			 M78.602,36.68c0.79,0,1.407,0.266,1.885,0.81c0.456,0.518,0.702,1.301,0.733,2.326h-4.593v0.146c0,1.012,0.214,1.684,0.653,2.05
			c0.425,0.356,0.883,0.536,1.363,0.536c0.829,0,1.43-0.412,1.789-1.227l0.638,0.132c-0.168,0.442-0.461,0.818-0.871,1.118
			c-0.457,0.335-1.003,0.505-1.623,0.505c-0.828,0-1.478-0.284-1.988-0.865c-0.508-0.578-0.765-1.352-0.765-2.299
			c0-0.967,0.268-1.757,0.796-2.347C77.15,36.97,77.798,36.68,78.602,36.68z"/>
		<path d="M80.436,39.223c-0.009-0.371-0.072-0.706-0.185-0.995c-0.119-0.301-0.32-0.56-0.6-0.769
			c-0.283-0.214-0.626-0.321-1.019-0.321c-0.527,0-0.98,0.192-1.346,0.571c-0.363,0.375-0.569,0.883-0.613,1.507l-0.011,0.155h3.777
			L80.436,39.223z M76.978,39.082c0.059-0.483,0.233-0.877,0.517-1.171c0.314-0.324,0.687-0.481,1.138-0.481
			c0.329,0,0.614,0.088,0.845,0.262c0.236,0.178,0.404,0.395,0.502,0.643c0.087,0.219,0.14,0.47,0.159,0.748H76.978L76.978,39.082z"
			/>
		<path d="M83.506,37.767v-3.128H82.81v8.26h0.225l0.423-1.258l0.161,0.283c0.436,0.774,1.041,1.151,1.851,1.151
			c0.73,0,1.308-0.295,1.765-0.901c0.46-0.609,0.694-1.377,0.694-2.282c0-1.05-0.235-1.858-0.701-2.402
			c-0.465-0.544-1.025-0.81-1.711-0.81c-0.742,0-1.31,0.379-1.736,1.156L83.506,37.767z M85.362,37.208
			c0.575,0,1.032,0.258,1.356,0.767c0.311,0.489,0.467,1.162,0.467,2.001c0,0.785-0.163,1.414-0.486,1.872
			c-0.334,0.474-0.782,0.715-1.331,0.715c-0.425,0-0.833-0.16-1.21-0.475c-0.384-0.319-0.603-0.829-0.65-1.516v-1.434
			c0.068-0.574,0.28-1.036,0.635-1.391C84.5,37.39,84.91,37.208,85.362,37.208z"/>
		<path d="M82.519,34.349v8.84h0.724l0.287-0.855c0.476,0.686,1.126,1.032,1.938,1.032c0.816,0,1.488-0.342,1.998-1.015
			c0.5-0.661,0.752-1.488,0.752-2.459c0-1.12-0.26-1.993-0.771-2.591c-0.516-0.604-1.166-0.911-1.932-0.911
			c-0.696,0-1.271,0.297-1.719,0.885v-2.926H82.519L82.519,34.349z M85.516,36.68c0.686,0,1.247,0.266,1.711,0.81
			c0.465,0.544,0.701,1.353,0.701,2.402c0,0.905-0.233,1.673-0.694,2.282c-0.458,0.606-1.035,0.901-1.765,0.901
			c-0.81,0-1.416-0.377-1.851-1.151l-0.161-0.283l-0.423,1.258H82.81v-8.26h0.696v3.128l0.272,0.069
			C84.206,37.058,84.773,36.68,85.516,36.68z"/>
		<path d="M83.507,40.572c0.048,0.686,0.267,1.196,0.649,1.516c0.378,0.314,0.786,0.475,1.211,0.475c0.549,0,0.996-0.241,1.33-0.715
			c0.323-0.458,0.487-1.087,0.487-1.872c0-0.839-0.157-1.512-0.467-2.001c-0.324-0.509-0.781-0.767-1.356-0.767
			c-0.452,0-0.863,0.182-1.222,0.54c-0.354,0.354-0.567,0.816-0.634,1.391L83.507,40.572z M85.362,37.498
			c0.476,0,0.84,0.207,1.111,0.632c0.28,0.441,0.422,1.063,0.422,1.846c0,0.723-0.146,1.298-0.434,1.705
			c-0.282,0.397-0.638,0.591-1.094,0.591c-0.356,0-0.701-0.137-1.025-0.406c-0.32-0.268-0.504-0.708-0.545-1.305l0-1.403
			c0.057-0.492,0.244-0.896,0.551-1.203C84.652,37.647,84.984,37.498,85.362,37.498z"/>
		<path d="M93.183,36.68c-0.676,0-1.216,0.169-1.609,0.503c-0.391,0.331-0.582,0.73-0.582,1.221c0,0.443,0.138,0.788,0.419,1.054
			c0.286,0.272,0.682,0.459,1.175,0.553l1.334,0.255c0.798,0.146,1.203,0.513,1.203,1.086c0,0.385-0.166,0.687-0.493,0.897
			c-0.306,0.198-0.683,0.298-1.119,0.298c-1.12,0-1.82-0.393-2.083-1.168l-0.652,0.134c0.367,1.052,1.218,1.563,2.596,1.563
			c0.762,0,1.379-0.172,1.831-0.51c0.446-0.331,0.662-0.754,0.662-1.292c0-0.946-0.595-1.513-1.815-1.736l-1.233-0.226
			c-0.912-0.168-1.103-0.649-1.103-1.021c0-0.347,0.15-0.621,0.451-0.813c0.279-0.18,0.638-0.27,1.064-0.27
			c0.82,0,1.385,0.324,1.684,0.965l0.626-0.136C95.203,37.124,94.431,36.68,93.183,36.68z"/>
		<path d="M91.386,36.96c-0.454,0.385-0.685,0.869-0.685,1.442c0,0.521,0.172,0.946,0.509,1.265c0.328,0.313,0.772,0.523,1.32,0.628
			l1.335,0.254c0.966,0.18,0.966,0.647,0.966,0.802c0,0.283-0.116,0.497-0.358,0.653c-0.259,0.167-0.583,0.252-0.963,0.252
			c-1.048,0-1.649-0.355-1.842-1.085l-0.035-0.133l-1.23,0.253l0.045,0.151c0.373,1.276,1.357,1.923,2.923,1.923
			c0.826,0,1.502-0.191,2.005-0.566c0.518-0.385,0.779-0.898,0.779-1.525c0-1.094-0.69-1.774-2.055-2.021l-1.232-0.227
			c-0.866-0.16-0.866-0.596-0.866-0.735c0-0.246,0.104-0.431,0.318-0.568c0.232-0.148,0.538-0.224,0.908-0.224
			c0.747,0,1.225,0.293,1.461,0.896l0.045,0.114l1.178-0.253l-0.046-0.151c-0.341-1.137-1.243-1.714-2.683-1.714
			C92.437,36.39,91.832,36.582,91.386,36.96z M94.911,38.173c-0.299-0.641-0.864-0.965-1.685-0.965c-0.426,0-0.784,0.09-1.063,0.27
			c-0.301,0.191-0.451,0.466-0.451,0.813c0,0.372,0.19,0.854,1.103,1.021l1.232,0.226c1.222,0.224,1.816,0.79,1.816,1.736
			c0,0.539-0.216,0.961-0.662,1.292c-0.452,0.338-1.069,0.51-1.831,0.51c-1.378,0-2.229-0.512-2.596-1.563l0.652-0.134
			c0.263,0.775,0.963,1.168,2.082,1.168c0.438,0,0.814-0.101,1.119-0.298c0.328-0.211,0.494-0.513,0.494-0.897
			c0-0.573-0.405-0.94-1.204-1.086l-1.333-0.255c-0.493-0.094-0.889-0.28-1.175-0.553c-0.282-0.266-0.419-0.61-0.419-1.054
			c0-0.49,0.191-0.89,0.582-1.221c0.392-0.334,0.934-0.503,1.609-0.503c1.248,0,2.02,0.444,2.354,1.357L94.911,38.173z"/>
		<path d="M99.515,36.68c-0.804,0-1.452,0.29-1.982,0.885c-0.529,0.59-0.796,1.38-0.796,2.347c0,0.948,0.257,1.721,0.766,2.299
			c0.509,0.581,1.159,0.865,1.986,0.865c0.622,0,1.168-0.17,1.623-0.505c0.41-0.3,0.703-0.676,0.871-1.118l-0.638-0.132
			c-0.359,0.814-0.961,1.227-1.79,1.227c-0.479,0-0.937-0.18-1.363-0.536c-0.439-0.367-0.652-1.038-0.652-2.05v-0.146h4.593
			c-0.031-1.025-0.276-1.809-0.732-2.326C100.921,36.945,100.305,36.68,99.515,36.68z M97.574,39.372l0.011-0.156
			c0.044-0.624,0.25-1.13,0.613-1.506c0.367-0.378,0.819-0.571,1.347-0.571c0.394,0,0.736,0.106,1.02,0.321
			c0.278,0.209,0.48,0.467,0.599,0.768c0.114,0.292,0.177,0.626,0.185,0.997l0.003,0.148L97.574,39.372L97.574,39.372z"/>
		<path d="M102.427,39.96c-0.013-1.17-0.286-2.065-0.81-2.663c-0.529-0.602-1.237-0.907-2.103-0.907
			c-0.878,0-1.618,0.329-2.198,0.98c-0.577,0.646-0.87,1.501-0.87,2.541c0,1.021,0.28,1.859,0.837,2.49
			c0.561,0.639,1.303,0.964,2.205,0.964c0.686,0,1.289-0.188,1.794-0.563c0.509-0.369,0.856-0.848,1.03-1.418l0.047-0.152
			l-1.192-0.244l-0.046,0.112c-0.308,0.777-0.819,1.155-1.566,1.155c-0.414,0-0.799-0.152-1.176-0.467
			c-0.345-0.288-0.528-0.854-0.548-1.684h4.598L102.427,39.96z M97.538,39.815v0.146c0,1.012,0.214,1.682,0.653,2.049
			c0.427,0.355,0.885,0.536,1.363,0.536c0.828,0,1.431-0.411,1.789-1.226l0.639,0.131c-0.168,0.442-0.461,0.819-0.871,1.119
			c-0.456,0.335-1.001,0.505-1.623,0.505c-0.827,0-1.478-0.284-1.986-0.865c-0.509-0.578-0.766-1.352-0.766-2.299
			c0-0.967,0.267-1.757,0.796-2.347c0.529-0.595,1.179-0.885,1.982-0.885c0.79,0,1.405,0.266,1.884,0.809
			c0.455,0.519,0.701,1.302,0.733,2.327H97.538z"/>
		<path d="M101.163,38.228c-0.118-0.3-0.32-0.559-0.6-0.768c-0.282-0.213-0.625-0.321-1.019-0.321c-0.527,0-0.979,0.193-1.347,0.571
			c-0.363,0.376-0.569,0.882-0.613,1.506l-0.011,0.156h3.776l-0.003-0.149C101.34,38.854,101.276,38.52,101.163,38.228z
			 M97.89,39.082c0.061-0.483,0.233-0.877,0.518-1.171c0.315-0.324,0.686-0.481,1.138-0.481c0.33,0,0.613,0.088,0.846,0.262
			c0.235,0.178,0.403,0.395,0.502,0.643c0.087,0.22,0.14,0.472,0.157,0.748H97.89L97.89,39.082z"/>
		<path d="M104.34,38.245l-0.278-0.059v-1.331h-0.574v6.043h0.696v-3.207c0.026-0.693,0.231-1.258,0.612-1.685
			c0.385-0.435,0.876-0.653,1.458-0.653h0.055V36.69c-0.095-0.006-0.176-0.011-0.242-0.011c-0.291,0-0.582,0.096-0.863,0.283
			C104.923,37.151,104.632,37.582,104.34,38.245z"/>
		<path d="M103.197,36.565v6.623h1.276v-3.491c0.023-0.618,0.204-1.124,0.538-1.498c0.334-0.373,0.74-0.556,1.242-0.556h0.347
			v-1.217l-0.132-0.014c-0.162-0.015-0.298-0.023-0.401-0.023c-0.352,0-0.695,0.112-1.025,0.333
			c-0.235,0.158-0.465,0.435-0.69,0.842v-0.999H103.197L103.197,36.565z M106.067,36.68c0.067,0,0.147,0.005,0.242,0.011v0.663
			h-0.055c-0.582,0-1.073,0.219-1.459,0.653c-0.381,0.427-0.586,0.991-0.612,1.685v3.207h-0.696v-6.043h0.574v1.331l0.278,0.059
			c0.292-0.663,0.583-1.094,0.865-1.282C105.485,36.775,105.775,36.68,106.067,36.68z"/>
		<polygon points="108.102,36.855 107.32,36.855 109.476,42.898 110.294,42.898 112.379,36.855 111.812,36.855 109.964,42.31 		"/>
		<path d="M109.963,41.406l-1.653-4.841h-1.4l2.362,6.623h1.228l2.287-6.623h-1.183L109.963,41.406z M112.379,36.855l-2.086,6.043
			h-0.817l-2.155-6.043h0.781l1.862,5.454l1.848-5.454H112.379z"/>
		<rect x="113.563" y="36.855" width="0.695" height="6.043"/>
		<rect x="113.516" y="34.639" width="0.767" height="0.802"/>
		<path d="M113.227,35.732h1.347v-1.384h-1.347V35.732z M113.516,34.639h0.767v0.802h-0.767V34.639z"/>
		<path d="M114.55,43.188v-6.623h-1.277v6.623H114.55z M113.563,36.855h0.695v6.043h-0.695V36.855z"/>
		<path d="M118.044,37.208c0.879,0,1.429,0.518,1.631,1.543l0.604-0.116c-0.108-0.556-0.348-1.021-0.708-1.377
			c-0.391-0.389-0.9-0.578-1.557-0.578c-0.79,0-1.396,0.295-1.853,0.9c-0.462,0.609-0.694,1.388-0.694,2.312
			c0,0.896,0.222,1.662,0.658,2.277c0.433,0.609,1.046,0.906,1.878,0.906c0.602,0,1.11-0.188,1.511-0.558
			c0.376-0.344,0.631-0.821,0.761-1.419l-0.604-0.106c-0.25,1.032-0.807,1.555-1.657,1.555c-0.577,0-1.029-0.249-1.346-0.74
			c-0.305-0.47-0.459-1.132-0.459-1.968c0-0.757,0.155-1.388,0.462-1.871C116.987,37.464,117.451,37.208,118.044,37.208z"/>
		<path d="M118.044,37.498c0.768,0,1.215,0.474,1.371,1.446l0.023,0.147l1.172-0.223l-0.021-0.14
			c-0.104-0.682-0.379-1.246-0.814-1.679c-0.441-0.439-1.033-0.661-1.761-0.661c-0.875,0-1.576,0.342-2.085,1.015
			c-0.5,0.66-0.753,1.498-0.753,2.487c0,0.957,0.238,1.779,0.712,2.445c0.484,0.682,1.196,1.028,2.115,1.028
			c0.677,0,1.252-0.212,1.708-0.633c0.45-0.417,0.747-0.996,0.877-1.726l0.025-0.143l-1.17-0.206l-0.028,0.138
			c-0.202,0.982-0.661,1.46-1.402,1.46c-0.479,0-0.839-0.199-1.102-0.607c-0.274-0.423-0.412-1.031-0.412-1.81
			c0-0.702,0.139-1.28,0.415-1.715C117.18,37.702,117.549,37.498,118.044,37.498z M116.208,39.839c0,0.836,0.154,1.497,0.459,1.968
			c0.316,0.49,0.769,0.739,1.346,0.739c0.851,0,1.407-0.521,1.657-1.554l0.604,0.106c-0.13,0.597-0.385,1.075-0.761,1.419
			c-0.399,0.369-0.909,0.558-1.511,0.558c-0.831,0-1.445-0.298-1.878-0.906c-0.437-0.615-0.658-1.382-0.658-2.277
			c0-0.924,0.233-1.703,0.694-2.312c0.456-0.606,1.064-0.9,1.854-0.9c0.655,0,1.165,0.188,1.556,0.577
			c0.36,0.357,0.6,0.822,0.708,1.378l-0.604,0.116c-0.202-1.025-0.751-1.543-1.631-1.543c-0.593,0-1.057,0.255-1.374,0.759
			C116.363,38.45,116.208,39.082,116.208,39.839z"/>
		<path d="M124.269,36.68c-0.793,0-1.46,0.299-1.982,0.885c-0.528,0.59-0.797,1.38-0.797,2.347c0,0.948,0.257,1.721,0.766,2.299
			c0.509,0.581,1.159,0.865,1.987,0.865c0.621,0,1.167-0.17,1.622-0.505c0.41-0.299,0.704-0.676,0.872-1.118l-0.638-0.132
			c-0.36,0.814-0.962,1.227-1.789,1.227c-0.479,0-0.938-0.18-1.365-0.536c-0.438-0.367-0.652-1.038-0.652-2.05v-0.146h4.594
			c-0.032-1.025-0.276-1.809-0.732-2.326C125.682,36.952,125.047,36.68,124.269,36.68z M122.327,39.372l0.012-0.156
			c0.043-0.624,0.249-1.13,0.613-1.506c0.366-0.378,0.818-0.571,1.346-0.571c0.394,0,0.736,0.106,1.02,0.32
			c0.278,0.21,0.48,0.469,0.6,0.77c0.113,0.29,0.176,0.625,0.185,0.996l0.002,0.148L122.327,39.372L122.327,39.372z"/>
		<path d="M127.181,39.96c-0.014-1.17-0.286-2.066-0.811-2.663c-0.527-0.602-1.235-0.907-2.102-0.907
			c-0.879,0-1.619,0.329-2.199,0.98c-0.577,0.646-0.87,1.501-0.87,2.541c0,1.021,0.28,1.859,0.837,2.49
			c0.561,0.639,1.303,0.964,2.207,0.964c0.684,0,1.288-0.188,1.794-0.563c0.508-0.369,0.854-0.848,1.029-1.418l0.046-0.152
			l-1.191-0.244l-0.046,0.112c-0.308,0.777-0.82,1.155-1.565,1.155c-0.415,0-0.801-0.152-1.178-0.467
			c-0.344-0.287-0.528-0.854-0.547-1.684h4.597L127.181,39.96z M122.292,39.815v0.146c0,1.012,0.213,1.683,0.652,2.049
			c0.427,0.355,0.885,0.536,1.363,0.536c0.829,0,1.431-0.411,1.79-1.226l0.638,0.131c-0.168,0.443-0.461,0.819-0.871,1.119
			c-0.455,0.335-1.001,0.505-1.622,0.505c-0.828,0-1.479-0.284-1.987-0.865c-0.509-0.578-0.766-1.352-0.766-2.299
			c0-0.967,0.267-1.757,0.796-2.347c0.522-0.587,1.19-0.885,1.982-0.885c0.779,0,1.412,0.272,1.885,0.809
			c0.454,0.519,0.7,1.302,0.732,2.327H122.292z"/>
		<path d="M125.917,38.229c-0.119-0.3-0.321-0.56-0.6-0.77c-0.283-0.212-0.626-0.32-1.02-0.32c-0.526,0-0.979,0.193-1.346,0.571
			c-0.364,0.376-0.57,0.882-0.613,1.506l-0.012,0.156h3.776l-0.003-0.147C126.093,38.854,126.03,38.519,125.917,38.229z
			 M122.643,39.082c0.061-0.483,0.234-0.877,0.518-1.171c0.313-0.324,0.686-0.481,1.138-0.481c0.333,0,0.61,0.086,0.846,0.262
			c0.235,0.178,0.404,0.395,0.502,0.643c0.087,0.22,0.14,0.472,0.158,0.748H122.643L122.643,39.082z"/>
		<path d="M130.515,42.546c-1.119,0-1.819-0.393-2.083-1.168l-0.652,0.134c0.368,1.052,1.219,1.563,2.596,1.563
			c0.762,0,1.379-0.172,1.832-0.51c0.445-0.331,0.662-0.753,0.662-1.292c0-0.945-0.594-1.513-1.817-1.736l-1.232-0.226
			c-0.911-0.168-1.104-0.649-1.104-1.021c0-0.347,0.152-0.621,0.452-0.813c0.28-0.178,0.638-0.27,1.064-0.27
			c0.819,0,1.387,0.324,1.684,0.965l0.627-0.136c-0.335-0.913-1.106-1.357-2.354-1.357c-0.677,0-1.217,0.169-1.608,0.502
			c-0.393,0.332-0.583,0.731-0.583,1.221c0,0.444,0.137,0.789,0.418,1.055c0.288,0.272,0.683,0.459,1.175,0.553l1.333,0.255
			c0.8,0.146,1.205,0.513,1.205,1.086c0,0.385-0.166,0.687-0.493,0.897C131.328,42.445,130.951,42.546,130.515,42.546z"/>
		<path d="M131.477,42.004c-0.258,0.167-0.582,0.252-0.962,0.252c-1.047,0-1.649-0.355-1.841-1.085l-0.036-0.133l-1.229,0.255
			l0.044,0.149c0.374,1.276,1.357,1.923,2.922,1.923c0.827,0,1.502-0.19,2.006-0.565c0.518-0.385,0.778-0.899,0.778-1.526
			c0-1.094-0.691-1.772-2.055-2.021l-1.232-0.227c-0.866-0.16-0.866-0.594-0.866-0.735c0-0.246,0.104-0.431,0.318-0.568
			c0.233-0.148,0.539-0.224,0.908-0.224c0.747,0,1.226,0.294,1.462,0.896l0.044,0.114l1.178-0.252l-0.045-0.151
			c-0.341-1.138-1.243-1.715-2.683-1.715c-0.747,0-1.351,0.193-1.797,0.57c-0.454,0.386-0.685,0.87-0.685,1.443
			c0,0.521,0.171,0.945,0.509,1.267c0.329,0.31,0.772,0.521,1.32,0.625l1.334,0.255c0.967,0.179,0.967,0.647,0.967,0.802
			C131.837,41.634,131.72,41.848,131.477,42.004z M132.128,41.351c0-0.573-0.407-0.94-1.205-1.086l-1.333-0.255
			c-0.492-0.094-0.887-0.28-1.176-0.552c-0.28-0.267-0.417-0.611-0.417-1.055c0-0.49,0.189-0.89,0.582-1.222
			c0.393-0.333,0.933-0.502,1.609-0.502c1.248,0,2.02,0.444,2.354,1.357l-0.628,0.136c-0.296-0.64-0.863-0.965-1.683-0.965
			c-0.427,0-0.784,0.092-1.064,0.27c-0.3,0.191-0.452,0.466-0.452,0.813c0,0.372,0.192,0.854,1.102,1.021l1.234,0.226
			c1.224,0.224,1.817,0.791,1.817,1.736c0,0.539-0.217,0.961-0.663,1.292c-0.453,0.339-1.069,0.511-1.831,0.511
			c-1.377,0-2.228-0.513-2.597-1.563l0.652-0.135c0.264,0.775,0.964,1.169,2.083,1.169c0.438,0,0.814-0.101,1.12-0.298
			C131.962,42.037,132.128,41.735,132.128,41.351z"/>
		<path d="M104.964,30.476v1.542c0,0.224,0.249,0.479,0.485,0.352c2.32-1.231,5.104-1.111,7.204-0.013
			c0.258,0.136,0.502-0.124,0.502-0.348v-1.623c-0.021-0.219-0.093-0.442-0.361-0.594c-1.192-0.67-2.577-0.866-3.89-0.834
			l3.531-5.042c0.327-0.453,0.512-0.74,0.515-0.958v-1.305c0-0.225-0.176-0.384-0.393-0.384h-6.818
			c-0.212,0-0.386,0.154-0.387,0.386v1.521c0.002,0.228,0.177,0.383,0.395,0.383h3.563l-4.092,5.871
			C104.969,29.807,104.964,30.228,104.964,30.476z"/>
		<path d="M80.841,21.296l-1.932,0.001c-0.221,0-0.4,0.17-0.4,0.382l-0.001,10.645c0.016,0.189,0.174,0.339,0.372,0.352h2.075
			c0.221,0,0.4-0.171,0.4-0.384V26.65c0-1.231-0.057-2.935,1.433-2.935c1.472,0,1.278,1.747,1.278,2.935l0.001,5.644
			c0,0.205,0.165,0.37,0.373,0.383h2.072c0.221,0,0.4-0.171,0.4-0.384V26.65c0-0.604-0.02-1.5,0.194-2.039
			c0.212-0.538,0.735-0.874,1.239-0.874c0.6,0,1.064,0.202,1.22,0.919c0.097,0.426,0.059,1.546,0.059,1.993v5.644
			c0,0.205,0.164,0.37,0.372,0.383h2.072c0.221,0,0.4-0.171,0.4-0.384l0.001-6.718c0-1.142,0.135-2.442-0.521-3.336
			c-0.581-0.807-1.531-1.166-2.401-1.166c-1.222,0-2.363,0.627-2.867,1.971c-0.581-1.343-1.394-1.971-2.69-1.971
			c-1.278,0-2.227,0.627-2.731,1.971h-0.039v-1.39C81.206,21.46,81.043,21.307,80.841,21.296z"/>
		<path d="M117.959,21.073c-2.979,0-4.63,2.576-4.63,5.891c0,3.294,1.632,5.937,4.63,5.937c2.881,0,4.705-2.576,4.705-5.823
			C122.665,23.716,121.013,21.073,117.959,21.073z M117.959,30.706c-1.613,0-1.595-2.505-1.595-3.804c0-1.3,0.096-3.383,1.613-3.383
			c0.652,0,1.114,0.291,1.346,1.031c0.268,0.851,0.307,1.926,0.307,2.822C119.63,28.739,119.554,30.706,117.959,30.706z"/>
		<path d="M130.2,21.073c-1.434,0-2.246,0.694-2.828,2.15h-0.038v-1.628c-0.039-0.165-0.188-0.289-0.369-0.298l-1.924,0.001
			c-0.208,0-0.38,0.152-0.398,0.347l0.003,10.649c0,0.205,0.166,0.37,0.373,0.383h2.066c0.222,0,0.401-0.17,0.404-0.383v-5.732
			c0-0.718,0.038-1.367,0.33-2.017c0.232-0.514,0.696-0.851,1.199-0.851c1.433,0,1.298,1.702,1.298,2.868v5.78
			c0.022,0.182,0.176,0.322,0.369,0.335h2.08c0.205,0,0.374-0.146,0.396-0.335v-6.699c0-1.031,0-2.464-0.542-3.315
			C132.039,21.409,131.128,21.073,130.2,21.073z"/>
		<path d="M100.152,25.482c-1.202,0.136-2.773,0.223-3.899,0.719c-1.3,0.561-2.213,1.706-2.213,3.39
			c0,2.155,1.358,3.233,3.106,3.233c1.473,0,2.28-0.349,3.418-1.508c0.377,0.545,0.502,0.81,1.189,1.383
			c0.154,0.083,0.353,0.074,0.49-0.048l0.005,0.003c0.415-0.367,1.167-1.022,1.592-1.377c0.169-0.139,0.139-0.362,0.006-0.552
			c-0.38-0.523-0.783-0.95-0.783-1.922v-3.232c0-1.368,0.098-2.626-0.911-3.569c-0.796-0.763-2.115-1.032-3.124-1.032
			c-1.975,0-4.178,0.736-4.64,3.175c-0.048,0.259,0.14,0.396,0.31,0.434l2.011,0.217c0.188-0.009,0.323-0.194,0.359-0.38
			c0.174-0.841,0.877-1.247,1.668-1.247c0.428,0,0.912,0.157,1.165,0.541c0.29,0.425,0.251,1.01,0.251,1.503V25.482L100.152,25.482z
			 M99.765,29.794c-0.33,0.583-0.854,0.942-1.436,0.942c-0.795,0-1.261-0.607-1.261-1.505c0-1.766,1.584-2.088,3.084-2.088v0.449
			C100.152,28.401,100.172,29.074,99.765,29.794z"/>
		<path d="M73.196,25.482c-1.203,0.136-2.774,0.223-3.9,0.719c-1.3,0.561-2.213,1.706-2.213,3.39c0,2.155,1.359,3.233,3.105,3.233
			c1.475,0,2.281-0.349,3.42-1.508c0.377,0.545,0.5,0.81,1.189,1.383c0.154,0.083,0.353,0.074,0.49-0.048l0.005,0.003
			c0.414-0.367,1.167-1.022,1.591-1.377c0.168-0.139,0.139-0.362,0.007-0.552c-0.379-0.523-0.784-0.95-0.784-1.922v-3.232
			c0-1.368,0.097-2.626-0.912-3.569c-0.796-0.763-2.115-1.032-3.124-1.032c-1.974,0-4.177,0.736-4.638,3.175
			c-0.05,0.259,0.139,0.396,0.309,0.434l2.01,0.217c0.188-0.009,0.325-0.194,0.36-0.38c0.173-0.841,0.875-1.247,1.667-1.247
			c0.427,0,0.912,0.157,1.165,0.541c0.291,0.425,0.252,1.01,0.252,1.503V25.482L73.196,25.482z M72.808,29.794
			c-0.33,0.583-0.854,0.942-1.436,0.942c-0.796,0-1.261-0.607-1.261-1.505c0-1.766,1.584-2.088,3.086-2.088v0.449
			C73.196,28.401,73.216,29.074,72.808,29.794z"/>
	</g>
</g>
</svg>
