<?xml version="1.0" encoding="utf-8"?>
<!-- Generator: Adobe Illustrator 15.1.0, SVG Export Plug-In . SVG Version: 6.00 Build 0)  -->
<!DOCTYPE svg PUBLIC "-//W3C//DTD SVG 1.1 Tiny//EN" "http://www.w3.org/Graphics/SVG/1.1/DTD/svg11-tiny.dtd">
<svg version="1.1" baseProfile="tiny"
	 id="svg2" xmlns:svg="http://www.w3.org/2000/svg" xmlns:cc="http://web.resource.org/cc/" xmlns:dc="http://purl.org/dc/elements/1.1/" xmlns:sodipodi="http://sodipodi.sourceforge.net/DTD/sodipodi-0.dtd" xmlns:rdf="http://www.w3.org/1999/02/22-rdf-syntax-ns#" xmlns:inkscape="http://www.inkscape.org/namespaces/inkscape" inkscape:output_extension="org.inkscape.output.svg.inkscape" sodipodi:version="0.32" sodipodi:docbase="/home/nicu/Desktop/centos" inkscape:version="0.45" sodipodi:modified="true" sodipodi:docname="centos_full.svg"
	 xmlns="http://www.w3.org/2000/svg" xmlns:xlink="http://www.w3.org/1999/xlink" x="0px" y="0px" width="480px" height="120px"
	 viewBox="0 0 480 120" xml:space="preserve">
<sodipodi:namedview  height="120px" width="480px" id="base" inkscape:cx="240" borderopacity="1.0" bordercolor="#666666" pagecolor="#ffffff" showguides="true" guidetolerance="10" objecttolerance="10" inkscape:zoom="1" gridtolerance="10000" inkscape:cy="60" inkscape:window-height="791" inkscape:window-y="24" inkscape:pageopacity="0.0" inkscape:window-x="0" inkscape:window-width="1152" inkscape:document-units="px" inkscape:current-layer="layer1" inkscape:pageshadow="2" inkscape:guide-bbox="true">
	</sodipodi:namedview>
<g id="layer1" inkscape:groupmode="layer" inkscape:label="Layer 1">
	<g id="g7665" transform="translate(-16.131709,-648.56181)">
		
			<path id="path2439" sodipodi:nodetypes="cssssssssccssssccssscccccssscccccccscccccsscccccsscccccccccccscccccccccccccccccccccccccccccccccccsssccccsssssssccc" fill="#B091BC" d="
			M367.083,735.743c-7.877-2.724-12.123-6.512-15.583-13.904c-2.544-5.438-3.11-8.063-3.504-16.228
			c-0.835-17.356,4.569-28.868,15.966-34.01c4.682-2.112,6.709-2.38,17.764-2.352c10.871,0.028,13.152,0.332,17.711,2.362
			c5.629,2.506,11.625,8.371,13.744,13.443c2.369,5.67,3.474,17.488,2.391,25.584c-2.571,19.217-12.128,26.986-33.107,26.92
			C375.313,737.534,370.69,736.99,367.083,735.743z M388.768,725.613c5.301-1.473,8.603-5.555,10.508-12.988
			c2.73-10.662,0.309-24.257-5.19-29.129c-2.948-2.611-10.274-4.193-15.673-3.383c-9.582,1.437-14.656,9.432-14.656,23.092
			C363.757,721.222,373.417,729.877,388.768,725.613z M148.877,735.392c-5.662-1.504-13.234-8.846-15.536-15.063
			c-2.791-7.538-3.492-15.511-2.146-24.394c1.416-9.343,4.592-15.97,9.664-20.165c5.994-4.957,11.445-6.062,29.914-6.062h16.29
			v5.398v5.399l-14.725,0.341c-13.232,0.307-15.093,0.571-18.367,2.606c-4.345,2.702-6.507,7.485-7.408,16.386
			c-0.874,8.63,0.887,17.466,4.162,20.884c3.579,3.736,9.189,4.888,23.802,4.888h12.535v5.491v5.49l-17.22-0.104
			C160.373,736.433,150.938,735.939,148.877,735.392z M208.526,735.105c-18.123-6.354-17.996-39.643,0.174-45.834
			c3.322-1.132,8.375-1.592,17.473-1.592h12.8v4.991v4.991h-11.03c-12.326,0-16.46,1.311-17.526,5.555
			c-0.348,1.388-0.381,2.776-0.072,3.085s6.764,0.625,14.345,0.702l13.784,0.141l0.302,5.241l0.302,5.241h-14.527
			c-13.969,0-14.527,0.078-14.527,2.041c0,1.123,1.103,3.145,2.45,4.492c2.331,2.33,3.039,2.451,14.475,2.451h12.024v4.99v4.991
			l-13.227-0.045C217.066,736.52,211.147,736.025,208.526,735.105z M201.538,695.873L201.538,695.873z M249.954,712.135v-24.457
			l17.221,0.048c19.076-0.586,21.872,0.955,26.114,6.261c2.688,3.362,2.108,4.368,2.394,22.709l0.309,19.896h-6.049h-6.047v-16.859
			c0-21.009,0.096-20.832-11.48-21.254l-7.986-0.292l-0.271,19.202l-0.271,19.203h-6.968h-6.966V712.135L249.954,712.135z
			 M314.841,713.632l-0.242-16.111l-8.557,0.034l-0.342-4.939l-0.342-4.939l9.738-0.163l-0.108-17.804h5.878h5.877l0.576,17.469
			l14.58,0.589l-0.303,4.697l-0.302,4.697l-14.637,0.59l0.33,12.331c0.397,14.861,1.168,16.264,9.176,16.729l5.515,0.042
			l0.225,9.739C319.849,736.511,315.958,739.306,314.841,713.632z M426.645,725.113c13.782-0.358,27.688,0.978,41.429-0.502
			l3.993-1.012c1.082-3.691,1.988-7.863,0.157-11.449c-1.319-1.777-3.108-2.051-17.286-2.645
			c-19.965-0.836-25.058-2.581-28.752-9.848c-3.359-6.606-2.44-17.782,1.935-23.518c4.274-5.604,8.724-6.43,34.641-6.43h22.782
			v11.979h-20.329c-19.056,0-20.495,0.129-22.96,2.069c-1.998,1.571-2.627,2.953-2.615,5.74c0.009,2.019,0.354,4.204,0.77,4.856
			c1.569,2.468,6.776,3.307,20.532,3.307c12.756,0,14.645,0.228,18.594,2.246c6.702,3.425,8.435,6.484,8.85,15.636
			c0.428,9.402-1.72,14.58-7.55,18.205c-3.662,2.274-4.526,2.354-28.98,2.658l-25.205,0.312L426.645,725.113z"/>
	</g>
	<g id="g2433" transform="matrix(0.3775481,0,0,0.3776435,85.831879,92.890559)">
		<polygon id="rect2261" fill="#EFA724" points="-91.536,-101.992 -146.654,-157.107 -91.544,-212.215 -36.427,-157.1 		"/>
		<polygon id="rect2263" fill="#932279" points="-157.173,-36.356 -212.29,-91.47 -157.18,-146.577 -102.061,-91.463 		"/>
		<rect id="rect2267" x="-179.473" y="-179.721" fill="#9CCD2A" width="77.737" height="77.728"/>
		<polygon id="rect2269" fill="#9CCD2A" points="-91.681,29.278 -146.655,-25.689 -91.689,-80.653 -36.715,-25.683 		"/>
		<rect id="rect2272" x="-179.473" y="-81.47" fill="#262577" width="77.943" height="77.933"/>
		<polygon id="rect2274" fill="#262577" points="-25.9,-36.356 -81.018,-91.47 -25.907,-146.577 29.211,-91.463 		"/>
		<rect id="rect2277" x="-81.018" y="-179.926" fill="#932279" width="77.942" height="77.933"/>
		<rect id="rect2279" x="-81.018" y="-81.472" fill="#EFA724" width="77.942" height="77.935"/>
		<path id="path2289" fill="#FFFFFF" d="M-91.5-215.127l-1.437,1.439l-31.907,31.907H-179.5h-2.032v2.062v54.624l-32.158,32.156
			l-1.468,1.436l1.468,1.438l32.158,32.155v54.315v2.064h2.032h54.157l32.219,32.187l1.469,1.469l1.437-1.469L-58-1.531h54.906
			h2.063v-2.064v-54.719l31.75-31.751l1.437-1.438l-1.437-1.436l-31.75-31.75v-55.281v-2.064h-2.063h-55.312l-31.625-31.656
			L-91.5-215.127z M-91.5-209.345l27.313,27.313h-16.844h-2.063v2.064v66.655l-8.406,8.407l-8.123-8.125v-66.688v-2.062h-2.064
			h-17.374L-91.5-209.345z M-79.001-177.937h18.907l20.813,20.812l-39.72,39.719V-177.937z M-54.313-177.937h49.157v49.124
			l-19.251-19.25l-1.468-1.438l-1.438,1.438l-43.968,43.969h-7.72v-7.499l44.063-44.094l1.469-1.438l-1.469-1.438L-54.313-177.937z
			 M-177.437-177.657h48.469l-19.094,19.092l-1.437,1.438l1.437,1.439l44.343,44.344v7.25h-8.156l-43.875-43.874l-1.469-1.469
			l-1.437,1.469l-18.781,18.78V-177.657L-177.437-177.657z M-123.187-177.657h19.468v60.532l-39.999-40.002L-123.187-177.657z
			 M-25.875-143.719L-5.156-123v18.906h-60.313L-25.875-143.719z M-157.219-143.626l39.531,39.53h-59.749v-19.312L-157.219-143.626z
			 M-181.532-119.313v17.282v2.061h2.032h65.937l8.563,8.562l-7.844,7.846H-179.5h-2.032v2.027v17.848l-27.812-27.814
			L-181.532-119.313z M-1.032-118.876l27.375,27.375L-1.032-64.126v-17.406v-2.03h-2.063h-67.03l-7.938-7.939l8.468-8.469h66.5
			h2.063v-2.061V-118.876z M-83.094-107.5v5.469v2.061h2.063h5.625l-7.032,7.031l-1.437,1.436l1.437,1.438l6.5,6.502h-5.093h-2.063
			v2.027v6.563l-7.125-7.122l-1.438-1.438l-1.468,1.438l-6.376,6.372v-5.813v-2.027h-2.063h-5.499l6.406-6.408l1.469-1.438
			l-1.469-1.469l-7.094-7.093h6.063h2.063v-2.062v-5.22l6.688,6.687l1.437,1.438l1.469-1.438L-83.094-107.5z M-177.437-79.468
			h60.499l-40.187,40.188l-20.314-20.315v-19.873H-177.437z M-111.156-79.468h7.562v7.843l-44.469,44.468l-1.438,1.438l1.438,1.469
			l18.625,18.624h-47.999v-48.186l18.874,18.877l1.438,1.435l1.437-1.435L-111.156-79.468z M-79.001-79.468h7.157l44.531,44.532
			l1.438,1.435l1.468-1.435l19.251-19.252v48.561h-48.751l18.625-18.624l1.438-1.469l-1.438-1.438l-43.719-43.718V-79.468z
			 M-66.031-79.468h60.875v19.47L-25.875-39.28L-66.031-79.468z M-91.657-77.749l8.563,8.559v65.595v2.064h2.063h17.219
			l-27.845,27.843l-27.874-27.843h17.969h2.062v-2.064v-66.314L-91.657-77.749z M-103.594-65.812v60.185h-20.032l-20.093-20.093
			L-103.594-65.812z M-79.001-65.093l39.376,39.374L-59.719-5.627h-19.282V-65.093z"/>
	</g>
</g>
</svg>
