<?xml version="1.0" encoding="utf-8"?>
<!-- Generator: Adobe Illustrator 15.1.0, SVG Export Plug-In . SVG Version: 6.00 Build 0)  -->
<!DOCTYPE svg PUBLIC "-//W3C//DTD SVG 1.1 Tiny//EN" "http://www.w3.org/Graphics/SVG/1.1/DTD/svg11-tiny.dtd">
<svg version="1.1" baseProfile="tiny" id="Ñëîé_1"
	 xmlns="http://www.w3.org/2000/svg" xmlns:xlink="http://www.w3.org/1999/xlink" x="0px" y="0px" width="611.707px"
	 height="179.248px" viewBox="0 0 611.707 179.248" xml:space="preserve">
<g>
	<path fill-rule="evenodd" fill="#F78E1E" d="M73.81,75.563c-4.338,0-7.973,0.99-10.905,2.965c-2.936,1.979-5.327,4.528-7.174,7.652
		c-1.85,3.127-3.156,6.569-3.922,10.33c-0.765,3.763-1.147,7.494-1.147,11.19c0,3.572,0.383,7.208,1.147,10.905
		c0.766,3.701,2.009,7.049,3.73,10.044c1.722,2.998,4.048,5.452,6.982,7.365c2.932,1.912,6.505,2.87,10.714,2.87
		c6.504,0,11.508-1.818,15.016-5.452c3.507-3.636,5.708-8.514,6.602-14.637h26.209c-1.788,13.139-6.888,23.149-15.306,30.035
		c-8.416,6.887-19.195,10.331-32.33,10.331c-7.397,0-14.189-1.243-20.373-3.731c-6.188-2.486-11.449-5.959-15.782-10.426
		c-4.338-4.463-7.719-9.786-10.14-15.973c-2.424-6.186-3.635-12.977-3.635-20.375c0-7.651,1.114-14.76,3.347-21.33
		c2.23-6.566,5.516-12.243,9.853-17.026c4.335-4.782,9.628-8.513,15.879-11.19c6.247-2.679,13.392-4.018,21.427-4.018
		c5.864,0,11.507,0.766,16.93,2.296c5.419,1.53,10.265,3.858,14.539,6.982c4.271,3.127,7.748,7.015,10.426,11.67
		c2.679,4.656,4.209,10.172,4.592,16.548H93.896C92.109,81.24,85.414,75.563,73.81,75.563L73.81,75.563z"/>
	<path fill-rule="evenodd" fill="#F78E1E" d="M178.26,84.363c3.443,0,6.758-0.254,9.947-0.766c3.187-0.508,5.993-1.498,8.417-2.964
		c2.422-1.465,4.367-3.54,5.834-6.218c1.466-2.679,2.201-6.186,2.201-10.522c0-4.334-0.736-7.844-2.201-10.521
		c-1.467-2.679-3.413-4.751-5.834-6.217c-2.423-1.465-5.23-2.455-8.417-2.966c-3.189-0.509-6.504-0.766-9.947-0.766h-23.339v40.939
		H178.26L178.26,84.363z M186.486,20.085c8.543,0,15.813,1.244,21.809,3.73c5.993,2.486,10.871,5.771,14.636,9.853
		c3.76,4.083,6.504,8.737,8.225,13.965c1.722,5.23,2.583,10.65,2.583,16.261c0,5.484-0.861,10.874-2.583,16.165
		c-1.721,5.294-4.465,9.98-8.225,14.062c-3.765,4.083-8.643,7.364-14.636,9.852c-5.996,2.487-13.266,3.729-21.809,3.729h-31.564
		v48.975h-30.036V20.085H186.486L186.486,20.085z"/>
	<path fill-rule="evenodd" fill="#F78E1E" d="M290.267,110.668c-1.723,0.574-3.572,1.053-5.549,1.434
		c-1.979,0.384-4.051,0.703-6.218,0.958c-2.17,0.257-4.337,0.573-6.504,0.955c-2.042,0.384-4.05,0.895-6.025,1.53
		c-1.979,0.641-3.7,1.502-5.166,2.584c-1.468,1.085-2.648,2.456-3.539,4.112c-0.893,1.659-1.338,3.764-1.338,6.313
		c0,2.425,0.445,4.467,1.338,6.122c0.891,1.659,2.104,2.966,3.635,3.922c1.53,0.957,3.315,1.626,5.356,2.01
		c2.039,0.383,4.143,0.573,6.313,0.573c5.357,0,9.5-0.891,12.436-2.679c2.932-1.783,5.1-3.921,6.506-6.408
		c1.4-2.487,2.261-5.003,2.582-7.557c0.315-2.55,0.478-4.591,0.478-6.122v-10.14C293.422,109.299,291.989,110.094,290.267,110.668
		L290.267,110.668z M236.607,72.311c2.804-4.208,6.374-7.586,10.712-10.139c4.335-2.549,9.212-4.367,14.634-5.452
		c5.42-1.082,10.872-1.626,16.356-1.626c4.975,0,10.013,0.353,15.113,1.052c5.101,0.702,9.758,2.075,13.966,4.113
		c4.209,2.042,7.651,4.878,10.33,8.514c2.678,3.635,4.018,8.45,4.018,14.443l0.001,51.46c0,4.466,0.253,8.737,0.764,12.817
		c0.509,4.084,1.402,7.145,2.679,9.183h-27.548c-0.512-1.53-0.926-3.091-1.244-4.687c-0.319-1.594-0.543-3.22-0.668-4.879
		c-4.338,4.467-9.439,7.591-15.305,9.374c-5.867,1.784-11.86,2.679-17.983,2.679c-4.72,0-9.119-0.574-13.2-1.722
		c-4.082-1.147-7.651-2.933-10.713-5.356c-3.061-2.422-5.451-5.482-7.173-9.184c-1.722-3.697-2.582-8.097-2.582-13.199
		c0-5.61,0.985-10.234,2.964-13.869c1.976-3.636,4.526-6.534,7.653-8.704c3.124-2.167,6.694-3.794,10.712-4.879
		c4.018-1.082,8.064-1.943,12.149-2.583c4.079-0.636,8.097-1.147,12.05-1.529c3.953-0.384,7.462-0.958,10.522-1.723
		c3.061-0.766,5.481-1.88,7.27-3.348c1.784-1.465,2.613-3.602,2.487-6.409c0-2.932-0.478-5.26-1.435-6.982
		c-0.957-1.722-2.232-3.061-3.826-4.017c-1.596-0.957-3.444-1.594-5.548-1.913c-2.104-0.316-4.37-0.479-6.792-0.479
		c-5.356,0-9.565,1.148-12.625,3.444c-3.062,2.296-4.849,6.121-5.356,11.478h-27.165C232.206,81.813,233.798,76.52,236.607,72.311
		L236.607,72.311z"/>
	<path fill-rule="evenodd" fill="#F78E1E" d="M359.039,57.771v13.774h0.573c3.444-5.739,7.906-9.915,13.392-12.53
		c5.481-2.612,11.096-3.922,16.834-3.922c7.271,0,13.23,0.989,17.888,2.965c4.654,1.979,8.321,4.721,11,8.226
		c2.679,3.509,4.559,7.781,5.643,12.818c1.083,5.04,1.628,10.617,1.628,16.739v60.834H398.83v-55.861
		c0-8.16-1.276-14.251-3.826-18.269c-2.553-4.018-7.078-6.026-13.583-6.026c-7.397,0-12.754,2.201-16.069,6.6
		c-3.317,4.4-4.974,11.641-4.974,21.714v51.843h-27.165V57.771H359.039L359.039,57.771z"/>
	<path fill-rule="evenodd" fill="#F78E1E" d="M496.87,80.92c-3.252-3.57-8.196-5.356-14.825-5.356c-4.337,0-7.938,0.735-10.81,2.199
		c-2.867,1.469-5.165,3.285-6.887,5.452c-1.721,2.171-2.934,4.467-3.635,6.887c-0.702,2.425-1.118,4.592-1.243,6.506h44.191
		C502.386,89.72,500.124,84.492,496.87,80.92L496.87,80.92z M466.167,132.955c4.079,3.953,9.947,5.931,17.6,5.931
		c5.481,0,10.201-1.37,14.156-4.114c3.952-2.741,6.376-5.643,7.271-8.704h23.913c-3.826,11.86-9.694,20.344-17.602,25.444
		c-7.908,5.102-17.475,7.651-28.695,7.651c-7.78,0-14.796-1.243-21.043-3.731c-6.25-2.486-11.544-6.024-15.878-10.617
		c-4.338-4.59-7.686-10.073-10.043-16.452c-2.362-6.375-3.541-13.39-3.541-21.042c0.001-7.396,1.211-14.282,3.637-20.661
		c2.421-6.376,5.864-11.891,10.329-16.548c4.464-4.654,9.786-8.322,15.974-11c6.187-2.679,13.04-4.018,20.565-4.018
		c8.418,0,15.751,1.627,22,4.878c6.248,3.252,11.384,7.623,15.399,13.104c4.02,5.485,6.918,11.735,8.706,18.748
		c1.784,7.016,2.42,14.348,1.912,22H459.47C459.854,122.624,462.083,129.003,466.167,132.955L466.167,132.955z"/>
	<polygon fill-rule="evenodd" fill="#F78E1E" points="565.26,156.676 538.095,156.676 538.095,20.085 565.26,20.085 565.26,156.676 
			"/>
	<path fill-rule="evenodd" fill="#F78E1E" d="M579.939,30.995c0.331,0,0.645-0.011,0.94-0.032c0.297-0.022,0.559-0.084,0.79-0.185
		c0.231-0.102,0.416-0.257,0.553-0.466s0.205-0.502,0.205-0.877c0.001-0.317-0.062-0.57-0.184-0.758
		c-0.123-0.188-0.281-0.332-0.477-0.433c-0.194-0.102-0.419-0.17-0.672-0.206c-0.252-0.037-0.501-0.055-0.747-0.055H578.4v3.011
		H579.939L579.939,30.995z M580.586,26.793c1.127,0,1.96,0.225,2.501,0.672c0.543,0.447,0.813,1.126,0.813,2.036
		c0,0.852-0.237,1.476-0.713,1.873c-0.477,0.396-1.069,0.632-1.776,0.704l2.707,4.18h-1.581l-2.578-4.071H578.4v4.071h-1.473v-9.465
		H580.586L580.586,26.793z M573.906,34.254c0.34,0.845,0.809,1.578,1.408,2.198c0.6,0.621,1.306,1.108,2.122,1.462
		c0.815,0.354,1.7,0.531,2.653,0.531c0.938,0,1.812-0.177,2.62-0.531c0.809-0.354,1.513-0.841,2.112-1.462
		c0.599-0.62,1.067-1.354,1.407-2.198c0.339-0.845,0.51-1.765,0.51-2.761c0-0.968-0.171-1.87-0.51-2.707
		c-0.34-0.838-0.809-1.563-1.407-2.177c-0.6-0.613-1.304-1.097-2.112-1.451c-0.809-0.354-1.682-0.531-2.62-0.531
		c-0.953,0-1.838,0.178-2.653,0.531c-0.816,0.354-1.522,0.838-2.122,1.451c-0.599,0.614-1.069,1.339-1.408,2.177
		c-0.339,0.837-0.51,1.739-0.51,2.707C573.396,32.489,573.567,33.409,573.906,34.254L573.906,34.254z M572.575,28.31
		c0.432-0.981,1.021-1.834,1.765-2.556s1.609-1.288,2.599-1.7c0.989-0.411,2.039-0.617,3.151-0.617s2.158,0.206,3.14,0.617
		c0.983,0.412,1.841,0.979,2.577,1.7s1.321,1.574,1.755,2.556s0.649,2.043,0.649,3.184c0,1.169-0.217,2.248-0.649,3.237
		s-1.019,1.849-1.755,2.578c-0.736,0.729-1.594,1.295-2.577,1.699c-0.981,0.404-2.027,0.606-3.14,0.606s-2.162-0.202-3.151-0.606
		s-1.855-0.971-2.599-1.699c-0.743-0.729-1.333-1.589-1.766-2.578s-0.65-2.068-0.65-3.237
		C571.924,30.353,572.14,29.291,572.575,28.31L572.575,28.31z"/>
	<path fill-rule="evenodd" fill="#F78E1E" d="M579.939,30.995c0.331,0,0.645-0.011,0.94-0.032c0.297-0.022,0.559-0.084,0.79-0.185
		c0.231-0.102,0.416-0.257,0.553-0.466s0.205-0.502,0.205-0.877c0.001-0.317-0.062-0.57-0.184-0.758
		c-0.123-0.188-0.281-0.332-0.477-0.433c-0.194-0.102-0.419-0.17-0.672-0.206c-0.252-0.037-0.501-0.055-0.747-0.055H578.4v3.011
		H579.939L579.939,30.995z M580.586,26.793c1.127,0,1.96,0.225,2.501,0.672c0.543,0.447,0.813,1.126,0.813,2.036
		c0,0.852-0.237,1.476-0.713,1.873c-0.477,0.396-1.069,0.632-1.776,0.704l2.707,4.18h-1.581l-2.578-4.071H578.4v4.071h-1.473v-9.465
		H580.586L580.586,26.793z M573.906,34.254c0.34,0.845,0.809,1.578,1.408,2.198c0.6,0.621,1.306,1.108,2.122,1.462
		c0.815,0.354,1.7,0.531,2.653,0.531c0.938,0,1.812-0.177,2.62-0.531c0.809-0.354,1.513-0.841,2.112-1.462
		c0.599-0.62,1.067-1.354,1.407-2.198c0.339-0.845,0.51-1.765,0.51-2.761c0-0.968-0.171-1.87-0.51-2.707
		c-0.34-0.838-0.809-1.563-1.407-2.177c-0.6-0.613-1.304-1.097-2.112-1.451c-0.809-0.354-1.682-0.531-2.62-0.531
		c-0.953,0-1.838,0.178-2.653,0.531c-0.816,0.354-1.522,0.838-2.122,1.451c-0.599,0.614-1.069,1.339-1.408,2.177
		c-0.339,0.837-0.51,1.739-0.51,2.707C573.396,32.489,573.567,33.409,573.906,34.254L573.906,34.254z M572.575,28.31
		c0.432-0.981,1.021-1.834,1.765-2.556s1.609-1.288,2.599-1.7c0.989-0.411,2.039-0.617,3.151-0.617s2.158,0.206,3.14,0.617
		c0.983,0.412,1.841,0.979,2.577,1.7s1.321,1.574,1.755,2.556s0.649,2.043,0.649,3.184c0,1.169-0.217,2.248-0.649,3.237
		s-1.019,1.849-1.755,2.578c-0.736,0.729-1.594,1.295-2.577,1.699c-0.981,0.404-2.027,0.606-3.14,0.606s-2.162-0.202-3.151-0.606
		s-1.855-0.971-2.599-1.699c-0.743-0.729-1.333-1.589-1.766-2.578s-0.65-2.068-0.65-3.237
		C571.924,30.353,572.14,29.291,572.575,28.31L572.575,28.31z"/>
</g>
</svg>
