<?xml version="1.0" encoding="utf-8"?>
<!-- Generator: Adobe Illustrator 15.1.0, SVG Export Plug-In . SVG Version: 6.00 Build 0)  -->
<!DOCTYPE svg PUBLIC "-//W3C//DTD SVG 1.1//EN" "http://www.w3.org/Graphics/SVG/1.1/DTD/svg11.dtd">
<svg version="1.1" id="Layer_1" xmlns="http://www.w3.org/2000/svg" xmlns:xlink="http://www.w3.org/1999/xlink" x="0px" y="0px"
	 width="174.01px" height="50.99px" viewBox="0 0 174.01 50.99" enable-background="new 0 0 174.01 50.99" xml:space="preserve">
<g>
	<path d="M79.717,25.925c0,2.651-2.604,3.973-5.802,3.973c-3.2,0-5.802-1.321-5.802-3.973c0-2.651,2.603-3.972,5.802-3.972
		C77.114,21.953,79.717,23.274,79.717,25.925z M73.915,20.716c-4.174,0-7.57,1.988-7.57,5.209c0,3.219,3.396,5.208,7.57,5.208
		c4.174,0,7.57-1.989,7.57-5.208C81.485,22.704,78.089,20.716,73.915,20.716z"/>
	<path d="M95.533,25.925c0,2.651-2.603,3.973-5.803,3.973c-3.199,0-5.802-1.321-5.802-3.973c0-2.651,2.603-3.972,5.802-3.972
		C92.931,21.953,95.533,23.274,95.533,25.925z M89.73,20.716c-4.174,0-7.57,1.988-7.57,5.209c0,3.219,3.396,5.208,7.57,5.208
		s7.571-1.989,7.571-5.208C97.302,22.704,93.906,20.716,89.73,20.716z"/>
	<rect x="120.013" y="16.196" width="1.799" height="14.764"/>
	<path d="M136.352,20.822v1.726c-1.355-1.111-3.366-1.833-5.649-1.833c-4.174,0-7.569,1.989-7.569,5.209
		c0,3.221,3.396,5.209,7.569,5.209c2.283,0,4.294-0.596,5.649-1.661v1.487h1.799V20.822H136.352z M130.702,29.897
		c-3.199,0-5.802-1.321-5.802-3.973c0-2.651,2.603-3.972,5.802-3.972s5.649,1.658,5.649,4.499v1.156
		C135.771,28.576,133.254,29.897,130.702,29.897z"/>
	<path d="M116.954,21.801c-0.85-0.61-2.075-1.084-3.745-1.084c-1.786,0-3.038,0.476-3.896,1.039
		c-0.375,0.246-0.675,0.508-0.909,0.754c-0.231-0.271-0.523-0.544-0.889-0.792c-0.829-0.564-2.038-1.001-3.788-1.001
		c-1.685,0-2.893,0.467-3.732,1.013v-0.916h-1.798v10.166h1.798v-7.164c0.351-0.605,1.354-1.862,3.732-1.862
		c3.21,0,3.783,2.126,3.788,2.15v6.876h1.798v-6.745c0.044-0.089,0.302-2.282,3.896-2.282c3.317,0,3.739,2.428,3.745,2.451v6.575
		h1.571v-6.877C118.525,23.597,118.051,22.587,116.954,21.801z"/>
	<path d="M65.409,26.387v0.01l0-0.035C65.409,26.369,65.409,26.378,65.409,26.387v-10.17h-1.774v10.18c0,0,0.068,1.446-0.791,2.271
		c-0.745,0.715-1.608,1.089-3.32,1c-1.064-0.055-2.503-0.274-3.659-0.449c-0.209-0.032-0.406-0.07-0.59-0.11l-0.653,1.359
		c0.375,0.052,0.787,0.112,1.105,0.161c1.199,0.181,2.383,0.386,3.542,0.445c2.127,0.11,3.683-0.182,4.881-1.34
		C65.352,28.574,65.414,26.71,65.409,26.387z"/>
	<path d="M142.613,16.196h-1.798v11.484h1.798V16.196z M141.715,29.051c-0.767,0-1.388,0.468-1.388,1.046s0.621,1.047,1.388,1.047
		s1.388-0.469,1.388-1.047S142.48,29.051,141.715,29.051z"/>
	<g>
		<path d="M144.387,17.637v-1.393h-0.722v-0.186h1.734v0.186h-0.724v1.393H144.387z"/>
		<path d="M145.686,17.637v-1.578h0.434l0.519,1.117c0.047,0.104,0.082,0.182,0.104,0.233c0.025-0.057,0.064-0.142,0.117-0.252
			l0.523-1.098h0.391v1.579h-0.279v-1.322l-0.636,1.322h-0.262l-0.631-1.343v1.343L145.686,17.637L145.686,17.637z"/>
	</g>
	<path fill="#F09E51" d="M45.406,12.628c-0.423,0.424-0.719,0.943-0.884,1.512c-1.754-0.358-3.592,0.146-4.913,1.352
		c-0.063,0.057-0.125,0.115-0.185,0.174l-5.279,5.28l2.762,2.763l5.209-5.209c0.352-0.352,0.813-0.546,1.298-0.546
		c0.45,0,0.87,0.171,1.18,0.481c0.666,0.665,0.637,1.778-0.064,2.479l-0.033,0.033l2.762,2.763l0.103-0.105
		c0.061-0.06,0.119-0.121,0.175-0.184c1.206-1.321,1.71-3.159,1.352-4.914c0.569-0.164,1.088-0.461,1.511-0.883
		c1.377-1.378,1.377-3.618,0-4.995C49.023,11.252,46.784,11.252,45.406,12.628z"/>
	<path fill="#66AF4B" d="M38.601,15.492c-0.075-0.069-0.153-0.136-0.232-0.201c-1.3-1.06-3.027-1.489-4.68-1.15
		c-0.166-0.569-0.462-1.089-0.885-1.512c-1.377-1.376-3.617-1.376-4.994,0c-1.377,1.377-1.377,3.618,0,4.995
		c0.423,0.422,0.942,0.719,1.511,0.884c-0.337,1.654,0.091,3.381,1.151,4.681c0.064,0.08,0.131,0.156,0.201,0.232
		c0.057,0.063,0.114,0.125,0.174,0.185l5.28,5.28l2.762-2.762l-5.209-5.209c-0.164-0.165-0.291-0.352-0.381-0.551
		c-0.294-0.648-0.193-1.418,0.316-1.928c0.509-0.509,1.28-0.61,1.927-0.316c0.199,0.09,0.387,0.216,0.552,0.381l0.033,0.033
		l2.762-2.762l-0.104-0.104C38.725,15.607,38.663,15.549,38.601,15.492z"/>
	<path fill="#DB4C48" d="M39.321,21.727l5.209,5.209c0.165,0.166,0.291,0.352,0.381,0.553c0.293,0.647,0.193,1.417-0.316,1.927
		s-1.279,0.61-1.928,0.315c-0.198-0.09-0.386-0.216-0.551-0.38l-0.034-0.034l-2.761,2.763l0.283,0.283l0.005-0.006
		c0.075,0.069,0.152,0.138,0.231,0.201c1.299,1.061,3.028,1.489,4.681,1.151c0.165,0.568,0.461,1.089,0.884,1.511
		c1.377,1.378,3.617,1.378,4.995,0c1.376-1.376,1.376-3.616,0-4.992c-0.424-0.423-0.943-0.722-1.512-0.886
		c0.338-1.653-0.091-3.381-1.151-4.682c-0.064-0.078-0.13-0.155-0.201-0.232c-0.056-0.062-0.114-0.124-0.175-0.184l-5.28-5.279
		L39.321,21.727z"/>
	<path fill="#0086BF" d="M36.094,29.351c-0.165,0.164-0.353,0.289-0.552,0.38c-0.647,0.295-1.418,0.194-1.927-0.315
		c-0.509-0.51-0.61-1.28-0.316-1.927c0.09-0.201,0.217-0.387,0.381-0.553l0.033-0.032l-2.545-2.546l-0.104,0.104
		c-0.061,0.06-0.119,0.123-0.175,0.184c-0.07,0.076-0.137,0.154-0.2,0.233c-1.02,1.258-1.377,2.874-1.074,4.383
		c0.002-0.001,0.006-0.001,0.01-0.003l-0.009,0.013c0.02,0.097,0.042,0.194,0.067,0.288c-0.098,0.021-0.196,0.044-0.292,0.073
		l-0.002,0.004c0,0,0-0.002,0-0.003c-0.499,0.146-0.968,0.417-1.361,0.81c-1.26,1.261-1.26,3.302,0,4.562
		c1.26,1.26,3.302,1.26,4.562,0c0.393-0.394,0.662-0.863,0.809-1.359c0.099,0.023,0.199,0.047,0.299,0.067
		c1.651,0.335,3.376-0.095,4.673-1.154c0.08-0.063,0.156-0.132,0.232-0.201c0.063-0.057,0.124-0.115,0.185-0.175l5.278-5.278
		l-2.763-2.764L36.094,29.351z"/>
</g>
</svg>
