<?xml version="1.0" encoding="utf-8"?>
<!-- Generator: Adobe Illustrator 15.1.0, SVG Export Plug-In . SVG Version: 6.00 Build 0)  -->
<!DOCTYPE svg PUBLIC "-//W3C//DTD SVG 1.1//EN" "http://www.w3.org/Graphics/SVG/1.1/DTD/svg11.dtd">
<svg version="1.1" id="Layer_1" xmlns="http://www.w3.org/2000/svg" xmlns:xlink="http://www.w3.org/1999/xlink" x="0px" y="0px"
	 width="174.01px" height="50.99px" viewBox="0 0 174.01 50.99" enable-background="new 0 0 174.01 50.99" xml:space="preserve">
<g>
	<path fill-rule="evenodd" clip-rule="evenodd" fill="#00678F" d="M53.503,39.795h2.212v-8.761l3.452,7.637
		c0.392,0.919,0.952,1.261,2.042,1.261c1.088,0,1.615-0.342,2.024-1.261l3.436-7.637v8.761h2.229v-8.761
		c0-0.851-0.341-1.259-1.055-1.479c-1.684-0.512-2.807-0.069-3.317,1.07l-3.385,7.553l-3.267-7.553
		c-0.492-1.14-1.633-1.582-3.333-1.07c-0.698,0.22-1.038,0.628-1.038,1.479V39.795L53.503,39.795z"/>
	<path fill-rule="evenodd" clip-rule="evenodd" fill="#00678F" d="M70.734,32.667h2.229v4.814c-0.017,0.271,0.085,0.885,1.292,0.9
		c0.63,0.018,4.797,0,4.831,0v-5.748h2.229c0,0,0,7.842,0,7.876c0,1.938-2.398,2.363-3.521,2.381h-7.008v-1.48
		c0.017,0,7.008,0,7.024,0c1.429-0.153,1.259-0.868,1.259-1.105v-0.577h-4.712c-2.194-0.019-3.606-0.988-3.623-2.093
		C70.734,37.532,70.786,32.701,70.734,32.667L70.734,32.667z"/>
	<path fill-rule="evenodd" clip-rule="evenodd" fill="#00678F" d="M118.532,27.087c-1.359-0.032-2.416,0.104-3.299,0.478
		c-0.255,0.103-0.663,0.103-0.697,0.425c0.136,0.137,0.152,0.356,0.271,0.545c0.205,0.34,0.561,0.799,0.886,1.037
		c0.356,0.273,0.714,0.546,1.088,0.783c0.663,0.407,1.411,0.646,2.057,1.054c0.376,0.238,0.75,0.544,1.123,0.801
		c0.188,0.136,0.307,0.357,0.546,0.442c0-0.018,0-0.034,0-0.052c-0.12-0.153-0.153-0.374-0.273-0.544
		c-0.171-0.171-0.339-0.324-0.509-0.494c-0.494-0.663-1.106-1.241-1.77-1.717c-0.544-0.377-1.734-0.886-1.957-1.515
		c0,0-0.017-0.018-0.033-0.034c0.374-0.034,0.816-0.17,1.173-0.272c0.579-0.153,1.106-0.119,1.7-0.271
		c0.273-0.069,0.545-0.153,0.817-0.238c0-0.051,0-0.103,0-0.153c-0.305-0.306-0.527-0.714-0.851-1.003
		c-0.867-0.749-1.82-1.48-2.807-2.093c-0.527-0.34-1.209-0.561-1.77-0.85c-0.202-0.103-0.544-0.154-0.662-0.325
		c-0.308-0.374-0.477-0.866-0.697-1.309c-0.494-0.937-0.972-1.974-1.396-2.96c-0.306-0.663-0.494-1.327-0.867-1.939
		c-1.753-2.892-3.658-4.644-6.583-6.361c-0.63-0.357-1.377-0.511-2.178-0.697c-0.425-0.017-0.852-0.051-1.275-0.068
		c-0.273-0.119-0.545-0.442-0.782-0.595c-0.97-0.613-3.47-1.94-4.185-0.188c-0.46,1.106,0.681,2.194,1.07,2.756
		c0.291,0.391,0.665,0.833,0.868,1.275c0.118,0.289,0.153,0.595,0.271,0.901c0.272,0.749,0.528,1.583,0.887,2.28
		c0.185,0.356,0.39,0.731,0.629,1.054c0.135,0.188,0.374,0.273,0.424,0.579c-0.237,0.34-0.254,0.85-0.391,1.276
		c-0.612,1.922-0.373,4.303,0.493,5.715c0.273,0.424,0.919,1.361,1.786,1.002c0.767-0.305,0.597-1.274,0.815-2.125
		c0.053-0.205,0.018-0.34,0.119-0.477c0,0.018,0,0.035,0,0.035c0.239,0.475,0.479,0.935,0.699,1.411
		c0.526,0.834,1.445,1.702,2.211,2.28c0.407,0.306,0.731,0.833,1.24,1.02c0-0.017,0-0.033,0-0.051c-0.015,0-0.015,0-0.033,0
		c-0.102-0.152-0.255-0.222-0.391-0.34c-0.306-0.307-0.646-0.681-0.885-1.021c-0.714-0.952-1.343-2.006-1.905-3.095
		c-0.272-0.528-0.511-1.106-0.73-1.633c-0.102-0.205-0.102-0.511-0.272-0.613c-0.255,0.374-0.629,0.698-0.817,1.157
		c-0.322,0.73-0.358,1.633-0.476,2.569c-0.068,0.016-0.033,0-0.068,0.034c-0.544-0.137-0.731-0.698-0.936-1.175
		c-0.51-1.208-0.595-3.146-0.152-4.541c0.118-0.357,0.629-1.48,0.425-1.82c-0.102-0.323-0.442-0.51-0.63-0.765
		c-0.222-0.323-0.459-0.731-0.611-1.089c-0.409-0.953-0.612-2.007-1.055-2.96c-0.205-0.442-0.563-0.901-0.851-1.31
		c-0.324-0.459-0.681-0.782-0.937-1.327c-0.084-0.187-0.203-0.494-0.068-0.698c0.035-0.136,0.104-0.187,0.238-0.221
		c0.221-0.188,0.852,0.051,1.072,0.152c0.629,0.255,1.155,0.494,1.685,0.851c0.237,0.17,0.493,0.494,0.8,0.579
		c0.118,0,0.236,0,0.356,0c0.544,0.118,1.156,0.033,1.665,0.187c0.904,0.289,1.72,0.715,2.45,1.174
		c2.229,1.412,4.066,3.419,5.308,5.817c0.205,0.391,0.29,0.749,0.477,1.157c0.357,0.833,0.8,1.685,1.156,2.5
		c0.356,0.799,0.697,1.615,1.208,2.279c0.256,0.357,1.277,0.545,1.735,0.731c0.341,0.153,0.868,0.289,1.174,0.477
		c0.578,0.356,1.157,0.765,1.701,1.156C117.632,26.323,118.481,26.747,118.532,27.087L118.532,27.087z"/>
	<path fill-rule="evenodd" clip-rule="evenodd" fill="#00678F" d="M101.184,12.306c-0.291,0-0.494,0.035-0.698,0.085
		c0,0,0,0.017,0,0.034c0.017,0,0.017,0,0.034,0c0.135,0.272,0.373,0.459,0.543,0.697c0.137,0.272,0.256,0.544,0.393,0.817
		c0.017-0.018,0.033-0.035,0.033-0.035c0.239-0.169,0.357-0.442,0.357-0.851c-0.102-0.119-0.118-0.237-0.204-0.356
		C101.54,12.528,101.318,12.442,101.184,12.306L101.184,12.306z"/>
	<path fill-rule="evenodd" clip-rule="evenodd" fill="#E38D1A" d="M83.016,39.795h6.396c0.749,0,1.464-0.153,2.042-0.427
		c0.969-0.441,1.429-1.036,1.429-1.818v-1.634c0-0.629-0.528-1.224-1.582-1.633c-0.544-0.203-1.226-0.324-1.889-0.324h-2.688
		c-0.901,0-1.326-0.271-1.445-0.867c-0.018-0.067-0.018-0.136-0.018-0.203v-1.004c0-0.05,0-0.118,0.018-0.187
		c0.119-0.46,0.357-0.579,1.14-0.664c0.068,0,0.152,0,0.204,0h6.345v-1.479h-6.226c-0.901,0-1.378,0.05-1.804,0.186
		c-1.31,0.408-1.888,1.055-1.888,2.195v1.293c0,1.003,1.123,1.853,3.028,2.058c0.204,0.017,0.425,0.017,0.646,0.017h2.297
		c0.084,0,0.169,0,0.238,0.018c0.697,0.066,1.003,0.188,1.207,0.442c0.136,0.136,0.17,0.255,0.17,0.408v1.292
		c0,0.153-0.103,0.358-0.306,0.527c-0.205,0.17-0.527,0.289-0.953,0.307c-0.085,0-0.137,0.017-0.221,0.017h-6.141V39.795
		L83.016,39.795z"/>
	<path fill-rule="evenodd" clip-rule="evenodd" fill="#E38D1A" d="M106.727,37.226c0,1.514,1.141,2.364,3.421,2.535
		c0.221,0.018,0.426,0.034,0.646,0.034h5.784v-1.48h-5.835c-1.292,0-1.786-0.323-1.786-1.105v-7.653h-2.229V37.226L106.727,37.226z"
		/>
	<path fill-rule="evenodd" clip-rule="evenodd" fill="#E38D1A" d="M94.293,37.294v-5.273c0-1.344,0.953-2.16,2.808-2.415
		c0.203-0.017,0.408-0.034,0.595-0.034h4.219c0.222,0,0.408,0.018,0.63,0.034c1.853,0.255,2.789,1.071,2.789,2.415v5.273
		c0,1.088-0.392,1.667-1.31,2.059l2.178,1.974h-2.568l-1.771-1.599l-1.786,0.102h-2.381c-0.392,0-0.832-0.051-1.293-0.17
		C94.99,39.267,94.293,38.519,94.293,37.294L94.293,37.294z M96.691,37.175c0,0.069,0.035,0.136,0.051,0.221
		c0.121,0.612,0.698,0.954,1.583,0.954h2.007l-1.837-1.668h2.567l1.618,1.463c0.305-0.171,0.491-0.408,0.56-0.713
		c0.017-0.07,0.017-0.155,0.017-0.223v-5.053c0-0.066,0-0.136-0.017-0.204c-0.118-0.578-0.696-0.9-1.564-0.9h-3.351
		c-0.986,0-1.634,0.426-1.634,1.104V37.175L96.691,37.175z"/>
	<path fill-rule="evenodd" clip-rule="evenodd" fill="#E38D1A" d="M117.599,39.813h0.321v-1.243h0.427v-0.255h-1.19v0.255h0.442
		V39.813L117.599,39.813z M120.063,39.813h0.308v-1.498h-0.459l-0.375,1.02l-0.408-1.02h-0.442v1.498h0.289v-1.142h0.017
		l0.426,1.142h0.222l0.424-1.142l0,0V39.813L120.063,39.813z"/>
</g>
</svg>
