<?xml version="1.0" encoding="utf-8"?>
<!-- Generator: Adobe Illustrator 15.1.0, SVG Export Plug-In . SVG Version: 6.00 Build 0)  -->
<!DOCTYPE svg PUBLIC "-//W3C//DTD SVG 1.1//EN" "http://www.w3.org/Graphics/SVG/1.1/DTD/svg11.dtd">
<svg version="1.1" id="Ñëîé_1" xmlns="http://www.w3.org/2000/svg" xmlns:xlink="http://www.w3.org/1999/xlink" x="0px" y="0px"
	 width="611.707px" height="179.248px" viewBox="0 0 611.707 179.248" enable-background="new 0 0 611.707 179.248"
	 xml:space="preserve">
<g>
	<g>
		<g>
			<path fill="#EF4135" d="M40.075,8.962c5.219,0,9.488,4.27,9.488,9.489v97.425c0,5.221-4.269,9.49-9.488,9.49
				c-5.219,0-9.489-4.27-9.489-9.49V18.451C30.585,13.232,34.856,8.962,40.075,8.962L40.075,8.962z"/>
			<path fill="#EF4135" d="M78.014,8.962c5.22,0,9.489,4.27,9.489,9.489v97.425c0,5.221-4.27,9.49-9.489,9.49
				c-5.218,0-9.488-4.27-9.488-9.49V18.451C68.525,13.232,72.795,8.962,78.014,8.962L78.014,8.962z"/>
		</g>
		<g>
			<path d="M565.641,44.209v-7.702h3.545v-1.604h-9.033v1.604h3.536v7.702H565.641L565.641,44.209z M577.831,36.045l-2.342,6.039
				c-0.133,0.285-0.133,0.295-0.267,0.002l-2.341-6.042c-0.081-0.197-0.17-0.392-0.283-0.571c-0.425-0.624-1.074-0.712-1.776-0.651
				c-0.723,0.074-1.213,0.559-1.231,1.29v8.098h1.954l-0.039-7.176V37.03c0.023-0.233,0.088-0.023,0.117,0.051l0.009,0.021
				l2.316,6.044c0.263,0.747,0.639,1.179,1.486,1.167c0.791-0.039,1.059-0.497,1.33-1.164l2.317-6.049
				c0.031-0.095,0.132-0.332,0.141-0.067l-0.055,7.176h1.953V36.11c-0.04-0.871-0.604-1.23-1.424-1.305
				C578.739,34.778,578.179,35.123,577.831,36.045L577.831,36.045z"/>
			<g>
				<path d="M502.414,109.138h40.965c10.801-0.068,16.693-6.554,16.64-17.283c-0.029-5.956-1.962-11.377-7.123-14.877
					c-4.059-2.431-8.503-3.687-13.014-4.994l-13.298-3.708c-2.317-0.665-5.062-1.374-7.027-2.804
					c-1.168-1.071-1.326-1.891-1.35-3.434c0.044-2.886,1.262-3.856,4.788-3.856h34.242V44.356h-36.332
					c-9.326,0.038-16.772,2.787-18.881,12.724c-1.067,6.116-0.319,12.752,3.951,17.53c3.625,3.604,8.369,5.333,13.207,6.67
					l11.814,3.242c2.943,0.809,5.943,1.575,8.789,2.688c0.844,0.356,1.778,0.79,2.25,1.624c0.682,1.207,0.875,3.551,0.167,4.798
					c-0.703,1.245-2.101,1.643-3.595,1.682h-36.195L502.414,109.138L502.414,109.138z"/>
				<path d="M443.03,57.946c6.258,0.036,13.097,1.283,13.803,8.709c0.046,1.425,0.195,2.332-1.374,2.483h-26.313
					c0.086-2.829,0.495-5.692,2.564-7.853C434.278,58.605,438.501,57.946,443.03,57.946L443.03,57.946z M438.798,95.272
					c-3.925-0.273-6.936-1.156-8.625-4.983c-0.746-2.356-0.927-4.862-1.03-7.324h33.935c4.74-0.073,8.411-2.163,10.225-6.651
					c0.934-2.728,1.126-5.722,1.006-8.586c-0.295-6.973-2.107-13.3-7.469-17.926c-6.792-5.385-15.488-5.68-23.784-5.68
					c-8.78,0.062-18.104,0.876-24.779,7.421c-6.312,6.772-6.536,15.954-6.588,24.709c-0.008,4.223,0.045,8.429,0.588,12.622
					c0.697,4.879,2.074,9.283,5.191,13.173c3.475,3.938,7.613,5.907,12.745,6.726c2.109,0.273,4.21,0.365,6.334,0.365h35.753V95.313
					h-31.689L438.798,95.272L438.798,95.272z"/>
				<path d="M236.8,81.604v12.422c0.014,1.572-0.97,1.548-2.241,1.548h-18.822c-4-0.253-4.57-3.784-4.607-6.977
					c0.058-3.645,0.384-6.891,4.806-6.993H236.8L236.8,81.604z M198.232,44.618v13.825h31.918c1.917,0.018,3.6,0.333,5.014,1.716
					c1.308,1.504,1.636,3.128,1.635,5.049v2.571h-24.943c-3.58,0.024-6.729,0.505-9.911,2.248
					c-6.67,4.189-8.167,10.574-8.231,17.985c0.049,7.454,1.231,15.479,8.254,19.576c3.208,1.569,6.381,1.812,9.892,1.812h29.307
					c8.19-0.057,12.551-3.881,12.583-12V65.53c-0.081-4.554-0.782-8.842-2.959-12.883c-3.462-5.682-9.555-7.884-15.978-8.029
					H198.232L198.232,44.618z"/>
				<path d="M134.66,65.116V43.658c0.003-0.9-0.07-1.897,0.549-2.62c0.719-0.612,1.478-0.55,2.378-0.55h24.669
					c5.783,0.052,9.27,1.394,10.364,7.322c0.544,3.772,0.541,7.926-0.363,11.641c-1.525,5.194-5.631,5.665-10.229,5.665H134.66
					L134.66,65.116z M134.66,109.399V80.678h36.303c5.155-0.105,10.148-1.471,14.107-4.887c4.352-4.217,5.943-9.806,6.67-15.762
					c0.518-4.973,0.521-10.074-0.03-15.043c-0.499-3.891-1.415-7.553-3.345-10.994c-4.358-7.099-11.467-8.997-19.356-9.064h-0.841
					H129.59c-4.215,0.031-7.978,1.067-10.917,4.244c-2.354,2.951-2.689,5.973-2.702,9.618v70.609H134.66L134.66,109.399z"/>
				<path d="M265.937,51.055c-4.74,5.187-5.859,11.331-5.93,18.154v39.929h16.952V72.815c0.03-3.461,0.281-6.866,2.012-9.938
					c2.544-3.845,6.673-4.67,11.005-4.695h10.681V44.356h-14.169C278.635,44.356,271.704,45.667,265.937,51.055L265.937,51.055z"/>
				<polygon points="496.342,108.88 479.394,108.88 479.394,24.407 496.342,24.407 				"/>
				<polygon points="406.421,109.138 389.467,109.138 389.467,24.667 406.421,24.667 				"/>
				<polygon points="383.214,109.144 366.264,109.144 366.264,24.667 383.214,24.667 				"/>
				<path d="M343.059,81.343v12.424c0.014,1.569-0.971,1.547-2.24,1.547h-18.822c-4.001-0.254-4.571-3.785-4.607-6.979
					c0.06-3.643,0.385-6.889,4.807-6.992H343.059L343.059,81.343z M304.49,44.356v13.825h31.918c1.918,0.019,3.6,0.333,5.017,1.716
					c1.306,1.503,1.634,3.13,1.634,5.05v2.571h-24.942c-3.581,0.023-6.728,0.505-9.912,2.246c-6.67,4.192-8.167,10.575-8.231,17.987
					c0.049,7.454,1.23,15.479,8.255,19.574c3.209,1.572,6.379,1.813,9.89,1.813h29.31c8.19-0.058,12.551-3.881,12.58-11.998V65.267
					c-0.08-4.553-0.781-8.84-2.957-12.884c-3.461-5.679-9.557-7.88-15.979-8.027H304.49L304.49,44.356z"/>
			</g>
		</g>
	</g>
	<g>
		<path d="M145.521,164.71c-7.917,0-13.232-6.208-13.232-13.418c0-7.212,5.39-13.495,13.307-13.495
			c7.918,0,13.234,6.208,13.234,13.42S153.439,164.71,145.521,164.71z M145.521,140.513c-5.947,0-10.185,4.758-10.185,10.704
			c0,5.947,4.312,10.78,10.259,10.78c5.948,0,10.186-4.76,10.186-10.705C155.781,145.343,151.469,140.513,145.521,140.513z"/>
		<path d="M174.786,164.674c-3.568,0-5.873-1.934-7.36-4.091v9.629h-2.863v-25.166h2.863v3.866c1.561-2.306,3.829-4.274,7.36-4.274
			c4.609,0,9.182,3.644,9.182,9.998C183.967,160.955,179.432,164.674,174.786,164.674z M174.265,147.201
			c-3.568,0-6.951,2.975-6.951,7.435c0,4.498,3.383,7.473,6.951,7.473c3.718,0,6.765-2.75,6.765-7.435
			C181.03,150.103,177.908,147.201,174.265,147.201z"/>
		<path d="M193.119,158.8c0,2.342,1.301,3.197,3.234,3.197c0.967,0,1.784-0.186,2.788-0.67v2.453
			c-1.004,0.521-2.082,0.818-3.457,0.818c-3.085,0-5.428-1.524-5.428-5.428v-11.599h-2.676v-2.527h2.676v-5.8h2.862v5.8h6.096v2.527
			h-6.096L193.119,158.8L193.119,158.8z"/>
		<path d="M204.35,140.847v-3.16h3.271v3.16H204.35z M204.535,164.265v-19.219h2.863v19.219H204.535z"/>
		<path d="M236.059,144.638c4.423,0,7.137,2.973,7.137,7.731v11.896h-2.862v-11.227c0-3.719-1.859-5.799-4.981-5.799
			c-2.9,0-5.316,2.156-5.316,5.947v11.078h-2.826v-11.303c0-3.604-1.896-5.725-4.943-5.725c-3.048,0-5.353,2.527-5.353,6.06v10.968
			h-2.863v-19.22h2.863v3.233c1.264-1.896,2.974-3.643,6.208-3.643c3.123,0,5.13,1.672,6.17,3.828
			C230.669,146.347,232.713,144.638,236.059,144.638z"/>
		<path d="M249.489,140.847v-3.16h3.271v3.16H249.489z M249.675,164.265v-19.219h2.862v19.219H249.675z"/>
		<path d="M258.525,147.463v-2.417h16.207v1.821l-12.788,14.979h12.788v2.418h-16.653v-1.822l12.75-14.979H258.525L258.525,147.463z
			"/>
		<path d="M287.786,162.219c2.639,0,4.498-1.077,6.059-2.713l1.785,1.599c-1.933,2.156-4.275,3.605-7.918,3.605
			c-5.278,0-9.59-4.053-9.59-10.036c0-5.575,3.903-10.036,9.219-10.036c5.687,0,8.958,4.534,8.958,10.186
			c0,0.259,0,0.558-0.037,0.892h-15.241C281.429,159.878,284.403,162.219,287.786,162.219z M293.398,153.597
			c-0.297-3.494-2.305-6.544-6.133-6.544c-3.346,0-5.873,2.789-6.245,6.544H293.398z"/>
		<path d="M316.75,164.265v-3.865c-1.563,2.304-3.828,4.274-7.359,4.274c-4.609,0-9.183-3.646-9.183-10
			c0-6.319,4.573-10.036,9.183-10.036c3.568,0,5.873,1.932,7.359,4.09v-11.599h2.861v27.136H316.75z M309.91,147.201
			c-3.717,0-6.766,2.751-6.766,7.435c0,4.572,3.123,7.473,6.766,7.473c3.568,0,6.951-2.975,6.951-7.473
			C316.861,150.176,313.479,147.201,309.91,147.201z"/>
		<path d="M349.546,164.71c-7.51,0-13.049-5.91-13.049-13.418c0-7.436,5.501-13.495,13.159-13.495c4.721,0,7.546,1.675,10.146,4.127
			l-2.007,2.156c-2.192-2.083-4.646-3.567-8.178-3.567c-5.763,0-10.074,4.646-10.074,10.704c0,6.06,4.351,10.78,10.074,10.78
			c3.567,0,5.911-1.376,8.399-3.755l1.935,1.896C357.24,162.89,354.266,164.71,349.546,164.71z"/>
		<path d="M373.009,164.71c-5.761,0-9.962-4.534-9.962-10c0-5.464,4.238-10.072,10.037-10.072c5.762,0,9.999,4.534,9.999,9.998
			C383.083,160.101,378.809,164.71,373.009,164.71z M373.009,147.165c-4.163,0-7.024,3.309-7.024,7.471
			c0,4.164,3.049,7.51,7.101,7.51c4.163,0,7.062-3.31,7.062-7.436C380.146,150.51,377.063,147.165,373.009,147.165z"/>
		<path d="M410.264,144.638c4.424,0,7.137,2.973,7.137,7.731v11.896h-2.861v-11.227c0-3.719-1.859-5.799-4.98-5.799
			c-2.898,0-5.315,2.156-5.315,5.947v11.078h-2.824v-11.303c0-3.604-1.896-5.725-4.944-5.725s-5.354,2.527-5.354,6.06v10.968h-2.862
			v-19.22h2.862v3.233c1.265-1.896,2.975-3.643,6.208-3.643c3.123,0,5.13,1.672,6.171,3.828
			C404.875,146.347,406.918,144.638,410.264,144.638z"/>
		<path d="M433.841,164.674c-3.567,0-5.873-1.934-7.359-4.091v9.629h-2.862v-25.166h2.862v3.866
			c1.562-2.306,3.828-4.274,7.359-4.274c4.609,0,9.183,3.644,9.183,9.998C443.023,160.955,438.488,164.674,433.841,164.674z
			 M433.321,147.201c-3.568,0-6.951,2.975-6.951,7.435c0,4.498,3.383,7.473,6.951,7.473c3.718,0,6.765-2.75,6.765-7.435
			C440.085,150.103,436.963,147.201,433.321,147.201z"/>
		<path d="M461.951,145.046h2.825v19.219h-2.825v-3.346c-1.301,2.081-3.271,3.755-6.579,3.755c-4.647,0-7.36-3.123-7.36-7.694
			v-11.934h2.862v11.227c0,3.567,1.933,5.799,5.315,5.799c3.271,0,5.762-2.416,5.762-6.021V145.046z"/>
		<path d="M475.081,158.8c0,2.342,1.3,3.197,3.233,3.197c0.967,0,1.783-0.186,2.787-0.67v2.453
			c-1.004,0.521-2.083,0.818-3.457,0.818c-3.086,0-5.429-1.524-5.429-5.428v-11.599h-2.675v-2.527h2.675v-5.8h2.864v5.8h6.095v2.527
			h-6.095L475.081,158.8L475.081,158.8z"/>
		<path d="M486.309,140.847v-3.16h3.271v3.16H486.309z M486.496,164.265v-19.219h2.862v19.219H486.496z"/>
		<path d="M498.876,164.265h-2.862v-19.219h2.862v3.346c1.264-2.082,3.271-3.754,6.58-3.754c4.646,0,7.357,3.122,7.357,7.693v11.934
			h-2.86v-11.227c0-3.568-1.934-5.799-5.314-5.799c-3.31,0-5.763,2.417-5.763,6.021V164.265L498.876,164.265z"/>
		<path d="M527.431,170.286c-3.194,0-6.17-0.893-8.733-2.678l1.301-2.229c2.193,1.597,4.646,2.453,7.396,2.453
			c4.238,0,6.989-2.342,6.989-6.84v-2.267c-1.672,2.229-4.014,4.049-7.546,4.049c-4.607,0-9.032-3.418-9.032-9.03
			c0-5.651,4.46-9.106,9.032-9.106c3.604,0,5.947,1.783,7.509,3.864v-3.457h2.862v15.873
			C537.208,167.127,533.342,170.286,527.431,170.286z M527.394,147.165c-3.642,0-6.652,2.491-6.652,6.505
			c0,3.94,3.085,6.579,6.652,6.579c3.645,0,7.064-2.602,7.064-6.542C534.458,149.729,531.038,147.165,527.394,147.165z"/>
	</g>
</g>
<g>
	<path d="M540.422,136.633h-2.396v-1.229h6.131v1.229h-2.396v6.325h-1.339V136.633z"/>
	<path d="M545.564,135.401h1.413l2.301,3.572l2.299-3.572h1.414v7.557h-1.328v-5.419l-2.385,3.563h-0.043l-2.364-3.541v5.396h-1.308
		L545.564,135.401L545.564,135.401z"/>
</g>
</svg>
