<?xml version="1.0" encoding="utf-8"?>
<!-- Generator: Adobe Illustrator 15.1.0, SVG Export Plug-In . SVG Version: 6.00 Build 0)  -->
<!DOCTYPE svg PUBLIC "-//W3C//DTD SVG 1.1//EN" "http://www.w3.org/Graphics/SVG/1.1/DTD/svg11.dtd">
<svg version="1.1" id="Layer_1" xmlns="http://www.w3.org/2000/svg" xmlns:xlink="http://www.w3.org/1999/xlink" x="0px" y="0px"
	 width="174.01px" height="50.99px" viewBox="0 0 174.01 50.99" enable-background="new 0 0 174.01 50.99" xml:space="preserve">
<g>
	<g>
		<defs>
			<path id="SVGID_1_" d="M87.005,43.048c18.429,0,33.368-7.858,33.368-17.553S105.434,7.942,87.005,7.942
				c-18.428,0-33.368,7.858-33.368,17.553S68.577,43.048,87.005,43.048L87.005,43.048z"/>
		</defs>
		<clipPath id="SVGID_2_">
			<use xlink:href="#SVGID_1_"  overflow="visible"/>
		</clipPath>
		<g clip-path="url(#SVGID_2_)">
			<defs>
				<rect id="SVGID_3_" x="53.637" y="7.942" width="66.736" height="35.105"/>
			</defs>
			<clipPath id="SVGID_4_">
				<use xlink:href="#SVGID_3_"  overflow="visible"/>
			</clipPath>
			<g transform="matrix(1 0 0 1 -1.288945e-006 -1.411952e-006)" clip-path="url(#SVGID_4_)">
				
					<image overflow="visible" width="396" height="209" xlink:href="EB29AE0D.png"  transform="matrix(0.1712 0 0 -0.1712 53.165 43.4639)">
				</image>
			</g>
		</g>
		<g clip-path="url(#SVGID_2_)">
			<defs>
				<rect id="SVGID_5_" x="53.637" y="7.942" width="66.736" height="35.105"/>
			</defs>
			<clipPath id="SVGID_6_">
				<use xlink:href="#SVGID_5_"  overflow="visible"/>
			</clipPath>
			<g transform="matrix(1 0 0 1 -1.288945e-006 -1.411952e-006)" clip-path="url(#SVGID_6_)">
				
					<image overflow="visible" width="396" height="209" xlink:href="EB29AE0F.png"  transform="matrix(0.1712 0 0 -0.1712 53.165 43.4639)">
				</image>
			</g>
		</g>
	</g>
	<path fill-rule="evenodd" clip-rule="evenodd" fill="#5080BA" d="M87.005,41.745c17.708,0,32.065-7.276,32.065-16.25
		s-14.357-16.25-32.065-16.25S54.94,16.521,54.94,25.495S69.297,41.745,87.005,41.745L87.005,41.745z"/>
	<path fill-rule="evenodd" clip-rule="evenodd" fill="#FFFFFF" d="M93.499,30.747l1.592-8.187c0.359-1.848,0.061-3.226-0.888-4.096
		c-0.917-0.843-2.475-1.252-4.762-1.252h-2.755l0.788-4.056c0.03-0.153-0.01-0.312-0.109-0.431
		c-0.099-0.121-0.246-0.191-0.402-0.191h-3.801c-0.25,0-0.465,0.178-0.513,0.423l-1.688,8.69c-0.153-0.979-0.532-1.819-1.138-2.513
		c-1.115-1.276-2.879-1.923-5.243-1.923h-7.368c-0.25,0-0.465,0.176-0.512,0.422l-3.419,17.59c-0.03,0.153,0.01,0.311,0.109,0.432
		c0.099,0.12,0.246,0.189,0.402,0.189h3.832c0.249,0,0.464-0.177,0.512-0.422l0.827-4.255h2.852c1.497,0,2.755-0.162,3.736-0.482
		c1.004-0.326,1.928-0.88,2.742-1.642c0.658-0.605,1.202-1.282,1.62-2.012l-0.683,3.515c-0.03,0.152,0.01,0.311,0.109,0.432
		c0.099,0.119,0.247,0.189,0.402,0.189h3.801c0.25,0,0.465-0.177,0.513-0.422l1.876-9.655h2.608c1.112,0,1.437,0.221,1.525,0.317
		c0.081,0.085,0.248,0.392,0.061,1.355l-1.513,7.783c-0.029,0.152,0.011,0.311,0.109,0.432c0.099,0.119,0.247,0.189,0.402,0.189
		h3.863C93.238,31.169,93.452,30.992,93.499,30.747L93.499,30.747z M75.875,23.983c-0.238,1.228-0.688,2.104-1.337,2.602
		c-0.659,0.508-1.714,0.766-3.134,0.766h-1.698l1.228-6.319h2.196c1.612,0,2.263,0.345,2.523,0.634
		C76.015,22.066,76.092,22.868,75.875,23.983L75.875,23.983z"/>
	<path fill-rule="evenodd" clip-rule="evenodd" fill="#FFFFFF" d="M109.515,19.136c-1.114-1.276-2.879-1.923-5.243-1.923h-7.368
		c-0.25,0-0.464,0.176-0.512,0.422l-3.42,17.59c-0.029,0.153,0.011,0.311,0.11,0.432c0.099,0.12,0.247,0.189,0.401,0.189h3.832
		c0.25,0,0.464-0.177,0.513-0.422l0.826-4.255h2.853c1.497,0,2.755-0.162,3.736-0.482c1.004-0.326,1.927-0.88,2.742-1.642
		c0.679-0.625,1.239-1.325,1.662-2.083c0.423-0.757,0.727-1.602,0.903-2.511C110.986,22.211,110.638,20.422,109.515,19.136
		L109.515,19.136z M105.783,23.983c-0.238,1.228-0.688,2.104-1.337,2.602c-0.66,0.508-1.713,0.766-3.134,0.766h-1.699l1.229-6.319
		h2.196c1.613,0,2.263,0.345,2.524,0.634C105.923,22.066,106.001,22.868,105.783,23.983L105.783,23.983z"/>
	<path fill-rule="evenodd" clip-rule="evenodd" fill="#231F20" d="M73.13,20.509c1.455,0,2.426,0.271,2.91,0.807
		c0.485,0.538,0.601,1.46,0.347,2.769c-0.265,1.36-0.775,2.332-1.531,2.914c-0.756,0.583-1.906,0.873-3.451,0.873h-2.331
		l1.431-7.362H73.13L73.13,20.509z M63.793,35.324h3.832l0.909-4.677h3.281c1.448,0,2.64-0.152,3.575-0.456
		c0.936-0.305,1.785-0.814,2.551-1.53c0.643-0.591,1.161-1.242,1.56-1.953c0.397-0.711,0.68-1.497,0.847-2.356
		c0.405-2.085,0.1-3.709-0.917-4.873c-1.017-1.162-2.633-1.745-4.851-1.745h-7.368L63.793,35.324L63.793,35.324z"/>
	<path fill-rule="evenodd" clip-rule="evenodd" fill="#231F20" d="M83.162,13.057h3.801l-0.908,4.677h3.387
		c2.131,0,3.601,0.372,4.409,1.115c0.81,0.743,1.052,1.948,0.729,3.613l-1.59,8.186h-3.863l1.512-7.783
		c0.173-0.886,0.11-1.489-0.188-1.811c-0.3-0.322-0.936-0.483-1.908-0.483h-3.038l-1.959,10.077h-3.801L83.162,13.057L83.162,13.057
		z"/>
	<path fill-rule="evenodd" clip-rule="evenodd" fill="#231F20" d="M103.038,20.509c1.456,0,2.425,0.271,2.911,0.807
		c0.484,0.538,0.6,1.46,0.347,2.769c-0.266,1.36-0.775,2.332-1.531,2.914c-0.757,0.583-1.907,0.873-3.452,0.873h-2.33l1.43-7.362
		H103.038L103.038,20.509z M93.701,35.324h3.832l0.909-4.677h3.282c1.448,0,2.639-0.152,3.574-0.456
		c0.937-0.305,1.786-0.814,2.552-1.53c0.642-0.591,1.161-1.242,1.559-1.953s0.681-1.497,0.847-2.356
		c0.405-2.085,0.1-3.709-0.917-4.873c-1.017-1.162-2.633-1.745-4.849-1.745h-7.37L93.701,35.324L93.701,35.324z"/>
</g>
</svg>
