<?xml version="1.0" encoding="utf-8"?>
<!-- Generator: Adobe Illustrator 15.1.0, SVG Export Plug-In . SVG Version: 6.00 Build 0)  -->
<!DOCTYPE svg PUBLIC "-//W3C//DTD SVG 1.1//EN" "http://www.w3.org/Graphics/SVG/1.1/DTD/svg11.dtd">
<svg version="1.1" id="Layer_1" xmlns="http://www.w3.org/2000/svg" xmlns:xlink="http://www.w3.org/1999/xlink" x="0px" y="0px"
	 width="315.184px" height="54.446px" viewBox="0 0 315.184 54.446" enable-background="new 0 0 315.184 54.446"
	 xml:space="preserve">
<g>
	<path d="M22.633,33.669H6.146v5.41h15.701c2.462,0,4.125,0.421,4.992,1.262c0.865,0.843,1.297,2.406,1.297,4.692v3.457
		c0,2.287-0.432,3.852-1.297,4.692c-0.866,0.843-2.53,1.264-4.992,1.264H6.289c-2.462,0-4.125-0.421-4.991-1.264
		C0.433,52.343,0,50.777,0,48.49v-1.764h5.169v2.979h17.798v-5.743H7.266c-2.446,0-4.098-0.419-4.956-1.262
		c-0.857-0.842-1.287-2.408-1.287-4.695v-2.788c0-2.285,0.43-3.851,1.287-4.693c0.858-0.84,2.51-1.262,4.956-1.262h14.295
		c2.367,0,3.999,0.405,4.896,1.214c0.897,0.811,1.346,2.248,1.346,4.312v1.74h-5.17L22.633,33.669L22.633,33.669z"/>
	<path d="M38.393,35.219c0-2.286,0.43-3.851,1.287-4.694c0.857-0.839,2.51-1.261,4.956-1.261h18.536
		c2.445,0,4.098,0.422,4.956,1.261c0.858,0.843,1.286,2.408,1.286,4.694V48.49c0,2.304-0.429,3.871-1.286,4.704
		c-0.857,0.834-2.511,1.251-4.956,1.251H44.635c-2.446,0-4.099-0.417-4.956-1.251c-0.857-0.835-1.286-2.4-1.286-4.704L38.393,35.219
		L38.393,35.219z M44.254,49.705h19.323V33.766H44.254V49.705z"/>
	<path d="M80.038,54.445V29.263h25.468v4.406H85.898v6.626h10.603v4.597H85.898v9.554H80.038L80.038,54.445z"/>
	<path d="M128.639,33.766v20.681h-5.86V33.766h-11.556v-4.502h29.019v4.502H128.639z"/>
	<path d="M148.506,54.445V29.263h5.86v20.442h18.895v4.74H148.506z"/>
	<path d="M179.986,54.445l14.248-25.182h5.646l14.439,25.182h-6.576l-3.026-5.502h-15.961l-2.93,5.502H179.986z M191.256,44.391
		h11.032l-5.432-10.244L191.256,44.391z"/>
	<path d="M226.185,54.445V43.177l-13.08-13.914h7.813l8.648,9.673l8.672-9.673h6.887l-13.032,13.768v11.414H226.185z"/>
	<path d="M285.309,54.445V29.263h21.538c2.002,0,3.45,0.385,4.348,1.154c0.897,0.771,1.346,2.013,1.346,3.729v5.908
		c0,1.7-0.448,2.938-1.346,3.717c-0.897,0.779-2.346,1.17-4.348,1.17h-3.288l11.625,9.504h-8.409l-10.148-9.504h-5.551v9.504
		H285.309z M304.25,33.622h-13.174v7.006h13.174c1.017,0,1.711-0.146,2.083-0.441c0.374-0.294,0.561-0.813,0.561-1.56V35.6
		c0-0.73-0.187-1.242-0.561-1.535C305.961,33.771,305.267,33.622,304.25,33.622z"/>
</g>
<rect x="251.35" y="29.263" fill="#A91E23" width="25.612" height="4.664"/>
<rect x="251.35" y="39.521" width="25.612" height="4.665"/>
<rect x="251.35" y="49.781" fill="#A91E23" width="25.612" height="4.665"/>
<g>
	<path d="M11.049,3.776c0,1.245-0.425,2.202-1.274,2.872C8.926,7.318,7.71,7.653,6.129,7.653H4.683v4.836h-1.43V0.193H6.44
		C9.513,0.193,11.049,1.388,11.049,3.776z M4.683,6.425H5.97c1.267,0,2.184-0.205,2.75-0.614s0.849-1.065,0.849-1.968
		c0-0.813-0.266-1.418-0.799-1.816C8.237,1.629,7.408,1.43,6.281,1.43H4.683V6.425z"/>
	<path d="M24.295,6.325c0,1.968-0.498,3.515-1.493,4.642s-2.378,1.69-4.15,1.69c-1.811,0-3.208-0.553-4.192-1.661
		s-1.476-2.67-1.476-4.689c0-2.001,0.493-3.553,1.48-4.655C15.45,0.551,16.852,0,18.669,0c1.766,0,3.145,0.561,4.138,1.682
		C23.799,2.804,24.295,4.351,24.295,6.325z M14.497,6.325c0,1.665,0.355,2.928,1.064,3.789c0.709,0.861,1.74,1.291,3.091,1.291
		c1.362,0,2.392-0.429,3.086-1.287c0.695-0.858,1.043-2.122,1.043-3.793c0-1.654-0.346-2.909-1.039-3.764s-1.717-1.283-3.074-1.283
		c-1.363,0-2.398,0.43-3.108,1.291C14.852,3.43,14.497,4.682,14.497,6.325z"/>
	<path d="M37.769,12.489h-1.413l-2.481-8.234c-0.118-0.364-0.25-0.824-0.395-1.379c-0.146-0.555-0.222-0.889-0.227-1.001
		c-0.124,0.74-0.32,1.55-0.589,2.431l-2.405,8.183h-1.413L25.574,0.193h1.514l1.943,7.595c0.269,1.065,0.465,2.03,0.589,2.893
		c0.151-1.026,0.375-2.03,0.673-3.011l2.204-7.477h1.514l2.313,7.544c0.269,0.869,0.496,1.851,0.681,2.944
		c0.106-0.796,0.308-1.766,0.605-2.91l1.935-7.578h1.514L37.769,12.489z"/>
	<path d="M49.837,12.489h-6.854V0.193h6.854v1.27h-5.425v3.961h5.097v1.261h-5.097v4.525h5.425V12.489z"/>
	<path d="M53.992,7.376v5.113h-1.43V0.193h3.373c1.508,0,2.623,0.289,3.343,0.866c0.72,0.578,1.081,1.447,1.081,2.607
		c0,1.626-0.824,2.725-2.473,3.297l3.339,5.525h-1.69l-2.977-5.113H53.992z M53.992,6.148h1.959c1.009,0,1.75-0.2,2.221-0.602
		c0.471-0.4,0.706-1.002,0.706-1.804c0-0.813-0.239-1.399-0.719-1.758s-1.249-0.538-2.309-0.538h-1.859V6.148z"/>
	<path d="M70.064,12.489h-6.854V0.193h6.854v1.27h-5.425v3.961h5.097v1.261h-5.097v4.525h5.425V12.489z"/>
	<path d="M82.604,6.224c0,2.03-0.551,3.582-1.653,4.655c-1.102,1.074-2.687,1.61-4.756,1.61h-3.406V0.193h3.768
		c1.912,0,3.397,0.53,4.457,1.59C82.074,2.843,82.604,4.323,82.604,6.224z M81.089,6.274c0-1.604-0.402-2.812-1.207-3.625
		c-0.805-0.813-2-1.22-3.587-1.22h-2.078v9.823h1.741c1.704,0,2.985-0.419,3.843-1.257C80.661,9.158,81.089,7.917,81.089,6.274z"/>
	<path d="M89.819,0.193h3.474c1.631,0,2.812,0.244,3.541,0.732s1.093,1.259,1.093,2.313c0,0.729-0.203,1.331-0.61,1.804
		c-0.406,0.474-1,0.781-1.778,0.921v0.084c1.867,0.32,2.8,1.301,2.8,2.944c0,1.099-0.372,1.957-1.114,2.573
		c-0.743,0.617-1.782,0.925-3.116,0.925h-4.289V0.193z M91.249,5.458h2.355c1.009,0,1.735-0.159,2.178-0.476
		c0.443-0.316,0.665-0.851,0.665-1.602c0-0.689-0.247-1.187-0.74-1.493c-0.494-0.306-1.278-0.458-2.355-0.458h-2.103V5.458z
		 M91.249,6.669v4.6h2.565c0.992,0,1.739-0.192,2.241-0.576c0.501-0.384,0.752-0.985,0.752-1.804c0-0.762-0.256-1.323-0.77-1.682
		c-0.513-0.359-1.293-0.538-2.342-0.538H91.249z"/>
	<path d="M104.108,6.341l3.28-6.148h1.547l-4.104,7.527v4.769h-1.447V7.788L99.29,0.193h1.564L104.108,6.341z"/>
</g>
</svg>
