<?xml version="1.0" encoding="utf-8"?>
<!-- Generator: Adobe Illustrator 15.1.0, SVG Export Plug-In . SVG Version: 6.00 Build 0)  -->
<!DOCTYPE svg PUBLIC "-//W3C//DTD SVG 1.1//EN" "http://www.w3.org/Graphics/SVG/1.1/DTD/svg11.dtd">
<svg version="1.1" id="Layer_1" xmlns="http://www.w3.org/2000/svg" xmlns:xlink="http://www.w3.org/1999/xlink" x="0px" y="0px"
	 width="174.01px" height="50.99px" viewBox="0 0 174.01 50.99" enable-background="new 0 0 174.01 50.99" xml:space="preserve">
<polygon fill="#00749A" points="27.83,7.648 146.014,7.648 146.014,43.342 27.83,43.342 "/>
<g>
	<path fill="#FFFFFF" d="M95.53,23.124h-3.866v0.41c1.209,0,1.403,0.26,1.403,1.793v2.765c0,1.532-0.194,1.815-1.403,1.815
		c-0.929-0.131-1.556-0.627-2.42-1.577l-0.994-1.08c1.34-0.238,2.053-1.081,2.053-2.031c0-1.188-1.015-2.096-2.916-2.096h-3.802
		v0.41c1.209,0,1.404,0.26,1.404,1.793v2.765c0,1.532-0.195,1.815-1.404,1.815v0.41h4.298v-0.41c-1.209,0-1.403-0.281-1.403-1.815
		v-0.778h0.367l2.397,3.004h6.286c3.089,0,4.428-1.643,4.428-3.607C99.958,24.745,98.619,23.124,95.53,23.124z M86.479,26.645
		v-2.872h0.887c0.97,0,1.403,0.669,1.403,1.447c0,0.756-0.433,1.425-1.403,1.425H86.479L86.479,26.645z M95.595,29.648h-0.15
		c-0.778,0-0.887-0.194-0.887-1.188v-4.688c0,0,0.951,0,1.037,0c2.246,0,2.656,1.641,2.656,2.916
		C98.251,28.007,97.841,29.648,95.595,29.648z"/>
	<path fill="#FFFFFF" d="M40.151,25.495c0,3.779,2.197,7.045,5.382,8.593l-4.554-12.48C40.449,22.796,40.151,24.111,40.151,25.495z
		 M56.146,25.014c0-1.181-0.423-1.998-0.787-2.634c-0.484-0.787-0.938-1.452-0.938-2.24c0-0.877,0.666-1.694,1.604-1.694
		c0.043,0,0.083,0.005,0.124,0.008c-1.699-1.558-3.962-2.508-6.448-2.508c-3.336,0-6.271,1.711-7.978,4.304
		c0.224,0.007,0.436,0.012,0.614,0.012c0.999,0,2.545-0.122,2.545-0.122c0.515-0.03,0.576,0.727,0.061,0.788
		c0,0-0.517,0.06-1.093,0.09l3.478,10.343l2.09-6.268l-1.488-4.076c-0.515-0.03-1.001-0.09-1.001-0.09
		c-0.515-0.031-0.455-0.818,0.061-0.788c0,0,1.576,0.122,2.514,0.122c0.999,0,2.545-0.122,2.545-0.122
		c0.514-0.03,0.574,0.727,0.06,0.788c0,0-0.518,0.06-1.093,0.09l3.451,10.264l0.953-3.182
		C55.904,26.858,56.146,25.831,56.146,25.014z M49.868,26.33l-2.866,8.326c0.857,0.251,1.761,0.389,2.698,0.389
		c1.112,0,2.178-0.191,3.172-0.541c-0.026-0.041-0.049-0.084-0.068-0.132L49.868,26.33z M58.079,20.915
		c0.042,0.303,0.064,0.63,0.064,0.982c0,0.968-0.181,2.058-0.727,3.42l-2.916,8.432c2.838-1.655,4.748-4.732,4.748-8.253
		C59.25,23.835,58.825,22.274,58.079,20.915z"/>
	<path fill="#FFFFFF" d="M38.57,25.495c0,6.138,4.993,11.13,11.13,11.13c6.139,0,11.131-4.992,11.131-11.13
		S55.839,14.364,49.7,14.364C43.563,14.364,38.57,19.357,38.57,25.495z M39.081,25.495c0-5.855,4.764-10.62,10.62-10.62
		c5.857,0,10.621,4.765,10.621,10.62S55.557,36.116,49.7,36.116C43.845,36.116,39.081,31.351,39.081,25.495z"/>
	<path fill="#FFFFFF" d="M71.551,27.444l1.49-4.407c0.433-1.274,0.238-1.642-1.144-1.642v-0.432h4.061v0.432
		c-1.361,0-1.685,0.324-2.225,1.901l-2.463,7.387h-0.28l-2.203-6.762l-2.247,6.762h-0.281l-2.397-7.387
		c-0.519-1.577-0.864-1.901-2.118-1.901v-0.432h4.797v0.432c-1.275,0-1.621,0.302-1.167,1.642l1.447,4.407l2.182-6.48h0.411
		L71.551,27.444z"/>
	<path fill="#FFFFFF" d="M78.896,30.599c-2.375,0-4.32-1.75-4.32-3.89c0-2.116,1.945-3.866,4.32-3.866c2.376,0,4.32,1.75,4.32,3.866
		C83.216,28.849,81.272,30.599,78.896,30.599z M78.896,23.513c-1.987,0-2.679,1.793-2.679,3.196c0,1.428,0.691,3.198,2.679,3.198
		c2.01,0,2.701-1.771,2.701-3.198C81.597,25.306,80.906,23.513,78.896,23.513z"/>
	<path fill="#FFFFFF" d="M105.294,29.887v0.432h-4.947v-0.432c1.448,0,1.707-0.367,1.707-2.528v-3.457
		c0-2.16-0.259-2.506-1.707-2.506v-0.432h4.473c2.226,0,3.456,1.146,3.456,2.679c0,1.491-1.231,2.658-3.456,2.658h-1.232v1.058
		C103.587,29.519,103.847,29.887,105.294,29.887z M104.817,21.742h-1.23V25.5h1.23c1.211,0,1.772-0.843,1.772-1.857
		C106.591,22.606,106.029,21.742,104.817,21.742z"/>
	<path fill="#FFFFFF" d="M123.116,28.287l-0.106,0.389c-0.195,0.713-0.434,0.973-1.968,0.973h-0.304
		c-1.122,0-1.316-0.26-1.316-1.794v-0.993c1.686,0,1.814,0.151,1.814,1.275h0.41v-3.219h-0.41c0,1.124-0.129,1.274-1.814,1.274
		v-2.419h1.188c1.533,0,1.771,0.259,1.967,0.972l0.106,0.41h0.346l-0.15-2.031h-6.351v0.41c1.209,0,1.404,0.26,1.404,1.793v2.765
		c0,1.403-0.165,1.756-1.119,1.807c-0.907-0.138-1.53-0.632-2.381-1.568l-0.994-1.08c1.34-0.238,2.053-1.081,2.053-2.031
		c0-1.188-1.015-2.096-2.916-2.096h-3.803v0.41c1.21,0,1.404,0.26,1.404,1.793v2.765c0,1.532-0.194,1.815-1.404,1.815v0.41h4.3
		v-0.41c-1.211,0-1.404-0.281-1.404-1.815v-0.778h0.366l2.398,3.004h8.879l0.13-2.031H123.116L123.116,28.287z M111.667,26.645
		v-2.872h0.886c0.972,0,1.404,0.669,1.404,1.447c0,0.756-0.433,1.425-1.404,1.425H111.667L111.667,26.645z"/>
	<path fill="#FFFFFF" d="M127.502,30.599c-0.864,0-1.62-0.454-1.944-0.735c-0.107,0.108-0.302,0.434-0.345,0.735h-0.411v-2.981
		h0.433c0.172,1.426,1.166,2.268,2.44,2.268c0.69,0,1.253-0.389,1.253-1.036c0-0.562-0.498-0.994-1.383-1.404l-1.232-0.583
		c-0.863-0.41-1.512-1.124-1.512-2.074c0-1.037,0.973-1.923,2.312-1.923c0.714,0,1.317,0.259,1.686,0.562
		c0.107-0.086,0.217-0.324,0.28-0.583h0.41v2.549h-0.453c-0.15-1.015-0.713-1.858-1.857-1.858c-0.605,0-1.166,0.346-1.166,0.886
		c0,0.563,0.453,0.864,1.49,1.34l1.188,0.583c1.037,0.496,1.447,1.296,1.447,1.944C130.137,29.648,128.948,30.599,127.502,30.599z"
		/>
	<path fill="#FFFFFF" d="M134.155,30.599c-0.865,0-1.62-0.454-1.945-0.735c-0.107,0.108-0.303,0.434-0.345,0.735h-0.41v-2.981h0.432
		c0.172,1.426,1.166,2.268,2.44,2.268c0.691,0,1.252-0.389,1.252-1.036c0-0.562-0.496-0.994-1.382-1.404l-1.231-0.583
		c-0.864-0.41-1.512-1.124-1.512-2.074c0-1.037,0.973-1.923,2.312-1.923c0.713,0,1.317,0.259,1.685,0.562
		c0.107-0.086,0.216-0.324,0.281-0.583h0.41v2.549h-0.453c-0.152-1.015-0.713-1.858-1.857-1.858c-0.605,0-1.168,0.346-1.168,0.886
		c0,0.563,0.454,0.864,1.492,1.34l1.187,0.583c1.037,0.496,1.447,1.296,1.447,1.944C136.79,29.648,135.603,30.599,134.155,30.599z"
		/>
</g>
</svg>
