<?xml version="1.0" encoding="utf-8"?>
<!-- Generator: Adobe Illustrator 15.1.0, SVG Export Plug-In . SVG Version: 6.00 Build 0)  -->
<!DOCTYPE svg PUBLIC "-//W3C//DTD SVG 1.1//EN" "http://www.w3.org/Graphics/SVG/1.1/DTD/svg11.dtd">
<svg version="1.1" id="svg2346" xmlns:svg="http://www.w3.org/2000/svg"
	 xmlns="http://www.w3.org/2000/svg" xmlns:xlink="http://www.w3.org/1999/xlink" x="0px" y="0px" width="1015.823px"
	 height="537.513px" viewBox="-71.115 -98.697 1015.823 537.513" enable-background="new -71.115 -98.697 1015.823 537.513"
	 xml:space="preserve">
<path id="path7533" fill="#E1E1E1" stroke="#A2A2A2" stroke-width="116" stroke-linejoin="round" d="M411.785,170.06
	c0,104.758-84.838,189.681-189.491,189.681c-104.653,0-189.491-84.923-189.491-189.681S117.641-19.621,222.294-19.621
	C326.947-19.621,411.785,65.302,411.785,170.06z"/>
<path id="flowRoot2311" d="M73.98,60.013c0.152-0.057,92.385,113.673,92.377,113.695c0.306,0.217-168.849,132.112-169.084,132.096
	c-0.156,0.077,132.335,0.086,132.41,0c0.102,0.066,87.833-69.499,87.964-69.419c0.133-0.034,46.762,69.398,46.735,69.419
	c0.042,0.113,117.114,0.225,117.157,0c0.111-0.222-93.341-119.61-93.288-119.615c0.498-0.179,164.188-126.206,164.073-126.176
	c-0.063,0.017-133.498,0.02-133.463,0c0.054-0.03-81.248,64.608-81.263,64.227c0.127,0.125-48.192-64.227-48.192-64.227
	C189.345,60.013,74.001,60.009,73.98,60.013L73.98,60.013z M481.238,112.607c-10.829,0.001-20.527,0.436-30.281,1.429
	c-7.614,0.707-14.881,1.758-21.773,3.188c-6.995,2.41-14.988,3.096-23.14,6.559c-27.713,8.915-52.609,31.553-59.489,60.037
	c-1.853,7.676-3.795,17.354-2.277,26.875c1.693,17.985,17.975,33.17,35.438,39.174c6.062,2.346,16.105,5.025,22.685,6.012
	c9.176,1.377,18.767,2.419,29.061,3.189c9.584,0.718,21.266,1.108,31.521,0.455c9.687-0.617,20.96-1.406,30.428-3.188
	c7.444-1.401,16.158-2.82,23.595-5.01c18.441-5.434,43.734-15.378,50.196-36.988c-28.605,0-57.211,0-85.817,0
	c-3.727,9.041-14.724,14.36-23.14,15.214c-10.541,1.07-25.967,0.743-29.062-12.481c-1.673-7.144-1.194-11.615,0.228-19.319
	c0.044,0.042,144.382,0,144.351,0c3.103-10.508,4.222-19.769,4.1-29.699c-0.019-13.405-8.507-29.001-21.136-37.898
	c-12.138-7.783-26.312-11.826-38.354-14.303c-9.254-1.625-19.155-2.604-29.448-3.188c-2.635-0.044-5.189-0.063-7.687-0.063V112.607z
	 M762.483,112.629c-8.244,0.043-16.693,0.792-23.544,1.925c-15.424,2.551-35.495,12.239-50.294,27.119
	c-0.065-0.269,4.314-24.545,4.316-24.529c0.021,0.209-86.521,0.021-86.495,0c0.164-0.147-29.718,137.091-29.961,136.925
	c0,0,87.845,0,87.811,0c3.435-16.094,7.263-32.115,11.114-48.112c4.354-15.165,4.203-33.538,18.402-44.73
	c7.707-6.077,17.899-6.27,25.873-6.104c11.828,0.246,15.961,13.091,13.847,21.773c-6.19,25.425-17.529,77.226-17.49,77.174
	c0.06,0,87.68,0,87.673,0c0.042,0.082,14.409-58.115,20.372-87.377c2.637-12.934,0.864-29.021-10.283-39.202
	c-11.118-10.155-25.155-12.889-38.809-14.303C771.066,112.779,766.804,112.607,762.483,112.629L762.483,112.629z M835.786,113.398
	v3.553h11.081v27.661h4.241v-27.661h11.08v-3.553H835.786L835.786,113.398z M866.288,113.398v31.213h4.094v-27.41l8.052,21.409
	h4.242l8.052-21.409v27.41h4.115v-31.213h-6.292l-8.006,21.238l-7.966-21.238H866.288z M471.369,141.901
	c6.514-0.013,13.165,1.66,18.397,5.478c6.254,7.241,5.459,15.061,3.644,23.049c-0.044,0-57.21,0.578-57.212,0.547
	c2.252-10.719,8.993-21.063,19.313-25.417C459.979,143.237,465.622,141.913,471.369,141.901z"/>
</svg>
