<?xml version="1.0" encoding="utf-8"?>
<!-- Generator: Adobe Illustrator 18.0.0, SVG Export Plug-In . SVG Version: 6.00 Build 0)  -->
<!DOCTYPE svg PUBLIC "-//W3C//DTD SVG 1.1//EN" "http://www.w3.org/Graphics/SVG/1.1/DTD/svg11.dtd">
<svg version="1.1" id="Layer_1" xmlns="http://www.w3.org/2000/svg" xmlns:xlink="http://www.w3.org/1999/xlink" x="0px" y="0px"
	 viewBox="0 0 229 229" enable-background="new 0 0 229 229" xml:space="preserve">
<g>
	<circle fill="none" stroke="#DA4A36" stroke-width="4" stroke-miterlimit="10" cx="114.5" cy="114.5" r="110"/>
</g>
<g>
	<path fill="#DA4A36" d="M58.7,93.7c1.7,1.2,6.8,4.8,15.4,10.7c8.6,5.9,15.1,10.5,19.7,13.7c0.5,0.4,1.6,1.1,3.2,2.3
		c1.7,1.2,2.9,2.1,4.1,2.9c1.1,0.7,2.4,1.6,3.9,2.4c1.6,0.9,2.9,1.6,4.3,2c1.4,0.5,2.6,0.6,3.8,0.6h0.1h0.1c1.1,0,2.4-0.2,3.8-0.6
		c1.4-0.5,2.8-1.1,4.3-2c1.6-0.9,2.9-1.7,3.9-2.4s2.4-1.7,4.1-2.9c1.7-1.2,2.7-1.9,3.2-2.3c4.6-3.2,16.3-11.3,35.1-24.4
		c3.7-2.6,6.7-5.6,9.1-9.2c2.5-3.6,3.7-7.4,3.7-11.3c0-3.3-1.2-6.2-3.6-8.5c-2.4-2.3-5.2-3.5-8.5-3.5H57.8c-3.9,0-6.8,1.3-8.9,3.9
		c-2.1,2.6-3.1,5.9-3.1,9.8c0,3.1,1.4,6.5,4.1,10.2C52.6,88.8,55.6,91.6,58.7,93.7z"/>
	<path fill="#DA4A36" d="M172.8,101.8c-16.4,11.1-28.8,19.7-37.4,25.9c-2.9,2.1-5.2,3.8-6.9,4.9c-1.7,1.2-4.1,2.4-7.1,3.6
		s-5.7,1.8-8.3,1.8H113h-0.1c-2.6,0-5.3-0.6-8.3-1.8s-5.3-2.4-7.1-3.6s-4.1-2.9-6.9-4.9c-6.7-5-19.1-13.5-37.3-25.9
		c-2.9-1.9-5.3-4.1-7.5-6.5v59.6c0,3.3,1.2,6.2,3.5,8.5c2.4,2.4,5.2,3.5,8.5,3.5h110.5c3.3,0,6.2-1.2,8.5-3.5
		c2.4-2.4,3.5-5.2,3.5-8.5V95.2C178.1,97.6,175.5,99.8,172.8,101.8z"/>
</g>
</svg>
