<?xml version="1.0" encoding="utf-8"?>
<!-- Generator: Adobe Illustrator 18.0.0, SVG Export Plug-In . SVG Version: 6.00 Build 0)  -->
<!DOCTYPE svg PUBLIC "-//W3C//DTD SVG 1.1//EN" "http://www.w3.org/Graphics/SVG/1.1/DTD/svg11.dtd">
<svg version="1.1" id="Layer_1" xmlns="http://www.w3.org/2000/svg" xmlns:xlink="http://www.w3.org/1999/xlink" x="0px" y="0px"
	 viewBox="0 377.6 612 36.7" enable-background="new 0 377.6 612 36.7" xml:space="preserve">
<g>
	<polygon fill="#2B3D4E" points="966.1,1323.8 361.8,1323.8 369.6,1287.1 973.8,1287.1 	"/>
	<g>
		<text transform="matrix(1 0 0 1 394.9532 1311.7129)" fill="#FFFFFF" font-family="'Museo-300'" font-size="19.227">Utilize todas as ferramentas disponíveis, queremos ouvir você!</text>
	</g>
</g>
<g>
	<g>
		<polygon fill="#2B3D4E" points="604.3,414.4 0,414.4 7.8,377.6 612,377.6 		"/>
	</g>
	<g>
		<g enable-background="new    ">
			<path fill="#FFFFFF" d="M36.1,390.7c0-0.3-0.2-0.4-0.4-0.4h-0.8v-1.2h1.4c0.8,0,1.2,0.3,1.2,1.2v7.7c0,2.3,1.4,3.7,3.6,3.7
				s3.7-1.4,3.7-3.7v-7.6c0-0.8,0.3-1.2,1.2-1.2h1.4v1.2h-0.8c-0.3,0-0.4,0.1-0.4,0.4v7.3c0,2.9-2,4.9-5,4.9c-3,0-5-1.9-5-4.9V390.7
				z"/>
			<path fill="#FFFFFF" d="M49.8,394.1h-1.3V393h1.3v-2.7h1.3v2.7h2.4v1.1h-2.4v4.9c0,2.3,1.4,2.6,2.2,2.6c0.3,0,0.4,0,0.4,0v1.2
				c0,0-0.2,0-0.6,0c-1.1,0-3.4-0.4-3.4-3.6V394.1z"/>
			<path fill="#FFFFFF" d="M56.2,394.5c0-0.3-0.2-0.4-0.4-0.4H55V393h1.4c0.8,0,1.2,0.3,1.2,1.2v6.9c0,0.3,0.2,0.4,0.4,0.4h0.8v1.1
				h-1.4c-0.8,0-1.2-0.3-1.2-1.2V394.5z M56.1,389.1h1.3v1.7h-1.3V389.1z"/>
			<path fill="#FFFFFF" d="M60.9,390.7c0-0.3-0.2-0.4-0.4-0.4h-0.8v-1.1H61c0.8,0,1.2,0.3,1.2,1.2v10.8c0,0.3,0.2,0.4,0.4,0.4h0.8
				v1.1h-1.4c-0.8,0-1.2-0.3-1.2-1.2V390.7z"/>
			<path fill="#FFFFFF" d="M65.7,394.5c0-0.3-0.2-0.4-0.4-0.4h-0.8V393h1.4c0.8,0,1.2,0.3,1.2,1.2v6.9c0,0.3,0.2,0.4,0.4,0.4h0.8
				v1.1h-1.4c-0.8,0-1.2-0.3-1.2-1.2V394.5z M65.7,389.1H67v1.7h-1.3V389.1z"/>
			<path fill="#FFFFFF" d="M69.5,401.8L75,395c0.4-0.5,0.8-0.9,0.8-0.9v0c0,0-0.3,0-1,0h-3.5c-0.3,0-0.4,0.1-0.4,0.4v0.8h-1.2v-1.2
				c0-0.8,0.3-1.2,1.2-1.2h6.7v0.9l-5.4,6.8c-0.4,0.5-0.8,0.9-0.8,0.9v0c0,0,0.3,0,1,0h4c0.3,0,0.4-0.1,0.4-0.4v-0.8h1.2v1.2
				c0,0.8-0.3,1.2-1.2,1.2h-7.2V401.8z"/>
			<path fill="#FFFFFF" d="M83.7,392.7c2.7,0,4.1,2.1,4.1,4.5c0,0.2,0,0.7,0,0.7h-7.4c0,2.4,1.7,3.8,3.7,3.8c1.8,0,2.9-1.2,2.9-1.2
				l0.6,1c0,0-1.4,1.4-3.6,1.4c-2.9,0-5.1-2.1-5.1-5.1C78.9,394.6,81.1,392.7,83.7,392.7z M86.4,396.8c-0.1-2-1.3-3-2.7-3
				c-1.6,0-3,1-3.3,3H86.4z"/>
			<path fill="#FFFFFF" d="M95.7,394.1h-1.3V393h1.3v-2.7H97v2.7h2.4v1.1H97v4.9c0,2.3,1.4,2.6,2.2,2.6c0.3,0,0.4,0,0.4,0v1.2
				c0,0-0.2,0-0.6,0c-1.1,0-3.4-0.4-3.4-3.6V394.1z"/>
			<path fill="#FFFFFF" d="M106.1,392.7c2.8,0,5.1,2.2,5.1,5c0,2.9-2.3,5.1-5.1,5.1c-2.8,0-5.1-2.2-5.1-5.1
				C101,394.9,103.3,392.7,106.1,392.7z M106.1,401.7c2.1,0,3.7-1.7,3.7-3.9c0-2.2-1.7-3.8-3.7-3.8c-2.1,0-3.8,1.6-3.8,3.8
				C102.3,400,104,401.7,106.1,401.7z"/>
			<path fill="#FFFFFF" d="M117.1,392.7c2.3,0,3.2,1.8,3.2,1.8h0c0,0,0-0.3,0-0.7v-3.1c0-0.3-0.2-0.4-0.4-0.4H119v-1.1h1.4
				c0.8,0,1.2,0.3,1.2,1.2v10.8c0,0.3,0.2,0.4,0.4,0.4h0.8v1.1h-1.3c-0.8,0-1.2-0.4-1.2-1.1c0-0.4,0-0.6,0-0.6h0
				c0,0-0.8,1.9-3.3,1.9c-2.6,0-4.2-2.1-4.2-5.1C112.7,394.7,114.6,392.7,117.1,392.7z M120.3,397.8c0-2-1-3.9-3.1-3.9
				c-1.7,0-3.1,1.4-3.1,3.9c0,2.4,1.2,3.9,3.1,3.9C118.8,401.7,120.3,400.5,120.3,397.8z"/>
			<path fill="#FFFFFF" d="M129.9,396.7h0.5v-0.1c0-2-0.7-2.7-2.5-2.7c-0.5,0-1.9,0.1-1.9,0.8v0.6h-1.3v-0.9c0-1.3,2.3-1.6,3.2-1.6
				c3.1,0,3.8,1.6,3.8,3.7v4.6c0,0.3,0.2,0.4,0.4,0.4h0.8v1.1h-1.3c-0.8,0-1.2-0.4-1.2-1.2c0-0.4,0-0.7,0-0.7h0c0,0-0.8,2.1-3.2,2.1
				c-1.6,0-3.3-0.9-3.3-2.9C124,396.8,128.3,396.7,129.9,396.7z M127.5,401.8c1.8,0,3-1.9,3-3.6v-0.4h-0.6c-1.5,0-4.6,0-4.6,2.2
				C125.4,400.8,126.1,401.8,127.5,401.8z"/>
			<path fill="#FFFFFF" d="M134.7,400.3c0,0,1.1,1.5,3,1.5c1.1,0,2-0.5,2-1.5c0-2.1-5.4-1.7-5.4-4.8c0-1.7,1.5-2.6,3.4-2.6
				c1,0,2.9,0.4,2.9,1.7v0.8h-1.2v-0.5c0-0.7-1-1-1.7-1c-1.3,0-2.2,0.5-2.2,1.4c0,2.2,5.4,1.7,5.4,4.9c0,1.6-1.5,2.7-3.4,2.7
				c-2.5,0-3.7-1.7-3.7-1.7L134.7,400.3z"/>
			<path fill="#FFFFFF" d="M153.8,396.7h0.5v-0.1c0-2-0.7-2.7-2.5-2.7c-0.5,0-1.9,0.1-1.9,0.8v0.6h-1.3v-0.9c0-1.3,2.3-1.6,3.2-1.6
				c3.1,0,3.8,1.6,3.8,3.7v4.6c0,0.3,0.2,0.4,0.4,0.4h0.8v1.1h-1.3c-0.8,0-1.2-0.4-1.2-1.2c0-0.4,0-0.7,0-0.7h0c0,0-0.8,2.1-3.2,2.1
				c-1.6,0-3.3-0.9-3.3-2.9C147.9,396.8,152.1,396.7,153.8,396.7z M151.4,401.8c1.8,0,3-1.9,3-3.6v-0.4h-0.6c-1.5,0-4.6,0-4.6,2.2
				C149.2,400.8,149.9,401.8,151.4,401.8z"/>
			<path fill="#FFFFFF" d="M158.6,400.3c0,0,1.1,1.5,3,1.5c1.1,0,2-0.5,2-1.5c0-2.1-5.4-1.7-5.4-4.8c0-1.7,1.5-2.6,3.4-2.6
				c1,0,2.9,0.4,2.9,1.7v0.8h-1.2v-0.5c0-0.7-1-1-1.7-1c-1.3,0-2.2,0.5-2.2,1.4c0,2.2,5.4,1.7,5.4,4.9c0,1.6-1.5,2.7-3.4,2.7
				c-2.5,0-3.7-1.7-3.7-1.7L158.6,400.3z"/>
			<path fill="#FFFFFF" d="M172.7,394.1h-1.2V393h1.2v-0.3c0-3.2,2.2-3.6,3.3-3.6c0.4,0,0.6,0,0.6,0v1.2c0,0-0.2,0-0.5,0
				c-0.7,0-2.2,0.3-2.2,2.4v0.3h2.5v1.1H174v8.6h-1.3V394.1z"/>
			<path fill="#FFFFFF" d="M181.9,392.7c2.7,0,4.1,2.1,4.1,4.5c0,0.2,0,0.7,0,0.7h-7.4c0,2.4,1.7,3.8,3.7,3.8c1.8,0,2.9-1.2,2.9-1.2
				l0.6,1c0,0-1.4,1.4-3.6,1.4c-2.9,0-5.1-2.1-5.1-5.1C177.2,394.6,179.3,392.7,181.9,392.7z M184.6,396.8c-0.1-2-1.3-3-2.7-3
				c-1.6,0-3,1-3.3,3H184.6z"/>
			<path fill="#FFFFFF" d="M188.6,394.5c0-0.3-0.2-0.4-0.4-0.4h-0.8V393h1.3c0.8,0,1.2,0.3,1.2,1.1v0.7c0,0.4,0,0.7,0,0.7h0
				c0.5-1.5,1.5-2.6,3.1-2.6c0.3,0,0.5,0.1,0.5,0.1v1.3c0,0-0.2,0-0.5,0c-1.4,0-2.4,1.1-2.8,2.5c-0.2,0.6-0.3,1.3-0.3,1.9v4.1h-1.3
				V394.5z"/>
			<path fill="#FFFFFF" d="M195.7,394.5c0-0.3-0.2-0.4-0.4-0.4h-0.8V393h1.3c0.8,0,1.2,0.3,1.2,1.1v0.7c0,0.4,0,0.7,0,0.7h0
				c0.5-1.5,1.5-2.6,3.1-2.6c0.3,0,0.5,0.1,0.5,0.1v1.3c0,0-0.2,0-0.5,0c-1.4,0-2.4,1.1-2.8,2.5c-0.2,0.6-0.3,1.3-0.3,1.9v4.1h-1.3
				V394.5z"/>
			<path fill="#FFFFFF" d="M207,396.7h0.5v-0.1c0-2-0.7-2.7-2.5-2.7c-0.5,0-1.9,0.1-1.9,0.8v0.6h-1.3v-0.9c0-1.3,2.3-1.6,3.2-1.6
				c3.1,0,3.8,1.6,3.8,3.7v4.6c0,0.3,0.2,0.4,0.4,0.4h0.8v1.1h-1.3c-0.8,0-1.2-0.4-1.2-1.2c0-0.4,0-0.7,0-0.7h0c0,0-0.8,2.1-3.2,2.1
				c-1.6,0-3.3-0.9-3.3-2.9C201.1,396.8,205.4,396.7,207,396.7z M204.6,401.8c1.8,0,3-1.9,3-3.6v-0.4H207c-1.5,0-4.6,0-4.6,2.2
				C202.5,400.8,203.2,401.8,204.6,401.8z"/>
			<path fill="#FFFFFF" d="M212.2,394.5c0-0.3-0.2-0.4-0.4-0.4H211V393h1.3c0.8,0,1.2,0.3,1.2,1.1v0.4c0,0.4,0,0.7,0,0.7h0
				c0.5-1.3,2-2.4,3.5-2.4c1.8,0,2.7,0.8,3,2.4h0c0.5-1.3,1.9-2.4,3.6-2.4c2.3,0,3.2,1.4,3.2,3.7v4.6c0,0.3,0.2,0.4,0.4,0.4h0.8v1.1
				h-1.4c-0.8,0-1.2-0.3-1.2-1.2v-4.7c0-1.6-0.3-2.9-2.1-2.9c-1.5,0-2.7,1.3-3.1,2.7c-0.1,0.4-0.2,0.9-0.2,1.4v4.6h-1.3v-5.8
				c0-1.5-0.2-2.9-2-2.9c-1.6,0-2.7,1.4-3.2,2.8c-0.1,0.4-0.2,0.8-0.2,1.3v4.6h-1.3V394.5z"/>
			<path fill="#FFFFFF" d="M234,392.7c2.7,0,4.1,2.1,4.1,4.5c0,0.2,0,0.7,0,0.7h-7.4c0,2.4,1.7,3.8,3.7,3.8c1.8,0,2.9-1.2,2.9-1.2
				l0.6,1c0,0-1.4,1.4-3.6,1.4c-2.9,0-5.1-2.1-5.1-5.1C229.2,394.6,231.4,392.7,234,392.7z M236.7,396.8c-0.1-2-1.3-3-2.7-3
				c-1.6,0-3,1-3.3,3H236.7z"/>
			<path fill="#FFFFFF" d="M240.6,394.5c0-0.3-0.2-0.4-0.4-0.4h-0.8V393h1.3c0.8,0,1.2,0.3,1.2,1.1v0.4c0,0.4,0,0.7,0,0.7h0
				c0.3-0.9,1.6-2.4,3.8-2.4c2.4,0,3.2,1.4,3.2,3.7v4.6c0,0.3,0.2,0.4,0.4,0.4h0.8v1.1h-1.4c-0.8,0-1.2-0.3-1.2-1.2v-4.6
				c0-1.5-0.2-2.9-2.1-2.9c-1.7,0-3.1,1.1-3.5,2.7c-0.1,0.4-0.2,0.8-0.2,1.3v4.6h-1.3V394.5z"/>
			<path fill="#FFFFFF" d="M252.4,394.1h-1.3V393h1.3v-2.7h1.3v2.7h2.4v1.1h-2.4v4.9c0,2.3,1.4,2.6,2.2,2.6c0.3,0,0.4,0,0.4,0v1.2
				c0,0-0.2,0-0.6,0c-1.1,0-3.4-0.4-3.4-3.6V394.1z"/>
			<path fill="#FFFFFF" d="M263.6,396.7h0.5v-0.1c0-2-0.7-2.7-2.5-2.7c-0.5,0-1.9,0.1-1.9,0.8v0.6h-1.3v-0.9c0-1.3,2.3-1.6,3.2-1.6
				c3.1,0,3.8,1.6,3.8,3.7v4.6c0,0.3,0.2,0.4,0.4,0.4h0.8v1.1h-1.3c-0.8,0-1.2-0.4-1.2-1.2c0-0.4,0-0.7,0-0.7h0c0,0-0.8,2.1-3.2,2.1
				c-1.6,0-3.3-0.9-3.3-2.9C257.7,396.8,262,396.7,263.6,396.7z M261.2,401.8c1.8,0,3-1.9,3-3.6v-0.4h-0.6c-1.5,0-4.6,0-4.6,2.2
				C259.1,400.8,259.8,401.8,261.2,401.8z"/>
			<path fill="#FFFFFF" d="M268.4,400.3c0,0,1.1,1.5,3,1.5c1.1,0,2-0.5,2-1.5c0-2.1-5.4-1.7-5.4-4.8c0-1.7,1.5-2.6,3.4-2.6
				c1,0,2.9,0.4,2.9,1.7v0.8h-1.2v-0.5c0-0.7-1-1-1.7-1c-1.3,0-2.2,0.5-2.2,1.4c0,2.2,5.4,1.7,5.4,4.9c0,1.6-1.5,2.7-3.4,2.7
				c-2.5,0-3.7-1.7-3.7-1.7L268.4,400.3z"/>
			<path fill="#FFFFFF" d="M286,392.7c2.3,0,3.2,1.8,3.2,1.8h0c0,0,0-0.3,0-0.7v-3.1c0-0.3-0.2-0.4-0.4-0.4h-0.8v-1.1h1.4
				c0.8,0,1.2,0.3,1.2,1.2v10.8c0,0.3,0.2,0.4,0.4,0.4h0.8v1.1h-1.3c-0.8,0-1.2-0.4-1.2-1.1c0-0.4,0-0.6,0-0.6h0
				c0,0-0.8,1.9-3.3,1.9c-2.6,0-4.2-2.1-4.2-5.1C281.6,394.7,283.4,392.7,286,392.7z M289.2,397.8c0-2-1-3.9-3.1-3.9
				c-1.7,0-3.1,1.4-3.1,3.9c0,2.4,1.2,3.9,3.1,3.9C287.6,401.7,289.2,400.5,289.2,397.8z"/>
			<path fill="#FFFFFF" d="M293.9,394.5c0-0.3-0.2-0.4-0.4-0.4h-0.8V393h1.4c0.8,0,1.2,0.3,1.2,1.2v6.9c0,0.3,0.2,0.4,0.4,0.4h0.8
				v1.1h-1.4c-0.8,0-1.2-0.3-1.2-1.2V394.5z M293.8,389.1h1.3v1.7h-1.3V389.1z"/>
			<path fill="#FFFFFF" d="M298.2,400.3c0,0,1.1,1.5,3,1.5c1.1,0,2-0.5,2-1.5c0-2.1-5.4-1.7-5.4-4.8c0-1.7,1.5-2.6,3.4-2.6
				c1,0,2.9,0.4,2.9,1.7v0.8H303v-0.5c0-0.7-1-1-1.7-1c-1.3,0-2.2,0.5-2.2,1.4c0,2.2,5.4,1.7,5.4,4.9c0,1.6-1.5,2.7-3.4,2.7
				c-2.5,0-3.7-1.7-3.7-1.7L298.2,400.3z"/>
			<path fill="#FFFFFF" d="M307.1,394.5c0-0.3-0.2-0.4-0.4-0.4h-0.8V393h1.3c0.8,0,1.2,0.3,1.2,1c0,0.4,0,0.7,0,0.7h0
				c0,0,0.8-1.9,3.3-1.9c2.6,0,4.2,2.1,4.2,5.1c0,3.1-1.8,5.1-4.3,5.1c-2.4,0-3.2-1.8-3.2-1.8h0c0,0,0,0.3,0,0.8v4.6h-1.3V394.5z
				 M311.4,401.7c1.7,0,3.1-1.4,3.1-3.9c0-2.4-1.3-3.9-3.1-3.9c-1.6,0-3.1,1.2-3.1,3.9C308.3,399.8,309.4,401.7,311.4,401.7z"/>
			<path fill="#FFFFFF" d="M322.6,392.7c2.8,0,5.1,2.2,5.1,5c0,2.9-2.3,5.1-5.1,5.1c-2.8,0-5.1-2.2-5.1-5.1
				C317.5,394.9,319.7,392.7,322.6,392.7z M322.6,401.7c2.1,0,3.7-1.7,3.7-3.9c0-2.2-1.7-3.8-3.7-3.8c-2.1,0-3.8,1.6-3.8,3.8
				C318.8,400,320.5,401.7,322.6,401.7z"/>
			<path fill="#FFFFFF" d="M330.1,394.5c0-0.3-0.2-0.4-0.4-0.4h-0.8V393h1.3c0.8,0,1.2,0.3,1.2,1.1v0.4c0,0.4,0,0.7,0,0.7h0
				c0.3-0.9,1.6-2.4,3.8-2.4c2.4,0,3.3,1.4,3.3,3.7v4.6c0,0.3,0.2,0.4,0.4,0.4h0.8v1.1h-1.4c-0.8,0-1.2-0.3-1.2-1.2v-4.6
				c0-1.5-0.2-2.9-2.1-2.9c-1.7,0-3.1,1.1-3.5,2.7c-0.1,0.4-0.2,0.8-0.2,1.3v4.6h-1.3V394.5z"/>
			<path fill="#FFFFFF" d="M341.9,394.5c0-0.3-0.2-0.4-0.4-0.4h-0.8V393h1.4c0.8,0,1.2,0.3,1.2,1.2v6.9c0,0.3,0.2,0.4,0.4,0.4h0.8
				v1.1h-1.4c-0.8,0-1.2-0.3-1.2-1.2V394.5z M343.2,389.1h1.5l-1.7,2.3h-1.1L343.2,389.1z"/>
			<path fill="#FFFFFF" d="M346,394.5c-0.1-0.3-0.3-0.4-0.7-0.4h-0.2V393h0.5c0.9,0,1.2,0.2,1.5,1.1l2.3,6c0.2,0.5,0.3,1.1,0.3,1.1
				h0c0,0,0.2-0.7,0.3-1.1l2.3-6c0.3-0.9,0.6-1.1,1.5-1.1h0.5v1.1h-0.2c-0.3,0-0.6,0.1-0.7,0.4l-3.2,8.1h-1.4L346,394.5z"/>
			<path fill="#FFFFFF" d="M360.2,392.7c2.7,0,4.1,2.1,4.1,4.5c0,0.2,0,0.7,0,0.7h-7.4c0,2.4,1.8,3.8,3.7,3.8c1.8,0,2.9-1.2,2.9-1.2
				l0.6,1c0,0-1.4,1.4-3.6,1.4c-2.9,0-5.1-2.1-5.1-5.1C355.4,394.6,357.6,392.7,360.2,392.7z M362.9,396.8c-0.1-2-1.3-3-2.7-3
				c-1.6,0-3,1-3.3,3H362.9z"/>
			<path fill="#FFFFFF" d="M366.9,394.5c0-0.3-0.2-0.4-0.4-0.4h-0.8V393h1.4c0.8,0,1.2,0.3,1.2,1.2v6.9c0,0.3,0.2,0.4,0.4,0.4h0.8
				v1.1h-1.4c-0.8,0-1.2-0.3-1.2-1.2V394.5z M366.9,389.1h1.3v1.7h-1.3V389.1z"/>
			<path fill="#FFFFFF" d="M371.3,400.3c0,0,1.1,1.5,3,1.5c1.1,0,2-0.5,2-1.5c0-2.1-5.4-1.7-5.4-4.8c0-1.7,1.5-2.6,3.4-2.6
				c1,0,2.9,0.4,2.9,1.7v0.8h-1.2v-0.5c0-0.7-1-1-1.7-1c-1.3,0-2.2,0.5-2.2,1.4c0,2.2,5.4,1.7,5.4,4.9c0,1.6-1.5,2.7-3.4,2.7
				c-2.5,0-3.7-1.7-3.7-1.7L371.3,400.3z"/>
			<path fill="#FFFFFF" d="M381.4,401.1l-1.4,3.4h-1.1l1.1-3.4H381.4z"/>
			<path fill="#FFFFFF" d="M393,392.7c2.4,0,3.2,1.9,3.2,1.9h0c0,0,0-0.3,0-0.6c0-0.7,0.3-1,1.2-1h1.3v1.1h-0.8
				c-0.3,0-0.4,0.2-0.4,0.4v12h-1.3v-4.6c0-0.5,0-0.8,0-0.8h0c0,0-0.8,1.9-3.3,1.9c-2.6,0-4.2-2.1-4.2-5.1
				C388.7,394.7,390.5,392.7,393,392.7z M396.2,397.8c0-2-1-3.9-3.1-3.9c-1.7,0-3.1,1.4-3.1,3.9c0,2.4,1.3,3.9,3.1,3.9
				C394.7,401.7,396.2,400.5,396.2,397.8z"/>
			<path fill="#FFFFFF" d="M400.8,394.5c0-0.3-0.2-0.4-0.4-0.4h-0.8V393h1.4c0.8,0,1.2,0.3,1.2,1.1v4.7c0,1.5,0.3,2.9,2.1,2.9
				c2.2,0,3.6-1.9,3.6-4V393h1.3v8.1c0,0.3,0.2,0.4,0.4,0.4h0.8v1.1H409c-0.8,0-1.2-0.3-1.2-1.1v-0.4c0-0.4,0-0.7,0-0.7h0
				c-0.4,0.9-1.7,2.4-3.8,2.4c-2.3,0-3.3-1.2-3.3-3.7V394.5z"/>
			<path fill="#FFFFFF" d="M416.3,392.7c2.7,0,4.1,2.1,4.1,4.5c0,0.2,0,0.7,0,0.7h-7.4c0,2.4,1.8,3.8,3.7,3.8c1.8,0,2.9-1.2,2.9-1.2
				l0.6,1c0,0-1.4,1.4-3.6,1.4c-2.9,0-5.1-2.1-5.1-5.1C411.5,394.6,413.7,392.7,416.3,392.7z M419,396.8c-0.1-2-1.3-3-2.7-3
				c-1.6,0-3,1-3.3,3H419z"/>
			<path fill="#FFFFFF" d="M422.9,394.5c0-0.3-0.2-0.4-0.4-0.4h-0.8V393h1.3c0.8,0,1.2,0.3,1.2,1.1v0.7c0,0.4,0,0.7,0,0.7h0
				c0.5-1.5,1.5-2.6,3.1-2.6c0.3,0,0.5,0.1,0.5,0.1v1.3c0,0-0.2,0-0.5,0c-1.4,0-2.4,1.1-2.8,2.5c-0.2,0.6-0.3,1.3-0.3,1.9v4.1h-1.3
				V394.5z"/>
			<path fill="#FFFFFF" d="M433.4,392.7c2.7,0,4.1,2.1,4.1,4.5c0,0.2,0,0.7,0,0.7H430c0,2.4,1.8,3.8,3.7,3.8c1.8,0,2.9-1.2,2.9-1.2
				l0.6,1c0,0-1.4,1.4-3.6,1.4c-2.9,0-5.1-2.1-5.1-5.1C428.6,394.6,430.8,392.7,433.4,392.7z M436.1,396.8c-0.1-2-1.3-3-2.7-3
				c-1.6,0-3,1-3.3,3H436.1z"/>
			<path fill="#FFFFFF" d="M440,394.5c0-0.3-0.2-0.4-0.4-0.4h-0.8V393h1.3c0.8,0,1.2,0.3,1.2,1.1v0.4c0,0.4,0,0.7,0,0.7h0
				c0.5-1.3,2-2.4,3.5-2.4c1.8,0,2.7,0.8,3,2.4h0c0.5-1.3,1.9-2.4,3.6-2.4c2.3,0,3.2,1.4,3.2,3.7v4.6c0,0.3,0.2,0.4,0.4,0.4h0.8v1.1
				h-1.4c-0.8,0-1.2-0.3-1.2-1.2v-4.7c0-1.6-0.3-2.9-2.1-2.9c-1.5,0-2.7,1.3-3.1,2.7c-0.1,0.4-0.2,0.9-0.2,1.4v4.6h-1.3v-5.8
				c0-1.5-0.2-2.9-2-2.9c-1.6,0-2.7,1.4-3.2,2.8c-0.1,0.4-0.2,0.8-0.2,1.3v4.6H440V394.5z"/>
			<path fill="#FFFFFF" d="M462.1,392.7c2.8,0,5.1,2.2,5.1,5c0,2.9-2.3,5.1-5.1,5.1c-2.8,0-5.1-2.2-5.1-5.1
				C457,394.9,459.3,392.7,462.1,392.7z M462.2,401.7c2.1,0,3.7-1.7,3.7-3.9c0-2.2-1.7-3.8-3.7-3.8c-2.1,0-3.8,1.6-3.8,3.8
				C458.4,400,460.1,401.7,462.2,401.7z"/>
			<path fill="#FFFFFF" d="M469.3,400.3c0,0,1.1,1.5,3,1.5c1.1,0,2-0.5,2-1.5c0-2.1-5.4-1.7-5.4-4.8c0-1.7,1.5-2.6,3.4-2.6
				c1,0,2.9,0.4,2.9,1.7v0.8h-1.2v-0.5c0-0.7-1-1-1.7-1c-1.3,0-2.2,0.5-2.2,1.4c0,2.2,5.4,1.7,5.4,4.9c0,1.6-1.5,2.7-3.4,2.7
				c-2.5,0-3.7-1.7-3.7-1.7L469.3,400.3z"/>
			<path fill="#FFFFFF" d="M487.6,392.7c2.8,0,5.1,2.2,5.1,5c0,2.9-2.3,5.1-5.1,5.1c-2.8,0-5.1-2.2-5.1-5.1
				C482.5,394.9,484.8,392.7,487.6,392.7z M487.6,401.7c2.1,0,3.7-1.7,3.7-3.9c0-2.2-1.7-3.8-3.7-3.8c-2.1,0-3.8,1.6-3.8,3.8
				C483.8,400,485.5,401.7,487.6,401.7z"/>
			<path fill="#FFFFFF" d="M495.1,394.5c0-0.3-0.2-0.4-0.4-0.4h-0.8V393h1.4c0.8,0,1.2,0.3,1.2,1.1v4.7c0,1.5,0.3,2.9,2.1,2.9
				c2.2,0,3.6-1.9,3.6-4V393h1.3v8.1c0,0.3,0.2,0.4,0.4,0.4h0.8v1.1h-1.3c-0.8,0-1.2-0.3-1.2-1.1v-0.4c0-0.4,0-0.7,0-0.7h0
				c-0.4,0.9-1.7,2.4-3.8,2.4c-2.3,0-3.3-1.2-3.3-3.7V394.5z"/>
			<path fill="#FFFFFF" d="M506.2,394.5c-0.1-0.3-0.3-0.4-0.7-0.4h-0.2V393h0.5c0.9,0,1.2,0.2,1.5,1.1l2.3,6
				c0.2,0.5,0.3,1.1,0.3,1.1h0c0,0,0.2-0.7,0.3-1.1l2.3-6c0.3-0.9,0.6-1.1,1.5-1.1h0.5v1.1h-0.2c-0.3,0-0.6,0.1-0.7,0.4l-3.2,8.1
				h-1.4L506.2,394.5z"/>
			<path fill="#FFFFFF" d="M516.8,394.5c0-0.3-0.2-0.4-0.4-0.4h-0.8V393h1.4c0.8,0,1.2,0.3,1.2,1.2v6.9c0,0.3,0.2,0.4,0.4,0.4h0.8
				v1.1H518c-0.8,0-1.2-0.3-1.2-1.2V394.5z M516.7,389.1h1.3v1.7h-1.3V389.1z"/>
			<path fill="#FFFFFF" d="M521.5,394.5c0-0.3-0.2-0.4-0.4-0.4h-0.8V393h1.3c0.8,0,1.2,0.3,1.2,1.1v0.7c0,0.4,0,0.7,0,0.7h0
				c0.5-1.5,1.5-2.6,3.1-2.6c0.3,0,0.5,0.1,0.5,0.1v1.3c0,0-0.2,0-0.5,0c-1.4,0-2.4,1.1-2.8,2.5c-0.2,0.6-0.3,1.3-0.3,1.9v4.1h-1.3
				V394.5z"/>
			<path fill="#FFFFFF" d="M533.1,394.5c-0.1-0.3-0.3-0.4-0.7-0.4h-0.2V393h0.5c0.9,0,1.2,0.2,1.5,1.1l2.3,6
				c0.2,0.5,0.3,1.1,0.3,1.1h0c0,0,0.2-0.7,0.3-1.1l2.3-6c0.3-0.9,0.6-1.1,1.5-1.1h0.5v1.1h-0.2c-0.3,0-0.6,0.1-0.7,0.4l-3.2,8.1
				h-1.4L533.1,394.5z"/>
			<path fill="#FFFFFF" d="M547.7,392.7c2.8,0,5.1,2.2,5.1,5c0,2.9-2.3,5.1-5.1,5.1c-2.8,0-5.1-2.2-5.1-5.1
				C542.6,394.9,544.8,392.7,547.7,392.7z M547.7,401.7c2.1,0,3.7-1.7,3.7-3.9c0-2.2-1.7-3.8-3.7-3.8c-2.1,0-3.8,1.6-3.8,3.8
				C543.9,400,545.6,401.7,547.7,401.7z"/>
			<path fill="#FFFFFF" d="M559.4,392.7c1.1,0,3.4,0.5,3.4,2.1v0.9h-1.2v-0.6c0-0.8-1.4-1.2-2.2-1.2c-2.1,0-3.7,1.6-3.7,3.9
				c0,2.4,1.7,3.9,3.8,3.9c2,0,3.1-1.4,3.1-1.4l0.6,1c0,0-1.3,1.6-3.8,1.6c-2.9,0-5.1-2.1-5.1-5.1
				C554.3,394.9,556.5,392.7,559.4,392.7z"/>
			<path fill="#FFFFFF" d="M569.2,392.7c2.7,0,4.1,2.1,4.1,4.5c0,0.2,0,0.7,0,0.7h-7.4c0,2.4,1.8,3.8,3.7,3.8c1.8,0,2.9-1.2,2.9-1.2
				l0.6,1c0,0-1.4,1.4-3.6,1.4c-2.9,0-5.1-2.1-5.1-5.1C564.5,394.6,566.6,392.7,569.2,392.7z M571.9,396.8c-0.1-2-1.3-3-2.7-3
				c-1.6,0-3,1-3.3,3H571.9z M568.5,389.1h1.3l1.6,2.3h-1.2l-1-1.6h0l-1,1.6h-1.2L568.5,389.1z"/>
			<path fill="#FFFFFF" d="M576.4,401.2h1.5v1.5h-1.5V401.2z M576.4,389.1h1.3l-0.1,10h-1.2L576.4,389.1z"/>
		</g>
	</g>
</g>
</svg>
