<?xml version="1.0" encoding="utf-8"?>
<!-- Generator: Adobe Illustrator 15.1.0, SVG Export Plug-In . SVG Version: 6.00 Build 0)  -->
<!DOCTYPE svg PUBLIC "-//W3C//DTD SVG 1.1//EN" "http://www.w3.org/Graphics/SVG/1.1/DTD/svg11.dtd">
<svg version="1.1" id="Layer_1" xmlns="http://www.w3.org/2000/svg" xmlns:xlink="http://www.w3.org/1999/xlink" x="0px" y="0px"
	 width="25.25px" height="25.25px" viewBox="0 0 25.25 25.25" enable-background="new 0 0 25.25 25.25" xml:space="preserve">
<g>
	<g>
		<circle fill="none" stroke="#FFFFFF" stroke-miterlimit="10" cx="12.625" cy="12.625" r="10.912"/>
	</g>
	<g>
		<path fill="#FFFFFF" d="M14.881,15.899l1.043,1.902c0.109,0.202,0.287,0.213,0.396,0.011l1.042-1.913H14.881z"/>
		<path fill="#FFFFFF" d="M17.703,7.367H7.546c-0.373,0-0.676,0.303-0.676,0.675v7.578c0,0.373,0.303,0.676,0.676,0.676h10.157
			c0.373,0,0.675-0.303,0.675-0.676V8.042C18.38,7.67,18.076,7.367,17.703,7.367z M9.534,11.552
			c-0.131,0.122-0.295,0.184-0.49,0.184c-0.238,0-0.453-0.103-0.644-0.31c-0.192-0.206-0.288-0.459-0.288-0.76
			c0-0.355,0.119-0.686,0.354-0.994c0.237-0.306,0.578-0.533,1.025-0.679v0.219C9.18,9.377,8.956,9.547,8.821,9.723
			c-0.135,0.178-0.203,0.371-0.203,0.582c0,0.124,0.018,0.208,0.054,0.255c0.031,0.05,0.07,0.074,0.117,0.074
			c0.046,0,0.108-0.013,0.187-0.04c0.078-0.026,0.148-0.04,0.212-0.04c0.145,0,0.272,0.055,0.381,0.163
			c0.108,0.108,0.163,0.241,0.163,0.395C9.731,11.283,9.666,11.43,9.534,11.552z M12.082,11.55
			c-0.136,0.128-0.304,0.192-0.503,0.192c-0.234,0-0.445-0.102-0.634-0.304c-0.188-0.203-0.281-0.455-0.281-0.755
			c0-0.374,0.119-0.713,0.356-1.021c0.238-0.307,0.576-0.524,1.011-0.651v0.202c-0.358,0.207-0.593,0.391-0.707,0.554
			c-0.114,0.163-0.17,0.355-0.17,0.575c0,0.098,0.019,0.172,0.059,0.223c0.039,0.05,0.08,0.075,0.122,0.075
			c0.04,0,0.097-0.016,0.175-0.042c0.078-0.029,0.157-0.043,0.234-0.043c0.146,0,0.273,0.053,0.38,0.157
			c0.108,0.105,0.163,0.233,0.163,0.386C12.286,11.271,12.217,11.422,12.082,11.55z M14.229,14.048
			c-0.238,0.309-0.576,0.526-1.008,0.655v-0.224c0.357-0.203,0.594-0.387,0.704-0.55c0.112-0.166,0.169-0.357,0.169-0.573
			c0-0.099-0.018-0.173-0.053-0.224c-0.041-0.05-0.083-0.075-0.129-0.075c-0.035,0-0.093,0.015-0.17,0.043s-0.156,0.042-0.234,0.042
			c-0.149,0-0.277-0.053-0.383-0.16c-0.107-0.107-0.161-0.235-0.161-0.39c0-0.169,0.068-0.318,0.205-0.446
			c0.137-0.128,0.303-0.192,0.498-0.192c0.235,0,0.447,0.102,0.637,0.303c0.189,0.203,0.284,0.458,0.284,0.767
			C14.59,13.398,14.471,13.739,14.229,14.048z M16.784,14.024c-0.235,0.308-0.577,0.532-1.023,0.679v-0.224
			c0.308-0.16,0.531-0.329,0.668-0.508c0.136-0.18,0.205-0.374,0.205-0.582c0-0.125-0.019-0.211-0.054-0.26
			c-0.037-0.047-0.075-0.071-0.118-0.071c-0.045,0-0.106,0.016-0.186,0.043c-0.082,0.029-0.153,0.043-0.213,0.043
			c-0.145,0-0.272-0.056-0.38-0.165c-0.109-0.11-0.163-0.241-0.163-0.394c0-0.169,0.065-0.318,0.196-0.44
			c0.132-0.125,0.294-0.187,0.485-0.187c0.241,0,0.457,0.104,0.648,0.312c0.191,0.207,0.287,0.463,0.287,0.765
			C17.139,13.386,17.021,13.717,16.784,14.024z"/>
	</g>
</g>
</svg>
