<?xml version="1.0" encoding="utf-8"?>
<!-- Generator: Adobe Illustrator 15.1.0, SVG Export Plug-In . SVG Version: 6.00 Build 0)  -->
<!DOCTYPE svg PUBLIC "-//W3C//DTD SVG 1.1//EN" "http://www.w3.org/Graphics/SVG/1.1/DTD/svg11.dtd">
<svg version="1.1" id="Layer_1" xmlns="http://www.w3.org/2000/svg" xmlns:xlink="http://www.w3.org/1999/xlink" x="0px" y="0px"
	 width="25px" height="25px" viewBox="0 0 25 25" enable-background="new 0 0 25 25" xml:space="preserve">
<g>
	<circle fill="none" stroke="#FFFFFF" stroke-miterlimit="10" cx="12.5" cy="12.499" r="10.8"/>
	<g>
		<path fill="#FFFFFF" d="M10.806,11.006l-0.171,0.203c-0.057-0.146-0.202-0.249-0.369-0.249H9.124c-0.22,0-0.397,0.175-0.397,0.392
			v1.247c0,0.216,0.178,0.394,0.397,0.394h1.142c0.22,0,0.397-0.177,0.397-0.394v-0.666l0.519-0.613
			c0.088-0.104,0.074-0.257-0.03-0.343C11.048,10.89,10.894,10.903,10.806,11.006z M10.398,12.596c0,0.072-0.06,0.131-0.132,0.131
			H9.124c-0.073,0-0.132-0.059-0.132-0.131V11.35c0-0.07,0.06-0.131,0.132-0.131h1.142c0.072,0,0.132,0.06,0.132,0.131v0.137
			l-0.331,0.392C9.98,11.981,9.83,11.991,9.73,11.898l-0.204-0.186c-0.098-0.093-0.254-0.086-0.346,0.013
			c-0.092,0.098-0.087,0.252,0.013,0.343l0.573,0.526c0.045,0.042,0.105,0.064,0.167,0.064c0.005,0,0.01,0,0.016-0.001
			c0.067-0.003,0.128-0.035,0.172-0.084l0.279-0.33L10.398,12.596L10.398,12.596z"/>
		<path fill="#FFFFFF" d="M10.806,13.647l-0.189,0.223c-0.066-0.127-0.199-0.214-0.352-0.214H9.124c-0.22,0-0.397,0.177-0.397,0.395
			v1.245c0,0.216,0.178,0.395,0.397,0.395h1.142c0.22,0,0.397-0.178,0.397-0.395v-0.724l0.519-0.613
			c0.088-0.104,0.074-0.257-0.03-0.343C11.048,13.531,10.894,13.543,10.806,13.647z M10.398,15.294c0,0.072-0.06,0.132-0.132,0.132
			H9.124c-0.073,0-0.132-0.059-0.132-0.132v-1.245c0-0.072,0.06-0.131,0.132-0.131h1.142c0.072,0,0.132,0.058,0.132,0.131v0.079
			l-0.331,0.391C9.98,14.621,9.83,14.631,9.73,14.54l-0.204-0.188c-0.098-0.092-0.254-0.085-0.346,0.016
			c-0.092,0.096-0.087,0.251,0.013,0.343l0.573,0.525c0.045,0.042,0.105,0.064,0.167,0.064c0.005,0,0.01,0,0.016,0
			c0.067-0.005,0.128-0.036,0.172-0.087l0.279-0.328L10.398,15.294L10.398,15.294z"/>
		<path fill="#FFFFFF" d="M10.806,16.301l-0.197,0.232c-0.068-0.12-0.196-0.2-0.343-0.2H9.124c-0.22,0-0.397,0.176-0.397,0.394
			v1.244c0,0.217,0.178,0.394,0.397,0.394h1.142c0.22,0,0.397-0.176,0.397-0.394v-0.747l0.519-0.613
			c0.088-0.102,0.074-0.255-0.03-0.342C11.048,16.184,10.894,16.197,10.806,16.301z M10.398,17.971c0,0.072-0.06,0.132-0.132,0.132
			H9.124c-0.073,0-0.132-0.06-0.132-0.132v-1.244c0-0.074,0.06-0.132,0.132-0.132h1.142c0.072,0,0.132,0.058,0.132,0.132v0.055
			l-0.331,0.391C9.98,17.277,9.83,17.286,9.73,17.193l-0.204-0.187C9.428,16.915,9.272,16.92,9.18,17.02
			c-0.092,0.098-0.087,0.252,0.013,0.343l0.573,0.525c0.045,0.043,0.105,0.065,0.167,0.065c0.005,0,0.01,0,0.016,0
			c0.067-0.005,0.128-0.035,0.172-0.086L10.4,17.54L10.398,17.971L10.398,17.971z"/>
		<path fill="#FFFFFF" d="M16.104,11.808H12.14c-0.135,0-0.246,0.109-0.246,0.244c0,0.133,0.111,0.243,0.246,0.243h3.963
			c0.136,0,0.244-0.109,0.244-0.243C16.348,11.917,16.239,11.808,16.104,11.808L16.104,11.808z"/>
		<path fill="#FFFFFF" d="M16.104,14.187H12.14c-0.135,0-0.246,0.107-0.246,0.242c0,0.136,0.111,0.243,0.246,0.243h3.963
			c0.136,0,0.244-0.107,0.244-0.243C16.348,14.294,16.239,14.187,16.104,14.187L16.104,14.187z"/>
		<path fill="#FFFFFF" d="M16.104,16.565H12.14c-0.135,0-0.246,0.109-0.246,0.243c0,0.135,0.111,0.243,0.246,0.243h3.963
			c0.136,0,0.244-0.108,0.244-0.243C16.348,16.674,16.239,16.565,16.104,16.565L16.104,16.565z"/>
		<path fill="#FFFFFF" d="M16.179,5.819h-2.086v-0.35c0-0.407-0.334-0.737-0.744-0.737h-1.695c-0.411,0-0.745,0.33-0.745,0.737v0.35
			H8.822c-0.947,0-1.716,0.763-1.716,1.701v11.046c0,0.937,0.77,1.699,1.716,1.699h7.357c0.946,0,1.716-0.763,1.716-1.699V7.52
			C17.895,6.583,17.125,5.819,16.179,5.819z M12.5,5.063c0.205,0,0.371,0.167,0.371,0.369S12.705,5.799,12.5,5.799
			c-0.204,0-0.37-0.165-0.37-0.367C12.129,5.229,12.295,5.063,12.5,5.063z M10.492,6.863h4.017v1.554h-4.017V6.863z M16.914,18.566
			c0,0.402-0.331,0.729-0.735,0.729H8.822c-0.406,0-0.735-0.326-0.735-0.729V7.52c0-0.4,0.329-0.729,0.735-0.729h0.702v1.734
			c0,0.469,0.384,0.848,0.855,0.848h4.241c0.472,0,0.855-0.38,0.855-0.848V6.791h0.702c0.404,0,0.734,0.328,0.734,0.729v11.046
			H16.914z"/>
	</g>
</g>
</svg>
