<?xml version="1.0" encoding="utf-8"?>
<!-- Generator: Adobe Illustrator 15.1.0, SVG Export Plug-In . SVG Version: 6.00 Build 0)  -->
<!DOCTYPE svg PUBLIC "-//W3C//DTD SVG 1.1//EN" "http://www.w3.org/Graphics/SVG/1.1/DTD/svg11.dtd">
<svg version="1.1" id="Layer_1" xmlns="http://www.w3.org/2000/svg" xmlns:xlink="http://www.w3.org/1999/xlink" x="0px" y="0px"
	 width="24.915px" height="24.915px" viewBox="0 0 24.915 24.915" enable-background="new 0 0 24.915 24.915" xml:space="preserve">
<g>
	<g>
		<circle fill="none" stroke="#FFFFFF" stroke-miterlimit="10" cx="12.458" cy="12.458" r="10.762"/>
	</g>
	<g>
		<g>
			<path fill="#FFFFFF" d="M12.525,12.118c0.393,0,0.705-0.28,0.781-0.646l-1.564,0.003C11.82,11.84,12.133,12.118,12.525,12.118z"
				/>
			<path fill="#FFFFFF" d="M13.354,10.606c0.07-0.743,1.057-1.182,1.057-2.571c0-1.029-0.843-1.863-1.886-1.863
				c-1.042,0-1.888,0.835-1.888,1.863c0,1.392,0.993,1.829,1.057,2.572L13.354,10.606z M12.586,6.818
				c0.248-0.142,0.768,0.055,1.036,0.509c0.264,0.455,0.175,0.999-0.07,1.139c-0.247,0.141-0.118-0.426-0.384-0.881
				C12.9,7.129,12.34,6.959,12.586,6.818z"/>
			<rect x="11.709" y="11.21" fill="#FFFFFF" width="1.632" height="0.103"/>
			<rect x="11.709" y="10.976" fill="#FFFFFF" width="1.632" height="0.103"/>
			<rect x="11.709" y="10.74" fill="#FFFFFF" width="1.632" height="0.103"/>
		</g>
		<g>
			<path fill="#FFFFFF" d="M11.076,9.88c-0.018-0.02-0.035-0.042-0.055-0.063c-0.307-0.351-0.726-0.833-0.726-1.781
				c0-0.175,0.021-0.346,0.06-0.51l-0.528-0.44L5.9,9.502l2.477,2.021L11.076,9.88z"/>
			<path fill="#FFFFFF" d="M14.755,8.035c0,0.951-0.421,1.432-0.729,1.783c-0.035,0.041-0.068,0.079-0.098,0.115l2.61,1.589
				l2.475-2.021l-3.925-2.417l-0.421,0.347C14.725,7.626,14.755,7.828,14.755,8.035z"/>
			<polygon fill="#FFFFFF" points="12.04,14.149 8.352,11.917 6.085,13.833 9.852,16.04 			"/>
			<polygon fill="#FFFFFF" points="12.876,14.149 15.064,16.04 18.83,13.833 16.565,11.917 			"/>
			<polygon fill="#FFFFFF" points="12.616,14.359 12.616,18.745 16.379,16.434 16.379,15.723 15.116,16.407 			"/>
			<polygon fill="#FFFFFF" points="8.536,15.723 8.536,16.434 12.299,18.745 12.299,14.359 9.799,16.407 			"/>
		</g>
	</g>
</g>
</svg>
