<?xml version="1.0" encoding="utf-8"?>
<!-- Generator: Adobe Illustrator 15.1.0, SVG Export Plug-In . SVG Version: 6.00 Build 0)  -->
<!DOCTYPE svg PUBLIC "-//W3C//DTD SVG 1.1//EN" "http://www.w3.org/Graphics/SVG/1.1/DTD/svg11.dtd">
<svg version="1.1" id="Layer_1" xmlns="http://www.w3.org/2000/svg" xmlns:xlink="http://www.w3.org/1999/xlink" x="0px" y="0px"
	 width="24.5px" height="24.5px" viewBox="0 0 24.5 24.5" enable-background="new 0 0 24.5 24.5" xml:space="preserve">
<g>
	<g>
		<circle fill="none" stroke="#FFFFFF" stroke-miterlimit="10" cx="12.25" cy="12.25" r="10.575"/>
	</g>
	<g>
		<path fill="#FFFFFF" d="M19.773,10.078C19.77,10.029,19.748,10,19.701,9.988c-0.032-0.009-0.063-0.018-0.098-0.022
			c-0.469-0.073-0.94-0.146-1.415-0.18c-0.379-0.025-0.761-0.042-1.141-0.06c-0.732-0.031-1.464-0.017-2.19,0.076
			c-0.447,0.058-0.886,0.138-1.314,0.276c-0.215,0.07-0.429,0.15-0.646,0.22c-0.338,0.107-0.685,0.155-1.034,0.091
			c-0.21-0.043-0.418-0.1-0.624-0.168c-0.369-0.121-0.738-0.237-1.123-0.309C9.371,9.774,8.619,9.712,7.917,9.718
			C7.347,9.719,6.834,9.74,6.324,9.8C5.903,9.85,5.485,9.906,5.066,9.963c-0.088,0.012-0.177,0.04-0.262,0.061
			c-0.047,0.013-0.077,0.044-0.079,0.095c-0.008,0.247-0.018,0.495-0.022,0.743c-0.002,0.036,0.008,0.075,0.014,0.112
			c0.004,0.031,0.021,0.052,0.052,0.065c0.033,0.014,0.064,0.028,0.094,0.048c0.135,0.095,0.203,0.241,0.255,0.392
			c0.038,0.106,0.063,0.22,0.094,0.328c0.021,0.069,0.045,0.135,0.06,0.204c0.073,0.323,0.139,0.649,0.214,0.971
			c0.07,0.308,0.163,0.607,0.311,0.888c0.164,0.314,0.396,0.556,0.73,0.692c0.203,0.086,0.41,0.138,0.625,0.172
			c0.386,0.061,0.77,0.069,1.159,0.042c0.394-0.031,0.78-0.089,1.158-0.203c0.28-0.086,0.545-0.205,0.77-0.395
			c0.344-0.292,0.62-0.64,0.833-1.038c0.213-0.399,0.361-0.823,0.495-1.252c0.039-0.125,0.075-0.248,0.12-0.369
			c0.064-0.178,0.193-0.287,0.383-0.317c0.059-0.01,0.124-0.014,0.185-0.01c0.144,0.01,0.281,0.04,0.374,0.158
			c0.043,0.052,0.083,0.109,0.109,0.169c0.052,0.118,0.1,0.24,0.138,0.361c0.17,0.531,0.393,1.037,0.673,1.518
			c0.233,0.397,0.539,0.721,0.947,0.944c0.29,0.156,0.6,0.259,0.92,0.319c0.482,0.094,0.972,0.117,1.461,0.094
			c0.296-0.013,0.588-0.051,0.875-0.136c0.292-0.088,0.549-0.229,0.743-0.475c0.125-0.156,0.214-0.333,0.292-0.517
			c0.161-0.391,0.264-0.797,0.356-1.207c0.046-0.201,0.092-0.401,0.14-0.6c0.027-0.105,0.059-0.208,0.087-0.312
			c0.026-0.096,0.05-0.194,0.112-0.278c0.062-0.086,0.125-0.168,0.229-0.205c0.044-0.016,0.065-0.048,0.076-0.09
			c0.007-0.034,0.016-0.067,0.016-0.1c0.001-0.147,0.001-0.295-0.005-0.443C19.792,10.291,19.781,10.185,19.773,10.078
			 M5.333,10.546c-0.159,0-0.288-0.032-0.288-0.072c0-0.037,0.129-0.07,0.288-0.07c0.159,0,0.289,0.033,0.289,0.07
			C5.623,10.515,5.492,10.546,5.333,10.546 M10.924,12.111c-0.101,0.432-0.269,0.836-0.494,1.219
			c-0.122,0.208-0.26,0.402-0.436,0.569c-0.231,0.222-0.511,0.355-0.818,0.433c-0.62,0.164-1.25,0.204-1.885,0.108
			c-0.125-0.019-0.247-0.05-0.369-0.082c-0.252-0.064-0.443-0.212-0.587-0.429c-0.162-0.241-0.259-0.503-0.327-0.78
			c-0.085-0.363-0.134-0.732-0.171-1.103c-0.021-0.216-0.018-0.431,0.01-0.646c0.013-0.106,0.021-0.216,0.046-0.321
			c0.086-0.375,0.318-0.615,0.692-0.713c0.34-0.089,0.687-0.142,1.037-0.17c0.26-0.021,0.521-0.03,0.689-0.042
			c0.598,0.007,1.101,0.047,1.594,0.161c0.203,0.046,0.407,0.086,0.59,0.187c0.092,0.047,0.18,0.105,0.259,0.169
			c0.131,0.108,0.197,0.255,0.225,0.421C11.035,11.437,11.004,11.776,10.924,12.111 M18.66,11.95
			c-0.013,0.522-0.1,1.031-0.286,1.518c-0.075,0.199-0.177,0.383-0.331,0.53c-0.169,0.166-0.385,0.256-0.61,0.315
			c-0.281,0.077-0.572,0.096-0.868,0.098c-0.44,0.005-0.875-0.051-1.308-0.142c-0.427-0.092-0.769-0.315-1.037-0.655
			c-0.35-0.435-0.573-0.926-0.696-1.466c-0.058-0.25-0.105-0.502-0.099-0.76c0.002-0.109,0.013-0.222,0.032-0.331
			c0.05-0.271,0.218-0.45,0.469-0.551c0.253-0.104,0.519-0.166,0.782-0.217c0.299-0.059,0.598-0.103,0.899-0.122
			c0.238-0.018,0.472-0.023,0.635-0.029c0.631,0.03,1.184,0.075,1.721,0.229c0.1,0.028,0.194,0.074,0.287,0.118
			c0.089,0.041,0.157,0.108,0.202,0.198c0.048,0.096,0.099,0.194,0.136,0.294c0.046,0.12,0.056,0.246,0.06,0.373
			C18.654,11.55,18.665,11.75,18.66,11.95 M19.159,10.546c-0.16,0-0.287-0.032-0.287-0.072c0-0.037,0.129-0.07,0.287-0.07
			c0.16,0,0.288,0.033,0.288,0.07C19.447,10.515,19.319,10.546,19.159,10.546"/>
	</g>
</g>
</svg>
