<?xml version="1.0" encoding="utf-8"?>
<!-- Generator: Adobe Illustrator 15.1.0, SVG Export Plug-In . SVG Version: 6.00 Build 0)  -->
<!DOCTYPE svg PUBLIC "-//W3C//DTD SVG 1.1//EN" "http://www.w3.org/Graphics/SVG/1.1/DTD/svg11.dtd">
<svg version="1.1" id="Layer_3" xmlns="http://www.w3.org/2000/svg" xmlns:xlink="http://www.w3.org/1999/xlink" x="0px" y="0px"
	 width="213px" height="213px" viewBox="-47.5 -51.501 213 213" enable-background="new -47.5 -51.501 213 213"
	 xml:space="preserve">
<g>
	<circle fill="none" stroke="#2B3D4F" stroke-width="4" stroke-miterlimit="10" cx="59" cy="54.999" r="104.5"/>
</g>
<g>
	<circle fill="#2B3D4F" cx="29.985" cy="6.016" r="13.435"/>
	<circle fill="#2B3D4F" cx="74.389" cy="6.02" r="13.435"/>
	<path fill="#2B3D4F" d="M82.838,100.604l0.004,9.705c0.002,3.925,3.188,7.107,7.113,7.107h0.005
		c3.926-0.003,7.11-3.188,7.108-7.115l-0.005-9.698L82.838,100.604L82.838,100.604z"/>
	<path fill="#2B3D4F" d="M106.54,68.998c-0.443-2.61-2.36-4.708-4.856-5.449c0.028-0.432,0.021-0.867-0.066-1.312
		c-0.666-3.399-8.822-35.413-8.822-35.413c-1.157-5.399-4.895-7.994-9.547-8.13l-0.04,0.002c0,0-1.64,0.01-3.053,0.278
		c-1.479,0.282-2.774,0.993-2.774,0.993c-3.429,1.664-6.71,5.1-7.11,9.273c-0.055,0.2-0.12,0.396-0.149,0.607
		c-0.905,6.373-1.813,10.413-3.765,12.192c-2.015,1.832-6.538,2.649-14.667,2.649c-1.882,0-3.517,1.005-4.435,2.502
		c-4.906-1.002-7.801-2.271-9.33-4.042c-1.987-2.295-2.71-6.558-3.668-13.303c-0.03-0.212-0.097-0.409-0.149-0.609
		c-0.402-4.171-3.681-7.609-7.112-9.272c0,0-1.296-0.711-2.772-0.994c-1.416-0.27-3.055-0.277-3.055-0.277l-0.04-0.003
		C16.478,18.826,11,21.419,9.842,26.822L3.628,55.817c-0.828,3.874,0.903,7.339,3.705,9.729l-0.028,44.749
		c-0.002,3.932,3.181,7.116,7.109,7.12c0,0,0.003,0,0.004,0c3.926,0,7.11-3.185,7.112-7.111l0.025-42.341
		c2.938-1.17,5.423-3.438,6.182-6.979l2.353-10.979c3.742,4.369,9.922,6.875,20.941,8.382c0.239,0.033,0.478,0.05,0.714,0.05
		c2.198,0,4.147-1.398,4.888-3.442c8.625-0.455,13.978-2.231,17.457-5.891l2.546,11.885c0.66,3.076,2.625,5.19,5.06,6.459h3.385
		c0.727-2.049,2.199-3.74,4.136-4.749c-1.764-8.416-4.214-16.691-6.32-21.722c-1.437-2.641,0.569-3.551,1.638-0.811
		c1.067,2.742,5.063,15.23,6.697,23.396c-2.464,0.759-4.353,2.842-4.789,5.433H76.396V98.67h40.184V68.998H106.54z M90.031,68.998
		c0.414-1.146,1.408-2.011,2.632-2.224c0.969,1.049,2.347,1.686,3.822,1.686c0.331,0,0.669-0.032,1.007-0.1
		c1.129-0.222,2.094-0.802,2.821-1.588c1.225,0.212,2.221,1.08,2.634,2.226H90.031z"/>
</g>
</svg>
