<?xml version="1.0" encoding="utf-8"?>
<!-- Generator: Adobe Illustrator 15.1.0, SVG Export Plug-In . SVG Version: 6.00 Build 0)  -->
<!DOCTYPE svg PUBLIC "-//W3C//DTD SVG 1.1//EN" "http://www.w3.org/Graphics/SVG/1.1/DTD/svg11.dtd">
<svg version="1.1" id="Capa_1" xmlns="http://www.w3.org/2000/svg" xmlns:xlink="http://www.w3.org/1999/xlink" x="0px" y="0px"
	 width="500px" height="400px" viewBox="0 0 500 400" enable-background="new 0 0 500 400" xml:space="preserve">
<circle fill="none" stroke="#DA4A38" stroke-width="4" stroke-miterlimit="10" cx="259.512" cy="201.5" r="194.5"/>
<path fill="#DA4A38" d="M384.547,190.387H355.25c-5.375-43.774-40.486-78.543-84.621-83.754V76.465
	c0-6.14-4.98-11.115-11.115-11.115c-6.139,0-11.115,4.975-11.115,11.115v30.068c-44.505,4.888-79.994,39.821-85.403,83.849h-28.521
	c-6.137,0-11.113,4.979-11.113,11.114c0,6.141,4.976,11.115,11.113,11.115h28.369c4.917,44.586,40.652,80.091,85.555,85.021v28.902
	c0,6.139,4.977,11.115,11.115,11.115c6.135,0,11.115-4.977,11.115-11.115v-28.998c44.527-5.256,79.881-40.592,84.773-84.922h29.145
	c6.139,0,11.115-4.975,11.115-11.114S390.686,190.387,384.547,190.387 M270.629,275.039V238.38c0-6.141-4.98-11.116-11.115-11.116
	c-6.139,0-11.115,4.976-11.115,11.116v36.772c-32.601-4.672-58.384-30.244-63.069-62.537h37.308c6.139,0,11.115-4.975,11.115-11.114
	s-4.976-11.114-11.115-11.114H185.51c5.127-31.747,30.684-56.75,62.889-61.375v35.613c0,6.14,4.977,11.114,11.115,11.114
	c6.135,0,11.115-4.975,11.115-11.114v-35.494c31.836,4.913,57.017,29.761,62.111,61.256h-36.353
	c-6.141,0-11.114,4.974-11.114,11.114s4.974,11.114,11.114,11.114h36.53C328.268,244.656,302.859,270.065,270.629,275.039"/>
</svg>
