<?xml version="1.0" encoding="utf-8"?>
<!-- Generator: Adobe Illustrator 18.0.0, SVG Export Plug-In . SVG Version: 6.00 Build 0)  -->
<!DOCTYPE svg PUBLIC "-//W3C//DTD SVG 1.1//EN" "http://www.w3.org/Graphics/SVG/1.1/DTD/svg11.dtd">
<svg version="1.1" id="Layer_1" xmlns="http://www.w3.org/2000/svg" xmlns:xlink="http://www.w3.org/1999/xlink" x="0px" y="0px"
	 viewBox="0 377.6 612 36.7" enable-background="new 0 377.6 612 36.7" xml:space="preserve">
<g>
	<polygon fill="#2B3D4E" points="966.1,1323.8 361.8,1323.8 369.6,1287.1 973.8,1287.1 	"/>
	<g>
		<text transform="matrix(1 0 0 1 394.9532 1311.7129)" fill="#FFFFFF" font-family="'Museo-300'" font-size="19.227">Utilize todas as ferramentas disponíveis, queremos ouvir você!</text>
	</g>
</g>
<g>
	<polygon fill="#2B3D4E" points="604.3,414.4 0,414.4 7.8,377.6 612,377.6 	"/>
</g>
<g>
	<g enable-background="new    ">
		<path fill="#FFFFFF" d="M43.1,389.7c0-0.3-0.2-0.4-0.4-0.4h-0.8v-1.2h1.4c0.8,0,1.2,0.3,1.2,1.2v7.7c0,2.3,1.4,3.7,3.6,3.7
			s3.7-1.4,3.7-3.7v-7.6c0-0.8,0.3-1.2,1.2-1.2h1.4v1.2h-0.8c-0.3,0-0.4,0.1-0.4,0.4v7.3c0,2.9-2,4.9-5,4.9c-3,0-5-1.9-5-4.9V389.7z
			"/>
		<path fill="#FFFFFF" d="M56.8,393.1h-1.3V392h1.3v-2.7h1.3v2.7h2.4v1.1h-2.4v4.9c0,2.3,1.4,2.6,2.2,2.6c0.3,0,0.4,0,0.4,0v1.2
			c0,0-0.2,0-0.6,0c-1.1,0-3.4-0.4-3.4-3.6V393.1z"/>
		<path fill="#FFFFFF" d="M63.2,393.5c0-0.3-0.2-0.4-0.4-0.4H62V392h1.4c0.8,0,1.2,0.3,1.2,1.2v6.9c0,0.3,0.2,0.4,0.4,0.4h0.8v1.1
			h-1.4c-0.8,0-1.2-0.3-1.2-1.2V393.5z M63.1,388.1h1.3v1.7h-1.3V388.1z"/>
		<path fill="#FFFFFF" d="M67.9,389.7c0-0.3-0.2-0.4-0.4-0.4h-0.8v-1.1H68c0.8,0,1.2,0.3,1.2,1.2v10.8c0,0.3,0.2,0.4,0.4,0.4h0.8
			v1.1h-1.4c-0.8,0-1.2-0.3-1.2-1.2V389.7z"/>
		<path fill="#FFFFFF" d="M72.7,393.5c0-0.3-0.2-0.4-0.4-0.4h-0.8V392h1.4c0.8,0,1.2,0.3,1.2,1.2v6.9c0,0.3,0.2,0.4,0.4,0.4h0.8v1.1
			h-1.4c-0.8,0-1.2-0.3-1.2-1.2V393.5z M72.7,388.1H74v1.7h-1.3V388.1z"/>
		<path fill="#FFFFFF" d="M76.5,400.8L82,394c0.4-0.5,0.8-0.9,0.8-0.9v0c0,0-0.3,0-1,0h-3.5c-0.3,0-0.4,0.1-0.4,0.4v0.8h-1.2v-1.2
			c0-0.8,0.3-1.2,1.2-1.2h6.7v0.9l-5.4,6.8c-0.4,0.5-0.8,0.9-0.8,0.9v0c0,0,0.3,0,1,0h4c0.3,0,0.4-0.1,0.4-0.4v-0.8h1.2v1.2
			c0,0.8-0.3,1.2-1.2,1.2h-7.2V400.8z"/>
		<path fill="#FFFFFF" d="M90.7,391.7c2.7,0,4.1,2.1,4.1,4.5c0,0.2,0,0.7,0,0.7h-7.4c0,2.4,1.7,3.8,3.7,3.8c1.8,0,2.9-1.2,2.9-1.2
			l0.6,1c0,0-1.4,1.4-3.6,1.4c-2.9,0-5.1-2.1-5.1-5.1C85.9,393.6,88.1,391.7,90.7,391.7z M93.4,395.8c-0.1-2-1.3-3-2.7-3
			c-1.6,0-3,1-3.3,3H93.4z"/>
		<path fill="#FFFFFF" d="M102.7,393.1h-1.3V392h1.3v-2.7h1.3v2.7h2.4v1.1H104v4.9c0,2.3,1.4,2.6,2.2,2.6c0.3,0,0.4,0,0.4,0v1.2
			c0,0-0.2,0-0.6,0c-1.1,0-3.4-0.4-3.4-3.6V393.1z"/>
		<path fill="#FFFFFF" d="M113.1,391.7c2.8,0,5.1,2.2,5.1,5c0,2.9-2.3,5.1-5.1,5.1c-2.8,0-5.1-2.2-5.1-5.1
			C108,393.9,110.3,391.7,113.1,391.7z M113.1,400.7c2.1,0,3.7-1.7,3.7-3.9c0-2.2-1.7-3.8-3.7-3.8c-2.1,0-3.8,1.6-3.8,3.8
			C109.3,399,111,400.7,113.1,400.7z"/>
		<path fill="#FFFFFF" d="M124.1,391.7c2.3,0,3.2,1.8,3.2,1.8h0c0,0,0-0.3,0-0.7v-3.1c0-0.3-0.2-0.4-0.4-0.4H126v-1.1h1.4
			c0.8,0,1.2,0.3,1.2,1.2v10.8c0,0.3,0.2,0.4,0.4,0.4h0.8v1.1h-1.3c-0.8,0-1.2-0.4-1.2-1.1c0-0.4,0-0.6,0-0.6h0c0,0-0.8,1.9-3.3,1.9
			c-2.6,0-4.2-2.1-4.2-5.1C119.7,393.7,121.6,391.7,124.1,391.7z M127.3,396.8c0-2-1-3.9-3.1-3.9c-1.7,0-3.1,1.4-3.1,3.9
			c0,2.4,1.2,3.9,3.1,3.9C125.8,400.7,127.3,399.5,127.3,396.8z"/>
		<path fill="#FFFFFF" d="M136.9,395.7h0.5v-0.1c0-2-0.7-2.7-2.5-2.7c-0.5,0-1.9,0.1-1.9,0.8v0.6h-1.3v-0.9c0-1.3,2.3-1.6,3.2-1.6
			c3.1,0,3.8,1.6,3.8,3.7v4.6c0,0.3,0.2,0.4,0.4,0.4h0.8v1.1h-1.3c-0.8,0-1.2-0.4-1.2-1.2c0-0.4,0-0.7,0-0.7h0c0,0-0.8,2.1-3.2,2.1
			c-1.6,0-3.3-0.9-3.3-2.9C131,395.8,135.3,395.7,136.9,395.7z M134.5,400.8c1.8,0,3-1.9,3-3.6v-0.4h-0.6c-1.5,0-4.6,0-4.6,2.2
			C132.4,399.8,133.1,400.8,134.5,400.8z"/>
		<path fill="#FFFFFF" d="M141.7,399.3c0,0,1.1,1.5,3,1.5c1.1,0,2-0.5,2-1.5c0-2.1-5.4-1.7-5.4-4.8c0-1.7,1.5-2.6,3.4-2.6
			c1,0,2.9,0.4,2.9,1.7v0.8h-1.2v-0.5c0-0.7-1-1-1.7-1c-1.3,0-2.2,0.5-2.2,1.4c0,2.2,5.4,1.7,5.4,4.9c0,1.6-1.5,2.7-3.4,2.7
			c-2.5,0-3.7-1.7-3.7-1.7L141.7,399.3z"/>
		<path fill="#FFFFFF" d="M160.8,395.7h0.5v-0.1c0-2-0.7-2.7-2.5-2.7c-0.5,0-1.9,0.1-1.9,0.8v0.6h-1.3v-0.9c0-1.3,2.3-1.6,3.2-1.6
			c3.1,0,3.8,1.6,3.8,3.7v4.6c0,0.3,0.2,0.4,0.4,0.4h0.8v1.1h-1.3c-0.8,0-1.2-0.4-1.2-1.2c0-0.4,0-0.7,0-0.7h0c0,0-0.8,2.1-3.2,2.1
			c-1.6,0-3.3-0.9-3.3-2.9C154.9,395.8,159.1,395.7,160.8,395.7z M158.4,400.8c1.8,0,3-1.9,3-3.6v-0.4h-0.6c-1.5,0-4.6,0-4.6,2.2
			C156.2,399.8,156.9,400.8,158.4,400.8z"/>
		<path fill="#FFFFFF" d="M165.6,399.3c0,0,1.1,1.5,3,1.5c1.1,0,2-0.5,2-1.5c0-2.1-5.4-1.7-5.4-4.8c0-1.7,1.5-2.6,3.4-2.6
			c1,0,2.9,0.4,2.9,1.7v0.8h-1.2v-0.5c0-0.7-1-1-1.7-1c-1.3,0-2.2,0.5-2.2,1.4c0,2.2,5.4,1.7,5.4,4.9c0,1.6-1.5,2.7-3.4,2.7
			c-2.5,0-3.7-1.7-3.7-1.7L165.6,399.3z"/>
		<path fill="#FFFFFF" d="M179.7,393.1h-1.2V392h1.2v-0.3c0-3.2,2.2-3.6,3.3-3.6c0.4,0,0.6,0,0.6,0v1.2c0,0-0.2,0-0.5,0
			c-0.7,0-2.2,0.3-2.2,2.4v0.3h2.5v1.1H181v8.6h-1.3V393.1z"/>
		<path fill="#FFFFFF" d="M188.9,391.7c2.7,0,4.1,2.1,4.1,4.5c0,0.2,0,0.7,0,0.7h-7.4c0,2.4,1.7,3.8,3.7,3.8c1.8,0,2.9-1.2,2.9-1.2
			l0.6,1c0,0-1.4,1.4-3.6,1.4c-2.9,0-5.1-2.1-5.1-5.1C184.2,393.6,186.3,391.7,188.9,391.7z M191.6,395.8c-0.1-2-1.3-3-2.7-3
			c-1.6,0-3,1-3.3,3H191.6z"/>
		<path fill="#FFFFFF" d="M195.6,393.5c0-0.3-0.2-0.4-0.4-0.4h-0.8V392h1.3c0.8,0,1.2,0.3,1.2,1.1v0.7c0,0.4,0,0.7,0,0.7h0
			c0.5-1.5,1.5-2.6,3.1-2.6c0.3,0,0.5,0.1,0.5,0.1v1.3c0,0-0.2,0-0.5,0c-1.4,0-2.4,1.1-2.8,2.5c-0.2,0.6-0.3,1.3-0.3,1.9v4.1h-1.3
			V393.5z"/>
		<path fill="#FFFFFF" d="M202.7,393.5c0-0.3-0.2-0.4-0.4-0.4h-0.8V392h1.3c0.8,0,1.2,0.3,1.2,1.1v0.7c0,0.4,0,0.7,0,0.7h0
			c0.5-1.5,1.5-2.6,3.1-2.6c0.3,0,0.5,0.1,0.5,0.1v1.3c0,0-0.2,0-0.5,0c-1.4,0-2.4,1.1-2.8,2.5c-0.2,0.6-0.3,1.3-0.3,1.9v4.1h-1.3
			V393.5z"/>
		<path fill="#FFFFFF" d="M214,395.7h0.5v-0.1c0-2-0.7-2.7-2.5-2.7c-0.5,0-1.9,0.1-1.9,0.8v0.6h-1.3v-0.9c0-1.3,2.3-1.6,3.2-1.6
			c3.1,0,3.8,1.6,3.8,3.7v4.6c0,0.3,0.2,0.4,0.4,0.4h0.8v1.1h-1.3c-0.8,0-1.2-0.4-1.2-1.2c0-0.4,0-0.7,0-0.7h0c0,0-0.8,2.1-3.2,2.1
			c-1.6,0-3.3-0.9-3.3-2.9C208.1,395.8,212.4,395.7,214,395.7z M211.6,400.8c1.8,0,3-1.9,3-3.6v-0.4H214c-1.5,0-4.6,0-4.6,2.2
			C209.5,399.8,210.2,400.8,211.6,400.8z"/>
		<path fill="#FFFFFF" d="M219.2,393.5c0-0.3-0.2-0.4-0.4-0.4H218V392h1.3c0.8,0,1.2,0.3,1.2,1.1v0.4c0,0.4,0,0.7,0,0.7h0
			c0.5-1.3,2-2.4,3.5-2.4c1.8,0,2.7,0.8,3,2.4h0c0.5-1.3,1.9-2.4,3.6-2.4c2.3,0,3.2,1.4,3.2,3.7v4.6c0,0.3,0.2,0.4,0.4,0.4h0.8v1.1
			h-1.4c-0.8,0-1.2-0.3-1.2-1.2v-4.7c0-1.6-0.3-2.9-2.1-2.9c-1.5,0-2.7,1.3-3.1,2.7c-0.1,0.4-0.2,0.9-0.2,1.4v4.6h-1.3v-5.8
			c0-1.5-0.2-2.9-2-2.9c-1.6,0-2.7,1.4-3.2,2.8c-0.1,0.4-0.2,0.8-0.2,1.3v4.6h-1.3V393.5z"/>
		<path fill="#FFFFFF" d="M241,391.7c2.7,0,4.1,2.1,4.1,4.5c0,0.2,0,0.7,0,0.7h-7.4c0,2.4,1.7,3.8,3.7,3.8c1.8,0,2.9-1.2,2.9-1.2
			l0.6,1c0,0-1.4,1.4-3.6,1.4c-2.9,0-5.1-2.1-5.1-5.1C236.2,393.6,238.4,391.7,241,391.7z M243.7,395.8c-0.1-2-1.3-3-2.7-3
			c-1.6,0-3,1-3.3,3H243.7z"/>
		<path fill="#FFFFFF" d="M247.6,393.5c0-0.3-0.2-0.4-0.4-0.4h-0.8V392h1.3c0.8,0,1.2,0.3,1.2,1.1v0.4c0,0.4,0,0.7,0,0.7h0
			c0.3-0.9,1.6-2.4,3.8-2.4c2.4,0,3.2,1.4,3.2,3.7v4.6c0,0.3,0.2,0.4,0.4,0.4h0.8v1.1h-1.4c-0.8,0-1.2-0.3-1.2-1.2v-4.6
			c0-1.5-0.2-2.9-2.1-2.9c-1.7,0-3.1,1.1-3.5,2.7c-0.1,0.4-0.2,0.8-0.2,1.3v4.6h-1.3V393.5z"/>
		<path fill="#FFFFFF" d="M259.4,393.1h-1.3V392h1.3v-2.7h1.3v2.7h2.4v1.1h-2.4v4.9c0,2.3,1.4,2.6,2.2,2.6c0.3,0,0.4,0,0.4,0v1.2
			c0,0-0.2,0-0.6,0c-1.1,0-3.4-0.4-3.4-3.6V393.1z"/>
		<path fill="#FFFFFF" d="M270.6,395.7h0.5v-0.1c0-2-0.7-2.7-2.5-2.7c-0.5,0-1.9,0.1-1.9,0.8v0.6h-1.3v-0.9c0-1.3,2.3-1.6,3.2-1.6
			c3.1,0,3.8,1.6,3.8,3.7v4.6c0,0.3,0.2,0.4,0.4,0.4h0.8v1.1h-1.3c-0.8,0-1.2-0.4-1.2-1.2c0-0.4,0-0.7,0-0.7h0c0,0-0.8,2.1-3.2,2.1
			c-1.6,0-3.3-0.9-3.3-2.9C264.7,395.8,269,395.7,270.6,395.7z M268.2,400.8c1.8,0,3-1.9,3-3.6v-0.4h-0.6c-1.5,0-4.6,0-4.6,2.2
			C266.1,399.8,266.8,400.8,268.2,400.8z"/>
		<path fill="#FFFFFF" d="M275.4,399.3c0,0,1.1,1.5,3,1.5c1.1,0,2-0.5,2-1.5c0-2.1-5.4-1.7-5.4-4.8c0-1.7,1.5-2.6,3.4-2.6
			c1,0,2.9,0.4,2.9,1.7v0.8h-1.2v-0.5c0-0.7-1-1-1.7-1c-1.3,0-2.2,0.5-2.2,1.4c0,2.2,5.4,1.7,5.4,4.9c0,1.6-1.5,2.7-3.4,2.7
			c-2.5,0-3.7-1.7-3.7-1.7L275.4,399.3z"/>
		<path fill="#FFFFFF" d="M293,391.7c2.3,0,3.2,1.8,3.2,1.8h0c0,0,0-0.3,0-0.7v-3.1c0-0.3-0.2-0.4-0.4-0.4h-0.8v-1.1h1.4
			c0.8,0,1.2,0.3,1.2,1.2v10.8c0,0.3,0.2,0.4,0.4,0.4h0.8v1.1h-1.3c-0.8,0-1.2-0.4-1.2-1.1c0-0.4,0-0.6,0-0.6h0c0,0-0.8,1.9-3.3,1.9
			c-2.6,0-4.2-2.1-4.2-5.1C288.6,393.7,290.4,391.7,293,391.7z M296.2,396.8c0-2-1-3.9-3.1-3.9c-1.7,0-3.1,1.4-3.1,3.9
			c0,2.4,1.2,3.9,3.1,3.9C294.6,400.7,296.2,399.5,296.2,396.8z"/>
		<path fill="#FFFFFF" d="M300.9,393.5c0-0.3-0.2-0.4-0.4-0.4h-0.8V392h1.4c0.8,0,1.2,0.3,1.2,1.2v6.9c0,0.3,0.2,0.4,0.4,0.4h0.8
			v1.1h-1.4c-0.8,0-1.2-0.3-1.2-1.2V393.5z M300.8,388.1h1.3v1.7h-1.3V388.1z"/>
		<path fill="#FFFFFF" d="M305.2,399.3c0,0,1.1,1.5,3,1.5c1.1,0,2-0.5,2-1.5c0-2.1-5.4-1.7-5.4-4.8c0-1.7,1.5-2.6,3.4-2.6
			c1,0,2.9,0.4,2.9,1.7v0.8H310v-0.5c0-0.7-1-1-1.7-1c-1.3,0-2.2,0.5-2.2,1.4c0,2.2,5.4,1.7,5.4,4.9c0,1.6-1.5,2.7-3.4,2.7
			c-2.5,0-3.7-1.7-3.7-1.7L305.2,399.3z"/>
		<path fill="#FFFFFF" d="M314.1,393.5c0-0.3-0.2-0.4-0.4-0.4h-0.8V392h1.3c0.8,0,1.2,0.3,1.2,1c0,0.4,0,0.7,0,0.7h0
			c0,0,0.8-1.9,3.3-1.9c2.6,0,4.2,2.1,4.2,5.1c0,3.1-1.8,5.1-4.3,5.1c-2.4,0-3.2-1.8-3.2-1.8h0c0,0,0,0.3,0,0.8v4.6h-1.3V393.5z
			 M318.4,400.7c1.7,0,3.1-1.4,3.1-3.9c0-2.4-1.3-3.9-3.1-3.9c-1.6,0-3.1,1.2-3.1,3.9C315.3,398.8,316.4,400.7,318.4,400.7z"/>
		<path fill="#FFFFFF" d="M329.6,391.7c2.8,0,5.1,2.2,5.1,5c0,2.9-2.3,5.1-5.1,5.1c-2.8,0-5.1-2.2-5.1-5.1
			C324.5,393.9,326.7,391.7,329.6,391.7z M329.6,400.7c2.1,0,3.7-1.7,3.7-3.9c0-2.2-1.7-3.8-3.7-3.8c-2.1,0-3.8,1.6-3.8,3.8
			C325.8,399,327.5,400.7,329.6,400.7z"/>
		<path fill="#FFFFFF" d="M337.1,393.5c0-0.3-0.2-0.4-0.4-0.4h-0.8V392h1.3c0.8,0,1.2,0.3,1.2,1.1v0.4c0,0.4,0,0.7,0,0.7h0
			c0.3-0.9,1.6-2.4,3.8-2.4c2.4,0,3.3,1.4,3.3,3.7v4.6c0,0.3,0.2,0.4,0.4,0.4h0.8v1.1h-1.4c-0.8,0-1.2-0.3-1.2-1.2v-4.6
			c0-1.5-0.2-2.9-2.1-2.9c-1.7,0-3.1,1.1-3.5,2.7c-0.1,0.4-0.2,0.8-0.2,1.3v4.6h-1.3V393.5z"/>
		<path fill="#FFFFFF" d="M348.9,393.5c0-0.3-0.2-0.4-0.4-0.4h-0.8V392h1.4c0.8,0,1.2,0.3,1.2,1.2v6.9c0,0.3,0.2,0.4,0.4,0.4h0.8
			v1.1h-1.4c-0.8,0-1.2-0.3-1.2-1.2V393.5z M350.2,388.1h1.5l-1.7,2.3h-1.1L350.2,388.1z"/>
		<path fill="#FFFFFF" d="M353,393.5c-0.1-0.3-0.3-0.4-0.7-0.4h-0.2V392h0.5c0.9,0,1.2,0.2,1.5,1.1l2.3,6c0.2,0.5,0.3,1.1,0.3,1.1h0
			c0,0,0.2-0.7,0.3-1.1l2.3-6c0.3-0.9,0.6-1.1,1.5-1.1h0.5v1.1h-0.2c-0.3,0-0.6,0.1-0.7,0.4l-3.2,8.1h-1.4L353,393.5z"/>
		<path fill="#FFFFFF" d="M367.2,391.7c2.7,0,4.1,2.1,4.1,4.5c0,0.2,0,0.7,0,0.7h-7.4c0,2.4,1.8,3.8,3.7,3.8c1.8,0,2.9-1.2,2.9-1.2
			l0.6,1c0,0-1.4,1.4-3.6,1.4c-2.9,0-5.1-2.1-5.1-5.1C362.4,393.6,364.6,391.7,367.2,391.7z M369.9,395.8c-0.1-2-1.3-3-2.7-3
			c-1.6,0-3,1-3.3,3H369.9z"/>
		<path fill="#FFFFFF" d="M373.9,393.5c0-0.3-0.2-0.4-0.4-0.4h-0.8V392h1.4c0.8,0,1.2,0.3,1.2,1.2v6.9c0,0.3,0.2,0.4,0.4,0.4h0.8
			v1.1h-1.4c-0.8,0-1.2-0.3-1.2-1.2V393.5z M373.9,388.1h1.3v1.7h-1.3V388.1z"/>
		<path fill="#FFFFFF" d="M378.3,399.3c0,0,1.1,1.5,3,1.5c1.1,0,2-0.5,2-1.5c0-2.1-5.4-1.7-5.4-4.8c0-1.7,1.5-2.6,3.4-2.6
			c1,0,2.9,0.4,2.9,1.7v0.8h-1.2v-0.5c0-0.7-1-1-1.7-1c-1.3,0-2.2,0.5-2.2,1.4c0,2.2,5.4,1.7,5.4,4.9c0,1.6-1.5,2.7-3.4,2.7
			c-2.5,0-3.7-1.7-3.7-1.7L378.3,399.3z"/>
		<path fill="#FFFFFF" d="M388.4,400.1l-1.4,3.4h-1.1l1.1-3.4H388.4z"/>
		<path fill="#FFFFFF" d="M400,391.7c2.4,0,3.2,1.9,3.2,1.9h0c0,0,0-0.3,0-0.6c0-0.7,0.3-1,1.2-1h1.3v1.1h-0.8
			c-0.3,0-0.4,0.2-0.4,0.4v12h-1.3v-4.6c0-0.5,0-0.8,0-0.8h0c0,0-0.8,1.9-3.3,1.9c-2.6,0-4.2-2.1-4.2-5.1
			C395.7,393.7,397.5,391.7,400,391.7z M403.2,396.8c0-2-1-3.9-3.1-3.9c-1.7,0-3.1,1.4-3.1,3.9c0,2.4,1.3,3.9,3.1,3.9
			C401.7,400.7,403.2,399.5,403.2,396.8z"/>
		<path fill="#FFFFFF" d="M407.8,393.5c0-0.3-0.2-0.4-0.4-0.4h-0.8V392h1.4c0.8,0,1.2,0.3,1.2,1.1v4.7c0,1.5,0.3,2.9,2.1,2.9
			c2.2,0,3.6-1.9,3.6-4V392h1.3v8.1c0,0.3,0.2,0.4,0.4,0.4h0.8v1.1H416c-0.8,0-1.2-0.3-1.2-1.1v-0.4c0-0.4,0-0.7,0-0.7h0
			c-0.4,0.9-1.7,2.4-3.8,2.4c-2.3,0-3.3-1.2-3.3-3.7V393.5z"/>
		<path fill="#FFFFFF" d="M423.3,391.7c2.7,0,4.1,2.1,4.1,4.5c0,0.2,0,0.7,0,0.7h-7.4c0,2.4,1.8,3.8,3.7,3.8c1.8,0,2.9-1.2,2.9-1.2
			l0.6,1c0,0-1.4,1.4-3.6,1.4c-2.9,0-5.1-2.1-5.1-5.1C418.5,393.6,420.7,391.7,423.3,391.7z M426,395.8c-0.1-2-1.3-3-2.7-3
			c-1.6,0-3,1-3.3,3H426z"/>
		<path fill="#FFFFFF" d="M429.9,393.5c0-0.3-0.2-0.4-0.4-0.4h-0.8V392h1.3c0.8,0,1.2,0.3,1.2,1.1v0.7c0,0.4,0,0.7,0,0.7h0
			c0.5-1.5,1.5-2.6,3.1-2.6c0.3,0,0.5,0.1,0.5,0.1v1.3c0,0-0.2,0-0.5,0c-1.4,0-2.4,1.1-2.8,2.5c-0.2,0.6-0.3,1.3-0.3,1.9v4.1h-1.3
			V393.5z"/>
		<path fill="#FFFFFF" d="M440.4,391.7c2.7,0,4.1,2.1,4.1,4.5c0,0.2,0,0.7,0,0.7H437c0,2.4,1.8,3.8,3.7,3.8c1.8,0,2.9-1.2,2.9-1.2
			l0.6,1c0,0-1.4,1.4-3.6,1.4c-2.9,0-5.1-2.1-5.1-5.1C435.6,393.6,437.8,391.7,440.4,391.7z M443.1,395.8c-0.1-2-1.3-3-2.7-3
			c-1.6,0-3,1-3.3,3H443.1z"/>
		<path fill="#FFFFFF" d="M447,393.5c0-0.3-0.2-0.4-0.4-0.4h-0.8V392h1.3c0.8,0,1.2,0.3,1.2,1.1v0.4c0,0.4,0,0.7,0,0.7h0
			c0.5-1.3,2-2.4,3.5-2.4c1.8,0,2.7,0.8,3,2.4h0c0.5-1.3,1.9-2.4,3.6-2.4c2.3,0,3.2,1.4,3.2,3.7v4.6c0,0.3,0.2,0.4,0.4,0.4h0.8v1.1
			h-1.4c-0.8,0-1.2-0.3-1.2-1.2v-4.7c0-1.6-0.3-2.9-2.1-2.9c-1.5,0-2.7,1.3-3.1,2.7c-0.1,0.4-0.2,0.9-0.2,1.4v4.6h-1.3v-5.8
			c0-1.5-0.2-2.9-2-2.9c-1.6,0-2.7,1.4-3.2,2.8c-0.1,0.4-0.2,0.8-0.2,1.3v4.6H447V393.5z"/>
		<path fill="#FFFFFF" d="M469.1,391.7c2.8,0,5.1,2.2,5.1,5c0,2.9-2.3,5.1-5.1,5.1c-2.8,0-5.1-2.2-5.1-5.1
			C464,393.9,466.3,391.7,469.1,391.7z M469.2,400.7c2.1,0,3.7-1.7,3.7-3.9c0-2.2-1.7-3.8-3.7-3.8c-2.1,0-3.8,1.6-3.8,3.8
			C465.4,399,467.1,400.7,469.2,400.7z"/>
		<path fill="#FFFFFF" d="M476.3,399.3c0,0,1.1,1.5,3,1.5c1.1,0,2-0.5,2-1.5c0-2.1-5.4-1.7-5.4-4.8c0-1.7,1.5-2.6,3.4-2.6
			c1,0,2.9,0.4,2.9,1.7v0.8h-1.2v-0.5c0-0.7-1-1-1.7-1c-1.3,0-2.2,0.5-2.2,1.4c0,2.2,5.4,1.7,5.4,4.9c0,1.6-1.5,2.7-3.4,2.7
			c-2.5,0-3.7-1.7-3.7-1.7L476.3,399.3z"/>
		<path fill="#FFFFFF" d="M494.6,391.7c2.8,0,5.1,2.2,5.1,5c0,2.9-2.3,5.1-5.1,5.1c-2.8,0-5.1-2.2-5.1-5.1
			C489.5,393.9,491.8,391.7,494.6,391.7z M494.6,400.7c2.1,0,3.7-1.7,3.7-3.9c0-2.2-1.7-3.8-3.7-3.8c-2.1,0-3.8,1.6-3.8,3.8
			C490.8,399,492.5,400.7,494.6,400.7z"/>
		<path fill="#FFFFFF" d="M502.1,393.5c0-0.3-0.2-0.4-0.4-0.4h-0.8V392h1.4c0.8,0,1.2,0.3,1.2,1.1v4.7c0,1.5,0.3,2.9,2.1,2.9
			c2.2,0,3.6-1.9,3.6-4V392h1.3v8.1c0,0.3,0.2,0.4,0.4,0.4h0.8v1.1h-1.3c-0.8,0-1.2-0.3-1.2-1.1v-0.4c0-0.4,0-0.7,0-0.7h0
			c-0.4,0.9-1.7,2.4-3.8,2.4c-2.3,0-3.3-1.2-3.3-3.7V393.5z"/>
		<path fill="#FFFFFF" d="M513.2,393.5c-0.1-0.3-0.3-0.4-0.7-0.4h-0.2V392h0.5c0.9,0,1.2,0.2,1.5,1.1l2.3,6c0.2,0.5,0.3,1.1,0.3,1.1
			h0c0,0,0.2-0.7,0.3-1.1l2.3-6c0.3-0.9,0.6-1.1,1.5-1.1h0.5v1.1h-0.2c-0.3,0-0.6,0.1-0.7,0.4l-3.2,8.1h-1.4L513.2,393.5z"/>
		<path fill="#FFFFFF" d="M523.8,393.5c0-0.3-0.2-0.4-0.4-0.4h-0.8V392h1.4c0.8,0,1.2,0.3,1.2,1.2v6.9c0,0.3,0.2,0.4,0.4,0.4h0.8
			v1.1H525c-0.8,0-1.2-0.3-1.2-1.2V393.5z M523.7,388.1h1.3v1.7h-1.3V388.1z"/>
		<path fill="#FFFFFF" d="M528.5,393.5c0-0.3-0.2-0.4-0.4-0.4h-0.8V392h1.3c0.8,0,1.2,0.3,1.2,1.1v0.7c0,0.4,0,0.7,0,0.7h0
			c0.5-1.5,1.5-2.6,3.1-2.6c0.3,0,0.5,0.1,0.5,0.1v1.3c0,0-0.2,0-0.5,0c-1.4,0-2.4,1.1-2.8,2.5c-0.2,0.6-0.3,1.3-0.3,1.9v4.1h-1.3
			V393.5z"/>
		<path fill="#FFFFFF" d="M540.1,393.5c-0.1-0.3-0.3-0.4-0.7-0.4h-0.2V392h0.5c0.9,0,1.2,0.2,1.5,1.1l2.3,6c0.2,0.5,0.3,1.1,0.3,1.1
			h0c0,0,0.2-0.7,0.3-1.1l2.3-6c0.3-0.9,0.6-1.1,1.5-1.1h0.5v1.1h-0.2c-0.3,0-0.6,0.1-0.7,0.4l-3.2,8.1h-1.4L540.1,393.5z"/>
		<path fill="#FFFFFF" d="M554.7,391.7c2.8,0,5.1,2.2,5.1,5c0,2.9-2.3,5.1-5.1,5.1c-2.8,0-5.1-2.2-5.1-5.1
			C549.6,393.9,551.8,391.7,554.7,391.7z M554.7,400.7c2.1,0,3.7-1.7,3.7-3.9c0-2.2-1.7-3.8-3.7-3.8c-2.1,0-3.8,1.6-3.8,3.8
			C550.9,399,552.6,400.7,554.7,400.7z"/>
		<path fill="#FFFFFF" d="M566.4,391.7c1.1,0,3.4,0.5,3.4,2.1v0.9h-1.2v-0.6c0-0.8-1.4-1.2-2.2-1.2c-2.1,0-3.7,1.6-3.7,3.9
			c0,2.4,1.7,3.9,3.8,3.9c2,0,3.1-1.4,3.1-1.4l0.6,1c0,0-1.3,1.6-3.8,1.6c-2.9,0-5.1-2.1-5.1-5.1
			C561.3,393.9,563.5,391.7,566.4,391.7z"/>
		<path fill="#FFFFFF" d="M576.2,391.7c2.7,0,4.1,2.1,4.1,4.5c0,0.2,0,0.7,0,0.7h-7.4c0,2.4,1.8,3.8,3.7,3.8c1.8,0,2.9-1.2,2.9-1.2
			l0.6,1c0,0-1.4,1.4-3.6,1.4c-2.9,0-5.1-2.1-5.1-5.1C571.5,393.6,573.6,391.7,576.2,391.7z M578.9,395.8c-0.1-2-1.3-3-2.7-3
			c-1.6,0-3,1-3.3,3H578.9z M575.5,388.1h1.3l1.6,2.3h-1.2l-1-1.6h0l-1,1.6h-1.2L575.5,388.1z"/>
		<path fill="#FFFFFF" d="M583.4,400.2h1.5v1.5h-1.5V400.2z M583.4,388.1h1.3l-0.1,10h-1.2L583.4,388.1z"/>
	</g>
</g>
</svg>
