<?xml version="1.0" encoding="utf-8"?>
<!-- Generator: Adobe Illustrator 18.0.0, SVG Export Plug-In . SVG Version: 6.00 Build 0)  -->
<!DOCTYPE svg PUBLIC "-//W3C//DTD SVG 1.1//EN" "http://www.w3.org/Graphics/SVG/1.1/DTD/svg11.dtd">
<svg version="1.1" id="Layer_1" xmlns="http://www.w3.org/2000/svg" xmlns:xlink="http://www.w3.org/1999/xlink" x="0px" y="0px"
	 viewBox="0 0 860.7 150" enable-background="new 0 0 860.7 150" xml:space="preserve">
<circle fill="#D78A35" cx="75" cy="75" r="75"/>
<circle fill="#D78A35" cx="315.3" cy="75" r="75"/>
<circle fill="#D78A35" cx="555.7" cy="75" r="75"/>
<circle fill="#D78A35" cx="785.7" cy="75" r="75"/>
<path fill="#FFFFFF" d="M116.2,53.9L96.6,34.3c-1-1-2.5-1.3-3.9-1.3c-1.5,0-2.9,0.9-3.9,2L40.6,81.8c-1.4,1.4-3,3.8-3.5,5.8
	l-4.7,23.9c-0.4,1.5-0.1,2.9,0.7,4c0.8,1,2,1.6,3.4,1.6c0.4,0,0.9,0,1.4-0.1l24.1-4.5c2-0.5,4.7-1.8,6.1-3.2l48.1-46.7
	c1-1,1.6-2.8,1.6-4.3C117.8,56.7,117.3,55,116.2,53.9z M54.7,91.2l46.1-44.8l3.9,3.9L58.6,95.1L54.7,91.2z M93,38.6l3.9,3.9
	L50.8,87.3l-3.9-3.9L93,38.6z M60.6,107.1L44.1,110l-4.7-4.7l3.1-16.4c0.1-0.4,0.4-0.9,0.7-1.4l19.1,19.1
	C61.6,106.8,61.1,107,60.6,107.1z M66.5,103l-3.9-3.9l46.1-44.8l3.9,3.9L66.5,103z"/>
<path fill="#FFFFFF" d="M315.4,55.1C315.4,55.1,315.4,55.1,315.4,55.1c-1.6,0-3,1.3-3,2.9l-0.1,18.5c0,1.6,1.3,3,2.9,3c0,0,0,0,0,0
	c0,0,0,0,0,0c0,0,0,0,0,0c0.1,0,0.2,0,0.3,0c0.1,0,0.2,0,0.2,0c0.3-0.1,0.6-0.1,0.9-0.3l23.4-13c1.4-0.8,1.9-2.6,1.1-4
	c-0.8-1.4-2.6-1.9-4-1.1l-19,10.6l0.1-13.5C318.4,56.4,317,55.1,315.4,55.1z M359.6,75c0-24.4-19.8-44.3-44.3-44.3
	c-24.4,0-44.3,19.8-44.3,44.3c0,3.8,0.5,7.6,1.4,11.1c0.7-4.2,4.3-7.4,8.7-7.4h0.4c-0.1-1.2-0.2-2.5-0.2-3.8
	c0-18.7,15.2-33.9,33.9-33.9s33.9,15.2,33.9,33.9s-15.2,33.9-33.9,33.9c-1.1,0-2.1-0.1-3.2-0.2v1c0,4-2.7,7.4-6.3,8.5
	c3,0.7,6.2,1,9.5,1C339.8,119.3,359.6,99.4,359.6,75z M303.3,81.7h-21.3h-0.9c-3.3,0-6.6,2.7-6.6,6v6.3v15.9c0,3.3,3.4,5.8,6.6,5.8
	h16.6h5.5c3.3,0,5.2-2.6,5.2-5.8v-1.4V87.6C308.5,84.4,306.6,81.7,303.3,81.7z M305.5,94.9l-13.8,13.8c-0.4,0.4-0.9,0.6-1.5,0.6
	c-0.6,0-1.1-0.2-1.5-0.6l-9.6-9.6c-0.4-0.4-0.6-0.9-0.6-1.5c0-0.6,0.2-1.1,0.6-1.5l3.3-3.3c0.4-0.4,0.9-0.6,1.5-0.6
	c0.6,0,1.1,0.2,1.5,0.6l4.8,4.8l9-9c0.4-0.4,0.9-0.6,1.5-0.6c0.6,0,1.1,0.2,1.5,0.6l3.3,3.3c0.4,0.4,0.6,0.9,0.6,1.5
	C306.1,94,305.9,94.5,305.5,94.9z"/>
<g>
	<path fill="#FFFFFF" d="M556.4,33.8h-2.1c-1.1,0-2-0.9-2-2v-0.1c0-2.6-2.1-4.7-4.7-4.7h-0.1c-2.6,0-4.7,2.1-4.7,4.7v0.1
		c0,1.1-0.9,2-2,2h-2.1c-2.3,0-4.1,1.8-4.1,4.1V38c0,2.3,1.8,4.1,4.1,4.1h17.9c2.3,0,4.1-1.8,4.1-4.1v-0.1
		C560.5,35.7,558.6,33.8,556.4,33.8z M547.4,33.8c-1.1,0-2.1-0.9-2.1-2.1c0-1.1,0.9-2.1,2.1-2.1c1.1,0,2.1,0.9,2.1,2.1
		C549.5,32.9,548.6,33.8,547.4,33.8z M556.6,113.4h-34.5c-3,0-5.5-2.5-5.5-5.5V42.1c0-3,2.5-5.5,4.1-5.5h11.1
		c-0.1,0.5-0.1,0.9-0.1,1.4c0,3.8,3.1,6.8,6.8,6.8h17.9c3.8,0,6.8-3.1,6.8-6.9c0-0.5,0-0.9-0.1-1.3h8.4c4.4,0,6.9,2.5,6.9,5.5v41.2
		c-0.5,0-0.9-0.1-1.4-0.1c-1.9,0-3.7,0.3-5.5,0.7V51.7h-48v54.9h31.6C555.2,109,555.7,111.3,556.6,113.4z M576.9,87.3
		c-9.9,0-17.8,8-17.8,17.8c0,9.9,8,17.8,17.8,17.8c9.9,0,17.8-8,17.8-17.8S586.8,87.3,576.9,87.3z M588.6,101.5l-11,12.3
		c-0.5,0.6-1.3,0.9-2.1,0.9c-0.6,0-1.2-0.2-1.7-0.6l-6.9-5.5c-1.2-0.9-1.4-2.7-0.4-3.9c0.9-1.2,2.7-1.4,3.9-0.4l4.8,3.9l9.2-10.4
		c1-1.1,2.7-1.2,3.9-0.2C589.5,98.7,589.6,100.4,588.6,101.5z M564.6,75h-22c-0.8,0-1.4-0.6-1.4-1.4v-1.4c0-0.8,0.6-1.4,1.4-1.4h22
		c0.8,0,1.4,0.6,1.4,1.4v1.4C566,74.4,565.3,75,564.6,75z M564.6,62.7h-22c-0.8,0-1.4-0.6-1.4-1.4v-1.4c0-0.8,0.6-1.4,1.4-1.4h22
		c0.8,0,1.4,0.6,1.4,1.4v1.4C566,62,565.3,62.7,564.6,62.7z M557.7,86h-15.1c-0.8,0-1.4-0.6-1.4-1.4v-1.4c0-0.8,0.6-1.4,1.4-1.4
		h15.1c0.8,0,1.4,0.6,1.4,1.4v1.4C559.1,85.4,558.5,86,557.7,86z M555,98.3h-12.3c-0.8,0-1.4-0.6-1.4-1.4v-1.4
		c0-0.8,0.6-1.4,1.4-1.4H555c0.8,0,1.4,0.6,1.4,1.4V97C556.4,97.7,555.7,98.3,555,98.3z M538.6,57.6l-5.1,5.7
		c-0.2,0.3-0.6,0.4-0.9,0.4c-0.3,0-0.6-0.1-0.8-0.3l-3.2-2.5c-0.5-0.4-0.6-1.2-0.2-1.8c0.4-0.5,1.2-0.6,1.8-0.2l2.2,1.8l4.3-4.8
		c0.5-0.5,1.3-0.6,1.8-0.1C539.1,56.3,539.1,57.1,538.6,57.6z M538.6,69.8l-5.1,5.7c-0.2,0.3-0.6,0.4-0.9,0.4
		c-0.3,0-0.6-0.1-0.8-0.3l-3.2-2.5c-0.5-0.4-0.6-1.2-0.2-1.8c0.4-0.5,1.2-0.6,1.8-0.2l2.2,1.8l4.3-4.8c0.5-0.5,1.3-0.6,1.8-0.1
		C539.1,68.5,539.1,69.3,538.6,69.8z M538.6,81.5l-5.1,5.7c-0.2,0.3-0.6,0.4-0.9,0.4c-0.3,0-0.6-0.1-0.8-0.3l-3.2-2.5
		c-0.5-0.4-0.6-1.2-0.2-1.8c0.4-0.5,1.2-0.6,1.8-0.2l2.2,1.8l4.3-4.8c0.5-0.5,1.3-0.6,1.8-0.1C539.1,80.1,539.1,80.9,538.6,81.5z
		 M538.6,93.2l-5.1,5.7c-0.2,0.3-0.6,0.4-0.9,0.4c-0.3,0-0.6-0.1-0.8-0.3l-3.2-2.5c-0.5-0.4-0.6-1.2-0.2-1.8
		c0.4-0.5,1.2-0.6,1.8-0.2l2.2,1.8l4.3-4.8c0.5-0.5,1.3-0.6,1.8-0.1C539.1,91.9,539.1,92.7,538.6,93.2z"/>
</g>
<path fill-rule="evenodd" clip-rule="evenodd" fill="#FFFFFF" d="M819,77.2l-16.3-2l0.8-0.8c0.8-0.8,1-1.8,0.7-2.8l1.8-1.9
	c4.2,3.2,10.2,2.9,14-0.9c4.1-4.1,4.1-10.9,0-15c-4.1-4.1-10.9-4.1-15,0c-3.8,3.8-4.1,9.8-0.9,14l-1.9,1.9c-1-0.3-2,0-2.8,0.7l-4,4
	l-9.9-1.2l8.1,16.5h33.5L819,77.2L819,77.2z M792.2,32.9l13.4,6.2c0.9,0.4,1.3,1.5,0.9,2.5l-11.7,25.1c-0.4,0.9-1.5,1.3-2.4,0.9
	L779,61.3c-0.9-0.4-1.3-1.5-0.9-2.4l11.7-25.1C790.2,32.8,791.3,32.4,792.2,32.9L792.2,32.9z M795.8,36.9c-0.2-0.1-0.5,0-0.6,0.2v0
	c-0.1,0.2,0,0.5,0.2,0.6l4.5,2.1c0.2,0.1,0.5,0,0.6-0.2v0c0.1-0.2,0-0.5-0.2-0.6L795.8,36.9L795.8,36.9z M787.4,60.7
	c0.8,0.4,1.1,1.3,0.7,2c-0.4,0.8-1.3,1.1-2,0.7c-0.8-0.4-1.1-1.3-0.7-2C785.7,60.7,786.6,60.4,787.4,60.7L787.4,60.7z M790.5,37.7
	l12.5,5.8c0.3,0.1,0.4,0.5,0.3,0.7l-8.5,18.2c-0.1,0.3-0.5,0.4-0.7,0.3l-12.5-5.8c-0.3-0.1-0.4-0.5-0.3-0.7l8.5-18.2
	C789.9,37.7,790.2,37.5,790.5,37.7L790.5,37.7z M752.2,63.5L752.2,63.5c-2.7-5-0.8-11.1,4.1-13.8l0,0c0.5-0.3,1.1-0.1,1.4,0.4
	c0.3,0.5,0.1,1.1-0.4,1.4c-4,2.1-5.4,7.1-3.3,11.1c0.3,0.5,0.1,1.1-0.4,1.4C753.1,64.2,752.4,64,752.2,63.5L752.2,63.5z M754.4,46.1
	c6.9-3.7,15.6-1.2,19.3,5.8c1.7,3.2,2.1,6.7,1.4,9.9c-0.7,3-0.7,6.2,0.1,9.3l0,0c0.1,0.6-0.1,1.3-0.7,1.7l0,0l-4.2,2.2
	c5.1-0.6,10.3-1.2,15.4-1.9l-8.1,16.5h-33.5l8.2-12.5l10.3-1.2c-1.9-1.7-4.1-3.1-6.5-4c-3.3-1.3-5.9-3.5-7.6-6.6
	C744.8,58.5,747.4,49.8,754.4,46.1L754.4,46.1z M807,55.8c3.1-3.1,8.1-3.1,11.1,0c3.1,3.1,3.1,8.1,0,11.1C815,70,810,70,807,66.9
	C803.9,63.9,803.9,58.9,807,55.8L807,55.8z M752.3,92.3v21.1l32.8,4l-1.9-33.4l-4.1,8.4H752.3L752.3,92.3z M786.2,117.3l1.9-33.4
	l4.1,8.4H819v21.1L786.2,117.3L786.2,117.3z"/>
</svg>
