<?xml version="1.0" encoding="utf-8"?>
<!-- Generator: Adobe Illustrator 18.0.0, SVG Export Plug-In . SVG Version: 6.00 Build 0)  -->
<!DOCTYPE svg PUBLIC "-//W3C//DTD SVG 1.1//EN" "http://www.w3.org/Graphics/SVG/1.1/DTD/svg11.dtd">
<svg version="1.1" id="Layer_1" xmlns="http://www.w3.org/2000/svg" xmlns:xlink="http://www.w3.org/1999/xlink" x="0px" y="0px"
	 viewBox="0 0 871 150" enable-background="new 0 0 871 150" xml:space="preserve">
<circle fill="#9AB733" cx="75" cy="75" r="75"/>
<path id="_x34__18_" fill="#FFFFFF" d="M66.2,66.2c2.4,0,4.4-2,4.4-4.4c0-2.4-2-4.4-4.4-4.4c-2.4,0-4.4,2-4.4,4.4
	C61.8,64.2,63.8,66.2,66.2,66.2z M83.8,66.2c2.4,0,4.4-2,4.4-4.4c0-2.4-2-4.4-4.4-4.4c-2.4,0-4.4,2-4.4,4.4
	C79.4,64.2,81.4,66.2,83.8,66.2z M57.8,94.8c2.3,0.4,7.5,0.8,9.9,0.8c21.1,0,35.2-15.7,35.2-34.1S85.2,28,67.7,28
	c-21.1,0-38.2,15-38.2,33.4c0,10.7,4.1,19.8,11.7,26.3v16.6L57.8,94.8z M35.4,61.8c0-15.4,14-27.9,32.3-27.9
	C82.3,33.9,97,46.4,97,61.8c0,15.4-11.5,27.9-29.4,27.9c-2.6,0-8.1-0.3-10.5-0.8l-10,6.7V85.1C39.9,79.3,35.4,71.6,35.4,61.8z
	 M108.6,54.9c0.1,0.8,0.1,1.7,0.1,2.5c0,1.9-0.2,3.7-0.4,5.5c4,4.6,6.3,10.3,6.3,16.5c0,9.8-5.8,18.4-14.7,23.4v10.4l-10-6.7
	c-2.4,0.5-5,0.8-7.6,0.8c-7.6,0-11.6-2.3-17.2-6.1c-1.6,0.1-3.2,0.2-4.9,0.2c-1.2,0-2.3-0.1-3.5-0.1c7,6.8,14.2,11.2,25.5,11.2
	c2.4,0,4.7-0.2,7-0.6l16.5,10.1v-16.7c8.9-6.1,14.7-15.6,14.7-26.3C120.5,69.5,115.9,60.9,108.6,54.9z M48.6,66.2
	c2.4,0,4.4-2,4.4-4.4c0-2.4-2-4.4-4.4-4.4c-2.4,0-4.4,2-4.4,4.4C44.2,64.2,46.1,66.2,48.6,66.2z"/>
<circle fill="#9AB733" cx="315.3" cy="75" r="75"/>
<path fill="#FFFFFF" d="M331.4,33.5c-14.2,0-25.6,9.1-25.6,20.3c0,6.7,4.1,12.6,10.4,16.3c-0.6,3.4-2.6,7.3-5.3,10.1
	c6.7-0.5,12.6-2.4,16.4-6.4c1.4,0.2,2.7,0.3,4.1,0.3c14.2,0,25.6-9.1,25.6-20.3C357.1,42.6,345.6,33.5,331.4,33.5z M319.4,57.8
	c-2.2,0-4-1.8-4-4c0-2.2,1.8-4,4-4c2.2,0,4,1.8,4,4C323.4,56,321.6,57.8,319.4,57.8z M331.4,57.8c-2.2,0-4-1.8-4-4c0-2.2,1.8-4,4-4
	c2.2,0,4,1.8,4,4C335.5,56,333.7,57.8,331.4,57.8z M343.5,57.8c-2.2,0-4-1.8-4-4c0-2.2,1.8-4,4-4c2.2,0,4,1.8,4,4
	C347.5,56,345.7,57.8,343.5,57.8z M326.5,100.5c-8.1-6.5-10.4-3.3-14.1,0.4c-2.6,2.6-9.1-2.8-14.7-8.4c-5.6-5.6-11-12.1-8.4-14.7
	c3.7-3.7,6.9-6,0.4-14.1c-6.5-8.1-10.9-1.9-14.5,1.7c-4.1,4.1-0.2,19.5,15,34.7c15.2,15.2,30.6,19.1,34.7,15
	C328.4,111.4,334.6,107,326.5,100.5z M283.7,68c-0.1,0-0.3,0.1-0.5,0.2c-0.4,0.1-0.9,0.3-1.4,0.5c-0.2,0.1-0.5,0.2-0.8,0.4
	c-0.3,0.2-0.5,0.3-0.7,0.5c-0.2,0.2-0.4,0.5-0.7,0.7c-0.2,0.3-0.4,0.6-0.5,1c-0.2,0.3-0.2,0.7-0.3,1.1c-0.1,0.4-0.1,0.8-0.1,1.2
	c0,0.8,0,1.6,0.1,2.3c0.1,0.7,0.2,1.3,0.3,1.7c0.1,0.4,0.1,0.6,0.1,0.6s-0.1-0.2-0.3-0.5c-0.2-0.4-0.6-0.8-0.9-1.5
	c-0.4-0.6-0.7-1.4-1-2.3c-0.1-0.5-0.3-0.9-0.3-1.4c-0.1-0.5-0.2-1-0.1-1.6c0-0.6,0.1-1.1,0.2-1.7c0.2-0.6,0.3-1.1,0.6-1.6
	c0.2-0.5,0.6-1,0.9-1.4c0.3-0.4,0.6-0.7,0.9-1.1c0.6-0.6,1.1-1,1.4-1.3c0.2-0.1,0.2-0.2,0.3-0.3c0.1-0.1,0.1-0.1,0.1-0.1l2.8,4.4
	C283.9,68,283.8,68,283.7,68z M325.6,109.5c-0.3,0.3-0.7,0.9-1.3,1.5c-0.3,0.3-0.6,0.6-1,0.9c-0.4,0.3-0.8,0.6-1.3,0.9
	c-0.5,0.3-1,0.5-1.5,0.7c-0.5,0.2-1.1,0.3-1.6,0.3l-0.8,0.1l-0.8,0c-0.5,0-1-0.1-1.4-0.2c-0.5-0.1-0.9-0.3-1.3-0.4
	c-0.4-0.1-0.8-0.3-1.1-0.4c-0.7-0.3-1.1-0.6-1.5-0.8c-0.4-0.2-0.6-0.3-0.6-0.3s0.2,0,0.6,0.1c0.4,0.1,1,0.2,1.7,0.2
	c0.3,0,0.7,0.1,1.1,0c0.4,0,0.8,0,1.2-0.1c0.4-0.1,0.8-0.1,1.2-0.2l0.6-0.2l0.5-0.2c1.4-0.7,2.2-1.9,2.6-2.9c0.2-0.5,0.4-1,0.5-1.3
	c0.1-0.4,0.2-0.6,0.2-0.6l4.5,2.5C326,109,325.8,109.1,325.6,109.5z"/>
<circle fill="#9AB733" cx="555.7" cy="75" r="75"/>
<path fill="#FFFFFF" d="M588.2,53.8c-0.2,0.4-0.5,0.8-0.8,1.2c-2.4,2.4-6.9,1.7-10.1-1.5c-3.2-3.2-3.9-7.8-1.6-10.1
	c0.3-0.3,0.7-0.6,1.2-0.8l-6.3-6.2l-9.2,9.2l2.3,2.3l-1.4,1.4l-2.3-2.3l-43.1,43.1L523,96c2.4-2.4,6.9-1.7,10.1,1.5
	c3.2,3.2,3.9,7.8,1.5,10.1l6.1,6.1l53.7-53.7L588.2,53.8z M569.3,56.2l-3.5-3.5l1.4-1.4l3.5,3.5L569.3,56.2z M576.4,63.3l-3.5-3.5
	l1.4-1.4l3.5,3.5L576.4,63.3z M583.5,70.4l-3.5-3.5l1.4-1.4l3.5,3.5L583.5,70.4z"/>
<circle fill="#9AB733" cx="796" cy="75" r="75"/>
<path fill="#FFFFFF" d="M761,62c1.1,0.8,4.4,3.1,9.9,6.9c5.5,3.8,9.7,6.8,12.7,8.8c0.3,0.2,1,0.7,2.1,1.5c1,0.8,1.9,1.4,2.6,1.8
	c0.7,0.5,1.5,1,2.5,1.6c1,0.6,1.9,1,2.8,1.3c0.9,0.3,1.7,0.4,2.4,0.4h0h0c0.7,0,1.5-0.1,2.4-0.4c0.9-0.3,1.8-0.7,2.8-1.3
	c1-0.6,1.8-1.1,2.5-1.6c0.7-0.5,1.6-1.1,2.6-1.8c1-0.8,1.7-1.2,2.1-1.5c3-2.1,10.5-7.3,22.6-15.7c2.4-1.6,4.3-3.6,5.9-5.9
	c1.6-2.3,2.4-4.8,2.4-7.3c0-2.1-0.8-3.9-2.3-5.5c-1.5-1.5-3.3-2.3-5.4-2.3h-71.1c-2.5,0-4.4,0.8-5.7,2.5c-1.3,1.7-2,3.8-2,6.3
	c0,2,0.9,4.2,2.7,6.6C757.1,58.7,759,60.6,761,62z M834.5,67.1c-10.6,7.2-18.6,12.7-24.1,16.7c-1.8,1.4-3.3,2.4-4.5,3.2
	c-1.1,0.8-2.7,1.5-4.6,2.3c-1.9,0.8-3.7,1.2-5.3,1.2h0h0c-1.6,0-3.4-0.4-5.3-1.2c-1.9-0.8-3.4-1.6-4.6-2.3c-1.1-0.8-2.6-1.8-4.5-3.2
	c-4.3-3.2-12.4-8.7-24-16.7c-1.8-1.2-3.5-2.6-4.9-4.2v38.4c0,2.1,0.8,3.9,2.3,5.5c1.5,1.5,3.3,2.3,5.5,2.3h71.1
	c2.1,0,3.9-0.8,5.5-2.3c1.5-1.5,2.3-3.3,2.3-5.5V62.9C837.9,64.5,836.3,65.9,834.5,67.1z"/>
</svg>
