<?xml version="1.0" encoding="utf-8"?>
<!-- Generator: Adobe Illustrator 18.0.0, SVG Export Plug-In . SVG Version: 6.00 Build 0)  -->
<!DOCTYPE svg PUBLIC "-//W3C//DTD SVG 1.1//EN" "http://www.w3.org/Graphics/SVG/1.1/DTD/svg11.dtd">
<svg version="1.1" id="Layer_1" xmlns="http://www.w3.org/2000/svg" xmlns:xlink="http://www.w3.org/1999/xlink" x="0px" y="0px"
	 viewBox="0 360.7 476.6 70.5" enable-background="new 0 360.7 476.6 70.5" xml:space="preserve">
<circle fill="#456C95" cx="170.6" cy="396" r="35.3"/>
<path fill="#FFFFFF" d="M152.2,398.5v9.1l-6.3-0.6v-18.3l0.6-0.1l5.6-0.6v9.5h-2v0.8h2V398.5z M153.5,387.9v9.5h2.9v1.4h-2.9v8.8
	l8.5,0.8v-21.4L153.5,387.9z M195.3,392.5c0,5-4.1,9-9,9c-5,0-9-4.1-9-9c0-5,4.1-9,9-9C191.2,383.4,195.3,387.5,195.3,392.5z
	 M193.8,392.5c0-4.2-3.4-7.5-7.5-7.5c-4.2,0-7.5,3.4-7.5,7.5c0,4.2,3.4,7.5,7.5,7.5C190.4,400,193.8,396.7,193.8,392.5z
	 M186.3,389.4c2,0,3.6-0.5,3.6-1.1s-1.6-1.1-3.6-1.1c-2,0-3.6,0.5-3.6,1.1S184.3,389.4,186.3,389.4z M190.1,388.8v2.4
	c-5.1,2.1-7.8-0.1-7.8-0.1v-2.3c0,0,1.4,0.9,3.9,1C188.7,389.9,190.1,388.8,190.1,388.8z M190.1,394.7v2.3c0,0-2,0.9-3.9,0.9
	c-1.9,0-3.9-0.9-3.9-0.9v-2.4C186,396.6,190.1,394.7,190.1,394.7z M190.1,391.8v2.3c-5.1,2.1-7.8-0.1-7.8-0.1v-2.2
	C186,393.7,190.1,391.8,190.1,391.8z M182.5,400.2v6.6l-18.9,1.6v-20.7l14.5,5.1v1.3c-0.4,0-0.6,0.4-0.6,0.9v10.3
	c0,0.5,0.3,0.9,0.6,0.9c0.4,0,0.6-0.4,0.6-0.9v-8.7l0.6,1.2l0.9,1v6.3c0,0.5,0.3,0.9,0.6,0.9c0.4,0,0.6-0.4,0.6-0.9v-5.4
	L182.5,400.2z M167.6,391.3c0-0.5-0.4-0.9-0.9-0.9c-0.5,0-0.9,0.4-0.9,0.9v14.7c0,0.5,0.4,0.9,0.9,0.9c0.5,0,0.9-0.4,0.9-0.9V391.3z
	 M170.3,392.2c0-0.5-0.4-0.9-0.8-0.9s-0.8,0.4-0.8,0.9v13.6c0,0.5,0.4,0.9,0.8,0.9s0.8-0.4,0.8-0.9V392.2z M173.2,393.1
	c0-0.5-0.4-0.9-0.8-0.9s-0.8,0.4-0.8,0.9v12.5c0,0.5,0.4,0.9,0.8,0.9s0.8-0.4,0.8-0.9V393.1z M176,394c0-0.5-0.4-0.9-0.7-0.9
	c-0.4,0-0.7,0.4-0.7,0.9v11.4c0,0.5,0.4,0.9,0.7,0.9c0.4,0,0.7-0.4,0.7-0.9V394z"/>
<circle fill="#456C95" cx="441.4" cy="396" r="35.3"/>
<path fill="#FFFFFF" d="M460.7,402.3c0,4.7,0,7.4,0,7.4s-0.4,4.4-4.1,4.4c-3.7,0-8.5,0-8.5,0s-4.7,0-8.5,0c-3.7,0-4.1-4.4-4.1-4.4
	s0-2.7,0-7.4c0-4.7,6-7.8,6-7.8c1.8,2,3.9,2.8,5.2,3.2l0.8,1.6c0,0-1.7,5.1-1.8,7c0,0.4,0.1,1.4,0.3,1.8c0.4,0.8,1.8,2.7,2,2.7
	c0.3,0,1.7-1.9,2-2.7c0.2-0.4,0.3-1.3,0.3-1.8c-0.1-1.8-1.8-7-1.8-7l0.8-1.6c1.3-0.4,3.4-1.2,5.2-3.2
	C454.6,394.4,460.7,397.6,460.7,402.3z M455.7,385.6c0-4.2-1.5-7.6-7.6-7.6c-6.2,0-7.6,3.4-7.6,7.6c0,6.1,4.9,9.7,7.6,9.7
	C451.1,395.4,455.7,390.9,455.7,385.6z M435.9,387c0-2.9-1-5.2-5.2-5.2s-5.2,2.3-5.2,5.2c0,4.2,3.4,6.6,5.2,6.6
	C432.8,393.7,435.9,390.6,435.9,387z M433.3,400.7c0-2.7,2-4.9,3.7-6.3c-1-0.8-1.9-1.3-1.9-1.3c-1.3,1.3-2.6,2-3.5,2.2
	c-0.5,0.1-1.4,0.1-1.9,0c-0.9-0.1-2.3-0.8-3.5-2.2c0,0-4.1,2.1-4.1,5.3s0,5,0,5s0.2,3,2.8,3c2.5,0,5.8,0,5.8,0s1.2,0,2.7,0
	C433.3,405.2,433.3,403.3,433.3,400.7z"/>
<circle fill="#456C95" cx="35.3" cy="396" r="35.3"/>
<path fill="#FFFFFF" d="M35,406.9c1.1,0,1.3-0.9,1.6-1.8c0.5-1.6,0.6-1.7,1.7-3c1.1-1.3,2.7-2.5,2.7-6.1c0-8.5-7.4-8.5-7.5-8.5
	c-0.1,0-7.5,0-7.5,8.5c0,3.6,1.7,4.8,2.7,6.1c1.1,1.3,1.2,1.5,1.7,3c0.3,0.9,0.4,1.8,1.6,1.8C33.3,406.9,33.9,406.9,35,406.9z
	 M33.6,417.8h3.5c0.6,0,1.2-0.6,1.2-1.2l0,0c0-0.6-0.6-1.2-1.2-1.2h-7c-0.6,0-1.2,0.6-1.2,1.2l0,0c0,0.6,0.6,1.2,1.2,1.2H33.6
	 M31.2,418.3c0,1.3,1.1,2.4,2.4,2.4c1.3,0,2.4-1.1,2.4-2.4H31.2z M48.8,391.3c0,0-2.7-10.7-8.6-14.4c0,0,5.9,6.3,7.2,14.8l0,0
	c0.3,1.2,0.4,2.5,0.4,4c0,6.3-3.2,8.5-5.2,10.6c-2.1,2.4-2.3,2.6-3.2,5.4c-0.6,1.6-0.7,3.2-2.9,3.2c-2.2,0-3.5,0-5.6,0
	s-2.3-1.6-2.9-3.2c-0.9-2.7-1.1-3-3.2-5.4c-2-2.2-5.2-4.4-5.2-10.6c0-14.8,13.8-14.8,14.2-14.8c0.1,0,1.8,0,4.2,0.6
	c-0.3-4-0.2-6.3-4.5-10.4c0,0,15.7,3.2,17.6,11.6C52,388.5,48.8,391.3,48.8,391.3z"/>
<circle fill="#456C95" cx="306" cy="396" r="35.3"/>
<g>
	<path fill="#FFFFFF" d="M323.1,412.4h-34.1c-1.1,0-2-0.8-2-2v-28.8c0-1.1,0.8-2,2-2h34.1c1.1,0,2,0.8,2,2v28.8
		C325,411.5,324.1,412.4,323.1,412.4z M290.9,408.5h30.2v-25h-30.2V408.5z"/>
	<path fill="#FFFFFF" d="M296.7,387.8c0.9,0,1.6,0.7,1.6,1.6c0,0.9-0.7,1.6-1.6,1.6c-0.9,0-1.6-0.7-1.6-1.6
		C295.1,388.5,295.8,387.8,296.7,387.8 M296.7,385.6c-2.1,0-3.8,1.7-3.8,3.8c0,2.1,1.7,3.8,3.8,3.8s3.8-1.7,3.8-3.8
		C300.5,387.3,298.7,385.6,296.7,385.6L296.7,385.6z"/>
	<path fill="#FFFFFF" d="M316.4,387.8v3h-12.1v-3H316.4 M318.6,385.6h-16.4v7.3h16.4V385.6L318.6,385.6z"/>
	<path fill="#FFFFFF" d="M318.7,397.5H293c-0.6,0-1.1-0.5-1.1-1.1s0.5-1.1,1.1-1.1h25.7c0.6,0,1.1,0.5,1.1,1.1
		S319.3,397.5,318.7,397.5z"/>
	<path fill="#FFFFFF" d="M318.7,401.9H293c-0.6,0-1.1-0.5-1.1-1.1c0-0.6,0.5-1.1,1.1-1.1h25.7c0.6,0,1.1,0.5,1.1,1.1
		S319.3,401.9,318.7,401.9z"/>
	<path fill="#FFFFFF" d="M318.7,406.4H293c-0.6,0-1.1-0.5-1.1-1.1s0.5-1.1,1.1-1.1h25.7c0.6,0,1.1,0.5,1.1,1.1
		S319.3,406.4,318.7,406.4z"/>
</g>
</svg>
