<?xml version="1.0" encoding="utf-8"?>
<!-- Generator: Adobe Illustrator 18.0.0, SVG Export Plug-In . SVG Version: 6.00 Build 0)  -->
<!DOCTYPE svg PUBLIC "-//W3C//DTD SVG 1.1//EN" "http://www.w3.org/Graphics/SVG/1.1/DTD/svg11.dtd">
<svg version="1.1" id="Layer_1" xmlns="http://www.w3.org/2000/svg" xmlns:xlink="http://www.w3.org/1999/xlink" x="0px" y="0px"
	 viewBox="0 0 100.1 86.5" enable-background="new 0 0 100.1 86.5" xml:space="preserve">
<g>
	<g>
		<path fill="#BCC5CD" d="M100.1,23.8C100.1,10.7,89.4,0,76.3,0S52.4,10.7,52.4,23.8s10.7,23.8,23.8,23.8c2.7,0,5.3-0.5,7.7-1.3
			C78.6,77.1,54.6,97,76.9,80.6C101.5,62.5,100.1,24.6,100.1,23.8C100.1,23.9,100.1,23.8,100.1,23.8z"/>
		<path fill="#BCC5CD" d="M47.7,23.8C47.7,10.7,37,0,23.8,0C10.7,0,0,10.7,0,23.8s10.7,23.8,23.8,23.8c2.7,0,5.3-0.5,7.7-1.3
			C26.2,77.1,2.2,97,24.4,80.6C49.1,62.5,47.7,24.6,47.7,23.8C47.7,23.9,47.7,23.8,47.7,23.8z"/>
	</g>
</g>
</svg>
