<?xml version="1.0" encoding="utf-8"?>
<!-- Generator: Adobe Illustrator 18.0.0, SVG Export Plug-In . SVG Version: 6.00 Build 0)  -->
<!DOCTYPE svg PUBLIC "-//W3C//DTD SVG 1.1//EN" "http://www.w3.org/Graphics/SVG/1.1/DTD/svg11.dtd">
<svg version="1.1" id="Layer_1" xmlns="http://www.w3.org/2000/svg" xmlns:xlink="http://www.w3.org/1999/xlink" x="0px" y="0px"
	 viewBox="0 0 100.1 86.5" enable-background="new 0 0 100.1 86.5" xml:space="preserve">
<g>
	<g>
		<path fill="#BCC5CD" d="M0,62.7c0,13.2,10.7,23.8,23.8,23.8s23.8-10.7,23.8-23.8S37,38.8,23.9,38.8c-2.7,0-5.3,0.5-7.7,1.3
			c5.4-30.8,29.3-50.6,7.1-34.3C-1.4,24,0,61.9,0,62.7C0,62.6,0,62.6,0,62.7z"/>
		<path fill="#BCC5CD" d="M52.4,62.7c0,13.2,10.7,23.8,23.8,23.8s23.8-10.7,23.8-23.8S89.4,38.8,76.3,38.8c-2.7,0-5.3,0.5-7.7,1.3
			c5.4-30.8,29.3-50.6,7.1-34.3C51,24,52.4,61.9,52.4,62.7C52.5,62.6,52.4,62.6,52.4,62.7z"/>
	</g>
</g>
</svg>
