<?xml version="1.0" encoding="utf-8"?>
<!-- Generator: Adobe Illustrator 15.1.0, SVG Export Plug-In . SVG Version: 6.00 Build 0)  -->
<!DOCTYPE svg PUBLIC "-//W3C//DTD SVG 1.1//EN" "http://www.w3.org/Graphics/SVG/1.1/DTD/svg11.dtd">
<svg version="1.1" id="Layer_1" xmlns="http://www.w3.org/2000/svg" xmlns:xlink="http://www.w3.org/1999/xlink" x="0px" y="0px"
	 width="65.078px" height="53.783px" viewBox="0 23.872 65.078 53.783" enable-background="new 0 23.872 65.078 53.783"
	 xml:space="preserve">
<path fill="#B4B4B4" d="M30.346,26.174C17.789,30.569,9.84,40.613,8.162,54.006c2.3-0.622,3.348-0.836,4.813-0.836
	c7.531,0,12.762,5.019,12.762,11.93c0,6.909-5.435,12.556-12.13,12.556C5.444,77.654,0,70.541,0,59.867
	c0-17.37,12.344-32.432,29.298-35.995L30.346,26.174z M65.078,26.174c-12.343,4.396-20.292,14.439-21.971,27.832
	c2.096-0.622,3.143-0.836,4.813-0.836c7.53,0,12.762,5.019,12.762,11.93c0,6.909-5.436,12.556-12.132,12.556
	c-8.162,0-13.605-7.113-13.605-17.788c0.001-17.37,12.344-32.432,29.299-35.995L65.078,26.174z"/>
</svg>
