<?xml version="1.0" encoding="utf-8"?>
<!-- Generator: Adobe Illustrator 18.0.0, SVG Export Plug-In . SVG Version: 6.00 Build 0)  -->
<!DOCTYPE svg PUBLIC "-//W3C//DTD SVG 1.1//EN" "http://www.w3.org/Graphics/SVG/1.1/DTD/svg11.dtd">
<svg version="1.1" id="Layer_1" xmlns="http://www.w3.org/2000/svg" xmlns:xlink="http://www.w3.org/1999/xlink" x="0px" y="0px"
	 viewBox="0 0 229 229" enable-background="new 0 0 229 229" xml:space="preserve">
<g>
	<circle fill="none" stroke="#2C3E50" stroke-width="4" stroke-miterlimit="10" cx="114.5" cy="114.5" r="110"/>
</g>
<path fill="#2C3E50" d="M152,152l-15,22.5L122,152H77c-12.4,0-22.5-10.1-22.5-22.5V77c0-12.4,10.1-22.5,22.5-22.5H152
	c12.4,0,22.5,10.1,22.5,22.5v52.6C174.6,142,164.5,152,152,152z M159.6,77c0-4.1-3.4-7.5-7.5-7.5H77c-4.1,0-7.5,3.4-7.5,7.5v52.6
	c0,4.2,3.4,7.5,7.5,7.5H127l10,15l10-15h5c4.2,0,7.5-3.4,7.5-7.5L159.6,77L159.6,77z M84.5,99.5h60.1v7.5H84.5V99.5z M84.5,84.5
	h60.1V92H84.5V84.5z M114.5,122h-30v-7.5h30V122z"/>
</svg>
