<?xml version="1.0" encoding="utf-8"?>
<!-- Generator: Adobe Illustrator 15.1.0, SVG Export Plug-In . SVG Version: 6.00 Build 0)  -->
<!DOCTYPE svg PUBLIC "-//W3C//DTD SVG 1.1//EN" "http://www.w3.org/Graphics/SVG/1.1/DTD/svg11.dtd">
<svg version="1.1" id="Capa_1" xmlns="http://www.w3.org/2000/svg" xmlns:xlink="http://www.w3.org/1999/xlink" x="0px" y="0px"
	 width="500px" height="400px" viewBox="0 0 500 400" enable-background="new 0 0 500 400" xml:space="preserve">
<g>
	<circle fill="none" stroke="#DA4A38" stroke-width="4" stroke-miterlimit="10" cx="249.999" cy="200" r="194.5"/>
	<g>
		<path fill="#DA4A38" d="M296.484,229.599c15.299-15.466,25.045-37.31,25.045-58.164c0-37.896-32.02-68.621-71.53-68.621
			c-39.508,0-71.526,30.717-71.526,68.621c0,9.375,2.053,18.911,5.614,28.011c8.788,18.999,26.043,33.751,47.892,39.113
			c4.33-5.132,10.857-8.208,18.019-8.208c12.844,0,23.288,10.02,23.288,22.341c0,12.322-10.455,22.332-23.288,22.332
			c-9.142,0-17.233-5.115-21.021-12.753c-18.781-3.965-35.254-13.009-48.055-25.424c-28.184,11.552-46.467,29.945-46.467,50.709
			c0,34.984,231.089,34.984,231.089,0C365.547,261.644,337.129,239.404,296.484,229.599z"/>
		<path fill="#DA4A38" d="M235.248,255.376c1.32,6.673,7.411,11.738,14.742,11.738c8.307,0,15.043-6.461,15.043-14.423
			c0-7.96-6.736-14.423-15.034-14.423c-6.383,0-11.8,3.829-13.984,9.217c-37.78-6.378-66.589-38.017-66.589-76.059
			c0-42.622,36.15-77.302,80.573-77.302c44.438,0,80.581,34.68,80.581,77.302h8.254c0-46.985-39.852-85.221-88.834-85.221
			c-48.978,0-88.826,38.228-88.826,85.221C161.164,213.593,193.283,248.602,235.248,255.376z"/>
	</g>
</g>
</svg>
