<?xml version="1.0" encoding="utf-8"?>
<!-- Generator: Adobe Illustrator 18.0.0, SVG Export Plug-In . SVG Version: 6.00 Build 0)  -->
<!DOCTYPE svg PUBLIC "-//W3C//DTD SVG 1.1//EN" "http://www.w3.org/Graphics/SVG/1.1/DTD/svg11.dtd">
<svg version="1.1" id="Layer_1" xmlns="http://www.w3.org/2000/svg" xmlns:xlink="http://www.w3.org/1999/xlink" x="0px" y="0px"
	 viewBox="0 0 612 792" enable-background="new 0 0 612 792" xml:space="preserve">
<g>
	<circle fill="none" stroke="#2C3E50" stroke-width="4" stroke-miterlimit="10" cx="306" cy="396" r="294"/>
</g>
<g>
	<path fill="#2C3E50" d="M156.9,340.4c4.5,3.2,18.2,12.8,41.2,28.6c23,15.8,40.4,28.1,52.6,36.6c1.3,1.1,4.3,2.9,8.6,6.1
		c4.5,3.2,7.8,5.6,11,7.8c2.9,1.9,6.4,4.3,10.4,6.4c4.3,2.4,7.8,4.3,11.5,5.3c3.7,1.3,6.9,1.6,10.2,1.6h0.3h0.3
		c2.9,0,6.4-0.5,10.2-1.6c3.7-1.3,7.5-2.9,11.5-5.3c4.3-2.4,7.8-4.5,10.4-6.4s6.4-4.5,11-7.8c4.5-3.2,7.2-5.1,8.6-6.1
		c12.3-8.6,43.6-30.2,93.8-65.2c9.9-6.9,17.9-15,24.3-24.6c6.7-9.6,9.9-19.8,9.9-30.2c0-8.8-3.2-16.6-9.6-22.7
		c-6.4-6.1-13.9-9.4-22.7-9.4H154.5c-10.4,0-18.2,3.5-23.8,10.4c-5.6,6.9-8.3,15.8-8.3,26.2c0,8.3,3.7,17.4,11,27.3
		C140.6,327.3,148.6,334.8,156.9,340.4z"/>
	<path fill="#2C3E50" d="M461.8,362.1c-43.8,29.7-77,52.6-100,69.2c-7.8,5.6-13.9,10.2-18.4,13.1c-4.5,3.2-11,6.4-19,9.6
		c-8,3.2-15.2,4.8-22.2,4.8H302h-0.3c-6.9,0-14.2-1.6-22.2-4.8c-8-3.2-14.2-6.4-19-9.6c-4.8-3.2-11-7.8-18.4-13.1
		c-17.9-13.4-51-36.1-99.7-69.2c-7.8-5.1-14.2-11-20-17.4V504c0,8.8,3.2,16.6,9.4,22.7c6.4,6.4,13.9,9.4,22.7,9.4h295.3
		c8.8,0,16.6-3.2,22.7-9.4c6.4-6.4,9.4-13.9,9.4-22.7V344.4C476,350.8,469,356.7,461.8,362.1z"/>
</g>
</svg>
