<?xml version="1.0" encoding="utf-8"?>
<!-- Generator: Adobe Illustrator 18.0.0, SVG Export Plug-In . SVG Version: 6.00 Build 0)  -->
<!DOCTYPE svg PUBLIC "-//W3C//DTD SVG 1.1//EN" "http://www.w3.org/Graphics/SVG/1.1/DTD/svg11.dtd">
<svg version="1.1" id="Layer_1" xmlns="http://www.w3.org/2000/svg" xmlns:xlink="http://www.w3.org/1999/xlink" x="0px" y="0px"
	 viewBox="0 0 298 60" enable-background="new 0 0 298 60" xml:space="preserve">
<path id="Services_Portfolio_1_" fill-rule="evenodd" clip-rule="evenodd" fill="#9AB733" d="M263.3,19.8V18c0-0.4,0.3-0.7,0.7-0.7
	h8c0.4,0,0.7,0.3,0.7,0.7v1.8h2.3v-2.9c0-1-0.8-1.9-1.9-1.9h-10.2c-1,0-1.9,0.8-1.9,1.9v2.9H263.3L263.3,19.8z M249.8,21.7h36.5
	c0.6,0,1.2,0.5,1.2,1.2v20.9c0,0.6-0.5,1.2-1.2,1.2h-36.5c-0.6,0-1.2-0.5-1.2-1.2V22.9C248.6,22.3,249.1,21.7,249.8,21.7L249.8,21.7
	z M253.6,42.2c0,0.3,0.2,0.5,0.5,0.5h1.4c0.3,0,0.5-0.2,0.5-0.5V24.5c0-0.3-0.2-0.5-0.5-0.5h-1.4c-0.3,0-0.5,0.2-0.5,0.5V42.2
	L253.6,42.2z M280,42.2c0,0.3,0.2,0.5,0.5,0.5h1.4c0.3,0,0.5-0.2,0.5-0.5V24.5c0-0.3-0.2-0.5-0.5-0.5h-1.4c-0.3,0-0.5,0.2-0.5,0.5
	V42.2L280,42.2z M268,0c16.6,0,30,13.4,30,30c0,16.6-13.4,30-30,30c-16.6,0-30-13.4-30-30C238,13.4,251.4,0,268,0z"/>
<path id="Affliliate_Marketing_2_" fill-rule="evenodd" clip-rule="evenodd" fill="#9AB733" d="M149,0c16.6,0,30,13.4,30,30
	s-13.4,30-30,30c-16.6,0-30-13.4-30-30S132.4,0,149,0L149,0z M149.8,42.4v-1.9c1.8-0.3,3.1-1.4,3.1-3.4c0-3.6-5.8-2.8-5.8-5.2
	c0-0.8,0.7-1.5,2.2-1.5c0.9,0,1.7,0.4,1.7,0.4l0.5,1.6h1.1l0.1-2.7c0,0-1.4-0.6-2.9-0.7v-1.5h-1.3v1.6c-1.7,0.2-3.1,1.2-3.1,3.1
	c0,3.9,5.8,2.8,5.8,5.3c0,1.2-1.3,1.7-2.5,1.7c-1.1,0-1.7-0.4-1.7-0.4l-0.4-1.7h-1.3V40c0,0,1.4,0.6,3.1,0.6v1.8H149.8L149.8,42.4z
	 M152.5,21.6c1.6-3.2,6.8-8.1-0.4-6.2l-1.7,3.6l0.2-3.9c-1.9-1.6-13.2-6.2-5.7,6.2c-0.1,0-0.2,0-0.3,0.1c-2,0.5-1.9,2.1,0,2h0.8
	c-5.3,2.1-11,8.1-10.4,16.2c0,0,1.2,2.3,1.2,2.3l-1.7-0.7c-1.1,0.7-1.9,1.7-2.2,2.4c-0.3,0.7,0.9,2.4,2,2.7c9.4,1.2,20.3,1.2,29.7,0
	c1.1-0.3,2.3-2.1,2-2.7c-0.3-0.7-1-1.6-2.1-2.3l-4.1,2.1c0,0,3.5-4.1,3.5-4.1c0.6-8-5-13.7-10.3-15.7
	C155.9,23.3,155.5,22.1,152.5,21.6z"/>
<path id="Social_Media_Marketing_1_" fill-rule="evenodd" clip-rule="evenodd" fill="#9AB733" d="M36.7,31c-0.7-0.3-1.3-0.5-1.9-0.8
	c-0.1-0.2,0-0.4,0.1-0.8c0-0.4-0.1-0.4-0.4-0.4c-0.4,0-0.9,0.2-1.2,0.1l-0.2-1.6c0.9-0.3,1-1.6,1-2.6c1.5-0.3,1.7-3.6,0.6-3.8
	c-0.1-0.4,1-3.7-0.2-5.5c-0.8-1.3-3.3-2-5-2c-1.4,0-2.9,0.2-2.4,1.4c-3.8,0.8-2,3.5-2,6.1c-1.3,0.4-0.3,3.8,0.8,3.8
	c0.2,1.5,0.7,2.6,1.2,2.7L27.1,29c-0.3,0-1.7-0.4-1.6,0.3l0.1,0.7c-0.6,0.4-1.3,0.7-2.3,1c-2,0.7-3.6,1.5-4.4,2.1l0.7,6.8L30,46.5
	l10.5-6.6l0.7-6.8C40.3,32.4,38.7,31.7,36.7,31L36.7,31z M45.3,30c0.3,1.1,1.2,1.7,3.2,2.5c1.6,0.6,2.8,1.2,3.5,1.7l-0.7,5.8h-8.8
	l0.8-8c-0.7-0.5-1.6-1-2.5-1.5c0.1-0.2,0.1-0.3,0.2-0.5v-0.2c-1-0.1-1.9-0.4-2.5-0.9c0.2-0.2,0.4-0.6,0.3-0.9
	c-0.3,0.3-0.7,0.5-1.4,0.6c1.9-1.5,1.5-3.8,1.9-6c0.2-0.9,0.4-1.9,1.1-2.6c0.7-0.6,1.6-1,2.7-1c1,0,2,0.4,2.7,1
	c0.7,0.7,0.9,1.7,1.1,2.6c0.4,2.1,0,4.4,1.9,6c-0.6-0.1-1.1-0.3-1.4-0.6c0,0.4,0.1,0.7,0.3,0.9c-0.6,0.4-1.5,0.8-2.5,0.9V30L45.3,30
	z M13.6,26.6c-1-0.3-1.3-2.6-0.6-2.8c-0.1-0.3-0.2-0.6-0.1-1.2c-0.2,0-0.4,0-0.7,0.2c0-0.3,0.6-1.1,0.7-1.3c0.1-0.1,0.1-0.2,0.2-0.3
	c0.3-1.4,1.5-2,2.2-2.3c0.1,0.1,0.6,0.3,0.9,0.3c0-0.3,0-0.7,1-1.2c-0.1,1.4,3.2,1,3.5,3.1c0.1,0.7,0,1.4-0.1,2.6
	c0.6-0.2,1.1,1.9-0.2,2.8c-0.2,1.8-1.4,2.2-1.5,2.9c0,0.4,0.1,0.7,0.3,1c-1,0.5-1.8,1-2.5,1.5l0.8,8H8.7L8,34.1
	c0.7-0.5,1.9-1.1,3.5-1.7c1-0.4,2.8-1.1,3.1-2.3c0-0.2,0.2-0.7,0.1-0.9C14.4,28.5,13.6,28.1,13.6,26.6L13.6,26.6z M30,0
	c16.6,0,30,13.4,30,30c0,16.6-13.4,30-30,30C13.4,60,0,46.6,0,30C0,13.4,13.4,0,30,0z"/>
</svg>
