<?xml version="1.0" encoding="utf-8"?>
<!-- Generator: Adobe Illustrator 15.1.0, SVG Export Plug-In . SVG Version: 6.00 Build 0)  -->
<!DOCTYPE svg PUBLIC "-//W3C//DTD SVG 1.1//EN" "http://www.w3.org/Graphics/SVG/1.1/DTD/svg11.dtd">
<svg version="1.1" id="Layer_1" xmlns="http://www.w3.org/2000/svg" xmlns:xlink="http://www.w3.org/1999/xlink" x="0px" y="0px"
	 width="229px" height="229.002px" viewBox="0 0 229 229.002" enable-background="new 0 0 229 229.002" xml:space="preserve">
<g>
	<circle fill="none" stroke="#DA4A36" stroke-width="4" stroke-miterlimit="10" cx="114.5" cy="114.5" r="110"/>
</g>
<path fill="#DA4A36" d="M152.045,152.046l-15.018,22.525l-15.019-22.525H76.956c-12.442,0-22.526-10.094-22.526-22.528V76.956
	c0-12.441,10.084-22.525,22.526-22.525h75.089c12.433,0,22.525,10.084,22.525,22.525v52.562
	C174.57,141.952,164.478,152.046,152.045,152.046z M159.553,76.956c0-4.144-3.354-7.508-7.508-7.508H76.956
	c-4.144,0-7.509,3.364-7.509,7.508v52.562c0,4.153,3.365,7.511,7.509,7.511h50.055l10.017,15.018l10.018-15.018h5
	c4.153,0,7.508-3.357,7.508-7.511V76.956z M84.465,99.482h60.071v7.51H84.465V99.482z M84.465,84.468h60.071v7.507H84.465V84.468z
	 M114.5,122.009H84.465v-7.508H114.5V122.009z"/>
</svg>
