<?xml version="1.0" encoding="utf-8"?>
<!-- Generator: Adobe Illustrator 15.1.0, SVG Export Plug-In . SVG Version: 6.00 Build 0)  -->
<!DOCTYPE svg PUBLIC "-//W3C//DTD SVG 1.1//EN" "http://www.w3.org/Graphics/SVG/1.1/DTD/svg11.dtd">
<svg version="1.1" id="Layer_1" xmlns="http://www.w3.org/2000/svg" xmlns:xlink="http://www.w3.org/1999/xlink" x="0px" y="0px"
	 width="48.11px" height="35.746px" viewBox="0 0 48.11 35.746" enable-background="new 0 0 48.11 35.746" xml:space="preserve">
<g>
	<defs>
		<rect id="SVGID_1_" x="-681.11" y="-378.894" width="1190.55" height="841.89"/>
	</defs>
	<clipPath id="SVGID_2_">
		<use xlink:href="#SVGID_1_"  overflow="visible"/>
	</clipPath>
</g>
<polyline fill="none" stroke="#E84F1C" stroke-width="2" stroke-linecap="round" stroke-linejoin="round" stroke-miterlimit="10" points="
	3.306,18.67 8.666,33.058 39.967,33.058 44.805,18.67 "/>
<path fill="none" stroke="#E84F1C" stroke-width="2" stroke-linecap="round" stroke-linejoin="round" stroke-miterlimit="10" d="
	M16.504,16.017C6.194,16.38,3.306,17.426,3.306,18.66c0,1.535,6.735,2.777,21.416,2.777c14.68,0,20.083-1.243,20.083-2.777
	c0-1.297-2.928-2.386-13.591-2.693"/>
<path fill="none" stroke="#E84F1C" stroke-width="2" stroke-linecap="round" stroke-linejoin="round" stroke-miterlimit="10" d="
	M14.217,20.152l8.637-15.623v15.895C19.805,20.396,16.897,20.302,14.217,20.152z"/>
<path fill="none" stroke="#E84F1C" stroke-width="2" stroke-linecap="round" stroke-linejoin="round" stroke-miterlimit="10" d="
	M24.722,20.433c-0.284,0-0.566,0-0.849-0.002V2.688l9.7,17.548C30.805,20.363,27.825,20.433,24.722,20.433z"/>
</svg>
