<?xml version="1.0" encoding="utf-8"?>
<!-- Generator: Adobe Illustrator 15.1.0, SVG Export Plug-In . SVG Version: 6.00 Build 0)  -->
<!DOCTYPE svg PUBLIC "-//W3C//DTD SVG 1.1//EN" "http://www.w3.org/Graphics/SVG/1.1/DTD/svg11.dtd">
<svg version="1.1" id="Capa_1" xmlns="http://www.w3.org/2000/svg" xmlns:xlink="http://www.w3.org/1999/xlink" x="0px" y="0px"
	 width="500px" height="400px" viewBox="0 0 500 400" enable-background="new 0 0 500 400" xml:space="preserve">
<circle fill="none" stroke="#2C3E50" stroke-width="4" stroke-miterlimit="10" cx="249.563" cy="201.098" r="194.5"/>
<g>
	<path fill="#2C3E50" d="M252.001,40.139c9.941,0,17.992,8.039,17.992,17.98c0,9.93-8.051,17.98-17.992,17.98
		c-9.919,0-17.98-8.051-17.98-17.98C234.021,48.178,242.082,40.139,252.001,40.139z"/>
	<path fill="#2C3E50" d="M291.327,246.629c0-13.246,10.287-24.068,23.284-24.948c-1.177-0.881-2.366-1.7-3.698-2.378
		c-2.26-13.58-12.796-24.355-26.232-26.947c-2.974-7.35-8.741-13.236-15.961-16.387v-36.722c1.083-1.987,1.701-4.259,1.701-6.756
		v-24.057c2.248,5.577,4.138,13.248,5.768,24.272c0.522,3.472,3.495,5.97,6.897,5.97c0.332,0,0.69-0.024,1.011-0.071
		c3.817-0.571,6.458-4.092,5.886-7.922c-4.161-28.492-10.501-40.693-26.019-50.207c-0.285-0.19-0.619-0.31-0.929-0.452
		c-1.998-1.332-4.257-2.331-6.539-2.89l-4.484,4.52l-4.339-4.567c-0.024,0-0.037,0-0.048,0c-3.331,0.797-6.565,2.485-9.086,4.84
		c-13.866,9.335-19.789,21.691-23.737,48.732c-0.569,3.807,2.069,7.349,5.887,7.921c0.347,0.048,0.703,0.071,1.023,0.071
		c3.413,0,6.386-2.52,6.909-5.993c1.428-9.728,3.069-16.815,4.971-22.202v22.012c0,1.867,0.357,3.615,1,5.232
		c-0.049,0.357-0.073,0.726-0.073,1.107v40.848c-2.58-0.713-5.292-1.105-8.086-1.105c-16.695,0-30.217,13.521-30.217,30.218
		c0,2.496,0.321,4.923,0.891,7.253c-10.439,4.401-17.766,14.723-17.766,26.759c0,16.028,12.987,29.026,29.016,29.026l69.104,0.417
		c0.915-8.872,6.672-16.293,14.567-19.633C291.554,250.722,291.327,248.724,291.327,246.629z M251.024,148.332
		c0.335,0.023,0.655,0.048,0.977,0.048c0.07,0,0.13,0,0.202,0v25.449c-0.393,0.045-0.773,0.094-1.179,0.166V148.332z
		 M251.002,88.871c0.331-0.903,0.476-1.843,0.404-2.818l0.547-3.698h0.096l4.329,28.993l-4.329,5.922h-0.096l-4.328-5.922
		L251.002,88.871z"/>
	<path fill="#2C3E50" d="M408.26,280.367c-0.416-8.515-4.898-15.899-12.035-19.491c-1.854-11.263-10.584-20.217-21.726-22.381
		c-3.723-9.18-12.713-15.626-23.202-15.626c-6.159,0-11.796,2.224-16.148,5.887c-2.759-1.059-5.768-1.641-8.895-1.641
		c-13.83,0-25.045,11.214-25.045,25.068c0,2.057,0.262,4.067,0.736,6.005c-8.657,3.639-14.733,12.189-14.733,22.167
		c0,13.282,10.786,24.046,24.059,24.046l75.156,0.462C398.484,304.863,409.01,296.029,408.26,280.367z"/>
	<path fill="#2C3E50" d="M188.308,280.26c-1.534-9.371-8.788-16.791-18.052-18.587c-3.093-7.635-10.584-12.997-19.313-12.997
		c-5.09,0-9.775,1.843-13.401,4.909c-2.296-0.89-4.792-1.366-7.408-1.366c-11.488,0-20.812,9.324-20.812,20.835
		c0,1.725,0.227,3.377,0.618,4.993c-7.183,3.021-12.248,10.134-12.248,18.433c0,11.036,8.942,19.992,20.002,19.992l62.479,0.392
		c10.037,0,18.79-7.349,18.16-20.384C197.964,289.394,194.229,283.257,188.308,280.26z"/>
</g>
</svg>
