<?xml version="1.0" encoding="utf-8"?>
<!-- Generator: Adobe Illustrator 15.1.0, SVG Export Plug-In . SVG Version: 6.00 Build 0)  -->
<!DOCTYPE svg PUBLIC "-//W3C//DTD SVG 1.1//EN" "http://www.w3.org/Graphics/SVG/1.1/DTD/svg11.dtd">
<svg version="1.1" id="Capa_1" xmlns="http://www.w3.org/2000/svg" xmlns:xlink="http://www.w3.org/1999/xlink" x="0px" y="0px"
	 width="500px" height="400px" viewBox="0 0 500 400" enable-background="new 0 0 500 400" xml:space="preserve">
<g>
	<path fill="#4B7330" d="M335.152,250.919c26.292-26.575,43.039-64.116,43.039-99.954c0-65.125-55.024-117.925-122.928-117.925
		c-67.891,0-122.916,52.786-122.916,117.925c0,16.111,3.528,32.499,9.649,48.137c15.103,32.65,44.754,58.002,82.302,67.214
		c7.44-8.818,18.659-14.103,30.964-14.103c22.074,0,40.021,17.218,40.021,38.393s-17.964,38.376-40.021,38.376
		c-15.71,0-29.615-8.789-36.123-21.916c-32.276-6.811-60.585-22.354-82.583-43.69c-48.433,19.853-79.852,51.461-79.852,87.146
		c0,60.119,397.127,60.119,397.127,0C453.834,305.989,404.999,267.771,335.152,250.919z"/>
	<path fill="#4B7330" d="M229.913,295.218c2.268,11.47,12.736,20.173,25.335,20.173c14.276,0,25.851-11.105,25.851-24.785
		s-11.574-24.785-25.835-24.785c-10.969,0-20.277,6.58-24.031,15.835c-64.925-10.959-114.434-65.33-114.434-130.705
		c0-73.247,62.125-132.843,138.465-132.843c76.37,0,138.479,59.596,138.479,132.843h14.185C407.928,70.208,339.445,4.5,255.264,4.5
		c-84.168,0-152.649,65.694-152.649,146.451C102.599,223.413,157.798,283.576,229.913,295.218z"/>
</g>
</svg>
