<?xml version="1.0" encoding="utf-8"?>
<!-- Generator: Adobe Illustrator 16.0.0, SVG Export Plug-In . SVG Version: 6.00 Build 0)  -->
<!DOCTYPE svg PUBLIC "-//W3C//DTD SVG 1.1//EN" "http://www.w3.org/Graphics/SVG/1.1/DTD/svg11.dtd">
<svg version="1.1" id="Layer_1" xmlns="http://www.w3.org/2000/svg" xmlns:xlink="http://www.w3.org/1999/xlink" x="0px" y="0px"
	 width="50px" height="50px" viewBox="0 0 50 50" enable-background="new 0 0 50 50" xml:space="preserve">
<g>
	<path d="M30.142,28.412c1.693-1.783,2.771-4.302,2.771-6.707c0-4.37-3.542-7.913-7.913-7.913c-4.37,0-7.912,3.542-7.912,7.913
		c0,1.081,0.227,2.181,0.621,3.23c0.972,2.191,2.881,3.892,5.298,4.51c0.479-0.591,1.201-0.946,1.993-0.946
		c1.421,0,2.576,1.155,2.576,2.576S26.42,33.65,25,33.65c-1.011,0-1.906-0.59-2.325-1.47c-2.078-0.458-3.9-1.501-5.316-2.932
		c-3.118,1.332-5.14,3.453-5.14,5.848c0,4.034,25.563,4.034,25.563,0C37.782,32.108,34.639,29.543,30.142,28.412z"/>
	<path d="M23.368,31.385c0.146,0.77,0.82,1.353,1.631,1.353c0.919,0,1.664-0.745,1.664-1.663S25.918,29.412,25,29.412
		c-0.706,0-1.305,0.442-1.547,1.062c-4.179-0.735-7.366-4.383-7.366-8.77c0-4.915,3.999-8.914,8.913-8.914
		c4.916,0,8.914,3.999,8.914,8.914h0.913c0-5.418-4.408-9.827-9.827-9.827c-5.418,0-9.826,4.408-9.826,9.827
		C15.173,26.566,18.726,30.604,23.368,31.385z"/>
</g>
</svg>
