<?xml version="1.0" encoding="utf-8"?>
<!-- Generator: Adobe Illustrator 15.1.0, SVG Export Plug-In . SVG Version: 6.00 Build 0)  -->
<!DOCTYPE svg PUBLIC "-//W3C//DTD SVG 1.1//EN" "http://www.w3.org/Graphics/SVG/1.1/DTD/svg11.dtd">
<svg version="1.1" id="Capa_1" xmlns="http://www.w3.org/2000/svg" xmlns:xlink="http://www.w3.org/1999/xlink" x="0px" y="0px"
	 width="500px" height="400px" viewBox="0 0 500 400" enable-background="new 0 0 500 400" xml:space="preserve">
<circle fill="none" stroke="#2C3E50" stroke-width="4" stroke-miterlimit="10" cx="250" cy="200" r="194.5"/>
<g>
	<path fill="#2C3E50" d="M374.54,154.826c-9.606-25.529-34.264-43.693-63.134-43.693c-6.649,0-13.069,0.969-19.149,2.764
		c-16.452-26.566-45.861-44.253-79.399-44.253c-50.867,0-92.263,40.706-93.336,91.324c-18.621,10.778-31.147,30.908-31.147,53.901
		c0,34.356,27.884,62.242,62.236,62.242h62.237v-20.747h-62.267c-22.848,0-41.458-18.57-41.458-41.495
		c0-19.637,13.657-36.11,32.023-40.41c-0.602-3.729-0.902-7.557-0.902-11.453c0-40.099,32.516-72.615,72.615-72.615
		c32.806,0,60.518,21.753,69.523,51.604c7.989-6.344,18.04-10.114,29.025-10.114c24.025,0,43.829,18.153,46.392,41.494h0.312
		c22.854,0,41.462,18.58,41.462,41.495c0,22.864-18.559,41.495-41.462,41.495h-62.263v20.737h62.242
		c34.346,0,62.23-27.938,62.23-62.232C420.329,186.186,400.931,162.036,374.54,154.826z"/>
	<polygon fill="#2C3E50" points="254.352,163.005 202.485,225.242 233.605,225.242 233.605,308.23 275.1,308.23 275.1,225.242 
		306.22,225.242 	"/>
</g>
</svg>
