<?xml version="1.0" encoding="utf-8"?>
<!-- Generator: Adobe Illustrator 18.0.0, SVG Export Plug-In . SVG Version: 6.00 Build 0)  -->
<!DOCTYPE svg PUBLIC "-//W3C//DTD SVG 1.1//EN" "http://www.w3.org/Graphics/SVG/1.1/DTD/svg11.dtd">
<svg version="1.1" id="Layer_1" xmlns="http://www.w3.org/2000/svg" xmlns:xlink="http://www.w3.org/1999/xlink" x="0px" y="0px"
	 viewBox="0 0 229 229" enable-background="new 0 0 229 229" xml:space="preserve">
<g>
	<circle fill="none" stroke="#2C3E50" stroke-width="4" stroke-miterlimit="10" cx="114.5" cy="114.5" r="110"/>
</g>
<g>
	<path fill="#2C3E50" d="M177.3,142.6c-0.8-1.3-2.9-2.1-6-3.6c-3.1-1.5-18.4-9-21.3-10c-2.9-1-4.9-1.6-7,1.5
		c-2.1,3.1-8,10.1-9.9,12.1c-1.8,2.1-3.6,2.3-6.7,0.8c-3.1-1.5-13.1-4.8-25-15.3c-9.3-8.2-15.5-18.3-17.3-21.4
		c-1.8-3.1-0.2-4.8,1.4-6.3c1.4-1.4,3.1-3.6,4.7-5.4c1.6-1.8,2.1-3.1,3.1-5.2c1-2.1,0.5-3.9-0.3-5.4c-0.8-1.5-7-16.7-9.6-22.9
		c-2.6-6.2-5.2-5.2-7-5.2c-1.8,0-3.9-0.3-6-0.3c-2.1,0-5.5,0.8-8.3,3.9c-2.9,3.1-10.9,10.6-10.9,25.8c0,15.2,11.2,29.9,12.7,32
		c1.6,2.1,21.5,34.3,53.2,46.7c31.7,12.4,31.7,8.2,37.4,7.7c5.7-0.5,18.4-7.5,21-14.7C178.1,150,178.1,143.9,177.3,142.6z"/>
</g>
</svg>
