<?xml version="1.0" encoding="utf-8"?>
<!-- Generator: Adobe Illustrator 15.1.0, SVG Export Plug-In . SVG Version: 6.00 Build 0)  -->
<!DOCTYPE svg PUBLIC "-//W3C//DTD SVG 1.1//EN" "http://www.w3.org/Graphics/SVG/1.1/DTD/svg11.dtd">
<svg version="1.1" id="Layer_1" xmlns="http://www.w3.org/2000/svg" xmlns:xlink="http://www.w3.org/1999/xlink" x="0px" y="0px"
	 width="327.959px" height="706.911px" viewBox="0 0 327.959 706.911" enable-background="new 0 0 327.959 706.911"
	 xml:space="preserve">
<image overflow="visible" enable-background="new    " width="328" height="707" xlink:href="../../../../Untitled-1.png"  transform="matrix(0.8999 0 0 0.8999 16.3984 35.3457)">
</image>
<g>
	<rect x="44" y="75.333" fill="none" width="238.584" height="82.768"/>
	<text transform="matrix(1 0 0 1 46.6611 102.6938)" fill="#FFFFFF" font-family="'OpenSans-Bold'" font-size="36">Hospedagem </text>
	<text transform="matrix(1 0 0 1 113.563 145.894)" fill="#FFFFFF" font-family="'OpenSans-Bold'" font-size="36">Linux</text>
	<rect x="70.667" y="168.333" fill="none" width="187.333" height="20.667"/>
	<text transform="matrix(1 0 0 1 78.3125 186.5737)" fill="#FFFFFF" font-family="'OpenSans'" font-size="24">R$ 9,90/mensal</text>
</g>
<rect x="32.667" y="235" fill="none" width="256.667" height="25.333"/>
<text transform="matrix(1 0 0 1 84.0928 246.4009)" font-family="'OpenSans-Light'" font-size="15">Espaço em disco 20GB</text>
<rect x="34.667" y="340.333" fill="none" width="256.667" height="25.333"/>
<text transform="matrix(1 0 0 1 106.8018 351.7339)" font-family="'OpenSans-Light'" font-size="15">Tráfego ilimitado</text>
<rect x="36" y="394.333" fill="none" width="256.667" height="25.334"/>
<text transform="matrix(1 0 0 1 98.1299 405.7329)" font-family="'OpenSans-Light'" font-size="15">Domínios ilimitados</text>
<rect x="34.667" y="448.333" fill="none" width="256.667" height="25.334"/>
<text transform="matrix(1 0 0 1 108.1094 459.7329)" font-family="'OpenSans-Light'" font-size="15">Painel de cliente</text>
<rect x="34.334" y="506.333" fill="none" width="256.667" height="25.334"/>
<text transform="matrix(1 0 0 1 65.1895 517.7329)" font-family="'OpenSans-Light'" font-size="15">Acesso 2.600 acessos diários</text>
<rect x="17.667" y="563.667" fill="none" width="288.667" height="34"/>
<text transform="matrix(1 0 0 1 46.582 575.0669)" font-family="'OpenSans-Light'" font-size="15">Banco de dados 3 máximo 200mb</text>
<rect x="33.334" y="288.333" fill="none" width="256.667" height="25.333"/>
<text transform="matrix(1 0 0 1 63.1714 299.7339)" font-family="'OpenSans-Light'" font-size="15">10 contas de e-mail max 2BG</text>
<rect x="85" y="626.333" fill="none" width="159.333" height="52.668"/>
<path fill="#51A351" d="M240.311,643.624c0,6.627-5.373,12-12,12H102.313c-6.628,0-12-5.373-12-12v-21c0-6.627,5.372-12,12-12
	h125.998c6.627,0,12,5.373,12,12V643.624z"/>
<text transform="matrix(1 0 0 1 125.9121 638.7339)" fill="#FFFFFF" font-family="'OpenSans-Bold'" font-size="15">Adquira já</text>
</svg>
