<?xml version="1.0" encoding="utf-8"?>
<!-- Generator: Adobe Illustrator 15.1.0, SVG Export Plug-In . SVG Version: 6.00 Build 0)  -->
<!DOCTYPE svg PUBLIC "-//W3C//DTD SVG 1.1//EN" "http://www.w3.org/Graphics/SVG/1.1/DTD/svg11.dtd">
<svg version="1.1" id="Layer_1" xmlns="http://www.w3.org/2000/svg" xmlns:xlink="http://www.w3.org/1999/xlink" x="0px" y="0px"
	 width="327.959px" height="706.911px" viewBox="0 0 327.959 706.911" enable-background="new 0 0 327.959 706.911"
	 xml:space="preserve">
<image overflow="visible" enable-background="new    " width="328" height="707" xlink:href="../../../../Untitled-1.png"  transform="matrix(0.8999 0 0 0.8999 16.3984 35.3457)">
</image>
<g>
	<rect x="44" y="75.333" fill="none" width="238.584" height="82.768"/>
	<g enable-background="new    ">
		<path fill="#FFFFFF" d="M70.954,102.694h-5.432V91.602H55.345v11.092h-5.449V76.995h5.449v10.072h10.178V76.995h5.432V102.694z"/>
		<path fill="#FFFFFF" d="M94.878,92.833c0,3.199-0.844,5.701-2.531,7.506s-4.037,2.707-7.049,2.707
			c-1.887,0-3.551-0.413-4.992-1.239s-2.549-2.013-3.322-3.56s-1.16-3.352-1.16-5.414c0-3.211,0.838-5.707,2.514-7.488
			s4.031-2.672,7.066-2.672c1.887,0,3.551,0.41,4.992,1.23s2.549,1.998,3.322,3.533S94.878,90.77,94.878,92.833z M81.29,92.833
			c0,1.945,0.319,3.416,0.958,4.412s1.679,1.494,3.12,1.494c1.43,0,2.458-0.495,3.085-1.485s0.94-2.464,0.94-4.421
			c0-1.945-0.316-3.404-0.949-4.377s-1.67-1.459-3.111-1.459c-1.43,0-2.461,0.483-3.094,1.45S81.29,90.875,81.29,92.833z"/>
		<path fill="#FFFFFF" d="M113.019,96.858c0,2.016-0.7,3.551-2.101,4.605s-3.495,1.582-6.284,1.582c-1.43,0-2.648-0.097-3.656-0.29
			s-1.951-0.478-2.83-0.853v-4.43c0.996,0.469,2.118,0.861,3.366,1.178s2.347,0.475,3.296,0.475c1.945,0,2.918-0.563,2.918-1.688
			c0-0.422-0.129-0.765-0.387-1.028s-0.703-0.563-1.336-0.896s-1.477-0.724-2.531-1.169c-1.512-0.633-2.622-1.219-3.331-1.758
			s-1.225-1.157-1.547-1.854s-0.483-1.556-0.483-2.575c0-1.746,0.677-3.097,2.03-4.052s3.272-1.433,5.757-1.433
			c2.367,0,4.67,0.516,6.908,1.547l-1.617,3.867c-0.984-0.422-1.904-0.768-2.76-1.037s-1.729-0.404-2.619-0.404
			c-1.582,0-2.373,0.428-2.373,1.283c0,0.48,0.255,0.896,0.765,1.248s1.626,0.873,3.349,1.564c1.535,0.621,2.66,1.201,3.375,1.74
			s1.242,1.16,1.582,1.863S113.019,95.885,113.019,96.858z"/>
		<path fill="#FFFFFF" d="M127.995,103.045c-2.309,0-4.119-0.838-5.432-2.514h-0.281c0.188,1.641,0.281,2.59,0.281,2.848v7.963
			h-5.361V83.042h4.359l0.756,2.549h0.246c1.254-1.945,3.111-2.918,5.572-2.918c2.32,0,4.137,0.896,5.449,2.689
			s1.969,4.283,1.969,7.471c0,2.098-0.308,3.92-0.923,5.467s-1.491,2.725-2.628,3.533S129.53,103.045,127.995,103.045z
			 M126.413,86.961c-1.324,0-2.291,0.407-2.9,1.222s-0.926,2.159-0.949,4.034v0.58c0,2.109,0.313,3.621,0.94,4.535
			s1.62,1.371,2.979,1.371c2.402,0,3.604-1.98,3.604-5.941c0-1.934-0.296-3.384-0.888-4.351S127.679,86.961,126.413,86.961z"/>
		<path fill="#FFFFFF" d="M148.878,103.045c-3.164,0-5.637-0.873-7.418-2.619s-2.672-4.219-2.672-7.418
			c0-3.293,0.823-5.839,2.47-7.638s3.923-2.698,6.829-2.698c2.777,0,4.939,0.791,6.486,2.373s2.32,3.768,2.32,6.557v2.602H144.22
			c0.059,1.523,0.51,2.713,1.354,3.568s2.027,1.283,3.551,1.283c1.184,0,2.303-0.123,3.357-0.369s2.156-0.639,3.305-1.178v4.148
			c-0.938,0.469-1.939,0.817-3.006,1.046S150.413,103.045,148.878,103.045z M148.122,86.487c-1.137,0-2.027,0.36-2.672,1.081
			s-1.014,1.743-1.107,3.067h7.523c-0.023-1.324-0.369-2.347-1.037-3.067S149.259,86.487,148.122,86.487z"/>
		<path fill="#FFFFFF" d="M167.476,103.045c-2.309,0-4.122-0.896-5.44-2.689s-1.978-4.277-1.978-7.453
			c0-3.223,0.671-5.733,2.013-7.532s3.19-2.698,5.546-2.698c2.473,0,4.359,0.961,5.66,2.883h0.176
			c-0.27-1.465-0.404-2.771-0.404-3.92v-6.293h5.379v27.352h-4.113l-1.037-2.549h-0.229
			C171.829,102.079,169.972,103.045,167.476,103.045z M169.356,98.774c1.371,0,2.376-0.398,3.015-1.195s0.987-2.15,1.046-4.061
			v-0.58c0-2.109-0.325-3.621-0.976-4.535s-1.708-1.371-3.173-1.371c-1.195,0-2.124,0.507-2.786,1.521s-0.993,2.487-0.993,4.421
			s0.334,3.384,1.002,4.351S168.114,98.774,169.356,98.774z"/>
		<path fill="#FFFFFF" d="M196.515,102.694l-1.037-2.672h-0.141c-0.902,1.137-1.831,1.925-2.786,2.364s-2.2,0.659-3.735,0.659
			c-1.887,0-3.372-0.539-4.456-1.617s-1.626-2.613-1.626-4.605c0-2.086,0.729-3.624,2.188-4.614s3.659-1.538,6.601-1.644l3.41-0.105
			v-0.861c0-1.992-1.02-2.988-3.059-2.988c-1.57,0-3.416,0.475-5.537,1.424l-1.775-3.621c2.262-1.184,4.77-1.775,7.523-1.775
			c2.637,0,4.658,0.574,6.064,1.723s2.109,2.895,2.109,5.238v13.096H196.515z M194.933,93.588l-2.074,0.07
			c-1.559,0.047-2.719,0.328-3.48,0.844s-1.143,1.301-1.143,2.355c0,1.512,0.867,2.268,2.602,2.268c1.242,0,2.235-0.357,2.979-1.072
			s1.116-1.664,1.116-2.848V93.588z"/>
		<path fill="#FFFFFF" d="M222.882,83.042v2.725l-3.076,0.791c0.563,0.879,0.844,1.863,0.844,2.953c0,2.109-0.735,3.753-2.206,4.931
			s-3.513,1.767-6.126,1.767l-0.967-0.053l-0.791-0.088c-0.551,0.422-0.826,0.891-0.826,1.406c0,0.773,0.984,1.16,2.953,1.16h3.34
			c2.156,0,3.8,0.463,4.931,1.389s1.696,2.285,1.696,4.078c0,2.297-0.958,4.078-2.874,5.344s-4.667,1.898-8.253,1.898
			c-2.742,0-4.837-0.478-6.284-1.433s-2.171-2.294-2.171-4.017c0-1.184,0.369-2.174,1.107-2.971s1.822-1.365,3.252-1.705
			c-0.551-0.234-1.031-0.618-1.441-1.151s-0.615-1.099-0.615-1.696c0-0.75,0.217-1.374,0.65-1.872s1.061-0.987,1.881-1.468
			c-1.031-0.445-1.849-1.16-2.452-2.145s-0.905-2.145-0.905-3.48c0-2.145,0.697-3.803,2.092-4.975s3.387-1.758,5.977-1.758
			c0.551,0,1.204,0.05,1.96,0.149s1.239,0.173,1.45,0.22H222.882z M207.712,105.471c0,0.738,0.354,1.318,1.063,1.74
			s1.702,0.633,2.979,0.633c1.922,0,3.428-0.264,4.518-0.791s1.635-1.248,1.635-2.162c0-0.738-0.322-1.248-0.967-1.529
			s-1.641-0.422-2.988-0.422h-2.777c-0.984,0-1.808,0.231-2.47,0.694S207.712,104.709,207.712,105.471z M209.663,89.475
			c0,1.066,0.243,1.91,0.729,2.531s1.228,0.932,2.224,0.932c1.008,0,1.746-0.311,2.215-0.932s0.703-1.465,0.703-2.531
			c0-2.367-0.973-3.551-2.918-3.551C210.647,85.924,209.663,87.108,209.663,89.475z"/>
		<path fill="#FFFFFF" d="M235.011,103.045c-3.164,0-5.637-0.873-7.418-2.619s-2.672-4.219-2.672-7.418
			c0-3.293,0.823-5.839,2.47-7.638s3.923-2.698,6.829-2.698c2.777,0,4.939,0.791,6.486,2.373s2.32,3.768,2.32,6.557v2.602h-12.674
			c0.059,1.523,0.51,2.713,1.354,3.568s2.027,1.283,3.551,1.283c1.184,0,2.303-0.123,3.357-0.369s2.156-0.639,3.305-1.178v4.148
			c-0.938,0.469-1.939,0.817-3.006,1.046S236.546,103.045,235.011,103.045z M234.255,86.487c-1.137,0-2.027,0.36-2.672,1.081
			s-1.014,1.743-1.107,3.067h7.523c-0.023-1.324-0.369-2.347-1.037-3.067S235.392,86.487,234.255,86.487z"/>
		<path fill="#FFFFFF" d="M264.981,102.694h-5.361V91.215c0-1.418-0.237-2.481-0.712-3.19s-1.222-1.063-2.241-1.063
			c-1.371,0-2.367,0.504-2.988,1.512s-0.932,2.666-0.932,4.975v9.246h-5.361V83.042h4.096l0.721,2.514h0.299
			c0.527-0.902,1.289-1.608,2.285-2.118s2.139-0.765,3.428-0.765c2.941,0,4.934,0.961,5.977,2.883h0.475
			c0.527-0.914,1.304-1.623,2.329-2.127s2.183-0.756,3.472-0.756c2.227,0,3.911,0.571,5.054,1.714s1.714,2.974,1.714,5.493v12.814
			h-5.379V91.215c0-1.418-0.237-2.481-0.712-3.19s-1.222-1.063-2.241-1.063c-1.313,0-2.294,0.469-2.944,1.406
			s-0.976,2.426-0.976,4.465V102.694z"/>
	</g>
	<g enable-background="new    ">
		<path fill="#FFFFFF" d="M116.797,145.894v-25.699h5.449v21.199h10.424v4.5H116.797z"/>
		<path fill="#FFFFFF" d="M136.485,121.162c0-1.746,0.973-2.619,2.918-2.619s2.918,0.873,2.918,2.619
			c0,0.832-0.243,1.479-0.729,1.942s-1.216,0.694-2.188,0.694C137.458,123.798,136.485,122.919,136.485,121.162z M142.075,145.894
			h-5.361v-19.652h5.361V145.894z"/>
		<path fill="#FFFFFF" d="M165.841,145.894h-5.362v-11.479c0-1.418-0.252-2.481-0.756-3.19s-1.307-1.063-2.408-1.063
			c-1.5,0-2.584,0.501-3.252,1.503s-1.002,2.663-1.002,4.983v9.246H147.7v-19.652h4.096l0.721,2.514h0.299
			c0.598-0.949,1.421-1.667,2.47-2.153s2.241-0.729,3.577-0.729c2.285,0,4.02,0.618,5.203,1.854
			c1.184,1.236,1.776,3.021,1.776,5.353V145.894z"/>
		<path fill="#FFFFFF" d="M185.282,145.894l-0.721-2.514h-0.281c-0.574,0.914-1.389,1.62-2.443,2.118s-2.256,0.747-3.604,0.747
			c-2.309,0-4.049-0.618-5.221-1.854s-1.758-3.015-1.758-5.335v-12.814h5.361v11.479c0,1.418,0.252,2.481,0.756,3.19
			s1.307,1.063,2.408,1.063c1.5,0,2.584-0.501,3.252-1.503s1.002-2.663,1.002-4.983v-9.246h5.361v19.652H185.282z"/>
		<path fill="#FFFFFF" d="M199.046,135.857l-6.328-9.615h6.082l3.814,6.258l3.85-6.258h6.082l-6.398,9.615l6.697,10.037h-6.1
			l-4.131-6.732l-4.148,6.732h-6.082L199.046,135.857z"/>
	</g>
	<rect x="70.667" y="168.333" fill="none" width="187.333" height="20.667"/>
	<g enable-background="new    ">
		<path fill="#FFFFFF" d="M82.66,179.449v7.125h-1.992v-17.133h4.699c2.102,0,3.654,0.402,4.658,1.207s1.506,2.016,1.506,3.633
			c0,2.266-1.148,3.797-3.445,4.594l4.652,7.699h-2.355l-4.148-7.125H82.66z M82.66,177.738h2.73c1.406,0,2.438-0.279,3.094-0.838
			s0.984-1.396,0.984-2.514c0-1.133-0.334-1.949-1.002-2.449s-1.74-0.75-3.217-0.75h-2.59V177.738z"/>
		<path fill="#FFFFFF" d="M105.289,181.312c0,1.063-0.398,1.939-1.195,2.631s-1.91,1.127-3.34,1.307v2.719h-1.512v-2.613
			c-0.875,0-1.723-0.068-2.543-0.205s-1.492-0.326-2.016-0.568v-1.828c0.648,0.289,1.396,0.525,2.244,0.709s1.619,0.275,2.314,0.275
			v-5.156c-1.602-0.508-2.725-1.098-3.369-1.77s-0.967-1.539-0.967-2.602c0-1.023,0.396-1.863,1.189-2.52s1.842-1.055,3.146-1.195
			v-2.133h1.512v2.109c1.438,0.039,2.824,0.328,4.16,0.867l-0.609,1.535c-1.164-0.461-2.348-0.734-3.551-0.82v5.086
			c1.227,0.391,2.145,0.771,2.754,1.143s1.059,0.797,1.348,1.277S105.289,180.625,105.289,181.312z M96.887,174.187
			c0,0.594,0.176,1.07,0.527,1.43s0.961,0.699,1.828,1.02v-4.535c-0.773,0.125-1.359,0.369-1.758,0.732
			S96.887,173.648,96.887,174.187z M103.297,181.464c0-0.563-0.174-1.018-0.521-1.365s-1.021-0.693-2.021-1.037v4.559
			C102.449,183.386,103.297,182.667,103.297,181.464z"/>
		<path fill="#FFFFFF" d="M125.539,176.753c0,6.703-2.594,10.055-7.781,10.055c-0.906,0-1.625-0.078-2.156-0.234v-1.676
			c0.625,0.203,1.336,0.305,2.133,0.305c1.875,0,3.291-0.58,4.248-1.74s1.479-2.939,1.564-5.338h-0.141
			c-0.43,0.648-1,1.143-1.711,1.482s-1.512,0.51-2.402,0.51c-1.516,0-2.719-0.453-3.609-1.359s-1.336-2.172-1.336-3.797
			c0-1.781,0.498-3.188,1.494-4.219s2.307-1.547,3.932-1.547c1.164,0,2.182,0.299,3.053,0.896s1.541,1.469,2.01,2.613
			S125.539,175.199,125.539,176.753z M119.773,170.859c-1.117,0-1.98,0.359-2.59,1.078s-0.914,1.719-0.914,3
			c0,1.125,0.281,2.01,0.844,2.654s1.418,0.967,2.566,0.967c0.711,0,1.365-0.145,1.963-0.434s1.068-0.684,1.412-1.184
			s0.516-1.023,0.516-1.57c0-0.82-0.16-1.578-0.48-2.273s-0.768-1.242-1.342-1.641S120.516,170.859,119.773,170.859z"/>
		<path fill="#FFFFFF" d="M130.93,183.785l0.176,0.27c-0.203,0.781-0.496,1.689-0.879,2.725s-0.781,1.998-1.195,2.889h-1.465
			c0.211-0.813,0.443-1.816,0.697-3.012s0.432-2.152,0.533-2.871H130.93z"/>
		<path fill="#FFFFFF" d="M145.145,176.753c0,6.703-2.594,10.055-7.781,10.055c-0.906,0-1.625-0.078-2.156-0.234v-1.676
			c0.625,0.203,1.336,0.305,2.133,0.305c1.875,0,3.291-0.58,4.248-1.74s1.479-2.939,1.564-5.338h-0.141
			c-0.43,0.648-1,1.143-1.711,1.482s-1.512,0.51-2.402,0.51c-1.516,0-2.719-0.453-3.609-1.359s-1.336-2.172-1.336-3.797
			c0-1.781,0.498-3.188,1.494-4.219s2.307-1.547,3.932-1.547c1.164,0,2.182,0.299,3.053,0.896s1.541,1.469,2.01,2.613
			S145.145,175.199,145.145,176.753z M139.379,170.859c-1.117,0-1.98,0.359-2.59,1.078s-0.914,1.719-0.914,3
			c0,1.125,0.281,2.01,0.844,2.654s1.418,0.967,2.566,0.967c0.711,0,1.365-0.145,1.963-0.434s1.068-0.684,1.412-1.184
			s0.516-1.023,0.516-1.57c0-0.82-0.16-1.578-0.48-2.273s-0.768-1.242-1.342-1.641S140.121,170.859,139.379,170.859z"/>
		<path fill="#FFFFFF" d="M158.961,177.984c0,2.961-0.467,5.172-1.4,6.633s-2.361,2.191-4.283,2.191
			c-1.844,0-3.246-0.748-4.207-2.244s-1.441-3.689-1.441-6.58c0-2.984,0.465-5.199,1.395-6.645s2.348-2.168,4.254-2.168
			c1.859,0,3.271,0.754,4.236,2.262S158.961,175.125,158.961,177.984z M149.598,177.984c0,2.492,0.293,4.307,0.879,5.443
			s1.52,1.705,2.801,1.705c1.297,0,2.236-0.576,2.818-1.729s0.873-2.959,0.873-5.42s-0.291-4.264-0.873-5.408
			s-1.521-1.717-2.818-1.717c-1.281,0-2.215,0.564-2.801,1.693S149.598,175.492,149.598,177.984z"/>
		<path fill="#FFFFFF" d="M168.723,169.441l-6.387,17.133h-1.945l6.387-17.133H168.723z"/>
		<path fill="#FFFFFF" d="M187.402,186.574v-8.355c0-1.023-0.219-1.791-0.656-2.303s-1.117-0.768-2.039-0.768
			c-1.211,0-2.105,0.348-2.684,1.043s-0.867,1.766-0.867,3.211v7.172h-1.945v-8.355c0-1.023-0.219-1.791-0.656-2.303
			s-1.121-0.768-2.051-0.768c-1.219,0-2.111,0.365-2.678,1.096s-0.85,1.928-0.85,3.592v6.738h-1.945V173.73h1.582l0.316,1.758h0.094
			c0.367-0.625,0.885-1.113,1.553-1.465s1.416-0.527,2.244-0.527c2.008,0,3.32,0.727,3.938,2.18h0.094
			c0.383-0.672,0.938-1.203,1.664-1.594s1.555-0.586,2.484-0.586c1.453,0,2.541,0.373,3.264,1.119s1.084,1.939,1.084,3.58v8.379
			H187.402z"/>
		<path fill="#FFFFFF" d="M198.781,186.808c-1.898,0-3.396-0.578-4.494-1.734s-1.646-2.762-1.646-4.816
			c0-2.07,0.51-3.715,1.529-4.934s2.389-1.828,4.107-1.828c1.609,0,2.883,0.529,3.82,1.588s1.406,2.455,1.406,4.189v1.23h-8.848
			c0.039,1.508,0.42,2.652,1.143,3.434s1.74,1.172,3.053,1.172c1.383,0,2.75-0.289,4.102-0.867v1.734
			c-0.688,0.297-1.338,0.51-1.951,0.639S199.648,186.808,198.781,186.808z M198.254,175.125c-1.031,0-1.854,0.336-2.467,1.008
			s-0.975,1.602-1.084,2.789h6.715c0-1.227-0.273-2.166-0.82-2.818S199.27,175.125,198.254,175.125z"/>
		<path fill="#FFFFFF" d="M215.609,186.574v-8.309c0-1.047-0.238-1.828-0.715-2.344s-1.223-0.773-2.238-0.773
			c-1.344,0-2.328,0.363-2.953,1.09s-0.938,1.926-0.938,3.598v6.738h-1.945V173.73h1.582l0.316,1.758h0.094
			c0.398-0.633,0.957-1.123,1.676-1.471s1.52-0.521,2.402-0.521c1.547,0,2.711,0.373,3.492,1.119s1.172,1.939,1.172,3.58v8.379
			H215.609z"/>
		<path fill="#FFFFFF" d="M229.836,183.07c0,1.195-0.445,2.117-1.336,2.766s-2.141,0.973-3.75,0.973
			c-1.703,0-3.031-0.27-3.984-0.809v-1.805c0.617,0.313,1.279,0.559,1.986,0.738s1.389,0.27,2.045,0.27
			c1.016,0,1.797-0.162,2.344-0.486s0.82-0.818,0.82-1.482c0-0.5-0.217-0.928-0.65-1.283s-1.279-0.775-2.537-1.26
			c-1.195-0.445-2.045-0.834-2.549-1.166s-0.879-0.709-1.125-1.131s-0.369-0.926-0.369-1.512c0-1.047,0.426-1.873,1.277-2.479
			s2.02-0.908,3.504-0.908c1.383,0,2.734,0.281,4.055,0.844l-0.691,1.582c-1.289-0.531-2.457-0.797-3.504-0.797
			c-0.922,0-1.617,0.145-2.086,0.434s-0.703,0.688-0.703,1.195c0,0.344,0.088,0.637,0.264,0.879s0.459,0.473,0.85,0.691
			s1.141,0.535,2.25,0.949c1.523,0.555,2.553,1.113,3.088,1.676S229.836,182.218,229.836,183.07z"/>
		<path fill="#FFFFFF" d="M240.898,186.574l-0.387-1.828h-0.094c-0.641,0.805-1.279,1.35-1.916,1.635s-1.432,0.428-2.385,0.428
			c-1.273,0-2.271-0.328-2.994-0.984s-1.084-1.59-1.084-2.801c0-2.594,2.074-3.953,6.223-4.078l2.18-0.07v-0.797
			c0-1.008-0.217-1.752-0.65-2.232s-1.127-0.721-2.08-0.721c-1.07,0-2.281,0.328-3.633,0.984l-0.598-1.488
			c0.633-0.344,1.326-0.613,2.08-0.809s1.51-0.293,2.268-0.293c1.531,0,2.666,0.34,3.404,1.02s1.107,1.77,1.107,3.27v8.766H240.898z
			 M236.504,185.203c1.211,0,2.162-0.332,2.854-0.996s1.037-1.594,1.037-2.789v-1.16l-1.945,0.082
			c-1.547,0.055-2.662,0.295-3.346,0.721s-1.025,1.088-1.025,1.986c0,0.703,0.213,1.238,0.639,1.605
			S235.738,185.203,236.504,185.203z"/>
		<path fill="#FFFFFF" d="M248.293,186.574h-1.945v-18.234h1.945V186.574z"/>
	</g>
</g>
<rect x="32.667" y="235" fill="none" width="256.667" height="25.333"/>
<g enable-background="new    ">
	<path d="M91.461,246.401h-5.852v-10.708h5.852v0.688h-5.105v4.051h4.819v0.688h-4.819v4.593h5.105V246.401z"/>
	<path d="M98.639,244.329c0,0.713-0.271,1.261-0.813,1.644c-0.542,0.384-1.311,0.575-2.307,0.575c-1.064,0-1.909-0.163-2.534-0.49
		v-0.784c0.801,0.4,1.646,0.601,2.534,0.601c0.786,0,1.383-0.131,1.791-0.392c0.407-0.262,0.611-0.609,0.611-1.044
		c0-0.4-0.163-0.737-0.487-1.011s-0.858-0.542-1.6-0.806c-0.796-0.288-1.355-0.536-1.677-0.743
		c-0.322-0.208-0.565-0.442-0.729-0.703c-0.164-0.262-0.246-0.58-0.246-0.956c0-0.596,0.25-1.066,0.75-1.414
		c0.5-0.346,1.2-0.52,2.099-0.52c0.859,0,1.675,0.161,2.446,0.483l-0.271,0.659c-0.781-0.322-1.506-0.483-2.175-0.483
		c-0.649,0-1.165,0.107-1.545,0.322s-0.571,0.513-0.571,0.894c0,0.415,0.147,0.747,0.443,0.996s0.873,0.527,1.732,0.835
		c0.718,0.259,1.24,0.492,1.567,0.699c0.327,0.208,0.572,0.443,0.736,0.707C98.557,243.662,98.639,243.972,98.639,244.329z"/>
	<path d="M104.095,246.547c-1.226,0-2.119-0.459-2.681-1.377h-0.051l0.022,0.615c0.02,0.361,0.029,0.757,0.029,1.187v3.032h-0.725
		V238.44h0.615l0.139,1.135h0.044c0.547-0.859,1.421-1.289,2.622-1.289c1.074,0,1.893,0.353,2.458,1.059
		c0.563,0.705,0.846,1.732,0.846,3.08c0,1.309-0.297,2.322-0.89,3.043C105.93,246.187,105.121,246.547,104.095,246.547z
		 M104.081,245.903c0.815,0,1.447-0.303,1.893-0.908c0.447-0.605,0.67-1.452,0.67-2.541c0-2.339-0.845-3.509-2.534-3.509
		c-0.928,0-1.609,0.255-2.043,0.766c-0.435,0.51-0.652,1.342-0.652,2.493v0.234c0,1.246,0.208,2.135,0.626,2.666
		C102.458,245.637,103.138,245.903,104.081,245.903z"/>
	<path d="M114.452,246.401l-0.183-1.26h-0.059c-0.4,0.513-0.812,0.875-1.234,1.088c-0.422,0.212-0.921,0.318-1.498,0.318
		c-0.781,0-1.389-0.2-1.824-0.601s-0.652-0.954-0.652-1.663c0-0.775,0.323-1.379,0.97-1.809s1.583-0.656,2.809-0.682l1.516-0.043
		v-0.527c0-0.757-0.154-1.328-0.461-1.715c-0.308-0.385-0.803-0.578-1.487-0.578c-0.737,0-1.501,0.205-2.292,0.615l-0.271-0.63
		c0.874-0.41,1.738-0.615,2.593-0.615c0.874,0,1.527,0.228,1.959,0.681c0.433,0.455,0.648,1.163,0.648,2.125v5.295H114.452z
		 M111.522,245.888c0.85,0,1.52-0.243,2.01-0.729c0.491-0.486,0.736-1.161,0.736-2.025v-0.784l-1.392,0.059
		c-1.118,0.055-1.915,0.229-2.392,0.524c-0.476,0.295-0.714,0.756-0.714,1.38c0,0.498,0.152,0.886,0.458,1.161
		C110.534,245.75,110.965,245.888,111.522,245.888z"/>
	<path d="M120.743,246.547c-1.138,0-2.029-0.359-2.673-1.076c-0.645-0.719-0.967-1.719-0.967-3.004c0-1.318,0.334-2.345,1.003-3.079
		c0.669-0.735,1.584-1.103,2.747-1.103c0.688,0,1.348,0.12,1.978,0.359l-0.198,0.645c-0.688-0.229-1.287-0.345-1.794-0.345
		c-0.977,0-1.716,0.302-2.219,0.904c-0.503,0.604-0.754,1.472-0.754,2.604c0,1.074,0.251,1.915,0.754,2.522
		c0.503,0.608,1.206,0.912,2.109,0.912c0.723,0,1.394-0.129,2.014-0.388v0.674C122.235,246.422,121.568,246.547,120.743,246.547z
		 M121.527,248.532c0,0.488-0.165,0.856-0.495,1.103c-0.329,0.247-0.79,0.37-1.38,0.37c-0.332,0-0.562-0.027-0.688-0.08v-0.645
		c0.146,0.048,0.371,0.072,0.674,0.072c0.381,0,0.671-0.068,0.872-0.205s0.3-0.332,0.3-0.586c0-0.459-0.471-0.754-1.414-0.886
		l0.681-1.274h0.703l-0.483,0.857C121.117,247.438,121.527,247.863,121.527,248.532z"/>
	<path d="M131.275,242.409c0,1.3-0.315,2.313-0.945,3.044c-0.63,0.729-1.499,1.095-2.607,1.095c-0.698,0-1.313-0.168-1.846-0.506
		c-0.532-0.336-0.94-0.82-1.223-1.449c-0.283-0.631-0.425-1.357-0.425-2.184c0-1.298,0.315-2.311,0.945-3.035
		c0.63-0.726,1.494-1.088,2.593-1.088c1.094,0,1.952,0.367,2.575,1.103C130.964,240.123,131.275,241.13,131.275,242.409z
		 M124.991,242.409c0,1.095,0.24,1.947,0.722,2.561c0.48,0.612,1.161,0.919,2.04,0.919s1.559-0.307,2.04-0.919
		c0.481-0.613,0.722-1.466,0.722-2.561c0-1.098-0.243-1.95-0.729-2.556c-0.486-0.605-1.168-0.908-2.047-0.908
		s-1.556,0.302-2.033,0.904C125.229,240.453,124.991,241.306,124.991,242.409z"/>
	<path d="M140.592,246.547c-1.157,0-2.06-0.356-2.706-1.069c-0.647-0.713-0.971-1.711-0.971-2.995c0-1.27,0.313-2.287,0.938-3.051
		c0.625-0.765,1.467-1.146,2.527-1.146c0.938,0,1.677,0.327,2.219,0.981s0.813,1.543,0.813,2.666v0.586h-5.735
		c0.01,1.094,0.265,1.929,0.766,2.505c0.5,0.576,1.217,0.864,2.149,0.864c0.454,0,0.854-0.031,1.197-0.095
		c0.345-0.063,0.78-0.2,1.308-0.41v0.658c-0.449,0.196-0.864,0.329-1.245,0.399C141.471,246.512,141.051,246.547,140.592,246.547z
		 M140.379,238.93c-0.767,0-1.382,0.253-1.846,0.758c-0.464,0.506-0.735,1.234-0.813,2.187h4.922c0-0.923-0.2-1.645-0.601-2.164
		C141.642,239.19,141.087,238.93,140.379,238.93z"/>
	<path d="M155.555,246.401v-5.223c0-0.775-0.151-1.342-0.454-1.699c-0.303-0.355-0.767-0.534-1.392-0.534
		c-0.815,0-1.418,0.225-1.809,0.674s-0.586,1.155-0.586,2.116v4.666h-0.74v-5.441c0-1.343-0.615-2.015-1.846-2.015
		c-0.835,0-1.443,0.243-1.824,0.729c-0.381,0.486-0.571,1.264-0.571,2.333v4.395h-0.725v-7.961h0.601l0.154,1.091h0.044
		c0.22-0.396,0.532-0.702,0.938-0.919c0.405-0.218,0.852-0.326,1.34-0.326c1.255,0,2.061,0.472,2.417,1.414h0.029
		c0.259-0.455,0.606-0.804,1.043-1.048s0.934-0.366,1.491-0.366c0.869,0,1.521,0.232,1.956,0.695
		c0.435,0.465,0.652,1.201,0.652,2.213v5.207H155.555z"/>
	<path d="M165.663,238.286c0.576,0,1.074,0.105,1.494,0.314c0.42,0.211,0.795,0.569,1.127,1.077h0.045
		c-0.029-0.615-0.045-1.218-0.045-1.81v-2.863h0.719v11.396h-0.477l-0.184-1.216h-0.059c-0.605,0.908-1.475,1.362-2.607,1.362
		c-1.098,0-1.938-0.342-2.519-1.025s-0.872-1.68-0.872-2.988c0-1.377,0.288-2.429,0.864-3.156S164.563,238.286,165.663,238.286z
		 M165.663,238.945c-0.869,0-1.523,0.306-1.96,0.915c-0.437,0.611-0.655,1.497-0.655,2.659c0,2.256,0.876,3.384,2.629,3.384
		c0.898,0,1.559-0.261,1.979-0.783s0.629-1.385,0.629-2.586v-0.125c0-1.23-0.206-2.115-0.618-2.654
		C167.253,239.214,166.585,238.945,165.663,238.945z"/>
	<path d="M171.573,236.227c0-0.469,0.154-0.703,0.461-0.703c0.152,0,0.27,0.062,0.355,0.184s0.129,0.296,0.129,0.52
		c0,0.221-0.043,0.394-0.129,0.521s-0.203,0.19-0.355,0.19C171.728,236.938,171.573,236.702,171.573,236.227z M172.401,246.401
		h-0.726v-7.961h0.726V246.401z"/>
	<path d="M180.003,244.329c0,0.713-0.271,1.261-0.813,1.644c-0.542,0.384-1.311,0.575-2.307,0.575c-1.064,0-1.91-0.163-2.535-0.49
		v-0.784c0.801,0.4,1.646,0.601,2.535,0.601c0.785,0,1.383-0.131,1.79-0.392c0.407-0.262,0.612-0.609,0.612-1.044
		c0-0.4-0.163-0.737-0.487-1.011c-0.325-0.273-0.858-0.542-1.601-0.806c-0.796-0.288-1.355-0.536-1.678-0.743
		c-0.322-0.208-0.564-0.442-0.729-0.703c-0.164-0.262-0.245-0.58-0.245-0.956c0-0.596,0.25-1.066,0.751-1.414
		c0.5-0.346,1.199-0.52,2.098-0.52c0.859,0,1.676,0.161,2.447,0.483l-0.271,0.659c-0.781-0.322-1.506-0.483-2.176-0.483
		c-0.648,0-1.164,0.107-1.545,0.322s-0.571,0.513-0.571,0.894c0,0.415,0.147,0.747,0.443,0.996c0.295,0.249,0.872,0.527,1.731,0.835
		c0.719,0.259,1.24,0.492,1.568,0.699c0.326,0.208,0.572,0.443,0.735,0.707S180.003,243.972,180.003,244.329z"/>
	<path d="M185.233,246.547c-1.139,0-2.029-0.359-2.674-1.076c-0.645-0.719-0.967-1.719-0.967-3.004c0-1.318,0.334-2.345,1.004-3.079
		c0.668-0.735,1.584-1.103,2.746-1.103c0.688,0,1.348,0.12,1.978,0.359l-0.198,0.645c-0.688-0.229-1.286-0.345-1.794-0.345
		c-0.977,0-1.716,0.302-2.22,0.904c-0.502,0.604-0.754,1.472-0.754,2.604c0,1.074,0.252,1.915,0.754,2.522
		c0.504,0.608,1.207,0.912,2.109,0.912c0.723,0,1.395-0.129,2.015-0.388v0.674C186.725,246.422,186.058,246.547,185.233,246.547z"/>
	<path d="M195.765,242.409c0,1.3-0.314,2.313-0.944,3.044c-0.63,0.729-1.499,1.095-2.607,1.095c-0.698,0-1.313-0.168-1.846-0.506
		c-0.532-0.336-0.94-0.82-1.224-1.449c-0.283-0.631-0.424-1.357-0.424-2.184c0-1.298,0.314-2.311,0.944-3.035
		c0.63-0.726,1.494-1.088,2.593-1.088c1.094,0,1.952,0.367,2.574,1.103C195.454,240.123,195.765,241.13,195.765,242.409z
		 M189.481,242.409c0,1.095,0.24,1.947,0.721,2.561c0.48,0.612,1.161,0.919,2.04,0.919s1.559-0.307,2.04-0.919
		c0.48-0.613,0.721-1.466,0.721-2.561c0-1.098-0.242-1.95-0.729-2.556s-1.168-0.908-2.047-0.908s-1.557,0.302-2.032,0.904
		C189.719,240.453,189.481,241.306,189.481,242.409z"/>
	<path d="M208.063,246.401h-6.702v-0.645l2.85-2.974c0.801-0.83,1.362-1.465,1.685-1.904s0.56-0.859,0.71-1.26
		c0.152-0.4,0.228-0.82,0.228-1.26c0-0.64-0.21-1.159-0.63-1.56s-0.965-0.602-1.633-0.602c-0.895,0-1.748,0.325-2.564,0.975
		l-0.395-0.506c0.893-0.751,1.885-1.127,2.973-1.127c0.934,0,1.667,0.248,2.201,0.746c0.535,0.498,0.803,1.185,0.803,2.059
		c0,0.708-0.18,1.393-0.539,2.055c-0.358,0.661-1.014,1.479-1.967,2.449l-2.746,2.82v0.029h5.728V246.401z"/>
	<path d="M216.822,241.018c0,1.88-0.287,3.271-0.86,4.174c-0.574,0.904-1.441,1.355-2.604,1.355c-1.119,0-1.969-0.465-2.549-1.396
		c-0.582-0.93-0.872-2.308-0.872-4.134c0-1.865,0.282-3.247,0.846-4.146c0.564-0.897,1.423-1.348,2.575-1.348
		c1.127,0,1.986,0.466,2.578,1.396C216.526,237.85,216.822,239.215,216.822,241.018z M210.729,241.018
		c0,1.66,0.218,2.887,0.651,3.68c0.436,0.794,1.094,1.19,1.979,1.19c0.922,0,1.595-0.41,2.018-1.23
		c0.422-0.82,0.633-2.033,0.633-3.64c0-1.582-0.211-2.783-0.633-3.604c-0.423-0.82-1.096-1.23-2.018-1.23
		c-0.924,0-1.592,0.41-2.008,1.23C210.937,238.235,210.729,239.436,210.729,241.018z"/>
	<path d="M223.385,241.002h3.948v4.886c-1.035,0.439-2.2,0.659-3.494,0.659c-1.689,0-2.984-0.478-3.886-1.432
		c-0.9-0.955-1.351-2.306-1.351-4.055c0-1.088,0.223-2.054,0.67-2.896c0.446-0.842,1.086-1.492,1.919-1.951
		c0.832-0.459,1.788-0.689,2.867-0.689c1.167,0,2.214,0.216,3.142,0.645l-0.3,0.674c-0.928-0.429-1.89-0.645-2.886-0.645
		c-1.411,0-2.53,0.437-3.358,1.308c-0.827,0.872-1.241,2.048-1.241,3.526c0,1.611,0.393,2.824,1.18,3.637
		c0.785,0.813,1.94,1.22,3.464,1.22c0.986,0,1.823-0.14,2.513-0.417v-3.766h-3.187V241.002z"/>
	<path d="M230.021,235.693h2.938c1.322,0,2.295,0.225,2.914,0.674c0.621,0.449,0.931,1.128,0.931,2.036
		c0,0.62-0.189,1.137-0.567,1.549c-0.379,0.413-0.932,0.678-1.659,0.795v0.044c0.854,0.127,1.483,0.396,1.886,0.81
		c0.403,0.412,0.604,0.987,0.604,1.725c0,0.986-0.327,1.746-0.981,2.277c-0.654,0.533-1.582,0.799-2.783,0.799h-3.281V235.693z
		 M230.768,240.461h2.358c1.006,0,1.736-0.168,2.193-0.502c0.457-0.335,0.686-0.858,0.686-1.571s-0.258-1.23-0.773-1.553
		s-1.283-0.483-2.303-0.483h-2.161V240.461z M230.768,241.12v4.622h2.52c1.982,0,2.974-0.806,2.974-2.417
		c0-1.47-1.045-2.205-3.135-2.205H230.768z"/>
</g>
<rect x="34.667" y="340.333" fill="none" width="256.667" height="25.333"/>
<g enable-background="new    ">
	<path d="M111.108,351.734h-0.754v-10.005h-3.479v-0.703h7.712v0.703h-3.479V351.734z"/>
	<path d="M119.128,343.619c0.337,0,0.698,0.034,1.084,0.103l-0.139,0.696c-0.332-0.083-0.676-0.125-1.033-0.125
		c-0.679,0-1.235,0.288-1.67,0.864s-0.652,1.304-0.652,2.183v4.395h-0.725v-7.961h0.615l0.073,1.436h0.051
		c0.327-0.586,0.676-0.998,1.047-1.234C118.152,343.737,118.601,343.619,119.128,343.619z"/>
	<path d="M126.665,351.734l-0.183-1.26h-0.059c-0.4,0.513-0.812,0.875-1.234,1.088c-0.423,0.212-0.922,0.318-1.498,0.318
		c-0.781,0-1.389-0.2-1.824-0.601s-0.652-0.954-0.652-1.663c0-0.775,0.323-1.379,0.971-1.809c0.646-0.43,1.583-0.656,2.809-0.682
		l1.516-0.043v-0.527c0-0.757-0.154-1.328-0.461-1.715c-0.308-0.385-0.803-0.578-1.487-0.578c-0.737,0-1.501,0.205-2.292,0.615
		l-0.271-0.63c0.874-0.41,1.738-0.615,2.593-0.615c0.874,0,1.527,0.228,1.959,0.681c0.432,0.455,0.648,1.163,0.648,2.125v5.295
		H126.665z M123.735,351.221c0.85,0,1.52-0.243,2.011-0.729c0.49-0.486,0.736-1.161,0.736-2.025v-0.784l-1.392,0.059
		c-1.118,0.055-1.916,0.229-2.391,0.524c-0.477,0.295-0.714,0.756-0.714,1.38c0,0.498,0.152,0.886,0.458,1.161
		C122.748,351.083,123.179,351.221,123.735,351.221z M123.589,342.527c0.356-0.385,0.709-0.804,1.059-1.256
		c0.349-0.451,0.587-0.795,0.714-1.029h1.033v0.125c-0.176,0.254-0.475,0.591-0.897,1.011c-0.423,0.42-0.888,0.843-1.396,1.267
		h-0.513V342.527z"/>
	<path d="M132.737,344.402h-1.875v7.332h-0.725v-7.332h-1.479v-0.424l1.479-0.271v-0.615c0-0.977,0.18-1.693,0.538-2.149
		c0.359-0.457,0.946-0.685,1.762-0.685c0.439,0,0.879,0.065,1.318,0.197l-0.168,0.63c-0.391-0.122-0.779-0.183-1.165-0.183
		c-0.566,0-0.968,0.167-1.205,0.501c-0.237,0.335-0.355,0.878-0.355,1.63v0.74h1.875V344.402z"/>
	<path d="M137.49,351.88c-1.157,0-2.06-0.356-2.706-1.069c-0.647-0.713-0.971-1.711-0.971-2.995c0-1.27,0.313-2.287,0.938-3.051
		c0.625-0.765,1.467-1.146,2.527-1.146c0.938,0,1.677,0.327,2.219,0.981s0.813,1.543,0.813,2.666v0.586h-5.735
		c0.01,1.094,0.265,1.929,0.766,2.505c0.5,0.576,1.217,0.864,2.149,0.864c0.454,0,0.854-0.031,1.197-0.095
		c0.345-0.063,0.78-0.2,1.308-0.41v0.658c-0.449,0.196-0.864,0.329-1.245,0.399C138.369,351.845,137.949,351.88,137.49,351.88z
		 M137.278,344.263c-0.767,0-1.382,0.253-1.846,0.758c-0.464,0.506-0.735,1.234-0.813,2.187h4.922c0-0.923-0.2-1.645-0.601-2.164
		C138.54,344.523,137.986,344.263,137.278,344.263z"/>
	<path d="M148.718,343.773v0.505l-1.648,0.103c0.439,0.547,0.659,1.147,0.659,1.802c0,0.767-0.255,1.388-0.766,1.864
		c-0.51,0.476-1.195,0.714-2.054,0.714c-0.361,0-0.615-0.015-0.762-0.044c-0.288,0.151-0.508,0.33-0.659,0.535
		s-0.227,0.422-0.227,0.651c0,0.254,0.096,0.439,0.289,0.557s0.517,0.176,0.971,0.176h1.392c0.864,0,1.526,0.175,1.985,0.523
		c0.459,0.35,0.688,0.865,0.688,1.55c0,0.839-0.34,1.487-1.022,1.944c-0.681,0.456-1.651,0.685-2.911,0.685
		c-1.001,0-1.776-0.193-2.325-0.578c-0.55-0.387-0.824-0.924-0.824-1.611c0-0.548,0.169-1.002,0.509-1.363
		c0.339-0.36,0.8-0.607,1.381-0.739c-0.239-0.103-0.431-0.248-0.575-0.436c-0.144-0.188-0.216-0.404-0.216-0.648
		c0-0.532,0.339-1.001,1.018-1.406c-0.464-0.19-0.825-0.489-1.084-0.897c-0.259-0.407-0.388-0.875-0.388-1.402
		c0-0.796,0.253-1.435,0.758-1.915c0.506-0.481,1.188-0.722,2.047-0.722c0.522,0,0.928,0.051,1.216,0.154H148.718z M142.273,353.082
		c0,1.094,0.813,1.641,2.439,1.641c2.09,0,3.135-0.666,3.135-2c0-0.479-0.164-0.825-0.491-1.039
		c-0.327-0.215-0.857-0.322-1.589-0.322h-1.304C143.003,351.361,142.273,351.934,142.273,353.082z M142.881,346.255
		c0,0.615,0.187,1.093,0.561,1.432c0.373,0.34,0.873,0.51,1.498,0.51c0.664,0,1.173-0.169,1.527-0.506s0.531-0.825,0.531-1.465
		c0-0.679-0.182-1.188-0.546-1.527c-0.364-0.339-0.873-0.509-1.527-0.509c-0.635,0-1.134,0.182-1.498,0.546
		C143.063,345.099,142.881,345.606,142.881,346.255z"/>
	<path d="M156.936,347.742c0,1.3-0.315,2.313-0.945,3.044c-0.63,0.729-1.499,1.095-2.607,1.095c-0.698,0-1.313-0.168-1.846-0.506
		c-0.532-0.336-0.94-0.82-1.223-1.449c-0.283-0.631-0.425-1.357-0.425-2.184c0-1.298,0.315-2.311,0.945-3.035
		c0.63-0.726,1.494-1.088,2.593-1.088c1.094,0,1.952,0.367,2.574,1.103C156.625,345.456,156.936,346.463,156.936,347.742z
		 M150.652,347.742c0,1.095,0.24,1.947,0.721,2.561c0.481,0.612,1.161,0.919,2.04,0.919s1.559-0.307,2.04-0.919
		c0.48-0.613,0.721-1.466,0.721-2.561c0-1.098-0.243-1.95-0.729-2.556s-1.168-0.908-2.047-0.908s-1.557,0.302-2.032,0.904
		C150.89,345.786,150.652,346.639,150.652,347.742z"/>
	<path d="M162.935,341.56c0-0.469,0.154-0.703,0.461-0.703c0.151,0,0.27,0.062,0.355,0.184s0.128,0.296,0.128,0.52
		c0,0.221-0.043,0.394-0.128,0.521s-0.204,0.19-0.355,0.19C163.088,342.271,162.935,342.035,162.935,341.56z M163.762,351.734
		h-0.725v-7.961h0.725V351.734z"/>
	<path d="M167.153,351.734h-0.725v-11.396h0.725V351.734z"/>
	<path d="M169.717,341.56c0-0.469,0.153-0.703,0.462-0.703c0.15,0,0.27,0.062,0.354,0.184s0.128,0.296,0.128,0.52
		c0,0.221-0.043,0.394-0.128,0.521s-0.204,0.19-0.354,0.19C169.87,342.271,169.717,342.035,169.717,341.56z M170.544,351.734h-0.725
		v-7.961h0.725V351.734z"/>
	<path d="M183.157,351.734v-5.223c0-0.775-0.152-1.342-0.455-1.699c-0.303-0.355-0.766-0.534-1.391-0.534
		c-0.816,0-1.419,0.225-1.81,0.674s-0.586,1.155-0.586,2.116v4.666h-0.739v-5.441c0-1.343-0.615-2.015-1.846-2.015
		c-0.836,0-1.443,0.243-1.824,0.729c-0.381,0.486-0.571,1.264-0.571,2.333v4.395h-0.726v-7.961h0.602l0.153,1.091h0.044
		c0.22-0.396,0.532-0.702,0.938-0.919c0.405-0.218,0.852-0.326,1.34-0.326c1.256,0,2.061,0.472,2.418,1.414h0.029
		c0.258-0.455,0.605-0.804,1.043-1.048s0.934-0.366,1.49-0.366c0.869,0,1.521,0.232,1.956,0.695
		c0.435,0.465,0.651,1.201,0.651,2.213v5.207H183.157z"/>
	<path d="M186.351,341.56c0-0.469,0.153-0.703,0.461-0.703c0.151,0,0.27,0.062,0.355,0.184c0.085,0.122,0.128,0.296,0.128,0.52
		c0,0.221-0.043,0.394-0.128,0.521c-0.086,0.127-0.204,0.19-0.355,0.19C186.504,342.271,186.351,342.035,186.351,341.56z
		 M187.178,351.734h-0.726v-7.961h0.726V351.734z"/>
	<path d="M191.946,351.236c0.459,0,0.859-0.039,1.201-0.117v0.586c-0.352,0.117-0.758,0.176-1.217,0.176
		c-0.703,0-1.222-0.188-1.556-0.564c-0.335-0.375-0.502-0.967-0.502-1.771v-5.143h-1.179v-0.424l1.179-0.33l0.366-1.802h0.373v1.927
		h2.337v0.629h-2.337v5.039c0,0.611,0.107,1.063,0.322,1.355S191.487,351.236,191.946,351.236z"/>
	<path d="M199.702,351.734l-0.184-1.26h-0.059c-0.4,0.513-0.812,0.875-1.233,1.088c-0.423,0.212-0.922,0.318-1.498,0.318
		c-0.781,0-1.39-0.2-1.823-0.601c-0.436-0.4-0.652-0.954-0.652-1.663c0-0.775,0.323-1.379,0.971-1.809
		c0.646-0.43,1.583-0.656,2.809-0.682l1.516-0.043v-0.527c0-0.757-0.153-1.328-0.461-1.715c-0.308-0.385-0.803-0.578-1.486-0.578
		c-0.738,0-1.502,0.205-2.293,0.615l-0.271-0.63c0.875-0.41,1.738-0.615,2.594-0.615c0.873,0,1.526,0.228,1.959,0.681
		c0.432,0.455,0.648,1.163,0.648,2.125v5.295H199.702z M196.772,351.221c0.85,0,1.52-0.243,2.011-0.729
		c0.49-0.486,0.735-1.161,0.735-2.025v-0.784l-1.391,0.059c-1.119,0.055-1.916,0.229-2.392,0.524
		c-0.477,0.295-0.714,0.756-0.714,1.38c0,0.498,0.152,0.886,0.457,1.161C195.784,351.083,196.216,351.221,196.772,351.221z"/>
	<path d="M205.729,343.619c0.576,0,1.074,0.105,1.494,0.314c0.42,0.211,0.797,0.569,1.129,1.077h0.043
		c-0.029-0.615-0.043-1.218-0.043-1.81v-2.863h0.717v11.396h-0.476l-0.183-1.216h-0.059c-0.605,0.908-1.475,1.362-2.607,1.362
		c-1.1,0-1.939-0.342-2.52-1.025c-0.582-0.684-0.872-1.68-0.872-2.988c0-1.377,0.288-2.429,0.864-3.156
		S204.632,343.619,205.729,343.619z M205.729,344.278c-0.869,0-1.521,0.306-1.959,0.915c-0.438,0.611-0.655,1.497-0.655,2.659
		c0,2.256,0.876,3.384,2.63,3.384c0.898,0,1.557-0.261,1.977-0.783s0.631-1.385,0.631-2.586v-0.125c0-1.23-0.207-2.115-0.619-2.654
		C207.32,344.547,206.653,344.278,205.729,344.278z"/>
	<path d="M218.327,347.742c0,1.3-0.314,2.313-0.944,3.044c-0.63,0.729-1.499,1.095-2.607,1.095c-0.698,0-1.313-0.168-1.846-0.506
		c-0.532-0.336-0.94-0.82-1.224-1.449c-0.283-0.631-0.424-1.357-0.424-2.184c0-1.298,0.314-2.311,0.944-3.035
		c0.63-0.726,1.494-1.088,2.593-1.088c1.094,0,1.952,0.367,2.574,1.103C218.017,345.456,218.327,346.463,218.327,347.742z
		 M212.044,347.742c0,1.095,0.24,1.947,0.721,2.561c0.48,0.612,1.161,0.919,2.04,0.919s1.559-0.307,2.04-0.919
		c0.48-0.613,0.721-1.466,0.721-2.561c0-1.098-0.242-1.95-0.729-2.556s-1.168-0.908-2.047-0.908s-1.557,0.302-2.032,0.904
		C212.281,345.786,212.044,346.639,212.044,347.742z"/>
</g>
<rect x="36" y="394.333" fill="none" width="256.667" height="25.334"/>
<g enable-background="new    ">
	<path d="M107.776,400.276c0,1.798-0.471,3.156-1.414,4.076c-0.942,0.921-2.327,1.381-4.153,1.381h-2.563v-10.708h2.893
		c1.709,0,3.009,0.446,3.9,1.341C107.33,397.258,107.776,398.563,107.776,400.276z M106.963,400.305c0-1.532-0.39-2.687-1.168-3.46
		c-0.779-0.774-1.923-1.161-3.432-1.161h-1.97v9.39h1.772C105.364,405.074,106.963,403.485,106.963,400.305z"/>
	<path d="M116.638,401.741c0,1.3-0.315,2.313-0.945,3.044c-0.63,0.729-1.499,1.095-2.607,1.095c-0.698,0-1.313-0.168-1.846-0.506
		c-0.532-0.336-0.94-0.82-1.223-1.449c-0.283-0.631-0.425-1.357-0.425-2.184c0-1.298,0.315-2.311,0.945-3.035
		c0.63-0.726,1.494-1.088,2.593-1.088c1.094,0,1.952,0.367,2.574,1.103C116.327,399.455,116.638,400.462,116.638,401.741z
		 M110.354,401.741c0,1.095,0.24,1.947,0.721,2.561c0.481,0.612,1.161,0.919,2.04,0.919s1.559-0.307,2.04-0.919
		c0.48-0.613,0.721-1.466,0.721-2.561c0-1.098-0.243-1.95-0.729-2.556s-1.168-0.908-2.047-0.908s-1.557,0.302-2.032,0.904
		C110.592,399.785,110.354,400.638,110.354,401.741z"/>
	<path d="M128.789,405.733v-5.223c0-0.775-0.151-1.342-0.454-1.699c-0.303-0.355-0.767-0.534-1.392-0.534
		c-0.815,0-1.418,0.225-1.809,0.674s-0.586,1.155-0.586,2.116v4.666h-0.74v-5.441c0-1.343-0.615-2.015-1.846-2.015
		c-0.835,0-1.443,0.243-1.824,0.729c-0.381,0.486-0.571,1.264-0.571,2.333v4.395h-0.725v-7.961h0.601l0.154,1.091h0.044
		c0.22-0.396,0.532-0.702,0.938-0.919c0.405-0.218,0.852-0.326,1.34-0.326c1.255,0,2.061,0.472,2.417,1.414h0.029
		c0.259-0.455,0.606-0.804,1.044-1.048c0.437-0.244,0.934-0.366,1.49-0.366c0.869,0,1.521,0.232,1.956,0.695
		c0.435,0.465,0.652,1.201,0.652,2.213v5.207H128.789z"/>
	<path d="M131.536,396.526c0.356-0.385,0.709-0.804,1.058-1.256c0.349-0.451,0.587-0.795,0.714-1.029h1.033v0.125
		c-0.176,0.254-0.475,0.591-0.897,1.011s-0.887,0.843-1.395,1.267h-0.513V396.526z M132.81,405.733h-0.725v-7.961h0.725V405.733z"/>
	<path d="M141.028,405.733v-5.164c0-0.8-0.168-1.383-0.505-1.746c-0.337-0.364-0.859-0.546-1.567-0.546
		c-0.952,0-1.649,0.24-2.091,0.722c-0.442,0.48-0.663,1.261-0.663,2.34v4.395h-0.725v-7.961h0.615l0.139,1.091h0.044
		c0.518-0.83,1.438-1.245,2.761-1.245c1.807,0,2.71,0.97,2.71,2.908v5.207H141.028z"/>
	<path d="M144.221,395.559c0-0.469,0.154-0.703,0.461-0.703c0.151,0,0.27,0.062,0.355,0.184c0.085,0.122,0.128,0.296,0.128,0.52
		c0,0.221-0.043,0.394-0.128,0.521c-0.086,0.127-0.204,0.19-0.355,0.19C144.375,396.27,144.221,396.034,144.221,395.559z
		 M145.049,405.733h-0.725v-7.961h0.725V405.733z"/>
	<path d="M154.299,401.741c0,1.3-0.315,2.313-0.945,3.044c-0.63,0.729-1.499,1.095-2.607,1.095c-0.698,0-1.313-0.168-1.846-0.506
		c-0.532-0.336-0.94-0.82-1.223-1.449c-0.283-0.631-0.425-1.357-0.425-2.184c0-1.298,0.315-2.311,0.945-3.035
		c0.63-0.726,1.494-1.088,2.593-1.088c1.094,0,1.952,0.367,2.574,1.103C153.988,399.455,154.299,400.462,154.299,401.741z
		 M148.015,401.741c0,1.095,0.24,1.947,0.721,2.561c0.481,0.612,1.161,0.919,2.04,0.919s1.559-0.307,2.04-0.919
		c0.48-0.613,0.721-1.466,0.721-2.561c0-1.098-0.243-1.95-0.729-2.556s-1.168-0.908-2.047-0.908s-1.557,0.302-2.032,0.904
		C148.253,399.785,148.015,400.638,148.015,401.741z"/>
	<path d="M161.44,403.661c0,0.713-0.271,1.261-0.813,1.644c-0.542,0.384-1.311,0.575-2.307,0.575c-1.064,0-1.909-0.163-2.534-0.49
		v-0.784c0.801,0.4,1.646,0.601,2.534,0.601c0.786,0,1.383-0.131,1.791-0.392c0.407-0.262,0.611-0.609,0.611-1.044
		c0-0.4-0.163-0.737-0.487-1.011s-0.858-0.542-1.6-0.806c-0.796-0.288-1.355-0.536-1.677-0.743
		c-0.322-0.208-0.565-0.442-0.729-0.703c-0.164-0.262-0.246-0.58-0.246-0.956c0-0.596,0.25-1.066,0.75-1.414
		c0.5-0.346,1.2-0.52,2.099-0.52c0.859,0,1.675,0.161,2.446,0.483l-0.271,0.659c-0.781-0.322-1.506-0.483-2.175-0.483
		c-0.649,0-1.165,0.107-1.545,0.322s-0.571,0.513-0.571,0.894c0,0.415,0.147,0.747,0.443,0.996s0.873,0.527,1.732,0.835
		c0.718,0.259,1.24,0.492,1.567,0.699c0.327,0.208,0.572,0.443,0.736,0.707C161.358,402.994,161.44,403.304,161.44,403.661z"/>
	<path d="M167.285,395.559c0-0.469,0.153-0.703,0.462-0.703c0.15,0,0.27,0.062,0.354,0.184s0.128,0.296,0.128,0.52
		c0,0.221-0.043,0.394-0.128,0.521s-0.204,0.19-0.354,0.19C167.438,396.27,167.285,396.034,167.285,395.559z M168.112,405.733
		h-0.725v-7.961h0.725V405.733z"/>
	<path d="M171.504,405.733h-0.726v-11.396h0.726V405.733z"/>
	<path d="M174.067,395.559c0-0.469,0.154-0.703,0.461-0.703c0.152,0,0.27,0.062,0.355,0.184s0.129,0.296,0.129,0.52
		c0,0.221-0.043,0.394-0.129,0.521s-0.203,0.19-0.355,0.19C174.222,396.27,174.067,396.034,174.067,395.559z M174.896,405.733
		h-0.726v-7.961h0.726V405.733z"/>
	<path d="M187.507,405.733v-5.223c0-0.775-0.15-1.342-0.453-1.699c-0.303-0.355-0.768-0.534-1.393-0.534
		c-0.814,0-1.418,0.225-1.809,0.674s-0.586,1.155-0.586,2.116v4.666h-0.74v-5.441c0-1.343-0.615-2.015-1.846-2.015
		c-0.834,0-1.442,0.243-1.823,0.729c-0.381,0.486-0.571,1.264-0.571,2.333v4.395h-0.725v-7.961h0.6l0.154,1.091h0.044
		c0.22-0.396,0.532-0.702,0.938-0.919c0.405-0.218,0.853-0.326,1.341-0.326c1.254,0,2.061,0.472,2.416,1.414h0.029
		c0.26-0.455,0.607-0.804,1.044-1.048s0.935-0.366,1.491-0.366c0.869,0,1.521,0.232,1.955,0.695
		c0.435,0.465,0.652,1.201,0.652,2.213v5.207H187.507z"/>
	<path d="M190.7,395.559c0-0.469,0.154-0.703,0.462-0.703c0.151,0,0.27,0.062,0.355,0.184c0.085,0.122,0.128,0.296,0.128,0.52
		c0,0.221-0.043,0.394-0.128,0.521c-0.086,0.127-0.204,0.19-0.355,0.19C190.854,396.27,190.7,396.034,190.7,395.559z
		 M191.528,405.733h-0.725v-7.961h0.725V405.733z"/>
	<path d="M196.296,405.235c0.459,0,0.859-0.039,1.201-0.117v0.586c-0.352,0.117-0.756,0.176-1.215,0.176
		c-0.703,0-1.223-0.188-1.557-0.564c-0.335-0.375-0.502-0.967-0.502-1.771v-5.143h-1.18v-0.424l1.18-0.33l0.366-1.802h0.374v1.927
		h2.336v0.629h-2.336v5.039c0,0.611,0.107,1.063,0.322,1.355S195.837,405.235,196.296,405.235z"/>
	<path d="M204.053,405.733l-0.183-1.26h-0.059c-0.4,0.513-0.813,0.875-1.234,1.088c-0.423,0.212-0.922,0.318-1.498,0.318
		c-0.781,0-1.389-0.2-1.824-0.601c-0.434-0.4-0.651-0.954-0.651-1.663c0-0.775,0.323-1.379,0.971-1.809
		c0.646-0.43,1.583-0.656,2.809-0.682l1.517-0.043v-0.527c0-0.757-0.154-1.328-0.462-1.715c-0.308-0.385-0.804-0.578-1.487-0.578
		c-0.736,0-1.501,0.205-2.292,0.615l-0.271-0.63c0.873-0.41,1.738-0.615,2.592-0.615c0.875,0,1.527,0.228,1.96,0.681
		c0.432,0.455,0.647,1.163,0.647,2.125v5.295H204.053z M201.123,405.22c0.85,0,1.52-0.243,2.011-0.729
		c0.49-0.486,0.736-1.161,0.736-2.025v-0.784l-1.393,0.059c-1.117,0.055-1.915,0.229-2.391,0.524
		c-0.477,0.295-0.715,0.756-0.715,1.38c0,0.498,0.152,0.886,0.458,1.161C200.136,405.083,200.566,405.22,201.123,405.22z"/>
	<path d="M210.081,397.618c0.576,0,1.074,0.105,1.494,0.314c0.42,0.211,0.795,0.569,1.127,1.077h0.045
		c-0.029-0.615-0.045-1.218-0.045-1.81v-2.863h0.719v11.396h-0.477l-0.184-1.216h-0.059c-0.605,0.908-1.475,1.362-2.607,1.362
		c-1.098,0-1.938-0.342-2.52-1.025c-0.58-0.684-0.871-1.68-0.871-2.988c0-1.377,0.288-2.429,0.864-3.156
		S208.981,397.618,210.081,397.618z M210.081,398.277c-0.869,0-1.523,0.306-1.96,0.915c-0.437,0.611-0.655,1.497-0.655,2.659
		c0,2.256,0.877,3.384,2.629,3.384c0.898,0,1.559-0.261,1.979-0.783s0.629-1.385,0.629-2.586v-0.125c0-1.23-0.206-2.115-0.618-2.654
		C211.671,398.546,211.003,398.277,210.081,398.277z"/>
	<path d="M222.679,401.741c0,1.3-0.315,2.313-0.945,3.044c-0.63,0.729-1.499,1.095-2.607,1.095c-0.698,0-1.313-0.168-1.846-0.506
		c-0.532-0.336-0.939-0.82-1.223-1.449c-0.283-0.631-0.426-1.357-0.426-2.184c0-1.298,0.315-2.311,0.945-3.035
		c0.63-0.726,1.494-1.088,2.593-1.088c1.094,0,1.952,0.367,2.574,1.103C222.367,399.455,222.679,400.462,222.679,401.741z
		 M216.394,401.741c0,1.095,0.24,1.947,0.722,2.561c0.481,0.612,1.161,0.919,2.04,0.919s1.559-0.307,2.04-0.919
		c0.48-0.613,0.722-1.466,0.722-2.561c0-1.098-0.244-1.95-0.729-2.556s-1.168-0.908-2.047-0.908s-1.557,0.302-2.032,0.904
		C216.632,399.785,216.394,400.638,216.394,401.741z"/>
	<path d="M229.819,403.661c0,0.713-0.271,1.261-0.813,1.644c-0.543,0.384-1.312,0.575-2.308,0.575c-1.064,0-1.909-0.163-2.534-0.49
		v-0.784c0.801,0.4,1.646,0.601,2.534,0.601c0.786,0,1.383-0.131,1.791-0.392c0.407-0.262,0.611-0.609,0.611-1.044
		c0-0.4-0.163-0.737-0.487-1.011s-0.857-0.542-1.6-0.806c-0.797-0.288-1.355-0.536-1.678-0.743
		c-0.322-0.208-0.565-0.442-0.729-0.703c-0.164-0.262-0.246-0.58-0.246-0.956c0-0.596,0.25-1.066,0.751-1.414
		c0.501-0.346,1.2-0.52,2.099-0.52c0.859,0,1.675,0.161,2.446,0.483l-0.271,0.659c-0.781-0.322-1.507-0.483-2.176-0.483
		c-0.649,0-1.164,0.107-1.545,0.322s-0.572,0.513-0.572,0.894c0,0.415,0.148,0.747,0.443,0.996s0.873,0.527,1.732,0.835
		c0.718,0.259,1.24,0.492,1.567,0.699c0.327,0.208,0.572,0.443,0.736,0.707C229.737,402.994,229.819,403.304,229.819,403.661z"/>
</g>
<rect x="34.667" y="448.333" fill="none" width="256.667" height="25.334"/>
<g enable-background="new    ">
	<path d="M116.071,452.101c0,1.035-0.352,1.829-1.055,2.38c-0.703,0.553-1.699,0.828-2.988,0.828h-1.655v4.424h-0.747v-10.708h2.622
		C114.796,449.025,116.071,450.05,116.071,452.101z M110.373,454.665h1.472c1.206,0,2.078-0.199,2.615-0.597
		c0.537-0.398,0.806-1.044,0.806-1.938c0-0.825-0.254-1.437-0.762-1.835c-0.508-0.397-1.294-0.597-2.358-0.597h-1.772V454.665z"/>
	<path d="M123.051,459.733l-0.183-1.26h-0.059c-0.4,0.513-0.812,0.875-1.234,1.088c-0.423,0.212-0.922,0.318-1.498,0.318
		c-0.781,0-1.389-0.2-1.824-0.601s-0.652-0.954-0.652-1.663c0-0.775,0.323-1.379,0.971-1.809c0.646-0.43,1.583-0.656,2.809-0.682
		l1.516-0.043v-0.527c0-0.757-0.154-1.328-0.461-1.715c-0.308-0.385-0.803-0.578-1.487-0.578c-0.737,0-1.501,0.205-2.292,0.615
		l-0.271-0.63c0.874-0.41,1.738-0.615,2.593-0.615c0.874,0,1.527,0.228,1.959,0.681c0.432,0.455,0.648,1.163,0.648,2.125v5.295
		H123.051z M120.121,459.22c0.85,0,1.52-0.243,2.011-0.729c0.49-0.486,0.736-1.161,0.736-2.025v-0.784l-1.392,0.059
		c-1.118,0.055-1.916,0.229-2.391,0.524c-0.477,0.295-0.714,0.756-0.714,1.38c0,0.498,0.152,0.886,0.458,1.161
		C119.133,459.083,119.564,459.22,120.121,459.22z"/>
	<path d="M126.061,449.559c0-0.469,0.154-0.703,0.461-0.703c0.151,0,0.27,0.062,0.355,0.184c0.085,0.122,0.128,0.296,0.128,0.52
		c0,0.221-0.043,0.394-0.128,0.521c-0.086,0.127-0.204,0.19-0.355,0.19C126.215,450.27,126.061,450.034,126.061,449.559z
		 M126.889,459.733h-0.725v-7.961h0.725V459.733z"/>
	<path d="M135.106,459.733v-5.164c0-0.8-0.168-1.383-0.505-1.746c-0.337-0.364-0.859-0.546-1.567-0.546
		c-0.952,0-1.649,0.24-2.091,0.722c-0.442,0.48-0.663,1.261-0.663,2.34v4.395h-0.725v-7.961h0.615l0.139,1.091h0.044
		c0.518-0.83,1.438-1.245,2.761-1.245c1.807,0,2.71,0.97,2.71,2.908v5.207H135.106z"/>
	<path d="M141.618,459.879c-1.157,0-2.06-0.356-2.707-1.069s-0.97-1.711-0.97-2.995c0-1.27,0.313-2.287,0.938-3.051
		c0.625-0.765,1.467-1.146,2.527-1.146c0.938,0,1.677,0.327,2.219,0.981s0.813,1.543,0.813,2.666v0.586h-5.735
		c0.01,1.094,0.265,1.929,0.765,2.505s1.217,0.864,2.15,0.864c0.454,0,0.853-0.031,1.198-0.095c0.344-0.063,0.78-0.2,1.307-0.41
		v0.658c-0.449,0.196-0.864,0.329-1.245,0.399C142.497,459.844,142.077,459.879,141.618,459.879z M141.405,452.262
		c-0.767,0-1.382,0.253-1.846,0.758c-0.464,0.506-0.735,1.234-0.813,2.187h4.922c0-0.923-0.2-1.645-0.601-2.164
		C142.667,452.522,142.113,452.262,141.405,452.262z"/>
	<path d="M147.36,459.733h-0.725v-11.396h0.725V459.733z"/>
	<path d="M156.837,451.618c0.576,0,1.074,0.105,1.494,0.314c0.42,0.211,0.796,0.569,1.128,1.077h0.044
		c-0.029-0.615-0.044-1.218-0.044-1.81v-2.863h0.718v11.396h-0.476l-0.183-1.216h-0.059c-0.605,0.908-1.475,1.362-2.607,1.362
		c-1.099,0-1.938-0.342-2.52-1.025s-0.872-1.68-0.872-2.988c0-1.377,0.288-2.429,0.864-3.156S155.739,451.618,156.837,451.618z
		 M156.837,452.277c-0.869,0-1.522,0.306-1.959,0.915c-0.437,0.611-0.655,1.497-0.655,2.659c0,2.256,0.876,3.384,2.629,3.384
		c0.898,0,1.558-0.261,1.978-0.783s0.63-1.385,0.63-2.586v-0.125c0-1.23-0.207-2.115-0.619-2.654
		C158.428,452.546,157.76,452.277,156.837,452.277z"/>
	<path d="M166.065,459.879c-1.156,0-2.059-0.356-2.706-1.069s-0.97-1.711-0.97-2.995c0-1.27,0.313-2.287,0.938-3.051
		c0.625-0.765,1.467-1.146,2.527-1.146c0.938,0,1.677,0.327,2.22,0.981c0.541,0.654,0.813,1.543,0.813,2.666v0.586h-5.735
		c0.01,1.094,0.265,1.929,0.765,2.505s1.218,0.864,2.149,0.864c0.455,0,0.854-0.031,1.198-0.095c0.344-0.063,0.78-0.2,1.308-0.41
		v0.658c-0.449,0.196-0.865,0.329-1.246,0.399C166.944,459.844,166.524,459.879,166.065,459.879z M165.854,452.262
		c-0.767,0-1.382,0.253-1.846,0.758c-0.464,0.506-0.735,1.234-0.813,2.187h4.921c0-0.923-0.199-1.645-0.6-2.164
		C167.116,452.522,166.562,452.262,165.854,452.262z"/>
	<path d="M178.158,459.879c-1.138,0-2.028-0.359-2.673-1.076c-0.645-0.719-0.967-1.719-0.967-3.004c0-1.318,0.334-2.345,1.003-3.079
		c0.669-0.735,1.585-1.103,2.747-1.103c0.688,0,1.348,0.12,1.977,0.359l-0.197,0.645c-0.688-0.229-1.287-0.345-1.795-0.345
		c-0.977,0-1.716,0.302-2.219,0.904c-0.503,0.604-0.754,1.472-0.754,2.604c0,1.074,0.251,1.915,0.754,2.522
		c0.503,0.608,1.206,0.912,2.109,0.912c0.723,0,1.395-0.129,2.014-0.388v0.674C179.649,459.754,178.983,459.879,178.158,459.879z"/>
	<path d="M182.831,459.733h-0.725v-11.396h0.725V459.733z"/>
	<path d="M185.395,449.559c0-0.469,0.153-0.703,0.462-0.703c0.15,0,0.27,0.062,0.354,0.184s0.128,0.296,0.128,0.52
		c0,0.221-0.043,0.394-0.128,0.521s-0.204,0.19-0.354,0.19C185.548,450.27,185.395,450.034,185.395,449.559z M186.222,459.733
		h-0.725v-7.961h0.725V459.733z"/>
	<path d="M192.104,459.879c-1.157,0-2.06-0.356-2.706-1.069c-0.647-0.713-0.971-1.711-0.971-2.995c0-1.27,0.313-2.287,0.938-3.051
		c0.625-0.765,1.467-1.146,2.527-1.146c0.938,0,1.677,0.327,2.219,0.981s0.813,1.543,0.813,2.666v0.586h-5.734
		c0.01,1.094,0.265,1.929,0.766,2.505c0.5,0.576,1.217,0.864,2.149,0.864c0.454,0,0.854-0.031,1.197-0.095
		c0.345-0.063,0.78-0.2,1.308-0.41v0.658c-0.449,0.196-0.864,0.329-1.245,0.399C192.982,459.844,192.563,459.879,192.104,459.879z
		 M191.892,452.262c-0.768,0-1.383,0.253-1.846,0.758c-0.465,0.506-0.735,1.234-0.813,2.187h4.922c0-0.923-0.2-1.645-0.601-2.164
		C193.153,452.522,192.599,452.262,191.892,452.262z"/>
	<path d="M202.673,459.733v-5.164c0-0.8-0.169-1.383-0.506-1.746c-0.337-0.364-0.859-0.546-1.567-0.546
		c-0.952,0-1.649,0.24-2.091,0.722c-0.442,0.48-0.663,1.261-0.663,2.34v4.395h-0.726v-7.961h0.615l0.14,1.091h0.044
		c0.518-0.83,1.438-1.245,2.762-1.245c1.807,0,2.709,0.97,2.709,2.908v5.207H202.673z"/>
	<path d="M208.07,459.235c0.459,0,0.859-0.039,1.201-0.117v0.586c-0.352,0.117-0.757,0.176-1.216,0.176
		c-0.703,0-1.223-0.188-1.557-0.564c-0.334-0.375-0.502-0.967-0.502-1.771v-5.143h-1.179v-0.424l1.179-0.33l0.367-1.802h0.373v1.927
		h2.336v0.629h-2.336v5.039c0,0.611,0.107,1.063,0.322,1.355S207.611,459.235,208.07,459.235z"/>
	<path d="M214.208,459.879c-1.157,0-2.06-0.356-2.706-1.069c-0.647-0.713-0.971-1.711-0.971-2.995c0-1.27,0.313-2.287,0.938-3.051
		c0.625-0.765,1.468-1.146,2.526-1.146c0.938,0,1.678,0.327,2.22,0.981s0.813,1.543,0.813,2.666v0.586h-5.735
		c0.01,1.094,0.265,1.929,0.766,2.505c0.5,0.576,1.217,0.864,2.149,0.864c0.454,0,0.854-0.031,1.197-0.095
		c0.345-0.063,0.78-0.2,1.308-0.41v0.658c-0.449,0.196-0.864,0.329-1.245,0.399C215.087,459.844,214.667,459.879,214.208,459.879z
		 M213.995,452.262c-0.766,0-1.381,0.253-1.846,0.758c-0.463,0.506-0.734,1.234-0.813,2.187h4.922c0-0.923-0.2-1.645-0.601-2.164
		C215.258,452.522,214.704,452.262,213.995,452.262z"/>
</g>
<rect x="34.334" y="506.333" fill="none" width="256.667" height="25.334"/>
<g enable-background="new    ">
	<path d="M71.862,513.954h-4.351l-1.494,3.779h-0.828l4.307-10.752h0.476l4.219,10.752h-0.842L71.862,513.954z M67.782,513.28h3.831
		l-1.458-3.859c-0.122-0.303-0.269-0.723-0.439-1.26c-0.132,0.469-0.276,0.893-0.432,1.273L67.782,513.28z"/>
	<path d="M78.703,517.879c-1.138,0-2.029-0.359-2.673-1.076c-0.645-0.719-0.967-1.719-0.967-3.004c0-1.318,0.334-2.345,1.003-3.079
		c0.669-0.735,1.584-1.103,2.747-1.103c0.688,0,1.348,0.12,1.978,0.359l-0.198,0.645c-0.688-0.229-1.287-0.345-1.794-0.345
		c-0.977,0-1.716,0.302-2.219,0.904c-0.503,0.604-0.754,1.472-0.754,2.604c0,1.074,0.251,1.915,0.754,2.522
		c0.503,0.608,1.206,0.912,2.109,0.912c0.723,0,1.394-0.129,2.014-0.388v0.674C80.194,517.754,79.528,517.879,78.703,517.879z"/>
	<path d="M85.866,517.879c-1.157,0-2.06-0.356-2.707-1.069s-0.97-1.711-0.97-2.995c0-1.27,0.313-2.287,0.938-3.051
		c0.625-0.765,1.467-1.146,2.527-1.146c0.938,0,1.677,0.327,2.219,0.981s0.813,1.543,0.813,2.666v0.586h-5.735
		c0.01,1.094,0.265,1.929,0.765,2.505s1.217,0.864,2.15,0.864c0.454,0,0.853-0.031,1.198-0.095c0.344-0.063,0.78-0.2,1.307-0.41
		v0.658c-0.449,0.196-0.864,0.329-1.245,0.399C86.745,517.844,86.325,517.879,85.866,517.879z M85.653,510.262
		c-0.767,0-1.382,0.253-1.846,0.758c-0.464,0.506-0.735,1.234-0.813,2.187h4.922c0-0.923-0.2-1.645-0.601-2.164
		C86.916,510.522,86.361,510.262,85.653,510.262z"/>
	<path d="M95.819,515.661c0,0.713-0.271,1.261-0.813,1.644c-0.542,0.384-1.311,0.575-2.307,0.575c-1.064,0-1.909-0.163-2.534-0.49
		v-0.784c0.801,0.4,1.646,0.601,2.534,0.601c0.786,0,1.383-0.131,1.791-0.392c0.407-0.262,0.611-0.609,0.611-1.044
		c0-0.4-0.163-0.737-0.487-1.011s-0.858-0.542-1.6-0.806c-0.796-0.288-1.355-0.536-1.677-0.743
		c-0.322-0.208-0.565-0.442-0.729-0.703c-0.164-0.262-0.246-0.58-0.246-0.956c0-0.596,0.25-1.066,0.75-1.414
		c0.5-0.346,1.2-0.52,2.099-0.52c0.859,0,1.675,0.161,2.446,0.483l-0.271,0.659c-0.781-0.322-1.506-0.483-2.175-0.483
		c-0.649,0-1.165,0.107-1.545,0.322s-0.571,0.513-0.571,0.894c0,0.415,0.147,0.747,0.443,0.996s0.873,0.527,1.732,0.835
		c0.718,0.259,1.24,0.492,1.567,0.699c0.327,0.208,0.572,0.443,0.736,0.707C95.737,514.994,95.819,515.304,95.819,515.661z"/>
	<path d="M102.807,515.661c0,0.713-0.271,1.261-0.813,1.644c-0.542,0.384-1.311,0.575-2.307,0.575c-1.064,0-1.909-0.163-2.534-0.49
		v-0.784c0.801,0.4,1.646,0.601,2.534,0.601c0.786,0,1.383-0.131,1.791-0.392c0.407-0.262,0.611-0.609,0.611-1.044
		c0-0.4-0.163-0.737-0.487-1.011s-0.858-0.542-1.6-0.806c-0.796-0.288-1.355-0.536-1.677-0.743
		c-0.322-0.208-0.565-0.442-0.729-0.703c-0.164-0.262-0.246-0.58-0.246-0.956c0-0.596,0.25-1.066,0.75-1.414
		c0.5-0.346,1.2-0.52,2.099-0.52c0.859,0,1.675,0.161,2.446,0.483l-0.271,0.659c-0.781-0.322-1.506-0.483-2.175-0.483
		c-0.649,0-1.165,0.107-1.545,0.322s-0.571,0.513-0.571,0.894c0,0.415,0.147,0.747,0.443,0.996s0.873,0.527,1.732,0.835
		c0.718,0.259,1.24,0.492,1.567,0.699c0.327,0.208,0.572,0.443,0.736,0.707C102.725,514.994,102.807,515.304,102.807,515.661z"/>
	<path d="M111.442,513.741c0,1.3-0.315,2.313-0.945,3.044c-0.63,0.729-1.499,1.095-2.607,1.095c-0.698,0-1.313-0.168-1.846-0.506
		c-0.532-0.336-0.94-0.82-1.223-1.449c-0.283-0.631-0.425-1.357-0.425-2.184c0-1.298,0.315-2.311,0.945-3.035
		c0.63-0.726,1.494-1.088,2.593-1.088c1.094,0,1.952,0.367,2.574,1.103C111.131,511.455,111.442,512.462,111.442,513.741z
		 M105.158,513.741c0,1.095,0.24,1.947,0.721,2.561c0.481,0.612,1.161,0.919,2.04,0.919s1.559-0.307,2.04-0.919
		c0.48-0.613,0.721-1.466,0.721-2.561c0-1.098-0.243-1.95-0.729-2.556s-1.168-0.908-2.047-0.908s-1.557,0.302-2.032,0.904
		C105.396,511.785,105.158,512.638,105.158,513.741z"/>
	<path d="M123.739,517.733h-6.702v-0.645l2.849-2.974c0.801-0.83,1.362-1.465,1.685-1.904s0.559-0.859,0.71-1.26
		s0.227-0.82,0.227-1.26c0-0.64-0.21-1.159-0.63-1.56s-0.964-0.602-1.633-0.602c-0.894,0-1.748,0.325-2.563,0.975l-0.396-0.506
		c0.894-0.751,1.885-1.127,2.974-1.127c0.933,0,1.667,0.248,2.201,0.746c0.535,0.498,0.802,1.185,0.802,2.059
		c0,0.708-0.179,1.393-0.539,2.055c-0.358,0.661-1.014,1.479-1.966,2.449l-2.747,2.82v0.029h5.728V517.733z"/>
	<path d="M125.958,517.162c0-0.479,0.195-0.718,0.586-0.718c0.4,0,0.601,0.239,0.601,0.718s-0.2,0.718-0.601,0.718
		C126.154,517.879,125.958,517.64,125.958,517.162z"/>
	<path d="M129.298,513.17c0-1.393,0.189-2.563,0.568-3.513c0.378-0.949,0.915-1.653,1.611-2.112
		c0.695-0.459,1.534-0.689,2.516-0.689c0.459,0,0.879,0.057,1.26,0.169v0.645c-0.356-0.132-0.786-0.198-1.289-0.198
		c-1.206,0-2.145,0.436-2.816,1.305s-1.048,2.134-1.131,3.793h0.095c0.371-0.478,0.796-0.839,1.274-1.084
		c0.479-0.243,0.984-0.365,1.516-0.365c1.001,0,1.784,0.285,2.347,0.856c0.564,0.571,0.846,1.36,0.846,2.366
		c0,1.094-0.296,1.956-0.89,2.589c-0.593,0.632-1.393,0.948-2.398,0.948c-1.084,0-1.94-0.414-2.567-1.241
		C129.612,515.81,129.298,514.655,129.298,513.17z M132.807,517.235c0.801,0,1.423-0.251,1.868-0.754s0.667-1.221,0.667-2.154
		c0-0.82-0.22-1.459-0.659-1.918s-1.038-0.689-1.794-0.689c-0.498,0-0.961,0.11-1.388,0.33s-0.768,0.512-1.021,0.875
		c-0.254,0.364-0.381,0.736-0.381,1.117c0,0.542,0.121,1.063,0.362,1.563c0.242,0.501,0.569,0.897,0.981,1.19
		S132.309,517.235,132.807,517.235z"/>
	<path d="M144.628,512.35c0,1.88-0.287,3.271-0.86,4.174c-0.574,0.904-1.442,1.355-2.604,1.355c-1.118,0-1.968-0.465-2.549-1.396
		c-0.581-0.93-0.872-2.308-0.872-4.134c0-1.865,0.282-3.247,0.846-4.146c0.564-0.897,1.422-1.348,2.575-1.348
		c1.128,0,1.987,0.466,2.578,1.396C144.333,509.182,144.628,510.547,144.628,512.35z M138.534,512.35c0,1.66,0.217,2.887,0.652,3.68
		c0.435,0.794,1.094,1.19,1.978,1.19c0.923,0,1.595-0.41,2.018-1.23c0.422-0.82,0.633-2.033,0.633-3.64
		c0-1.582-0.211-2.783-0.633-3.604c-0.423-0.82-1.095-1.23-2.018-1.23s-1.592,0.41-2.007,1.23S138.534,510.768,138.534,512.35z"/>
	<path d="M153.19,512.35c0,1.88-0.287,3.271-0.861,4.174c-0.574,0.904-1.441,1.355-2.604,1.355c-1.118,0-1.968-0.465-2.549-1.396
		c-0.581-0.93-0.872-2.308-0.872-4.134c0-1.865,0.282-3.247,0.846-4.146c0.563-0.897,1.422-1.348,2.574-1.348
		c1.128,0,1.987,0.466,2.578,1.396C152.895,509.182,153.19,510.547,153.19,512.35z M147.096,512.35c0,1.66,0.217,2.887,0.652,3.68
		c0.435,0.794,1.094,1.19,1.978,1.19c0.923,0,1.595-0.41,2.018-1.23s0.634-2.033,0.634-3.64c0-1.582-0.211-2.783-0.634-3.604
		s-1.095-1.23-2.018-1.23s-1.592,0.41-2.007,1.23S147.096,510.768,147.096,512.35z"/>
	<path d="M164.088,517.733l-0.183-1.26h-0.059c-0.4,0.513-0.812,0.875-1.234,1.088c-0.422,0.212-0.921,0.318-1.498,0.318
		c-0.781,0-1.389-0.2-1.824-0.601s-0.652-0.954-0.652-1.663c0-0.775,0.323-1.379,0.97-1.809s1.583-0.656,2.809-0.682l1.516-0.043
		v-0.527c0-0.757-0.154-1.328-0.461-1.715c-0.308-0.385-0.803-0.578-1.487-0.578c-0.737,0-1.501,0.205-2.292,0.615l-0.271-0.63
		c0.874-0.41,1.738-0.615,2.593-0.615c0.874,0,1.527,0.228,1.959,0.681c0.433,0.455,0.648,1.163,0.648,2.125v5.295H164.088z
		 M161.159,517.22c0.85,0,1.52-0.243,2.01-0.729c0.491-0.486,0.736-1.161,0.736-2.025v-0.784l-1.392,0.059
		c-1.118,0.055-1.915,0.229-2.392,0.524c-0.476,0.295-0.714,0.756-0.714,1.38c0,0.498,0.152,0.886,0.458,1.161
		C160.171,517.083,160.602,517.22,161.159,517.22z"/>
	<path d="M170.38,517.879c-1.138,0-2.029-0.359-2.674-1.076c-0.645-0.719-0.967-1.719-0.967-3.004c0-1.318,0.335-2.345,1.004-3.079
		c0.669-0.735,1.584-1.103,2.746-1.103c0.689,0,1.348,0.12,1.979,0.359l-0.198,0.645c-0.688-0.229-1.286-0.345-1.794-0.345
		c-0.977,0-1.717,0.302-2.22,0.904c-0.503,0.604-0.755,1.472-0.755,2.604c0,1.074,0.252,1.915,0.755,2.522
		c0.503,0.608,1.206,0.912,2.109,0.912c0.723,0,1.394-0.129,2.015-0.388v0.674C171.872,517.754,171.205,517.879,170.38,517.879z"/>
	<path d="M177.543,517.879c-1.157,0-2.06-0.356-2.706-1.069c-0.647-0.713-0.971-1.711-0.971-2.995c0-1.27,0.313-2.287,0.938-3.051
		c0.625-0.765,1.467-1.146,2.527-1.146c0.938,0,1.677,0.327,2.219,0.981s0.813,1.543,0.813,2.666v0.586h-5.734
		c0.01,1.094,0.265,1.929,0.766,2.505c0.5,0.576,1.217,0.864,2.149,0.864c0.454,0,0.854-0.031,1.197-0.095
		c0.345-0.063,0.78-0.2,1.308-0.41v0.658c-0.449,0.196-0.864,0.329-1.245,0.399C178.422,517.844,178.002,517.879,177.543,517.879z
		 M177.331,510.262c-0.768,0-1.383,0.253-1.846,0.758c-0.465,0.506-0.735,1.234-0.813,2.187h4.922c0-0.923-0.2-1.645-0.601-2.164
		C178.593,510.522,178.038,510.262,177.331,510.262z"/>
	<path d="M187.497,515.661c0,0.713-0.271,1.261-0.813,1.644c-0.542,0.384-1.312,0.575-2.308,0.575c-1.064,0-1.908-0.163-2.533-0.49
		v-0.784c0.801,0.4,1.645,0.601,2.533,0.601c0.787,0,1.383-0.131,1.791-0.392c0.408-0.262,0.611-0.609,0.611-1.044
		c0-0.4-0.162-0.737-0.486-1.011c-0.325-0.273-0.858-0.542-1.601-0.806c-0.796-0.288-1.354-0.536-1.677-0.743
		c-0.322-0.208-0.566-0.442-0.729-0.703c-0.163-0.262-0.245-0.58-0.245-0.956c0-0.596,0.25-1.066,0.751-1.414
		c0.5-0.346,1.2-0.52,2.099-0.52c0.859,0,1.674,0.161,2.445,0.483l-0.271,0.659c-0.781-0.322-1.507-0.483-2.175-0.483
		c-0.65,0-1.165,0.107-1.546,0.322s-0.571,0.513-0.571,0.894c0,0.415,0.147,0.747,0.443,0.996c0.295,0.249,0.873,0.527,1.732,0.835
		c0.717,0.259,1.24,0.492,1.566,0.699c0.328,0.208,0.572,0.443,0.736,0.707S187.497,515.304,187.497,515.661z"/>
	<path d="M194.483,515.661c0,0.713-0.271,1.261-0.813,1.644c-0.542,0.384-1.311,0.575-2.307,0.575c-1.064,0-1.91-0.163-2.535-0.49
		v-0.784c0.801,0.4,1.646,0.601,2.535,0.601c0.785,0,1.383-0.131,1.79-0.392c0.407-0.262,0.612-0.609,0.612-1.044
		c0-0.4-0.163-0.737-0.487-1.011c-0.325-0.273-0.858-0.542-1.601-0.806c-0.796-0.288-1.355-0.536-1.678-0.743
		c-0.322-0.208-0.564-0.442-0.729-0.703c-0.164-0.262-0.245-0.58-0.245-0.956c0-0.596,0.25-1.066,0.751-1.414
		c0.5-0.346,1.199-0.52,2.098-0.52c0.859,0,1.676,0.161,2.447,0.483l-0.271,0.659c-0.781-0.322-1.506-0.483-2.176-0.483
		c-0.648,0-1.164,0.107-1.545,0.322s-0.571,0.513-0.571,0.894c0,0.415,0.147,0.747,0.443,0.996c0.295,0.249,0.872,0.527,1.731,0.835
		c0.719,0.259,1.24,0.492,1.568,0.699c0.326,0.208,0.572,0.443,0.735,0.707S194.483,515.304,194.483,515.661z"/>
	<path d="M203.119,513.741c0,1.3-0.315,2.313-0.944,3.044c-0.631,0.729-1.5,1.095-2.607,1.095c-0.699,0-1.314-0.168-1.846-0.506
		c-0.533-0.336-0.94-0.82-1.224-1.449c-0.283-0.631-0.425-1.357-0.425-2.184c0-1.298,0.314-2.311,0.945-3.035
		c0.629-0.726,1.494-1.088,2.592-1.088c1.094,0,1.952,0.367,2.575,1.103C202.808,511.455,203.119,512.462,203.119,513.741z
		 M196.835,513.741c0,1.095,0.24,1.947,0.722,2.561c0.48,0.612,1.161,0.919,2.04,0.919s1.559-0.307,2.039-0.919
		c0.48-0.613,0.722-1.466,0.722-2.561c0-1.098-0.243-1.95-0.729-2.556c-0.486-0.605-1.169-0.908-2.048-0.908
		s-1.556,0.302-2.032,0.904C197.073,511.785,196.835,512.638,196.835,513.741z"/>
	<path d="M210.261,515.661c0,0.713-0.271,1.261-0.813,1.644c-0.542,0.384-1.312,0.575-2.308,0.575c-1.064,0-1.908-0.163-2.533-0.49
		v-0.784c0.801,0.4,1.645,0.601,2.533,0.601c0.787,0,1.383-0.131,1.791-0.392c0.408-0.262,0.611-0.609,0.611-1.044
		c0-0.4-0.162-0.737-0.486-1.011c-0.325-0.273-0.858-0.542-1.601-0.806c-0.796-0.288-1.354-0.536-1.677-0.743
		c-0.322-0.208-0.566-0.442-0.729-0.703c-0.163-0.262-0.245-0.58-0.245-0.956c0-0.596,0.25-1.066,0.751-1.414
		c0.5-0.346,1.2-0.52,2.099-0.52c0.859,0,1.674,0.161,2.445,0.483l-0.271,0.659c-0.781-0.322-1.507-0.483-2.175-0.483
		c-0.65,0-1.165,0.107-1.546,0.322s-0.571,0.513-0.571,0.894c0,0.415,0.147,0.747,0.443,0.996c0.295,0.249,0.873,0.527,1.732,0.835
		c0.717,0.259,1.24,0.492,1.566,0.699c0.328,0.208,0.572,0.443,0.736,0.707S210.261,515.304,210.261,515.661z"/>
	<path d="M219.122,509.618c0.576,0,1.074,0.105,1.494,0.314c0.42,0.211,0.797,0.569,1.129,1.077h0.043
		c-0.029-0.615-0.043-1.218-0.043-1.81v-2.863h0.717v11.396h-0.476l-0.183-1.216h-0.059c-0.605,0.908-1.475,1.362-2.607,1.362
		c-1.1,0-1.939-0.342-2.52-1.025c-0.582-0.684-0.872-1.68-0.872-2.988c0-1.377,0.288-2.429,0.864-3.156
		S218.024,509.618,219.122,509.618z M219.122,510.277c-0.869,0-1.521,0.306-1.959,0.915c-0.438,0.611-0.655,1.497-0.655,2.659
		c0,2.256,0.876,3.384,2.63,3.384c0.898,0,1.557-0.261,1.977-0.783s0.631-1.385,0.631-2.586v-0.125c0-1.23-0.207-2.115-0.619-2.654
		C220.713,510.546,220.046,510.277,219.122,510.277z"/>
	<path d="M225.033,507.559c0-0.469,0.153-0.703,0.462-0.703c0.15,0,0.27,0.062,0.354,0.184s0.128,0.296,0.128,0.52
		c0,0.221-0.043,0.394-0.128,0.521s-0.204,0.19-0.354,0.19C225.187,508.27,225.033,508.034,225.033,507.559z M225.86,517.733h-0.725
		v-7.961h0.725V517.733z"/>
	<path d="M233.36,517.733l-0.183-1.26h-0.059c-0.4,0.513-0.812,0.875-1.234,1.088c-0.423,0.212-0.921,0.318-1.497,0.318
		c-0.781,0-1.39-0.2-1.824-0.601s-0.652-0.954-0.652-1.663c0-0.775,0.324-1.379,0.971-1.809s1.584-0.656,2.809-0.682l1.517-0.043
		v-0.527c0-0.757-0.153-1.328-0.462-1.715c-0.307-0.385-0.803-0.578-1.486-0.578c-0.737,0-1.502,0.205-2.293,0.615l-0.271-0.63
		c0.874-0.41,1.738-0.615,2.593-0.615c0.874,0,1.527,0.228,1.959,0.681c0.433,0.455,0.648,1.163,0.648,2.125v5.295H233.36z
		 M230.431,517.22c0.85,0,1.521-0.243,2.011-0.729c0.491-0.486,0.736-1.161,0.736-2.025v-0.784l-1.392,0.059
		c-1.118,0.055-1.915,0.229-2.392,0.524c-0.476,0.295-0.714,0.756-0.714,1.38c0,0.498,0.152,0.886,0.458,1.161
		C229.443,517.083,229.874,517.22,230.431,517.22z M230.284,508.526c0.357-0.385,0.709-0.804,1.059-1.256
		c0.35-0.451,0.588-0.795,0.715-1.029h1.032v0.125c-0.176,0.254-0.476,0.591-0.897,1.011s-0.887,0.843-1.395,1.267h-0.514V508.526z"
		/>
	<path d="M239.608,509.618c0.337,0,0.698,0.034,1.084,0.103l-0.139,0.696c-0.332-0.083-0.677-0.125-1.033-0.125
		c-0.679,0-1.235,0.288-1.67,0.864s-0.652,1.304-0.652,2.183v4.395h-0.725v-7.961h0.615l0.073,1.436h0.052
		c0.326-0.586,0.676-0.998,1.047-1.234C238.632,509.736,239.081,509.618,239.608,509.618z"/>
	<path d="M242.208,507.559c0-0.469,0.154-0.703,0.462-0.703c0.151,0,0.27,0.062,0.355,0.184c0.085,0.122,0.128,0.296,0.128,0.52
		c0,0.221-0.043,0.394-0.128,0.521c-0.086,0.127-0.204,0.19-0.355,0.19C242.362,508.27,242.208,508.034,242.208,507.559z
		 M243.036,517.733h-0.725v-7.961h0.725V517.733z"/>
	<path d="M252.286,513.741c0,1.3-0.314,2.313-0.944,3.044c-0.63,0.729-1.499,1.095-2.607,1.095c-0.698,0-1.313-0.168-1.846-0.506
		c-0.532-0.336-0.94-0.82-1.224-1.449c-0.283-0.631-0.424-1.357-0.424-2.184c0-1.298,0.314-2.311,0.944-3.035
		c0.63-0.726,1.494-1.088,2.593-1.088c1.094,0,1.952,0.367,2.574,1.103C251.976,511.455,252.286,512.462,252.286,513.741z
		 M246.003,513.741c0,1.095,0.24,1.947,0.721,2.561c0.48,0.612,1.161,0.919,2.04,0.919s1.559-0.307,2.04-0.919
		c0.48-0.613,0.721-1.466,0.721-2.561c0-1.098-0.242-1.95-0.729-2.556s-1.168-0.908-2.047-0.908s-1.557,0.302-2.032,0.904
		C246.24,511.785,246.003,512.638,246.003,513.741z"/>
	<path d="M259.428,515.661c0,0.713-0.271,1.261-0.813,1.644c-0.541,0.384-1.311,0.575-2.307,0.575c-1.064,0-1.909-0.163-2.534-0.49
		v-0.784c0.801,0.4,1.646,0.601,2.534,0.601c0.786,0,1.383-0.131,1.791-0.392c0.407-0.262,0.611-0.609,0.611-1.044
		c0-0.4-0.162-0.737-0.487-1.011s-0.858-0.542-1.601-0.806c-0.795-0.288-1.354-0.536-1.677-0.743
		c-0.322-0.208-0.565-0.442-0.729-0.703c-0.164-0.262-0.245-0.58-0.245-0.956c0-0.596,0.25-1.066,0.75-1.414
		c0.5-0.346,1.2-0.52,2.099-0.52c0.859,0,1.675,0.161,2.446,0.483l-0.271,0.659c-0.781-0.322-1.506-0.483-2.175-0.483
		c-0.649,0-1.165,0.107-1.546,0.322s-0.57,0.513-0.57,0.894c0,0.415,0.146,0.747,0.442,0.996s0.873,0.527,1.732,0.835
		c0.718,0.259,1.24,0.492,1.567,0.699c0.327,0.208,0.572,0.443,0.736,0.707C259.346,514.994,259.428,515.304,259.428,515.661z"/>
</g>
<rect x="17.667" y="563.667" fill="none" width="288.667" height="34"/>
<g enable-background="new    ">
	<path d="M48.098,564.359h2.937c1.323,0,2.295,0.225,2.915,0.674s0.93,1.128,0.93,2.036c0,0.62-0.189,1.137-0.568,1.549
		c-0.378,0.413-0.931,0.678-1.659,0.795v0.044c0.854,0.127,1.483,0.396,1.886,0.81c0.402,0.412,0.604,0.987,0.604,1.725
		c0,0.986-0.327,1.746-0.981,2.277c-0.654,0.533-1.582,0.799-2.783,0.799h-3.281V564.359z M48.845,569.127h2.358
		c1.006,0,1.737-0.168,2.194-0.502c0.456-0.335,0.685-0.858,0.685-1.571s-0.258-1.23-0.772-1.553
		c-0.516-0.322-1.283-0.483-2.304-0.483h-2.161V569.127z M48.845,569.786v4.622h2.52c1.982,0,2.974-0.806,2.974-2.417
		c0-1.47-1.045-2.205-3.135-2.205H48.845z"/>
	<path d="M62.153,575.067l-0.183-1.26h-0.059c-0.4,0.513-0.812,0.875-1.234,1.088c-0.423,0.212-0.922,0.318-1.498,0.318
		c-0.781,0-1.389-0.2-1.824-0.601s-0.652-0.954-0.652-1.663c0-0.775,0.323-1.379,0.971-1.809c0.646-0.43,1.583-0.656,2.809-0.682
		L62,570.417v-0.527c0-0.757-0.154-1.328-0.461-1.715c-0.308-0.385-0.803-0.578-1.487-0.578c-0.737,0-1.501,0.205-2.292,0.615
		l-0.271-0.63c0.874-0.41,1.738-0.615,2.593-0.615c0.874,0,1.527,0.228,1.959,0.681c0.432,0.455,0.648,1.163,0.648,2.125v5.295
		H62.153z M59.224,574.554c0.85,0,1.52-0.243,2.011-0.729c0.49-0.486,0.736-1.161,0.736-2.025v-0.784l-1.392,0.059
		c-1.118,0.055-1.916,0.229-2.391,0.524c-0.477,0.295-0.714,0.756-0.714,1.38c0,0.498,0.152,0.886,0.458,1.161
		C58.236,574.417,58.667,574.554,59.224,574.554z"/>
	<path d="M70.818,575.067v-5.164c0-0.8-0.168-1.383-0.505-1.746c-0.337-0.364-0.859-0.546-1.567-0.546
		c-0.952,0-1.649,0.24-2.091,0.722c-0.442,0.48-0.663,1.261-0.663,2.34v4.395h-0.725v-7.961h0.615l0.139,1.091h0.044
		c0.518-0.83,1.438-1.245,2.761-1.245c1.807,0,2.71,0.97,2.71,2.908v5.207H70.818z"/>
	<path d="M77.292,575.213c-1.138,0-2.029-0.359-2.673-1.076c-0.645-0.719-0.967-1.719-0.967-3.004c0-1.318,0.334-2.345,1.003-3.079
		c0.669-0.735,1.584-1.103,2.747-1.103c0.688,0,1.348,0.12,1.978,0.359l-0.198,0.645c-0.688-0.229-1.287-0.345-1.794-0.345
		c-0.977,0-1.716,0.302-2.219,0.904c-0.503,0.604-0.754,1.472-0.754,2.604c0,1.074,0.251,1.915,0.754,2.522
		c0.503,0.608,1.206,0.912,2.109,0.912c0.723,0,1.394-0.129,2.014-0.388v0.674C78.784,575.088,78.118,575.213,77.292,575.213z"/>
	<path d="M87.825,571.075c0,1.3-0.315,2.313-0.945,3.044c-0.63,0.729-1.499,1.095-2.607,1.095c-0.698,0-1.313-0.168-1.846-0.506
		c-0.532-0.336-0.94-0.82-1.223-1.449c-0.283-0.631-0.425-1.357-0.425-2.184c0-1.298,0.315-2.311,0.945-3.035
		c0.63-0.726,1.494-1.088,2.593-1.088c1.094,0,1.952,0.367,2.574,1.103C87.514,568.789,87.825,569.796,87.825,571.075z
		 M81.541,571.075c0,1.095,0.24,1.947,0.721,2.561c0.481,0.612,1.161,0.919,2.04,0.919s1.559-0.307,2.04-0.919
		c0.48-0.613,0.721-1.466,0.721-2.561c0-1.098-0.243-1.95-0.729-2.556s-1.168-0.908-2.047-0.908s-1.557,0.302-2.032,0.904
		C81.778,569.119,81.541,569.972,81.541,571.075z"/>
	<path d="M96.841,566.952c0.576,0,1.074,0.105,1.494,0.314c0.42,0.211,0.796,0.569,1.128,1.077h0.044
		c-0.029-0.615-0.044-1.218-0.044-1.81v-2.863h0.718v11.396h-0.476l-0.183-1.216h-0.059c-0.605,0.908-1.475,1.362-2.607,1.362
		c-1.099,0-1.938-0.342-2.52-1.025s-0.872-1.68-0.872-2.988c0-1.377,0.288-2.429,0.864-3.156S95.742,566.952,96.841,566.952z
		 M96.841,567.611c-0.869,0-1.522,0.306-1.959,0.915c-0.438,0.611-0.656,1.497-0.656,2.659c0,2.256,0.876,3.384,2.629,3.384
		c0.898,0,1.558-0.261,1.978-0.783s0.63-1.385,0.63-2.586v-0.125c0-1.23-0.207-2.115-0.619-2.654
		C98.431,567.88,97.764,567.611,96.841,567.611z"/>
	<path d="M106.069,575.213c-1.157,0-2.06-0.356-2.706-1.069c-0.647-0.713-0.971-1.711-0.971-2.995c0-1.27,0.313-2.287,0.938-3.051
		c0.625-0.765,1.467-1.146,2.527-1.146c0.938,0,1.677,0.327,2.219,0.981s0.813,1.543,0.813,2.666v0.586h-5.735
		c0.01,1.094,0.265,1.929,0.766,2.505c0.5,0.576,1.217,0.864,2.149,0.864c0.454,0,0.854-0.031,1.197-0.095
		c0.345-0.063,0.78-0.2,1.308-0.41v0.658c-0.449,0.196-0.864,0.329-1.245,0.399C106.948,575.178,106.528,575.213,106.069,575.213z
		 M105.857,567.596c-0.767,0-1.382,0.253-1.846,0.758c-0.464,0.506-0.735,1.234-0.813,2.187h4.922c0-0.923-0.2-1.645-0.601-2.164
		C107.119,567.856,106.565,567.596,105.857,567.596z"/>
	<path d="M117.898,566.952c0.576,0,1.074,0.105,1.494,0.314c0.42,0.211,0.796,0.569,1.128,1.077h0.044
		c-0.029-0.615-0.044-1.218-0.044-1.81v-2.863h0.718v11.396h-0.476l-0.183-1.216h-0.059c-0.605,0.908-1.475,1.362-2.607,1.362
		c-1.099,0-1.938-0.342-2.52-1.025s-0.872-1.68-0.872-2.988c0-1.377,0.288-2.429,0.864-3.156S116.799,566.952,117.898,566.952z
		 M117.898,567.611c-0.869,0-1.522,0.306-1.959,0.915c-0.437,0.611-0.655,1.497-0.655,2.659c0,2.256,0.876,3.384,2.629,3.384
		c0.898,0,1.558-0.261,1.978-0.783s0.63-1.385,0.63-2.586v-0.125c0-1.23-0.207-2.115-0.619-2.654
		C119.488,567.88,118.821,567.611,117.898,567.611z"/>
	<path d="M128.745,575.067l-0.183-1.26h-0.059c-0.4,0.513-0.812,0.875-1.234,1.088c-0.423,0.212-0.922,0.318-1.498,0.318
		c-0.781,0-1.389-0.2-1.824-0.601s-0.652-0.954-0.652-1.663c0-0.775,0.323-1.379,0.971-1.809c0.646-0.43,1.583-0.656,2.809-0.682
		l1.516-0.043v-0.527c0-0.757-0.154-1.328-0.461-1.715c-0.308-0.385-0.803-0.578-1.487-0.578c-0.737,0-1.501,0.205-2.292,0.615
		l-0.271-0.63c0.874-0.41,1.738-0.615,2.593-0.615c0.874,0,1.527,0.228,1.959,0.681c0.432,0.455,0.648,1.163,0.648,2.125v5.295
		H128.745z M125.815,574.554c0.85,0,1.52-0.243,2.011-0.729c0.49-0.486,0.736-1.161,0.736-2.025v-0.784l-1.392,0.059
		c-1.118,0.055-1.916,0.229-2.391,0.524c-0.477,0.295-0.714,0.756-0.714,1.38c0,0.498,0.152,0.886,0.458,1.161
		C124.828,574.417,125.259,574.554,125.815,574.554z"/>
	<path d="M134.773,566.952c0.576,0,1.074,0.105,1.494,0.314c0.42,0.211,0.796,0.569,1.128,1.077h0.044
		c-0.029-0.615-0.044-1.218-0.044-1.81v-2.863h0.718v11.396h-0.476l-0.183-1.216h-0.059c-0.605,0.908-1.475,1.362-2.607,1.362
		c-1.099,0-1.938-0.342-2.52-1.025s-0.872-1.68-0.872-2.988c0-1.377,0.288-2.429,0.864-3.156S133.674,566.952,134.773,566.952z
		 M134.773,567.611c-0.869,0-1.522,0.306-1.959,0.915c-0.437,0.611-0.655,1.497-0.655,2.659c0,2.256,0.876,3.384,2.629,3.384
		c0.898,0,1.558-0.261,1.978-0.783s0.63-1.385,0.63-2.586v-0.125c0-1.23-0.207-2.115-0.619-2.654
		C136.363,567.88,135.696,567.611,134.773,567.611z"/>
	<path d="M147.371,571.075c0,1.3-0.315,2.313-0.945,3.044c-0.63,0.729-1.499,1.095-2.607,1.095c-0.698,0-1.313-0.168-1.846-0.506
		c-0.532-0.336-0.94-0.82-1.223-1.449c-0.283-0.631-0.425-1.357-0.425-2.184c0-1.298,0.315-2.311,0.945-3.035
		c0.63-0.726,1.494-1.088,2.593-1.088c1.094,0,1.952,0.367,2.574,1.103C147.06,568.789,147.371,569.796,147.371,571.075z
		 M141.086,571.075c0,1.095,0.24,1.947,0.721,2.561c0.481,0.612,1.161,0.919,2.04,0.919s1.559-0.307,2.04-0.919
		c0.48-0.613,0.721-1.466,0.721-2.561c0-1.098-0.243-1.95-0.729-2.556s-1.168-0.908-2.047-0.908s-1.557,0.302-2.032,0.904
		C141.324,569.119,141.086,569.972,141.086,571.075z"/>
	<path d="M154.512,572.995c0,0.713-0.271,1.261-0.813,1.644c-0.542,0.384-1.311,0.575-2.307,0.575c-1.064,0-1.909-0.163-2.534-0.49
		v-0.784c0.801,0.4,1.646,0.601,2.534,0.601c0.786,0,1.383-0.131,1.791-0.392c0.407-0.262,0.611-0.609,0.611-1.044
		c0-0.4-0.163-0.737-0.487-1.011s-0.858-0.542-1.6-0.806c-0.796-0.288-1.355-0.536-1.677-0.743
		c-0.322-0.208-0.565-0.442-0.729-0.703c-0.164-0.262-0.246-0.58-0.246-0.956c0-0.596,0.25-1.066,0.75-1.414
		c0.5-0.346,1.2-0.52,2.099-0.52c0.859,0,1.675,0.161,2.446,0.483l-0.271,0.659c-0.781-0.322-1.506-0.483-2.175-0.483
		c-0.649,0-1.165,0.107-1.545,0.322s-0.571,0.513-0.571,0.894c0,0.415,0.147,0.747,0.443,0.996s0.873,0.527,1.732,0.835
		c0.718,0.259,1.24,0.492,1.567,0.699c0.327,0.208,0.572,0.443,0.736,0.707C154.43,572.328,154.512,572.638,154.512,572.995z"/>
	<path d="M166.296,566.878c0,0.664-0.208,1.224-0.626,1.677c-0.417,0.455-0.978,0.745-1.681,0.872v0.044
		c0.859,0.107,1.514,0.381,1.963,0.82s0.674,1.03,0.674,1.772c0,1.001-0.341,1.776-1.021,2.325c-0.682,0.55-1.662,0.824-2.941,0.824
		c-1.089,0-2.039-0.202-2.849-0.607v-0.726c0.41,0.215,0.87,0.384,1.381,0.505c0.51,0.123,0.99,0.184,1.439,0.184
		c1.079,0,1.89-0.219,2.431-0.655c0.543-0.438,0.813-1.054,0.813-1.85c0-0.708-0.277-1.253-0.831-1.634
		c-0.555-0.381-1.369-0.57-2.443-0.57h-1.157v-0.703h1.172c0.889,0,1.593-0.212,2.113-0.634c0.521-0.423,0.78-0.995,0.78-1.718
		c0-0.596-0.211-1.073-0.634-1.432c-0.422-0.359-0.975-0.539-1.659-0.539c-0.532,0-1.018,0.075-1.458,0.224
		c-0.439,0.149-0.933,0.404-1.479,0.766l-0.359-0.491c0.415-0.346,0.916-0.621,1.501-0.823c0.586-0.203,1.179-0.304,1.78-0.304
		c0.986,0,1.749,0.232,2.286,0.699C166.028,565.371,166.296,566.029,166.296,566.878z"/>
	<path d="M182.864,575.067v-5.223c0-0.775-0.152-1.342-0.455-1.699c-0.303-0.355-0.766-0.534-1.391-0.534
		c-0.816,0-1.419,0.225-1.81,0.674s-0.586,1.155-0.586,2.116v4.666h-0.739v-5.441c0-1.343-0.615-2.015-1.846-2.015
		c-0.836,0-1.443,0.243-1.824,0.729c-0.381,0.486-0.571,1.264-0.571,2.333v4.395h-0.726v-7.961h0.602l0.153,1.091h0.044
		c0.22-0.396,0.532-0.702,0.938-0.919c0.405-0.218,0.852-0.326,1.34-0.326c1.256,0,2.061,0.472,2.418,1.414h0.029
		c0.258-0.455,0.605-0.804,1.043-1.048s0.934-0.366,1.49-0.366c0.869,0,1.521,0.232,1.956,0.695
		c0.435,0.465,0.651,1.201,0.651,2.213v5.207H182.864z"/>
	<path d="M190.993,575.067l-0.183-1.26h-0.059c-0.4,0.513-0.812,0.875-1.234,1.088c-0.423,0.212-0.921,0.318-1.497,0.318
		c-0.781,0-1.39-0.2-1.824-0.601s-0.652-0.954-0.652-1.663c0-0.775,0.324-1.379,0.971-1.809s1.584-0.656,2.809-0.682l1.517-0.043
		v-0.527c0-0.757-0.153-1.328-0.462-1.715c-0.307-0.385-0.803-0.578-1.486-0.578c-0.737,0-1.502,0.205-2.293,0.615l-0.271-0.63
		c0.874-0.41,1.738-0.615,2.593-0.615c0.874,0,1.527,0.228,1.959,0.681c0.433,0.455,0.648,1.163,0.648,2.125v5.295H190.993z
		 M188.063,574.554c0.85,0,1.521-0.243,2.011-0.729c0.491-0.486,0.736-1.161,0.736-2.025v-0.784l-1.392,0.059
		c-1.118,0.055-1.915,0.229-2.392,0.524c-0.476,0.295-0.714,0.756-0.714,1.38c0,0.498,0.152,0.886,0.458,1.161
		C187.076,574.417,187.507,574.554,188.063,574.554z M187.917,565.86c0.357-0.385,0.709-0.804,1.059-1.256
		c0.35-0.451,0.588-0.795,0.715-1.029h1.032v0.125c-0.176,0.254-0.476,0.591-0.897,1.011s-0.887,0.843-1.395,1.267h-0.514V565.86z"
		/>
	<path d="M196.062,570.973l-2.775-3.867h0.835l2.373,3.354l2.351-3.354h0.799l-2.732,3.867l2.93,4.094h-0.842l-2.505-3.553
		l-2.52,3.553h-0.798L196.062,570.973z"/>
	<path d="M201.475,564.893c0-0.469,0.153-0.703,0.462-0.703c0.15,0,0.27,0.062,0.354,0.184s0.128,0.296,0.128,0.52
		c0,0.221-0.043,0.394-0.128,0.521s-0.204,0.19-0.354,0.19C201.628,565.604,201.475,565.368,201.475,564.893z M202.302,575.067
		h-0.725v-7.961h0.725V575.067z"/>
	<path d="M214.915,575.067v-5.223c0-0.775-0.152-1.342-0.455-1.699c-0.303-0.355-0.766-0.534-1.391-0.534
		c-0.816,0-1.419,0.225-1.81,0.674s-0.586,1.155-0.586,2.116v4.666h-0.739v-5.441c0-1.343-0.615-2.015-1.846-2.015
		c-0.836,0-1.443,0.243-1.824,0.729c-0.381,0.486-0.571,1.264-0.571,2.333v4.395h-0.726v-7.961h0.602l0.153,1.091h0.044
		c0.22-0.396,0.532-0.702,0.938-0.919c0.405-0.218,0.852-0.326,1.34-0.326c1.256,0,2.061,0.472,2.418,1.414h0.029
		c0.258-0.455,0.605-0.804,1.043-1.048s0.934-0.366,1.49-0.366c0.869,0,1.521,0.232,1.956,0.695
		c0.435,0.465,0.651,1.201,0.651,2.213v5.207H214.915z"/>
	<path d="M224.795,571.075c0,1.3-0.315,2.313-0.944,3.044c-0.631,0.729-1.5,1.095-2.607,1.095c-0.699,0-1.314-0.168-1.846-0.506
		c-0.533-0.336-0.94-0.82-1.224-1.449c-0.283-0.631-0.425-1.357-0.425-2.184c0-1.298,0.314-2.311,0.945-3.035
		c0.629-0.726,1.494-1.088,2.592-1.088c1.094,0,1.952,0.367,2.575,1.103C224.483,568.789,224.795,569.796,224.795,571.075z
		 M218.511,571.075c0,1.095,0.24,1.947,0.722,2.561c0.48,0.612,1.161,0.919,2.04,0.919s1.559-0.307,2.039-0.919
		c0.48-0.613,0.722-1.466,0.722-2.561c0-1.098-0.243-1.95-0.729-2.556c-0.486-0.605-1.169-0.908-2.048-0.908
		s-1.556,0.302-2.032,0.904C218.749,569.119,218.511,569.972,218.511,571.075z"/>
	<path d="M237.093,575.067h-6.702v-0.645l2.849-2.974c0.801-0.83,1.363-1.465,1.686-1.904s0.559-0.859,0.71-1.26
		s0.228-0.82,0.228-1.26c0-0.64-0.211-1.159-0.631-1.56s-0.964-0.602-1.633-0.602c-0.894,0-1.748,0.325-2.563,0.975l-0.396-0.506
		c0.894-0.751,1.885-1.127,2.974-1.127c0.933,0,1.666,0.248,2.201,0.746c0.534,0.498,0.802,1.185,0.802,2.059
		c0,0.708-0.18,1.393-0.538,2.055c-0.359,0.661-1.015,1.479-1.967,2.449l-2.747,2.82v0.029h5.729V575.067z"/>
	<path d="M245.853,569.684c0,1.88-0.287,3.271-0.861,4.174c-0.574,0.904-1.441,1.355-2.604,1.355c-1.118,0-1.968-0.465-2.549-1.396
		c-0.581-0.93-0.871-2.308-0.871-4.134c0-1.865,0.281-3.247,0.846-4.146c0.563-0.897,1.422-1.348,2.574-1.348
		c1.128,0,1.987,0.466,2.578,1.396C245.557,566.516,245.853,567.881,245.853,569.684z M239.759,569.684
		c0,1.66,0.217,2.887,0.651,3.68c0.435,0.794,1.094,1.19,1.978,1.19c0.923,0,1.596-0.41,2.018-1.23s0.634-2.033,0.634-3.64
		c0-1.582-0.212-2.783-0.634-3.604s-1.095-1.23-2.018-1.23s-1.592,0.41-2.007,1.23S239.759,568.102,239.759,569.684z"/>
	<path d="M254.414,569.684c0,1.88-0.287,3.271-0.86,4.174c-0.574,0.904-1.441,1.355-2.604,1.355c-1.119,0-1.969-0.465-2.549-1.396
		c-0.582-0.93-0.872-2.308-0.872-4.134c0-1.865,0.282-3.247,0.846-4.146c0.564-0.897,1.423-1.348,2.575-1.348
		c1.127,0,1.986,0.466,2.578,1.396C254.118,566.516,254.414,567.881,254.414,569.684z M248.32,569.684
		c0,1.66,0.218,2.887,0.651,3.68c0.436,0.794,1.094,1.19,1.979,1.19c0.922,0,1.595-0.41,2.018-1.23
		c0.422-0.82,0.633-2.033,0.633-3.64c0-1.582-0.211-2.783-0.633-3.604c-0.423-0.82-1.096-1.23-2.018-1.23
		c-0.924,0-1.592,0.41-2.008,1.23C248.528,566.901,248.32,568.102,248.32,569.684z"/>
	<path d="M266.528,575.067v-5.223c0-0.775-0.151-1.342-0.454-1.699c-0.303-0.355-0.767-0.534-1.392-0.534
		c-0.815,0-1.418,0.225-1.809,0.674s-0.586,1.155-0.586,2.116v4.666h-0.74v-5.441c0-1.343-0.615-2.015-1.846-2.015
		c-0.835,0-1.443,0.243-1.824,0.729c-0.381,0.486-0.57,1.264-0.57,2.333v4.395h-0.726v-7.961h0.601l0.154,1.091h0.043
		c0.221-0.396,0.533-0.702,0.938-0.919c0.406-0.218,0.853-0.326,1.341-0.326c1.255,0,2.061,0.472,2.417,1.414h0.029
		c0.259-0.455,0.606-0.804,1.044-1.048c0.437-0.244,0.934-0.366,1.49-0.366c0.869,0,1.521,0.232,1.956,0.695
		c0.434,0.465,0.651,1.201,0.651,2.213v5.207H266.528z"/>
	<path d="M273.187,566.952c1.113,0,1.951,0.351,2.516,1.051c0.563,0.701,0.846,1.725,0.846,3.072c0,1.324-0.297,2.344-0.89,3.063
		c-0.594,0.717-1.427,1.076-2.501,1.076c-0.566,0-1.077-0.117-1.531-0.352s-0.813-0.566-1.076-0.996h-0.066l-0.205,1.201h-0.454
		V563.67h0.726v2.863c0,0.431-0.01,0.826-0.029,1.188l-0.022,0.622h0.052c0.303-0.479,0.667-0.83,1.095-1.055
		C272.071,567.064,272.585,566.952,273.187,566.952z M273.171,567.611c-0.938,0-1.608,0.269-2.014,0.806s-0.607,1.424-0.607,2.658
		v0.125c0,1.201,0.211,2.063,0.633,2.586s1.08,0.783,1.975,0.783c0.869,0,1.523-0.304,1.963-0.912
		c0.439-0.607,0.658-1.473,0.658-2.596C275.778,568.76,274.909,567.611,273.171,567.611z"/>
</g>
<rect x="33.334" y="288.333" fill="none" width="256.667" height="25.333"/>
<g enable-background="new    ">
	<path d="M68.167,299.734h-0.718v-7.801c0-0.707,0.029-1.442,0.088-2.204c-0.073,0.073-0.149,0.145-0.227,0.212
		c-0.078,0.069-0.833,0.662-2.263,1.78l-0.417-0.521l2.908-2.175h0.63V299.734z"/>
	<path d="M79.46,294.351c0,1.88-0.287,3.271-0.86,4.174c-0.574,0.904-1.442,1.355-2.604,1.355c-1.118,0-1.968-0.465-2.549-1.396
		c-0.581-0.93-0.872-2.308-0.872-4.134c0-1.865,0.282-3.247,0.846-4.146c0.564-0.897,1.422-1.348,2.575-1.348
		c1.128,0,1.987,0.466,2.578,1.396C79.165,291.183,79.46,292.548,79.46,294.351z M73.367,294.351c0,1.66,0.217,2.887,0.652,3.68
		c0.435,0.794,1.094,1.19,1.978,1.19c0.923,0,1.595-0.41,2.018-1.23c0.422-0.82,0.633-2.033,0.633-3.64
		c0-1.582-0.211-2.783-0.633-3.604c-0.423-0.82-1.095-1.23-2.018-1.23s-1.592,0.41-2.007,1.23S73.367,292.769,73.367,294.351z"/>
	<path d="M88.704,299.88c-1.138,0-2.029-0.359-2.673-1.076c-0.645-0.719-0.967-1.719-0.967-3.004c0-1.318,0.334-2.345,1.003-3.079
		c0.669-0.735,1.584-1.103,2.747-1.103c0.688,0,1.348,0.12,1.978,0.359l-0.198,0.645c-0.688-0.229-1.287-0.345-1.794-0.345
		c-0.977,0-1.716,0.302-2.219,0.904c-0.503,0.604-0.754,1.472-0.754,2.604c0,1.074,0.251,1.915,0.754,2.522
		c0.503,0.608,1.206,0.912,2.109,0.912c0.723,0,1.394-0.129,2.014-0.388v0.674C90.195,299.755,89.529,299.88,88.704,299.88z"/>
	<path d="M99.236,295.742c0,1.3-0.315,2.313-0.945,3.044c-0.63,0.729-1.499,1.095-2.607,1.095c-0.698,0-1.313-0.168-1.846-0.506
		c-0.532-0.336-0.94-0.82-1.223-1.449c-0.283-0.631-0.425-1.357-0.425-2.184c0-1.298,0.315-2.311,0.945-3.035
		c0.63-0.726,1.494-1.088,2.593-1.088c1.094,0,1.952,0.367,2.575,1.103C98.924,293.456,99.236,294.463,99.236,295.742z
		 M92.952,295.742c0,1.095,0.24,1.947,0.722,2.561c0.48,0.612,1.161,0.919,2.04,0.919s1.559-0.307,2.04-0.919
		c0.481-0.613,0.722-1.466,0.722-2.561c0-1.098-0.243-1.95-0.729-2.556c-0.486-0.605-1.168-0.908-2.047-0.908
		s-1.556,0.302-2.033,0.904C93.19,293.786,92.952,294.639,92.952,295.742z"/>
	<path d="M106.992,299.734v-5.164c0-0.8-0.168-1.383-0.505-1.746c-0.337-0.364-0.859-0.546-1.567-0.546
		c-0.952,0-1.649,0.24-2.091,0.722c-0.442,0.48-0.663,1.261-0.663,2.34v4.395h-0.725v-7.961h0.615l0.139,1.091h0.044
		c0.518-0.83,1.438-1.245,2.761-1.245c1.807,0,2.71,0.97,2.71,2.908v5.207H106.992z"/>
	<path d="M112.39,299.236c0.459,0,0.859-0.039,1.201-0.117v0.586c-0.352,0.117-0.757,0.176-1.216,0.176
		c-0.703,0-1.222-0.188-1.557-0.564c-0.334-0.375-0.501-0.967-0.501-1.771v-5.143h-1.179v-0.424l1.179-0.33l0.366-1.802h0.374v1.927
		h2.336v0.629h-2.336v5.039c0,0.611,0.107,1.063,0.322,1.355S111.931,299.236,112.39,299.236z"/>
	<path d="M120.146,299.734l-0.183-1.26h-0.059c-0.4,0.513-0.812,0.875-1.234,1.088c-0.422,0.212-0.921,0.318-1.498,0.318
		c-0.781,0-1.389-0.2-1.824-0.601s-0.652-0.954-0.652-1.663c0-0.775,0.323-1.379,0.97-1.809s1.583-0.656,2.809-0.682l1.516-0.043
		v-0.527c0-0.757-0.154-1.328-0.461-1.715c-0.308-0.385-0.803-0.578-1.487-0.578c-0.737,0-1.501,0.205-2.292,0.615l-0.271-0.63
		c0.874-0.41,1.738-0.615,2.593-0.615c0.874,0,1.527,0.228,1.959,0.681c0.433,0.455,0.648,1.163,0.648,2.125v5.295H120.146z
		 M117.217,299.221c0.85,0,1.52-0.243,2.01-0.729c0.491-0.486,0.736-1.161,0.736-2.025v-0.784l-1.392,0.059
		c-1.118,0.055-1.915,0.229-2.392,0.524c-0.476,0.295-0.714,0.756-0.714,1.38c0,0.498,0.152,0.886,0.458,1.161
		C116.229,299.083,116.66,299.221,117.217,299.221z"/>
	<path d="M128.196,297.662c0,0.713-0.271,1.261-0.813,1.644c-0.542,0.384-1.311,0.575-2.307,0.575c-1.064,0-1.909-0.163-2.534-0.49
		v-0.784c0.801,0.4,1.646,0.601,2.534,0.601c0.786,0,1.383-0.131,1.791-0.392c0.407-0.262,0.611-0.609,0.611-1.044
		c0-0.4-0.163-0.737-0.487-1.011s-0.858-0.542-1.6-0.806c-0.796-0.288-1.355-0.536-1.677-0.743
		c-0.322-0.208-0.565-0.442-0.729-0.703c-0.164-0.262-0.246-0.58-0.246-0.956c0-0.596,0.25-1.066,0.75-1.414
		c0.5-0.346,1.2-0.52,2.099-0.52c0.859,0,1.675,0.161,2.446,0.483l-0.271,0.659c-0.781-0.322-1.506-0.483-2.175-0.483
		c-0.649,0-1.165,0.107-1.545,0.322s-0.571,0.513-0.571,0.894c0,0.415,0.147,0.747,0.443,0.996s0.873,0.527,1.732,0.835
		c0.718,0.259,1.24,0.492,1.567,0.699c0.327,0.208,0.572,0.443,0.736,0.707C128.114,296.995,128.196,297.305,128.196,297.662z"/>
	<path d="M137.058,291.619c0.576,0,1.074,0.105,1.494,0.314c0.42,0.211,0.796,0.569,1.128,1.077h0.044
		c-0.029-0.615-0.044-1.218-0.044-1.81v-2.863h0.718v11.396h-0.476l-0.183-1.216h-0.059c-0.605,0.908-1.475,1.362-2.607,1.362
		c-1.099,0-1.938-0.342-2.52-1.025s-0.872-1.68-0.872-2.988c0-1.377,0.288-2.429,0.864-3.156S135.959,291.619,137.058,291.619z
		 M137.058,292.278c-0.869,0-1.522,0.306-1.959,0.915c-0.438,0.611-0.656,1.497-0.656,2.659c0,2.256,0.876,3.384,2.629,3.384
		c0.898,0,1.558-0.261,1.978-0.783s0.63-1.385,0.63-2.586v-0.125c0-1.23-0.207-2.115-0.619-2.654
		C138.648,292.547,137.981,292.278,137.058,292.278z"/>
	<path d="M146.287,299.88c-1.157,0-2.06-0.356-2.706-1.069c-0.647-0.713-0.971-1.711-0.971-2.995c0-1.27,0.313-2.287,0.938-3.051
		c0.625-0.765,1.467-1.146,2.527-1.146c0.938,0,1.677,0.327,2.219,0.981s0.813,1.543,0.813,2.666v0.586h-5.735
		c0.01,1.094,0.265,1.929,0.766,2.505c0.5,0.576,1.217,0.864,2.149,0.864c0.454,0,0.854-0.031,1.197-0.095
		c0.345-0.063,0.78-0.2,1.308-0.41v0.658c-0.449,0.196-0.864,0.329-1.245,0.399C147.166,299.845,146.746,299.88,146.287,299.88z
		 M146.074,292.263c-0.767,0-1.382,0.253-1.846,0.758c-0.464,0.506-0.735,1.234-0.813,2.187h4.922c0-0.923-0.2-1.645-0.601-2.164
		C147.336,292.523,146.782,292.263,146.074,292.263z"/>
	<path d="M158.416,299.88c-1.157,0-2.06-0.356-2.706-1.069c-0.647-0.713-0.971-1.711-0.971-2.995c0-1.27,0.313-2.287,0.938-3.051
		c0.625-0.765,1.467-1.146,2.527-1.146c0.938,0,1.677,0.327,2.219,0.981s0.813,1.543,0.813,2.666v0.586H155.5
		c0.01,1.094,0.265,1.929,0.766,2.505c0.5,0.576,1.217,0.864,2.149,0.864c0.454,0,0.854-0.031,1.197-0.095
		c0.345-0.063,0.78-0.2,1.308-0.41v0.658c-0.449,0.196-0.864,0.329-1.245,0.399C159.294,299.845,158.875,299.88,158.416,299.88z
		 M158.203,292.263c-0.767,0-1.382,0.253-1.846,0.758c-0.464,0.506-0.735,1.234-0.813,2.187h4.922c0-0.923-0.2-1.645-0.601-2.164
		C159.465,292.523,158.911,292.263,158.203,292.263z"/>
	<path d="M162.773,295.984v-0.601h3.479v0.601H162.773z"/>
	<path d="M178.206,299.734v-5.223c0-0.775-0.152-1.342-0.455-1.699c-0.303-0.355-0.766-0.534-1.391-0.534
		c-0.816,0-1.419,0.225-1.81,0.674s-0.586,1.155-0.586,2.116v4.666h-0.739v-5.441c0-1.343-0.615-2.015-1.846-2.015
		c-0.836,0-1.443,0.243-1.824,0.729c-0.381,0.486-0.571,1.264-0.571,2.333v4.395h-0.726v-7.961h0.602l0.153,1.091h0.044
		c0.22-0.396,0.532-0.702,0.938-0.919c0.405-0.218,0.852-0.326,1.34-0.326c1.256,0,2.061,0.472,2.418,1.414h0.029
		c0.258-0.455,0.605-0.804,1.043-1.048s0.934-0.366,1.49-0.366c0.869,0,1.521,0.232,1.956,0.695
		c0.435,0.465,0.651,1.201,0.651,2.213v5.207H178.206z"/>
	<path d="M186.335,299.734l-0.183-1.26h-0.059c-0.4,0.513-0.812,0.875-1.233,1.088c-0.424,0.212-0.922,0.318-1.498,0.318
		c-0.781,0-1.39-0.2-1.824-0.601s-0.652-0.954-0.652-1.663c0-0.775,0.324-1.379,0.971-1.809s1.584-0.656,2.809-0.682l1.517-0.043
		v-0.527c0-0.757-0.153-1.328-0.462-1.715c-0.307-0.385-0.803-0.578-1.486-0.578c-0.737,0-1.502,0.205-2.293,0.615l-0.271-0.63
		c0.874-0.41,1.738-0.615,2.593-0.615c0.874,0,1.527,0.228,1.959,0.681c0.432,0.455,0.648,1.163,0.648,2.125v5.295H186.335z
		 M183.405,299.221c0.85,0,1.52-0.243,2.012-0.729c0.49-0.486,0.735-1.161,0.735-2.025v-0.784l-1.392,0.059
		c-1.118,0.055-1.916,0.229-2.391,0.524c-0.477,0.295-0.715,0.756-0.715,1.38c0,0.498,0.152,0.886,0.457,1.161
		C182.418,299.083,182.849,299.221,183.405,299.221z"/>
	<path d="M189.346,289.56c0-0.469,0.153-0.703,0.462-0.703c0.15,0,0.27,0.062,0.355,0.184c0.084,0.122,0.127,0.296,0.127,0.52
		c0,0.221-0.043,0.394-0.127,0.521c-0.086,0.127-0.205,0.19-0.355,0.19C189.499,290.271,189.346,290.035,189.346,289.56z
		 M190.173,299.734h-0.725v-7.961h0.725V299.734z"/>
	<path d="M193.564,299.734h-0.726v-11.396h0.726V299.734z"/>
	<path d="M210.073,299.734v-5.223c0-0.775-0.151-1.342-0.454-1.699c-0.303-0.355-0.767-0.534-1.392-0.534
		c-0.815,0-1.418,0.225-1.809,0.674s-0.586,1.155-0.586,2.116v4.666h-0.74v-5.441c0-1.343-0.615-2.015-1.846-2.015
		c-0.835,0-1.443,0.243-1.824,0.729c-0.381,0.486-0.57,1.264-0.57,2.333v4.395h-0.726v-7.961h0.601l0.154,1.091h0.043
		c0.221-0.396,0.533-0.702,0.938-0.919c0.406-0.218,0.853-0.326,1.341-0.326c1.255,0,2.061,0.472,2.417,1.414h0.029
		c0.259-0.455,0.606-0.804,1.043-1.048c0.438-0.244,0.935-0.366,1.491-0.366c0.869,0,1.521,0.232,1.956,0.695
		c0.434,0.465,0.651,1.201,0.651,2.213v5.207H210.073z"/>
	<path d="M218.203,299.734l-0.183-1.26h-0.059c-0.4,0.513-0.813,0.875-1.234,1.088c-0.423,0.212-0.922,0.318-1.498,0.318
		c-0.781,0-1.389-0.2-1.824-0.601c-0.434-0.4-0.651-0.954-0.651-1.663c0-0.775,0.323-1.379,0.97-1.809
		c0.647-0.43,1.584-0.656,2.81-0.682l1.517-0.043v-0.527c0-0.757-0.154-1.328-0.462-1.715c-0.308-0.385-0.804-0.578-1.487-0.578
		c-0.736,0-1.501,0.205-2.292,0.615l-0.271-0.63c0.873-0.41,1.738-0.615,2.592-0.615c0.875,0,1.527,0.228,1.959,0.681
		c0.434,0.455,0.648,1.163,0.648,2.125v5.295H218.203z M215.273,299.221c0.85,0,1.521-0.243,2.011-0.729
		c0.49-0.486,0.736-1.161,0.736-2.025v-0.784l-1.393,0.059c-1.117,0.055-1.914,0.229-2.391,0.524
		c-0.477,0.295-0.715,0.756-0.715,1.38c0,0.498,0.152,0.886,0.459,1.161C214.286,299.083,214.717,299.221,215.273,299.221z"/>
	<path d="M223.271,295.64l-2.776-3.867h0.836l2.373,3.354l2.351-3.354h0.798l-2.731,3.867l2.93,4.094h-0.843l-2.504-3.553
		l-2.52,3.553h-0.799L223.271,295.64z"/>
	<path d="M238.88,299.734h-6.702v-0.645l2.849-2.974c0.801-0.83,1.363-1.465,1.686-1.904s0.559-0.859,0.71-1.26
		s0.228-0.82,0.228-1.26c0-0.64-0.211-1.159-0.631-1.56s-0.964-0.602-1.633-0.602c-0.894,0-1.748,0.325-2.563,0.975L232.427,290
		c0.894-0.751,1.885-1.127,2.974-1.127c0.933,0,1.667,0.248,2.2,0.746c0.535,0.498,0.803,1.185,0.803,2.059
		c0,0.708-0.18,1.393-0.539,2.055c-0.357,0.661-1.014,1.479-1.966,2.449l-2.747,2.82v0.029h5.729V299.734z"/>
	<path d="M241.429,289.026h2.937c1.323,0,2.295,0.225,2.915,0.674s0.93,1.128,0.93,2.036c0,0.62-0.189,1.137-0.566,1.549
		c-0.379,0.413-0.932,0.678-1.66,0.795v0.044c0.855,0.127,1.484,0.396,1.887,0.81c0.402,0.412,0.604,0.987,0.604,1.725
		c0,0.986-0.326,1.746-0.98,2.277c-0.654,0.533-1.582,0.799-2.783,0.799h-3.281V289.026z M242.175,293.794h2.359
		c1.006,0,1.736-0.168,2.193-0.502c0.456-0.335,0.685-0.858,0.685-1.571s-0.258-1.23-0.772-1.553
		c-0.516-0.322-1.283-0.483-2.304-0.483h-2.161V293.794z M242.175,294.453v4.622h2.52c1.982,0,2.975-0.806,2.975-2.417
		c0-1.47-1.045-2.205-3.135-2.205H242.175z"/>
	<path d="M255.044,294.335h3.947v4.886c-1.035,0.439-2.199,0.659-3.493,0.659c-1.689,0-2.985-0.478-3.886-1.432
		c-0.9-0.955-1.352-2.306-1.352-4.055c0-1.088,0.225-2.054,0.67-2.896c0.447-0.842,1.087-1.492,1.92-1.951
		c0.832-0.459,1.788-0.689,2.867-0.689c1.167,0,2.215,0.216,3.143,0.645l-0.301,0.674c-0.928-0.429-1.89-0.645-2.886-0.645
		c-1.411,0-2.53,0.437-3.358,1.308c-0.828,0.872-1.241,2.048-1.241,3.526c0,1.611,0.394,2.824,1.179,3.637
		c0.787,0.813,1.941,1.22,3.465,1.22c0.986,0,1.824-0.14,2.512-0.417v-3.766h-3.186V294.335z"/>
</g>
<rect x="85" y="626.333" fill="none" width="159.333" height="52.668"/>
<path fill="#51A351" d="M240.311,643.624c0,6.627-5.373,12-12,12H102.313c-6.628,0-12-5.373-12-12v-21c0-6.627,5.372-12,12-12
	h125.998c6.627,0,12,5.373,12,12V643.624z"/>
<g enable-background="new    ">
	<path fill="#FFFFFF" d="M133.815,638.734l-0.776-2.549h-3.904l-0.776,2.549h-2.446l3.779-10.752h2.776l3.794,10.752H133.815z
		 M132.497,634.281c-0.718-2.31-1.122-3.615-1.212-3.918s-0.155-0.543-0.194-0.719c-0.161,0.626-0.623,2.171-1.384,4.637H132.497z"
		/>
	<path fill="#FFFFFF" d="M140.026,638.88c-0.962,0-1.717-0.373-2.267-1.121c-0.549-0.746-0.824-1.781-0.824-3.105
		c0-1.342,0.279-2.389,0.838-3.138c0.559-0.75,1.33-1.124,2.311-1.124c1.03,0,1.816,0.4,2.358,1.201h0.073
		c-0.112-0.61-0.168-1.155-0.168-1.634v-2.622h2.241v11.396h-1.714l-0.432-1.063h-0.095
		C141.84,638.478,141.066,638.88,140.026,638.88z M140.81,637.101c0.571,0,0.99-0.166,1.256-0.498s0.412-0.896,0.436-1.692v-0.241
		c0-0.879-0.135-1.51-0.407-1.891c-0.271-0.381-0.711-0.57-1.322-0.57c-0.498,0-0.885,0.211-1.161,0.633
		c-0.276,0.423-0.414,1.037-0.414,1.842c0,0.807,0.139,1.41,0.417,1.813C139.894,636.899,140.292,637.101,140.81,637.101z"/>
	<path fill="#FFFFFF" d="M149.518,638.88c-0.967,0-1.724-0.372-2.271-1.117c-0.547-0.744-0.82-1.78-0.82-3.109
		c0-1.337,0.279-2.382,0.838-3.135c0.559-0.751,1.325-1.127,2.296-1.127c0.518,0,0.969,0.098,1.355,0.293s0.725,0.498,1.018,0.908
		h0.059l0.198-1.048h1.89v11.792h-2.241v-3.436c0-0.297,0.032-0.707,0.095-1.23h-0.095c-0.239,0.396-0.557,0.696-0.952,0.901
		S150.036,638.88,149.518,638.88z M150.316,637.13c0.566,0,0.981-0.163,1.245-0.487c0.264-0.325,0.408-0.893,0.432-1.703v-0.271
		c0-0.879-0.135-1.51-0.407-1.891c-0.271-0.381-0.707-0.57-1.307-0.57c-1.05,0-1.575,0.825-1.575,2.475
		c0,0.82,0.13,1.434,0.392,1.839S149.765,637.13,150.316,637.13z"/>
	<path fill="#FFFFFF" d="M162.218,638.734l-0.3-1.047h-0.117c-0.239,0.381-0.579,0.675-1.018,0.882
		c-0.439,0.208-0.94,0.312-1.501,0.312c-0.962,0-1.687-0.258-2.175-0.772c-0.488-0.516-0.732-1.257-0.732-2.224v-5.339h2.234v4.782
		c0,0.592,0.105,1.034,0.315,1.33c0.21,0.295,0.544,0.443,1.003,0.443c0.625,0,1.077-0.209,1.355-0.627
		c0.278-0.417,0.417-1.109,0.417-2.076v-3.853h2.234v8.188H162.218z"/>
	<path fill="#FFFFFF" d="M166.181,628.429c0-0.728,0.405-1.092,1.216-1.092s1.216,0.364,1.216,1.092
		c0,0.347-0.102,0.616-0.304,0.809c-0.203,0.193-0.507,0.289-0.912,0.289C166.586,629.527,166.181,629.162,166.181,628.429z
		 M168.51,638.734h-2.233v-8.188h2.233V638.734z"/>
	<path fill="#FFFFFF" d="M175.424,630.392c0.303,0,0.554,0.021,0.755,0.065l-0.169,2.095c-0.181-0.049-0.4-0.073-0.659-0.073
		c-0.713,0-1.269,0.183-1.666,0.55c-0.398,0.365-0.598,0.879-0.598,1.537v4.168h-2.233v-8.188h1.692l0.329,1.377h0.11
		c0.254-0.459,0.597-0.829,1.028-1.109C174.446,630.532,174.916,630.392,175.424,630.392z"/>
	<path fill="#FFFFFF" d="M182.865,638.734l-0.433-1.113h-0.059c-0.375,0.474-0.763,0.802-1.16,0.985
		c-0.398,0.183-0.917,0.274-1.557,0.274c-0.786,0-1.405-0.225-1.856-0.674c-0.452-0.449-0.678-1.089-0.678-1.919
		c0-0.869,0.304-1.51,0.912-1.923c0.607-0.412,1.524-0.641,2.75-0.685l1.421-0.044v-0.359c0-0.829-0.425-1.244-1.274-1.244
		c-0.654,0-1.423,0.197-2.308,0.593l-0.739-1.509c0.942-0.493,1.987-0.74,3.135-0.74c1.099,0,1.94,0.24,2.526,0.719
		s0.879,1.206,0.879,2.182v5.457H182.865z M182.206,634.94l-0.864,0.029c-0.649,0.02-1.133,0.137-1.45,0.352
		s-0.477,0.542-0.477,0.981c0,0.63,0.361,0.945,1.084,0.945c0.518,0,0.932-0.149,1.242-0.447c0.31-0.298,0.465-0.693,0.465-1.187
		V634.94z"/>
	<path fill="#FFFFFF" d="M189.962,642.337c-0.57,0-1.062-0.062-1.472-0.184v-1.758c0.342,0.093,0.69,0.14,1.048,0.14
		c0.375,0,0.65-0.105,0.823-0.315s0.261-0.52,0.261-0.93v-8.745h2.233v9.075c0,0.868-0.251,1.539-0.755,2.01
		C191.599,642.102,190.886,642.337,189.962,642.337z M190.526,628.429c0-0.728,0.405-1.092,1.216-1.092s1.216,0.364,1.216,1.092
		c0,0.347-0.102,0.616-0.304,0.809c-0.203,0.193-0.507,0.289-0.912,0.289C190.932,629.527,190.526,629.162,190.526,628.429z"/>
	<path fill="#FFFFFF" d="M200.399,638.734l-0.432-1.113h-0.059c-0.377,0.474-0.764,0.802-1.161,0.985
		c-0.398,0.183-0.917,0.274-1.557,0.274c-0.786,0-1.405-0.225-1.856-0.674c-0.452-0.449-0.678-1.089-0.678-1.919
		c0-0.869,0.304-1.51,0.912-1.923c0.607-0.412,1.524-0.641,2.75-0.685l1.421-0.044v-0.359c0-0.829-0.425-1.244-1.274-1.244
		c-0.654,0-1.424,0.197-2.307,0.593l-0.74-1.509c0.942-0.493,1.987-0.74,3.135-0.74c1.099,0,1.941,0.24,2.527,0.719
		s0.879,1.206,0.879,2.182v5.457H200.399z M199.74,634.94l-0.864,0.029c-0.649,0.02-1.133,0.137-1.45,0.352
		s-0.476,0.542-0.476,0.981c0,0.63,0.361,0.945,1.084,0.945c0.518,0,0.931-0.149,1.241-0.447c0.31-0.298,0.465-0.693,0.465-1.187
		V634.94z M197.257,629.644v-0.197c0.84-0.977,1.414-1.711,1.722-2.205h2.505v0.154c-0.254,0.254-0.688,0.631-1.3,1.132
		c-0.613,0.5-1.093,0.873-1.439,1.116H197.257z"/>
</g>
</svg>
