<?xml version="1.0" encoding="utf-8"?>
<!-- Generator: Adobe Illustrator 15.1.0, SVG Export Plug-In . SVG Version: 6.00 Build 0)  -->
<!DOCTYPE svg PUBLIC "-//W3C//DTD SVG 1.1//EN" "http://www.w3.org/Graphics/SVG/1.1/DTD/svg11.dtd">
<svg version="1.1" id="Layer_3" xmlns="http://www.w3.org/2000/svg" xmlns:xlink="http://www.w3.org/1999/xlink" x="0px" y="0px"
	 width="213px" height="213px" viewBox="-47.5 -51.501 213 213" enable-background="new -47.5 -51.501 213 213"
	 xml:space="preserve">
<g>
	<g>
		<path fill="#2B3D4F" d="M81.257-8.855c8.429,0,15.261,6.832,15.261,15.259c0,8.427-6.832,15.258-15.261,15.258
			C72.832,21.662,66,14.831,66,6.404C66-2.024,72.832-8.855,81.257-8.855z"/>
	</g>
	<g>
		<path fill="#2B3D4F" d="M116.329,30.689c-0.545-3.224-3.604-5.396-6.829-4.852c-14.098,2.38-29.22,1.752-31.992-1.241
			c-0.909-1.37-2.018-2.588-3.206-3.558c0,0-1.245-1.125-2.806-1.824c-1.492-0.668-3.302-1.107-3.302-1.107l-0.044-0.013
			c-3.15-0.65-6.872-0.365-9.916,1.229c-0.392,0.067-0.784,0.176-1.169,0.327c-5.58,2.203-16.029,1.458-23.731-0.153
			c-0.062-2.729-0.104-5.45-0.126-8.076c-0.033-4.142-3.403-7.478-7.539-7.478c-0.021,0-0.042,0-0.063,0
			c-4.164,0.034-7.512,3.437-7.478,7.6c0.008,0.979,0.019,1.916,0.029,2.854c-0.707,0.196-1.391,0.522-2.012,0.995
			c-2.6,1.988-3.095,5.706-1.108,8.305c0.777,1.016,1.924,1.971,3.36,2.853c0.872,29.289,3.466,31.588,5.607,33.471
			c3.379,2.974,15.449,8.429,22.343,11.417c0.743,0.321,1.509,0.513,2.276,0.586c0.026,0.011,0.054,0.018,0.08,0.024l-0.028,48.291
			c-0.003,4.162,3.371,7.54,7.535,7.543c0.001,0,0.002,0,0.003,0c4.163,0,7.538-3.372,7.541-7.536l0.031-52.677
			c0.217-0.35,0.422-0.714,0.606-1.103l13.77-28.983c4.408,1.2,9.467,1.623,14.37,1.623c7.834,0,15.26-1.061,18.949-1.689
			C114.706,36.972,116.876,33.915,116.329,30.689z M33.734,31.661c4.307,0.764,8.874,1.184,13.218,1.184
			c0.837,0,1.663-0.021,2.482-0.053l-9.157,19.275c-2.099-1.022-3.891-1.939-5.094-2.623C34.587,46.268,34.085,39.523,33.734,31.661
			z"/>
	</g>
</g>
<g>
	<circle fill="none" stroke="#2B3D4F" stroke-width="4" stroke-miterlimit="10" cx="59" cy="54.999" r="104.5"/>
</g>
</svg>
