<?xml version="1.0" encoding="utf-8"?>
<!-- Generator: Adobe Illustrator 15.1.0, SVG Export Plug-In . SVG Version: 6.00 Build 0)  -->
<!DOCTYPE svg PUBLIC "-//W3C//DTD SVG 1.1//EN" "http://www.w3.org/Graphics/SVG/1.1/DTD/svg11.dtd">
<svg version="1.1" id="Layer_1" xmlns="http://www.w3.org/2000/svg" xmlns:xlink="http://www.w3.org/1999/xlink" x="0px" y="0px"
	 width="39.789px" height="74.196px" viewBox="6.905 -56.467 39.789 74.196" enable-background="new 6.905 -56.467 39.789 74.196"
	 xml:space="preserve">
<path fill="#2C3E50" d="M26.798-52.757c0,0-6.629,6.264-9.847,15.935c-1.073,2.864-1.79,6.444-1.79,10.026
	c0,5.791,0.831,15.616,1.6,23.464L8.894,4.533l1.79,8.954L18.4,9.055c0.233,0.197,0.599,0.448,1.18,0.691l1.131,3.019
	c0,0,0.358,1.075,5.909,1.254c5.73,0.004,6.267-1.254,6.267-1.254l1.215-3.238c0.437-0.228,0.72-0.443,0.879-0.602l7.933,4.555
	l1.792-8.95l-8.108-8.108c0.83-7.845,1.747-17.575,1.838-23.223c0-3.581-0.715-7.162-1.611-10.204
	C33.42-46.49,26.798-52.757,26.798-52.757z M30.379-24.11c-1.971,1.97-5.194,1.967-7.16,0c-1.974-1.974-1.971-5.191,0-7.163
	c1.966-1.968,5.186-1.973,7.16,0C32.348-29.303,32.348-26.081,30.379-24.11z"/>
</svg>
