<?xml version="1.0" encoding="utf-8"?>
<!-- Generator: Adobe Illustrator 15.1.0, SVG Export Plug-In . SVG Version: 6.00 Build 0)  -->
<!DOCTYPE svg PUBLIC "-//W3C//DTD SVG 1.1//EN" "http://www.w3.org/Graphics/SVG/1.1/DTD/svg11.dtd">
<svg version="1.1" id="Capa_1" xmlns="http://www.w3.org/2000/svg" xmlns:xlink="http://www.w3.org/1999/xlink" x="0px" y="0px"
	 width="500px" height="400px" viewBox="0 0 500 400" enable-background="new 0 0 500 400" xml:space="preserve">
<g>
	<path fill="#4B7330" d="M434.268,242.001h6v-6v-70v-6h-6h-47.634c-2.802-9.588-6.62-18.862-11.394-27.672l33.634-33.634
		l4.242-4.242l-4.242-4.242l-49.498-49.498l-4.242-4.244l-4.241,4.244l-33.759,33.758c-8.354-4.476-17.112-8.104-26.134-10.824
		V16.733v-6h-6h-70h-6v6v46.916c-8.568,2.584-16.888,5.978-24.832,10.124l-33.06-33.06l-4.242-4.244l-4.242,4.244L93.126,90.209
		l-4.242,4.242l4.242,4.242l32.342,32.342c-4.782,8.598-8.644,17.634-11.524,26.964H67.732h-6v6v70v6h6h45.634
		c2.938,10.052,6.996,19.76,12.106,28.96l-32.346,32.346l-4.242,4.242l4.242,4.242l49.498,49.498l4.242,4.244l4.242-4.244
		l33.058-33.058c8.536,4.466,17.53,8.05,26.834,10.691v46.346v6h6h70h6v-6v-47.531c8.318-2.637,16.406-6.055,24.139-10.202
		l33.754,33.752l4.241,4.244l4.242-4.244l49.498-49.498l4.242-4.242l-4.242-4.242l-33.634-33.634
		c4.453-8.214,8.076-16.818,10.813-25.672h48.215V242.001z M335,200.001c0,46.87-38.13,85-85,85s-85-38.13-85-85s38.13-85,85-85
		S335,153.131,335,200.001z"/>
</g>
</svg>
