<?xml version="1.0" encoding="utf-8"?>
<!-- Generator: Adobe Illustrator 15.1.0, SVG Export Plug-In . SVG Version: 6.00 Build 0)  -->
<!DOCTYPE svg PUBLIC "-//W3C//DTD SVG 1.1//EN" "http://www.w3.org/Graphics/SVG/1.1/DTD/svg11.dtd">
<svg version="1.1" id="Capa_1" xmlns="http://www.w3.org/2000/svg" xmlns:xlink="http://www.w3.org/1999/xlink" x="0px" y="0px"
	 width="500px" height="400px" viewBox="0 0 500 400" enable-background="new 0 0 500 400" xml:space="preserve">
<circle fill="none" stroke="#2C3E50" stroke-width="4" stroke-miterlimit="10" cx="250" cy="200" r="194.5"/>
<path fill="#2C3E50" d="M248.859,205.88c14.583,0,27.782-5.919,37.341-15.47c9.54-9.547,15.458-22.747,15.458-37.331
	c0-14.583-5.918-27.783-15.458-37.333c-9.56-9.554-22.759-15.466-37.341-15.466c-14.583,0-27.783,5.912-37.344,15.466
	c-9.54,9.55-15.458,22.75-15.458,37.333s5.918,27.784,15.458,37.331C221.076,199.961,234.276,205.88,248.859,205.88"/>
<path fill="#2C3E50" d="M333.338,216.439c7.283,0,13.883-2.949,18.668-7.715c4.784-4.781,7.735-11.383,7.735-18.686
	c0-7.289-2.951-13.888-7.735-18.671c-4.785-4.788-11.385-7.732-18.668-7.732c-7.301,0-13.898,2.944-18.684,7.732
	c-4.764,4.783-7.715,11.383-7.715,18.671c0,7.303,2.951,13.902,7.715,18.686C319.438,213.51,326.037,216.439,333.338,216.439"/>
<path fill="#2C3E50" d="M333.338,222.667c-14.055,0-24.626,4.29-30.803,10.229c-11.776-9.691-30.393-16.457-53.676-16.457
	c-23.931,0-42.189,6.846-53.769,16.521c-6.298-5.976-16.982-10.294-30.712-10.294c-23.104,0-36.959,11.508-36.959,23.039
	c0,5.755,13.854,11.539,36.959,11.539c6.378,0,12.101-0.545,17.139-1.415c-0.107,0.972-0.421,1.909-0.421,2.86
	c0,10.559,25.404,21.115,67.763,21.115c39.724,0,67.763-10.559,67.763-21.115c0-0.899-0.112-1.797-0.218-2.696
	c4.888,0.768,10.518,1.25,16.933,1.25c21.657,0,36.961-5.785,36.961-11.538C370.3,234.176,355.801,222.667,333.338,222.667"/>
<path fill="#2C3E50" d="M164.378,216.439c7.287,0,13.887-2.949,18.671-7.733c4.785-4.784,7.729-11.387,7.729-18.666
	c0-7.275-2.944-13.878-7.729-18.671c-4.784-4.77-11.385-7.732-18.671-7.732c-7.295,0-13.895,2.961-18.681,7.732
	c-4.774,4.793-7.718,11.396-7.718,18.671c0,7.279,2.944,13.881,7.718,18.666C150.484,213.49,157.083,216.439,164.378,216.439"/>
</svg>
