<?xml version="1.0" encoding="utf-8"?>
<!-- Generator: Adobe Illustrator 15.1.0, SVG Export Plug-In . SVG Version: 6.00 Build 0)  -->
<!DOCTYPE svg PUBLIC "-//W3C//DTD SVG 1.1//EN" "http://www.w3.org/Graphics/SVG/1.1/DTD/svg11.dtd">
<svg version="1.1" id="Layer_1" xmlns="http://www.w3.org/2000/svg" xmlns:xlink="http://www.w3.org/1999/xlink" x="0px" y="0px"
	 width="45.992px" height="46.014px" viewBox="0 0 45.992 46.014" enable-background="new 0 0 45.992 46.014" xml:space="preserve">
<ellipse fill="none" stroke="#2C3E50" stroke-width="2" stroke-miterlimit="10" cx="22.996" cy="23.008" rx="19.796" ry="19.806"/>
<path fill="#2C3E50" d="M33.977,31.76c-0.719-0.301-1.31-0.773-1.268-1.681c0.042-0.906-0.633-1.509-0.633-1.509
	s0.591-1.981,0.041-3.62c-0.549-1.639-2.365-4.266-3.76-6.248c-1.391-1.983-0.209-4.27-1.477-7.198
	c-1.268-2.93-4.562-2.757-6.335-1.507c-1.775,1.248-1.227,4.35-1.144,5.817c0.086,1.463,0.039,2.507-0.125,2.888
	c-0.166,0.378-1.308,1.768-2.07,2.93c-0.76,1.164-1.309,3.578-1.86,4.57c-0.547,0.99-0.167,1.895-0.167,1.895
	s-0.38,0.128-0.676,0.777c-0.295,0.645-0.885,0.946-1.942,1.16c-1.056,0.217-1.056,0.907-0.802,1.685
	c0.252,0.775,0.001,1.207-0.295,2.196c-0.295,0.989,1.182,1.293,2.618,1.463c1.437,0.176,3.042,1.123,4.395,1.294
	c1.35,0.174,1.772-0.946,1.772-0.946s1.521-0.348,3.125-0.389c1.605-0.044,3.125,0.346,3.125,0.346s0.296,0.688,0.844,0.989
	c0.551,0.302,1.732,0.346,2.493-0.472c0.761-0.821,2.789-1.854,3.929-2.501C34.904,33.05,34.695,32.061,33.977,31.76 M24.092,12.754
	c0.725,0,1.309,0.732,1.309,1.637c0,0.643-0.291,1.194-0.721,1.464c-0.109-0.049-0.226-0.099-0.347-0.151
	c0.257-0.129,0.44-0.466,0.44-0.857c0-0.508-0.31-0.921-0.69-0.921c-0.376,0-0.686,0.414-0.686,0.921
	c0,0.189,0.044,0.37,0.119,0.519c-0.226-0.092-0.433-0.178-0.596-0.238c-0.088-0.222-0.138-0.469-0.138-0.734
	C22.784,13.488,23.369,12.754,24.092,12.754 M22.297,15.577c0.361,0.062,1.34,0.499,1.702,0.629
	c0.362,0.128,0.765,0.368,0.724,0.605c-0.043,0.238-0.234,0.238-0.724,0.544c-0.491,0.303-1.553,0.977-1.893,1.02
	c-0.343,0.044-0.533-0.152-0.895-0.39c-0.363-0.238-1.043-0.806-0.872-1.107c0,0,0.531-0.416,0.764-0.631
	C21.337,16.028,21.934,15.509,22.297,15.577 M20.734,13.014c0.572,0,1.035,0.693,1.035,1.55c0,0.158-0.015,0.304-0.044,0.445
	c-0.138,0.048-0.281,0.126-0.418,0.245c-0.069,0.059-0.13,0.113-0.19,0.167c0.092-0.172,0.127-0.42,0.086-0.678
	c-0.077-0.469-0.381-0.81-0.685-0.762c-0.302,0.053-0.484,0.474-0.407,0.943c0.078,0.47,0.382,0.812,0.685,0.761
	c0.015-0.004,0.033-0.008,0.049-0.015c-0.146,0.145-0.283,0.27-0.42,0.375c-0.418-0.199-0.725-0.788-0.725-1.482
	C19.7,13.708,20.164,13.014,20.734,13.014 M19.62,34.792c-0.135,0.62-0.843,1.065-0.843,1.065c-0.643,0.206-2.429-0.585-3.24-0.932
	c-0.808-0.343-2.868-0.448-3.139-0.754c-0.269-0.313,0.135-1,0.239-1.652c0.1-0.657-0.202-1.068-0.103-1.519
	c0.103-0.445,1.418-0.445,1.923-0.755c0.507-0.312,0.608-1.205,1.014-1.446c0.403-0.242,1.146,0.619,1.45,1.103
	c0.302,0.479,1.45,2.548,1.924,3.063C19.315,33.48,19.753,34.172,19.62,34.792 M26.966,31.588c0,0-1.31,1.852-3.338,2.154
	c-2.027,0.302-3.042,0.085-3.042,0.085l-1.139-1.333c0,0,0.884-0.134,0.76-1.037c-0.129-0.904-2.703-2.156-3.169-3.275
	c-0.464-1.119-0.083-3.018,0.509-3.965c0.59-0.948,0.968-3.016,1.56-3.708c0.593-0.688,1.056-2.153,0.846-2.801
	c0,0,1.267,1.553,2.152,1.296c0.887-0.26,2.875-1.77,3.168-1.509c0.295,0.26,2.828,5.946,3.08,7.757
	c0.254,1.812-0.168,3.188-0.168,3.188s-0.973-0.258-1.1,0.347C26.966,29.393,26.966,31.588,26.966,31.588 M33.57,32.845
	c-0.395,0.37-2.59,1.274-3.247,1.979c-0.654,0.698-1.509,1.271-2.032,1.104c-0.527-0.169-0.984-0.905-0.758-1.978
	c0.23-1.069,0.429-2.241,0.396-2.912c-0.033-0.67-0.166-1.575,0-1.709c0.162-0.131,0.424-0.065,0.424-0.065
	s-0.129,1.271,0.625,1.608c0.754,0.332,1.836-0.136,2.164-0.473c0.33-0.333,0.561-0.834,0.561-0.834s0.329,0.168,0.296,0.703
	c-0.033,0.534,0.229,1.307,0.724,1.573C33.211,32.107,33.963,32.479,33.57,32.845"/>
</svg>
