<?xml version="1.0" encoding="utf-8"?>
<!-- Generator: Adobe Illustrator 15.1.0, SVG Export Plug-In . SVG Version: 6.00 Build 0)  -->
<!DOCTYPE svg PUBLIC "-//W3C//DTD SVG 1.1//EN" "http://www.w3.org/Graphics/SVG/1.1/DTD/svg11.dtd">
<svg version="1.1" id="Layer_1" xmlns="http://www.w3.org/2000/svg" xmlns:xlink="http://www.w3.org/1999/xlink" x="0px" y="0px"
	 width="153px" height="48.105px" viewBox="8.333 0.344 153 48.105" enable-background="new 8.333 0.344 153 48.105"
	 xml:space="preserve">
<g>
	<defs>
		<path id="SVGID_1_" d="M15.138,0.344c-3.758,0-6.805,3.487-6.805,7.787v32.531c0,4.302,3.047,7.787,6.805,7.787h139.39
			c3.758,0,6.805-3.485,6.805-7.787V8.131c0-4.3-3.047-7.787-6.805-7.787H15.138z"/>
	</defs>
	<clipPath id="SVGID_2_">
		<use xlink:href="#SVGID_1_"  overflow="visible"/>
	</clipPath>
	
		<linearGradient id="SVGID_3_" gradientUnits="userSpaceOnUse" x1="-338.063" y1="321.979" x2="-336.9185" y2="321.979" gradientTransform="matrix(-1.800000e-006 42.0234 42.0234 1.800000e-006 -13445.8506 14206.8984)">
		<stop  offset="0" style="stop-color:#D4D6D7"/>
		<stop  offset="1" style="stop-color:#B2B4B7"/>
	</linearGradient>
	<rect x="8.333" y="0.344" clip-path="url(#SVGID_2_)" fill="url(#SVGID_3_)" width="153" height="48.105"/>
</g>
<g>
	<defs>
		<path id="SVGID_4_" d="M117.751,24.594c0,10.459,8.475,18.936,18.935,18.936c10.455,0,18.931-8.477,18.931-18.936
			c0-10.456-8.476-18.932-18.931-18.932C126.226,5.663,117.751,14.138,117.751,24.594"/>
	</defs>
	<clipPath id="SVGID_5_">
		<use xlink:href="#SVGID_4_"  overflow="visible"/>
	</clipPath>
	
		<linearGradient id="SVGID_6_" gradientUnits="userSpaceOnUse" x1="-338.1099" y1="322.0942" x2="-337.0415" y2="322.0942" gradientTransform="matrix(-1.500000e-006 35.4346 35.4346 1.500000e-006 -11276.6006 11986.4473)">
		<stop  offset="0" style="stop-color:#EAEBEC"/>
		<stop  offset="1" style="stop-color:#FFFFFF"/>
	</linearGradient>
	<rect x="117.751" y="5.663" clip-path="url(#SVGID_5_)" fill="url(#SVGID_6_)" width="37.865" height="37.867"/>
</g>
<g>
	<defs>
		<path id="SVGID_7_" d="M118.729,24.594c0-9.898,8.055-17.951,17.956-17.951c9.897,0,17.951,8.053,17.951,17.951
			c0,9.9-8.054,17.955-17.951,17.955C126.784,42.549,118.729,34.495,118.729,24.594 M116.773,24.594
			c0,10.979,8.932,19.913,19.912,19.913c10.981,0,19.912-8.934,19.912-19.913c0-10.979-8.931-19.912-19.912-19.912
			C125.705,4.682,116.773,13.616,116.773,24.594"/>
	</defs>
	<clipPath id="SVGID_8_">
		<use xlink:href="#SVGID_7_"  overflow="visible"/>
	</clipPath>
	
		<linearGradient id="SVGID_9_" gradientUnits="userSpaceOnUse" x1="-338.0864" y1="322.0786" x2="-337.0176" y2="322.0786" gradientTransform="matrix(-1.600000e-006 36.9983 36.9983 1.600000e-006 -11779.7012 12513.375)">
		<stop  offset="0" style="stop-color:#B2B4B7"/>
		<stop  offset="1" style="stop-color:#D4D6D7"/>
	</linearGradient>
	<rect x="116.773" y="4.682" clip-path="url(#SVGID_8_)" fill="url(#SVGID_9_)" width="39.824" height="39.825"/>
</g>
<g>
	<path d="M19.092,12.71h-2.119v1.367h2.367v1.068h-3.666V9.387h3.546v1.067h-2.248v1.196h2.119V12.71z"/>
	<path d="M20.214,14.017c0.239,0.146,0.735,0.309,1.12,0.309c0.393,0,0.555-0.129,0.555-0.342c0-0.222-0.128-0.325-0.607-0.487
		c-0.872-0.291-1.205-0.761-1.196-1.256c0-0.786,0.666-1.376,1.7-1.376c0.487,0,0.915,0.12,1.17,0.247l-0.222,0.897
		c-0.188-0.102-0.555-0.238-0.906-0.238c-0.316,0-0.495,0.128-0.495,0.333s0.162,0.308,0.675,0.487
		c0.794,0.273,1.119,0.684,1.128,1.289c0,0.786-0.607,1.359-1.803,1.359c-0.547,0-1.034-0.129-1.351-0.3L20.214,14.017z"/>
	<path d="M25.386,9.84v1.127h0.931v0.957h-0.931v1.513c0,0.504,0.128,0.735,0.512,0.735c0.18,0,0.265-0.01,0.385-0.035l0.008,0.982
		c-0.162,0.061-0.479,0.111-0.837,0.111c-0.419,0-0.769-0.145-0.983-0.358c-0.239-0.248-0.359-0.649-0.359-1.239v-1.709h-0.556
		v-0.957h0.556V10.19L25.386,9.84z"/>
	<path d="M27.071,12.343c0-0.615-0.009-1.018-0.035-1.376h1.111l0.051,0.769h0.034c0.213-0.614,0.718-0.871,1.128-0.871
		c0.12,0,0.179,0.009,0.273,0.026v1.221c-0.103-0.017-0.205-0.033-0.35-0.033c-0.479,0-0.803,0.256-0.889,0.657
		c-0.018,0.086-0.026,0.188-0.026,0.29v2.12h-1.298V12.343z"/>
	<path d="M34.232,13.804c0,0.547,0.017,0.991,0.034,1.342h-1.127l-0.06-0.59h-0.026c-0.162,0.257-0.555,0.684-1.307,0.684
		c-0.855,0-1.47-0.53-1.47-1.82v-2.452h1.299v2.248c0,0.605,0.197,0.974,0.658,0.974c0.359,0,0.572-0.248,0.649-0.453
		c0.034-0.077,0.051-0.171,0.051-0.282v-2.486h1.299V13.804z"/>
	<path d="M36.73,9.84v1.127h0.931v0.957H36.73v1.513c0,0.504,0.128,0.735,0.513,0.735c0.179,0,0.265-0.01,0.384-0.035l0.008,0.982
		c-0.162,0.061-0.479,0.111-0.837,0.111c-0.419,0-0.769-0.145-0.982-0.358c-0.24-0.248-0.359-0.649-0.359-1.239v-1.709h-0.556
		v-0.957h0.556V10.19L36.73,9.84z"/>
	<path d="M42.354,13.804c0,0.547,0.017,0.991,0.034,1.342H41.26l-0.06-0.59h-0.025c-0.162,0.257-0.555,0.684-1.307,0.684
		c-0.854,0-1.47-0.53-1.47-1.82v-2.452h1.298v2.248c0,0.605,0.197,0.974,0.658,0.974c0.359,0,0.572-0.248,0.649-0.453
		c0.035-0.077,0.052-0.171,0.052-0.282v-2.486h1.299V13.804z"/>
	<path d="M43.399,12.343c0-0.615-0.009-1.018-0.035-1.376h1.111l0.051,0.769h0.034c0.213-0.614,0.718-0.871,1.128-0.871
		c0.12,0,0.179,0.009,0.273,0.026v1.221c-0.103-0.017-0.205-0.033-0.35-0.033c-0.479,0-0.803,0.256-0.889,0.657
		c-0.018,0.086-0.026,0.188-0.026,0.29v2.12h-1.298V12.343z"/>
	<path d="M50.031,14.137c0,0.394,0.017,0.777,0.069,1.009h-1.171l-0.077-0.419h-0.026c-0.273,0.333-0.701,0.513-1.196,0.513
		c-0.846,0-1.35-0.615-1.35-1.282c0-1.085,0.974-1.598,2.452-1.598v-0.051c0-0.23-0.12-0.547-0.761-0.547
		c-0.427,0-0.88,0.146-1.153,0.316l-0.239-0.838c0.291-0.162,0.863-0.376,1.623-0.376c1.393,0,1.829,0.82,1.829,1.812V14.137z
		 M48.775,13.172c-0.684,0-1.213,0.161-1.213,0.657c0,0.333,0.222,0.496,0.513,0.496c0.315,0,0.589-0.214,0.674-0.479
		c0.018-0.067,0.026-0.145,0.026-0.221V13.172z"/>
	<path d="M56.844,9.08v4.819c0,0.469,0.017,0.965,0.034,1.247h-1.154l-0.051-0.606h-0.025c-0.256,0.461-0.769,0.7-1.307,0.7
		c-0.991,0-1.786-0.847-1.786-2.145c-0.008-1.41,0.872-2.23,1.872-2.23c0.521,0,0.914,0.188,1.102,0.47h0.017V9.08H56.844z
		 M55.545,12.736c0-0.067,0-0.162-0.017-0.239c-0.077-0.342-0.359-0.632-0.761-0.632c-0.598,0-0.897,0.53-0.897,1.188
		c0,0.71,0.35,1.153,0.889,1.153c0.376,0,0.684-0.256,0.761-0.623c0.017-0.094,0.025-0.197,0.025-0.3V12.736z"/>
	<path d="M58.889,13.47c0.034,0.539,0.573,0.796,1.179,0.796c0.445,0,0.804-0.061,1.154-0.18l0.171,0.88
		c-0.428,0.18-0.949,0.265-1.513,0.265c-1.418,0-2.23-0.82-2.23-2.128c0-1.059,0.658-2.229,2.111-2.229
		c1.35,0,1.863,1.051,1.863,2.085c0,0.222-0.025,0.418-0.043,0.512H58.889z M60.418,12.583c0-0.316-0.137-0.847-0.734-0.847
		c-0.547,0-0.769,0.505-0.804,0.847H60.418z"/>
	<path d="M64.173,9.471c0.479-0.076,1.102-0.127,1.752-0.127c1.102,0,1.82,0.204,2.367,0.614c0.598,0.445,0.974,1.153,0.974,2.171
		c0,1.103-0.401,1.863-0.948,2.333c-0.607,0.504-1.539,0.743-2.666,0.743c-0.675,0-1.162-0.043-1.479-0.086V9.471z M65.472,14.163
		c0.111,0.026,0.299,0.026,0.453,0.026c1.188,0.008,1.965-0.641,1.965-2.017c0-1.196-0.701-1.828-1.828-1.828
		c-0.282,0-0.479,0.024-0.59,0.051V14.163z"/>
	<path d="M73.559,14.137c0,0.394,0.017,0.777,0.068,1.009h-1.17l-0.077-0.419h-0.026c-0.273,0.333-0.701,0.513-1.196,0.513
		c-0.846,0-1.35-0.615-1.35-1.282c0-1.085,0.974-1.598,2.452-1.598v-0.051c0-0.23-0.12-0.547-0.76-0.547
		c-0.427,0-0.88,0.146-1.154,0.316l-0.239-0.838c0.291-0.162,0.863-0.376,1.623-0.376c1.393,0,1.829,0.82,1.829,1.812V14.137z
		 M72.302,13.172c-0.684,0-1.213,0.161-1.213,0.657c0,0.333,0.222,0.496,0.513,0.496c0.316,0,0.589-0.214,0.674-0.479
		c0.018-0.067,0.026-0.145,0.026-0.221V13.172z"/>
	<path d="M75.988,9.84v1.127h0.931v0.957h-0.931v1.513c0,0.504,0.127,0.735,0.512,0.735c0.18,0,0.265-0.01,0.385-0.035l0.008,0.982
		c-0.163,0.061-0.479,0.111-0.837,0.111c-0.419,0-0.77-0.145-0.983-0.358c-0.239-0.248-0.358-0.649-0.358-1.239v-1.709h-0.556
		v-0.957h0.556V10.19L75.988,9.84z"/>
	<path d="M81.15,14.137c0,0.394,0.017,0.777,0.068,1.009h-1.17l-0.077-0.419h-0.026c-0.273,0.333-0.701,0.513-1.196,0.513
		c-0.846,0-1.35-0.615-1.35-1.282c0-1.085,0.974-1.598,2.452-1.598v-0.051c0-0.23-0.12-0.547-0.76-0.547
		c-0.428,0-0.88,0.146-1.154,0.316l-0.239-0.838c0.291-0.162,0.863-0.376,1.624-0.376c1.393,0,1.829,0.82,1.829,1.812V14.137z
		 M79.893,13.172c-0.684,0-1.213,0.161-1.213,0.657c0,0.333,0.222,0.496,0.513,0.496c0.316,0,0.59-0.214,0.675-0.479
		c0.017-0.067,0.025-0.145,0.025-0.221V13.172z"/>
	<path d="M88.176,14.993c-0.229,0.11-0.776,0.247-1.469,0.247c-1.991,0-3.017-1.247-3.017-2.888c0-1.965,1.402-3.051,3.145-3.051
		c0.676,0,1.188,0.129,1.419,0.256l-0.273,1.025c-0.257-0.111-0.624-0.214-1.094-0.214c-1.025,0-1.829,0.624-1.829,1.906
		c0,1.153,0.684,1.879,1.837,1.879c0.402,0,0.829-0.076,1.094-0.188L88.176,14.993z"/>
	<path d="M89.846,13.47c0.034,0.539,0.572,0.796,1.179,0.796c0.444,0,0.804-0.061,1.153-0.18l0.171,0.88
		c-0.427,0.18-0.947,0.265-1.513,0.265c-1.418,0-2.229-0.82-2.229-2.128c0-1.059,0.657-2.229,2.11-2.229
		c1.35,0,1.863,1.051,1.863,2.085c0,0.222-0.026,0.418-0.044,0.512H89.846z M91.375,12.583c0-0.316-0.137-0.847-0.734-0.847
		c-0.547,0-0.77,0.505-0.804,0.847H91.375z"/>
	<path d="M93.359,12.3c0-0.521-0.018-0.956-0.034-1.333h1.128l0.06,0.581h0.026c0.17-0.273,0.59-0.675,1.29-0.675
		c0.854,0,1.495,0.572,1.495,1.803v2.47h-1.298V12.83c0-0.538-0.188-0.905-0.658-0.905c-0.359,0-0.573,0.248-0.667,0.487
		c-0.034,0.085-0.042,0.205-0.042,0.324v2.41h-1.3V12.3z"/>
	<path d="M99.771,9.84v1.127h0.932v0.957h-0.932v1.513c0,0.504,0.129,0.735,0.514,0.735c0.18,0,0.264-0.01,0.384-0.035l0.009,0.982
		c-0.162,0.061-0.479,0.111-0.837,0.111c-0.419,0-0.77-0.145-0.983-0.358c-0.239-0.248-0.359-0.649-0.359-1.239v-1.709h-0.555
		v-0.957h0.555V10.19L99.771,9.84z"/>
	<path d="M102.42,13.47c0.035,0.539,0.573,0.796,1.18,0.796c0.444,0,0.804-0.061,1.154-0.18l0.17,0.88
		c-0.427,0.18-0.947,0.265-1.512,0.265c-1.419,0-2.23-0.82-2.23-2.128c0-1.059,0.658-2.229,2.11-2.229
		c1.351,0,1.862,1.051,1.862,2.085c0,0.222-0.024,0.418-0.043,0.512H102.42z M103.95,12.583c0-0.316-0.137-0.847-0.734-0.847
		c-0.547,0-0.77,0.505-0.804,0.847H103.95z"/>
	<path d="M105.936,12.343c0-0.615-0.009-1.018-0.034-1.376h1.11l0.052,0.769h0.034c0.214-0.614,0.718-0.871,1.128-0.871
		c0.119,0,0.18,0.009,0.273,0.026v1.221c-0.104-0.017-0.205-0.033-0.351-0.033c-0.478,0-0.804,0.256-0.889,0.657
		c-0.017,0.086-0.025,0.188-0.025,0.29v2.12h-1.299V12.343z"/>
</g>
<path d="M145.414,18.584v1.049l1.774,0.325c0.347,0.063,0.57,0.372,0.501,0.688c-0.061,0.278-0.327,0.471-0.624,0.471
	c-0.042,0-0.086-0.004-0.127-0.012l-1.525-0.28v0.427l1.753,0.263c0.349,0.051,0.584,0.354,0.525,0.673
	c-0.05,0.287-0.321,0.49-0.628,0.49c-0.035,0-0.069-0.002-0.104-0.007l-1.546-0.231v0.403l1.742,0.231
	c0.347,0.047,0.589,0.345,0.538,0.666c-0.046,0.291-0.319,0.501-0.63,0.501c-0.031,0-0.061-0.004-0.094-0.007l-1.557-0.207v0.422
	l1.724,0.186c0.351,0.037,0.601,0.327,0.562,0.65c-0.04,0.297-0.317,0.517-0.635,0.517c-0.025,0-0.05-0.002-0.075-0.006
	l-1.575-0.169v7.481h2.554V19.055L145.414,18.584z M146.548,27.644c-0.292,0-0.532-0.219-0.532-0.488s0.24-0.489,0.532-0.489
	c0.294,0,0.532,0.22,0.532,0.489C147.08,27.424,146.842,27.644,146.548,27.644"/>
<path d="M142.007,17.931v1.095l1.775,0.339c0.347,0.067,0.57,0.39,0.501,0.722c-0.061,0.29-0.328,0.491-0.626,0.491
	c-0.042,0-0.084-0.004-0.125-0.012l-1.525-0.292v0.445l1.753,0.274c0.346,0.054,0.584,0.37,0.527,0.702
	c-0.052,0.3-0.323,0.515-0.63,0.515c-0.035,0-0.069-0.004-0.104-0.009l-1.546-0.242v0.422l1.742,0.242
	c0.349,0.05,0.591,0.36,0.538,0.695c-0.046,0.305-0.319,0.523-0.63,0.523c-0.029,0-0.061-0.001-0.092-0.007l-1.559-0.216v0.441
	l1.726,0.194c0.349,0.039,0.599,0.343,0.56,0.679c-0.04,0.312-0.315,0.542-0.635,0.542c-0.025,0-0.048-0.002-0.075-0.004
	l-1.575-0.178v7.816h2.556V18.42L142.007,17.931z M143.142,27.397c-0.292,0-0.532-0.229-0.532-0.51c0-0.282,0.24-0.51,0.532-0.51
	c0.294,0,0.534,0.228,0.534,0.51C143.676,27.168,143.436,27.397,143.142,27.397"/>
<polygon points="125.402,33.109 132.215,33.109 132.215,16.079 125.402,19.485 "/>
<path d="M132.641,16.079v1.168c0.042,0,0.084-0.011,0.125,0l7.612,1.521c0.345,0.068,0.57,0.404,0.499,0.751
	c-0.061,0.305-0.328,0.514-0.626,0.514c-0.04,0-0.084-0.004-0.125-0.013l-7.485-1.496v0.706c0.033,0,0.067-0.009,0.103-0.003
	l7.609,1.24c0.349,0.056,0.587,0.385,0.528,0.732c-0.052,0.315-0.321,0.536-0.63,0.536c-0.033,0-0.069-0.002-0.103-0.008
	l-7.508-1.223v0.563c0.029-0.001,0.061-0.012,0.09-0.006l7.612,1.106c0.347,0.051,0.591,0.376,0.54,0.724
	c-0.048,0.318-0.319,0.546-0.632,0.546c-0.031,0-0.061-0.002-0.094-0.006l-7.517-1.094v0.644c0.025-0.001,0.048-0.012,0.073-0.007
	l7.612,0.893c0.349,0.042,0.599,0.359,0.56,0.71c-0.04,0.324-0.315,0.564-0.635,0.564c-0.025,0-0.051-0.002-0.075-0.004
	l-7.535-0.885v8.855h8.516V17.782L132.641,16.079z M139.735,27.149c-0.292,0-0.532-0.238-0.532-0.531s0.24-0.532,0.532-0.532
	c0.294,0,0.532,0.239,0.532,0.532S140.029,27.149,139.735,27.149"/>
<g>
	<path fill="#0A0505" d="M15.672,26.431v-6.213h1.642l1.291,2.277c0.369,0.654,0.728,1.429,1.014,2.129h0.018
		c-0.083-0.82-0.11-1.66-0.11-2.6v-1.806h1.29v6.213h-1.475l-1.328-2.397c-0.369-0.663-0.784-1.466-1.079-2.193h-0.037
		c0.046,0.829,0.065,1.705,0.065,2.719v1.872H15.672z"/>
	<path fill="#0A0505" d="M25.742,25.343c0,0.424,0.018,0.838,0.073,1.088h-1.262l-0.083-0.453h-0.028
		c-0.295,0.359-0.755,0.554-1.29,0.554c-0.913,0-1.457-0.663-1.457-1.382c0-1.171,1.052-1.724,2.646-1.724v-0.055
		c0-0.249-0.128-0.59-0.82-0.59c-0.461,0-0.95,0.157-1.245,0.341l-0.258-0.904c0.313-0.175,0.931-0.406,1.752-0.406
		c1.501,0,1.972,0.885,1.972,1.955V25.343z M24.387,24.302c-0.737,0-1.308,0.174-1.308,0.709c0,0.358,0.239,0.534,0.553,0.534
		c0.341,0,0.636-0.229,0.729-0.517c0.018-0.073,0.027-0.156,0.027-0.239L24.387,24.302L24.387,24.302z"/>
	<path fill="#0A0505" d="M30.244,26.31c-0.249,0.121-0.718,0.213-1.253,0.213c-1.457,0-2.388-0.895-2.388-2.305
		c0-1.318,0.904-2.397,2.582-2.397c0.368,0,0.773,0.065,1.068,0.176l-0.221,1.041c-0.166-0.074-0.414-0.138-0.783-0.138
		c-0.738,0-1.217,0.526-1.208,1.263c0,0.821,0.554,1.263,1.236,1.263c0.331,0,0.59-0.056,0.802-0.146L30.244,26.31z"/>
	<path fill="#0A0505" d="M32.467,20.668c0,0.387-0.286,0.7-0.755,0.7c-0.444,0-0.729-0.313-0.729-0.7c0-0.396,0.295-0.7,0.747-0.7
		C32.181,19.969,32.458,20.272,32.467,20.668z M31.019,26.431v-4.509h1.401v4.509H31.019z"/>
	<path fill="#0A0505" d="M38,24.125c0,1.649-1.171,2.406-2.378,2.406c-1.318,0-2.333-0.867-2.333-2.323
		c0-1.466,0.959-2.397,2.415-2.397C37.078,21.812,38,22.761,38,24.125z M34.737,24.171c0,0.775,0.322,1.355,0.921,1.355
		c0.554,0,0.895-0.543,0.895-1.364c0-0.664-0.259-1.346-0.895-1.346C34.994,22.816,34.737,23.509,34.737,24.171z"/>
	<path fill="#0A0505" d="M38.869,23.36c0-0.563-0.018-1.032-0.036-1.439h1.216l0.065,0.627h0.027
		c0.185-0.295,0.636-0.729,1.393-0.729c0.921,0,1.612,0.618,1.612,1.945v2.665h-1.4v-2.5c0-0.581-0.203-0.977-0.709-0.977
		c-0.387,0-0.618,0.268-0.719,0.526c-0.037,0.092-0.046,0.222-0.046,0.35v2.601h-1.401V23.36H38.869z"/>
	<path fill="#0A0505" d="M48.026,25.343c0,0.424,0.018,0.838,0.073,1.088h-1.262l-0.083-0.453h-0.028
		c-0.295,0.359-0.756,0.554-1.291,0.554c-0.913,0-1.457-0.663-1.457-1.382c0-1.171,1.052-1.724,2.646-1.724v-0.055
		c0-0.249-0.128-0.59-0.82-0.59c-0.461,0-0.95,0.157-1.245,0.341l-0.258-0.904c0.313-0.175,0.931-0.406,1.752-0.406
		c1.502,0,1.973,0.885,1.973,1.955V25.343z M46.669,24.302c-0.738,0-1.309,0.174-1.309,0.709c0,0.358,0.239,0.534,0.553,0.534
		c0.341,0,0.636-0.229,0.729-0.517c0.018-0.073,0.027-0.156,0.027-0.239V24.302z"/>
	<path fill="#0A0505" d="M49.142,19.886h1.402v6.545h-1.402V19.886z"/>
</g>
<g>
	<g>
		<defs>
			<rect id="SVGID_10_" x="69.362" y="19.083" width="41.006" height="25.08"/>
		</defs>
		<clipPath id="SVGID_11_">
			<use xlink:href="#SVGID_10_"  overflow="visible"/>
		</clipPath>
		<path clip-path="url(#SVGID_11_)" fill="#ED1C24" d="M103.212,20.681c-1.283,0.114-3.304-1.567-4.865-1.574
			c-1.447-0.014-2.496,1.528-2.49,2.591c-0.047,1.422,1.303,2.725,2.552,2.651c1.622,0.008,2.825-1.96,4.864-1.954
			c2.021-0.017,3.619,1.78,3.688,3.708c0.166,1.812-1.883,3.174-1.973,4.805c0.023,1.367,1.088,2.553,2.65,2.65
			c1.061-0.033,2.715-0.779,2.729-2.621c0.068-1.17-1.859-3.524-1.693-4.834c-0.011-1.542,1.489-2.945,1.696-4.446
			c0.045-1.296-1.226-2.512-2.612-2.571C106.22,18.98,104.767,20.748,103.212,20.681"/>
	</g>
</g>
<path fill="#0A0505" d="M79.759,39.875v-6.449c0-0.336-0.145-0.481-0.464-0.481h-1.847v6.931h-2.889v-6.931h-1.812
	c-0.338,0-0.498,0.146-0.498,0.481v6.449h-2.887v-7.56c0-1.549,0.774-2.26,2.306-2.26h8.689c1.531,0,2.288,0.709,2.288,2.275v7.543
	L79.759,39.875L79.759,39.875z"/>
<path fill="#0A0505" d="M90.151,33.425c0-0.336-0.17-0.482-0.506-0.482h-2.14c-0.336,0-0.528,0.146-0.528,0.482v2.997
	c0,0.353,0.192,0.563,0.528,0.563h2.14c0.336,0,0.506-0.193,0.506-0.529V33.425z M86.445,39.875c-1.564,0-2.356-0.741-2.356-2.239
	v-5.32c0-1.549,0.774-2.26,2.308-2.26h4.345c1.531,0,2.302,0.709,2.302,2.275v5.236c0,1.533-0.771,2.307-2.269,2.307L86.445,39.875
	L86.445,39.875z"/>
<path fill="#0A0505" d="M100.55,33.425c0-0.336-0.188-0.482-0.523-0.482h-2.651v4.043h2.651c0.336,0,0.523-0.211,0.523-0.563V33.425
	z M94.485,39.875V27.168h2.889v2.888h3.762c1.533,0,2.301,0.709,2.301,2.26v5.32c0,1.499-0.785,2.239-2.351,2.239H94.485z"/>
<polygon fill="#0A0505" points="69.362,41.724 69.362,41.318 71.394,41.318 71.394,41.724 70.581,41.724 70.581,44.163 
	70.175,44.163 70.175,41.724 "/>
<polygon fill="#0A0505" points="74.584,42.131 74.584,41.724 73.769,41.724 73.769,42.539 74.584,42.539 74.584,42.943 
	73.769,42.943 73.769,43.756 74.584,43.756 74.584,43.351 74.989,43.351 74.989,44.163 73.364,44.163 73.364,41.318 74.989,41.318 
	74.989,42.131 "/>
<polygon fill="#0A0505" points="78.18,42.131 78.18,41.724 77.365,41.724 77.365,43.756 78.18,43.756 78.18,43.351 78.585,43.351 
	78.585,44.163 76.959,44.163 76.959,41.318 78.585,41.318 78.585,42.131 "/>
<polygon fill="#0A0505" points="81.774,44.163 81.774,41.724 80.961,41.724 80.961,44.163 80.556,44.163 80.556,41.318 
	82.182,41.318 82.182,44.163 "/>
<path fill="#0A0505" d="M84.557,43.756h0.813v-2.032h-0.813V43.756z M84.152,41.318h1.623v2.845h-1.623V41.318z"/>
<polygon fill="#0A0505" points="87.748,44.163 87.748,41.318 88.153,41.318 88.153,43.756 88.966,43.756 88.966,43.351 
	89.374,43.351 89.374,44.163 "/>
<path fill="#0A0505" d="M91.749,43.756h0.813v-2.032h-0.813V43.756z M91.344,41.318h1.624v2.845h-1.624V41.318z"/>
<polygon fill="#0A0505" points="96.158,42.131 96.158,41.724 95.347,41.724 95.347,43.756 96.158,43.756 96.158,42.943 
	95.751,42.943 95.751,42.539 96.563,42.539 96.563,44.163 94.94,44.163 94.94,41.318 96.563,41.318 96.563,42.131 "/>
<polygon fill="#0A0505" points="98.536,41.724 98.536,41.318 99.755,41.318 99.755,41.724 99.349,41.724 99.349,43.756 
	99.755,43.756 99.755,44.163 98.536,44.163 98.536,43.756 98.94,43.756 98.94,41.724 "/>
<path fill="#0A0505" d="M102.131,42.538h0.813v-0.813h-0.813V42.538z M102.942,44.163v-1.22h-0.813v1.22h-0.406v-2.845h1.625v2.845
	H102.942z"/>
</svg>
