<?xml version="1.0" encoding="utf-8"?>
<!-- Generator: Adobe Illustrator 15.1.0, SVG Export Plug-In . SVG Version: 6.00 Build 0)  -->
<!DOCTYPE svg PUBLIC "-//W3C//DTD SVG 1.1//EN" "http://www.w3.org/Graphics/SVG/1.1/DTD/svg11.dtd">
<svg version="1.1" id="Layer_1" xmlns="http://www.w3.org/2000/svg" xmlns:xlink="http://www.w3.org/1999/xlink" x="0px" y="0px"
	 width="403.25px" height="246.636px" viewBox="0 0 403.25 246.636" enable-background="new 0 0 403.25 246.636"
	 xml:space="preserve">
<g>
	<g>
		<defs>
			<rect id="SVGID_1_" x="10.081" y="6.166" width="383.088" height="234.304"/>
		</defs>
		<clipPath id="SVGID_2_">
			<use xlink:href="#SVGID_1_"  overflow="visible"/>
		</clipPath>
		<path clip-path="url(#SVGID_2_)" fill-rule="evenodd" clip-rule="evenodd" fill="#BABABA" d="M326.307,21.106
			c-11.979,1.056-30.848-14.649-45.435-14.711c-13.532-0.125-23.339,14.276-23.277,24.208
			c-0.434,13.284,12.166,25.449,23.836,24.767c15.146,0.062,26.379-18.31,45.437-18.25c18.875-0.15,33.818,16.632,34.448,34.636
			c1.561,16.914-17.578,29.639-18.436,44.876c0.249,12.771,10.179,23.852,24.766,24.765c9.907-0.301,25.361-7.281,25.508-24.485
			c0.624-10.924-17.377-32.929-15.825-45.156c-0.123-14.401,13.904-27.497,15.828-41.525c0.434-12.104-11.421-23.464-24.394-24.022
			C354.425,5.215,340.831,21.727,326.307,21.106L326.307,21.106L326.307,21.106z"/>
	</g>
	<path fill="#231F20" d="M107.202,200.41V140.17c0-3.146-1.333-4.508-4.322-4.508H85.619v64.748H58.642v-64.748H41.696
		c-3.146,0-4.637,1.362-4.637,4.508v60.239H10.081v-70.621c0-14.47,7.235-21.105,21.548-21.105h81.16
		c14.313,0,21.391,6.635,21.391,21.263v70.463H107.202L107.202,200.41z"/>
	<path fill="#231F20" d="M204.322,140.17c0-3.146-1.603-4.508-4.748-4.508h-19.976c-3.146,0-4.952,1.362-4.952,4.508v27.997
		c0,3.302,1.806,5.265,4.952,5.265h19.976c3.146,0,4.748-1.806,4.748-4.95V140.17L204.322,140.17z M169.689,200.41
		c-14.627,0-22.02-6.92-22.02-20.918v-49.703c0-14.47,7.235-21.105,21.547-21.105h40.581c14.312,0,21.503,6.635,21.503,21.263
		v48.916c0,14.313-7.191,21.548-21.189,21.548H169.689L169.689,200.41z"/>
	<path fill="#231F20" d="M301.442,140.17c0-3.146-1.76-4.508-4.905-4.508h-24.769v37.77h24.769c3.146,0,4.905-1.963,4.905-5.265
		V140.17L301.442,140.17z M244.79,200.41V81.705h26.979v26.979h35.147c14.313,0,21.505,6.635,21.505,21.105v49.703
		c0,13.998-7.349,20.918-21.976,20.918H244.79L244.79,200.41z"/>
	<polygon fill="#231F20" points="10.081,217.696 10.081,213.9 29.06,213.9 29.06,217.696 21.468,217.696 21.468,240.47 
		17.673,240.47 17.673,217.696 10.081,217.696 	"/>
	<polygon fill="#231F20" points="58.857,221.492 58.857,217.696 51.265,217.696 51.265,225.287 58.857,225.287 58.857,229.083 
		51.265,229.083 51.265,236.675 58.857,236.675 58.857,232.878 62.653,232.878 62.653,240.47 47.469,240.47 47.469,213.9 
		62.653,213.9 62.653,221.492 58.857,221.492 	"/>
	<polygon fill="#231F20" points="92.45,221.492 92.45,217.696 84.858,217.696 84.858,236.675 92.45,236.675 92.45,232.878 
		96.246,232.878 96.246,240.47 81.062,240.47 81.062,213.9 96.246,213.9 96.246,221.492 92.45,221.492 	"/>
	<polygon fill="#231F20" points="126.043,240.47 126.043,217.696 118.451,217.696 118.451,240.47 114.655,240.47 114.655,213.9 
		129.839,213.9 129.839,240.47 126.043,240.47 	"/>
	<path fill="#231F20" d="M152.044,217.696v18.979h7.592v-18.979H152.044L152.044,217.696z M148.248,240.47V213.9h15.184v26.57
		H148.248L148.248,240.47z"/>
	<polygon fill="#231F20" points="181.841,240.47 181.841,213.9 185.637,213.9 185.637,236.675 193.229,236.675 193.229,232.878 
		197.024,232.878 197.024,240.47 181.841,240.47 	"/>
	<path fill="#231F20" d="M219.229,217.696v18.979h7.592v-18.979H219.229L219.229,217.696z M215.435,240.47V213.9h15.183v26.57
		H215.435L215.435,240.47z"/>
	<polygon fill="#231F20" points="260.415,221.492 260.415,217.696 252.823,217.696 252.823,236.675 260.415,236.675 
		260.415,229.083 256.618,229.083 256.618,225.287 264.21,225.287 264.21,240.47 249.027,240.47 249.027,213.9 264.21,213.9 
		264.21,221.492 260.415,221.492 	"/>
	<polygon fill="#231F20" points="282.62,217.696 282.62,213.9 294.007,213.9 294.007,217.696 290.212,217.696 290.212,236.675 
		294.007,236.675 294.007,240.47 282.62,240.47 282.62,236.675 286.415,236.675 286.415,217.696 282.62,217.696 	"/>
	<path fill="#231F20" d="M316.213,217.696v7.591h7.592v-7.591H316.213L316.213,217.696z M323.805,240.47v-11.387h-7.592v11.387
		h-3.796V213.9h15.184v26.57H323.805L323.805,240.47z"/>
</g>
</svg>
