<?xml version="1.0" encoding="utf-8"?>
<!-- Generator: Adobe Illustrator 15.1.0, SVG Export Plug-In . SVG Version: 6.00 Build 0)  -->
<!DOCTYPE svg PUBLIC "-//W3C//DTD SVG 1.1//EN" "http://www.w3.org/Graphics/SVG/1.1/DTD/svg11.dtd">
<svg version="1.1" id="Layer_1" xmlns="http://www.w3.org/2000/svg" xmlns:xlink="http://www.w3.org/1999/xlink" x="0px" y="0px"
	 width="366.251px" height="224.007px" viewBox="0 0 366.251 224.007" enable-background="new 0 0 366.251 224.007"
	 xml:space="preserve">
<g>
	<g>
		<defs>
			<rect id="SVGID_1_" x="20.313" y="11.2" width="329.626" height="201.606"/>
		</defs>
		<clipPath id="SVGID_2_">
			<use xlink:href="#SVGID_1_"  overflow="visible"/>
		</clipPath>
		<path clip-path="url(#SVGID_2_)" fill-rule="evenodd" clip-rule="evenodd" fill="#ED1C24" d="M292.408,24.055
			c-10.308,0.908-26.544-12.604-39.095-12.658c-11.644-0.107-20.082,12.284-20.028,20.83c-0.375,11.429,10.468,21.897,20.509,21.31
			c13.031,0.053,22.698-15.754,39.096-15.702c16.241-0.13,29.099,14.311,29.641,29.802c1.344,14.553-15.126,25.502-15.863,38.614
			c0.215,10.99,8.76,20.523,21.311,21.31c8.524-0.261,21.822-6.267,21.947-21.07c0.537-9.399-14.951-28.333-13.615-38.854
			c-0.106-12.391,11.963-23.66,13.618-35.73c0.373-10.415-9.827-20.189-20.99-20.669C316.602,10.382,304.904,24.59,292.408,24.055
			L292.408,24.055L292.408,24.055z"/>
	</g>
	<path d="M103.88,178.337v-51.833c0-2.708-1.147-3.879-3.719-3.879H85.309v55.712H62.096v-55.712H47.515
		c-2.707,0-3.989,1.171-3.989,3.879v51.833H20.313v-60.766c0-12.451,6.226-18.16,18.541-18.16h69.833
		c12.316,0,18.405,5.709,18.405,18.295v60.631H103.88L103.88,178.337z"/>
	<path d="M187.446,126.504c0-2.708-1.38-3.879-4.085-3.879h-17.189c-2.706,0-4.26,1.171-4.26,3.879v24.089
		c0,2.842,1.555,4.53,4.26,4.53h17.189c2.705,0,4.085-1.553,4.085-4.259V126.504L187.446,126.504z M157.647,178.337
		c-12.587,0-18.947-5.955-18.947-17.999v-42.767c0-12.451,6.226-18.16,18.541-18.16h34.917c12.315,0,18.503,5.709,18.503,18.295
		v42.09c0,12.316-6.188,18.541-18.232,18.541H157.647L157.647,178.337z"/>
	<path d="M271.013,126.504c0-2.708-1.515-3.879-4.221-3.879h-21.313v32.498h21.313c2.706,0,4.221-1.688,4.221-4.53V126.504
		L271.013,126.504z M222.266,178.337V76.198h23.214v23.213h30.244c12.315,0,18.504,5.709,18.504,18.16v42.767
		c0,12.044-6.324,17.999-18.91,17.999H222.266L222.266,178.337z"/>
	<polygon points="20.313,193.21 20.313,189.943 36.643,189.943 36.643,193.21 30.111,193.21 30.111,212.807 26.845,212.807 
		26.845,193.21 20.313,193.21 	"/>
	<polygon points="62.281,196.477 62.281,193.21 55.749,193.21 55.749,199.742 62.281,199.742 62.281,203.009 55.749,203.009 
		55.749,209.54 62.281,209.54 62.281,206.274 65.548,206.274 65.548,212.807 52.483,212.807 52.483,189.943 65.548,189.943 
		65.548,196.477 62.281,196.477 	"/>
	<polygon points="91.187,196.477 91.187,193.21 84.654,193.21 84.654,209.54 91.187,209.54 91.187,206.274 94.453,206.274 
		94.453,212.807 81.388,212.807 81.388,189.943 94.453,189.943 94.453,196.477 91.187,196.477 	"/>
	<polygon points="120.091,212.807 120.091,193.21 113.559,193.21 113.559,212.807 110.293,212.807 110.293,189.943 123.357,189.943 
		123.357,212.807 120.091,212.807 	"/>
	<path d="M142.464,193.21v16.33h6.533v-16.33H142.464L142.464,193.21z M139.198,212.807v-22.863h13.064v22.863H139.198
		L139.198,212.807z"/>
	<polygon points="168.103,212.807 168.103,189.943 171.369,189.943 171.369,209.54 177.901,209.54 177.901,206.274 181.167,206.274 
		181.167,212.807 168.103,212.807 	"/>
	<path d="M200.273,193.21v16.33h6.532v-16.33H200.273L200.273,193.21z M197.007,212.807v-22.863h13.065v22.863H197.007
		L197.007,212.807z"/>
	<polygon points="235.711,196.477 235.711,193.21 229.179,193.21 229.179,209.54 235.711,209.54 235.711,203.009 232.444,203.009 
		232.444,199.742 238.977,199.742 238.977,212.807 225.912,212.807 225.912,189.943 238.977,189.943 238.977,196.477 
		235.711,196.477 	"/>
	<polygon points="254.817,193.21 254.817,189.943 264.615,189.943 264.615,193.21 261.35,193.21 261.35,209.54 264.615,209.54 
		264.615,212.807 254.817,212.807 254.817,209.54 258.083,209.54 258.083,193.21 254.817,193.21 	"/>
	<path d="M283.722,193.21v6.532h6.532v-6.532H283.722L283.722,193.21z M290.254,212.807v-9.798h-6.532v9.798h-3.266v-22.863h13.064
		v22.863H290.254L290.254,212.807z"/>
</g>
</svg>
