<?xml version="1.0" encoding="utf-8"?>
<!-- Generator: Adobe Illustrator 15.1.0, SVG Export Plug-In . SVG Version: 6.00 Build 0)  -->
<!DOCTYPE svg PUBLIC "-//W3C//DTD SVG 1.1//EN" "http://www.w3.org/Graphics/SVG/1.1/DTD/svg11.dtd">
<svg version="1.1" id="Layer_3" xmlns="http://www.w3.org/2000/svg" xmlns:xlink="http://www.w3.org/1999/xlink" x="0px" y="0px"
	 width="108.708px" height="135.316px" viewBox="45.325 42.936 108.708 135.316"
	 enable-background="new 45.325 42.936 108.708 135.316" xml:space="preserve">
<g>
	<circle fill="#2B3D4F" cx="99.686" cy="60.527" r="10.825"/>
	<path fill="#2B3D4F" d="M99.68,159.916c-12.086,0-21.922-4.212-21.922-9.39c0-2.408,2.146-4.603,5.638-6.266
		c0.478-0.328,1.062-0.581,1.78-0.757c0.11-0.041,0.213-0.088,0.325-0.129v-2.156c-7.083,1.987-11.774,5.414-11.774,9.308
		c0,6.133,11.644,11.121,25.954,11.121c14.311,0,25.952-4.99,25.952-11.121c0-3.857-4.607-7.262-11.586-9.257v2.149
		c1.041,0.22,1.807,0.569,2.403,1.069c3.21,1.635,5.154,3.74,5.154,6.036C121.604,155.704,111.769,159.916,99.68,159.916z"/>
	<path fill="#2B3D4F" d="M61.47,150.524c0,9.028,17.143,16.372,38.21,16.372s38.211-7.343,38.211-16.372
		c0-6.851-9.875-12.729-23.845-15.167v1.885c11.688,2.327,19.813,7.405,19.813,13.282c0,8.075-15.333,14.646-34.179,14.646
		c-18.844,0-34.179-6.57-34.179-14.646c0-5.904,8.213-11.01,20-13.319v-1.879C71.435,137.741,61.47,143.643,61.47,150.524z"/>
	<path fill="#2B3D4F" d="M114.046,130.488v1.825c17.725,2.571,30.521,9.759,30.521,18.213c0,10.604-20.138,19.231-44.888,19.231
		c-24.749,0-44.885-8.629-44.885-19.231c0-8.483,12.886-15.692,30.706-18.243v-1.815c-20.079,2.612-34.74,10.613-34.74,20.059
		c0,11.556,21.946,20.96,48.919,20.96c26.975,0,48.918-9.404,48.918-20.96C148.6,141.109,134.032,133.127,114.046,130.488z"/>
	<path fill="#2B3D4F" d="M88.449,108.864c0.243,0,0.487-0.026,0.729-0.07c-0.007,0.103-0.018,0.208-0.018,0.313l0.002,40.246
		c0,2.744,2.223,4.966,4.967,4.966c2.743,0,4.968-2.224,4.968-4.966l-0.002-34.54c0.197,0.012,0.392,0.025,0.59,0.025
		c0.04,0,0.078-0.005,0.116-0.007v34.52c0,2.744,2.222,4.966,4.966,4.966l0,0c2.744,0,4.967-2.222,4.967-4.966l0.002-40.153
		c0.076-0.147,0.146-0.303,0.217-0.455c0.317,0.074,0.638,0.121,0.958,0.121c1.381,0,2.736-0.681,3.538-1.929
		c2.364-3.676,6.374-10.376,6.666-13.945c0.488-5.99-9.77-16.268-14.228-19.006c-0.164-0.099-0.335-0.169-0.503-0.241
		c-1.221-0.814-2.597-1.419-4.001-1.766l-2.696,2.715l-2.616-2.743c-0.008,0-0.018,0-0.026,0.001
		c-1.408,0.339-2.791,0.94-4.017,1.765c-0.186,0.08-0.375,0.158-0.554,0.266C88.015,76.722,77.757,87,78.247,92.99
		c0.29,3.569,4.3,10.269,6.665,13.946C85.713,108.185,87.067,108.864,88.449,108.864z M110.768,89.359
		c0.957,1.294,1.656,2.435,1.913,3.167c-0.234,0.801-0.947,2.321-1.913,4.122V89.359z M99.66,75.097h0.049l2.611,17.453
		l-2.609,3.571H99.66l-2.61-3.571L99.66,75.097z M88.607,89.341v7.335c-0.988-1.832-1.712-3.365-1.93-4.138
		C86.926,91.808,87.634,90.654,88.607,89.341z"/>
</g>
</svg>
