<?xml version="1.0" encoding="utf-8"?>
<!-- Generator: Adobe Illustrator 15.1.0, SVG Export Plug-In . SVG Version: 6.00 Build 0)  -->
<!DOCTYPE svg PUBLIC "-//W3C//DTD SVG 1.1//EN" "http://www.w3.org/Graphics/SVG/1.1/DTD/svg11.dtd">
<svg version="1.1" id="Capa_1" xmlns="http://www.w3.org/2000/svg" xmlns:xlink="http://www.w3.org/1999/xlink" x="0px" y="0px"
	 width="52px" height="52px" viewBox="0 0 52 52" enable-background="new 0 0 52 52" xml:space="preserve">
<path fill="#F25444" d="M27.284,1.915c-7.777,0-14.693,3.67-19.124,9.368C1.843,17.6-0.352,32.396,7.892,40.641
	c4.417,5.896,11.459,9.709,19.392,9.709c13.375,0,24.217-10.843,24.217-24.218S40.659,1.915,27.284,1.915z M41.365,17.395
	c-1.543,2.708-12.818,23.076-17.575,23.076c-3.702,0-9.167-9.15-10.739-12.475c-1.514-3.197,6.774-7.963,8.56-4.159
	c1.786,3.806,2.695,5.74,2.695,5.74s8.083-14.642,10.19-17.922C36.604,8.375,42.908,14.688,41.365,17.395z"/>
</svg>
