<?xml version="1.0" encoding="utf-8"?>
<!-- Generator: Adobe Illustrator 15.1.0, SVG Export Plug-In . SVG Version: 6.00 Build 0)  -->
<!DOCTYPE svg PUBLIC "-//W3C//DTD SVG 1.1//EN" "http://www.w3.org/Graphics/SVG/1.1/DTD/svg11.dtd">
<svg version="1.1" id="Layer_2" xmlns="http://www.w3.org/2000/svg" xmlns:xlink="http://www.w3.org/1999/xlink" x="0px" y="0px"
	 width="126px" height="126px" viewBox="0 0 126 126" enable-background="new 0 0 126 126" xml:space="preserve">
<g>
	<circle fill="#2B3D4F" cx="34.891" cy="17.128" r="12.582"/>
	<circle fill="#2B3D4F" cx="76.475" cy="17.132" r="12.582"/>
	<path fill="#2B3D4F" d="M84.388,105.711l0.004,9.088c0.002,3.678,2.984,6.657,6.661,6.657h0.005
		c3.677-0.003,6.658-2.986,6.656-6.664l-0.005-9.082L84.388,105.711L84.388,105.711z"/>
	<path fill="#2B3D4F" d="M106.584,76.11c-0.415-2.443-2.211-4.408-4.547-5.103c0.026-0.404,0.019-0.812-0.063-1.228
		c-0.622-3.184-8.262-33.165-8.262-33.165c-1.084-5.057-4.584-7.487-8.94-7.613l-0.037,0.001c0,0-1.536,0.009-2.859,0.261
		c-1.386,0.264-2.599,0.93-2.599,0.93c-3.211,1.558-6.283,4.776-6.658,8.684c-0.052,0.188-0.112,0.371-0.141,0.569
		c-0.848,5.969-1.697,9.752-3.525,11.418c-1.887,1.716-6.123,2.481-13.736,2.481c-1.762,0-3.293,0.941-4.152,2.343
		c-4.594-0.938-7.306-2.127-8.738-3.785c-1.86-2.148-2.537-6.141-3.435-12.458c-0.028-0.199-0.091-0.383-0.14-0.57
		c-0.376-3.906-3.448-7.126-6.661-8.684c0,0-1.213-0.666-2.596-0.931c-1.326-0.252-2.86-0.259-2.86-0.259L26.597,29
		c-4.357,0.126-9.486,2.554-10.571,7.614l-5.819,27.155c-0.776,3.627,0.846,6.872,3.469,9.112l-0.026,41.907
		c-0.002,3.68,2.979,6.663,6.658,6.667c0,0,0.002,0,0.003,0c3.677,0,6.659-2.982,6.661-6.659l0.024-39.652
		c2.752-1.095,5.078-3.221,5.789-6.536l2.203-10.281c3.505,4.092,9.292,6.438,19.612,7.85c0.224,0.03,0.447,0.047,0.668,0.047
		c2.059,0,3.884-1.31,4.578-3.224c8.079-0.427,13.09-2.09,16.348-5.518l2.384,11.131c0.619,2.88,2.459,4.86,4.739,6.05h3.169
		c0.681-1.92,2.06-3.504,3.874-4.448c-1.653-7.882-3.946-15.632-5.919-20.343c-1.345-2.473,0.533-3.325,1.533-0.759
		c1,2.568,4.741,14.264,6.273,21.912c-2.309,0.71-4.078,2.661-4.487,5.086h-9.406v27.79h37.632V76.11H106.584z M91.123,76.11
		c0.388-1.072,1.319-1.883,2.465-2.081c0.908,0.981,2.198,1.579,3.58,1.579c0.311,0,0.627-0.031,0.943-0.094
		c1.058-0.207,1.961-0.751,2.642-1.487c1.146,0.198,2.08,1.011,2.467,2.083H91.123z"/>
</g>
</svg>
