<?xml version="1.0" encoding="utf-8"?>
<!-- Generator: Adobe Illustrator 15.1.0, SVG Export Plug-In . SVG Version: 6.00 Build 0)  -->
<!DOCTYPE svg PUBLIC "-//W3C//DTD SVG 1.1//EN" "http://www.w3.org/Graphics/SVG/1.1/DTD/svg11.dtd">
<svg version="1.1" id="Layer_3" xmlns="http://www.w3.org/2000/svg" xmlns:xlink="http://www.w3.org/1999/xlink" x="0px" y="0px"
	 width="126px" height="126px" viewBox="0 0 126 126" enable-background="new 0 0 126 126" xml:space="preserve">
<g>
	<g>
		<circle fill="#2B3D4F" cx="77.298" cy="15.957" r="13.516"/>
	</g>
	<g>
		<path fill="#2B3D4F" d="M108.363,37.469c-0.483-2.856-3.191-4.78-6.049-4.298c-12.487,2.108-25.883,1.552-28.338-1.099
			c-0.807-1.214-1.787-2.292-2.84-3.152c0,0-1.104-0.996-2.486-1.615c-1.321-0.592-2.924-0.981-2.924-0.981l-0.039-0.011
			c-2.791-0.576-6.087-0.324-8.783,1.088c-0.348,0.06-0.695,0.156-1.036,0.29c-4.943,1.951-14.199,1.292-21.022-0.136
			c-0.054-2.417-0.092-4.827-0.111-7.153c-0.03-3.669-3.015-6.624-6.678-6.624c-0.018,0-0.037,0-0.056,0
			c-3.688,0.03-6.654,3.044-6.624,6.732c0.007,0.867,0.017,1.696,0.026,2.527c-0.626,0.174-1.232,0.463-1.782,0.882
			c-2.303,1.76-2.742,5.054-0.982,7.356c0.688,0.9,1.705,1.746,2.976,2.527c0.772,25.944,3.071,27.98,4.967,29.648
			c2.993,2.634,13.684,7.466,19.791,10.112c0.658,0.285,1.337,0.455,2.016,0.521c0.023,0.009,0.048,0.015,0.071,0.021l-0.025,42.775
			c-0.002,3.688,2.986,6.68,6.675,6.682c0.001,0,0.002,0,0.003,0c3.687,0,6.676-2.987,6.679-6.675l0.028-46.661
			c0.192-0.31,0.374-0.633,0.537-0.977l12.197-25.673c3.905,1.063,8.385,1.438,12.729,1.438c6.939,0,13.518-0.94,16.785-1.496
			C106.926,43.034,108.848,40.326,108.363,37.469z M35.202,38.329c3.815,0.677,7.86,1.049,11.708,1.049
			c0.743,0,1.474-0.018,2.199-0.047l-8.111,17.074c-1.859-0.906-3.446-1.718-4.512-2.324C35.958,51.268,35.513,45.294,35.202,38.329
			z"/>
	</g>
</g>
</svg>
