<?xml version="1.0" encoding="utf-8"?>
<!-- Generator: Adobe Illustrator 15.1.0, SVG Export Plug-In . SVG Version: 6.00 Build 0)  -->
<!DOCTYPE svg PUBLIC "-//W3C//DTD SVG 1.1//EN" "http://www.w3.org/Graphics/SVG/1.1/DTD/svg11.dtd">
<svg version="1.1" id="Layer_2" xmlns="http://www.w3.org/2000/svg" xmlns:xlink="http://www.w3.org/1999/xlink" x="0px" y="0px"
	 width="126px" height="126px" viewBox="0 0 126 126" enable-background="new 0 0 126 126" xml:space="preserve">
<g>
	<path fill="#2B3D4F" d="M91.83,62.331h-4.455c-1.231-6.929-5.72-26.857-17.32-31.954c-0.021-0.009-0.045-0.016-0.065-0.025
		c-1.271-0.834-2.699-1.458-4.156-1.815l-2.849,2.869l-2.761-2.9c-0.011,0.002-0.02,0.002-0.03,0.005
		c-1.494,0.356-2.958,1-4.256,1.875C44.349,35.492,39.86,55.406,38.63,62.331h-4.456c-3.345,0-6.068,2.724-6.068,6.07v46.53
		c0,3.347,2.723,6.07,6.068,6.07h57.658c3.346,0,6.067-2.722,6.067-6.07v-46.53C97.896,65.055,95.175,62.331,91.83,62.331z
		 M78.336,62.331h-3.648V49.767C76.33,53.868,77.558,58.401,78.336,62.331z M62.956,31.83h0.054l2.757,18.438l-2.757,3.774h-0.054
		l-2.759-3.774L62.956,31.83z M51.275,49.835v12.496h-3.615C48.43,58.423,49.648,53.916,51.275,49.835z M93.345,114.931
		c0,0.836-0.682,1.517-1.517,1.517H34.17c-0.835,0-1.515-0.681-1.515-1.517V68.401c0-0.837,0.68-1.518,1.515-1.518h57.658
		c0.835,0,1.517,0.681,1.517,1.518V114.931L93.345,114.931z"/>
	<path fill="#2B3D4F" d="M74.327,88.544v-6.22c0-6.115-4.978-11.089-11.09-11.089h-0.473c-6.113,0-11.088,4.974-11.088,11.089v6.22
		c-1.198,0.113-2.136,1.111-2.136,2.336v18.667c0,1.303,1.053,2.359,2.358,2.359h22.204c1.305,0,2.36-1.057,2.36-2.359V90.882
		C76.463,89.655,75.522,88.657,74.327,88.544z M64.876,101.445v6.395c0,0.604-0.49,1.096-1.092,1.096h-1.316
		c-0.607,0-1.095-0.492-1.095-1.096v-6.214c-0.794-0.527-1.315-1.427-1.315-2.452c0-1.626,1.32-2.944,2.945-2.944
		c1.628,0,2.945,1.317,2.945,2.944C65.946,100.09,65.532,100.905,64.876,101.445z M71.023,88.522H54.979v-6.197
		c0-4.292,3.493-7.786,7.784-7.786h0.473c4.292,0,7.787,3.495,7.787,7.786V88.522z"/>
	<circle fill="#2B3D4F" cx="62.981" cy="16.437" r="11.437"/>
</g>
</svg>
