<?xml version="1.0" encoding="utf-8"?>
<!-- Generator: Adobe Illustrator 15.1.0, SVG Export Plug-In . SVG Version: 6.00 Build 0)  -->
<!DOCTYPE svg PUBLIC "-//W3C//DTD SVG 1.1//EN" "http://www.w3.org/Graphics/SVG/1.1/DTD/svg11.dtd">
<svg version="1.1" id="Layer_1" xmlns="http://www.w3.org/2000/svg" xmlns:xlink="http://www.w3.org/1999/xlink" x="0px" y="0px"
	 width="24px" height="24px" viewBox="0 0 24 24" enable-background="new 0 0 24 24" xml:space="preserve">
<path fill="#2B3D4F" d="M23.4,11.05c0,0.524-0.425,0.95-0.95,0.95h-3.8c-0.437,0-0.814-0.296-0.923-0.719l-0.143-0.574l-0.55-1.652
	l-3.61,2.28l1.97,4.454l0.28,0.489c0.168,0.296,0.167,0.655-0.003,0.948c-0.171,0.294-0.484,0.474-0.822,0.474H8.2
	c-0.524,0-0.95-0.425-0.95-0.95S7.676,15.8,8.2,15.8h4.669l-3.244-4.56c-0.95-1.331-0.095-2.09,0.95-2.85l4.465-2.755l-2.329-2.119
	L8.386,4.381C7.871,4.483,7.371,4.15,7.269,3.636c-0.104-0.514,0.23-1.015,0.745-1.117l4.75-0.95
	c0.264-0.054,0.539,0.009,0.755,0.172l3.586,2.689c0.154,0.058,0.316,0.166,0.5,0.349l0.95,1.615l0.886,3.705h3.009
	C22.976,10.1,23.4,10.526,23.4,11.05z M20.075,5.35c1.312,0,2.375-1.063,2.375-2.375c0-1.312-1.063-2.375-2.375-2.375
	S17.7,1.663,17.7,2.975C17.7,4.287,18.764,5.35,20.075,5.35z M8.485,21.785c-0.38,0.38-0.38,0.949,0,1.33
	c0.19,0.19,0.38,0.285,0.665,0.285c0.285,0,0.475-0.095,0.666-0.285l4.94-4.465H11.62L8.485,21.785z M7.535,9.15H0.6v0.95h6.65
	C7.25,9.72,7.345,9.435,7.535,9.15z M10.955,6.3H0.6v0.95h8.835L10.955,6.3z M8.01,12H0.6v0.95h8.075L8.01,12z"/>
</svg>
