<?xml version="1.0" encoding="utf-8"?>
<!-- Generator: Adobe Illustrator 15.1.0, SVG Export Plug-In . SVG Version: 6.00 Build 0)  -->
<!DOCTYPE svg PUBLIC "-//W3C//DTD SVG 1.1//EN" "http://www.w3.org/Graphics/SVG/1.1/DTD/svg11.dtd">
<svg version="1.1" id="Layer_1" xmlns="http://www.w3.org/2000/svg" xmlns:xlink="http://www.w3.org/1999/xlink" x="0px" y="0px"
	 width="138.251px" height="103.031px" viewBox="0 0 138.251 103.031" enable-background="new 0 0 138.251 103.031"
	 xml:space="preserve">
<g>
	<defs>
		<path id="SVGID_1_" d="M20.738,51.583c6.125,36.925,7.525,37.665,15.75,35.04c25.9-9.101,57.049-3.15,63.349-1.226
			c10.326,4.9,9.801,1.05,13.826-10.149c4.025-11.2,3.85-23.665,3.85-23.665s0.175-12.465-3.85-23.665
			c-4.025-11.199-3.5-15.049-13.826-10.149c-6.3,1.925-37.449,7.875-63.349-1.225c-1.63-0.521-2.994-0.909-4.177-0.909
			C27.521,15.635,25.649,21.979,20.738,51.583"/>
	</defs>
	<clipPath id="SVGID_2_">
		<use xlink:href="#SVGID_1_"  overflow="visible"/>
	</clipPath>
	
		<linearGradient id="SVGID_3_" gradientUnits="userSpaceOnUse" x1="-112.4067" y1="408.5054" x2="-111.7068" y2="408.5054" gradientTransform="matrix(-83.9995 57.7496 57.7496 83.9995 -32924.0664 -27798.5977)">
		<stop  offset="0" style="stop-color:#1F5862"/>
		<stop  offset="1" style="stop-color:#1D1D1B"/>
	</linearGradient>
	<polygon clip-path="url(#SVGID_2_)" fill="url(#SVGID_3_)" points="153.835,65.447 51.854,135.559 -15.41,37.72 86.571,-32.392 	
		"/>
</g>
<g>
	<defs>
		<path id="SVGID_4_" d="M41.549,51.515c-0.112,4.062-0.981,27.325-6.403,36.061c0,0,20.417-6.02,33.017-5.574
			c12.6,0.446,19.251,0.334,30.1,4.682c0,0,0-1.895-1.049-4.682c-1.035-2.746-4.109-16.326-4.196-30.486
			c0.086-14.161,3.161-27.74,4.196-30.488c1.049-2.786,1.049-4.681,1.049-4.681c-10.849,4.348-17.5,4.235-30.1,4.681
			c-12.6,0.446-33.017-5.572-33.017-5.572C40.568,24.189,41.437,47.452,41.549,51.515"/>
	</defs>
	<clipPath id="SVGID_5_">
		<use xlink:href="#SVGID_4_"  overflow="visible"/>
	</clipPath>
	
		<linearGradient id="SVGID_6_" gradientUnits="userSpaceOnUse" x1="-114.5605" y1="405.7944" x2="-113.8608" y2="405.7944" gradientTransform="matrix(0 103.0313 103.0313 0 -41742.8359 11818.7813)">
		<stop  offset="0" style="stop-color:#EDEDED"/>
		<stop  offset="1" style="stop-color:#C7C6C6"/>
	</linearGradient>
	<rect x="35.146" y="15.455" clip-path="url(#SVGID_5_)" fill="url(#SVGID_6_)" width="63.116" height="72.121"/>
</g>
<text transform="matrix(-6.123234e-017 1 -1 -6.123234e-017 107.4492 44.3413)"><tspan x="0" y="0" fill="#FFFFFF" font-family="'AardvarkCafe'" font-size="9.3669">N</tspan><tspan x="6.032" y="0" fill="#FFFFFF" font-family="'AardvarkCafe'" font-size="9.3669">o</tspan><tspan x="11.071" y="0" fill="#FFFFFF" font-family="'AardvarkCafe'" font-size="9.3669">v</tspan><tspan x="15.39" y="0" fill="#FFFFFF" font-family="'AardvarkCafe'" font-size="9.3669">o</tspan></text>
<text transform="matrix(-6.123234e-017 1 -1 -6.123234e-017 98.5986 39.312)"><tspan x="0" y="0" fill="#FFFFFF" font-family="'AardvarkCafe'" font-size="9.3669">Pr</tspan><tspan x="7.652" y="0" fill="#FFFFFF" font-family="'AardvarkCafe'" font-size="9.3669">o</tspan><tspan x="12.805" y="0" fill="#FFFFFF" font-family="'AardvarkCafe'" font-size="9.3669">d</tspan><tspan x="18.031" y="0" fill="#FFFFFF" font-family="'AardvarkCafe'" font-size="9.3669">u</tspan><tspan x="23.052" y="0" fill="#FFFFFF" font-family="'AardvarkCafe'" font-size="9.3669">t</tspan><tspan x="26.087" y="0" fill="#FFFFFF" font-family="'AardvarkCafe'" font-size="9.3669">o</tspan></text>
<text transform="matrix(1 0 0 1 48.5811 54.3091)"><tspan x="0" y="0" fill="#010101" font-family="'AardvarkCafe'" font-size="8.4">D</tspan><tspan x="5.754" y="0" fill="#010101" font-family="'AardvarkCafe'" font-size="8.4">E</tspan><tspan x="10.357" y="0" fill="#010101" font-family="'AardvarkCafe'" font-size="8.4">S</tspan><tspan x="14.918" y="0" fill="#010101" font-family="'AardvarkCafe'" font-size="8.4">C</tspan><tspan x="20.378" y="0" fill="#010101" font-family="'AardvarkCafe'" font-size="8.4">U</tspan><tspan x="26.191" y="0" fill="#010101" font-family="'AardvarkCafe'" font-size="8.4">B</tspan><tspan x="30.886" y="0" fill="#010101" font-family="'AardvarkCafe'" font-size="8.4">R</tspan><tspan x="35.456" y="0" fill="#010101" font-family="'AardvarkCafe'" font-size="8.4">A</tspan></text>
</svg>
