<?xml version="1.0" encoding="utf-8"?>
<!-- Generator: Adobe Illustrator 15.1.0, SVG Export Plug-In . SVG Version: 6.00 Build 0)  -->
<!DOCTYPE svg PUBLIC "-//W3C//DTD SVG 1.1//EN" "http://www.w3.org/Graphics/SVG/1.1/DTD/svg11.dtd">
<svg version="1.1" id="Capa_1" xmlns="http://www.w3.org/2000/svg" xmlns:xlink="http://www.w3.org/1999/xlink" x="0px" y="0px"
	 width="500px" height="400px" viewBox="0 0 500 400" enable-background="new 0 0 500 400" xml:space="preserve">
<path fill="#2C3E50" d="M333.7,123.068V96.421H168.006v26.645h8.12v11.655h-8.12v26.645H333.7v-26.645h-9.366v-11.655h9.366V123.068
	z M197.561,150.45h-11.518v-11.267h11.518V150.45z M197.561,134.376h-11.518V123.11h11.518V134.376z M197.561,118.601h-11.518
	v-11.266h11.518V118.601z M214.586,150.45H203.07v-11.267h11.516V150.45L214.586,150.45z M214.586,134.376H203.07V123.11h11.516
	V134.376L214.586,134.376z M214.586,118.601H203.07v-11.266h11.516V118.601L214.586,118.601z M231.361,150.45h-11.515v-11.267
	h11.515V150.45z M231.361,134.376h-11.515V123.11h11.515V134.376z M231.361,118.601h-11.515v-11.266h11.515V118.601z
	 M247.965,150.45h-11.516v-11.267h11.516V150.45z M247.965,134.376h-11.516V123.11h11.516V134.376z M247.965,118.601h-11.516
	v-11.266h11.516V118.601z M264.991,150.45h-11.515v-11.267h11.515V150.45z M264.991,134.376h-11.515V123.11h11.515V134.376z
	 M264.991,118.601h-11.515v-11.266h11.515V118.601z M281.766,150.45H270.25v-11.267h11.516V150.45z M281.766,134.376H270.25V123.11
	h11.516V134.376z M281.766,118.601H270.25v-11.266h11.516V118.601z M307.532,150.126h-14.868v-6.871h14.868V150.126z
	 M300.043,130.839c-6.559,0-11.871-5.313-11.871-11.863c0-6.55,5.313-11.865,11.871-11.865c6.551,0,11.863,5.313,11.863,11.865
	C311.906,125.528,306.596,130.839,300.043,130.839z M307.532,118.902c0,4.107-3.326,7.437-7.433,7.437
	c-4.105,0-7.437-3.33-7.437-7.437c0-4.105,3.33-7.432,7.437-7.432S307.532,114.797,307.532,118.902z M168.006,196.077h8.12v11.655
	h-8.12v26.646H333.7V207.73h-9.366v-11.653h9.366v-26.645H168.006V196.077z M307.532,223.136h-14.868v-6.87h14.868V223.136z
	 M300.043,180.123c6.551,0,11.863,5.313,11.863,11.863c0,6.552-5.311,11.864-11.863,11.864c-6.559,0-11.871-5.313-11.871-11.864
	C288.178,185.437,293.484,180.123,300.043,180.123z M270.25,180.344h11.516v11.269H270.25V180.344z M270.25,196.119h11.516v11.27
	H270.25V196.119z M270.25,212.195h11.516v11.27H270.25V212.195z M253.477,180.344h11.516v11.269h-11.516V180.344z M253.477,196.119
	h11.516v11.27h-11.516V196.119z M253.477,212.195h11.516v11.27h-11.516V212.195z M236.449,180.344h11.516v11.269h-11.516V180.344z
	 M236.449,196.119h11.516v11.27h-11.516V196.119z M236.449,212.195h11.516v11.27h-11.516V212.195z M219.847,180.344h11.515v11.269
	h-11.515V180.344z M219.847,196.119h11.515v11.27h-11.515V196.119z M219.847,212.195h11.515v11.27h-11.515V212.195z
	 M203.067,180.344h11.517v11.269h-11.517V180.344z M203.067,196.119h11.517v11.27h-11.517V196.119z M203.067,212.195h11.517v11.27
	h-11.517V212.195z M186.042,180.344h11.518v11.269h-11.518V180.344z M186.042,196.119h11.518v11.27h-11.518V196.119z
	 M186.042,212.195h11.518v11.27h-11.518V212.195z M292.664,191.913c0-4.104,3.33-7.43,7.438-7.43c4.104,0,7.432,3.326,7.432,7.43
	s-3.326,7.437-7.432,7.437C295.994,199.347,292.664,196.017,292.664,191.913z M168.006,267.752h8.12v11.658h-8.12v26.644H333.7
	V279.41h-9.366v-11.658h9.366v-26.645H168.006V267.752z M307.532,294.811h-14.868v-6.867h14.868V294.811z M300.043,251.8
	c6.551,0,11.863,5.313,11.863,11.866c0,6.547-5.311,11.864-11.863,11.864c-6.559,0-11.871-5.313-11.871-11.864
	C288.178,257.111,293.484,251.8,300.043,251.8z M270.25,252.021h11.516v11.27H270.25V252.021z M270.25,267.796h11.516v11.265H270.25
	V267.796z M270.25,283.871h11.516v11.268H270.25V283.871z M253.477,252.021h11.516v11.27h-11.516V252.021z M253.477,267.796h11.516
	v11.265h-11.516V267.796z M253.477,283.871h11.516v11.268h-11.516V283.871z M236.449,252.021h11.516v11.27h-11.516V252.021z
	 M236.449,267.796h11.516v11.265h-11.516V267.796z M236.449,283.871h11.516v11.268h-11.516V283.871z M219.847,252.021h11.515v11.27
	h-11.515V252.021z M219.847,267.796h11.515v11.265h-11.515V267.796z M219.847,283.871h11.515v11.268h-11.515V283.871z
	 M203.067,252.021h11.517v11.27h-11.517V252.021z M203.067,267.796h11.517v11.265h-11.517V267.796z M203.067,283.871h11.517v11.268
	h-11.517V283.871z M186.042,252.021h11.518v11.27h-11.518V252.021z M186.042,267.796h11.518v11.265h-11.518V267.796z
	 M186.042,283.871h11.518v11.268h-11.518V283.871z M292.664,263.589c0-4.104,3.33-7.43,7.438-7.43c4.104,0,7.432,3.323,7.432,7.43
	c0,4.104-3.326,7.437-7.432,7.437C295.994,271.025,292.664,267.693,292.664,263.589z"/>
<circle fill="none" stroke="#2C3E50" stroke-width="4" stroke-miterlimit="10" cx="250" cy="200" r="194.5"/>
</svg>
