<?xml version="1.0" encoding="utf-8"?>
<!-- Generator: Adobe Illustrator 15.1.0, SVG Export Plug-In . SVG Version: 6.00 Build 0)  -->
<!DOCTYPE svg PUBLIC "-//W3C//DTD SVG 1.1//EN" "http://www.w3.org/Graphics/SVG/1.1/DTD/svg11.dtd">
<svg version="1.1" id="Layer_1" xmlns="http://www.w3.org/2000/svg" xmlns:xlink="http://www.w3.org/1999/xlink" x="0px" y="0px"
	 width="34.832px" height="34.832px" viewBox="0 0 34.832 34.832" enable-background="new 0 0 34.832 34.832" xml:space="preserve">
<path fill="#676767" d="M17.501,0.955C8.364,0.955,0.955,8.364,0.955,17.5c0,9.138,7.409,16.545,16.546,16.545
	c9.136,0,16.544-7.407,16.544-16.545C34.045,8.361,26.637,0.955,17.501,0.955 M21.777,17.498L19.064,17.5l-0.002,9.928h-3.721V17.5
	h-2.482v-3.421l2.482-0.001l-0.004-2.015c0-2.792,0.758-4.49,4.044-4.49h2.74v3.423h-1.713c-1.283,0-1.343,0.478-1.343,1.37
	l-0.004,1.712h3.076L21.777,17.498z"/>
</svg>
