<?xml version="1.0" encoding="utf-8"?>
<!-- Generator: Adobe Illustrator 15.1.0, SVG Export Plug-In . SVG Version: 6.00 Build 0)  -->
<!DOCTYPE svg PUBLIC "-//W3C//DTD SVG 1.1//EN" "http://www.w3.org/Graphics/SVG/1.1/DTD/svg11.dtd">
<svg version="1.1" id="Layer_1" xmlns="http://www.w3.org/2000/svg" xmlns:xlink="http://www.w3.org/1999/xlink" x="0px" y="0px"
	 width="35px" height="35px" viewBox="0 0 35 35" enable-background="new 0 0 35 35" xml:space="preserve">
<path fill="#676767" d="M17.5,0.875C8.318,0.875,0.875,8.319,0.875,17.5c0,9.182,7.443,16.625,16.625,16.625
	S34.125,26.682,34.125,17.5C34.125,8.317,26.682,0.875,17.5,0.875 M13.344,25.553H9.188V11.006h4.156V25.553z M11.395,10.115
	c-1.078,0-1.947-0.872-1.947-1.95c0-1.075,0.872-1.949,1.947-1.949c1.077,0.002,1.949,0.875,1.949,1.949
	C13.344,9.243,12.472,10.115,11.395,10.115 M27.891,25.553h-4.156v-8.994c0-1.054-0.299-1.791-1.595-1.791
	c-2.146,0-2.562,1.791-2.562,1.791v8.994h-4.156V11.006h4.156v1.39c0.596-0.455,2.079-1.387,4.156-1.387
	c1.347,0,4.156,0.807,4.156,5.677V25.553z"/>
</svg>
