<?xml version="1.0" encoding="utf-8"?>
<!-- Generator: Adobe Illustrator 15.1.0, SVG Export Plug-In . SVG Version: 6.00 Build 0)  -->
<!DOCTYPE svg PUBLIC "-//W3C//DTD SVG 1.1//EN" "http://www.w3.org/Graphics/SVG/1.1/DTD/svg11.dtd">
<svg version="1.1" id="Layer_1" xmlns="http://www.w3.org/2000/svg" xmlns:xlink="http://www.w3.org/1999/xlink" x="0px" y="0px"
	 width="35px" height="35px" viewBox="0 0 35 35" enable-background="new 0 0 35 35" xml:space="preserve">
<path fill="#676767" d="M17.5,0.875C8.318,0.875,0.875,8.318,0.875,17.5c0,9.183,7.443,16.625,16.625,16.625
	c9.183,0,16.625-7.442,16.625-16.625C34.125,8.318,26.683,0.875,17.5,0.875 M15.48,22.597c0.559,0.575,1.236,0.863,2.034,0.863
	h5.739c0.796,0,1.481,0.295,2.049,0.883c0.571,0.587,0.854,1.29,0.854,2.112c0,0.821-0.285,1.526-0.854,2.113
	c-0.568,0.586-1.249,0.881-2.047,0.881h-5.739c-2.39,0-4.433-0.875-6.128-2.627c-1.697-1.75-2.544-3.859-2.544-6.325V8.549
	c0-0.846,0.282-1.556,0.849-2.133c0.564-0.575,1.254-0.864,2.068-0.864c0.791,0,1.471,0.293,2.036,0.882
	c0.564,0.586,0.848,1.289,0.848,2.113v2.993h8.602c0.798,0,1.484,0.294,2.057,0.881c0.571,0.586,0.854,1.29,0.854,2.114
	c0,0.821-0.285,1.525-0.854,2.111c-0.568,0.588-1.253,0.881-2.047,0.881h-8.61v2.967C14.645,21.318,14.923,22.019,15.48,22.597"/>
</svg>
