<?xml version="1.0" encoding="utf-8"?>
<!-- Generator: Adobe Illustrator 15.1.0, SVG Export Plug-In . SVG Version: 6.00 Build 0)  -->
<!DOCTYPE svg PUBLIC "-//W3C//DTD SVG 1.1//EN" "http://www.w3.org/Graphics/SVG/1.1/DTD/svg11.dtd">
<svg version="1.1" id="Capa_1" xmlns="http://www.w3.org/2000/svg" xmlns:xlink="http://www.w3.org/1999/xlink" x="0px" y="0px"
	 width="500px" height="400px" viewBox="0 0 500 400" enable-background="new 0 0 500 400" xml:space="preserve">
<circle fill="none" stroke="#2C3E50" stroke-width="4" stroke-miterlimit="10" cx="249.563" cy="201.098" r="194.5"/>
<g>
	<path fill="#2C3E50" d="M240.101,243.759H124.863v-98.863l95.414,67.99c3.303,2.392,7.994,2.392,11.296,0.056l95.377-68.046v46.611
		c0.653,0.239,1.371,0.351,1.987,0.683c6.862,3.67,11.094,10.707,11.094,18.472v6.548c2.162,0.536,4.305,1.096,6.412,1.748V126
		c0-0.524-0.037-0.965-0.102-1.407c0.064-0.515,0.102-1.012,0.102-1.555v-11.637c0-5.372-4.343-9.724-9.732-9.724H115.13
		c-5.39,0-9.741,4.352-9.741,9.724v12.106c0,0.478,0.028,0.948,0.101,1.343c-0.063,0.387-0.101,0.754-0.101,1.159v127.526
		c0,5.328,4.36,9.706,9.741,9.706h127.96c-2.694-3.55-4.341-7.893-4.341-12.548C238.749,248.285,239.31,245.985,240.101,243.759z
		 M322.7,121.152l-96.784,70.163l-97.4-70.163H322.7z"/>
	<path fill="#2C3E50" d="M324.098,231.755v-24.103c0-1.186-0.625-2.262-1.655-2.861c-1.104-0.552-2.393-0.517-3.33,0.175
		l-66.639,44.809c-0.9,0.671-1.436,1.639-1.436,2.704c0,1.058,0.552,2.079,1.436,2.642l66.62,44.826
		c0.956,0.69,2.234,0.745,3.275,0.222c1.05-0.598,1.712-1.702,1.712-2.87v-25.94c10.495,0.072,19.142,0.552,26.381,1.396
		c34.646,4.122,36.715,24.922,37.103,25.796c0.485,1.194,1.71,1.968,2.97,1.968c0.203,0,0.424,0,0.606-0.074
		c1.521-0.294,2.597-1.618,2.597-3.155C393.737,244.826,338.597,233.585,324.098,231.755z"/>
</g>
</svg>
