<?xml version="1.0" encoding="utf-8"?>
<!-- Generator: Adobe Illustrator 15.1.0, SVG Export Plug-In . SVG Version: 6.00 Build 0)  -->
<!DOCTYPE svg PUBLIC "-//W3C//DTD SVG 1.1//EN" "http://www.w3.org/Graphics/SVG/1.1/DTD/svg11.dtd">
<svg version="1.1" id="Capa_1" xmlns="http://www.w3.org/2000/svg" xmlns:xlink="http://www.w3.org/1999/xlink" x="0px" y="0px"
	 width="202.55px" height="202.55px" viewBox="-28.275 -87.998 202.55 202.55"
	 enable-background="new -28.275 -87.998 202.55 202.55" xml:space="preserve">
<g id="_x32_37._Locked">
	<g>
		<path fill="#2C3E50" d="M105.5-0.267v-16.248c0-17.95-14.553-32.5-32.5-32.5c-17.951,0-32.5,14.55-32.5,32.5v16.248
			c-5.982,0-10.834,4.851-10.834,10.833v54.169c0,5.983,4.852,10.834,10.834,10.834h65c5.982,0,10.834-4.851,10.834-10.834V10.566
			C116.334,4.584,111.482-0.267,105.5-0.267z M51.332-16.515c0-11.968,9.703-21.667,21.668-21.667
			c11.967,0,21.666,9.699,21.666,21.667v16.248H51.332V-16.515z M105.5,64.735h-65V10.569h65V64.735z M67.584,41.566v6.919
			c0,2.988,2.428,5.417,5.416,5.417s5.416-2.429,5.416-5.417v-6.919c3.223-1.877,5.418-5.332,5.418-9.33
			c0-5.985-4.852-10.837-10.834-10.837s-10.832,4.852-10.832,10.837C62.168,36.234,64.363,39.689,67.584,41.566z"/>
	</g>
</g>
<circle fill="none" stroke="#2C3E50" stroke-width="4" stroke-miterlimit="10" cx="73" cy="13.277" r="99.275"/>
</svg>
