<?xml version="1.0" encoding="utf-8"?>
<!-- Generator: Adobe Illustrator 15.1.0, SVG Export Plug-In . SVG Version: 6.00 Build 0)  -->
<!DOCTYPE svg PUBLIC "-//W3C//DTD SVG 1.1//EN" "http://www.w3.org/Graphics/SVG/1.1/DTD/svg11.dtd">
<svg version="1.1" id="Layer_1" xmlns="http://www.w3.org/2000/svg" xmlns:xlink="http://www.w3.org/1999/xlink" x="0px" y="0px"
	 width="177.855px" height="194.018px" viewBox="0 0 177.855 194.018" enable-background="new 0 0 177.855 194.018"
	 xml:space="preserve">
<path fill="#C6C6C6" d="M88.927,97.009c12.055,0,22.341-4.265,30.866-12.79c8.528-8.525,12.791-18.813,12.791-30.865
	c0-12.05-4.263-22.338-12.791-30.865c-8.526-8.525-18.815-12.788-30.866-12.788c-12.05,0-22.339,4.262-30.865,12.788
	c-8.526,8.527-12.79,18.815-12.79,30.865c0,12.052,4.264,22.34,12.79,30.865C66.589,92.744,76.877,97.009,88.927,97.009z"/>
<g>
	<path fill="#C6C6C6" d="M129.988,165.174c0,10.555,8.744,19.143,19.485,19.143c10.749,0,19.489-8.588,19.489-19.143
		s-8.74-19.14-19.489-19.14C138.731,146.035,129.988,154.62,129.988,165.174z M134.282,165.174c0-8.228,6.815-14.925,15.191-14.925
		c8.383,0,15.199,6.697,15.199,14.925c0,8.231-6.815,14.926-15.199,14.926C141.097,180.1,134.282,173.406,134.282,165.174z"/>
	<path fill="#C6C6C6" d="M152.178,175.489c0.004-2.287,0.004-8.271,0.004-8.271s5.246,0,7.844,0v-4.751c-2.598,0-7.844,0-7.844,0
		s-0.004-5.989,0-8.268h-4.837c-0.003,2.277,0,8.268,0,8.268s-5.248,0-7.846,0.008v4.746c2.598-0.003,7.846-0.003,7.846-0.003
		s0,5.983-0.003,8.271H152.178L152.178,175.489z"/>
</g>
<path fill="#C6C6C6" d="M119.481,165.173c0-15.545,13.458-28.191,29.991-28.191c7.257,0,13.915,2.433,19.107,6.474
	c-0.009-0.115-0.011-0.234-0.019-0.35c-0.268-3.827-0.798-7.957-1.592-12.392c-0.798-4.434-1.802-8.546-3.017-12.334
	c-1.212-3.788-2.843-7.484-4.889-11.084c-2.047-3.601-4.396-6.67-7.051-9.208c-2.654-2.54-5.892-4.566-9.718-6.081
	c-3.829-1.517-8.054-2.274-12.678-2.274c-0.684,0-2.273,0.814-4.775,2.444c-2.499,1.631-5.324,3.449-8.47,5.457
	c-3.143,2.006-7.237,3.827-12.277,5.454c-5.038,1.633-10.097,2.445-15.177,2.445c-5.078,0-10.136-0.813-15.174-2.445
	c-5.041-1.627-9.133-3.446-12.28-5.454c-3.145-2.009-5.968-3.828-8.468-5.457c-2.5-1.63-4.093-2.444-4.775-2.444
	c-4.622,0-8.849,0.758-12.675,2.274c-3.828,1.515-7.067,3.543-9.721,6.081c-2.652,2.538-5.003,5.607-7.048,9.208
	c-2.046,3.6-3.675,7.296-4.889,11.084c-1.213,3.788-2.217,7.9-3.014,12.334c-0.796,4.435-1.326,8.563-1.592,12.392
	c-0.258,3.83-0.391,7.751-0.391,11.77c0,9.094,2.767,16.274,8.301,21.544c5.532,5.268,12.884,7.897,22.055,7.897h88.233
	C122.521,179.285,119.481,172.558,119.481,165.173z"/>
</svg>
