<?xml version="1.0" encoding="utf-8"?>
<!-- Generator: Adobe Illustrator 15.1.0, SVG Export Plug-In . SVG Version: 6.00 Build 0)  -->
<!DOCTYPE svg PUBLIC "-//W3C//DTD SVG 1.1//EN" "http://www.w3.org/Graphics/SVG/1.1/DTD/svg11.dtd">
<svg version="1.1" id="Layer_1" xmlns="http://www.w3.org/2000/svg" xmlns:xlink="http://www.w3.org/1999/xlink" x="0px" y="0px"
	 width="177.855px" height="194.018px" viewBox="0 0 177.855 194.018" enable-background="new 0 0 177.855 194.018"
	 xml:space="preserve">
<g>
	<path fill="#C6C6C6" d="M88.927,97.009c12.054,0,22.341-4.265,30.865-12.79c8.528-8.525,12.791-18.813,12.791-30.865
		c0-12.05-4.263-22.338-12.791-30.865c-8.525-8.525-18.814-12.788-30.865-12.788c-12.05,0-22.339,4.262-30.865,12.788
		c-8.526,8.527-12.79,18.815-12.79,30.865c0,12.052,4.264,22.34,12.79,30.865C66.589,92.744,76.877,97.009,88.927,97.009z"/>
	<path fill="#C6C6C6" d="M168.561,143.107c-0.267-3.827-0.797-7.957-1.591-12.392c-0.797-4.434-1.802-8.546-3.016-12.335
		c-1.212-3.788-2.843-7.483-4.889-11.083c-2.047-3.601-4.396-6.671-7.051-9.209c-2.654-2.54-5.893-4.566-9.718-6.081
		c-3.83-1.516-8.054-2.274-12.678-2.274c-0.683,0-2.273,0.814-4.775,2.444c-2.499,1.63-5.323,3.449-8.469,5.457
		c-3.144,2.007-7.237,3.827-12.277,5.454c-5.039,1.632-10.097,2.445-15.177,2.445c-5.077,0-10.135-0.813-15.175-2.445
		c-5.04-1.627-9.133-3.446-12.279-5.454c-3.145-2.009-5.968-3.828-8.468-5.457c-2.501-1.63-4.093-2.444-4.775-2.444
		c-4.622,0-8.849,0.758-12.674,2.274c-3.828,1.515-7.067,3.543-9.721,6.081c-2.653,2.538-5.003,5.608-7.048,9.209
		c-2.046,3.6-3.674,7.295-4.887,11.083c-1.214,3.789-2.218,7.901-3.014,12.335c-0.796,4.435-1.326,8.563-1.591,12.392
		c-0.262,3.829-0.395,7.75-0.395,11.769c0,9.093,2.767,16.274,8.3,21.543c5.533,5.268,12.885,7.898,22.055,7.898h99.36
		c9.169,0,16.521-2.632,22.054-7.898c5.534-5.269,8.302-12.447,8.302-21.543C168.963,150.857,168.829,146.934,168.561,143.107z"/>
</g>
</svg>
