<?xml version="1.0" encoding="utf-8"?>
<!-- Generator: Adobe Illustrator 15.1.0, SVG Export Plug-In . SVG Version: 6.00 Build 0)  -->
<!DOCTYPE svg PUBLIC "-//W3C//DTD SVG 1.1//EN" "http://www.w3.org/Graphics/SVG/1.1/DTD/svg11.dtd">
<svg version="1.1" id="Layer_1" xmlns="http://www.w3.org/2000/svg" xmlns:xlink="http://www.w3.org/1999/xlink" x="0px" y="0px"
	 width="366.251px" height="224.007px" viewBox="0 0 366.251 224.007" enable-background="new 0 0 366.251 224.007"
	 xml:space="preserve">
<path fill="#FFFFFF" stroke="#95979A" stroke-width="2" stroke-miterlimit="10" d="M359.143,158.798
	c0,5.658-4.588,10.246-10.246,10.246H18.164c-5.659,0-10.247-4.588-10.247-10.246V66.58c0-5.659,4.587-10.247,10.247-10.247h330.732
	c5.658,0,10.246,4.587,10.246,10.247V158.798z"/>
<g>
	<path d="M48.969,109.938H32.482v5.41h15.701c2.462,0,4.125,0.421,4.992,1.262c0.865,0.843,1.297,2.406,1.297,4.692v3.457
		c0,2.287-0.432,3.852-1.297,4.692c-0.866,0.843-2.53,1.264-4.992,1.264H32.625c-2.462,0-4.125-0.421-4.991-1.264
		c-0.865-0.84-1.298-2.405-1.298-4.692v-1.764h5.169v2.979h17.798v-5.743H33.602c-2.446,0-4.098-0.419-4.956-1.262
		c-0.857-0.842-1.287-2.408-1.287-4.695v-2.788c0-2.285,0.43-3.851,1.287-4.693c0.858-0.84,2.51-1.262,4.956-1.262h14.295
		c2.367,0,3.999,0.405,4.896,1.214c0.897,0.811,1.346,2.248,1.346,4.312v1.74h-5.17L48.969,109.938L48.969,109.938z"/>
	<path d="M64.729,111.487c0-2.286,0.43-3.851,1.287-4.694c0.857-0.839,2.51-1.261,4.956-1.261h18.536
		c2.445,0,4.098,0.422,4.956,1.261c0.858,0.843,1.286,2.408,1.286,4.694v13.271c0,2.304-0.429,3.871-1.286,4.704
		c-0.857,0.834-2.511,1.251-4.956,1.251H70.971c-2.446,0-4.099-0.417-4.956-1.251c-0.857-0.835-1.286-2.4-1.286-4.704
		L64.729,111.487L64.729,111.487z M70.59,125.974h19.323v-15.939H70.59V125.974z"/>
	<path d="M106.374,130.714v-25.182h25.468v4.406h-19.607v6.626h10.603v4.597h-10.603v9.554H106.374L106.374,130.714z"/>
	<path d="M154.975,110.034v20.681h-5.86v-20.681h-11.556v-4.502h29.019v4.502H154.975z"/>
	<path d="M174.842,130.714v-25.182h5.86v20.442h18.895v4.74H174.842z"/>
	<path d="M206.322,130.714l14.248-25.182h5.646l14.439,25.182h-6.576l-3.026-5.502h-15.961l-2.93,5.502H206.322z M217.592,120.659
		h11.032l-5.432-10.244L217.592,120.659z"/>
	<path d="M252.521,130.714v-11.269l-13.08-13.914h7.813l8.648,9.673l8.672-9.673h6.887L258.429,119.3v11.414H252.521z"/>
	<path d="M311.645,130.714v-25.182h21.538c2.002,0,3.45,0.385,4.348,1.154c0.897,0.771,1.346,2.013,1.346,3.729v5.908
		c0,1.7-0.448,2.938-1.346,3.717c-0.897,0.779-2.346,1.17-4.348,1.17h-3.288l11.625,9.504h-8.409l-10.148-9.504h-5.551v9.504
		H311.645z M330.586,109.89h-13.174v7.006h13.174c1.017,0,1.711-0.146,2.083-0.441c0.374-0.294,0.561-0.813,0.561-1.56v-3.027
		c0-0.73-0.187-1.242-0.561-1.535C332.297,110.039,331.603,109.89,330.586,109.89z"/>
</g>
<rect x="277.686" y="105.532" fill="#A91E23" width="25.612" height="4.664"/>
<rect x="277.686" y="115.79" width="25.612" height="4.665"/>
<rect x="277.686" y="126.05" fill="#A91E23" width="25.612" height="4.665"/>
<rect x="27.898" y="75.667" fill="none" width="115.734" height="16.318"/>
<text transform="matrix(1 0 0 1 27.8984 88.7578)" font-family="'OpenSans'" font-size="17.2242">POWERED BY</text>
</svg>
