<?xml version="1.0" encoding="utf-8"?>
<!-- Generator: Adobe Illustrator 15.1.0, SVG Export Plug-In . SVG Version: 6.00 Build 0)  -->
<!DOCTYPE svg PUBLIC "-//W3C//DTD SVG 1.1//EN" "http://www.w3.org/Graphics/SVG/1.1/DTD/svg11.dtd">
<svg version="1.1" id="Layer_1" xmlns="http://www.w3.org/2000/svg" xmlns:xlink="http://www.w3.org/1999/xlink" x="0px" y="0px"
	 width="153px" height="48.105px" viewBox="0 0 153 48.105" enable-background="new 0 0 153 48.105" xml:space="preserve">
<g>
	<defs>
		<path id="SVGID_1_" d="M6.805,0C3.047,0,0,3.487,0,7.787v32.531c0,4.301,3.047,7.787,6.805,7.787h139.39
			c3.758,0,6.805-3.486,6.805-7.787V7.787c0-4.3-3.047-7.787-6.805-7.787H6.805z"/>
	</defs>
	<clipPath id="SVGID_2_">
		<use xlink:href="#SVGID_1_"  overflow="visible"/>
	</clipPath>
	
		<linearGradient id="SVGID_3_" gradientUnits="userSpaceOnUse" x1="-346.7866" y1="352.0288" x2="-345.6421" y2="352.0288" gradientTransform="matrix(-1.800000e-006 42.0234 42.0234 1.800000e-006 -14716.9746 14573.1445)">
		<stop  offset="0" style="stop-color:#D5D7D8"/>
		<stop  offset="1" style="stop-color:#B3B5B8"/>
	</linearGradient>
	<rect clip-path="url(#SVGID_2_)" fill="url(#SVGID_3_)" width="153" height="48.105"/>
</g>
<g>
	<defs>
		<path id="SVGID_4_" d="M109.418,24.25c0,10.459,8.475,18.936,18.935,18.936c10.455,0,18.931-8.477,18.931-18.936
			c0-10.456-8.476-18.932-18.931-18.932C117.893,5.319,109.418,13.794,109.418,24.25"/>
	</defs>
	<clipPath id="SVGID_5_">
		<use xlink:href="#SVGID_4_"  overflow="visible"/>
	</clipPath>
	
		<linearGradient id="SVGID_6_" gradientUnits="userSpaceOnUse" x1="-346.9683" y1="352.1421" x2="-345.8994" y2="352.1421" gradientTransform="matrix(-1.500000e-006 35.4346 35.4346 1.500000e-006 -12349.6807 12299.9805)">
		<stop  offset="0" style="stop-color:#EBEBEC"/>
		<stop  offset="1" style="stop-color:#FFFFFF"/>
	</linearGradient>
	<rect x="109.418" y="5.319" clip-path="url(#SVGID_5_)" fill="url(#SVGID_6_)" width="37.865" height="37.867"/>
</g>
<g>
	<defs>
		<path id="SVGID_7_" d="M110.396,24.25c0-9.898,8.055-17.951,17.956-17.951c9.897,0,17.951,8.053,17.951,17.951
			c0,9.9-8.054,17.955-17.951,17.955C118.451,42.206,110.396,34.151,110.396,24.25 M108.44,24.25
			c0,10.979,8.932,19.913,19.912,19.913c10.981,0,19.912-8.934,19.912-19.913c0-10.979-8.931-19.912-19.912-19.912
			C117.372,4.338,108.44,13.272,108.44,24.25"/>
	</defs>
	<clipPath id="SVGID_8_">
		<use xlink:href="#SVGID_7_"  overflow="visible"/>
	</clipPath>
	
		<linearGradient id="SVGID_9_" gradientUnits="userSpaceOnUse" x1="-346.9077" y1="352.1274" x2="-345.8394" y2="352.1274" gradientTransform="matrix(-1.600000e-006 36.9983 36.9983 1.600000e-006 -12899.7832 12839.4199)">
		<stop  offset="0" style="stop-color:#B3B5B8"/>
		<stop  offset="1" style="stop-color:#D5D7D8"/>
	</linearGradient>
	<rect x="108.44" y="4.338" clip-path="url(#SVGID_8_)" fill="url(#SVGID_9_)" width="39.824" height="39.825"/>
</g>
<g>
	<path d="M10.759,12.367H8.64v1.367h2.367v1.068H7.341V9.043h3.546v1.067H8.64v1.196h2.119V12.367z"/>
	<path d="M11.881,13.673c0.239,0.146,0.735,0.309,1.12,0.309c0.393,0,0.555-0.129,0.555-0.342c0-0.222-0.128-0.325-0.607-0.487
		c-0.872-0.291-1.205-0.761-1.196-1.256c0-0.786,0.666-1.376,1.7-1.376c0.487,0,0.915,0.12,1.17,0.247l-0.222,0.897
		c-0.188-0.102-0.555-0.238-0.906-0.238c-0.316,0-0.495,0.128-0.495,0.333s0.162,0.308,0.675,0.487
		c0.794,0.273,1.119,0.684,1.128,1.289c0,0.786-0.607,1.359-1.803,1.359c-0.547,0-1.034-0.129-1.351-0.3L11.881,13.673z"/>
	<path d="M17.053,9.497v1.127h0.931v0.957h-0.931v1.513c0,0.504,0.128,0.735,0.512,0.735c0.18,0,0.265-0.01,0.385-0.035l0.008,0.982
		c-0.162,0.061-0.479,0.111-0.837,0.111c-0.419,0-0.769-0.145-0.983-0.358c-0.239-0.248-0.359-0.649-0.359-1.239v-1.709h-0.556
		v-0.957h0.556V9.846L17.053,9.497z"/>
	<path d="M18.738,12c0-0.615-0.009-1.018-0.035-1.376h1.111l0.051,0.769h0.034c0.213-0.614,0.718-0.871,1.128-0.871
		c0.12,0,0.179,0.009,0.273,0.026v1.221c-0.103-0.017-0.205-0.033-0.35-0.033c-0.479,0-0.803,0.256-0.889,0.657
		c-0.018,0.086-0.026,0.188-0.026,0.29v2.12h-1.298V12z"/>
	<path d="M25.899,13.46c0,0.547,0.017,0.991,0.034,1.342h-1.127l-0.06-0.59H24.72c-0.162,0.257-0.555,0.684-1.307,0.684
		c-0.855,0-1.47-0.53-1.47-1.82v-2.452h1.299v2.248c0,0.605,0.197,0.974,0.658,0.974c0.359,0,0.572-0.248,0.649-0.453
		c0.034-0.077,0.051-0.171,0.051-0.282v-2.486h1.299V13.46z"/>
	<path d="M28.397,9.497v1.127h0.931v0.957h-0.931v1.513c0,0.504,0.128,0.735,0.513,0.735c0.179,0,0.265-0.01,0.384-0.035
		l0.008,0.982c-0.162,0.061-0.479,0.111-0.837,0.111c-0.419,0-0.769-0.145-0.982-0.358c-0.24-0.248-0.359-0.649-0.359-1.239v-1.709
		h-0.556v-0.957h0.556V9.846L28.397,9.497z"/>
	<path d="M34.021,13.46c0,0.547,0.017,0.991,0.034,1.342h-1.128l-0.06-0.59h-0.025c-0.162,0.257-0.555,0.684-1.307,0.684
		c-0.854,0-1.47-0.53-1.47-1.82v-2.452h1.298v2.248c0,0.605,0.197,0.974,0.658,0.974c0.359,0,0.572-0.248,0.649-0.453
		c0.035-0.077,0.052-0.171,0.052-0.282v-2.486h1.299V13.46z"/>
	<path d="M35.066,12c0-0.615-0.009-1.018-0.035-1.376h1.111l0.051,0.769h0.034c0.213-0.614,0.718-0.871,1.128-0.871
		c0.12,0,0.179,0.009,0.273,0.026v1.221c-0.103-0.017-0.205-0.033-0.35-0.033c-0.479,0-0.803,0.256-0.889,0.657
		c-0.018,0.086-0.026,0.188-0.026,0.29v2.12h-1.298V12z"/>
	<path d="M41.698,13.793c0,0.394,0.017,0.777,0.069,1.009h-1.171l-0.077-0.419h-0.026c-0.273,0.333-0.701,0.513-1.196,0.513
		c-0.846,0-1.35-0.615-1.35-1.282c0-1.085,0.974-1.598,2.452-1.598v-0.051c0-0.23-0.12-0.547-0.761-0.547
		c-0.427,0-0.88,0.146-1.153,0.316l-0.239-0.838c0.291-0.162,0.863-0.376,1.623-0.376c1.393,0,1.829,0.82,1.829,1.812V13.793z
		 M40.442,12.829c-0.684,0-1.213,0.161-1.213,0.657c0,0.333,0.222,0.496,0.513,0.496c0.315,0,0.589-0.214,0.674-0.479
		c0.018-0.067,0.026-0.145,0.026-0.221V12.829z"/>
	<path d="M48.511,8.736v4.819c0,0.469,0.017,0.965,0.034,1.247h-1.154l-0.051-0.606h-0.025c-0.256,0.461-0.769,0.7-1.307,0.7
		c-0.991,0-1.786-0.847-1.786-2.145c-0.008-1.41,0.872-2.23,1.872-2.23c0.521,0,0.914,0.188,1.102,0.47h0.017V8.736H48.511z
		 M47.212,12.392c0-0.067,0-0.162-0.017-0.239c-0.077-0.342-0.359-0.632-0.761-0.632c-0.598,0-0.897,0.53-0.897,1.188
		c0,0.71,0.35,1.153,0.889,1.153c0.376,0,0.684-0.256,0.761-0.623c0.017-0.094,0.025-0.197,0.025-0.3V12.392z"/>
	<path d="M50.556,13.126c0.034,0.539,0.573,0.796,1.179,0.796c0.445,0,0.804-0.061,1.154-0.18l0.171,0.88
		c-0.428,0.18-0.949,0.265-1.513,0.265c-1.418,0-2.23-0.82-2.23-2.128c0-1.059,0.658-2.229,2.111-2.229
		c1.35,0,1.863,1.051,1.863,2.085c0,0.222-0.025,0.418-0.043,0.512H50.556z M52.085,12.239c0-0.316-0.137-0.847-0.734-0.847
		c-0.547,0-0.769,0.505-0.804,0.847H52.085z"/>
	<path d="M55.84,9.127C56.318,9.051,56.942,9,57.592,9c1.102,0,1.82,0.204,2.367,0.614c0.598,0.445,0.974,1.153,0.974,2.171
		c0,1.103-0.401,1.863-0.948,2.333c-0.607,0.504-1.539,0.743-2.666,0.743c-0.675,0-1.162-0.043-1.479-0.086V9.127z M57.139,13.819
		c0.111,0.026,0.299,0.026,0.453,0.026c1.188,0.008,1.965-0.641,1.965-2.017c0-1.196-0.701-1.828-1.828-1.828
		c-0.282,0-0.479,0.024-0.59,0.051V13.819z"/>
	<path d="M65.226,13.793c0,0.394,0.017,0.777,0.068,1.009h-1.17l-0.077-0.419h-0.026c-0.273,0.333-0.701,0.513-1.196,0.513
		c-0.846,0-1.35-0.615-1.35-1.282c0-1.085,0.974-1.598,2.452-1.598v-0.051c0-0.23-0.12-0.547-0.76-0.547
		c-0.427,0-0.88,0.146-1.154,0.316l-0.239-0.838c0.291-0.162,0.863-0.376,1.623-0.376c1.393,0,1.829,0.82,1.829,1.812V13.793z
		 M63.969,12.829c-0.684,0-1.213,0.161-1.213,0.657c0,0.333,0.222,0.496,0.513,0.496c0.316,0,0.589-0.214,0.674-0.479
		c0.018-0.067,0.026-0.145,0.026-0.221V12.829z"/>
	<path d="M67.655,9.497v1.127h0.931v0.957h-0.931v1.513c0,0.504,0.127,0.735,0.512,0.735c0.18,0,0.265-0.01,0.385-0.035l0.008,0.982
		c-0.163,0.061-0.479,0.111-0.837,0.111c-0.419,0-0.77-0.145-0.983-0.358c-0.239-0.248-0.358-0.649-0.358-1.239v-1.709h-0.556
		v-0.957h0.556V9.846L67.655,9.497z"/>
	<path d="M72.817,13.793c0,0.394,0.017,0.777,0.068,1.009h-1.17l-0.077-0.419h-0.026c-0.273,0.333-0.701,0.513-1.196,0.513
		c-0.846,0-1.35-0.615-1.35-1.282c0-1.085,0.974-1.598,2.452-1.598v-0.051c0-0.23-0.12-0.547-0.76-0.547
		c-0.428,0-0.88,0.146-1.154,0.316l-0.239-0.838c0.291-0.162,0.863-0.376,1.624-0.376c1.393,0,1.829,0.82,1.829,1.812V13.793z
		 M71.56,12.829c-0.684,0-1.213,0.161-1.213,0.657c0,0.333,0.222,0.496,0.513,0.496c0.316,0,0.59-0.214,0.675-0.479
		c0.017-0.067,0.025-0.145,0.025-0.221V12.829z"/>
	<path d="M79.843,14.649c-0.229,0.11-0.776,0.247-1.469,0.247c-1.991,0-3.017-1.247-3.017-2.888c0-1.965,1.402-3.051,3.145-3.051
		c0.676,0,1.188,0.129,1.419,0.256l-0.273,1.025c-0.257-0.111-0.624-0.214-1.094-0.214c-1.025,0-1.829,0.624-1.829,1.906
		c0,1.153,0.684,1.879,1.837,1.879c0.402,0,0.829-0.076,1.094-0.188L79.843,14.649z"/>
	<path d="M81.513,13.126c0.034,0.539,0.572,0.796,1.179,0.796c0.444,0,0.804-0.061,1.153-0.18l0.171,0.88
		c-0.427,0.18-0.947,0.265-1.513,0.265c-1.418,0-2.229-0.82-2.229-2.128c0-1.059,0.657-2.229,2.11-2.229
		c1.35,0,1.863,1.051,1.863,2.085c0,0.222-0.026,0.418-0.044,0.512H81.513z M83.042,12.239c0-0.316-0.137-0.847-0.734-0.847
		c-0.547,0-0.77,0.505-0.804,0.847H83.042z"/>
	<path d="M85.026,11.957c0-0.521-0.018-0.956-0.034-1.333h1.128l0.06,0.581h0.026c0.17-0.273,0.59-0.675,1.29-0.675
		c0.854,0,1.495,0.572,1.495,1.803v2.47h-1.298v-2.316c0-0.538-0.188-0.905-0.658-0.905c-0.359,0-0.573,0.248-0.667,0.487
		c-0.034,0.085-0.042,0.205-0.042,0.324v2.41h-1.3V11.957z"/>
	<path d="M91.438,9.497v1.127h0.932v0.957h-0.932v1.513c0,0.504,0.129,0.735,0.514,0.735c0.18,0,0.264-0.01,0.384-0.035l0.009,0.982
		c-0.162,0.061-0.479,0.111-0.837,0.111c-0.419,0-0.77-0.145-0.983-0.358c-0.239-0.248-0.359-0.649-0.359-1.239v-1.709h-0.555
		v-0.957h0.555V9.846L91.438,9.497z"/>
	<path d="M94.087,13.126c0.035,0.539,0.573,0.796,1.18,0.796c0.444,0,0.804-0.061,1.154-0.18l0.17,0.88
		c-0.427,0.18-0.947,0.265-1.512,0.265c-1.419,0-2.23-0.82-2.23-2.128c0-1.059,0.658-2.229,2.11-2.229
		c1.351,0,1.862,1.051,1.862,2.085c0,0.222-0.024,0.418-0.043,0.512H94.087z M95.617,12.239c0-0.316-0.137-0.847-0.734-0.847
		c-0.547,0-0.77,0.505-0.804,0.847H95.617z"/>
	<path d="M97.603,12c0-0.615-0.009-1.018-0.034-1.376h1.11l0.052,0.769h0.034c0.214-0.614,0.718-0.871,1.128-0.871
		c0.119,0,0.18,0.009,0.273,0.026v1.221c-0.104-0.017-0.205-0.033-0.351-0.033c-0.478,0-0.804,0.256-0.889,0.657
		c-0.017,0.086-0.025,0.188-0.025,0.29v2.12h-1.299V12z"/>
</g>
<g>
	<path d="M8.64,19.302v5.758H7.341v-5.758H8.64z"/>
	<path d="M9.752,22.215c0-0.521-0.017-0.957-0.034-1.333h1.128l0.06,0.581h0.026c0.17-0.273,0.589-0.676,1.29-0.676
		c0.855,0,1.496,0.573,1.496,1.804v2.469h-1.299v-2.315c0-0.538-0.188-0.906-0.658-0.906c-0.359,0-0.573,0.249-0.667,0.488
		c-0.035,0.085-0.043,0.205-0.043,0.324v2.409H9.752V22.215z"/>
	<path d="M16.172,19.754v1.128h0.932v0.956h-0.932v1.514c0,0.504,0.128,0.734,0.512,0.734c0.18,0,0.265-0.009,0.385-0.034
		l0.008,0.982c-0.162,0.061-0.479,0.111-0.837,0.111c-0.419,0-0.769-0.146-0.983-0.359c-0.239-0.247-0.358-0.648-0.358-1.238v-1.71
		h-0.556v-0.956h0.556v-0.778L16.172,19.754z"/>
	<path d="M18.823,23.385c0.034,0.539,0.572,0.795,1.179,0.795c0.444,0,0.803-0.06,1.154-0.179l0.171,0.88
		c-0.427,0.179-0.949,0.265-1.513,0.265c-1.418,0-2.23-0.82-2.23-2.128c0-1.06,0.658-2.23,2.11-2.23c1.35,0,1.863,1.051,1.863,2.085
		c0,0.223-0.025,0.419-0.042,0.513H18.823z M20.352,22.498c0-0.316-0.137-0.847-0.735-0.847c-0.547,0-0.769,0.504-0.803,0.847
		H20.352z"/>
	<path d="M22.336,22.258c0-0.615-0.009-1.018-0.035-1.376h1.111l0.051,0.769h0.035c0.213-0.614,0.717-0.871,1.127-0.871
		c0.12,0,0.18,0.008,0.273,0.025v1.222c-0.102-0.017-0.205-0.033-0.35-0.033c-0.479,0-0.803,0.255-0.889,0.657
		c-0.017,0.086-0.025,0.188-0.025,0.29v2.119h-1.299V22.258z"/>
	<path d="M25.585,22.215c0-0.521-0.017-0.957-0.034-1.333h1.128l0.06,0.581h0.025c0.171-0.273,0.589-0.676,1.29-0.676
		c0.855,0,1.496,0.573,1.496,1.804v2.469h-1.299v-2.315c0-0.538-0.188-0.906-0.658-0.906c-0.359,0-0.572,0.249-0.666,0.488
		c-0.035,0.085-0.043,0.205-0.043,0.324v2.409h-1.299V22.215z"/>
	<path d="M34.072,24.052c0,0.394,0.017,0.777,0.069,1.008H32.97l-0.077-0.418h-0.026c-0.273,0.333-0.701,0.513-1.196,0.513
		c-0.846,0-1.35-0.615-1.35-1.282c0-1.085,0.975-1.598,2.453-1.598v-0.051c0-0.23-0.12-0.547-0.761-0.547
		c-0.427,0-0.88,0.145-1.153,0.316l-0.239-0.839c0.291-0.161,0.863-0.375,1.623-0.375c1.393,0,1.829,0.82,1.829,1.812V24.052z
		 M32.816,23.087c-0.684,0-1.213,0.161-1.213,0.657c0,0.333,0.222,0.495,0.513,0.495c0.316,0,0.589-0.214,0.675-0.479
		c0.017-0.068,0.026-0.146,0.026-0.222V23.087z"/>
	<path d="M38.245,24.95c-0.231,0.11-0.667,0.196-1.162,0.196c-1.351,0-2.213-0.829-2.213-2.137c0-1.222,0.837-2.222,2.392-2.222
		c0.342,0,0.718,0.061,0.992,0.163l-0.205,0.966c-0.154-0.069-0.385-0.129-0.727-0.129c-0.684,0-1.128,0.487-1.119,1.171
		c0,0.761,0.512,1.171,1.145,1.171c0.308,0,0.547-0.052,0.743-0.137L38.245,24.95z"/>
	<path d="M40.306,19.72c0,0.359-0.265,0.649-0.701,0.649c-0.41,0-0.675-0.29-0.675-0.649c0-0.367,0.273-0.649,0.692-0.649
		C40.041,19.071,40.297,19.353,40.306,19.72z M38.964,25.06v-4.178h1.299v4.178H38.964z"/>
	<path d="M45.434,22.924c0,1.529-1.085,2.23-2.205,2.23c-1.221,0-2.162-0.804-2.162-2.153c0-1.358,0.889-2.222,2.239-2.222
		C44.579,20.78,45.434,21.66,45.434,22.924z M42.409,22.967c0,0.718,0.299,1.256,0.855,1.256c0.512,0,0.829-0.504,0.829-1.265
		c0-0.615-0.239-1.247-0.829-1.247C42.648,21.711,42.409,22.352,42.409,22.967z"/>
	<path d="M46.239,22.215c0-0.521-0.017-0.957-0.034-1.333h1.128l0.06,0.581h0.026c0.17-0.273,0.589-0.676,1.29-0.676
		c0.855,0,1.496,0.573,1.496,1.804v2.469h-1.299v-2.315c0-0.538-0.188-0.906-0.658-0.906c-0.359,0-0.573,0.249-0.667,0.488
		c-0.035,0.085-0.043,0.205-0.043,0.324v2.409h-1.299V22.215z"/>
	<path d="M54.727,24.052c0,0.394,0.017,0.777,0.068,1.008h-1.17l-0.077-0.418h-0.026c-0.273,0.333-0.701,0.513-1.196,0.513
		c-0.846,0-1.35-0.615-1.35-1.282c0-1.085,0.975-1.598,2.452-1.598v-0.051c0-0.23-0.12-0.547-0.76-0.547
		c-0.427,0-0.88,0.145-1.154,0.316l-0.239-0.839c0.291-0.161,0.863-0.375,1.623-0.375c1.393,0,1.829,0.82,1.829,1.812V24.052z
		 M53.471,23.087c-0.684,0-1.213,0.161-1.213,0.657c0,0.333,0.222,0.495,0.513,0.495c0.316,0,0.589-0.214,0.674-0.479
		c0.018-0.068,0.026-0.146,0.026-0.222V23.087z"/>
	<path d="M55.763,18.994h1.299v6.066h-1.299V18.994z"/>
</g>
<path d="M13.379,35.272H8.565v1.58h4.586c0.718,0,1.204,0.122,1.457,0.367c0.254,0.246,0.378,0.703,0.378,1.371v1.01
	c0,0.668-0.125,1.126-0.378,1.371c-0.252,0.246-0.739,0.368-1.457,0.368H8.607c-0.72,0-1.206-0.122-1.459-0.368
	c-0.252-0.245-0.379-0.703-0.379-1.371v-0.515H8.28v0.869h5.198v-1.677H8.892c-0.715,0-1.196-0.123-1.448-0.37
	c-0.25-0.245-0.376-0.702-0.376-1.37v-0.813c0-0.668,0.126-1.125,0.376-1.371c0.25-0.246,0.733-0.369,1.448-0.369h4.176
	c0.69,0,1.167,0.119,1.429,0.355c0.263,0.236,0.394,0.656,0.394,1.26v0.507h-1.511V35.272z"/>
<path d="M17.982,35.724c0-0.668,0.125-1.125,0.376-1.371c0.25-0.246,0.733-0.369,1.447-0.369h5.414c0.714,0,1.197,0.123,1.448,0.369
	c0.25,0.246,0.375,0.703,0.375,1.371V39.6c0,0.673-0.125,1.131-0.375,1.374c-0.251,0.244-0.734,0.365-1.448,0.365h-5.414
	c-0.714,0-1.197-0.121-1.447-0.365c-0.251-0.243-0.376-0.701-0.376-1.374V35.724z M19.694,39.955h5.644v-4.655h-5.644V39.955z"/>
<polygon points="30.146,41.339 30.146,33.984 37.584,33.984 37.584,35.272 31.857,35.272 31.857,37.206 34.955,37.206 
	34.955,38.549 31.857,38.549 31.857,41.339 "/>
<polygon points="44.34,35.299 44.34,41.339 42.628,41.339 42.628,35.299 39.253,35.299 39.253,33.984 47.729,33.984 47.729,35.299 
	"/>
<polygon points="50.143,41.339 50.143,33.984 51.855,33.984 51.855,39.955 57.373,39.955 57.373,41.339 "/>
<path d="M59.336,41.339l4.162-7.355h1.649l4.218,7.355h-1.921l-0.883-1.607h-4.663l-0.855,1.607H59.336z M62.629,38.403h3.222
	l-1.586-2.992L62.629,38.403z"/>
<polygon points="72.83,41.339 72.83,38.048 69.01,33.984 71.292,33.984 73.817,36.809 76.352,33.984 78.362,33.984 74.557,38.005 
	74.557,41.339 "/>
<path d="M90.1,41.339v-7.355h6.29c0.583,0,1.008,0.113,1.27,0.337c0.261,0.226,0.394,0.588,0.394,1.09v1.726
	c0,0.497-0.133,0.858-0.394,1.085c-0.262,0.228-0.687,0.341-1.27,0.341h-0.96l3.396,2.777h-2.457l-2.965-2.777h-1.621v2.777H90.1z
	 M95.631,35.257h-3.849v2.047h3.849c0.299,0,0.5-0.043,0.609-0.129c0.108-0.085,0.163-0.238,0.163-0.456v-0.885
	c0-0.213-0.055-0.362-0.163-0.447C96.131,35.301,95.927,35.257,95.631,35.257"/>
<rect x="80.182" y="33.984" fill="#EC2026" width="7.48" height="1.363"/>
<rect x="80.182" y="36.98" width="7.48" height="1.362"/>
<rect x="80.182" y="39.978" fill="#EC2026" width="7.48" height="1.361"/>
<path d="M100.808,33.984c0.134,0,0.261,0.025,0.381,0.075c0.12,0.049,0.228,0.122,0.321,0.219c0.091,0.092,0.161,0.198,0.21,0.315
	c0.051,0.121,0.073,0.246,0.073,0.375c0,0.136-0.022,0.262-0.073,0.38c-0.049,0.117-0.119,0.222-0.212,0.313
	c-0.098,0.094-0.207,0.166-0.327,0.216c-0.121,0.051-0.245,0.075-0.373,0.075c-0.133,0-0.257-0.024-0.376-0.075
	c-0.118-0.05-0.226-0.123-0.318-0.22c-0.097-0.095-0.166-0.2-0.214-0.319c-0.051-0.117-0.074-0.24-0.074-0.37
	c0-0.129,0.025-0.256,0.076-0.377c0.052-0.122,0.126-0.23,0.222-0.328c0.089-0.091,0.191-0.161,0.309-0.208
	C100.549,34.007,100.673,33.984,100.808,33.984 M101.664,34.978c0-0.118-0.019-0.229-0.062-0.334
	c-0.041-0.104-0.102-0.196-0.181-0.275c-0.081-0.083-0.176-0.146-0.278-0.189c-0.104-0.043-0.215-0.063-0.332-0.063
	s-0.226,0.02-0.329,0.062c-0.104,0.043-0.192,0.103-0.268,0.181c-0.085,0.084-0.148,0.18-0.196,0.286
	c-0.045,0.105-0.065,0.215-0.065,0.326c0,0.11,0.021,0.219,0.063,0.321c0.045,0.102,0.106,0.193,0.188,0.275
	c0.079,0.082,0.173,0.146,0.276,0.189c0.105,0.045,0.212,0.065,0.322,0.065c0.115,0,0.227-0.021,0.328-0.063
	c0.106-0.043,0.199-0.105,0.285-0.187c0.082-0.078,0.143-0.168,0.185-0.271C101.645,35.2,101.664,35.091,101.664,34.978
	 M100.832,34.391c0.155,0,0.272,0.025,0.351,0.077c0.077,0.052,0.117,0.128,0.117,0.229c0,0.079-0.021,0.146-0.066,0.197
	c-0.045,0.054-0.106,0.088-0.19,0.104l0.253,0.509h-0.238l-0.228-0.476h-0.208v0.476h-0.209v-1.115H100.832z M100.796,34.528h-0.174
	v0.369h0.179c0.102,0,0.174-0.014,0.216-0.041c0.045-0.028,0.067-0.073,0.067-0.136c0-0.068-0.024-0.116-0.069-0.146
	C100.969,34.542,100.896,34.528,100.796,34.528"/>
<path d="M137.081,18.241v1.049l1.774,0.325c0.347,0.063,0.57,0.372,0.501,0.688c-0.061,0.278-0.327,0.471-0.624,0.471
	c-0.042,0-0.086-0.004-0.127-0.012l-1.525-0.28v0.427l1.753,0.263c0.349,0.051,0.584,0.354,0.525,0.673
	c-0.05,0.287-0.321,0.49-0.628,0.49c-0.035,0-0.069-0.002-0.104-0.007l-1.546-0.231V22.5l1.742,0.231
	c0.347,0.047,0.589,0.345,0.538,0.666c-0.046,0.291-0.319,0.501-0.63,0.501c-0.031,0-0.061-0.004-0.094-0.007l-1.557-0.207v0.422
	l1.724,0.186c0.351,0.037,0.601,0.327,0.562,0.65c-0.04,0.297-0.317,0.517-0.635,0.517c-0.025,0-0.05-0.002-0.075-0.006
	l-1.575-0.169v7.481h2.554V18.711L137.081,18.241z M138.215,27.3c-0.292,0-0.532-0.219-0.532-0.488s0.24-0.489,0.532-0.489
	c0.294,0,0.532,0.22,0.532,0.489C138.747,27.081,138.509,27.3,138.215,27.3"/>
<path d="M133.674,17.587v1.095l1.775,0.339c0.347,0.067,0.57,0.39,0.501,0.722c-0.061,0.29-0.328,0.491-0.626,0.491
	c-0.042,0-0.084-0.004-0.125-0.012l-1.525-0.292v0.445l1.753,0.274c0.346,0.054,0.584,0.37,0.527,0.702
	c-0.052,0.3-0.323,0.515-0.63,0.515c-0.035,0-0.069-0.004-0.104-0.009l-1.546-0.242v0.422l1.742,0.242
	c0.349,0.05,0.591,0.36,0.538,0.695c-0.046,0.305-0.319,0.523-0.63,0.523c-0.029,0-0.061-0.001-0.092-0.007l-1.559-0.216v0.441
	l1.726,0.194c0.349,0.039,0.599,0.343,0.56,0.679c-0.04,0.312-0.315,0.542-0.635,0.542c-0.025,0-0.048-0.002-0.075-0.004
	l-1.575-0.178v7.816h2.556v-14.69L133.674,17.587z M134.809,27.053c-0.292,0-0.532-0.229-0.532-0.51c0-0.282,0.24-0.51,0.532-0.51
	c0.294,0,0.534,0.228,0.534,0.51C135.343,26.825,135.103,27.053,134.809,27.053"/>
<polygon points="117.069,32.765 123.882,32.765 123.882,15.735 117.069,19.141 "/>
<path d="M124.308,15.735v1.168c0.042,0,0.084-0.011,0.125,0l7.612,1.521c0.345,0.068,0.57,0.404,0.499,0.751
	c-0.061,0.305-0.328,0.514-0.626,0.514c-0.04,0-0.084-0.004-0.125-0.013l-7.485-1.496v0.706c0.033,0,0.067-0.009,0.103-0.003
	l7.609,1.24c0.349,0.056,0.587,0.385,0.528,0.732c-0.052,0.315-0.321,0.536-0.63,0.536c-0.033,0-0.069-0.002-0.103-0.008
	l-7.508-1.223v0.563c0.029-0.001,0.061-0.012,0.09-0.006l7.612,1.106c0.347,0.051,0.591,0.376,0.54,0.724
	c-0.048,0.318-0.319,0.546-0.632,0.546c-0.031,0-0.061-0.002-0.094-0.006l-7.517-1.094v0.644c0.025-0.001,0.048-0.012,0.073-0.007
	l7.612,0.893c0.349,0.042,0.599,0.359,0.56,0.71c-0.04,0.324-0.315,0.564-0.635,0.564c-0.025,0-0.051-0.002-0.075-0.004
	l-7.535-0.885v8.855h8.516V17.438L124.308,15.735z M131.402,26.805c-0.292,0-0.532-0.238-0.532-0.531s0.24-0.532,0.532-0.532
	c0.294,0,0.532,0.239,0.532,0.532S131.696,26.805,131.402,26.805"/>
</svg>
