<?xml version="1.0" encoding="utf-8"?>
<!-- Generator: Adobe Illustrator 15.1.0, SVG Export Plug-In . SVG Version: 6.00 Build 0)  -->
<!DOCTYPE svg PUBLIC "-//W3C//DTD SVG 1.1//EN" "http://www.w3.org/Graphics/SVG/1.1/DTD/svg11.dtd">
<svg version="1.1" id="Layer_1" xmlns="http://www.w3.org/2000/svg" xmlns:xlink="http://www.w3.org/1999/xlink" x="0px" y="0px"
	 width="232px" height="216.667px" viewBox="0 0 232 216.667" enable-background="new 0 0 232 216.667" xml:space="preserve">
<g>
	<g>
		<path fill="#2C3E50" d="M116.828,78.401c-1.3,0-2.351,1.054-2.351,2.351v4.699c0,1.298,1.051,2.348,2.351,2.348
			c1.301,0,2.348-1.05,2.348-2.348v-4.699C119.176,79.455,118.121,78.401,116.828,78.401z"/>
		<path fill="#2C3E50" d="M116.828,90.028c-1.3,0-2.351,1.051-2.351,2.35v6.924c0,1.296,1.051,2.35,2.351,2.35
			c1.301,0,2.348-1.054,2.348-2.35v-6.924C119.176,91.076,118.121,90.028,116.828,90.028z"/>
		<path fill="#2C3E50" d="M116.828,103.882c-1.3,0-2.351,1.049-2.351,2.348v4.7c0,1.293,1.051,2.351,2.351,2.351
			c1.301,0,2.348-1.058,2.348-2.351v-4.7C119.176,104.928,118.121,103.882,116.828,103.882z"/>
		<path fill="#2C3E50" d="M78.567,123.18l-3.318-3.32c-0.92-0.919-2.404-0.919-3.322,0c-0.921,0.921-0.921,2.402,0,3.32l3.322,3.323
			c0.455,0.459,1.058,0.689,1.661,0.689c0.602,0,1.203-0.23,1.657-0.689C79.489,125.586,79.489,124.098,78.567,123.18z"/>
		<path fill="#2C3E50" d="M82.519,127.131c-0.922-0.923-2.404-0.923-3.322,0c-0.922,0.917-0.922,2.401,0,3.323l3.322,3.321
			c0.457,0.46,1.06,0.689,1.66,0.689c0.602,0,1.203-0.229,1.663-0.689c0.918-0.917,0.918-2.402,0-3.321L82.519,127.131z"/>
		<path fill="#2C3E50" d="M157.376,119.859l-3.323,3.32c-0.918,0.923-0.918,2.406,0,3.323c0.459,0.459,1.061,0.689,1.66,0.689
			c0.603,0,1.203-0.23,1.663-0.689l3.323-3.323c0.916-0.918,0.916-2.399,0-3.32C159.779,118.94,158.294,118.94,157.376,119.859z"/>
		<path fill="#2C3E50" d="M148.491,128.742l-3.321,3.323c-0.918,0.922-0.918,2.403,0,3.321c0.458,0.459,1.061,0.688,1.66,0.688
			c0.603,0,1.202-0.229,1.661-0.688l3.322-3.321c0.918-0.918,0.918-2.401,0-3.323C150.895,127.824,149.409,127.824,148.491,128.742z
			"/>
		<g>
			<path fill="#2C3E50" d="M116.952,212.076c-53.253,0-96.579-43.324-96.579-96.576s43.325-96.578,96.579-96.578
				s96.577,43.326,96.577,96.578S170.206,212.076,116.952,212.076z M116.952,24.62c-50.112,0-90.88,40.767-90.88,90.88
				c0,50.11,40.769,90.879,90.88,90.879s90.879-40.769,90.879-90.879C207.832,65.387,167.064,24.62,116.952,24.62z"/>
		</g>
		<circle fill="#2C3E50" cx="41.521" cy="99.511" r="33.854"/>
		<circle fill="#2C3E50" cx="193.813" cy="99.511" r="33.854"/>
		<circle fill="#2C3E50" cx="116.826" cy="37.854" r="33.854"/>
		<path fill="#FFFFFF" d="M201.986,94.547c0,1.582-0.482,3.086-1.293,4.404c1.538,1.712,2.501,3.951,2.501,6.429
			c0,5.326-4.333,9.66-9.661,9.66c-5.332,0-9.665-4.338-9.665-9.66c0-1.301,1.051-2.351,2.351-2.351c1.298,0,2.35,1.05,2.35,2.351
			c0,2.737,2.228,4.959,4.965,4.959s4.96-2.225,4.96-4.959c0-2.738-2.223-4.965-4.96-4.965c-1.297,0-2.349-1.051-2.349-2.35
			c0-1.297,1.052-2.351,2.349-2.351c1.159,0,2.253,0.238,3.286,0.615c0.293-0.544,0.469-1.148,0.469-1.783
			c0-2.069-1.689-3.754-3.759-3.754c-2.073,0-3.764,1.685-3.764,3.754c0,1.298-1.044,2.35-2.35,2.35c-1.298,0-2.35-1.052-2.35-2.35
			c0-4.661,3.796-8.452,8.463-8.452C198.191,86.095,201.986,89.886,201.986,94.547z"/>
		<path fill="#FFFFFF" d="M108.049,48.194c0.12-0.289,0.291-0.547,0.51-0.767l10.278-10.274c0.022-0.025,0.054-0.029,0.073-0.052
			c0.024-0.022,0.034-0.055,0.059-0.074c0.835-0.717,1.321-1.759,1.321-2.858c0-2.072-1.685-3.757-3.757-3.757
			c-2.07,0-3.755,1.685-3.755,3.757c0,1.296-1.05,2.35-2.35,2.35c-1.297,0-2.349-1.054-2.349-2.35c0-4.665,3.794-8.455,8.454-8.455
			c4.662,0,8.457,3.79,8.457,8.455c0,2.395-1.029,4.646-2.796,6.25c-0.015,0.017-0.02,0.041-0.039,0.059l-6.268,6.268h6.753
			c1.298,0,2.35,1.054,2.35,2.352c0,1.295-1.052,2.348-2.35,2.348h-12.426c-0.306,0-0.613-0.064-0.897-0.18
			c-0.576-0.238-1.035-0.696-1.272-1.272C107.81,49.416,107.812,48.771,108.049,48.194z"/>
		<path fill="#FFFFFF" d="M36.843,86.408h4.957c1.299,0,2.35,1.049,2.35,2.348v23.668c0,1.298-1.051,2.349-2.35,2.349
			s-2.349-1.051-2.349-2.349V91.105h-2.607c-1.3,0-2.351-1.052-2.351-2.35C34.492,87.457,35.544,86.408,36.843,86.408z"/>
		<path fill="#2C3E50" d="M121.277,170.925c0.43-0.123,0.869-0.206,1.291-0.356l-3.723,4.301h-0.093l9.581,19.957l-11.383,11.488
			l-11.382-11.491l9.582-19.958h-0.1l-3.722-4.307c0.534,0.194,1.086,0.312,1.637,0.454L121.277,170.925z M127.097,168.336h0.279
			c7.643-5.297,12.904-15.736,12.904-25.138c0-13.27-10.444-24.029-23.327-24.029c-12.882,0-23.332,10.758-23.332,24.029
			c0,9.401,5.264,19.841,12.906,25.138h0.263c-17.51,4.546-30.472,19.898-30.472,31.279c0,13.493,81.267,13.493,81.267,0
			C157.578,188.234,144.617,172.877,127.097,168.336z"/>
	</g>
</g>
</svg>
