<?xml version="1.0" encoding="utf-8"?>
<!-- Generator: Adobe Illustrator 15.1.0, SVG Export Plug-In . SVG Version: 6.00 Build 0)  -->
<!DOCTYPE svg PUBLIC "-//W3C//DTD SVG 1.1//EN" "http://www.w3.org/Graphics/SVG/1.1/DTD/svg11.dtd">
<svg version="1.1" id="Capa_1" xmlns="http://www.w3.org/2000/svg" xmlns:xlink="http://www.w3.org/1999/xlink" x="0px" y="0px"
	 width="500px" height="400px" viewBox="0 0 500 400" enable-background="new 0 0 500 400" xml:space="preserve">
<circle fill="none" stroke="#2C3E50" stroke-width="4" stroke-miterlimit="10" cx="250" cy="200" r="194.5"/>
<g>
	<path fill="#2C3E50" d="M305.835,218.708c17.379-17.88,28.451-43.122,28.451-67.236c0-43.796-36.38-79.308-81.269-79.308
		c-44.886,0-81.267,35.502-81.267,79.308c0,10.84,2.328,21.863,6.379,32.384c9.983,21.966,29.59,39.011,54.408,45.206
		c4.924-5.922,12.344-9.48,20.479-9.48c14.586,0,26.456,11.571,26.456,25.819c0,14.241-11.882,25.809-26.456,25.809
		c-10.395,0-19.579-5.914-23.889-14.733c-21.336-4.584-40.053-15.043-54.598-29.393c-32.025,13.36-52.792,34.609-52.792,58.613
		c0,40.438,262.562,40.438,262.562,0C384.302,255.743,352.009,230.056,305.835,218.708"/>
	<path fill="#2C3E50" d="M236.249,248.499c1.502,7.727,8.416,13.568,16.756,13.568c9.439,0,17.09-7.467,17.09-16.665
		c0-9.201-7.65-16.671-17.077-16.671c-7.255,0-13.416,4.416-15.892,10.65c-42.924-7.373-75.657-43.937-75.657-87.915
		c0-49.254,41.073-89.352,91.548-89.352c50.499,0,91.551,40.098,91.551,89.352h9.383c0-54.31-45.293-98.505-100.934-98.505
		c-55.652,0-100.932,44.188-100.932,98.505C152.081,200.205,188.573,240.681,236.249,248.499"/>
</g>
</svg>
