<?xml version="1.0" encoding="utf-8"?>
<!-- Generator: Adobe Illustrator 15.1.0, SVG Export Plug-In . SVG Version: 6.00 Build 0)  -->
<!DOCTYPE svg PUBLIC "-//W3C//DTD SVG 1.1//EN" "http://www.w3.org/Graphics/SVG/1.1/DTD/svg11.dtd">
<svg version="1.1" id="Layer_1" xmlns="http://www.w3.org/2000/svg" xmlns:xlink="http://www.w3.org/1999/xlink" x="0px" y="0px"
	 width="229px" height="229.002px" viewBox="0 0 229 229.002" enable-background="new 0 0 229 229.002" xml:space="preserve">
<g>
	<circle fill="none" stroke="#DA4A36" stroke-width="4" stroke-miterlimit="10" cx="114.5" cy="114.5" r="110"/>
</g>
<g>
	<path fill="#DA4A36" d="M138.404,129.988c7.867-8.093,12.878-19.519,12.878-30.433c0-19.822-16.465-35.896-36.783-35.896
		c-20.315,0-36.782,16.068-36.782,35.896c0,4.905,1.053,9.896,2.887,14.657c4.519,9.942,13.394,17.658,24.626,20.461
		c2.229-2.682,5.588-4.291,9.27-4.291c6.602,0,11.974,5.236,11.974,11.686c0,6.447-5.377,11.682-11.974,11.682
		c-4.705,0-8.861-2.677-10.813-6.67c-9.658-2.072-18.129-6.809-24.712-13.302c-14.494,6.048-23.895,15.665-23.895,26.528
		c0,18.303,118.84,18.303,118.84,0C173.92,146.75,159.303,135.123,138.404,129.988z"/>
	<path fill="#DA4A36" d="M106.909,143.472c0.681,3.498,3.81,6.142,7.584,6.142c4.272,0,7.736-3.38,7.736-7.545
		c0-4.162-3.464-7.543-7.73-7.543c-3.284,0-6.073,1.998-7.192,4.819c-19.428-3.337-34.243-19.886-34.243-39.79
		c0-22.294,18.59-40.442,41.436-40.442c22.856,0,41.438,18.148,41.438,40.442h4.247c0-24.581-20.5-44.586-45.685-44.586
		c-25.189,0-45.683,20-45.683,44.586C68.813,121.613,85.331,139.932,106.909,143.472z"/>
</g>
</svg>
