<?xml version="1.0" encoding="utf-8"?>
<!-- Generator: Adobe Illustrator 18.0.0, SVG Export Plug-In . SVG Version: 6.00 Build 0)  -->
<!DOCTYPE svg PUBLIC "-//W3C//DTD SVG 1.1//EN" "http://www.w3.org/Graphics/SVG/1.1/DTD/svg11.dtd">
<svg version="1.1" id="Layer_1" xmlns="http://www.w3.org/2000/svg" xmlns:xlink="http://www.w3.org/1999/xlink" x="0px" y="0px"
	 viewBox="0 0 229 229" enable-background="new 0 0 229 229" xml:space="preserve">
<g>
	<circle fill="none" stroke="#2C3E50" stroke-width="4" stroke-miterlimit="10" cx="114.5" cy="114.5" r="110"/>
</g>
<g>
	<path fill="#2C3E50" d="M138.4,130c7.9-8.1,12.9-19.5,12.9-30.4c0-19.8-16.5-35.9-36.8-35.9c-20.3,0-36.8,16.1-36.8,35.9
		c0,4.9,1.1,9.9,2.9,14.7c4.5,9.9,13.4,17.7,24.6,20.5c2.2-2.7,5.6-4.3,9.3-4.3c6.6,0,12,5.2,12,11.7c0,6.4-5.4,11.7-12,11.7
		c-4.7,0-8.9-2.7-10.8-6.7C94,145,85.6,140.3,79,133.8c-14.5,6-23.9,15.7-23.9,26.5c0,18.3,118.8,18.3,118.8,0
		C173.9,146.8,159.3,135.1,138.4,130z"/>
	<path fill="#2C3E50" d="M106.9,143.5c0.7,3.5,3.8,6.1,7.6,6.1c4.3,0,7.7-3.4,7.7-7.5c0-4.2-3.5-7.5-7.7-7.5c-3.3,0-6.1,2-7.2,4.8
		c-19.4-3.3-34.2-19.9-34.2-39.8c0-22.3,18.6-40.4,41.4-40.4c22.9,0,41.4,18.1,41.4,40.4h4.2c0-24.6-20.5-44.6-45.7-44.6
		c-25.2,0-45.7,20-45.7,44.6C68.8,121.6,85.3,139.9,106.9,143.5z"/>
</g>
</svg>
