<?xml version="1.0" encoding="utf-8"?>
<!-- Generator: Adobe Illustrator 15.1.0, SVG Export Plug-In . SVG Version: 6.00 Build 0)  -->
<!DOCTYPE svg PUBLIC "-//W3C//DTD SVG 1.1//EN" "http://www.w3.org/Graphics/SVG/1.1/DTD/svg11.dtd">
<svg version="1.1" id="Layer_1" xmlns="http://www.w3.org/2000/svg" xmlns:xlink="http://www.w3.org/1999/xlink" x="0px" y="0px"
	 width="229px" height="229.002px" viewBox="0 0 229 229.002" enable-background="new 0 0 229 229.002" xml:space="preserve">
<g>
	<circle fill="none" stroke="#DA4A36" stroke-width="4" stroke-miterlimit="10" cx="114.5" cy="114.5" r="110"/>
</g>
<g>
	<path fill="#DA4A36" d="M177.346,142.566c-0.791-1.285-2.864-2.056-5.979-3.605c-3.115-1.539-18.434-9.019-21.279-10.047
		c-2.855-1.031-4.933-1.552-7.006,1.543c-2.076,3.094-8.045,10.054-9.867,12.109c-1.818,2.076-3.634,2.328-6.75,0.781
		c-3.109-1.543-13.147-4.811-25.041-15.338c-9.257-8.189-15.51-18.301-17.328-21.401c-1.809-3.085-0.188-4.755,1.369-6.298
		c1.397-1.387,3.117-3.607,4.67-5.41c1.564-1.805,2.082-3.094,3.112-5.153c1.046-2.063,0.521-3.869-0.26-5.421
		c-0.78-1.545-7.007-16.746-9.604-22.935c-2.592-6.188-5.186-5.157-7.008-5.157c-1.812,0-3.888-0.26-5.969-0.26
		c-2.074,0-5.451,0.773-8.305,3.872c-2.854,3.091-10.898,10.571-10.898,25.771c0,15.207,11.159,29.896,12.721,31.956
		c1.551,2.058,21.536,34.281,53.194,46.657c31.67,12.368,31.67,8.239,37.382,7.722c5.703-0.512,18.42-7.471,21.021-14.684
		C178.122,150.047,178.122,143.861,177.346,142.566z"/>
</g>
</svg>
