<?xml version="1.0" encoding="utf-8"?>
<!-- Generator: Adobe Illustrator 16.0.4, SVG Export Plug-In . SVG Version: 6.00 Build 0)  -->
<!DOCTYPE svg PUBLIC "-//W3C//DTD SVG 1.1//EN" "http://www.w3.org/Graphics/SVG/1.1/DTD/svg11.dtd">
<svg version="1.1" id="Layer_1" xmlns="http://www.w3.org/2000/svg" xmlns:xlink="http://www.w3.org/1999/xlink" x="0px" y="0px"
	 width="32px" height="32px" viewBox="0 0 32 32" enable-background="new 0 0 32 32" xml:space="preserve">
<g>
	<circle fill="#282828" cx="13.599" cy="7.31" r="2.617"/>
	<path fill="#282828" d="M3.871,17.337c0.059,0,0.118-0.005,0.177-0.012c0.244-0.028,0.477-0.066,0.704-0.11
		c-0.045,0.477-0.07,0.973-0.07,1.493c0,0.678,0.269,1.292,0.706,1.742c0.286,0.885,0.518,2.104,0.202,3.106
		c-0.235,0.748-0.755,1.319-1.587,1.742c-0.74,0.376-1.033,1.281-0.657,2.021c0.266,0.521,0.793,0.82,1.341,0.82
		c0.229,0,0.462-0.054,0.68-0.164c1.545-0.785,2.615-2.002,3.091-3.519c0.401-1.274,0.341-2.574,0.126-3.672
		c0.102-0.07,0.2-0.146,0.29-0.229c1.017,1.187,2.037,3.191,1.422,6.197c-0.166,0.812,0.359,1.607,1.172,1.773
		c0.101,0.02,0.203,0.031,0.302,0.031c0.699,0,1.325-0.492,1.471-1.203c1.034-5.058-1.392-8.463-3.453-10.082
		c0.144-1.045,0.431-1.882,0.737-2.521c0.258,0.302,0.563,0.586,0.923,0.837c0.872,0.608,1.907,0.912,3.096,0.912
		c1.01,0,2.13-0.219,3.354-0.659c0.781-0.279,1.188-1.139,0.908-1.921c-0.281-0.781-1.14-1.19-1.922-0.908
		c-1.163,0.417-2.749,0.774-3.707,0.118c-0.405-0.278-0.659-0.71-0.818-1.131c0.238-0.788,0.084-1.676-0.488-2.35
		c-0.896-1.052-2.477-1.18-3.531-0.285c-0.255,0.217-1.866,1.668-2.863,4.492c-0.486,0.222-1.072,0.399-1.78,0.482
		c-0.825,0.097-1.415,0.844-1.318,1.668C2.47,16.773,3.119,17.337,3.871,17.337z"/>
	<path fill="#282828" d="M20.262,11.074c-0.199,0.161-0.32,0.398-0.332,0.654c-0.013,0.255,0.084,0.504,0.266,0.683l1.152,1.131
		c0.317,0.313,0.473,0.757,0.42,1.2c-0.311,2.587-1.492,8.656-5.746,8.656h-1.659c0.088,0.617,0.128,1.274,0.105,1.976h1.554
		c6.001,0,7.445-7.835,7.778-10.854c0.079-0.711-0.155-1.424-0.641-1.95l-0.013-0.012c-0.168-0.183-0.252-0.427-0.234-0.674
		c0.018-0.247,0.138-0.476,0.332-0.632l5.32-4.289c0.27-0.217,0.639-0.26,0.949-0.111c0.312,0.149,0.51,0.463,0.51,0.809v9.884
		c0,0.21-0.123,0.398-0.313,0.484c-0.19,0.087-0.415,0.053-0.571-0.086l-0.242-0.217c-0.15-0.134-0.364-0.166-0.547-0.084
		c-0.182,0.082-0.3,0.265-0.3,0.465v1.018c0,9.13-7.211,10.201-7.893,10.3H1.976v-4.05h0.565c0.232-0.396,0.575-0.73,1.013-0.954
		c0.669-0.341,0.924-0.726,1.044-1.021H0v8h20.257l0.038-0.004c0.086-0.011,7.738-0.822,9.34-9.062
		c0.045-0.232,0.211-0.425,0.436-0.504c0.224-0.079,0.473-0.033,0.654,0.12c0.229,0.194,0.553,0.237,0.826,0.11
		C31.825,21.934,32,21.658,32,21.355V4.329c0-0.503-0.289-0.961-0.743-1.178c-0.454-0.217-0.991-0.154-1.383,0.162L20.262,11.074z"
		/>
</g>
</svg>
