<?xml version="1.0" encoding="iso-8859-1"?>
<!-- Generator: Adobe Illustrator 16.0.0, SVG Export Plug-In . SVG Version: 6.00 Build 0)  -->
<!DOCTYPE svg PUBLIC "-//W3C//DTD SVG 1.1//EN" "http://www.w3.org/Graphics/SVG/1.1/DTD/svg11.dtd">
<svg version="1.1" id="Capa_1" xmlns="http://www.w3.org/2000/svg" xmlns:xlink="http://www.w3.org/1999/xlink" x="0px" y="0px"
	 width="30.049px" height="30.051px" viewBox="0 0 30.049 30.051" style="enable-background:new 0 0 30.049 30.051;"
	 xml:space="preserve">
<path d="M30.049,15.027C30.049,6.729,23.323,0,15.023,0C6.726,0,0,6.729,0,15.027s6.726,15.023,15.023,15.023
	C23.323,30.051,30.049,23.326,30.049,15.027z M2.512,15.027c0-6.91,5.603-12.518,12.512-12.518c6.914,0,12.516,5.607,12.516,12.518
	c0,6.912-5.602,12.514-12.516,12.514C8.114,27.541,2.512,21.939,2.512,15.027z"/>
<path d="M15.109,7.992l4.485,5.426c0,0,0.679,0.641-0.058,0.641c-0.742,0-2.531,0-2.531,0s0,0.436,0,1.104c0,1.91,0,5.379,0,6.791
	c0,0,0.102,0.385-0.479,0.385c-0.584,0-3.146,0-3.559,0c-0.418,0-0.407-0.32-0.407-0.32c0-1.373,0-4.963,0-6.809
	c0-0.598,0-1.156,0-1.156s-1.435,0-2.335,0s-0.121-0.637-0.121-0.637s3.718-4.936,4.25-5.467
	C14.739,7.562,15.109,7.992,15.109,7.992z"/>
<g>
</g>
<g>
</g>
<g>
</g>
<g>
</g>
<g>
</g>
<g>
</g>
<g>
</g>
<g>
</g>
<g>
</g>
<g>
</g>
<g>
</g>
<g>
</g>
<g>
</g>
<g>
</g>
<g>
</g>
</svg>
