<?xml version="1.0" encoding="utf-8"?>
<!-- Generator: Adobe Illustrator 15.1.0, SVG Export Plug-In . SVG Version: 6.00 Build 0)  -->
<!DOCTYPE svg PUBLIC "-//W3C//DTD SVG 1.1 Tiny//EN" "http://www.w3.org/Graphics/SVG/1.1/DTD/svg11-tiny.dtd">
<svg version="1.1" baseProfile="tiny" id="Capa_1" xmlns="http://www.w3.org/2000/svg" xmlns:xlink="http://www.w3.org/1999/xlink"
	 x="0px" y="0px" width="53.313px" height="53.315px" viewBox="4.523 -27.413 53.313 53.315" xml:space="preserve">
<path fill="#5C7287" d="M56.503-0.751c0-13.987-11.335-25.329-25.326-25.329c-13.983,0-25.321,11.342-25.321,25.329
	c0,13.987,11.337,25.32,25.321,25.32C45.168,24.569,56.503,13.236,56.503-0.751z M10.09-0.751c0-11.647,9.444-21.101,21.089-21.101
	c11.653,0,21.094,9.453,21.094,21.101c0,11.65-9.44,21.091-21.094,21.091C19.532,20.34,10.09,10.899,10.09-0.751z"/>
<path fill="#5C7287" d="M31.724-14.735l8.864,10.727c0,0,1.345,1.268-0.114,1.268c-1.466,0-5.005,0-5.005,0s0,0.862,0,2.183
	c0,3.776,0,10.636,0,13.427c0,0,0.203,0.76-0.943,0.76c-1.156,0-6.222,0-7.039,0c-0.826,0-0.804-0.631-0.804-0.631
	c0-2.715,0-9.812,0-13.463c0-1.184,0-2.286,0-2.286s-2.839,0-4.616,0c-1.78,0-0.24-1.259-0.24-1.259s7.351-9.76,8.403-10.81
	C30.99-15.587,31.724-14.735,31.724-14.735z"/>
</svg>
