<?xml version="1.0" encoding="utf-8"?>
<!-- Generator: Adobe Illustrator 15.1.0, SVG Export Plug-In . SVG Version: 6.00 Build 0)  -->
<!DOCTYPE svg PUBLIC "-//W3C//DTD SVG 1.1//EN" "http://www.w3.org/Graphics/SVG/1.1/DTD/svg11.dtd">
<svg version="1.1" id="Layer_1" xmlns="http://www.w3.org/2000/svg" xmlns:xlink="http://www.w3.org/1999/xlink" x="0px" y="0px"
	 width="433px" height="115px" viewBox="0 0 433 115" enable-background="new 0 0 433 115" xml:space="preserve">
<g>
	<rect x="13.928" y="11.331" fill="#DD8005" width="375.2" height="90.299"/>
	
		<linearGradient id="SVGID_1_" gradientUnits="userSpaceOnUse" x1="1688.9727" y1="235.5195" x2="1716.9727" y2="235.5195" gradientTransform="matrix(-1 0 0 -1 1978 292)">
		<stop  offset="0" style="stop-color:#A66004"/>
		<stop  offset="1" style="stop-color:#DD8005;stop-opacity:0"/>
	</linearGradient>
	<rect x="261.027" y="11.331" fill="url(#SVGID_1_)" width="28" height="90.299"/>
	<rect x="282.728" y="11.331" fill="#FFAF50" width="106.4" height="90.299"/>
	<polygon fill="#FFAF50" points="389.167,24.742 419.855,55.43 389.167,86.118 	"/>
	<g>
		<polygon opacity="0.3" fill="#473B3A" points="341.263,28.086 348.546,50.498 372.11,50.498 353.046,64.493 360.328,86.975 
			341.263,73.16 322.197,87.028 329.48,64.483 310.415,50.498 333.98,50.498 		"/>
		<polygon fill="#F8E9B2" points="337.1,23.228 344.382,45.639 367.946,45.639 348.882,59.564 356.164,82.013 337.1,68.18 
			318.034,82.041 325.317,59.559 306.252,45.639 329.816,45.639 		"/>
	</g>
	<g>
		
			<image overflow="visible" opacity="0.39" width="1095" height="396" xlink:href="E82B152E.png"  transform="matrix(0.24 0 0 0.24 30.1011 23.2002)">
		</image>
		<g>
			<rect x="44.101" y="41.078" fill="none" width="220.667" height="49"/>
			<text transform="matrix(1 0 0 1 44.1011 71.4775)" fill="#FFFFFF" font-family="'OpenSans-Bold'" font-size="40">VEJA AQUI!</text>
		</g>
	</g>
</g>
</svg>
