<?xml version="1.0" encoding="utf-8"?>
<!-- Generator: Adobe Illustrator 15.1.0, SVG Export Plug-In . SVG Version: 6.00 Build 0)  -->
<!DOCTYPE svg PUBLIC "-//W3C//DTD SVG 1.1//EN" "http://www.w3.org/Graphics/SVG/1.1/DTD/svg11.dtd">
<svg version="1.1" id="Layer_1" xmlns="http://www.w3.org/2000/svg" xmlns:xlink="http://www.w3.org/1999/xlink" x="0px" y="0px"
	 width="433px" height="115px" viewBox="0 0 433 115" enable-background="new 0 0 433 115" xml:space="preserve">
<g>
	<rect x="13.928" y="11.331" fill="#DD8005" width="375.2" height="90.299"/>
	
		<linearGradient id="SVGID_1_" gradientUnits="userSpaceOnUse" x1="1688.9727" y1="235.5195" x2="1716.9727" y2="235.5195" gradientTransform="matrix(-1 0 0 -1 1978 292)">
		<stop  offset="0" style="stop-color:#A66004"/>
		<stop  offset="1" style="stop-color:#DD8005;stop-opacity:0"/>
	</linearGradient>
	<rect x="261.027" y="11.331" fill="url(#SVGID_1_)" width="28" height="90.299"/>
	<rect x="282.728" y="11.331" fill="#FFAF50" width="106.4" height="90.299"/>
	<polygon fill="#FFAF50" points="389.167,24.742 419.855,55.43 389.167,86.118 	"/>
	<g>
		<polygon opacity="0.3" fill="#473B3A" points="341.263,28.086 348.546,50.498 372.11,50.498 353.046,64.493 360.328,86.975 
			341.263,73.16 322.197,87.028 329.48,64.483 310.415,50.498 333.98,50.498 		"/>
		<polygon fill="#F8E9B2" points="337.1,23.228 344.382,45.639 367.946,45.639 348.882,59.564 356.164,82.013 337.1,68.18 
			318.034,82.041 325.317,59.559 306.252,45.639 329.816,45.639 		"/>
	</g>
	<g>
		
			<image overflow="visible" opacity="0.39" width="1078" height="359" xlink:href="E82B1528.png"  transform="matrix(0.24 0 0 0.24 22.7681 23.7544)">
		</image>
		<g>
			<g>
				<path fill="#FFFFFF" d="M58.639,39.774h6.725l-10.678,31.41h-7.262l-10.656-31.41h6.725l5.908,18.691
					c0.329,1.103,0.669,2.389,1.021,3.856c0.351,1.468,0.569,2.489,0.655,3.062c0.157-1.317,0.694-3.624,1.611-6.918L58.639,39.774z
					"/>
				<path fill="#FFFFFF" d="M79.672,71.614c-3.867,0-6.89-1.067-9.066-3.201c-2.177-2.134-3.266-5.156-3.266-9.066
					c0-4.024,1.006-7.136,3.019-9.335c2.012-2.198,4.794-3.298,8.347-3.298c3.395,0,6.037,0.967,7.928,2.9s2.836,4.605,2.836,8.014
					v3.18h-15.49c0.071,1.862,0.623,3.316,1.654,4.361c1.031,1.046,2.478,1.568,4.34,1.568c1.446,0,2.814-0.15,4.104-0.451
					s2.635-0.78,4.039-1.439v5.07c-1.146,0.573-2.371,0.999-3.674,1.278C83.138,71.474,81.548,71.614,79.672,71.614z M78.749,51.375
					c-1.39,0-2.478,0.44-3.266,1.321c-0.788,0.881-1.239,2.131-1.354,3.749h9.195c-0.029-1.618-0.451-2.868-1.268-3.749
					S80.138,51.375,78.749,51.375z"/>
				<path fill="#FFFFFF" d="M92.864,81.754c-1.676,0-3.115-0.18-4.318-0.537v-5.156c1.003,0.271,2.027,0.408,3.072,0.408
					c1.103,0,1.908-0.309,2.417-0.923c0.508-0.616,0.763-1.525,0.763-2.729V47.165h6.553v26.619c0,2.548-0.738,4.514-2.213,5.897
					C97.662,81.063,95.571,81.754,92.864,81.754z M94.518,40.956c0-2.134,1.188-3.201,3.566-3.201c2.377,0,3.566,1.067,3.566,3.201
					c0,1.017-0.297,1.809-0.892,2.374c-0.595,0.566-1.486,0.849-2.675,0.849C95.707,44.178,94.518,43.104,94.518,40.956z"/>
				<path fill="#FFFFFF" d="M123.479,71.184l-1.268-3.266h-0.172c-1.103,1.39-2.238,2.353-3.405,2.89
					c-1.167,0.537-2.689,0.806-4.565,0.806c-2.306,0-4.122-0.658-5.446-1.977c-1.325-1.317-1.987-3.194-1.987-5.629
					c0-2.549,0.892-4.429,2.675-5.64c1.783-1.21,4.472-1.88,8.067-2.009l4.168-0.129v-1.053c0-2.435-1.246-3.652-3.738-3.652
					c-1.919,0-4.175,0.58-6.768,1.74l-2.17-4.426c2.764-1.446,5.829-2.17,9.195-2.17c3.223,0,5.693,0.702,7.412,2.105
					c1.719,1.404,2.578,3.538,2.578,6.402v16.006H123.479z M121.545,60.055l-2.535,0.086c-1.905,0.058-3.323,0.401-4.254,1.031
					c-0.931,0.63-1.396,1.59-1.396,2.879c0,1.848,1.06,2.771,3.18,2.771c1.518,0,2.732-0.437,3.642-1.311
					c0.909-0.874,1.364-2.034,1.364-3.48V60.055z"/>
				<path fill="#FFFFFF" d="M165.975,71.184l-2.277-7.477h-11.451l-2.277,7.477h-7.176l11.086-31.539h8.143l11.129,31.539H165.975z
					 M162.108,58.122c-2.105-6.774-3.291-10.606-3.556-11.494c-0.265-0.888-0.455-1.59-0.569-2.105
					c-0.473,1.833-1.826,6.367-4.061,13.6H162.108z"/>
				<path fill="#FFFFFF" d="M184.194,71.614c-2.836,0-5.057-1.092-6.66-3.276c-1.604-2.184-2.406-5.224-2.406-9.12
					c0-3.924,0.819-6.989,2.46-9.195c1.64-2.206,3.885-3.309,6.735-3.309c1.518,0,2.843,0.287,3.975,0.859
					c1.131,0.573,2.127,1.461,2.986,2.664h0.172l0.58-3.072h5.542v34.589h-6.574V71.678c0-0.873,0.093-2.077,0.279-3.609h-0.279
					c-0.702,1.16-1.633,2.041-2.793,2.643S185.711,71.614,184.194,71.614z M186.536,66.479c1.661,0,2.879-0.476,3.652-1.429
					c0.773-0.952,1.195-2.617,1.268-4.995V59.26c0-2.578-0.397-4.426-1.192-5.543s-2.073-1.676-3.835-1.676
					c-3.08,0-4.619,2.421-4.619,7.262c0,2.406,0.383,4.204,1.149,5.393C183.724,65.885,184.917,66.479,186.536,66.479z"/>
				<path fill="#FFFFFF" d="M221.447,71.184l-0.881-3.072h-0.344c-0.702,1.117-1.697,1.98-2.986,2.589s-2.758,0.913-4.404,0.913
					c-2.822,0-4.949-0.755-6.381-2.267c-1.433-1.511-2.148-3.685-2.148-6.521V47.165h6.553v14.029c0,1.733,0.308,3.033,0.924,3.899
					c0.615,0.867,1.597,1.3,2.943,1.3c1.833,0,3.158-0.612,3.975-1.837s1.225-3.255,1.225-6.091V47.165h6.553v24.02H221.447z"/>
				<path fill="#FFFFFF" d="M233.07,40.956c0-2.134,1.188-3.201,3.566-3.201c2.377,0,3.566,1.067,3.566,3.201
					c0,1.017-0.298,1.809-0.892,2.374c-0.595,0.566-1.486,0.849-2.675,0.849C234.259,44.178,233.07,43.104,233.07,40.956z
					 M239.902,71.184h-6.553v-24.02h6.553V71.184z"/>
				<path fill="#FFFFFF" d="M245.854,68.112c0-1.203,0.322-2.112,0.967-2.729c0.645-0.616,1.582-0.924,2.814-0.924
					c1.188,0,2.108,0.315,2.761,0.945c0.651,0.63,0.978,1.533,0.978,2.707c0,1.132-0.33,2.023-0.988,2.675
					c-0.659,0.651-1.576,0.978-2.75,0.978c-1.203,0-2.135-0.319-2.793-0.956C246.183,70.171,245.854,69.272,245.854,68.112z
					 M252.277,60.764h-5.242l-1.096-20.99h7.434L252.277,60.764z"/>
			</g>
		</g>
	</g>
</g>
</svg>
