<?xml version="1.0" encoding="utf-8"?>
<!-- Generator: Adobe Illustrator 15.1.0, SVG Export Plug-In . SVG Version: 6.00 Build 0)  -->
<!DOCTYPE svg PUBLIC "-//W3C//DTD SVG 1.1//EN" "http://www.w3.org/Graphics/SVG/1.1/DTD/svg11.dtd">
<svg version="1.1" id="Layer_3" xmlns="http://www.w3.org/2000/svg" xmlns:xlink="http://www.w3.org/1999/xlink" x="0px" y="0px"
	 width="213px" height="213px" viewBox="-47.5 -51.501 213 213" enable-background="new -47.5 -51.501 213 213"
	 xml:space="preserve">
<g>
	<circle fill="none" stroke="#2B3D4F" stroke-width="4" stroke-miterlimit="10" cx="59" cy="54.999" r="104.5"/>
</g>
<path fill="#2B3D4F" d="M116.033,61.22c0,2.822-2.287,5.115-5.114,5.115H90.463c-2.347,0-4.384-1.6-4.963-3.871l-0.771-3.092
	l-2.961-8.89L62.337,62.753L72.939,86.73l1.509,2.637c0.903,1.588,0.898,3.524-0.016,5.104c-0.918,1.577-2.606,2.546-4.425,2.546
	H34.21c-2.82,0-5.113-2.287-5.113-5.114c0-2.825,2.293-5.112,5.113-5.112h25.136L41.882,62.244
	c-5.114-7.162-0.513-11.252,5.113-15.342l24.037-14.833l-12.54-11.403l-23.279,4.657c-2.771,0.55-5.466-1.248-6.014-4.012
	c-0.556-2.767,1.24-5.461,4.011-6.013l25.572-5.114c1.417-0.292,2.901,0.05,4.064,0.927l19.302,14.478
	c0.829,0.31,1.703,0.894,2.692,1.883l5.113,8.689l4.77,19.946h16.195C113.746,56.106,116.033,58.398,116.033,61.22z M98.135,30.537
	c7.062,0,12.784-5.723,12.784-12.784c0-7.063-5.723-12.785-12.784-12.785c-7.061,0-12.785,5.722-12.785,12.784
	S91.073,30.537,98.135,30.537z M35.744,119.006c-2.044,2.047-2.044,5.113,0,7.16c1.024,1.025,2.048,1.535,3.582,1.535
	c1.534,0,2.557-0.51,3.58-1.535L69.5,102.131H52.621L35.744,119.006z M30.63,50.992H-6.7v5.114h35.797
	C29.097,54.059,29.608,52.526,30.63,50.992z M49.042,35.65H-6.7v5.115h47.559L49.042,35.65z M33.188,66.335H-6.7v5.112h43.468
	L33.188,66.335z"/>
</svg>
