<?xml version="1.0" encoding="utf-8"?>
<!-- Generator: Adobe Illustrator 15.1.0, SVG Export Plug-In . SVG Version: 6.00 Build 0)  -->
<!DOCTYPE svg PUBLIC "-//W3C//DTD SVG 1.1//EN" "http://www.w3.org/Graphics/SVG/1.1/DTD/svg11.dtd">
<svg version="1.1" id="Layer_1" xmlns="http://www.w3.org/2000/svg" xmlns:xlink="http://www.w3.org/1999/xlink" x="0px" y="0px"
	 width="96px" height="32.25px" viewBox="-2.159 -3.23 96 32.25" enable-background="new -2.159 -3.23 96 32.25"
	 xml:space="preserve">
<g>
	<g>
		<g>
			<path fill="#5C7287" d="M1.795,1.619c0,0,5.87-3.888,7.053,0.384L8.711,13.174c0,0-0.709,4.357,4.944,5.67
				c5.655,1.313,21.775,2.189,40.331,1.632c18.558-0.56,28.94-1.94,30.064-4.015c1.123-2.074,1.091-7.671,1.764-8.919
				c0.676-1.247,2.259-3.094,2.829-2.448c0.366,0.412-1.588,0.699-1.755,2.526c-0.167,1.829,1.519,6.755,2.045,8.228
				c0.526,1.475,2.466,5.41-3.201,6.796c-5.667,1.388-18.43,3.204-30.768,3.349c-12.335,0.146-42.463-0.805-44.204-1.025
				c-1.739-0.221-10.24-1.248-7.563-8.325c2.676-7.076,3.94-9.269,3.989-11.401C7.237,3.108,7.717,0.497,1.795,1.619"/>
			<g>
				<g>
					<g>
						<path fill="#5C7287" d="M78.245,14.093c-0.872-0.011-1.618-0.282-2.233-0.816c-0.619-0.525-0.928-1.247-0.928-2.164V8.665
							V6.339V1.513h1.804v2.721h2.236l0,0v1.261l0,0v0.174h-2.236v2.996v2.448c0,0.543,0.133,0.943,0.395,1.196
							c0.263,0.253,0.584,0.385,0.963,0.393V14.093L78.245,14.093z M70.158,5.607c0.38,0,0.709,0.124,0.986,0.374
							c0.089,0.081,0.166,0.177,0.228,0.288h-0.001c0.117,0.222,0.177,0.506,0.177,0.851v0.186h1.804V7.134
							c0-0.064,0-0.124-0.004-0.186h0.004V6.907c0-0.839-0.326-1.495-0.971-1.965c-0.329-0.247-0.675-0.428-1.034-0.547
							c-0.361-0.115-0.755-0.176-1.188-0.176c-0.885,0-1.645,0.263-2.282,0.792c-0.627,0.517-0.94,1.15-0.94,1.895
							c0,0.509,0.151,0.958,0.456,1.346c0.303,0.384,0.763,0.701,1.38,0.947c0.369,0.141,0.72,0.275,1.049,0.404
							c0.329,0.125,0.637,0.241,0.926,0.344c0.492,0.19,0.756,0.542,0.785,1.062v0.183c-0.02,0.548-0.165,0.94-0.439,1.176
							c-0.271,0.235-0.593,0.353-0.963,0.353c-0.381,0-0.709-0.123-0.986-0.368c-0.277-0.245-0.415-0.633-0.415-1.162v-0.185h-1.805
							v0.173c0,0.896,0.313,1.602,0.938,2.122c0.64,0.527,1.393,0.791,2.268,0.791c0.854,0,1.594-0.23,2.22-0.693
							c0.659-0.462,0.988-1.198,0.988-2.208v-0.169c0-0.386-0.135-0.801-0.4-1.244c-0.135-0.236-0.341-0.441-0.618-0.615
							c-0.276-0.175-0.632-0.341-1.064-0.502l-1.82-0.679c-0.462-0.207-0.693-0.566-0.693-1.076c0-0.178,0.039-0.349,0.115-0.508
							c0.078-0.161,0.18-0.299,0.309-0.417c0.13-0.119,0.277-0.211,0.447-0.275C69.781,5.64,69.962,5.607,70.158,5.607
							 M17.966,6.979V6.692V5.579v-1.11c0-0.507,0.106-0.882,0.317-1.125c0.211-0.245,0.464-0.365,0.764-0.365
							c0.298,0,0.554,0.12,0.763,0.365c0.211,0.243,0.316,0.617,0.316,1.125v1.11v1.113v0.287H17.966z M15.576,14.093h2.39v-5.58
							h2.16v5.58h2.391V6.691V5.577V4.468c0-0.897-0.351-1.637-1.049-2.222c-0.309-0.273-0.668-0.481-1.08-0.627
							c-0.411-0.147-0.856-0.22-1.34-0.22c-0.977,0-1.79,0.277-2.437,0.832c-0.688,0.584-1.033,1.33-1.033,2.236v1.11v1.114
							L15.576,14.093L15.576,14.093L15.576,14.093z M24.581,14.093h2.392V7.28c0-0.534,0.104-0.919,0.314-1.161
							c0.211-0.241,0.466-0.362,0.764-0.362c0.301,0,0.555,0.148,0.763,0.449c0.213,0.299,0.319,0.745,0.319,1.333h2.389
							c0-0.995-0.333-1.808-1-2.436c-0.331-0.309-0.698-0.533-1.104-0.675c-0.405-0.14-0.86-0.209-1.365-0.209
							c-0.994,0-1.81,0.274-2.437,0.827h0.017c-0.698,0.569-1.049,1.313-1.049,2.232v6.814L24.581,14.093L24.581,14.093z
							 M46.063,11.123c0,0.51-0.104,0.883-0.31,1.118c-0.205,0.235-0.464,0.353-0.771,0.353c-0.298,0-0.553-0.112-0.762-0.338
							c-0.214-0.226-0.318-0.6-0.318-1.118V7.206c0-0.519,0.104-0.896,0.318-1.132c0.209-0.236,0.464-0.354,0.762-0.354
							c0.307,0,0.565,0.118,0.771,0.354c0.205,0.236,0.31,0.613,0.31,1.132V11.123z M48.454,7.205c0-0.888-0.347-1.613-1.034-2.179
							h0.014c-0.318-0.273-0.683-0.476-1.092-0.607c-0.411-0.132-0.864-0.198-1.357-0.198c-0.997,0-1.809,0.269-2.437,0.806
							c-0.688,0.566-1.033,1.292-1.033,2.179v3.917c0,0.425,0.089,0.821,0.269,1.187c0.181,0.37,0.436,0.7,0.765,0.992
							c0.317,0.244,0.685,0.437,1.095,0.58c0.411,0.144,0.858,0.212,1.342,0.212c1.007,0,1.825-0.266,2.45-0.792h-0.014
							c0.688-0.576,1.034-1.303,1.034-2.179L48.454,7.205L48.454,7.205z M52.231,8.534h2.807V9.25v2.421v2.422h1.803v-2.422V9.25
							V8.534V7.073V1.514h-1.803v5.559h-2.807V1.514h-1.807v7.737v2.421v2.422h1.807v-2.422V9.251V8.534z M63.366,8.432v1.172v1.541
							c0,0.536-0.137,0.933-0.411,1.188c-0.271,0.253-0.604,0.382-0.993,0.382c-0.391,0-0.725-0.123-0.995-0.368
							c-0.272-0.246-0.409-0.641-0.409-1.189V7.171c0-0.547,0.137-0.945,0.409-1.197c0.271-0.249,0.604-0.373,0.995-0.373
							c0.391,0,0.723,0.124,0.993,0.373c0.274,0.251,0.411,0.65,0.411,1.197V8.432z M65.171,9.611V8.44V7.178
							c0-0.915-0.314-1.631-0.942-2.15c-0.638-0.537-1.392-0.806-2.267-0.806c-0.885,0-1.642,0.269-2.267,0.806
							c-0.626,0.519-0.939,1.235-0.939,2.15v3.974c0,0.915,0.313,1.631,0.939,2.151c0.639,0.527,1.394,0.792,2.267,0.792
							c0.875,0,1.629-0.265,2.267-0.792c0.628-0.52,0.942-1.236,0.942-2.151V9.611z M36.316,12.153c-0.297,0-0.555-0.12-0.77-0.358
							c-0.218-0.242-0.325-0.623-0.325-1.143c0-0.873,0.41-0.736,1.08-0.736c1.009,0,1.825-0.295,2.452-0.882
							c0.688-0.646,1.034-1.363,1.034-2.151c0-0.336-0.059-0.654-0.18-0.954c-0.117-0.298-0.29-0.588-0.515-0.867
							c-0.393-0.49-0.916-0.832-1.573-1.025V2.81h-2.39v1.199c-0.333,0.106-0.633,0.248-0.902,0.426
							c-0.274,0.178-0.502,0.384-0.687,0.614c-0.475,0.567-0.711,1.18-0.711,1.834c0,0.309,0.072,0.629,0.216,0.96
							c0.144,0.332,0.329,0.639,0.555,0.917c-0.268,0.308-0.461,0.618-0.586,0.931c-0.123,0.313-0.185,0.633-0.185,0.961
							c0,0.789,0.346,1.501,1.033,2.136c0.628,0.589,1.44,0.883,2.438,0.883h0.692c0.113,0,0.209,0.057,0.285,0.173
							c0.077,0.115,0.117,0.25,0.117,0.404v4.422h2.391v-4.684c0-0.308-0.05-0.577-0.147-0.809c-0.099-0.232-0.229-0.421-0.4-0.571
							c-0.169-0.148-0.37-0.262-0.602-0.337c-0.23-0.079-0.476-0.117-0.732-0.117H36.316L36.316,12.153L36.316,12.153z
							 M35.238,6.521c0.01-0.154,0.044-0.3,0.107-0.439c0.062-0.14,0.142-0.264,0.241-0.37c0.097-0.105,0.208-0.189,0.329-0.252
							c0.125-0.063,0.258-0.094,0.402-0.094c0.298,0,0.549,0.115,0.757,0.347c0.204,0.231,0.317,0.5,0.337,0.809v0.636
							c0,0.347-0.105,0.638-0.315,0.873c-0.211,0.237-0.471,0.354-0.778,0.354c-0.29,0-0.54-0.117-0.755-0.354
							c-0.216-0.236-0.323-0.527-0.323-0.873L35.238,6.521L35.238,6.521z M36.567,3.836h0.043"/>
					</g>
				</g>
			</g>
		</g>
	</g>
</g>
</svg>
