<?xml version="1.0" encoding="utf-8"?>
<!-- Generator: Adobe Illustrator 15.1.0, SVG Export Plug-In . SVG Version: 6.00 Build 0)  -->
<!DOCTYPE svg PUBLIC "-//W3C//DTD SVG 1.1//EN" "http://www.w3.org/Graphics/SVG/1.1/DTD/svg11.dtd">
<svg version="1.1" id="Layer_1" xmlns="http://www.w3.org/2000/svg" xmlns:xlink="http://www.w3.org/1999/xlink" x="0px" y="0px"
	 width="237.082px" height="75.695px" viewBox="0 0 237.082 75.695" enable-background="new 0 0 237.082 75.695"
	 xml:space="preserve">
<path fill="#FFFFFF" d="M5.927,6.483c0,0,16.799-11.007,18.133,1.067c0.67,6.053-0.459,18.265-0.599,24.354
	c-0.136,5.945-1.92,12.017,12.597,15.644c14.516,3.628,38.201,10.3,85.946,8.775c47.747-1.526,89.519-3.226,95.185-8.82
	c4.574-4.517,3.842-19.186,4.74-24.598c0.633-3.813,4.859-9.59,7.328-6.752c1.818,2.089-2.463,2.993-2.933,8.034
	c-0.471,5.04,2.121,17.566,3.441,21.629c1.319,4.064,5.059,27.986-10.04,27.986H28.445c-4.511,0-26.276-6.364-19.236-25.88
	c7.04-19.517,8.316-25.256,8.489-31.138C17.869,10.902,18.622,2.021,5.927,6.483"/>
</svg>
