<?xml version="1.0" encoding="utf-8"?>
<!-- Generator: Adobe Illustrator 15.1.0, SVG Export Plug-In . SVG Version: 6.00 Build 0)  -->
<!DOCTYPE svg PUBLIC "-//W3C//DTD SVG 1.1 Tiny//EN" "http://www.w3.org/Graphics/SVG/1.1/DTD/svg11-tiny.dtd">
<svg version="1.1" baseProfile="tiny" id="Layer_1" xmlns="http://www.w3.org/2000/svg" xmlns:xlink="http://www.w3.org/1999/xlink"
	 x="0px" y="0px" width="87.887px" height="32.004px" viewBox="0 0 87.887 32.004" xml:space="preserve">
<g>
	<g>
		<g>
			<path fill="#5C7287" d="M4.829,5.671c0,0,5.358-3.551,6.438,0.35c-0.03,2.463-0.477,4.893-0.349,7.362
				c0.179,3.461,1.49,3.658,4.736,4.412c5.163,1.197,19.88,1.998,36.817,1.488c16.94-0.51,26.418-1.77,27.444-3.663
				c1.024-1.896,0.997-3.404,1.608-4.543c0.617-1.139,2.063-2.826,2.583-2.234c0.335,0.375-1.447,0.637-1.602,2.305
				c-0.153,1.669,1.386,6.167,1.866,7.511c0.479,1.347,2.251,4.938-2.922,6.204c-5.174,1.267-16.823,2.923-28.088,3.057
				c-11.259,0.132-38.763-0.734-40.352-0.938c-1.587-0.199-9.347-1.139-6.904-7.599c2.443-6.46,3.598-8.462,3.643-10.407
				C9.798,7.03,10.235,4.647,4.829,5.671"/>
			<g>
				<g>
					<g>
						<path fill="#5C7287" d="M69.252,15.036c-0.671-0.007-1.246-0.217-1.719-0.628c-0.477-0.402-0.716-0.958-0.716-1.664V10.86
							V9.07V5.356h1.39v2.095h1.721l0,0v0.97l0,0v0.133h-1.721v2.306v1.884c0,0.418,0.103,0.726,0.304,0.92
							c0.203,0.195,0.449,0.297,0.741,0.303V15.036L69.252,15.036z M63.028,8.506c0.292,0,0.546,0.096,0.76,0.288
							c0.068,0.062,0.129,0.137,0.176,0.222h-0.001c0.091,0.171,0.137,0.39,0.137,0.655v0.144h1.388V9.684
							c0-0.049,0-0.096-0.004-0.144h0.004V9.509c0-0.645-0.252-1.15-0.746-1.512c-0.254-0.19-0.521-0.329-0.797-0.42
							c-0.278-0.089-0.582-0.135-0.916-0.135c-0.681,0-1.266,0.202-1.756,0.609c-0.481,0.398-0.723,0.885-0.723,1.458
							c0,0.392,0.115,0.736,0.351,1.035c0.233,0.297,0.586,0.541,1.063,0.729c0.283,0.109,0.553,0.211,0.806,0.311
							c0.253,0.095,0.489,0.185,0.713,0.264c0.378,0.146,0.582,0.417,0.604,0.817v0.141c-0.016,0.422-0.126,0.724-0.337,0.905
							c-0.209,0.182-0.457,0.272-0.741,0.272c-0.293,0-0.546-0.095-0.76-0.284c-0.212-0.188-0.317-0.486-0.317-0.894v-0.142h-1.39
							v0.133c0,0.689,0.241,1.232,0.722,1.633c0.493,0.406,1.072,0.608,1.744,0.608c0.656,0,1.227-0.178,1.709-0.534
							c0.507-0.355,0.76-0.922,0.76-1.698v-0.13c0-0.297-0.103-0.617-0.309-0.957c-0.104-0.182-0.263-0.339-0.477-0.474
							c-0.212-0.133-0.484-0.262-0.816-0.386l-1.401-0.523c-0.355-0.159-0.534-0.436-0.534-0.828c0-0.137,0.03-0.268,0.089-0.392
							c0.062-0.123,0.14-0.229,0.238-0.32c0.1-0.092,0.212-0.162,0.345-0.211C62.738,8.533,62.878,8.506,63.028,8.506 M22.867,9.563
							v-0.22V8.485V7.632c0-0.391,0.082-0.679,0.243-0.866c0.163-0.188,0.356-0.281,0.588-0.281c0.229,0,0.426,0.092,0.587,0.281
							c0.161,0.187,0.243,0.475,0.243,0.866v0.853v0.858v0.22H22.867z M21.028,15.036h1.84v-4.292h1.661v4.292h1.842V9.341V8.483
							V7.631c0-0.691-0.271-1.26-0.809-1.71C25.325,5.71,25.048,5.55,24.731,5.44c-0.316-0.114-0.659-0.17-1.031-0.17
							c-0.751,0-1.378,0.214-1.875,0.64c-0.53,0.449-0.796,1.024-0.796,1.721v0.854v0.858L21.028,15.036L21.028,15.036
							L21.028,15.036z M27.956,15.036h1.841V9.794c0-0.411,0.08-0.708,0.242-0.894c0.163-0.186,0.357-0.279,0.588-0.279
							s0.426,0.114,0.587,0.345c0.164,0.23,0.245,0.574,0.245,1.026h1.838c0-0.766-0.256-1.391-0.77-1.875
							c-0.255-0.238-0.537-0.41-0.85-0.52c-0.312-0.108-0.662-0.161-1.05-0.161c-0.766,0-1.394,0.21-1.875,0.636h0.013
							c-0.537,0.438-0.807,1.01-0.807,1.718v5.243h-0.003V15.036z M44.488,12.751c0,0.393-0.078,0.678-0.237,0.862
							c-0.157,0.18-0.356,0.27-0.593,0.27c-0.229,0-0.426-0.086-0.587-0.26c-0.163-0.174-0.244-0.462-0.244-0.86V9.737
							c0-0.399,0.081-0.691,0.244-0.871c0.161-0.182,0.357-0.273,0.587-0.273c0.234,0,0.434,0.091,0.593,0.273
							c0.158,0.18,0.237,0.472,0.237,0.871V12.751z M46.328,9.737c0-0.683-0.269-1.241-0.798-1.677h0.012
							c-0.245-0.21-0.524-0.366-0.841-0.467c-0.316-0.101-0.664-0.152-1.043-0.152c-0.77,0-1.394,0.207-1.875,0.62
							c-0.531,0.436-0.797,0.994-0.797,1.677v3.015c0,0.326,0.069,0.631,0.207,0.913c0.14,0.284,0.336,0.539,0.59,0.764
							c0.243,0.187,0.526,0.336,0.842,0.446c0.314,0.111,0.661,0.164,1.033,0.164c0.773,0,1.403-0.204,1.885-0.61h-0.011
							c0.528-0.442,0.797-1.003,0.797-1.676L46.328,9.737L46.328,9.737z M49.234,10.76h2.159v0.55v1.863v1.863h1.389v-1.863V11.31
							v-0.55V9.635V5.358h-1.389v4.277h-2.159V5.358h-1.391v5.953v1.863v1.865h1.391v-1.865v-1.863V10.76z M57.802,10.681v0.902
							v1.187c0,0.412-0.105,0.718-0.317,0.915c-0.207,0.194-0.464,0.294-0.764,0.294c-0.301,0-0.558-0.095-0.767-0.282
							c-0.209-0.189-0.315-0.494-0.315-0.916V9.712c0-0.422,0.105-0.728,0.315-0.921c0.208-0.192,0.465-0.288,0.767-0.288
							c0.301,0,0.556,0.096,0.764,0.288c0.211,0.192,0.317,0.499,0.317,0.921V10.681z M59.191,11.587v-0.9V9.715
							c0-0.703-0.242-1.254-0.727-1.652c-0.491-0.413-1.069-0.621-1.744-0.621c-0.681,0-1.264,0.207-1.744,0.621
							c-0.48,0.398-0.723,0.949-0.723,1.652v3.059c0,0.704,0.241,1.255,0.723,1.656c0.492,0.404,1.072,0.608,1.744,0.608
							c0.674,0,1.253-0.204,1.744-0.608c0.482-0.4,0.727-0.952,0.727-1.656V11.587z M36.988,13.544
							c-0.229,0-0.427-0.092-0.592-0.275c-0.169-0.186-0.25-0.479-0.25-0.879c0-0.672,0.316-0.567,0.831-0.567
							c0.777,0,1.405-0.227,1.889-0.679c0.528-0.496,0.795-1.049,0.795-1.654c0-0.259-0.044-0.504-0.139-0.734
							c-0.091-0.229-0.224-0.452-0.396-0.667c-0.302-0.377-0.705-0.64-1.211-0.788V6.357h-1.838v0.922
							C35.821,7.36,35.59,7.47,35.384,7.608c-0.211,0.136-0.386,0.295-0.528,0.472c-0.365,0.435-0.548,0.908-0.548,1.411
							c0,0.238,0.058,0.483,0.167,0.738c0.111,0.255,0.252,0.492,0.426,0.706c-0.206,0.238-0.354,0.476-0.45,0.715
							c-0.096,0.242-0.144,0.488-0.144,0.74c0,0.606,0.267,1.154,0.795,1.643c0.483,0.453,1.108,0.678,1.875,0.678h0.533
							c0.087,0,0.161,0.046,0.22,0.134c0.06,0.089,0.09,0.193,0.09,0.311v3.402h1.84v-3.604c0-0.237-0.038-0.442-0.113-0.621
							c-0.076-0.178-0.177-0.324-0.31-0.439c-0.13-0.113-0.284-0.201-0.463-0.26c-0.177-0.061-0.364-0.089-0.563-0.089h-1.224
							V13.544L36.988,13.544z M36.158,9.21c0.007-0.118,0.033-0.23,0.083-0.337c0.047-0.108,0.108-0.203,0.186-0.284
							c0.075-0.081,0.16-0.146,0.254-0.195c0.096-0.048,0.198-0.072,0.311-0.072c0.229,0,0.422,0.088,0.58,0.267
							c0.157,0.177,0.245,0.383,0.261,0.622v0.49c0,0.266-0.082,0.49-0.242,0.671c-0.164,0.183-0.362,0.273-0.599,0.273
							c-0.225,0-0.416-0.091-0.582-0.273S36.16,9.966,36.16,9.701L36.158,9.21L36.158,9.21z M37.18,7.145h0.034"/>
					</g>
				</g>
			</g>
		</g>
	</g>
</g>
<rect x="25.193" y="21.543" fill="none" width="41.001" height="5.55"/>
<rect x="20.506" y="21.066" fill="none" width="5.313" height="9.5"/>
<rect x="19.235" y="20.879" fill="none" width="49.29" height="5.5"/>
<text transform="matrix(1 0 0 1 42.6077 25.0313)" fill="#FFFFFF" font-family="'MyriadPro-BoldCond'" font-size="6"> </text>
<text transform="matrix(1 0 0 1 54.2639 25.0313)" fill="#FFFFFF" font-family="'MyriadPro-BoldCond'" font-size="6"> </text>
<text transform="matrix(1 0 0 1 56.9631 25.0313)" fill="#FFFFFF" font-family="'MyriadPro-BoldCond'" font-size="6"> </text>
<text transform="matrix(0.9876 0.1572 -0.1572 0.9876 19.0623 28.6104)" fill="#FFFFFF" font-family="'MyriadPro-Regular'" font-size="12">® </text>
<path fill="none" d="M25.237,24.689c0,0,17.252,2.902,49.499-0.957"/>
<text transform="matrix(0.9937 0.1121 -0.1121 0.9937 26.2156 24.8389)" fill="#FFFFFF" font-family="'MyriadPro-BoldCond'" font-size="5">A</text>
<text transform="matrix(0.9959 0.0905 -0.0905 0.9959 28.5759 25.0996)" fill="#FFFFFF" font-family="'MyriadPro-BoldCond'" font-size="5">r</text>
<text transform="matrix(0.9973 0.0739 -0.0739 0.9973 30.0789 25.2383)" fill="#FFFFFF" font-family="'MyriadPro-BoldCond'" font-size="5">g</text>
<text transform="matrix(0.9984 0.0572 -0.0572 0.9984 32.3528 25.4053)" fill="#FFFFFF" font-family="'MyriadPro-BoldCond'" font-size="5">o</text>
<text transform="matrix(0.9991 0.0422 -0.0422 0.9991 34.5535 25.5322)" fill="#FFFFFF" font-family="'MyriadPro-BoldCond'" font-size="5">h</text>
<text transform="matrix(0.9996 0.0289 -0.0289 0.9996 36.865 25.6279)" fill="#FFFFFF" font-family="'MyriadPro-BoldCond'" font-size="5">o</text>
<text transform="matrix(0.9998 0.0182 -0.0182 0.9998 39.0608 25.6904)" fill="#FFFFFF" font-family="'MyriadPro-BoldCond'" font-size="5">s</text>
<text transform="matrix(1 0.0095 -0.0095 1 40.7361 25.7207)" fill="#FFFFFF" font-family="'MyriadPro-BoldCond'" font-size="5">t</text>
<text transform="matrix(1 0.0033 -0.0033 1 42.3538 25.7334)" fill="#FFFFFF" font-family="'MyriadPro-BoldCond'" font-size="5"> </text>
<text transform="matrix(1 -0.0041 0.0041 1 43.2063 25.7402)" fill="#FFFFFF" font-family="'MyriadPro-BoldCond'" font-size="5">2</text>
<text transform="matrix(0.9999 -0.0142 0.0142 0.9999 45.3811 25.7285)" fill="#FFFFFF" font-family="'MyriadPro-BoldCond'" font-size="5">0</text>
<text transform="matrix(0.9997 -0.024 0.024 0.9997 47.5715 25.6982)" fill="#FFFFFF" font-family="'MyriadPro-BoldCond'" font-size="5">0</text>
<text transform="matrix(0.9994 -0.0333 0.0333 0.9994 49.7268 25.6455)" fill="#FFFFFF" font-family="'MyriadPro-BoldCond'" font-size="5">3</text>
<text transform="matrix(0.9992 -0.0396 0.0396 0.9992 51.929 25.5713)" fill="#FFFFFF" font-family="'MyriadPro-BoldCond'" font-size="5"> </text>
<text transform="matrix(0.999 -0.044 0.044 0.999 52.7502 25.5391)" fill="#FFFFFF" font-family="'MyriadPro-BoldCond'" font-size="5">-</text>
<text transform="matrix(0.9988 -0.0483 0.0483 0.9988 54.0911 25.4785)" fill="#FFFFFF" font-family="'MyriadPro-BoldCond'" font-size="5"> </text>
<text transform="matrix(0.9985 -0.0542 0.0542 0.9985 54.9485 25.4385)" fill="#FFFFFF" font-family="'MyriadPro-BoldCond'" font-size="5">2</text>
<text transform="matrix(0.998 -0.0625 0.0625 0.998 57.1301 25.3193)" fill="#FFFFFF" font-family="'MyriadPro-BoldCond'" font-size="5">0</text>
<text transform="matrix(0.9975 -0.0705 0.0705 0.9975 59.302 25.1846)" fill="#FFFFFF" font-family="'MyriadPro-BoldCond'" font-size="5">1</text>
<text transform="matrix(0.9969 -0.0784 0.0784 0.9969 61.4797 25.0293)" fill="#FFFFFF" font-family="'MyriadPro-BoldCond'" font-size="5">4</text>
</svg>
