<?xml version="1.0" encoding="utf-8"?>
<!-- Generator: Adobe Illustrator 15.1.0, SVG Export Plug-In . SVG Version: 6.00 Build 0)  -->
<!DOCTYPE svg PUBLIC "-//W3C//DTD SVG 1.1//EN" "http://www.w3.org/Graphics/SVG/1.1/DTD/svg11.dtd">
<svg version="1.1" id="Layer_1" xmlns="http://www.w3.org/2000/svg" xmlns:xlink="http://www.w3.org/1999/xlink" x="0px" y="0px"
	 width="33.333px" height="16px" viewBox="27.617 7.858 33.333 16" enable-background="new 27.617 7.858 33.333 16"
	 xml:space="preserve">
<g>
	<g>
		<g>
			<g>
				<g>
					<g>
						<path fill="#5C7287" d="M59.457,15.317c-0.423-0.004-0.785-0.137-1.083-0.396c-0.301-0.253-0.451-0.603-0.451-1.048v-1.188
							v-1.127v-2.34h0.876v1.32h1.084l0,0v0.611l0,0v0.084h-1.084v1.452v1.188c0,0.263,0.064,0.457,0.19,0.58
							c0.13,0.123,0.283,0.187,0.467,0.189L59.457,15.317L59.457,15.317z M55.537,11.203c0.184,0,0.344,0.061,0.479,0.182
							c0.043,0.039,0.082,0.087,0.111,0.14h-0.001c0.058,0.108,0.086,0.246,0.086,0.413v0.091h0.875v-0.083
							c0-0.03,0-0.061-0.003-0.091h0.003v-0.02c0-0.406-0.159-0.725-0.47-0.952c-0.161-0.12-0.328-0.208-0.503-0.265
							s-0.366-0.085-0.577-0.085c-0.429,0-0.798,0.127-1.105,0.384c-0.303,0.25-0.456,0.558-0.456,0.918
							c0,0.247,0.073,0.464,0.222,0.652c0.146,0.188,0.369,0.341,0.67,0.459c0.178,0.069,0.348,0.134,0.507,0.196
							c0.16,0.061,0.309,0.116,0.45,0.167c0.238,0.092,0.366,0.263,0.38,0.514v0.089c-0.01,0.267-0.079,0.455-0.212,0.57
							c-0.132,0.115-0.287,0.171-0.467,0.171c-0.185,0-0.344-0.059-0.479-0.178s-0.2-0.307-0.2-0.563v-0.09H53.97v0.084
							c0,0.434,0.152,0.775,0.454,1.028c0.311,0.256,0.677,0.383,1.099,0.383c0.414,0,0.773-0.111,1.077-0.336
							c0.319-0.224,0.479-0.58,0.479-1.069V13.83c0-0.187-0.063-0.388-0.193-0.603c-0.066-0.115-0.166-0.214-0.301-0.298
							s-0.306-0.166-0.515-0.244l-0.882-0.329c-0.224-0.1-0.338-0.274-0.338-0.521c0-0.086,0.02-0.169,0.057-0.247
							c0.04-0.078,0.089-0.145,0.15-0.202c0.063-0.058,0.133-0.102,0.217-0.133C55.354,11.219,55.442,11.203,55.537,11.203
							 M30.235,11.869V11.73v-0.54v-0.538c0-0.247,0.052-0.428,0.153-0.546c0.102-0.118,0.224-0.177,0.37-0.177
							c0.144,0,0.269,0.058,0.369,0.177c0.103,0.118,0.153,0.3,0.153,0.546v0.538v0.54v0.139H30.235z M29.077,15.317h1.158v-2.704
							h1.047v2.704h1.16v-3.589v-0.54v-0.537c0-0.436-0.171-0.794-0.51-1.077c-0.149-0.133-0.324-0.234-0.523-0.303
							c-0.199-0.072-0.416-0.107-0.65-0.107c-0.473,0-0.867,0.135-1.181,0.403c-0.334,0.283-0.501,0.646-0.501,1.084v0.539v0.54
							V15.317L29.077,15.317L29.077,15.317z M33.44,15.317h1.16v-3.303c0-0.259,0.051-0.446,0.152-0.563
							c0.103-0.117,0.226-0.176,0.371-0.176c0.145,0,0.268,0.072,0.37,0.218c0.103,0.145,0.154,0.362,0.154,0.646h1.158
							c0-0.481-0.162-0.876-0.486-1.181c-0.161-0.15-0.338-0.258-0.535-0.328c-0.196-0.068-0.418-0.101-0.661-0.101
							c-0.483,0-0.879,0.132-1.182,0.4h0.009c-0.339,0.276-0.51,0.637-0.51,1.083v3.303H33.44V15.317L33.44,15.317z M43.856,13.877
							c0,0.248-0.048,0.427-0.149,0.543c-0.099,0.113-0.225,0.17-0.373,0.17c-0.145,0-0.27-0.055-0.369-0.164
							c-0.104-0.109-0.154-0.292-0.154-0.542v-1.906c0-0.252,0.05-0.436,0.154-0.549c0.101-0.115,0.224-0.173,0.369-0.173
							c0.147,0,0.273,0.058,0.373,0.173c0.101,0.113,0.149,0.297,0.149,0.549V13.877z M45.015,11.978c0-0.43-0.17-0.781-0.503-1.056
							h0.007c-0.153-0.132-0.33-0.231-0.528-0.294c-0.2-0.064-0.419-0.096-0.657-0.096c-0.485,0-0.879,0.131-1.182,0.391
							c-0.335,0.275-0.503,0.626-0.503,1.056v1.899c0,0.205,0.044,0.397,0.131,0.575c0.089,0.179,0.212,0.34,0.372,0.481
							c0.152,0.118,0.331,0.211,0.53,0.281c0.197,0.069,0.417,0.104,0.651,0.104c0.486,0,0.884-0.129,1.187-0.385h-0.007
							c0.332-0.278,0.503-0.632,0.503-1.056L45.015,11.978L45.015,11.978z M46.845,12.623h1.36v0.348v1.173v1.174h0.876v-1.174
							V12.97v-0.348v-0.708V9.22h-0.876v2.695h-1.36V9.22H45.97v3.75v1.174v1.175h0.875v-1.175V12.97V12.623z M52.244,12.573v0.568
							v0.747c0,0.26-0.065,0.453-0.2,0.577c-0.13,0.121-0.292,0.185-0.48,0.185c-0.189,0-0.352-0.06-0.483-0.178
							c-0.131-0.119-0.198-0.311-0.198-0.577v-1.933c0-0.266,0.067-0.458,0.198-0.58c0.132-0.121,0.294-0.182,0.483-0.182
							s0.351,0.061,0.48,0.182c0.134,0.121,0.2,0.314,0.2,0.58V12.573z M53.119,13.143v-0.565v-0.613c0-0.442-0.152-0.79-0.458-1.04
							c-0.309-0.261-0.673-0.392-1.098-0.392c-0.429,0-0.797,0.13-1.099,0.392c-0.303,0.25-0.456,0.598-0.456,1.04v1.927
							c0,0.444,0.153,0.79,0.456,1.044c0.31,0.255,0.676,0.384,1.099,0.384c0.424,0,0.789-0.129,1.098-0.384
							c0.306-0.252,0.458-0.6,0.458-1.044V13.143z M39.132,14.376c-0.145,0-0.271-0.058-0.373-0.174
							c-0.106-0.116-0.158-0.302-0.158-0.554c0-0.424,0.199-0.356,0.523-0.356c0.489,0,0.886-0.143,1.19-0.428
							c0.332-0.313,0.501-0.661,0.501-1.042c0-0.163-0.028-0.318-0.088-0.463c-0.058-0.145-0.141-0.285-0.248-0.421
							c-0.19-0.237-0.445-0.403-0.764-0.496V9.848h-1.157v0.581c-0.163,0.051-0.308,0.12-0.438,0.207
							c-0.133,0.086-0.244,0.186-0.333,0.298c-0.229,0.274-0.346,0.572-0.346,0.889c0,0.149,0.038,0.305,0.105,0.465
							c0.071,0.16,0.159,0.31,0.268,0.444c-0.13,0.149-0.221,0.3-0.282,0.45c-0.062,0.152-0.091,0.308-0.091,0.467
							c0,0.381,0.168,0.728,0.501,1.035c0.305,0.284,0.698,0.427,1.182,0.427h0.336c0.055,0,0.102,0.029,0.138,0.085
							c0.038,0.056,0.056,0.121,0.056,0.195v2.144h1.16v-2.271c0-0.149-0.023-0.277-0.07-0.392
							c-0.049-0.111-0.112-0.204-0.196-0.275c-0.082-0.072-0.179-0.128-0.292-0.164c-0.111-0.039-0.229-0.057-0.354-0.057H39.132
							L39.132,14.376L39.132,14.376z M38.608,11.647c0.005-0.074,0.021-0.146,0.053-0.213c0.029-0.067,0.068-0.128,0.116-0.179
							s0.103-0.092,0.161-0.123c0.06-0.029,0.125-0.045,0.195-0.045c0.145,0,0.267,0.056,0.366,0.168
							c0.098,0.112,0.153,0.241,0.164,0.393v0.309c0,0.167-0.053,0.309-0.153,0.423c-0.103,0.114-0.228,0.172-0.378,0.172
							c-0.142,0-0.262-0.058-0.365-0.172c-0.104-0.115-0.158-0.257-0.158-0.423L38.608,11.647L38.608,11.647z M39.253,10.345h0.021"
							/>
					</g>
				</g>
			</g>
		</g>
	</g>
	<g>
		<g>
			<path fill="#5C7287" d="M34.866,20.381c0,1.117-0.899,2.004-2.041,2.004c-1.143,0-2.054-0.888-2.054-2.004
				c0-1.118,0.911-1.993,2.065-1.993C33.967,18.388,34.866,19.263,34.866,20.381z M31.281,20.381c0,0.888,0.669,1.592,1.556,1.592
				c0.863,0.013,1.52-0.706,1.52-1.579c0-0.891-0.656-1.605-1.542-1.605C31.95,18.789,31.281,19.505,31.281,20.381z M32.51,21.414
				h-0.461v-1.992c0.182-0.025,0.438-0.062,0.766-0.062c0.376,0,0.545,0.062,0.679,0.157c0.121,0.086,0.207,0.231,0.207,0.426
				c0,0.242-0.183,0.401-0.412,0.474v0.024c0.193,0.062,0.292,0.22,0.352,0.486c0.061,0.303,0.11,0.412,0.146,0.485h-0.486
				c-0.061-0.074-0.097-0.244-0.157-0.485c-0.036-0.208-0.157-0.305-0.412-0.305H32.51L32.51,21.414L32.51,21.414z M32.521,20.296
				h0.218c0.255,0,0.463-0.085,0.463-0.292c0-0.183-0.133-0.304-0.427-0.304c-0.121,0-0.205,0.012-0.254,0.023V20.296z"/>
		</g>
		<g>
			<path fill="#5C7287" d="M35.899,22.235l0.021-0.459l0.354-0.418c0.465-0.54,0.847-0.989,0.87-1.476
				c0.013-0.276-0.13-0.475-0.413-0.485c-0.215-0.01-0.391,0.076-0.515,0.149l-0.102-0.533c0.162-0.099,0.46-0.194,0.77-0.181
				c0.743,0.035,0.959,0.541,0.938,1.028c-0.03,0.639-0.451,1.133-0.864,1.57l-0.215,0.231v0.01l1.04,0.049l-0.027,0.602
				L35.899,22.235z"/>
			<path fill="#5C7287" d="M40.322,20.662c-0.024,1.217-0.479,1.747-1.028,1.736c-0.743-0.015-0.977-0.872-0.959-1.744
				c0.021-0.979,0.349-1.75,1.05-1.736C40.178,18.932,40.339,19.851,40.322,20.662z M39.026,20.651
				c-0.025,0.796,0.065,1.158,0.296,1.162c0.208,0.005,0.295-0.372,0.31-1.15c0.015-0.731-0.045-1.156-0.265-1.16
				C39.153,19.5,39.036,19.863,39.026,20.651z"/>
			<path fill="#5C7287" d="M42.685,20.667c-0.003,1.221-0.45,1.76-0.998,1.759c-0.745-0.002-0.994-0.856-0.992-1.733
				c0.003-0.978,0.318-1.757,1.021-1.757C42.511,18.94,42.687,19.856,42.685,20.667z M41.387,20.68
				c-0.013,0.798,0.085,1.158,0.316,1.159c0.21,0,0.288-0.377,0.291-1.156c0.002-0.735-0.066-1.157-0.285-1.157
				C41.494,19.524,41.384,19.89,41.387,20.68z"/>
			<path fill="#5C7287" d="M43.178,21.73c0.138,0.074,0.333,0.127,0.512,0.124c0.334-0.006,0.513-0.214,0.51-0.501
				c-0.005-0.377-0.301-0.529-0.643-0.529l-0.093,0.003l-0.009-0.504l0.07-0.003c0.25-0.008,0.569-0.117,0.563-0.447
				c-0.004-0.246-0.158-0.391-0.397-0.386c-0.158,0-0.305,0.055-0.429,0.142l-0.102-0.518c0.14-0.09,0.416-0.183,0.699-0.187
				c0.598-0.01,0.906,0.371,0.913,0.807c0.005,0.34-0.18,0.626-0.482,0.772l0.001,0.011c0.332,0.105,0.589,0.399,0.595,0.854
				c0.008,0.518-0.383,1.033-1.126,1.044c-0.271,0.005-0.519-0.06-0.667-0.144L43.178,21.73z"/>
			<path fill="#5C7287" d="M47.529,20.779l0.003,0.492l-1.042,0.007l-0.004-0.492L47.529,20.779z"/>
			<path fill="#5C7287" d="M48.957,22.317l0.004-0.462l0.34-0.431c0.444-0.557,0.812-1.02,0.815-1.507
				c0.002-0.277-0.148-0.467-0.432-0.47c-0.215-0.003-0.388,0.091-0.509,0.168l-0.122-0.53c0.159-0.104,0.451-0.211,0.763-0.208
				c0.744,0.006,0.979,0.507,0.975,0.992c-0.005,0.642-0.408,1.153-0.805,1.604l-0.208,0.236v0.012l1.043,0.011l-0.006,0.603
				L48.957,22.317z"/>
			<path fill="#5C7287" d="M53.343,20.618c0.002,1.221-0.442,1.76-0.992,1.76c-0.741,0.001-0.994-0.851-0.996-1.726
				c-0.001-0.978,0.312-1.756,1.012-1.758C53.162,18.894,53.342,19.808,53.343,20.618z M52.045,20.635
				c-0.01,0.797,0.09,1.156,0.321,1.155c0.208,0,0.286-0.376,0.286-1.155c0-0.732-0.071-1.155-0.291-1.154
				C52.148,19.481,52.04,19.847,52.045,20.635z"/>
			<path fill="#5C7287" d="M54.541,19.561H54.53l-0.57,0.305l-0.123-0.537l0.774-0.413l0.603-0.007l0.042,3.4l-0.681,0.01
				L54.541,19.561z"/>
			<path fill="#5C7287" d="M57.265,22.268l-0.02-0.81l-1.168,0.026l-0.012-0.471l1.065-2.146l0.661-0.016l0.046,2.041l0.335-0.006
				l0.014,0.548l-0.336,0.008l0.021,0.812L57.265,22.268z M57.232,20.908l-0.017-0.695c-0.004-0.184,0.013-0.384,0.024-0.561
				l-0.021-0.001c-0.069,0.19-0.138,0.344-0.224,0.536l-0.343,0.724l-0.001,0.012L57.232,20.908z"/>
		</g>
	</g>
</g>
</svg>
