<?xml version="1.0" encoding="utf-8"?>
<!-- Generator: Adobe Illustrator 15.1.0, SVG Export Plug-In . SVG Version: 6.00 Build 0)  -->
<!DOCTYPE svg PUBLIC "-//W3C//DTD SVG 1.1//EN" "http://www.w3.org/Graphics/SVG/1.1/DTD/svg11.dtd">
<svg version="1.1" id="Layer_1" xmlns="http://www.w3.org/2000/svg" xmlns:xlink="http://www.w3.org/1999/xlink" x="0px" y="0px"
	 width="105.417px" height="36.062px" viewBox="-49.083 -21.718 105.417 36.062"
	 enable-background="new -49.083 -21.718 105.417 36.062" xml:space="preserve">
<g>
	<g>
		<g>
			<g>
				
					<linearGradient id="SVGID_1_" gradientUnits="userSpaceOnUse" x1="135.8931" y1="-60.7302" x2="167.2265" y2="54.6033" gradientTransform="matrix(1 0 0 -1 -170.96 -60.5981)">
					<stop  offset="0" style="stop-color:#B9873D"/>
					<stop  offset="0.4666" style="stop-color:#F5E382"/>
					<stop  offset="1" style="stop-color:#996D33"/>
				</linearGradient>
				<path fill="url(#SVGID_1_)" d="M-26.547,11.492c-9.927,0-17.977-7.656-17.977-17.088c0-5.626,2.863-10.618,7.28-13.732
					c-4.139,3.06-6.805,7.833-6.805,13.202c0,9.224,7.871,16.715,17.587,16.715L-26.547,11.492z"/>
			</g>
			<g>
				
					<linearGradient id="SVGID_2_" gradientUnits="userSpaceOnUse" x1="209.2251" y1="-80.6526" x2="240.5586" y2="34.6809" gradientTransform="matrix(1 0 0 -1 -170.96 -60.5981)">
					<stop  offset="0" style="stop-color:#B9873D"/>
					<stop  offset="0.4666" style="stop-color:#F5E382"/>
					<stop  offset="1" style="stop-color:#996D33"/>
				</linearGradient>
				<path fill="url(#SVGID_2_)" d="M33.792,11.492c9.93,0,17.977-7.656,17.977-17.088c0-5.626-2.861-10.618-7.278-13.732
					c4.14,3.059,6.809,7.832,6.809,13.202c0,9.224-7.876,16.715-17.593,16.715L33.792,11.492z"/>
			</g>
			<g>
				<g>
					
						<linearGradient id="SVGID_3_" gradientUnits="userSpaceOnUse" x1="132.6587" y1="-59.8513" x2="163.9922" y2="55.4822" gradientTransform="matrix(1 0 0 -1 -170.96 -60.5981)">
						<stop  offset="0" style="stop-color:#B9873D"/>
						<stop  offset="0.4666" style="stop-color:#F5E382"/>
						<stop  offset="1" style="stop-color:#996D33"/>
					</linearGradient>
					<path fill="url(#SVGID_3_)" d="M-39.354,5.671c0,0-2.607-4.023,0.487-7.354C-38.868-1.684-35.867,2.052-39.354,5.671z"/>
				</g>
				
					<linearGradient id="SVGID_4_" gradientUnits="userSpaceOnUse" x1="129.231" y1="-58.9202" x2="160.5645" y2="56.4133" gradientTransform="matrix(1 0 0 -1 -170.96 -60.5981)">
					<stop  offset="0" style="stop-color:#B9873D"/>
					<stop  offset="0.4666" style="stop-color:#F5E382"/>
					<stop  offset="1" style="stop-color:#996D33"/>
				</linearGradient>
				<path fill="url(#SVGID_4_)" d="M-39.926,6.166c0,0-4.896,0.837-7.022-3.12C-46.948,3.045-42.194,1.756-39.926,6.166z"/>
				
					<linearGradient id="SVGID_5_" gradientUnits="userSpaceOnUse" x1="125.8335" y1="-57.9973" x2="157.167" y2="57.3362" gradientTransform="matrix(1 0 0 -1 -170.96 -60.5981)">
					<stop  offset="0" style="stop-color:#B9873D"/>
					<stop  offset="0.4666" style="stop-color:#F5E382"/>
					<stop  offset="1" style="stop-color:#996D33"/>
				</linearGradient>
				<path fill="url(#SVGID_5_)" d="M-42.975,2.077c0,0-4.258,0.726-6.108-2.715C-49.083-0.639-44.947-1.762-42.975,2.077z"/>
				
					<linearGradient id="SVGID_6_" gradientUnits="userSpaceOnUse" x1="124.2915" y1="-57.5784" x2="155.625" y2="57.7551" gradientTransform="matrix(1 0 0 -1 -170.96 -60.5981)">
					<stop  offset="0" style="stop-color:#B9873D"/>
					<stop  offset="0.4666" style="stop-color:#F5E382"/>
					<stop  offset="1" style="stop-color:#996D33"/>
				</linearGradient>
				<path fill="url(#SVGID_6_)" d="M-44.239-1.601c0,0-4.17-1.084-4.286-4.948C-48.524-6.548-44.286-5.871-44.239-1.601z"/>
				
					<linearGradient id="SVGID_7_" gradientUnits="userSpaceOnUse" x1="123.5562" y1="-57.3782" x2="154.8896" y2="57.9553" gradientTransform="matrix(1 0 0 -1 -170.96 -60.5981)">
					<stop  offset="0" style="stop-color:#B9873D"/>
					<stop  offset="0.4666" style="stop-color:#F5E382"/>
					<stop  offset="1" style="stop-color:#996D33"/>
				</linearGradient>
				<path fill="url(#SVGID_7_)" d="M-44.21-6.492c0,0-3.602-1.354-3.305-4.807C-47.516-11.298-43.81-10.297-44.21-6.492z"/>
				
					<linearGradient id="SVGID_8_" gradientUnits="userSpaceOnUse" x1="124.0083" y1="-57.5012" x2="155.3418" y2="57.8323" gradientTransform="matrix(1 0 0 -1 -170.96 -60.5981)">
					<stop  offset="0" style="stop-color:#B9873D"/>
					<stop  offset="0.4666" style="stop-color:#F5E382"/>
					<stop  offset="1" style="stop-color:#996D33"/>
				</linearGradient>
				<path fill="url(#SVGID_8_)" d="M-43.995-10.512c0,0-2.44-2.863-0.397-5.732C-44.392-16.244-41.681-13.643-43.995-10.512z"/>
				
					<linearGradient id="SVGID_9_" gradientUnits="userSpaceOnUse" x1="125.5522" y1="-57.9207" x2="156.8857" y2="57.4128" gradientTransform="matrix(1 0 0 -1 -170.96 -60.5981)">
					<stop  offset="0" style="stop-color:#B9873D"/>
					<stop  offset="0.4666" style="stop-color:#F5E382"/>
					<stop  offset="1" style="stop-color:#996D33"/>
				</linearGradient>
				<path fill="url(#SVGID_9_)" d="M-41.382-14.655c0,0-2.001-2.35-0.325-4.704C-41.707-19.359-39.483-17.225-41.382-14.655z"/>
				
					<linearGradient id="SVGID_10_" gradientUnits="userSpaceOnUse" x1="127.5698" y1="-58.469" x2="158.9033" y2="56.8645" gradientTransform="matrix(1 0 0 -1 -170.96 -60.5981)">
					<stop  offset="0" style="stop-color:#B9873D"/>
					<stop  offset="0.4666" style="stop-color:#F5E382"/>
					<stop  offset="1" style="stop-color:#996D33"/>
				</linearGradient>
				<path fill="url(#SVGID_10_)" d="M-39.747-18.554c0,0,0.062-2.458,2.404-3.079C-37.343-21.632-37.146-19.198-39.747-18.554z"/>
				<g>
					
						<linearGradient id="SVGID_11_" gradientUnits="userSpaceOnUse" x1="129.4683" y1="-58.9846" x2="160.8017" y2="56.3489" gradientTransform="matrix(1 0 0 -1 -170.96 -60.5981)">
						<stop  offset="0" style="stop-color:#B9873D"/>
						<stop  offset="0.4666" style="stop-color:#F5E382"/>
						<stop  offset="1" style="stop-color:#996D33"/>
					</linearGradient>
					<path fill="url(#SVGID_11_)" d="M-42.693,1.32c0,0-1.204-4.104,2.343-6.248C-40.35-4.927-38.729-0.991-42.693,1.32z"/>
				</g>
				<g>
					
						<linearGradient id="SVGID_12_" gradientUnits="userSpaceOnUse" x1="127.769" y1="-58.5227" x2="159.1025" y2="56.8108" gradientTransform="matrix(1 0 0 -1 -170.96 -60.5981)">
						<stop  offset="0" style="stop-color:#B9873D"/>
						<stop  offset="0.4666" style="stop-color:#F5E382"/>
						<stop  offset="1" style="stop-color:#996D33"/>
					</linearGradient>
					<path fill="url(#SVGID_12_)" d="M-43.856-3.886c0,0-0.051-3.795,3.52-4.875C-40.337-8.76-39.892-5.017-43.856-3.886z"/>
				</g>
				<g>
					
						<linearGradient id="SVGID_13_" gradientUnits="userSpaceOnUse" x1="126.8345" y1="-58.2693" x2="158.168" y2="57.0642" gradientTransform="matrix(1 0 0 -1 -170.96 -60.5981)">
						<stop  offset="0" style="stop-color:#B9873D"/>
						<stop  offset="0.4666" style="stop-color:#F5E382"/>
						<stop  offset="1" style="stop-color:#996D33"/>
					</linearGradient>
					<path fill="url(#SVGID_13_)" d="M-44.208-8.669c0,0,1.06-3.364,4.525-3.381C-39.683-12.051-40.375-8.628-44.208-8.669z"/>
				</g>
				<g>
					
						<linearGradient id="SVGID_14_" gradientUnits="userSpaceOnUse" x1="127.6792" y1="-58.4983" x2="159.0127" y2="56.8352" gradientTransform="matrix(1 0 0 -1 -170.96 -60.5981)">
						<stop  offset="0" style="stop-color:#B9873D"/>
						<stop  offset="0.4666" style="stop-color:#F5E382"/>
						<stop  offset="1" style="stop-color:#996D33"/>
					</linearGradient>
					<path fill="url(#SVGID_14_)" d="M-42.422-12.822c0,0,1.503-3.07,4.822-2.632C-37.601-15.453-38.762-12.268-42.422-12.822z"/>
				</g>
				<g>
					
						<linearGradient id="SVGID_15_" gradientUnits="userSpaceOnUse" x1="128.9409" y1="-58.8416" x2="160.2744" y2="56.4919" gradientTransform="matrix(1 0 0 -1 -170.96 -60.5981)">
						<stop  offset="0" style="stop-color:#B9873D"/>
						<stop  offset="0.4666" style="stop-color:#F5E382"/>
						<stop  offset="1" style="stop-color:#996D33"/>
					</linearGradient>
					<path fill="url(#SVGID_15_)" d="M-39.969-17.164c0,0,1.874-2.411,4.669-1.472C-35.3-18.636-36.898-16.07-39.969-17.164z"/>
				</g>
				<g>
					
						<linearGradient id="SVGID_16_" gradientUnits="userSpaceOnUse" x1="131.0249" y1="-59.4075" x2="162.3584" y2="55.926" gradientTransform="matrix(1 0 0 -1 -170.96 -60.5981)">
						<stop  offset="0" style="stop-color:#B9873D"/>
						<stop  offset="0.4666" style="stop-color:#F5E382"/>
						<stop  offset="1" style="stop-color:#996D33"/>
					</linearGradient>
					<path fill="url(#SVGID_16_)" d="M-36.952-20.028c0,0,1.869-2.413,4.669-1.473C-32.282-21.5-33.884-18.938-36.952-20.028z"/>
				</g>
			</g>
			<g>
				<g>
					
						<linearGradient id="SVGID_17_" gradientUnits="userSpaceOnUse" x1="212.1216" y1="-81.4397" x2="243.4551" y2="33.8938" gradientTransform="matrix(1 0 0 -1 -170.96 -60.5981)">
						<stop  offset="0" style="stop-color:#B9873D"/>
						<stop  offset="0.4666" style="stop-color:#F5E382"/>
						<stop  offset="1" style="stop-color:#996D33"/>
					</linearGradient>
					<path fill="url(#SVGID_17_)" d="M46.603,5.671c0,0,2.606-4.023-0.482-7.354C46.121-1.684,43.118,2.052,46.603,5.671z"/>
				</g>
				
					<linearGradient id="SVGID_18_" gradientUnits="userSpaceOnUse" x1="216.8833" y1="-82.7332" x2="248.2168" y2="32.6003" gradientTransform="matrix(1 0 0 -1 -170.96 -60.5981)">
					<stop  offset="0" style="stop-color:#B9873D"/>
					<stop  offset="0.4666" style="stop-color:#F5E382"/>
					<stop  offset="1" style="stop-color:#996D33"/>
				</linearGradient>
				<path fill="url(#SVGID_18_)" d="M47.174,6.166c0,0,4.891,0.837,7.022-3.12C54.197,3.045,49.441,1.756,47.174,6.166z"/>
				
					<linearGradient id="SVGID_19_" gradientUnits="userSpaceOnUse" x1="218.312" y1="-83.1213" x2="249.6455" y2="32.2122" gradientTransform="matrix(1 0 0 -1 -170.96 -60.5981)">
					<stop  offset="0" style="stop-color:#B9873D"/>
					<stop  offset="0.4666" style="stop-color:#F5E382"/>
					<stop  offset="1" style="stop-color:#996D33"/>
				</linearGradient>
				<path fill="url(#SVGID_19_)" d="M50.217,2.077c0,0,4.262,0.726,6.117-2.715C56.333-0.639,52.201-1.762,50.217,2.077z"/>
				
					<linearGradient id="SVGID_20_" gradientUnits="userSpaceOnUse" x1="217.4087" y1="-82.8762" x2="248.7422" y2="32.4573" gradientTransform="matrix(1 0 0 -1 -170.96 -60.5981)">
					<stop  offset="0" style="stop-color:#B9873D"/>
					<stop  offset="0.4666" style="stop-color:#F5E382"/>
					<stop  offset="1" style="stop-color:#996D33"/>
				</linearGradient>
				<path fill="url(#SVGID_20_)" d="M51.494-1.601c0,0,4.173-1.084,4.274-4.948C55.768-6.548,51.531-5.871,51.494-1.601z"/>
				
					<linearGradient id="SVGID_21_" gradientUnits="userSpaceOnUse" x1="215.6978" y1="-82.4109" x2="247.0313" y2="32.9226" gradientTransform="matrix(1 0 0 -1 -170.96 -60.5981)">
					<stop  offset="0" style="stop-color:#B9873D"/>
					<stop  offset="0.4666" style="stop-color:#F5E382"/>
					<stop  offset="1" style="stop-color:#996D33"/>
				</linearGradient>
				<path fill="url(#SVGID_21_)" d="M51.463-6.492c0,0,3.599-1.354,3.304-4.807C54.767-11.298,51.062-10.297,51.463-6.492z"/>
				
					<linearGradient id="SVGID_22_" gradientUnits="userSpaceOnUse" x1="212.9731" y1="-81.6711" x2="244.3066" y2="33.6624" gradientTransform="matrix(1 0 0 -1 -170.96 -60.5981)">
					<stop  offset="0" style="stop-color:#B9873D"/>
					<stop  offset="0.4666" style="stop-color:#F5E382"/>
					<stop  offset="1" style="stop-color:#996D33"/>
				</linearGradient>
				<path fill="url(#SVGID_22_)" d="M51.242-10.512c0,0,2.447-2.863,0.398-5.732C51.64-16.244,48.927-13.643,51.242-10.512z"/>
				
					<linearGradient id="SVGID_23_" gradientUnits="userSpaceOnUse" x1="209.5991" y1="-80.7542" x2="240.9326" y2="34.5793" gradientTransform="matrix(1 0 0 -1 -170.96 -60.5981)">
					<stop  offset="0" style="stop-color:#B9873D"/>
					<stop  offset="0.4666" style="stop-color:#F5E382"/>
					<stop  offset="1" style="stop-color:#996D33"/>
				</linearGradient>
				<path fill="url(#SVGID_23_)" d="M48.631-14.655c0,0,2.003-2.35,0.32-4.704C48.952-19.359,46.732-17.225,48.631-14.655z"/>
				
					<linearGradient id="SVGID_24_" gradientUnits="userSpaceOnUse" x1="206.0825" y1="-79.7991" x2="237.416" y2="35.5344" gradientTransform="matrix(1 0 0 -1 -170.96 -60.5981)">
					<stop  offset="0" style="stop-color:#B9873D"/>
					<stop  offset="0.4666" style="stop-color:#F5E382"/>
					<stop  offset="1" style="stop-color:#996D33"/>
				</linearGradient>
				<path fill="url(#SVGID_24_)" d="M47-18.554c0,0-0.063-2.458-2.406-3.079C44.593-21.632,44.394-19.198,47-18.554z"/>
				<g>
					
						<linearGradient id="SVGID_25_" gradientUnits="userSpaceOnUse" x1="213.4712" y1="-81.8064" x2="244.8047" y2="33.5271" gradientTransform="matrix(1 0 0 -1 -170.96 -60.5981)">
						<stop  offset="0" style="stop-color:#B9873D"/>
						<stop  offset="0.4666" style="stop-color:#F5E382"/>
						<stop  offset="1" style="stop-color:#996D33"/>
					</linearGradient>
					<path fill="url(#SVGID_25_)" d="M49.947,1.32c0,0,1.207-4.104-2.349-6.248C47.598-4.927,45.981-0.991,49.947,1.32z"/>
				</g>
				<g>
					
						<linearGradient id="SVGID_26_" gradientUnits="userSpaceOnUse" x1="212.8716" y1="-81.6433" x2="244.2051" y2="33.6902" gradientTransform="matrix(1 0 0 -1 -170.96 -60.5981)">
						<stop  offset="0" style="stop-color:#B9873D"/>
						<stop  offset="0.4666" style="stop-color:#F5E382"/>
						<stop  offset="1" style="stop-color:#996D33"/>
					</linearGradient>
					<path fill="url(#SVGID_26_)" d="M51.109-3.886c0,0,0.052-3.795-3.525-4.875C47.583-8.76,47.142-5.017,51.109-3.886z"/>
				</g>
				<g>
					
						<linearGradient id="SVGID_27_" gradientUnits="userSpaceOnUse" x1="211.7104" y1="-81.3279" x2="243.0439" y2="34.0056" gradientTransform="matrix(1 0 0 -1 -170.96 -60.5981)">
						<stop  offset="0" style="stop-color:#B9873D"/>
						<stop  offset="0.4666" style="stop-color:#F5E382"/>
						<stop  offset="1" style="stop-color:#996D33"/>
					</linearGradient>
					<path fill="url(#SVGID_27_)" d="M51.463-8.669c0,0-1.061-3.364-4.534-3.381C46.929-12.051,47.623-8.628,51.463-8.669z"/>
				</g>
				<g>
					
						<linearGradient id="SVGID_28_" gradientUnits="userSpaceOnUse" x1="208.9517" y1="-80.5784" x2="240.2852" y2="34.7551" gradientTransform="matrix(1 0 0 -1 -170.96 -60.5981)">
						<stop  offset="0" style="stop-color:#B9873D"/>
						<stop  offset="0.4666" style="stop-color:#F5E382"/>
						<stop  offset="1" style="stop-color:#996D33"/>
					</linearGradient>
					<path fill="url(#SVGID_28_)" d="M49.671-12.822c0,0-1.502-3.07-4.822-2.632C44.849-15.453,46.011-12.268,49.671-12.822z"/>
				</g>
				<g>
					
						<linearGradient id="SVGID_29_" gradientUnits="userSpaceOnUse" x1="205.7837" y1="-79.718" x2="237.1172" y2="35.6155" gradientTransform="matrix(1 0 0 -1 -170.96 -60.5981)">
						<stop  offset="0" style="stop-color:#B9873D"/>
						<stop  offset="0.4666" style="stop-color:#F5E382"/>
						<stop  offset="1" style="stop-color:#996D33"/>
					</linearGradient>
					<path fill="url(#SVGID_29_)" d="M47.217-17.164c0,0-1.873-2.411-4.672-1.472C42.545-18.636,44.144-16.07,47.217-17.164z"/>
				</g>
				<g>
					
						<linearGradient id="SVGID_30_" gradientUnits="userSpaceOnUse" x1="202.2573" y1="-78.76" x2="233.5908" y2="36.5735" gradientTransform="matrix(1 0 0 -1 -170.96 -60.5981)">
						<stop  offset="0" style="stop-color:#B9873D"/>
						<stop  offset="0.4666" style="stop-color:#F5E382"/>
						<stop  offset="1" style="stop-color:#996D33"/>
					</linearGradient>
					<path fill="url(#SVGID_30_)" d="M44.209-20.028c0,0-1.883-2.413-4.674-1.473C39.536-21.5,41.133-18.938,44.209-20.028z"/>
				</g>
			</g>
		</g>
	</g>
	<g>
		<g>
			<g>
				<g>
					<g>
						<g>
							<g>
								
									<linearGradient id="SVGID_31_" gradientUnits="userSpaceOnUse" x1="169.7642" y1="-69.9319" x2="201.0977" y2="45.4016" gradientTransform="matrix(1 0 0 -1 -170.96 -60.5981)">
									<stop  offset="0" style="stop-color:#B9873D"/>
									<stop  offset="0.4666" style="stop-color:#F5E382"/>
									<stop  offset="1" style="stop-color:#996D33"/>
								</linearGradient>
								<path fill="url(#SVGID_31_)" d="M38.708-2.519c-0.982-0.007-1.816-0.314-2.51-0.911c-0.692-0.585-1.047-1.395-1.047-2.425
									v-2.749v-2.609v-5.417h2.035v3.056h2.51l0,0v1.414l0,0v0.192h-2.51v3.364v2.749c0,0.605,0.147,1.057,0.437,1.339
									c0.303,0.289,0.647,0.437,1.079,0.437L38.708-2.519L38.708-2.519z M29.631-12.034c0.43,0,0.803,0.14,1.111,0.418
									c0.103,0.095,0.191,0.205,0.255,0.327l0,0c0.136,0.248,0.194,0.571,0.194,0.956v0.212h2.034v-0.194
									c0-0.067,0-0.141-0.007-0.209h0.007v-0.047c0-0.938-0.367-1.679-1.093-2.204c-0.371-0.271-0.75-0.479-1.162-0.613
									c-0.409-0.131-0.84-0.194-1.34-0.194c-0.988,0-1.843,0.293-2.554,0.89c-0.7,0.576-1.055,1.291-1.055,2.124
									c0,0.57,0.168,1.072,0.508,1.509c0.347,0.434,0.86,0.791,1.552,1.059c0.418,0.164,0.81,0.313,1.183,0.458
									c0.366,0.142,0.712,0.268,1.034,0.387c0.552,0.209,0.847,0.606,0.878,1.189v0.203c-0.025,0.622-0.18,1.059-0.494,1.323
									c-0.295,0.269-0.66,0.392-1.077,0.392c-0.424,0-0.797-0.135-1.105-0.412c-0.313-0.274-0.461-0.708-0.461-1.303V-5.97h-2.027
									v0.193c0,1,0.346,1.797,1.052,2.375c0.719,0.596,1.559,0.885,2.542,0.885c0.956,0,1.783-0.251,2.49-0.776
									c0.73-0.514,1.109-1.342,1.109-2.472v-0.189c0-0.431-0.147-0.898-0.448-1.395c-0.155-0.269-0.386-0.492-0.701-0.688
									c-0.313-0.193-0.705-0.386-1.185-0.564l-2.043-0.765c-0.52-0.23-0.782-0.634-0.782-1.204c0-0.2,0.045-0.389,0.128-0.571
									c0.097-0.183,0.205-0.334,0.346-0.466c0.148-0.138,0.309-0.236,0.508-0.311C29.214-11.997,29.412-12.034,29.631-12.034
									 M-28.92-10.492v-0.321v-1.251v-1.246c0-0.574,0.123-0.99,0.357-1.264c0.237-0.271,0.519-0.404,0.855-0.404
									c0.333,0,0.621,0.129,0.854,0.404c0.237,0.273,0.354,0.695,0.354,1.264v1.246v1.251v0.321H-28.92z M-31.597-2.519h2.677
									V-8.77h2.426v6.251h2.682v-8.3v-1.251v-1.244c0-1.006-0.394-1.834-1.179-2.493c-0.342-0.306-0.75-0.541-1.209-0.699
									c-0.462-0.167-0.963-0.248-1.506-0.248c-1.094,0-2.005,0.312-2.73,0.932c-0.773,0.653-1.16,1.493-1.16,2.508v1.248v1.251
									L-31.597-2.519L-31.597-2.519L-31.597-2.519z M-21.5-2.519h2.683v-7.641c0-0.599,0.119-1.031,0.354-1.302
									c0.235-0.271,0.521-0.408,0.856-0.408s0.62,0.17,0.854,0.504c0.239,0.337,0.36,0.839,0.36,1.496h2.679
									c0-1.111-0.376-2.025-1.124-2.73c-0.372-0.348-0.781-0.601-1.239-0.76c-0.453-0.156-0.97-0.233-1.53-0.233
									c-1.118,0-2.031,0.306-2.738,0.927h0.023c-0.785,0.64-1.18,1.474-1.18,2.504v7.644H-21.5L-21.5-2.519L-21.5-2.519z
									 M2.603-5.847c0,0.573-0.11,0.992-0.342,1.255C2.032-4.329,1.739-4.194,1.398-4.194c-0.339,0-0.629-0.129-0.857-0.386
									c-0.239-0.25-0.358-0.675-0.358-1.25v-4.412c0-0.583,0.119-1.009,0.358-1.271c0.232-0.264,0.518-0.4,0.857-0.4
									c0.338,0,0.629,0.137,0.863,0.4c0.232,0.262,0.342,0.688,0.342,1.271V-5.847z M5.285-10.24c0-0.996-0.392-1.809-1.164-2.444
									h0.016c-0.35-0.305-0.761-0.535-1.223-0.683c-0.458-0.146-0.97-0.221-1.516-0.221c-1.127,0-2.035,0.303-2.74,0.903
									c-0.775,0.638-1.163,1.449-1.163,2.444v4.395c0,0.477,0.105,0.919,0.305,1.332c0.206,0.417,0.491,0.79,0.858,1.112
									c0.355,0.274,0.767,0.485,1.228,0.653c0.456,0.16,0.966,0.237,1.506,0.237c1.124,0,2.049-0.295,2.751-0.891H4.121
									C4.893-4.038,5.29-4.861,5.29-5.845L5.285-10.24L5.285-10.24z M9.521-8.749h3.151v0.805v2.719v2.713h2.022v-2.713v-2.719
									V-8.75v-1.639v-6.234h-2.022v6.236H9.521v-6.236H7.499v8.679v2.719v2.713h2.022v-2.713v-2.719V-8.749z M22.025-8.862v1.312
									v1.729c0,0.601-0.166,1.049-0.476,1.339C21.253-4.208,20.875-4.06,20.44-4.06c-0.437,0-0.815-0.135-1.117-0.41
									c-0.303-0.277-0.455-0.721-0.455-1.339v-4.47c0-0.617,0.152-1.062,0.455-1.344c0.307-0.28,0.681-0.419,1.117-0.419
									s0.813,0.14,1.109,0.419c0.31,0.279,0.476,0.727,0.476,1.344V-8.862z M24.046-7.546V-8.85v-1.422
									c0-1.021-0.359-1.828-1.064-2.406c-0.714-0.604-1.567-0.907-2.542-0.907c-0.996,0-1.85,0.3-2.543,0.907
									c-0.705,0.578-1.052,1.386-1.052,2.406v4.461c0,1.025,0.347,1.83,1.052,2.413c0.714,0.591,1.561,0.893,2.543,0.893
									c0.975,0,1.828-0.302,2.542-0.893c0.705-0.583,1.064-1.388,1.064-2.413V-7.546z M-8.331-4.688
									c-0.335,0-0.625-0.136-0.865-0.406c-0.242-0.271-0.363-0.697-0.363-1.282c0-0.981,0.46-0.823,1.21-0.823
									c1.13,0,2.051-0.332,2.756-0.989c0.765-0.729,1.156-1.531,1.156-2.412c0-0.379-0.06-0.737-0.201-1.072
									c-0.136-0.337-0.327-0.659-0.574-0.976c-0.439-0.548-1.031-0.93-1.768-1.149v-1.372h-2.678v1.347
									c-0.378,0.116-0.712,0.274-1.016,0.476c-0.305,0.203-0.565,0.432-0.768,0.688c-0.531,0.637-0.803,1.326-0.803,2.06
									c0,0.348,0.085,0.706,0.243,1.078c0.167,0.37,0.371,0.715,0.62,1.026c-0.299,0.345-0.51,0.694-0.652,1.04
									c-0.141,0.354-0.21,0.714-0.21,1.08c0,0.884,0.391,1.688,1.16,2.396c0.707,0.661,1.617,0.987,2.734,0.987h0.777
									c0.131,0,0.237,0.072,0.32,0.201c0.088,0.127,0.13,0.275,0.13,0.455v4.955h2.685v-5.25c0-0.347-0.051-0.647-0.159-0.911
									c-0.116-0.257-0.263-0.469-0.458-0.63c-0.189-0.167-0.412-0.302-0.673-0.379C-5.984-4.646-6.259-4.685-6.55-4.685h-1.781
									V-4.688L-8.331-4.688z M-9.542-11.007c0.012-0.17,0.053-0.339,0.125-0.494c0.065-0.155,0.157-0.294,0.266-0.415
									c0.11-0.118,0.237-0.21,0.375-0.283c0.139-0.064,0.287-0.104,0.451-0.104c0.334,0,0.615,0.128,0.846,0.388
									c0.227,0.259,0.354,0.56,0.379,0.91v0.714c0,0.388-0.123,0.714-0.353,0.979C-7.692-9.046-7.981-8.915-8.33-8.915
									c-0.325,0-0.605-0.131-0.842-0.396c-0.242-0.266-0.365-0.595-0.365-0.979L-9.542-11.007L-9.542-11.007z M-8.05-14.02H-8"/>
							</g>
						</g>
					</g>
				</g>
			</g>
			<g>
				<g>
					<g>
						
							<linearGradient id="SVGID_32_" gradientUnits="userSpaceOnUse" x1="155.0083" y1="-65.9236" x2="186.3418" y2="49.4099" gradientTransform="matrix(1 0 0 -1 -170.96 -60.5981)">
							<stop  offset="0" style="stop-color:#B9873D"/>
							<stop  offset="0.4666" style="stop-color:#F5E382"/>
							<stop  offset="1" style="stop-color:#996D33"/>
						</linearGradient>
						<path fill="url(#SVGID_32_)" d="M-19.526,13.939l0.045-0.925l0.712-0.84c0.938-1.086,1.712-1.99,1.757-2.974
							c0.029-0.558-0.26-0.958-0.832-0.984c-0.432-0.016-0.786,0.156-1.038,0.31l-0.202-1.077c0.326-0.201,0.929-0.387,1.55-0.367
							c1.501,0.078,1.929,1.099,1.89,2.073c-0.064,1.291-0.913,2.284-1.748,3.164l-0.433,0.462v0.021l2.099,0.104l-0.059,1.213
							L-19.526,13.939z"/>
						
							<linearGradient id="SVGID_33_" gradientUnits="userSpaceOnUse" x1="159.5015" y1="-67.1438" x2="190.8349" y2="48.1897" gradientTransform="matrix(1 0 0 -1 -170.96 -60.5981)">
							<stop  offset="0" style="stop-color:#B9873D"/>
							<stop  offset="0.4666" style="stop-color:#F5E382"/>
							<stop  offset="1" style="stop-color:#996D33"/>
						</linearGradient>
						<path fill="url(#SVGID_33_)" d="M-10.61,10.787c-0.053,2.445-0.973,3.525-2.078,3.492c-1.495-0.038-1.964-1.765-1.927-3.52
							c0.049-1.971,0.712-3.521,2.123-3.495C-10.893,7.295-10.575,9.15-10.61,10.787z M-13.219,10.76
							c-0.056,1.602,0.124,2.332,0.592,2.339c0.417,0.014,0.594-0.746,0.625-2.317c0.034-1.471-0.086-2.323-0.527-2.337
							C-12.963,8.439-13.201,9.171-13.219,10.76z"/>
						
							<linearGradient id="SVGID_34_" gradientUnits="userSpaceOnUse" x1="163.9458" y1="-68.3513" x2="195.2793" y2="46.9822" gradientTransform="matrix(1 0 0 -1 -170.96 -60.5981)">
							<stop  offset="0" style="stop-color:#B9873D"/>
							<stop  offset="0.4666" style="stop-color:#F5E382"/>
							<stop  offset="1" style="stop-color:#996D33"/>
						</linearGradient>
						<path fill="url(#SVGID_34_)" d="M-5.85,10.801c-0.007,2.466-0.913,3.543-2.015,3.543c-1.502-0.006-2-1.726-1.994-3.49
							c0.01-1.979,0.648-3.545,2.063-3.545C-6.195,7.315-5.842,9.171-5.85,10.801z M-8.462,10.818
							c-0.032,1.612,0.166,2.338,0.633,2.346c0.422,0,0.577-0.765,0.589-2.331c0.006-1.481-0.128-2.332-0.57-2.338
							C-8.241,8.491-8.468,9.233-8.462,10.818z"/>
						
							<linearGradient id="SVGID_35_" gradientUnits="userSpaceOnUse" x1="168.1353" y1="-69.4895" x2="199.4687" y2="45.844" gradientTransform="matrix(1 0 0 -1 -170.96 -60.5981)">
							<stop  offset="0" style="stop-color:#B9873D"/>
							<stop  offset="0.4666" style="stop-color:#F5E382"/>
							<stop  offset="1" style="stop-color:#996D33"/>
						</linearGradient>
						<path fill="url(#SVGID_35_)" d="M-4.857,12.944c0.276,0.147,0.669,0.258,1.031,0.251c0.672-0.006,1.034-0.432,1.028-1.002
							c-0.009-0.763-0.603-1.065-1.293-1.072l-0.19,0.007l-0.013-1.015l0.138-0.012c0.504-0.015,1.147-0.226,1.138-0.896
							c-0.005-0.499-0.316-0.788-0.801-0.773c-0.316,0-0.614,0.102-0.864,0.274l-0.204-1.04c0.28-0.181,0.839-0.367,1.41-0.373
							c1.205-0.024,1.824,0.747,1.835,1.624c0.011,0.688-0.362,1.267-0.972,1.561l0.001,0.02c0.67,0.221,1.184,0.803,1.197,1.72
							c0.016,1.049-0.777,2.081-2.274,2.101c-0.543,0.014-1.045-0.123-1.343-0.289L-4.857,12.944z"/>
						
							<linearGradient id="SVGID_36_" gradientUnits="userSpaceOnUse" x1="174.103" y1="-71.1111" x2="205.4365" y2="44.2224" gradientTransform="matrix(1 0 0 -1 -170.96 -60.5981)">
							<stop  offset="0" style="stop-color:#B9873D"/>
							<stop  offset="0.4666" style="stop-color:#F5E382"/>
							<stop  offset="1" style="stop-color:#996D33"/>
						</linearGradient>
						<path fill="url(#SVGID_36_)" d="M3.913,11.044l0.002,0.988l-2.099,0.014l-0.005-0.987L3.913,11.044z"/>
						
							<linearGradient id="SVGID_37_" gradientUnits="userSpaceOnUse" x1="179.4351" y1="-72.5593" x2="210.7686" y2="42.7742" gradientTransform="matrix(1 0 0 -1 -170.96 -60.5981)">
							<stop  offset="0" style="stop-color:#B9873D"/>
							<stop  offset="0.4666" style="stop-color:#F5E382"/>
							<stop  offset="1" style="stop-color:#996D33"/>
						</linearGradient>
						<path fill="url(#SVGID_37_)" d="M6.786,14.144l0.007-0.929l0.687-0.867c0.892-1.123,1.636-2.057,1.644-3.03
							c0.006-0.565-0.296-0.943-0.867-0.95C7.82,8.362,7.474,8.548,7.23,8.702L6.992,7.63c0.314-0.206,0.905-0.417,1.528-0.41
							c1.509,0.011,1.977,1.025,1.964,1.996c-0.013,1.289-0.823,2.323-1.631,3.234l-0.417,0.469v0.025l2.1,0.031l-0.007,1.215
							L6.786,14.144z"/>
						
							<linearGradient id="SVGID_38_" gradientUnits="userSpaceOnUse" x1="183.9292" y1="-73.7805" x2="215.2627" y2="41.553" gradientTransform="matrix(1 0 0 -1 -170.96 -60.5981)">
							<stop  offset="0" style="stop-color:#B9873D"/>
							<stop  offset="0.4666" style="stop-color:#F5E382"/>
							<stop  offset="1" style="stop-color:#996D33"/>
						</linearGradient>
						<path fill="url(#SVGID_38_)" d="M15.619,10.736c0.006,2.459-0.893,3.543-1.996,3.536c-1.502,0-2.003-1.706-2.003-3.479
							c0-1.97,0.629-3.528,2.048-3.538C15.267,7.265,15.625,9.106,15.619,10.736z M13.006,10.768
							c-0.02,1.599,0.18,2.324,0.642,2.324c0.423,0,0.584-0.751,0.584-2.324c0-1.476-0.142-2.328-0.584-2.328
							C13.218,8.439,13,9.177,13.006,10.768z"/>
						
							<linearGradient id="SVGID_39_" gradientUnits="userSpaceOnUse" x1="188.144" y1="-74.9255" x2="219.4775" y2="40.408" gradientTransform="matrix(1 0 0 -1 -170.96 -60.5981)">
							<stop  offset="0" style="stop-color:#B9873D"/>
							<stop  offset="0.4666" style="stop-color:#F5E382"/>
							<stop  offset="1" style="stop-color:#996D33"/>
						</linearGradient>
						<path fill="url(#SVGID_39_)" d="M18.044,8.605h-0.031L16.87,9.227l-0.25-1.084l1.572-0.835l1.213-0.014l0.07,6.856
							l-1.373,0.019L18.044,8.605z"/>
						
							<linearGradient id="SVGID_40_" gradientUnits="userSpaceOnUse" x1="193.1909" y1="-76.2966" x2="224.5244" y2="39.0369" gradientTransform="matrix(1 0 0 -1 -170.96 -60.5981)">
							<stop  offset="0" style="stop-color:#B9873D"/>
							<stop  offset="0.4666" style="stop-color:#F5E382"/>
							<stop  offset="1" style="stop-color:#996D33"/>
						</linearGradient>
						<path fill="url(#SVGID_40_)" d="M23.52,14.075l-0.031-1.637l-2.355,0.051l-0.026-0.95l2.162-4.319l1.323-0.025l0.089,4.106
							l0.674-0.014l0.026,1.105l-0.675,0.013l0.04,1.636L23.52,14.075z M23.462,11.333L23.43,9.935
							c-0.007-0.373,0.032-0.777,0.045-1.132L23.43,8.798c-0.141,0.379-0.27,0.691-0.441,1.079l-0.701,1.462v0.021L23.462,11.333z"
							/>
					</g>
				</g>
			</g>
		</g>
	</g>
</g>
</svg>
