<?xml version="1.0" encoding="utf-8"?>
<!-- Generator: Adobe Illustrator 15.1.0, SVG Export Plug-In . SVG Version: 6.00 Build 0)  -->
<!DOCTYPE svg PUBLIC "-//W3C//DTD SVG 1.1//EN" "http://www.w3.org/Graphics/SVG/1.1/DTD/svg11.dtd">
<svg version="1.1" id="Layer_1" xmlns="http://www.w3.org/2000/svg" xmlns:xlink="http://www.w3.org/1999/xlink" x="0px" y="0px"
	 width="89.681px" height="26.54px" viewBox="-164.466 -141.678 89.681 26.54"
	 enable-background="new -164.466 -141.678 89.681 26.54" xml:space="preserve">
<g>
	<g>
		<g>
			<path fill="#FFFFFF" d="M-163.569-139.793c0,0,5.871-3.888,7.053,0.384l-0.137,11.171c0,0-0.709,4.357,4.945,5.67
				c5.655,1.312,21.775,2.19,40.331,1.632c18.557-0.56,28.94-1.94,30.064-4.015c1.123-2.074,1.091-7.671,1.764-8.919
				c0.676-1.247,2.259-3.094,2.829-2.448c0.366,0.412-1.588,0.699-1.755,2.526c-0.167,1.829,1.519,6.756,2.045,8.228
				c0.526,1.475,2.466,5.41-3.201,6.796c-5.667,1.388-18.43,3.204-30.768,3.349c-12.335,0.145-42.463-0.805-44.204-1.026
				c-1.739-0.22-10.24-1.248-7.563-8.325c2.676-7.076,3.94-9.269,3.989-11.401C-158.126-138.304-157.647-140.915-163.569-139.793"/>
			<g>
				<g>
					<g>
						<path fill="#FFFFFF" d="M-87.118-127.319c-0.872-0.01-1.619-0.282-2.234-0.816c-0.619-0.525-0.928-1.247-0.928-2.164v-2.448
							v-2.326v-4.826h1.804v2.721h2.237l0,0v1.261l0,0v0.174h-2.237v2.996v2.448c0,0.543,0.133,0.943,0.395,1.196
							s0.584,0.385,0.963,0.393V-127.319z M-95.205-135.805c0.38,0,0.709,0.124,0.986,0.374c0.089,0.081,0.166,0.177,0.228,0.288
							h-0.001c0.117,0.222,0.176,0.506,0.176,0.851v0.186h1.804v-0.172c0-0.064,0-0.124-0.004-0.186h0.004v-0.041
							c0-0.839-0.326-1.495-0.971-1.965c-0.329-0.247-0.674-0.428-1.034-0.547c-0.361-0.115-0.755-0.176-1.188-0.176
							c-0.885,0-1.645,0.263-2.283,0.792c-0.626,0.517-0.94,1.15-0.94,1.895c0,0.509,0.151,0.958,0.456,1.346
							c0.303,0.384,0.763,0.701,1.38,0.947c0.369,0.141,0.72,0.275,1.049,0.404c0.329,0.125,0.637,0.241,0.926,0.344
							c0.492,0.19,0.755,0.542,0.785,1.062v0.183c-0.02,0.548-0.165,0.94-0.44,1.176c-0.271,0.235-0.592,0.353-0.963,0.353
							c-0.38,0-0.709-0.123-0.986-0.368c-0.277-0.245-0.415-0.633-0.415-1.162v-0.185h-1.805v0.173c0,0.896,0.314,1.602,0.939,2.122
							c0.639,0.527,1.392,0.791,2.267,0.791c0.854,0,1.594-0.231,2.22-0.693c0.659-0.462,0.988-1.198,0.988-2.208v-0.169
							c0-0.386-0.134-0.801-0.4-1.244c-0.135-0.236-0.341-0.441-0.618-0.615c-0.277-0.175-0.632-0.341-1.065-0.502l-1.82-0.679
							c-0.462-0.207-0.693-0.566-0.693-1.076c0-0.178,0.039-0.349,0.115-0.508c0.078-0.161,0.18-0.299,0.309-0.417
							c0.129-0.119,0.277-0.211,0.447-0.275C-95.582-135.772-95.402-135.805-95.205-135.805 M-147.398-134.433v-0.287v-1.113v-1.11
							c0-0.507,0.107-0.882,0.318-1.125c0.211-0.245,0.464-0.365,0.763-0.365c0.298,0,0.554,0.12,0.763,0.365
							c0.211,0.243,0.316,0.617,0.316,1.125v1.11v1.113v0.287H-147.398z M-149.787-127.319h2.389v-5.58h2.16v5.58h2.391v-7.402
							v-1.114v-1.109c0-0.897-0.35-1.637-1.049-2.222c-0.308-0.273-0.668-0.481-1.08-0.627c-0.411-0.147-0.856-0.22-1.34-0.22
							c-0.976,0-1.79,0.277-2.436,0.832c-0.689,0.584-1.033,1.33-1.033,2.236v1.11v1.114L-149.787-127.319L-149.787-127.319
							L-149.787-127.319z M-140.782-127.319h2.391v-6.813c0-0.534,0.105-0.919,0.315-1.161c0.211-0.241,0.465-0.362,0.763-0.362
							c0.301,0,0.555,0.148,0.763,0.449c0.213,0.299,0.319,0.745,0.319,1.333h2.389c0-0.995-0.333-1.808-1-2.436
							c-0.331-0.309-0.698-0.533-1.104-0.675c-0.405-0.14-0.86-0.209-1.365-0.209c-0.994,0-1.809,0.274-2.436,0.827h0.016
							c-0.698,0.569-1.049,1.313-1.049,2.232v6.814H-140.782L-140.782-127.319z M-119.3-130.289c0,0.51-0.104,0.883-0.31,1.118
							c-0.205,0.235-0.463,0.353-0.771,0.353c-0.298,0-0.553-0.112-0.762-0.338c-0.214-0.226-0.318-0.6-0.318-1.118v-3.932
							c0-0.519,0.104-0.896,0.318-1.132c0.209-0.236,0.464-0.354,0.762-0.354c0.307,0,0.565,0.118,0.771,0.354
							c0.205,0.236,0.31,0.613,0.31,1.132V-130.289z M-116.909-134.207c0-0.888-0.347-1.613-1.035-2.179h0.014
							c-0.318-0.273-0.683-0.476-1.092-0.607c-0.411-0.132-0.864-0.198-1.357-0.198c-0.997,0-1.809,0.269-2.437,0.806
							c-0.688,0.566-1.033,1.292-1.033,2.179v3.917c0,0.425,0.089,0.821,0.269,1.187c0.18,0.37,0.435,0.7,0.764,0.992
							c0.318,0.244,0.685,0.437,1.095,0.58c0.411,0.143,0.858,0.212,1.342,0.212c1.007,0,1.825-0.265,2.45-0.792h-0.014
							c0.688-0.576,1.035-1.303,1.035-2.179V-134.207L-116.909-134.207z M-113.132-132.878h2.807v0.716v2.421v2.422h1.802v-2.422
							v-2.421v-0.716v-1.461v-5.559h-1.802v5.559h-2.807v-5.559h-1.807v7.737v2.421v2.422h1.807v-2.422v-2.421V-132.878z
							 M-101.997-132.98v1.172v1.541c0,0.536-0.137,0.933-0.411,1.188c-0.271,0.253-0.604,0.382-0.994,0.382
							s-0.724-0.123-0.995-0.368c-0.272-0.246-0.409-0.641-0.409-1.189v-3.987c0-0.547,0.137-0.945,0.409-1.197
							c0.271-0.249,0.604-0.373,0.995-0.373s0.723,0.124,0.994,0.373c0.274,0.251,0.411,0.65,0.411,1.197V-132.98z
							 M-100.193-131.801v-1.171v-1.262c0-0.915-0.314-1.631-0.942-2.15c-0.638-0.537-1.392-0.806-2.267-0.806
							c-0.884,0-1.641,0.269-2.266,0.806c-0.626,0.519-0.94,1.235-0.94,2.15v3.974c0,0.915,0.314,1.631,0.94,2.151
							c0.638,0.527,1.393,0.792,2.266,0.792c0.875,0,1.629-0.265,2.267-0.792c0.628-0.52,0.942-1.236,0.942-2.151V-131.801z
							 M-129.047-129.259c-0.297,0-0.555-0.12-0.77-0.358c-0.217-0.242-0.325-0.623-0.325-1.143c0-0.873,0.41-0.736,1.08-0.736
							c1.009,0,1.825-0.295,2.452-0.882c0.688-0.646,1.035-1.363,1.035-2.151c0-0.336-0.059-0.654-0.18-0.954
							c-0.117-0.298-0.29-0.588-0.515-0.867c-0.392-0.49-0.916-0.832-1.573-1.025v-1.227h-2.39v1.199
							c-0.333,0.106-0.632,0.248-0.902,0.426c-0.274,0.178-0.502,0.384-0.687,0.614c-0.474,0.567-0.71,1.18-0.71,1.834
							c0,0.309,0.072,0.629,0.215,0.96c0.144,0.332,0.329,0.639,0.555,0.917c-0.268,0.308-0.461,0.618-0.586,0.931
							c-0.123,0.313-0.184,0.633-0.184,0.961c0,0.789,0.345,1.501,1.033,2.136c0.628,0.589,1.44,0.883,2.437,0.883h0.693
							c0.113,0,0.209,0.057,0.285,0.173c0.077,0.116,0.117,0.25,0.117,0.404v4.422h2.391v-4.683c0-0.308-0.05-0.577-0.148-0.809
							c-0.098-0.232-0.229-0.421-0.4-0.571c-0.169-0.148-0.37-0.262-0.602-0.337c-0.23-0.079-0.475-0.117-0.732-0.117
							L-129.047-129.259L-129.047-129.259L-129.047-129.259z M-130.125-134.891c0.01-0.154,0.044-0.3,0.107-0.439
							c0.062-0.14,0.142-0.264,0.241-0.37c0.097-0.105,0.208-0.189,0.33-0.252c0.125-0.063,0.257-0.094,0.402-0.094
							c0.298,0,0.549,0.115,0.757,0.347c0.204,0.231,0.317,0.5,0.337,0.809v0.636c0,0.347-0.106,0.638-0.316,0.873
							c-0.211,0.237-0.471,0.354-0.778,0.354c-0.29,0-0.54-0.117-0.755-0.354c-0.216-0.236-0.323-0.527-0.323-0.873
							L-130.125-134.891L-130.125-134.891z M-128.796-137.576h0.043"/>
					</g>
				</g>
			</g>
		</g>
	</g>
</g>
</svg>
