<?xml version="1.0" encoding="utf-8"?>
<!-- Generator: Adobe Illustrator 15.1.0, SVG Export Plug-In . SVG Version: 6.00 Build 0)  -->
<!DOCTYPE svg PUBLIC "-//W3C//DTD SVG 1.1//EN" "http://www.w3.org/Graphics/SVG/1.1/DTD/svg11.dtd">
<svg version="1.1" id="Layer_1" xmlns="http://www.w3.org/2000/svg" xmlns:xlink="http://www.w3.org/1999/xlink" x="0px" y="0px"
	 width="344.667px" height="66.089px" viewBox="0 0 344.667 66.089" enable-background="new 0 0 344.667 66.089"
	 xml:space="preserve">
<g>
	<g>
		<path fill-rule="evenodd" clip-rule="evenodd" fill="#2B3D4F" d="M199.721,37.84c0.037,0.282-0.042,0.682,0.239,0.721
			c-0.023,0.744,0.294,1.146,0.48,1.68c0.424,1.977,1.562,3.238,3.12,4.08c0.343,0.058,0.404,0.395,0.72,0.479
			c0.441,0.919,1.903,0.817,2.64,1.44c0.16,0,0.32,0,0.48,0c0.758-0.117,0.848,0.433,1.68,0.24c0.16,0,0.32,0,0.48,0
			c1.018-0.742,0.232-3.287,0.479-4.801c-0.324-0.075-0.458-0.341-0.96-0.239c-1.683-0.317-2.842-1.158-3.12-2.88
			c0.16-6.801-0.319-14.24,0.24-20.641c2.122-0.278,5.382,0.582,6.721-0.48c0-1.077,0-2.154,0-3.231
			c0.086-0.442,0.117-0.846,0-1.179l0,0l0,0l0,0l0,0c0-0.13,0-0.26,0-0.39c-0.106-0.031-0.226-0.048-0.339-0.073
			c-0.355-0.277-0.899-0.334-1.548-0.282c-0.001,0-0.001,0-0.002,0c-0.215,0.017-0.439,0.045-0.672,0.08c-0.002,0-0.003,0-0.004,0
			h0.001c-0.006,0.001-0.012,0.002-0.017,0.003c0.005-0.001,0.011-0.002,0.016-0.003c-1.449-0.005-3.03,0.121-4.396,0.034
			c-0.269-2.704,0.435-6.379-0.239-8.679c0-0.067,0-0.134,0-0.201c-0.013-0.053-0.036-0.094-0.063-0.131
			c-0.031-0.043-0.065-0.083-0.098-0.126c-0.043-0.058-0.079-0.122-0.079-0.223c-1.94,0.14-4.452-0.292-6,0.24
			C199.641,14.72,199.16,26.8,199.721,37.84z M212.515,16.327c-0.005,0.084-0.006,0.167-0.004,0.25
			C212.509,16.495,212.51,16.411,212.515,16.327z M212.568,17.084c0.027,0.121,0.063,0.24,0.112,0.356
			C212.631,17.324,212.596,17.205,212.568,17.084z M212.517,16.713c0.006,0.086,0.018,0.17,0.032,0.254
			C212.534,16.883,212.522,16.799,212.517,16.713z M212.522,16.192c0.008-0.094,0.02-0.188,0.033-0.282
			C212.542,16.004,212.53,16.099,212.522,16.192z M212.569,15.81c0.02-0.121,0.043-0.241,0.069-0.362
			C212.613,15.568,212.589,15.689,212.569,15.81z M212.695,15.196c0.008-0.034,0.015-0.068,0.022-0.102
			C212.71,15.128,212.703,15.163,212.695,15.196z M212.825,12.825c-0.04-0.065-0.087-0.127-0.145-0.185
			C212.738,12.698,212.785,12.76,212.825,12.825z M207.947,12.774c0.142-0.018,0.284-0.04,0.427-0.063
			C208.231,12.734,208.089,12.756,207.947,12.774z M207.386,12.83c0.117-0.008,0.235-0.021,0.354-0.033
			C207.621,12.81,207.503,12.822,207.386,12.83z M207.176,12.84c-0.113,0.004-0.224,0.005-0.332,0.003
			C206.952,12.845,207.063,12.844,207.176,12.84z M206.159,12.772c-0.153-0.033-0.302-0.074-0.438-0.132
			C205.857,12.699,206.006,12.74,206.159,12.772z M206.646,12.835c-0.112-0.007-0.221-0.021-0.327-0.038
			C206.426,12.814,206.534,12.828,206.646,12.835z"/>
		<path fill-rule="evenodd" clip-rule="evenodd" fill="#2B3D4F" d="M86.92,43.6c-0.257-1.263-1.032-2.008-1.92-2.64
			c-0.504-0.456-1.229-0.69-1.92-0.96c-0.03-0.53-1.018-0.102-1.44-0.24c-0.014-0.146-0.036-0.284-0.24-0.239
			c-1.762-0.559-4.559-0.082-6.72-0.24c-2.167-0.572-3.364-6.527-0.48-7.2c1.485,0.314,3.188,0.186,4.56-0.24
			c0.959-0.24,1.865-0.535,2.64-0.96c3.11-1.369,4.943-4.016,5.76-7.68c0.443-0.305,0.336-3.354,0-2.88c-0.08,0-0.16,0-0.24,0
			c-0.341-3.579-2.286-5.554-4.56-7.2c-0.377-0.583-1.021-0.899-1.92-0.96c-0.51-1.01-0.116-2.924-0.24-4.32
			c-1.642-0.813-6.512-0.773-8.16,0c-0.12,1.32,0.265,3.145-0.24,4.08c-0.27,0.051-0.374,0.267-0.48,0.48
			c-0.766-0.206-0.743,0.378-1.2,0.48c-0.331-0.01-0.527,0.113-0.72,0.24c-0.9,0.699-1.7,1.5-2.4,2.4
			c-0.003,0.477-0.655,0.305-0.48,0.96c-2.192,2.436-1.919,7.826,0,10.32c-0.011,0.73,0.507,0.933,0.72,1.44
			c-0.935,0.825-1.462,2.057-1.92,3.36c-0.458,2.187-0.575,4.56,0.24,6.48c0.248,1.112,0.851,1.869,1.44,2.64
			c0.7,0.9,1.5,1.701,2.4,2.4c0.734,0.466,1.416,0.984,2.4,1.2c0.869,0.411,1.961,0.599,3.36,0.479c0,0.08,0,0.16,0,0.24
			c-0.044,0.691,3.672-0.317,4.08,0.72c0,0.08,0,0.16,0,0.24c0.157,5.363-0.316,11.355,0.24,16.32c2.56,0,5.12,0,7.68,0
			c0.397-5.364,0.402-12.397,0-17.76C87.214,44.106,86.89,44.03,86.92,43.6z M75.64,26.8c-1.2-0.4-1.877-1.323-2.64-2.16
			c0.192-0.833-0.357-0.923-0.24-1.68c0-0.88,0-1.76,0-2.64c0.234-2.246,1.19-3.769,3.84-3.6c1.485,0.274,2.082,1.438,2.64,2.64
			c0,1.6,0,3.2,0,4.8C78.811,25.811,77.844,26.923,75.64,26.8z M80.357,61.432c-0.033-0.004-0.063-0.004-0.085,0.01
			C80.295,61.428,80.324,61.427,80.357,61.432z M86.889,61.539c-0.011,0.022-0.02,0.05-0.031,0.071
			C86.87,61.589,86.878,61.562,86.889,61.539z M83.886,62.069c0.018,0.004,0.034,0.007,0.051,0.011c-0.001,0-0.002,0-0.003,0
			C83.918,62.077,83.902,62.073,83.886,62.069z M86.263,62.08c0.146-0.063,0.29-0.134,0.417-0.24
			c-0.124,0.104-0.26,0.178-0.402,0.24C86.273,62.08,86.269,62.08,86.263,62.08z M87.16,60.257
			C87.16,60.256,87.16,60.256,87.16,60.257L87.16,60.257C87.16,60.256,87.16,60.256,87.16,60.257z M86.997,61.263
			c0.006-0.021,0.011-0.048,0.017-0.07C87.008,61.216,87.003,61.241,86.997,61.263z M87.096,60.806
			c0.002-0.013,0.004-0.026,0.006-0.039C87.1,60.779,87.099,60.793,87.096,60.806z M87.16,57.732L87.16,57.732L87.16,57.732
			L87.16,57.732z M86.929,53.681c0.001,0.047,0.004,0.099,0.005,0.146C86.933,53.779,86.93,53.728,86.929,53.681z M86.951,54.224
			c0.002,0.045,0.005,0.092,0.007,0.138C86.956,54.315,86.953,54.269,86.951,54.224z"/>
		<path fill-rule="evenodd" clip-rule="evenodd" fill="#2B3D4F" d="M76.84,46.72C67.32,46,56.12,46.96,46.6,46.24
			c-0.16-8.16,0.32-16.96-0.24-24.72c0-0.16,0-0.32,0-0.48c0.295-4.155,6.933-3.964,6.48,0.72c0.078,0.882-0.205,2.125,0.24,2.64
			c2.625-0.255,6.31,0.55,8.16-0.48c-0.054-0.186-0.007-0.473-0.24-0.48c-0.014-0.146-0.036-0.284-0.24-0.24
			c-0.131-0.349,0.28-1.241-0.24-1.2c0.277-2.037-0.642-2.878-1.2-4.08c-0.728-1.593-1.722-2.918-3.36-3.6
			c-1.056-0.543-1.735-1.464-3.36-1.44c-0.104-0.537-1.183-0.097-1.68-0.24c-0.259-0.397-2.141-0.397-2.4,0
			c-0.359,0.041-0.886-0.086-0.96,0.24c-2.239-0.159-3.177,0.983-4.56,1.68c-0.08,0-0.16,0-0.24,0c-0.901,0.7-1.701,1.5-2.4,2.4
			c-0.616,0.904-1.176,1.863-1.44,3.12c-0.075,0.324-0.341,0.458-0.24,0.96c0,0.32,0,0.64,0,0.96c-0.08,0-0.16,0-0.24,0
			c-0.422,4.159-0.24,12.646-0.24,18.24c0,0.91,0.186,2.618,0.24,4.028c0,0.416,0,0.831,0,1.247
			c-0.028,0.472-0.099,0.824-0.24,0.965c-0.118,0.118-0.304,0.193-0.534,0.239c-0.539,0-1.078,0-1.617,0
			c-1.586-0.172-3.44-0.653-3.609-0.479c-0.16-11.28,0.32-23.2-0.24-34.08c-0.08,0-0.16,0-0.24,0c0-0.32,0-0.64,0-0.96
			c-0.359-1.48-0.902-2.778-1.68-3.84c-0.7-0.9-1.5-1.7-2.4-2.4c-0.08,0-0.16,0-0.24,0c-1.378-0.942-2.93-1.71-5.04-1.92
			c0-0.08,0-0.16,0-0.24c-0.571-0.398-2.79-0.398-3.36,0c0,0.08,0,0.16,0,0.24c-1.792-0.111-2.636,0.725-3.84,1.2
			c-1.657,0.583-2.822,1.657-3.6,3.12c-0.804,1.276-1.738,2.422-1.68,4.56c-0.08,0-0.16,0-0.24,0
			c-0.477,8.538-0.195,20.063-0.208,29.948c-0.037,0.904-0.059,1.799-0.045,2.552c0,0.007,0,0.014,0,0.021
			c0.004,0.247,0.013,0.478,0.027,0.686c0,0.001,0,0.001,0,0.002c0,0,0,0,0-0.001c0,0.001,0,0.002,0,0.002v-0.001
			C9.65,45.581,9.646,46.037,9.64,46.48c-1.204,0.155-3.035-0.314-3.84,0.239c-0.013,0.146-0.036,0.284-0.24,0.24
			c-0.322,0.81-0.602,3.637,0.24,4.08C29.4,50.88,53.64,51.36,76.84,50.8c0.146-0.014,0.284-0.035,0.24-0.239
			C77.409,49.822,77.671,47.096,76.84,46.72z M24.04,11.2c0,3.52,0,7.04,0,10.56c-2.08,0-4.16,0-6.24,0c0-3.36,0-6.72,0-10.08
			C17.6,7.668,23.847,7.325,24.04,11.2z M17.303,32.356c0.003-0.176,0.002-0.356,0.006-0.531C17.305,32,17.306,32.18,17.303,32.356z
			 M17.396,29.513c-0.013,0.233-0.017,0.474-0.027,0.709C17.379,29.987,17.383,29.746,17.396,29.513z M17.32,46.192
			c0.099,0.008,0.182,0.022,0.24,0.048c-0.057-0.025-0.143-0.038-0.24-0.046C17.32,46.193,17.32,46.193,17.32,46.192z M24.04,46.48
			c-2.08,0-4.16,0-6.24,0c0-6.24,0-12.48,0-18.72c2.08,0,4.16,0,6.24,0C24.04,34,24.04,40.24,24.04,46.48z M10.938,46.72
			c-0.037-0.006-0.068-0.015-0.104-0.021c0.038,0.007,0.075,0.016,0.115,0.021C10.945,46.72,10.941,46.72,10.938,46.72z
			 M60.472,23.911c-1.765-0.072-3.783,0.108-5.532,0.019C56.69,24.018,58.707,23.838,60.472,23.911z M55.438,21.244
			c-0.509-0.478-0.287,0.162-0.527,0.425C55.15,21.403,54.927,20.764,55.438,21.244z M54.76,21.76
			c0.062-0.016,0.109-0.046,0.146-0.084C54.869,21.714,54.822,21.744,54.76,21.76z M54.822,22.17
			c-0.044,0.016-0.097,0.025-0.147,0.036C54.726,22.195,54.778,22.186,54.822,22.17z M55.148,21.949
			c-0.02,0.023-0.045,0.042-0.068,0.063C55.104,21.992,55.128,21.972,55.148,21.949z M55.008,22.075
			c-0.029,0.02-0.064,0.035-0.098,0.051C54.943,22.11,54.979,22.095,55.008,22.075z M55.388,21.459
			c-0.006,0.021-0.014,0.042-0.02,0.062C55.375,21.501,55.382,21.48,55.388,21.459z M55.33,21.634
			c-0.01,0.025-0.021,0.048-0.032,0.072C55.309,21.682,55.32,21.659,55.33,21.634z M55.253,21.8
			c-0.014,0.025-0.032,0.047-0.048,0.071C55.221,21.847,55.239,21.824,55.253,21.8z M55.464,21.178c0,0,0-0.001,0-0.002
			C55.464,21.177,55.464,21.177,55.464,21.178C55.464,21.178,55.464,21.178,55.464,21.178z M54.747,20.396
			c0.008,0,0.017-0.001,0.025,0C54.764,20.395,54.755,20.396,54.747,20.396z M54.301,20.458c-0.085,0.026-0.172,0.061-0.261,0.102
			C54.128,20.519,54.216,20.484,54.301,20.458z M54.455,20.423c0.031-0.006,0.062-0.017,0.092-0.021
			C54.517,20.407,54.485,20.417,54.455,20.423z M54.583,22.228c-0.09,0.012-0.19,0.017-0.303,0.013
			C54.393,22.245,54.493,22.239,54.583,22.228z M55.715,20.673c0.009-0.008,0.02-0.016,0.03-0.023
			C55.735,20.658,55.724,20.665,55.715,20.673z M55.555,20.912c0.005-0.013,0.011-0.025,0.017-0.038
			C55.566,20.886,55.56,20.899,55.555,20.912z M55.991,20.541c0.011-0.002,0.026-0.001,0.038-0.003
			C56.017,20.54,56.002,20.539,55.991,20.541z M53.9,23.838c-0.286-0.04-0.561-0.091-0.82-0.158
			C53.339,23.747,53.614,23.798,53.9,23.838z M54.803,23.924c-0.242-0.014-0.474-0.039-0.703-0.066
			C54.33,23.885,54.561,23.91,54.803,23.924z M53.32,24.16c0.297-0.035,0.613-0.051,0.939-0.058
			C53.933,24.108,53.618,24.125,53.32,24.16z M54.436,24.104c2.065-0.016,4.539,0.376,6.051-0.192h0
			C58.976,24.48,56.505,24.091,54.436,24.104z M10.625,46.654c-0.046-0.012-0.087-0.028-0.13-0.043
			C10.538,46.626,10.578,46.642,10.625,46.654z M10.326,46.554c-0.049-0.021-0.091-0.048-0.136-0.073
			C10.235,46.506,10.277,46.532,10.326,46.554z M10.076,46.417c-0.075-0.053-0.141-0.11-0.196-0.177
			c-0.033-0.039-0.061-0.103-0.087-0.18c0.026,0.076,0.054,0.141,0.087,0.18C9.935,46.307,10.001,46.364,10.076,46.417z
			 M9.874,37.888c0,0.023-0.002,0.055-0.003,0.08C9.871,37.942,9.873,37.911,9.874,37.888z M9.695,45.563
			c-0.004-0.033-0.008-0.066-0.011-0.102C9.687,45.496,9.691,45.529,9.695,45.563z M9.76,45.931
			c-0.011-0.045-0.022-0.088-0.031-0.14C9.738,45.843,9.749,45.887,9.76,45.931z"/>
		<path fill-rule="evenodd" clip-rule="evenodd" fill="#2B3D4F" d="M341.32,46.96c-5.68-0.56-12.399-0.08-18.479-0.24
			c0,0.08,0,0.16,0,0.24c-12.32,0-24.641,0-36.96,0c0-0.08,0-0.16,0-0.24c-6.4,0-12.801,0-19.2,0c-12.32,0-24.64,0-36.96,0
			c-14.721,0-29.44,0-44.16,0c-0.039-0.281-0.438-0.202-0.72-0.239c0.332-0.548,1.67-0.09,2.399-0.24
			c1.034-0.727,2.402-1.118,3.36-1.92c1.14-0.541,2.021-1.34,2.399-2.641c0.294-0.906,1.045-1.354,0.96-2.64
			c0.675-0.691,0.671-3.322,0.24-4.32c-0.303-1.057-0.739-1.98-1.2-2.88c-0.415-1.344-1.295-2.224-2.64-2.64
			c-3.362-3.118-11.35-1.61-10.8-8.64c0.79-1.45,1.852-2.628,3.6-3.12c3.088-0.208,4.741,1.019,5.04,3.6
			c0.065,0.815-0.186,1.946,0.24,2.4c1.704-0.219,5.614,0.499,5.76-0.48c-0.155-1.125,0.314-2.874-0.24-3.6
			c-0.902-3.657-3.689-5.43-7.199-6.48c-1.205-0.399-4.075-0.399-5.28,0c-0.562,0.079-0.991,0.289-1.44,0.48
			c-2.246,0.554-3.771,1.828-4.8,3.6c-0.527,0.992-1.357,1.683-1.44,3.12c-0.372,1.266-0.27,3.025,0.24,4.08
			c1.183,4.498,6.024,5.336,9.601,7.44c6.284-0.555,6.324,10.583,0,10.08c-1.927-0.474-3.572-1.228-3.84-3.359
			c1.268-4.309-3.54-2.541-6.24-2.88c-0.307,0.427-0.462,2.239,0,2.64c0.08,0,0.16,0,0.24,0c0.151,1.209,0.476,2.244,0.96,3.12
			c0.494,1.265,1.142,2.378,2.399,2.88c0.908,1.012,2.612,1.228,3.601,2.16c-6.081,0.399-13.84,0.399-19.92,0
			c1.93-1.03,4.045-1.875,5.28-3.601c1.014-0.826,1.625-2.056,1.68-3.84c0.076-0.324,0.342-0.458,0.24-0.96c0.08,0,0.16,0,0.24,0
			c0.4-4.96,0.4-11.599,0-16.56c-0.08,0-0.16,0-0.24,0c0-0.32,0-0.64,0-0.96c-0.033-0.447-0.158-0.802-0.48-0.96
			c-0.416-2.145-1.707-3.413-3.12-4.56c-0.76-0.92-1.832-1.528-3.36-1.68c-0.241,0-0.285-0.194-0.48-0.24
			c-1.205-0.399-4.075-0.399-5.28,0c-0.744-0.024-1.331,0.109-1.68,0.48c-2.476,0.964-4.261,2.619-5.28,5.04
			c-0.148,0.892-0.572,1.508-0.72,2.4c-0.4,5.201-0.4,12.08,0,17.28c0.038,0.282-0.041,0.682,0.24,0.72
			c-0.085,1.285,0.667,1.733,0.96,2.641c1.073,2.526,3.478,3.723,6,4.8c-3.761,0.399-9.199,0.399-12.96,0c0-14.32,0-28.64,0-42.96
			c-1.548-0.532-4.06-0.1-6-0.24c-1.277,5.283,0.157,13.277-0.72,18.96c-2.64,0-5.28,0-7.92,0c-0.16-6.24,0.32-13.12-0.24-18.96
			c-2.019,0.141-4.614-0.294-6.24,0.24c0,14.32,0,28.64,0,42.96c-4.001,0.399-9.679,0.399-13.68,0
			c0.295-0.505,1.445-0.155,1.68-0.72c0.848-0.112,1.314-0.606,1.92-0.96c0.9-0.7,1.701-1.5,2.4-2.4c0-0.08,0-0.16,0-0.24
			c0.713-0.807,1.001-2.039,1.44-3.12c0.537-0.104,0.098-1.183,0.24-1.68c0.08,0,0.16,0,0.24,0c0.4-4.48,0.4-10.639,0-15.12
			c-0.08,0-0.16,0-0.24,0c-0.041-0.359,0.085-0.886-0.24-0.96c0.315-1.995-0.993-2.367-1.2-3.84c-0.713-1.207-1.584-2.256-2.88-2.88
			c-0.554-0.247-0.774-0.826-1.68-0.72c-0.788-0.413-1.643-0.757-2.88-0.72c-0.045-0.355-0.58-0.22-0.96-0.24
			c-0.259-0.397-2.142-0.397-2.4,0c-0.359,0.041-0.886-0.086-0.96,0.24c-1.597,0.083-2.973,0.387-3.84,1.2
			c-1.401,0.359-2.094,1.426-2.88,2.4c-1.212,0.948-1.617,2.703-2.16,4.32c0,0.4,0,0.8,0,1.2c-0.08,0-0.16,0-0.24,0
			c-0.4,4.481-0.4,10.64,0,15.12c0.08,0,0.16,0,0.24,0c0.138,0.422-0.29,1.41,0.24,1.44c0.292,1.468,0.917,2.603,1.68,3.6
			c0.917,1.883,2.752,2.849,4.8,3.6c0.147,0.333,0.924,0.036,0.96,0.48c-3.122,0.719-7.919-0.239-11.04,0.479
			c-0.014,0.146-0.036,0.284-0.24,0.24c-0.322,0.81-0.602,3.637,0.24,4.08c76.5-0.146,153.518,0.23,229.808-0.123
			c0.71,0.015,1.431,0.028,2.158,0.042c0.071,0.001,0.141,0.002,0.212,0.004c1.492,0.027,3.013,0.051,4.552,0.064
			c0.066,0.001,0.133,0.001,0.198,0.002c0.688,0.006,1.379,0.009,2.072,0.01c0.109,0,0.218,0,0.328,0.001
			c2.308,0.001,4.631-0.029,6.922-0.111c0.09-0.003,0.179-0.006,0.268-0.01c0.73-0.027,1.458-0.06,2.18-0.098
			c0.02-0.001,0.039-0.002,0.058-0.003c-0.002,0-0.004,0-0.007,0c0.124-0.007,0.249-0.012,0.372-0.019
			c-0.121,0.007-0.244,0.012-0.365,0.019c1.16-0.008,2.325-0.011,3.485-0.019c0-1.279,0-2.56,0-3.84
			C341.48,46.96,341.4,46.96,341.32,46.96z M106.84,20.8c0,5.84,0,11.68,0,17.521c0,0.16,0,0.319,0,0.479
			c-0.609,1.071-1.408,1.952-2.64,2.4c-0.32,0-0.64,0-0.96,0c-1.404-0.436-2.422-1.259-2.64-2.88c0-5.84,0-11.68,0-17.521
			c0-0.16,0-0.32,0-0.48c0.08,0,0.16,0,0.24,0c0.509-1.491,1.386-2.614,3.6-2.4C105.867,18.253,106.78,19.1,106.84,20.8z
			 M162.041,20.8c0,5.76,0,11.52,0,17.28c0.076,0.557-0.039,0.922-0.24,1.2c-0.732,0.867-1.524,1.676-2.64,2.16
			c-2.979,0.179-5.209-0.392-5.28-3.12c0-6,0-12,0-18c0.108-1.572,1.228-2.131,2.4-2.64C159.196,16.833,161.604,18.385,162.041,20.8
			z M127.24,27.76c2.72,0,5.44,0,8.16,0c0,6.24,0,12.48,0,18.72c-2.72,0-5.44,0-8.16,0C127.24,40.24,127.24,34,127.24,27.76z
			 M333.95,49.95c-0.006-0.002-0.016-0.001-0.021-0.004C333.935,49.949,333.944,49.948,333.95,49.95z M325.602,50.23
			c-0.288,0.019-0.571,0.045-0.841,0.09C325.03,50.275,325.313,50.249,325.602,50.23z M326.683,50.203
			c-0.291-0.004-0.577,0.002-0.86,0.015C326.105,50.205,326.392,50.199,326.683,50.203z M327.618,50.236
			c-0.307-0.016-0.614-0.028-0.919-0.033C327.004,50.208,327.312,50.221,327.618,50.236z M328.688,50.299c-0.002,0-0.004,0-0.006,0
			c-0.278-0.018-0.563-0.035-0.849-0.051C328.121,50.264,328.407,50.281,328.688,50.299z M331.666,50.245
			c0,0-0.001,0.001-0.002,0.001l0,0C331.665,50.246,331.666,50.245,331.666,50.245z M332.618,49.527
			c-0.01,0.029-0.027,0.053-0.04,0.08C332.591,49.58,332.608,49.557,332.618,49.527z M332.428,49.847
			c-0.018,0.019-0.039,0.035-0.058,0.053C332.389,49.882,332.41,49.865,332.428,49.847z M332.109,50.084
			c-0.016,0.008-0.03,0.015-0.046,0.022C332.079,50.099,332.095,50.092,332.109,50.084z M333.641,49.84
			c-0.055,0.002-0.092,0.021-0.121,0.049C333.549,49.861,333.586,49.842,333.641,49.84z M335.057,50.186L335.057,50.186
			L335.057,50.186L335.057,50.186z M340.298,49.917c-0.04-0.044-0.093-0.076-0.177-0.077
			C340.205,49.841,340.258,49.872,340.298,49.917z M340.52,49.511c-0.054-0.047-0.107-0.096-0.159-0.15
			C340.412,49.415,340.467,49.463,340.52,49.511z M340.772,50.085C340.772,50.085,340.772,50.085,340.772,50.085L340.772,50.085
			C340.772,50.085,340.772,50.085,340.772,50.085z M120.41,50.106c0.009-0.063-0.005-0.13-0.032-0.196
			C120.406,49.977,120.419,50.043,120.41,50.106z M119.08,48.16c0.257,0.434,1.285,0.596,0.739,1.175
			C120.364,48.756,119.337,48.594,119.08,48.16z M119.543,49.243c-0.016-0.005-0.031-0.008-0.046-0.012
			C119.513,49.235,119.528,49.238,119.543,49.243z M119.285,49.19c-0.044-0.003-0.084,0.004-0.125,0.009
			C119.201,49.195,119.24,49.188,119.285,49.19z M119.037,49.218c-0.078,0.028-0.146,0.071-0.197,0.143
			C118.891,49.289,118.959,49.245,119.037,49.218z M119.839,49.345c-0.012,0.004-0.019,0.01-0.03,0.013c0,0,0,0,0,0
			C119.82,49.354,119.827,49.349,119.839,49.345z M120.292,47.485c-0.076-0.1-0.161-0.195-0.252-0.285
			C120.131,47.29,120.216,47.386,120.292,47.485z M120.132,49.584c-0.013-0.012-0.027-0.022-0.041-0.034
			C120.105,49.562,120.12,49.572,120.132,49.584z M120.354,49.854c-0.029-0.056-0.07-0.111-0.117-0.166
			C120.285,49.742,120.324,49.798,120.354,49.854z M120.402,50.131c-0.016,0.068-0.051,0.134-0.122,0.189
			C120.352,50.265,120.386,50.199,120.402,50.131z M200.034,50.587c-0.194,0.001-0.39,0.002-0.584,0.003
			C199.645,50.589,199.84,50.588,200.034,50.587z M231.142,50.576c-5.272-0.01-10.547-0.016-15.821-0.016
			C220.595,50.561,225.869,50.567,231.142,50.576z M105.879,50.719c-4.332-0.04-8.653-0.09-12.959-0.158
			C97.226,50.629,101.55,50.677,105.879,50.719z M231.327,50.576c18.341,0.031,36.655,0.096,54.862,0.059
			C267.98,50.67,249.67,50.608,231.327,50.576z M300.12,50.584c-4.481,0.024-8.971,0.041-13.467,0.05
			C291.149,50.625,295.639,50.608,300.12,50.584z M314.311,50.479c-4.364,0.042-8.738,0.075-13.119,0.1
			C305.572,50.554,309.946,50.521,314.311,50.479z M328.601,50.3c-4.359,0.067-8.73,0.121-13.109,0.165
			C319.87,50.42,324.241,50.367,328.601,50.3z M333.419,50.215c0.009-0.063,0.018-0.125,0.031-0.183
			C333.438,50.091,333.428,50.152,333.419,50.215L333.419,50.215L333.419,50.215c-0.354,0.007-0.706,0.013-1.06,0.019
			C332.713,50.228,333.065,50.222,333.419,50.215z M333.5,49.917c-0.019,0.026-0.034,0.054-0.044,0.089
			C333.466,49.972,333.481,49.942,333.5,49.917z M337.583,50.142L337.583,50.142c-0.162,0.003-0.326,0.006-0.489,0.009
			C337.257,50.147,337.42,50.145,337.583,50.142z M340.121,50.097c0.092-0.002,0.185-0.003,0.276-0.005
			c-0.011-0.025-0.026-0.045-0.037-0.069c0.011,0.024,0.026,0.044,0.037,0.069l0,0l0,0
			C340.306,50.094,340.213,50.095,340.121,50.097L340.121,50.097z M117.72,50.8L117.72,50.8L117.72,50.8L117.72,50.8z
			 M315.091,50.841c0.512,0.009,1.031,0.018,1.558,0.028C316.122,50.858,315.603,50.85,315.091,50.841z M310.841,50.8
			c0.574,0,1.168,0.004,1.771,0.009C312.009,50.804,311.415,50.8,310.841,50.8z M313.164,50.814
			c0.451,0.006,0.908,0.012,1.373,0.019C314.072,50.826,313.615,50.82,313.164,50.814z"/>
	</g>
	<g>
		<path fill-rule="evenodd" clip-rule="evenodd" fill="#77B34A" d="M251.387,14.653c0.999-0.042,0.07-2.009,1.2-1.92
			c1.239-0.199,1.058,1.023,1.68,1.44c2.234,4.566,4.782,8.818,7.2,13.2c0.16,0,0.32,0,0.48,0c2.317,0.242,4.856,0.264,7.2,0.48
			c2.989,0.718,6.817,0.427,7.68,2.64c1.181,3.029-4.612,11.051-4.32,14.401c-0.401,0.557-0.627,1.293-0.72,2.158
			c-12.32,0-24.64,0-36.96,0c-0.333-0.146-0.036-0.924-0.48-0.959c-1.456-4.465-3.1-8.74-4.8-12.96
			c-0.156-0.835-0.883-2.003-0.24-2.88c0.888-1.112,2.662-1.338,4.08-1.92c1.789-0.051,3.119-0.561,5.04-0.48
			c1.434-0.486,3.919,0.079,5.28-0.48c0.771-0.109,0.826-0.934,1.2-1.44c1.654-3.146,3.501-6.099,5.04-9.36
			C250.488,15.995,250.727,15.113,251.387,14.653z M254.027,17.773c-0.925,2.921-0.494,10.67-0.24,14.4
			c0.255,0.545,1.509,0.092,2.16,0.24c1.045-0.155,2.713,0.313,3.359-0.24c0.809-0.152,2.229,0.31,2.641-0.24
			c-0.538-0.262-0.422-1.178-0.96-1.44c-1.906-4.014-4.197-7.643-6.24-11.52C254.606,18.474,254.242,18.198,254.027,17.773z
			 M250.667,32.173c-0.159-4.08,0.319-8.799-0.24-12.48c-0.37,0.51-0.69,1.07-0.96,1.68c-1.831,3.369-3.753,6.647-5.52,10.08
			c-1.005,1.021,1.385,0.683,2.159,0.72c0.641,0,1.28,0,1.921,0C248.363,32.571,250.331,32.571,250.667,32.173z M242.267,30.494
			c0.356-0.204,0.517-0.604,0.48-1.2c-1.491,0.269-3.477,0.043-4.8,0.48c-1.78-0.1-3.064,0.296-4.561,0.48
			c-0.735,0.384-2.097,0.144-2.16,1.2c0.675,0.286,1.38,0.54,2.16,0.72c1.838,0.243,3.447,0.713,5.521,0.72
			c0.79,0.01,1.194,0.405,2.16,0.24c-0.011-0.331,0.112-0.527,0.239-0.72C241.513,31.659,242.214,31.401,242.267,30.494z
			 M262.907,29.773c0.254,1.106,0.893,1.827,1.439,2.64c-0.309,1.278,2.461,0.728,2.88,0.48c2.969-0.232,6.323-0.077,7.681-1.92
			c-1.766-0.714-3.778-1.182-6.24-1.2C267.281,29.604,263.174,28.705,262.907,29.773z M240.347,34.814
			c-3.06-0.141-5.899-0.502-8.399-1.201c1.267,4.414,2.893,8.466,4.56,12.48c5.041,0.436,10.689,0.24,16.561,0.24
			c5.687,0,12.337,1.074,17.04,0c0.034-0.008-0.027-0.438,0-0.48c1.03-2.809,2.118-5.561,2.88-8.641
			c0.573-0.945,0.829-2.209,1.199-3.359c-0.809,0.071-1.639,0.121-2.159,0.48c-1.925-0.006-3.27,0.57-5.28,0.48
			c-1.565,0.514-4.258-0.098-5.76,0.479c-0.801,0-1.601,0-2.4,0c-3.2,0-6.4,0-9.6,0c-0.881,0-1.761,0-2.641,0
			c-0.885-0.555-2.796-0.084-4.08-0.24C241.377,35.223,241.237,34.645,240.347,34.814z"/>
		<path fill-rule="evenodd" clip-rule="evenodd" fill="#E45829" d="M301.307,25.454c2.464-4.256,4.654-8.787,7.44-12.72
			c2.347,1.525,3.229,4.519,4.56,6.96c1.33,2.438,2.829,4.83,4.08,7.2c0.046,0.194,0.241,0.239,0.24,0.48c0.72,0,1.44,0,2.16,0
			c0.411,0.549,1.832,0.088,2.64,0.24c2.682,0.198,5.233,0.526,7.681,0.96c0.038,0.281,0.438,0.202,0.72,0.24
			c0.932,0.588,1.955,1.085,2.4,2.16c0.023,0.744-0.294,1.146-0.48,1.68c-0.75,2.209-1.611,4.309-2.16,6.719
			c-1.051,2.391-1.79,5.09-2.64,7.68c0,0.08,0,0.16,0,0.24c-12.32,0-24.641,0-36.96,0c0-0.08,0-0.16,0-0.24
			c-0.362-0.438-0.255-1.344-0.721-1.68c-1.452-5.188-3.976-9.305-5.04-14.879c1.631-2.049,5.17-2.191,8.4-2.64
			c1.303,0.183,1.86-0.38,3.12-0.24c0.887-0.153,2.391,0.311,2.88-0.24C300.947,27.494,300.727,26.073,301.307,25.454z
			 M310.907,18.974c0-0.08,0-0.16,0-0.24c-0.423-0.217-0.396-0.883-0.96-0.96c0,4.8,0,9.6,0,14.4c1.204,0.399,4.075,0.399,5.28,0
			c1.012-0.077,3.809,0.356,2.399-0.72C315.61,27.07,313.119,23.162,310.907,18.974z M306.827,31.934
			c-0.159-4,0.319-8.64-0.24-12.24c-0.393,0.967-1.047,1.673-1.439,2.64c-1.681,3.12-3.55,6.051-5.04,9.36c-0.08,0-0.16,0-0.24,0
			c-0.093,0.973,1.495,0.265,2.16,0.48c0.8,0,1.6,0,2.399,0C304.768,32.575,306.811,32.65,306.827,31.934z M297.707,31.693
			c0.664-0.536,1.062-1.338,1.2-2.4c-1.438,0.242-3.304,0.057-4.561,0.48c-2.687,0.193-5.683,0.077-6.96,1.68
			c2.717,1.124,6.365,1.315,9.84,1.68C297.164,32.431,297.77,32.396,297.707,31.693z M321.707,29.534
			c-0.489-0.551-1.993-0.087-2.88-0.24c0.184,0.696,0.38,1.38,0.96,1.68c0.054,0.186,0.007,0.473,0.24,0.48
			c0.063,0.737,0.521,1.079,0.72,1.68c3.807-0.354,8.273-0.047,10.32-2.16c-1.766-0.714-3.778-1.182-6.24-1.2
			C324.259,29.222,322.673,29.688,321.707,29.534z M295.307,34.814c-2.526-0.193-4.723-0.718-7.199-0.961
			c1.327,4.033,2.875,7.844,4.319,11.76c0.629,1.307,2.502,0.709,3.601,0.721c4.491,0.047,8.503,0,12.96,0
			c5.851,0,12.698,1.047,17.279,0c0.035-0.008-0.026-0.438,0-0.48c1.526-3.834,2.754-7.967,4.08-12
			c-2.173,0.307-4.196,0.764-6.479,0.961c-1.303-0.184-1.86,0.379-3.12,0.238c-1.125,0.156-2.874-0.313-3.6,0.24
			c-0.881,0-1.761,0-2.641,0c-3.12,0-6.24,0-9.359,0c-0.881,0-1.761,0-2.641,0c-0.806-0.555-2.636-0.084-3.84-0.24
			C297.451,35.07,296.68,34.641,295.307,34.814z"/>
		<path fill-rule="evenodd" clip-rule="evenodd" fill="#D1B581" d="M296.747,27.614c0-0.08,0-0.16,0-0.24c0.16,0,0.32,0,0.479,0
			c0.801,0,1.601,0,2.4,0C299.138,27.924,297.634,27.46,296.747,27.614z"/>
		<path fill-rule="evenodd" clip-rule="evenodd" fill="#D1B581" d="M319.787,27.374c0.8,0,1.6,0,2.4,0
			c0.204-0.044,0.226,0.094,0.239,0.24C321.619,27.461,320.198,27.923,319.787,27.374z"/>
		<path fill-rule="evenodd" clip-rule="evenodd" fill="#D1B581" d="M300.107,31.693c0.179,0.542,1.346,0.094,1.92,0.24
			c0,0.08,0,0.16,0,0.24c-0.665-0.215-2.253,0.493-2.16-0.48C299.947,31.693,300.027,31.693,300.107,31.693z"/>
		<path fill-rule="evenodd" clip-rule="evenodd" fill="#D1B581" d="M248.027,32.173c0.88,0,1.76,0,2.64,0
			C250.331,32.571,248.363,32.571,248.027,32.173z"/>
		<path fill-rule="evenodd" clip-rule="evenodd" fill="#D1B581" d="M255.947,32.414c0.646-0.553,2.314-0.085,3.359-0.24
			C258.66,32.727,256.992,32.259,255.947,32.414z"/>
		<path fill-rule="evenodd" clip-rule="evenodd" fill="#D1B581" d="M309.947,32.173c1.76,0,3.52,0,5.28,0
			C314.022,32.573,311.151,32.573,309.947,32.173z"/>
		<path fill-rule="evenodd" clip-rule="evenodd" fill="#D1B581" d="M298.667,35.293c0-0.08,0-0.16,0-0.24
			c1.204,0.156,3.034-0.314,3.84,0.24c-1.04,0-2.08,0-3.12,0C299.147,35.293,298.907,35.293,298.667,35.293z"/>
		<path fill-rule="evenodd" clip-rule="evenodd" fill="#D1B581" d="M317.147,35.293c0.726-0.553,2.475-0.084,3.6-0.24
			c0,0.08,0,0.16,0,0.24c-0.16,0-0.32,0-0.48,0C319.228,35.293,318.188,35.293,317.147,35.293z"/>
		<path fill-rule="evenodd" clip-rule="evenodd" fill="#EBE6E2" d="M243.467,35.293c0.96,0,1.92,0,2.88,0c0.88,0,1.76,0,2.641,0
			c0,0.08,0,0.16,0,0.24C247.225,35.375,244.83,35.852,243.467,35.293z"/>
		<path fill-rule="evenodd" clip-rule="evenodd" fill="#CBC9C7" d="M248.987,35.533c0-0.08,0-0.16,0-0.24c3.199,0,6.399,0,9.6,0
			c0,0.08,0,0.16,0,0.24C255.387,35.533,252.187,35.533,248.987,35.533z"/>
		<path fill-rule="evenodd" clip-rule="evenodd" fill="#EBE6E2" d="M258.587,35.533c0-0.08,0-0.16,0-0.24c0.8,0,1.6,0,2.4,0
			c0.96,0,1.92,0,2.88,0C262.584,35.85,260.27,35.375,258.587,35.533z"/>
		<path fill-rule="evenodd" clip-rule="evenodd" fill="#D1B581" d="M305.147,35.533c0-0.08,0-0.16,0-0.24c3.119,0,6.239,0,9.359,0
			c0,0.08,0,0.16,0,0.24C311.387,35.533,308.267,35.533,305.147,35.533z"/>
		<path fill-rule="evenodd" clip-rule="evenodd" fill="#EBE6E2" d="M327.947,47.053c0.85-2.59,1.589-5.289,2.64-7.68
			c-0.324,2.797-1.438,4.801-2.16,7.201c5.447,0.873,13.191-0.551,18.24,0.719c-0.08,0-0.16,0-0.24,0
			C340.747,46.734,334.027,47.213,327.947,47.053z"/>
		<path fill-rule="evenodd" clip-rule="evenodd" fill="#EBE6E2" d="M330.107,28.574c2.335-0.365,4.525,2.539,2.64,4.08
			c0.187-0.534,0.504-0.936,0.48-1.68c-0.22-1.301-1.197-1.843-2.4-2.16C330.545,28.776,330.146,28.855,330.107,28.574z"/>
		<path fill-rule="evenodd" clip-rule="evenodd" fill="#EBE6E2" d="M272.507,44.895c0.609,0.318-0.352,1.064-0.24,1.68
			c1.912,0.418,5.18,0.24,8.881,0.24c2.903,0,7.845,0.898,9.119,0c0.271-0.191-0.171-1.152,0-1.441
			c0.466,0.336,0.358,1.242,0.721,1.68c-6.4,0-12.801,0-19.2,0C271.88,46.188,272.105,45.451,272.507,44.895z"/>
		<path fill-rule="evenodd" clip-rule="evenodd" fill="#CBC9C7" d="M251.627,13.454c0-0.24,0-0.48,0-0.72
			c1.113-1.019,2.727-0.129,2.64,1.44c-0.622-0.417-0.44-1.639-1.68-1.44c-1.13-0.089-0.201,1.878-1.2,1.92
			C251.589,14.375,251.703,14.01,251.627,13.454z"/>
		<path fill-rule="evenodd" clip-rule="evenodd" fill="#EBE6E2" d="M251.627,13.454c0.076,0.557-0.038,0.921-0.24,1.2
			c-0.66,0.46-0.898,1.341-1.439,1.92C249.932,14.958,251.268,14.694,251.627,13.454z"/>
		<path fill-rule="evenodd" clip-rule="evenodd" fill="#EBE6E2" d="M241.067,27.374c0.41-0.549,1.831-0.088,2.64-0.24
			c0.587-0.213,0.26-1.34,1.2-1.2c-0.374,0.506-0.43,1.331-1.2,1.44C242.827,27.374,241.947,27.374,241.067,27.374z"/>
		<path fill-rule="evenodd" clip-rule="evenodd" fill="#CBC9C7" d="M229.307,30.014c0.868-1.052,2.001-1.839,4.08-1.68
			c-1.418,0.582-3.192,0.808-4.08,1.92C229.307,30.173,229.307,30.094,229.307,30.014z"/>
		<path fill-rule="evenodd" clip-rule="evenodd" fill="#EBE6E2" d="M229.547,33.134c-0.919-0.413-1.444-2.618-0.24-3.12
			c0,0.08,0,0.16,0,0.24C228.664,31.131,229.391,32.299,229.547,33.134z"/>
		<path fill-rule="evenodd" clip-rule="evenodd" fill="#D1B581" d="M330.827,28.813c1.203,0.317,2.181,0.859,2.4,2.16
			C332.782,29.898,331.759,29.401,330.827,28.813z"/>
		<path fill-rule="evenodd" clip-rule="evenodd" fill="#EBE6E2" d="M297.227,27.374c0.489-0.551,1.993-0.087,2.881-0.24
			c0.61-0.35,0.464-1.456,1.199-1.68c-0.58,0.62-0.359,2.04-1.68,1.92C298.827,27.374,298.027,27.374,297.227,27.374z"/>
		<path fill-rule="evenodd" clip-rule="evenodd" fill="#D1B581" d="M253.787,32.173c-0.254-3.73-0.685-11.479,0.24-14.4
			C253.468,22.094,253.946,27.453,253.787,32.173z"/>
		<path fill-rule="evenodd" clip-rule="evenodd" fill="#EBE6E2" d="M254.747,18.974c-1.255-0.257-0.72,4.008-0.72,6
			c0,2.749,0,5.507,0,6.96c2.399,0,4.8,0,7.199,0c0.581-0.218-0.544-0.708-0.239-1.44c0.538,0.262,0.422,1.178,0.96,1.44
			c-0.411,0.549-1.832,0.088-2.641,0.24c-1.045,0.155-2.713-0.313-3.359,0.24c-0.651-0.148-1.905,0.305-2.16-0.24
			c0.159-4.72-0.319-10.08,0.24-14.4C254.242,18.198,254.606,18.474,254.747,18.974z"/>
		<path fill-rule="evenodd" clip-rule="evenodd" fill="#EBE6E2" d="M310.907,18.974c-1.256-0.232-0.72,3.961-0.72,6
			c0,2.57,0,5.323,0,6.72c1.854,0.252,5.98,0.703,7.439-0.24c1.409,1.076-1.388,0.643-2.399,0.72c-1.761,0-3.521,0-5.28,0
			c0-4.8,0-9.6,0-14.4c0.563,0.077,0.537,0.743,0.96,0.96C310.907,18.813,310.907,18.894,310.907,18.974z"/>
		<path fill-rule="evenodd" clip-rule="evenodd" fill="#FFFFFF" d="M254.747,18.974c2.043,3.877,4.334,7.506,6.24,11.52
			c-0.305,0.731,0.82,1.222,0.239,1.44c-2.399,0-4.8,0-7.199,0c0-1.453,0-4.211,0-6.96
			C254.027,22.982,253.492,18.717,254.747,18.974z"/>
		<path fill-rule="evenodd" clip-rule="evenodd" fill="#FFFFFF" d="M317.627,31.454c-1.459,0.943-5.585,0.492-7.439,0.24
			c0-1.396,0-4.149,0-6.72c0-2.039-0.536-6.232,0.72-6C313.119,23.162,315.61,27.07,317.627,31.454z"/>
		<path fill-rule="evenodd" clip-rule="evenodd" fill="#D1B581" d="M304.427,32.173c0.815-0.065,1.946,0.186,2.4-0.24
			C306.811,32.65,304.768,32.575,304.427,32.173z"/>
		<path fill-rule="evenodd" clip-rule="evenodd" fill="#EBE6E2" d="M249.467,21.374c0.27-0.61,0.59-1.17,0.96-1.68
			c0.56,3.681,0.081,8.4,0.24,12.48c-0.88,0-1.76,0-2.64,0c-0.641,0-1.28,0-1.921,0c0-0.08,0-0.16,0-0.24c1.36,0,2.721,0,4.08,0
			c0.56-3.281,0.081-7.6,0.24-11.28C249.965,20.751,250.237,21.584,249.467,21.374z"/>
		<path fill-rule="evenodd" clip-rule="evenodd" fill="#EBE6E2" d="M305.147,22.333c0.393-0.967,1.047-1.673,1.439-2.64
			c0.56,3.601,0.081,8.24,0.24,12.24c-0.454,0.426-1.585,0.175-2.4,0.24c-0.8,0-1.6,0-2.399,0c0-0.08,0-0.16,0-0.24
			c1.439,0,2.88,0,4.319,0c0.56-3.281,0.081-7.6,0.24-11.28C305.894,21,306.212,22.358,305.147,22.333z"/>
		<path fill-rule="evenodd" clip-rule="evenodd" fill="#FFFFFF" d="M246.106,31.934c-0.664-0.216-2.253,0.493-2.159-0.48
			c1.767-3.433,3.688-6.711,5.52-10.08c0.771,0.21,0.498-0.623,0.96-0.72c-0.159,3.681,0.319,8-0.24,11.28
			C248.827,31.934,247.467,31.934,246.106,31.934z"/>
		<path fill-rule="evenodd" clip-rule="evenodd" fill="#FFFFFF" d="M305.147,22.333c1.064,0.025,0.746-1.333,1.439-1.68
			c-0.159,3.681,0.319,8-0.24,11.28c-1.439,0-2.88,0-4.319,0c-0.574-0.146-1.741,0.301-1.92-0.24
			C301.598,28.384,303.467,25.454,305.147,22.333z"/>
		<path fill-rule="evenodd" clip-rule="evenodd" fill="#CBC9C7" d="M237.947,29.773c1.323-0.437,3.309-0.211,4.8-0.48
			c0.036,0.596-0.124,0.996-0.48,1.2C242.114,28.966,239.256,30.144,237.947,29.773z"/>
		<path fill-rule="evenodd" clip-rule="evenodd" fill="#D1B581" d="M297.707,31.693c0.199-0.601,0.657-0.942,0.72-1.68
			c-0.885-0.555-2.796-0.084-4.08-0.24c1.257-0.423,3.122-0.238,4.561-0.48C298.769,30.355,298.371,31.158,297.707,31.693z"/>
		<path fill-rule="evenodd" clip-rule="evenodd" fill="#D1B581" d="M321.707,29.534c-0.8,0-1.6,0-2.4,0
			c-0.481,0.193,0.43,0.988,0.48,1.44c-0.58-0.3-0.776-0.984-0.96-1.68C319.714,29.447,321.218,28.983,321.707,29.534z"/>
		<path fill-rule="evenodd" clip-rule="evenodd" fill="#EBE6E2" d="M319.787,30.974c-0.051-0.452-0.962-1.247-0.48-1.44
			c0.801,0,1.601,0,2.4,0c0.966,0.154,2.552-0.312,3.12,0.24c-1.76,0-3.521,0-5.28,0c-0.039,0.759,0.638,0.802,0.48,1.68
			C319.794,31.447,319.841,31.16,319.787,30.974z"/>
		<path fill-rule="evenodd" clip-rule="evenodd" fill="#FFFFFF" d="M237.947,29.773c1.309,0.371,4.167-0.808,4.319,0.72
			c-0.053,0.907-0.754,1.166-0.96,1.92c-0.521,0.439-1.965-0.045-2.399,0.48c-2.073-0.007-3.683-0.477-5.521-0.72
			c0.626-0.654-0.86-0.549-1.439-0.72c-0.201-1.063,2.243-0.276,1.439-1.2C234.883,30.07,236.167,29.673,237.947,29.773z"/>
		<path fill-rule="evenodd" clip-rule="evenodd" fill="#EBE6E2" d="M233.387,30.253c0.804,0.924-1.641,0.137-1.439,1.2
			c0.579,0.171,2.065,0.066,1.439,0.72c-0.78-0.18-1.485-0.434-2.16-0.72C231.29,30.397,232.651,30.638,233.387,30.253z"/>
		<path fill-rule="evenodd" clip-rule="evenodd" fill="#FFFFFF" d="M294.347,29.773c1.284,0.156,3.195-0.315,4.08,0.24
			c-0.063,0.737-0.521,1.079-0.72,1.68c0.063,0.703-0.543,0.738-0.48,1.44c-3.475-0.365-7.123-0.556-9.84-1.68
			C288.664,29.85,291.66,29.966,294.347,29.773z"/>
		<path fill-rule="evenodd" clip-rule="evenodd" fill="#CBC9C7" d="M246.106,32.173c-0.774-0.037-3.164,0.301-2.159-0.72
			c-0.094,0.973,1.495,0.264,2.159,0.48C246.106,32.014,246.106,32.094,246.106,32.173z"/>
		<path fill-rule="evenodd" clip-rule="evenodd" fill="#CBC9C7" d="M264.347,32.414c0.302,0.819,1.871,0.37,2.88,0.48
			C266.808,33.141,264.038,33.692,264.347,32.414z"/>
		<path fill-rule="evenodd" clip-rule="evenodd" fill="#D1B581" d="M292.427,45.613c10.245,0.957,23.196,0.482,33.84,0.24
			c-0.026,0.043,0.035,0.473,0,0.48c-4.581,1.047-11.429,0-17.279,0c-4.457,0-8.469,0.047-12.96,0
			C294.929,46.322,293.056,46.92,292.427,45.613z"/>
		<path fill-rule="evenodd" clip-rule="evenodd" fill="#EBE6E2" d="M272.027,34.334c0.521-0.36,1.351-0.41,2.159-0.48
			c-0.37,1.15-0.626,2.414-1.199,3.359c-0.046-1.164,0.289-1.951,0.72-2.639C273.604,34.037,272.524,34.477,272.027,34.334z"/>
		<path fill-rule="evenodd" clip-rule="evenodd" fill="#FFFFFF" d="M236.507,46.094c-1.667-4.014-3.293-8.066-4.56-12.48
			c2.5,0.699,5.34,1.06,8.399,1.201c-0.054,0.346-0.716,0.082-0.72,0.479c0.88,0,1.76,0,2.64,0c0.4,0,0.801,0,1.2,0
			c1.363,0.559,3.758,0.082,5.521,0.24c3.199,0,6.399,0,9.6,0c1.683-0.158,3.997,0.316,5.28-0.24
			c0.928-0.148,4.158,0.391,2.88-0.479c2.011,0.09,3.355-0.486,5.28-0.48c0.497,0.143,1.576-0.297,1.68,0.24
			c-0.431,0.688-0.766,1.475-0.72,2.639c-0.762,3.08-1.85,5.832-2.88,8.641C259.386,46.412,247.628,45.934,236.507,46.094z"/>
		<path fill-rule="evenodd" clip-rule="evenodd" fill="#FFFFFF" d="M292.427,45.613c-1.444-3.916-2.992-7.727-4.319-11.76
			c2.477,0.243,4.673,0.768,7.199,0.961c0.461,0.818,2.199,0.359,3.36,0.479c0.24,0,0.48,0,0.72,0
			c1.442,0.559,3.918,0.082,5.761,0.24c3.119,0,6.239,0,9.359,0c1.842-0.158,4.317,0.318,5.76-0.24c0.16,0,0.32,0,0.48,0
			c1.018-0.182,2.842,0.443,3.12-0.479c2.283-0.197,4.307-0.654,6.479-0.961c-1.326,4.033-2.554,8.166-4.08,12
			C315.623,46.096,302.672,46.57,292.427,45.613z"/>
		<path fill-rule="evenodd" clip-rule="evenodd" fill="#CBC9C7" d="M236.507,46.094c11.121-0.16,22.879,0.318,33.601-0.24
			c-0.027,0.043,0.034,0.473,0,0.48c-4.703,1.074-11.354,0-17.04,0C247.196,46.334,241.548,46.529,236.507,46.094z"/>
		<path fill-rule="evenodd" clip-rule="evenodd" fill="#CBC9C7" d="M238.427,27.854c-0.039-0.281-0.438-0.203-0.72-0.24
			c0.646-0.553,2.314-0.085,3.36-0.24c0.88,0,1.76,0,2.64,0C242.346,27.933,239.86,27.367,238.427,27.854z"/>
		<path fill-rule="evenodd" clip-rule="evenodd" fill="#CBC9C7" d="M293.627,27.854c0.278-0.922,2.103-0.297,3.12-0.48
			c0,0.08,0,0.16,0,0.24C295.487,27.474,294.93,28.037,293.627,27.854z"/>
		<path fill-rule="evenodd" clip-rule="evenodd" fill="#EBE6E2" d="M261.947,27.374c2.048-0.445,5.557-0.279,7.2,0.48
			C266.804,27.637,264.265,27.616,261.947,27.374z"/>
		<path fill-rule="evenodd" clip-rule="evenodd" fill="#FFFFFF" d="M320.027,31.454c0.157-0.878-0.52-0.921-0.48-1.68
			c1.76,0,3.521,0,5.28,0c2.462,0.018,4.475,0.486,6.24,1.2c-2.047,2.113-6.514,1.807-10.32,2.16
			C320.548,32.533,320.09,32.191,320.027,31.454z"/>
		<path fill-rule="evenodd" clip-rule="evenodd" fill="#EBE6E2" d="M241.307,32.414c-0.127,0.193-0.25,0.39-0.239,0.72
			c-0.966,0.165-1.37-0.23-2.16-0.24C239.342,32.368,240.786,32.853,241.307,32.414z"/>
		<path fill-rule="evenodd" clip-rule="evenodd" fill="#CBC9C7" d="M242.267,35.053c1.284,0.156,3.195-0.314,4.08,0.24
			c-0.96,0-1.92,0-2.88,0c-0.399,0-0.8,0-1.2,0C242.267,35.213,242.267,35.133,242.267,35.053z"/>
		<path fill-rule="evenodd" clip-rule="evenodd" fill="#CBC9C7" d="M295.307,34.814c1.373-0.174,2.145,0.256,3.36,0.238
			c0,0.08,0,0.16,0,0.24C297.506,35.174,295.768,35.633,295.307,34.814z"/>
		<path fill-rule="evenodd" clip-rule="evenodd" fill="#EBE6E2" d="M302.507,35.293c0.88,0,1.76,0,2.641,0c0,0.08,0,0.16,0,0.24
			c-1.843-0.158-4.318,0.318-5.761-0.24C300.427,35.293,301.467,35.293,302.507,35.293z"/>
		<path fill-rule="evenodd" clip-rule="evenodd" fill="#FFFFFF" d="M262.907,29.773c1.096-0.131,3.904,0.092,5.76,0
			c2.462,0.018,4.475,0.486,6.24,1.2c-1.357,1.843-4.712,1.688-7.681,1.92c-1.009-0.11-2.578,0.339-2.88-0.48
			C263.8,31.601,263.161,30.88,262.907,29.773z"/>
		<path fill-rule="evenodd" clip-rule="evenodd" fill="#EBE6E2" d="M317.387,26.894c1.081,0.679,3.729-0.209,4.801,0.48
			c-0.801,0-1.601,0-2.4,0c-0.72,0-1.44,0-2.16,0C317.628,27.133,317.433,27.088,317.387,26.894z"/>
		<path fill-rule="evenodd" clip-rule="evenodd" fill="#CBC9C7" d="M262.907,29.773c0.267-1.068,4.374-0.169,5.76,0
			C266.812,29.866,264.003,29.643,262.907,29.773z"/>
		<path fill-rule="evenodd" clip-rule="evenodd" fill="#CBC9C7" d="M260.987,35.293c1.502-0.576,4.194,0.035,5.76-0.479
			c1.278,0.869-1.952,0.33-2.88,0.479C262.907,35.293,261.947,35.293,260.987,35.293z"/>
		<path fill-rule="evenodd" clip-rule="evenodd" fill="#CBC9C7" d="M320.747,35.053c1.26,0.141,1.817-0.422,3.12-0.238
			c-0.278,0.922-2.103,0.297-3.12,0.479C320.747,35.213,320.747,35.133,320.747,35.053z"/>
		<path fill-rule="evenodd" clip-rule="evenodd" fill="#EBE6E2" d="M314.507,35.293c0.88,0,1.76,0,2.641,0c1.04,0,2.08,0,3.119,0
			c-1.442,0.559-3.918,0.082-5.76,0.24C314.507,35.453,314.507,35.373,314.507,35.293z"/>
		<path fill-rule="evenodd" clip-rule="evenodd" fill="#EBE6E2" d="M242.267,35.293c-0.88,0-1.76,0-2.64,0
			c0.004-0.396,0.666-0.133,0.72-0.479c0.891-0.17,1.03,0.408,1.92,0.238C242.267,35.133,242.267,35.213,242.267,35.293z"/>
	</g>
</g>
</svg>
