<?xml version="1.0" encoding="utf-8"?>
<!-- Generator: Adobe Illustrator 16.0.0, SVG Export Plug-In . SVG Version: 6.00 Build 0)  -->
<!DOCTYPE svg PUBLIC "-//W3C//DTD SVG 1.1//EN" "http://www.w3.org/Graphics/SVG/1.1/DTD/svg11.dtd">
<svg version="1.1" id="Layer_1" xmlns="http://www.w3.org/2000/svg" xmlns:xlink="http://www.w3.org/1999/xlink" x="0px" y="0px"
	 width="507.31px" height="39.685px" viewBox="0 0 507.31 39.685" enable-background="new 0 0 507.31 39.685" xml:space="preserve">
<g>
	<g>
		<path d="M35.667,6.945H9.687v8.524h24.742c3.88,0,6.501,0.663,7.866,1.989c1.364,1.328,2.046,3.792,2.046,7.396v5.445
			c0,3.604-0.682,6.07-2.046,7.395c-1.364,1.328-3.986,1.99-7.866,1.99H9.912c-3.88,0-6.502-0.662-7.866-1.99
			C0.682,36.37,0,33.903,0,30.299V27.52h8.147v4.693h28.047v-9.049H11.452c-3.855,0-6.458-0.662-7.81-1.99
			c-1.352-1.325-2.028-3.792-2.028-7.396V9.386c0-3.604,0.676-6.069,2.028-7.397C4.993,0.664,7.596,0,11.452,0h22.527
			c3.729,0,6.301,0.638,7.715,1.915s2.121,3.542,2.121,6.795v2.742h-8.147V6.945z"/>
		<path d="M60.502,9.386c0-3.604,0.676-6.069,2.027-7.397C63.881,0.664,66.484,0,70.339,0h29.21c3.854,0,6.458,0.664,7.81,1.989
			c1.352,1.328,2.027,3.792,2.027,7.397v20.913c0,3.629-0.676,6.1-2.027,7.414s-3.955,1.971-7.81,1.971h-29.21
			c-3.854,0-6.458-0.656-7.809-1.971s-2.027-3.785-2.027-7.414V9.386z M69.738,32.213h30.45V7.095h-30.45V32.213z"/>
		<path d="M126.128,39.684V0h40.136v6.945h-30.899v10.438h16.708v7.247h-16.708v15.055H126.128z"/>
		<path d="M202.716,7.095v32.589h-9.236V7.095H175.27V0H221v7.095H202.716z"/>
		<path d="M234.024,39.684V0h9.236v32.213h29.773v7.471H234.024z"/>
		<path d="M283.632,39.684L306.085,0h8.897l22.753,39.684h-10.363l-4.768-8.672H297.45l-4.618,8.672H283.632z M301.392,23.84h17.384
			l-8.561-16.144L301.392,23.84z"/>
		<path d="M356.432,39.684V21.926L335.821,0h12.314l13.629,15.243L375.431,0h10.851l-20.537,21.7v17.984H356.432z"/>
		<path d="M449.605,39.684V0h33.94c3.154,0,5.438,0.607,6.852,1.82c1.415,1.214,2.122,3.172,2.122,5.876v9.312
			c0,2.678-0.707,4.631-2.122,5.855c-1.414,1.229-3.697,1.842-6.852,1.842h-5.181l18.321,14.979h-13.253l-15.994-14.979h-8.748
			v14.979H449.605z M479.454,6.87h-20.763v11.039h20.763c1.602,0,2.697-0.231,3.285-0.695c0.588-0.462,0.882-1.282,0.882-2.458
			V9.987c0-1.152-0.294-1.959-0.882-2.422C482.151,7.102,481.055,6.87,479.454,6.87z"/>
	</g>
	<g>
		<rect x="396.092" fill="#E30613" width="40.362" height="7.349"/>
		<rect x="396.092" y="16.168" width="40.362" height="7.349"/>
		<rect x="396.092" y="32.336" fill="#E30613" width="40.362" height="7.349"/>
	</g>
	<g>
		<path d="M501.984,0c0.726,0,1.412,0.135,2.062,0.404c0.648,0.269,1.225,0.661,1.729,1.175c0.495,0.5,0.875,1.071,1.139,1.715
			c0.265,0.644,0.396,1.317,0.396,2.018c0,0.726-0.132,1.407-0.396,2.043c-0.264,0.637-0.648,1.2-1.153,1.69
			c-0.523,0.509-1.111,0.9-1.762,1.171c-0.651,0.271-1.323,0.407-2.015,0.407c-0.706,0-1.381-0.136-2.021-0.407
			c-0.642-0.271-1.218-0.667-1.727-1.186c-0.505-0.509-0.89-1.082-1.153-1.719c-0.265-0.637-0.396-1.304-0.396-2
			c0-0.701,0.138-1.38,0.414-2.036c0.276-0.656,0.674-1.246,1.193-1.77c0.485-0.495,1.041-0.87,1.668-1.124
			C500.589,0.127,501.263,0,501.984,0z M506.619,5.363c0-0.643-0.112-1.246-0.336-1.807c-0.224-0.562-0.55-1.056-0.978-1.483
			c-0.443-0.446-0.945-0.786-1.506-1.018c-0.561-0.233-1.158-0.349-1.794-0.349c-0.626,0-1.216,0.113-1.769,0.338
			c-0.554,0.226-1.037,0.549-1.451,0.971c-0.453,0.456-0.801,0.969-1.044,1.541c-0.243,0.571-0.364,1.159-0.364,1.763
			c0,0.6,0.117,1.177,0.351,1.731s0.568,1.052,1.007,1.494c0.433,0.441,0.93,0.781,1.491,1.018c0.561,0.238,1.139,0.356,1.736,0.356
			c0.625,0,1.219-0.115,1.779-0.346c0.561-0.23,1.072-0.566,1.534-1.007c0.434-0.422,0.766-0.908,0.996-1.458
			C506.503,6.559,506.619,5.977,506.619,5.363z M502.127,2.197c0.837,0,1.466,0.138,1.887,0.415
			c0.421,0.276,0.631,0.688,0.631,1.235c0,0.428-0.12,0.783-0.36,1.066c-0.24,0.283-0.579,0.468-1.016,0.554l1.348,2.752h-1.275
			l-1.229-2.572h-1.119v2.572h-1.139V2.197H502.127z M501.925,2.932h-0.932v1.995h0.961c0.544,0,0.934-0.076,1.17-0.227
			c0.235-0.151,0.354-0.395,0.354-0.731c0-0.365-0.123-0.629-0.368-0.792C502.864,3.013,502.469,2.932,501.925,2.932z"/>
	</g>
</g>
</svg>
