<?xml version="1.0" encoding="utf-8"?>
<!-- Generator: Adobe Illustrator 15.1.0, SVG Export Plug-In . SVG Version: 6.00 Build 0)  -->
<!DOCTYPE svg PUBLIC "-//W3C//DTD SVG 1.1//EN" "http://www.w3.org/Graphics/SVG/1.1/DTD/svg11.dtd">
<svg version="1.1" id="Layer_1" xmlns="http://www.w3.org/2000/svg" xmlns:xlink="http://www.w3.org/1999/xlink" x="0px" y="0px"
	 width="507.309px" height="39.686px" viewBox="0 0 507.309 39.686" enable-background="new 0 0 507.309 39.686"
	 xml:space="preserve">
<g>
	<path fill="#5C7287" d="M101.063,10.814H82.877v5.967h17.319c2.716,0,4.551,0.464,5.506,1.392c0.955,0.93,1.432,2.655,1.432,5.177
		v3.812c0,2.523-0.477,4.249-1.432,5.177c-0.955,0.93-2.79,1.394-5.506,1.394H83.035c-2.716,0-4.551-0.464-5.506-1.394
		c-0.955-0.927-1.432-2.653-1.432-5.177v-1.945h5.703v3.285h19.633v-6.334H84.113c-2.699,0-4.521-0.464-5.467-1.394
		c-0.946-0.927-1.42-2.654-1.42-5.177v-3.075c0-2.522,0.474-4.248,1.42-5.178c0.946-0.927,2.768-1.392,5.467-1.392h15.769
		c2.61,0,4.411,0.447,5.4,1.34c0.99,0.894,1.485,2.479,1.485,4.756v1.919h-5.703L101.063,10.814L101.063,10.814z"/>
	<path fill="#5C7287" d="M118.448,12.523c0-2.522,0.474-4.248,1.419-5.178c0.946-0.927,2.769-1.392,5.467-1.392h20.447
		c2.698,0,4.521,0.465,5.467,1.392c0.947,0.93,1.419,2.655,1.419,5.178v14.639c0,2.541-0.474,4.271-1.419,5.189
		c-0.945,0.921-2.769,1.381-5.467,1.381h-20.447c-2.698,0-4.521-0.46-5.467-1.381c-0.945-0.92-1.418-2.648-1.418-5.189
		L118.448,12.523L118.448,12.523z M124.913,28.502h21.315V10.92h-21.315V28.502z"/>
	<path fill="#5C7287" d="M164.386,33.732V5.953h28.095v4.861h-21.629v7.307h11.696v5.072h-11.696v10.539H164.386L164.386,33.732z"/>
	<path fill="#5C7287" d="M217.998,10.92v22.813h-6.465V10.92h-12.747V5.953h32.011v4.967H217.998z"/>
	<path fill="#5C7287" d="M239.913,33.732V5.953h6.465v22.549h20.842v5.23H239.913z"/>
	<path fill="#5C7287" d="M274.638,33.732l15.718-27.779h6.228l15.928,27.779h-7.255l-3.337-6.07h-17.608l-3.231,6.07H274.638z
		 M287.071,22.64h12.169l-5.992-11.3L287.071,22.64z"/>
	<path fill="#5C7287" d="M325.599,33.732V21.301L311.171,5.953h8.62l9.54,10.67l9.566-10.67h7.596l-14.376,15.189v12.59H325.599z"/>
	<path fill="#5C7287" d="M390.821,33.732V5.953h23.758c2.208,0,3.806,0.425,4.796,1.274c0.989,0.85,1.484,2.22,1.484,4.113v6.518
		c0,1.875-0.495,3.242-1.484,4.099c-0.99,0.86-2.588,1.289-4.796,1.289h-3.628l12.824,10.486h-9.276l-11.195-10.486h-6.124v10.486
		H390.821z M411.714,10.762h-14.533v7.727h14.533c1.121,0,1.888-0.161,2.299-0.487c0.412-0.323,0.618-0.896,0.618-1.72v-3.338
		c0-0.807-0.206-1.371-0.618-1.695C413.602,10.925,412.835,10.762,411.714,10.762z"/>
</g>
<rect x="353.361" y="5.953" fill="#CCCACA" width="28.253" height="5.145"/>
<rect x="353.361" y="17.27" fill="#4F4F4F" width="28.253" height="5.145"/>
<rect x="353.361" y="28.588" fill="#CCCACA" width="28.253" height="5.145"/>
<g>
	<path fill="#5C7287" d="M427.486,5.953c0.507,0,0.987,0.094,1.442,0.283c0.454,0.188,0.858,0.463,1.211,0.822
		c0.347,0.35,0.613,0.75,0.798,1.201c0.185,0.451,0.275,0.922,0.275,1.413c0,0.508-0.091,0.984-0.275,1.43
		c-0.185,0.446-0.454,0.84-0.809,1.183c-0.365,0.357-0.776,0.63-1.233,0.82c-0.455,0.19-0.925,0.285-1.409,0.285
		c-0.495,0-0.968-0.095-1.415-0.285c-0.45-0.189-0.854-0.467-1.209-0.83c-0.354-0.356-0.623-0.757-0.808-1.203
		c-0.185-0.446-0.277-0.913-0.277-1.4c0-0.491,0.097-0.966,0.29-1.425s0.473-0.872,0.835-1.239c0.341-0.347,0.729-0.609,1.168-0.787
		C426.508,6.042,426.98,5.953,427.486,5.953z M430.73,9.707c0-0.45-0.079-0.872-0.235-1.265c-0.157-0.394-0.385-0.739-0.685-1.038
		c-0.311-0.313-0.662-0.55-1.054-0.712c-0.393-0.164-0.812-0.245-1.257-0.245c-0.438,0-0.851,0.079-1.237,0.236
		c-0.389,0.159-0.726,0.384-1.016,0.68c-0.317,0.319-0.561,0.678-0.731,1.079c-0.17,0.399-0.255,0.811-0.255,1.234
		c0,0.42,0.082,0.824,0.245,1.211c0.164,0.388,0.397,0.737,0.705,1.046c0.304,0.309,0.651,0.547,1.044,0.713
		c0.394,0.167,0.798,0.249,1.215,0.249c0.438,0,0.854-0.08,1.246-0.242c0.392-0.161,0.75-0.396,1.074-0.705
		c0.304-0.295,0.536-0.636,0.696-1.021C430.648,10.544,430.73,10.137,430.73,9.707z M427.585,7.491c0.585,0,1.025,0.096,1.321,0.291
		c0.294,0.193,0.441,0.481,0.441,0.865c0,0.299-0.084,0.547-0.252,0.746s-0.406,0.328-0.712,0.388l0.944,1.926h-0.893l-0.86-1.8
		h-0.783v1.8h-0.797V7.491H427.585z M427.444,8.006h-0.652v1.396h0.673c0.381,0,0.653-0.053,0.818-0.159
		c0.166-0.106,0.248-0.276,0.248-0.512c0-0.255-0.085-0.44-0.258-0.554C428.101,8.062,427.825,8.006,427.444,8.006z"/>
</g>
</svg>
