<?xml version="1.0" encoding="utf-8"?>
<!-- Generator: Adobe Illustrator 18.0.0, SVG Export Plug-In . SVG Version: 6.00 Build 0)  -->
<!DOCTYPE svg PUBLIC "-//W3C//DTD SVG 1.1//EN" "http://www.w3.org/Graphics/SVG/1.1/DTD/svg11.dtd">
<svg version="1.1" id="Layer_1" xmlns="http://www.w3.org/2000/svg" xmlns:xlink="http://www.w3.org/1999/xlink" x="0px" y="0px"
	 viewBox="0 0 26.3 26.3" enable-background="new 0 0 26.3 26.3" xml:space="preserve">
<g>
	<path fill="#32A3CF" d="M13.2,0C5.9,0,0,5.9,0,13.2c0,7.3,5.9,13.2,13.2,13.2s13.2-5.9,13.2-13.2C26.3,5.9,20.4,0,13.2,0z
		 M13.2,24.2c-6.1,0-11-4.9-11-11c0-6.1,4.9-11,11-11c6.1,0,11,4.9,11,11C24.2,19.3,19.3,24.2,13.2,24.2z"/>
	<path fill="#32A3CF" d="M12.8,17.2c-1.2,0-2,0.8-2,2.1c0,1.2,0.8,2.1,2,2.1c1.3,0,2.1-0.9,2.1-2.1C14.9,18.1,14.1,17.2,12.8,17.2z"
		/>
	<path fill="#32A3CF" d="M13.1,5.4c-1.6,0-3,0.5-3.8,0.9l0.8,2.5c0.6-0.4,1.5-0.7,2.3-0.7c1.1,0,1.7,0.6,1.7,1.4
		c0,0.8-0.6,1.5-1.3,2.4c-1,1.2-1.4,2.4-1.4,3.6l0,0.6h3v-0.4c0-1,0.3-1.9,1.2-2.9c0.9-1,2-2.1,2-3.9C17.6,7.1,16.2,5.4,13.1,5.4z"
		/>
</g>
</svg>
