<?xml version="1.0" encoding="utf-8"?>
<!-- Generator: Adobe Illustrator 18.0.0, SVG Export Plug-In . SVG Version: 6.00 Build 0)  -->
<!DOCTYPE svg PUBLIC "-//W3C//DTD SVG 1.1//EN" "http://www.w3.org/Graphics/SVG/1.1/DTD/svg11.dtd">
<svg version="1.1" id="Layer_1" xmlns="http://www.w3.org/2000/svg" xmlns:xlink="http://www.w3.org/1999/xlink" x="0px" y="0px"
	 viewBox="0 0 50 50" enable-background="new 0 0 50 50" xml:space="preserve">
<g>
	<circle fill="#0D3E65" cx="25" cy="25" r="25"/>
</g>
<path fill="#FFFFFF" d="M25,10.1c-3.6,0-6.5,1.1-6.5,2.4v1.9c0,1.3,2.9,2.4,6.5,2.4s6.5-1.1,6.5-2.4v-1.9
	C31.5,11.1,28.6,10.1,25,10.1z M25,17.9c-3.4,0-6.2-1-6.5-2.2c0,0.1,0,3.2,0,3.2c0,1.3,2.9,2.4,6.5,2.4s6.5-1.1,6.5-2.4
	c0,0,0-3.1,0-3.2C31.2,16.9,28.4,17.9,25,17.9z M31.5,20.2c-0.2,1.2-3.1,2.2-6.5,2.2s-6.2-1-6.5-2.2l0,3.2c0,1.3,2.9,2.4,6.5,2.4
	s6.5-1.1,6.5-2.4L31.5,20.2z"/>
<g id="Layer_2_1_">
</g>
<path fill="#FFFFFF" d="M26.2,31.8v2.9c0,0.2,0,0.6,0.1,0.7c0.5,0.5,0.5-0.6,0.5-0.8v-2.8c0-0.2,0-0.5-0.1-0.6
	C26.3,30.9,26.2,31.6,26.2,31.8z M35.3,28.1H14.7c-3.3,0-5.9,2.7-5.9,5.9s2.7,5.9,5.9,5.9h20.6c3.3,0,5.9-2.7,5.9-5.9
	S38.6,28.1,35.3,28.1z M18.1,36.2h-1.6l0-4.1l-0.7,4.1h-1.2l-0.7-4.1l0,4.1h-1.4v-5.6h2.2c0.1,0,0.2,0.6,0.2,1.2l0.3,1.6l0.4-2.8
	h2.4V36.2z M22.8,34.9c-0.1,0.5-0.1,1.2-0.4,1.6c-0.3,0.5-1,0.5-1.6,0.5c-0.1,0-1.4,0-1.4,0v-0.8c0.6,0,0.8-0.2,0.6-0.8l-1-4.3h1.7
	l0.6,3.4l0.3-3.4h1.7C23.3,31.2,22.8,34.9,22.8,34.9z M28.7,37.1c0,0-1.9,0.1-2.2,0c-0.3-0.1-0.3-0.4-0.4-0.6
	c-0.2-0.3-0.5-0.2-0.8-0.3c-1-0.3-1.2-1.2-1.2-2.1c0-1.3-0.4-3.4,1.2-3.9c0.3-0.1,0.7-0.1,1.1-0.1c1.4,0,2.4,0.7,2.4,2.1v2
	c0,0.4,0,0.9-0.3,1.3c-0.2,0.4-0.7,0.5-1.1,0.6c-0.1,0,0.1,0.2,0.2,0.3c0.1,0.1,1.1,0,1.1,0V37.1z M34.1,35.1
	c-0.1,1.6-2.4,1.7-3.5,1.2c-0.5-0.2-0.7-0.5-0.8-1c0-0.1-0.2-1-0.1-1h1.6c0,0,0,0.6,0,0.6c0,0.3,0.2,0.7,0.6,0.5
	c0.4-0.2,0.4-0.9,0.1-1.2c-0.1-0.1-0.4-0.3-0.9-0.6c-0.5-0.3-1-0.6-1.3-1.1c-0.3-0.6-0.3-1.2,0.1-1.8c0.8-1.3,2.8-0.8,3.2-0.7
	c0.8,0.3,0.9,1,0.9,1.6c0,0-1.8,0-1.8,0c0.1,0-0.1-0.8-0.2-0.9c-0.2-0.1-0.4,0.3-0.4,0.5c-0.1,0.4,0.3,0.8,0.7,1
	c0.9,0.4,1.4,0.8,1.6,1.1C34.1,33.9,34.1,34.5,34.1,35.1z M38.1,36.2H35v-5.6h1.9v4.4h1.2V36.2z"/>
</svg>
