<?xml version="1.0" encoding="utf-8"?>
<!-- Generator: Adobe Illustrator 18.0.0, SVG Export Plug-In . SVG Version: 6.00 Build 0)  -->
<!DOCTYPE svg PUBLIC "-//W3C//DTD SVG 1.1//EN" "http://www.w3.org/Graphics/SVG/1.1/DTD/svg11.dtd">
<svg version="1.1" id="Layer_1" xmlns="http://www.w3.org/2000/svg" xmlns:xlink="http://www.w3.org/1999/xlink" x="0px" y="0px"
	 viewBox="0 0 50 50" enable-background="new 0 0 50 50" xml:space="preserve">
<g>
	<g>
		<circle fill="#0D3E65" cx="25" cy="25" r="25"/>
	</g>
	<g>
		<g>
			<path fill="#FFFFFF" d="M34,13.5H16c-1.4,0-2.5,1.1-2.5,2.5v18c0,1.4,1.1,2.5,2.5,2.5h18c1.4,0,2.5-1.1,2.5-2.5V16
				C36.5,14.6,35.4,13.5,34,13.5z M33.3,15.6c0.6,0,1.2,0.5,1.2,1.2s-0.5,1.2-1.2,1.2c-0.6,0-1.2-0.5-1.2-1.2S32.7,15.6,33.3,15.6z
				 M29.7,15.6c0.6,0,1.2,0.5,1.2,1.2c0,0.7-0.5,1.2-1.2,1.2s-1.2-0.5-1.2-1.2C28.5,16.1,29,15.6,29.7,15.6z M34.6,34.4H15.4V19.6
				h19.2V34.4z"/>
			<rect x="19.5" y="28.2" fill="#FFFFFF" width="3.7" height="3.7"/>
			<rect x="27" y="28.2" fill="#FFFFFF" width="3.7" height="3.7"/>
			<rect x="19.5" y="22.2" fill="#FFFFFF" width="3.7" height="3.7"/>
			<rect x="27" y="22.2" fill="#FFFFFF" width="3.7" height="3.7"/>
		</g>
	</g>
</g>
</svg>
