<?xml version="1.0" encoding="utf-8"?>
<!-- Generator: Adobe Illustrator 18.0.0, SVG Export Plug-In . SVG Version: 6.00 Build 0)  -->
<!DOCTYPE svg PUBLIC "-//W3C//DTD SVG 1.1//EN" "http://www.w3.org/Graphics/SVG/1.1/DTD/svg11.dtd">
<svg version="1.1" id="Layer_1" xmlns="http://www.w3.org/2000/svg" xmlns:xlink="http://www.w3.org/1999/xlink" x="0px" y="0px"
	 viewBox="0 0 50 50" enable-background="new 0 0 50 50" xml:space="preserve">
<g>
	<g>
		<g>
			<circle fill="#0D3E65" cx="25" cy="25" r="25"/>
		</g>
	</g>
	<path fill="#FFFFFF" d="M31.7,22c-0.1-0.2-0.1-0.4-0.2-0.5l-0.1-0.3c0.3-0.5,0.5-1,0.5-1.5v-3.1c0-0.4-0.1-0.8-0.3-1.3l-0.1-0.1
		c0.1-0.2,0.2-0.4,0.2-0.7c0-2.5-5.4-3.8-10.4-3.8s-10.4,1.3-10.4,3.8c0,0.2,0.1,0.5,0.2,0.7l-0.1,0.1c-0.2,0.4-0.3,0.8-0.3,1.3v3.1
		c0,0.5,0.2,1.1,0.5,1.5l-0.1,0.3c-0.3,0.4-0.4,0.9-0.4,1.3v3.1c0,0.5,0.2,1,0.5,1.5l-0.1,0.2c-0.3,0.4-0.4,0.9-0.4,1.3v3.1
		c0,2.7,4.7,4.9,10.6,4.9c1.2,0,2.4-0.1,3.5-0.3c-0.1-0.1-0.1-0.2-0.2-0.3c1.6,1.8,3.8,2.9,6.4,2.9c4.7,0,8.6-3.9,8.6-8.6
		C39.4,26.1,36,22.4,31.7,22z M21.2,11.9c5.7,0,9.2,1.6,9.2,2.7c0,1.1-3.5,2.7-9.2,2.7S12,15.6,12,14.5C12,13.4,15.5,11.9,21.2,11.9
		z M11.7,17.1c1.7,1.4,5.7,2.2,9.5,2.2c3.8,0,7.8-0.7,9.5-2.2v2.6c0,1.8-3.9,3.7-9.5,3.7s-9.5-2-9.5-3.7V17.1z M11.7,22.9
		c1.7,1.6,5.3,2.6,9.5,2.6c1,0,1.9-0.1,2.8-0.2c-0.7,0.9-1.2,2-1.5,3.1c-0.1,0.3-0.1,0.6-0.2,1c-0.4,0-0.8,0-1.2,0
		c-5.6,0-9.5-2-9.5-3.7L11.7,22.9z M21.2,35.6c-5.6,0-9.5-2-9.5-3.7V29c1.7,1.6,5.3,2.6,9.5,2.6c0.4,0,0.8,0,1.2,0
		c0.1,1,0.5,2,0.9,2.9c0.2,0.3,0.4,0.6,0.6,0.9C23,35.6,22.1,35.6,21.2,35.6z M30.9,37.4c-2,0-3.8-0.8-5-2.2c-0.3-0.3-0.5-0.6-0.8-1
		c-0.7-1.1-1.1-2.3-1.1-3.7c0,0,0,0,0-0.1c0-0.4,0-0.8,0.1-1.2c0.1-0.3,0.2-0.7,0.3-1c0.8-2.4,3-4.2,5.6-4.6c0.3,0,0.6-0.1,0.9-0.1
		c0.1,0,0.2,0,0.3,0c3.7,0.1,6.6,3.2,6.6,6.9C37.7,34.3,34.6,37.4,30.9,37.4z M30.2,26.6c0,0.6,0,1.6,0,1.6s0.3,0,0.7,0
		c1.3,0,3.7,0,4.6,0c0,0,0.2,0,0.2,0.3c0,0.3,0,3.5,0,3.9c0,0.4-0.3,0.3-0.3,0.3c-1,0-3.3,0-4.6,0c-0.5,0-0.7,0-0.7,0s0,1.2,0,1.7
		c0,0.5-0.4,0-0.4,0L26,30.7c0,0-0.3-0.3,0-0.5c0.4-0.4,3.8-3.7,3.8-3.7S30.2,26,30.2,26.6z"/>
</g>
</svg>
