<?xml version="1.0" encoding="utf-8"?>
<!-- Generator: Adobe Illustrator 18.0.0, SVG Export Plug-In . SVG Version: 6.00 Build 0)  -->
<!DOCTYPE svg PUBLIC "-//W3C//DTD SVG 1.1//EN" "http://www.w3.org/Graphics/SVG/1.1/DTD/svg11.dtd">
<svg version="1.1" id="Layer_1" xmlns="http://www.w3.org/2000/svg" xmlns:xlink="http://www.w3.org/1999/xlink" x="0px" y="0px"
	 viewBox="0 0 50 50" enable-background="new 0 0 50 50" xml:space="preserve">
<g>
	<circle fill="#0D3E65" cx="25" cy="25" r="25"/>
	<g>
		<g>
			<path fill="#FFFFFF" d="M34.2,33.6c-0.2,0.9-0.3,1.5-0.4,1.9c0-0.3-0.1-0.7-0.2-1.3c-0.1-0.6-0.2-1.1-0.3-1.5l-0.6-2.8h-1.8
				l-0.6,2.8c-0.1,0.4-0.2,0.9-0.3,1.4c-0.1,0.6-0.2,1-0.2,1.4c-0.1-0.5-0.2-1.1-0.4-1.9l-0.8-3.7h-1.8h-0.1h-1.8L24,33.6
				c-0.2,0.9-0.3,1.5-0.4,1.9c0-0.3-0.1-0.7-0.2-1.3c-0.1-0.6-0.2-1.1-0.3-1.5l-0.6-2.8h-1.8L20,32.7c-0.1,0.4-0.2,0.9-0.3,1.4
				c-0.1,0.6-0.2,1-0.2,1.4c-0.1-0.5-0.2-1.1-0.4-1.9l-0.8-3.7h-1.8h-0.1h-1.8l-0.8,3.7c-0.2,0.9-0.3,1.5-0.4,1.9
				c0-0.3-0.1-0.7-0.2-1.3c-0.1-0.6-0.2-1.1-0.3-1.5l-0.6-2.8h-1.8l-0.6,2.8c-0.1,0.4-0.2,0.9-0.3,1.4c-0.1,0.6-0.2,1-0.2,1.4
				c-0.1-0.5-0.2-1.1-0.4-1.9l-0.8-3.7H6.2L8,37.2h2.3c0.4-1.9,0.7-3,0.7-3.3c0.1-0.3,0.1-0.6,0.2-0.9c0.1-0.3,0.1-0.6,0.1-0.8
				c0,0.3,0.1,0.6,0.2,1c0.1,0.4,0.1,0.7,0.2,0.8l0.7,3.2h2.3l1.7-7.1l1.8,7.1h2.3c0.4-1.9,0.7-3,0.7-3.3c0.1-0.3,0.1-0.6,0.2-0.9
				c0.1-0.3,0.1-0.6,0.1-0.8c0,0.3,0.1,0.6,0.2,1c0.1,0.4,0.1,0.7,0.2,0.8l0.7,3.2h2.3l1.7-7.1l1.8,7.1h2.3c0.4-1.9,0.7-3,0.7-3.3
				c0.1-0.3,0.1-0.6,0.2-0.9c0.1-0.3,0.1-0.6,0.1-0.8c0,0.3,0.1,0.6,0.2,1c0.1,0.4,0.1,0.7,0.2,0.8l0.7,3.2h2.3l1.8-7.3H35
				L34.2,33.6z"/>
			<circle fill="#FFFFFF" cx="34.6" cy="15.6" r="2.8"/>
			<path fill="#FFFFFF" d="M43.5,20.1c-0.3-0.1-0.5,0-0.6,0.3l-2,5.1h-1c0.1-0.2,0.2-0.4,0.2-0.7c0-0.5-0.5-1-1.1-0.9
				c-1.6,0.1-1.8-0.2-1.9-0.4c-0.6-0.5-0.5-2.8-0.5-2.8c0-1.2-1-1.9-2-2.2c0,0-0.3-0.1-0.6-0.1c-0.3,0-0.6,0.1-0.6,0.1l0,0
				c-1,0.2-2,1-2,2.2l0,6.2c0,1.4,1.3,2.2,2.6,2.2c0.1,0,0.1,0,0.2,0l3.5,0l0.7,6.4c0.1,0.7,0.6,1.1,1.3,1.1c0,0,0.1,0,0.2,0
				c0.7-0.1,1.2-0.7,1.1-1.4l-0.9-7.6c-0.1-0.7-0.6-1.1-1.3-1.1c0,0,0,0,0,0l-2.2,0v-0.9c0.2,0.1,0.5,0.2,0.8,0.2c0,0,0,0.1,0,0.2
				c0,0.3,0.2,0.5,0.5,0.5h3.3c0.2,0,0.4-0.1,0.5-0.3l2.1-5.4C43.9,20.5,43.7,20.2,43.5,20.1z"/>
		</g>
	</g>
</g>
</svg>
