<?xml version="1.0" encoding="utf-8"?>
<!-- Generator: Adobe Illustrator 18.0.0, SVG Export Plug-In . SVG Version: 6.00 Build 0)  -->
<!DOCTYPE svg PUBLIC "-//W3C//DTD SVG 1.1//EN" "http://www.w3.org/Graphics/SVG/1.1/DTD/svg11.dtd">
<svg version="1.1" id="Layer_1" xmlns="http://www.w3.org/2000/svg" xmlns:xlink="http://www.w3.org/1999/xlink" x="0px" y="0px"
	 viewBox="0 0 50 50" enable-background="new 0 0 50 50" xml:space="preserve">
<g>
	<g>
		<circle fill="#0D3E65" cx="25" cy="25" r="25"/>
	</g>
	<g>
		<g>
			<path fill="#FFFFFF" d="M14.9,21.2c0.3,0.2,1.3,0.9,2.9,2s2.8,2,3.7,2.5c0.1,0.1,0.3,0.2,0.6,0.4c0.3,0.2,0.6,0.4,0.8,0.5
				c0.2,0.1,0.4,0.3,0.7,0.5c0.3,0.2,0.6,0.3,0.8,0.4c0.3,0.1,0.5,0.1,0.7,0.1h0h0c0.2,0,0.4,0,0.7-0.1c0.3-0.1,0.5-0.2,0.8-0.4
				c0.3-0.2,0.5-0.3,0.7-0.5c0.2-0.1,0.5-0.3,0.8-0.5c0.3-0.2,0.5-0.4,0.6-0.4c0.9-0.6,3-2.1,6.5-4.5c0.7-0.5,1.2-1,1.7-1.7
				c0.5-0.7,0.7-1.4,0.7-2.1c0-0.6-0.2-1.1-0.7-1.6c-0.4-0.4-1-0.7-1.6-0.7H14.7c-0.7,0-1.3,0.2-1.7,0.7c-0.4,0.5-0.6,1.1-0.6,1.8
				c0,0.6,0.3,1.2,0.8,1.9C13.8,20.3,14.3,20.8,14.9,21.2z"/>
			<path fill="#FFFFFF" d="M36.1,22.7c-3.1,2.1-5.4,3.7-6.9,4.8c-0.5,0.4-1,0.7-1.3,0.9c-0.3,0.2-0.8,0.4-1.3,0.7
				c-0.5,0.2-1.1,0.3-1.5,0.3h0h0c-0.5,0-1-0.1-1.5-0.3s-1-0.5-1.3-0.7c-0.3-0.2-0.8-0.5-1.3-0.9c-1.3-0.9-3.6-2.5-6.9-4.8
				c-0.5-0.4-1-0.8-1.4-1.2v11.1c0,0.6,0.2,1.1,0.7,1.6c0.4,0.4,1,0.7,1.6,0.7h20.5c0.6,0,1.1-0.2,1.6-0.7c0.4-0.4,0.7-1,0.7-1.6
				V21.5C37.1,22,36.6,22.4,36.1,22.7z"/>
		</g>
	</g>
</g>
</svg>
