<?xml version="1.0" encoding="utf-8"?>
<!-- Generator: Adobe Illustrator 18.0.0, SVG Export Plug-In . SVG Version: 6.00 Build 0)  -->
<!DOCTYPE svg PUBLIC "-//W3C//DTD SVG 1.1//EN" "http://www.w3.org/Graphics/SVG/1.1/DTD/svg11.dtd">
<svg version="1.1" id="Layer_1" xmlns="http://www.w3.org/2000/svg" xmlns:xlink="http://www.w3.org/1999/xlink" x="0px" y="0px"
	 viewBox="0 0 50 50" enable-background="new 0 0 50 50" xml:space="preserve">
<g>
	<circle fill="#0D3E65" cx="25" cy="25" r="25"/>
	<path fill="#FFFFFF" d="M32.3,18.5c-4.5,2.7-7.7,6.2-9,7.7l-3.4-2.6c-0.1-0.1-1.9,1.6-1.9,1.6l6.1,6.2c0,0.1,0.1,0.1,0.2,0.1
		c0,0,0,0,0,0c0.1,0,0.1-0.1,0.2-0.2c1-2.5,4.2-7.8,8.4-11.6c0.1-0.1,0.1-0.2,0.1-0.3C33,19.5,32.3,18.5,32.3,18.5z M36.3,13
		C27,13,25.4,9.5,25.4,9.4c-0.1-0.2-0.2-0.3-0.4-0.3c0,0,0,0,0,0c-0.2,0-0.4,0.1-0.4,0.3c0,0-1.6,3.6-10.8,3.6
		c-0.3,0-0.5,0.2-0.5,0.5v15.8c0,6.5,11.1,11.4,11.6,11.6c0.1,0,0.1,0,0.2,0c0.1,0,0.1,0,0.2,0c0.5-0.2,11.6-5.1,11.6-11.6V13.5
		C36.7,13.2,36.5,13,36.3,13z M34.2,28.3c0,5-8.7,8.9-9,9.1c0,0-0.1,0-0.1,0c-0.1,0-0.1,0-0.1,0c-0.4-0.2-9-4-9-9.1V16
		c0-0.2,0.2-0.4,0.4-0.4c7.2,0,8.5-2.8,8.5-2.8c0.1-0.1,0.2-0.2,0.3-0.2c0,0,0,0,0,0c0.1,0,0.3,0.1,0.3,0.2c0,0,1.2,2.8,8.5,2.8
		c0.2,0,0.4,0.2,0.4,0.4L34.2,28.3L34.2,28.3z"/>
</g>
</svg>
