<?xml version="1.0" encoding="utf-8"?>
<!-- Generator: Adobe Illustrator 18.0.0, SVG Export Plug-In . SVG Version: 6.00 Build 0)  -->
<!DOCTYPE svg PUBLIC "-//W3C//DTD SVG 1.1//EN" "http://www.w3.org/Graphics/SVG/1.1/DTD/svg11.dtd">
<svg version="1.1" id="Layer_1" xmlns="http://www.w3.org/2000/svg" xmlns:xlink="http://www.w3.org/1999/xlink" x="0px" y="0px"
	 viewBox="0 0 50 50" enable-background="new 0 0 50 50" xml:space="preserve">
<circle fill="#133C62" cx="25" cy="25" r="25"/>
<path id="Page_Quality_1_" fill-rule="evenodd" clip-rule="evenodd" fill="#FFFFFF" d="M13.4,17.8c0-0.3,0.3-0.6,0.6-0.6
	c7.5,0,14.5,0,22,0c0.3,0,0.6,0.3,0.6,0.6V23c0.7,0.1,1.5,0.3,2.2,0.4v-11c0-0.6-0.5-1.2-1.2-1.2c-8.4,0-16.8,0-25.2,0
	c-0.6,0-1.2,0.5-1.2,1.2v11c0.7-0.1,1.4-0.3,2.2-0.4V17.8L13.4,17.8z M29.9,23.9c3.6,0.2,7,0.7,10.1,1.4v0.9l-1.5,1.5H35l3.5,0.7
	L40,31V32c-3.1-0.8-6.6-1.4-10.3-1.6c-1,1.4-2.7,2.3-4.6,2.3c-1.9,0-3.6-0.9-4.6-2.3c-3.8,0.3-7.3,0.8-10.5,1.7v-0.9l1.5-2.6
	l3.4-0.7h-3.5L10,26.3v-0.9c3.1-0.7,6.6-1.2,10.2-1.5c1-1.6,2.8-2.7,4.8-2.7C27.1,21.2,28.9,22.3,29.9,23.9L29.9,23.9z M25.1,22.4
	l1,3.1l3.3,0l-2.7,1.9l1,3.1l-2.7-1.9l-2.7,1.9l1-3.1l-2.7-1.9l3.3,0L25.1,22.4L25.1,22.4z M36.6,32.8V36c0,0.3-0.3,0.6-0.6,0.6H14
	c-0.3,0-0.6-0.3-0.6-0.6v-3.1c-0.7,0.1-1.5,0.3-2.2,0.5v4.3c0,0.6,0.5,1.2,1.2,1.2h25.2c0.6,0,1.2-0.5,1.2-1.2v-4.3
	C38.1,33.1,37.3,33,36.6,32.8L36.6,32.8z M18.1,13.1c0.6,0,1.2,0.5,1.2,1.2c0,0.6-0.5,1.2-1.2,1.2c-0.6,0-1.2-0.5-1.2-1.2
	C17,13.6,17.5,13.1,18.1,13.1L18.1,13.1z M21.7,13.1c0.6,0,1.2,0.5,1.2,1.2c0,0.6-0.5,1.2-1.2,1.2c-0.6,0-1.2-0.5-1.2-1.2
	C20.6,13.6,21.1,13.1,21.7,13.1L21.7,13.1z M14.6,13.1c0.6,0,1.2,0.5,1.2,1.2c0,0.6-0.5,1.2-1.2,1.2c-0.6,0-1.2-0.5-1.2-1.2
	C13.4,13.6,13.9,13.1,14.6,13.1z"/>
</svg>
