<?xml version="1.0" encoding="utf-8"?>
<!-- Generator: Adobe Illustrator 18.0.0, SVG Export Plug-In . SVG Version: 6.00 Build 0)  -->
<!DOCTYPE svg PUBLIC "-//W3C//DTD SVG 1.1//EN" "http://www.w3.org/Graphics/SVG/1.1/DTD/svg11.dtd">
<svg version="1.1" id="Layer_1" xmlns="http://www.w3.org/2000/svg" xmlns:xlink="http://www.w3.org/1999/xlink" x="0px" y="0px"
	 viewBox="0 0 50 50" enable-background="new 0 0 50 50" xml:space="preserve">
<g>
	<circle fill="#133C62" cx="25" cy="25" r="25"/>
</g>
<path id="Website_Optimization_1_" fill-rule="evenodd" clip-rule="evenodd" fill="#FFFFFF" d="M14.5,19.4c0-0.3,0.3-0.6,0.6-0.6
	c7.5,0,14.5,0,22.1,0c0.3,0,0.6,0.3,0.6,0.6c0,6.1,0,12.3,0,18.4c-0.9-0.3-1.9-0.7-2.9-1c-0.2-0.6-0.4-1.1-0.7-1.6l1.2-2.4
	c-0.7-1-1.6-1.9-2.6-2.6l-2.4,1.2c-0.5-0.3-1-0.5-1.6-0.7L28,28.2c-1.2-0.2-2.4-0.2-3.7,0l-0.8,2.6c-0.6,0.2-1.1,0.4-1.6,0.7
	l-2.4-1.2c-1,0.7-1.9,1.6-2.6,2.6l1.2,2.4c-0.3,0.5-0.5,1-0.7,1.6c-1,0.3-1.9,0.6-2.9,0.9C14.5,31.7,14.5,25.6,14.5,19.4L14.5,19.4z
	 M40,14c0-0.6-0.5-1.2-1.2-1.2c-8.4,0-16.9,0-25.3,0c-0.6,0-1.2,0.5-1.2,1.2c0,8.4,0,16.9,0,25.3c0,0.6,0.5,1.2,1.2,1.2h7.6
	c-0.1-0.3-0.1-0.6-0.1-0.9c0-2.8,2.3-5.2,5.2-5.2c2.8,0,5.2,2.3,5.2,5.2c0,0.3,0,0.6-0.1,0.9h7.6c0.6,0,1.2-0.5,1.2-1.2
	C40,30.9,40,22.4,40,14L40,14z M19.3,14.7c0.6,0,1.2,0.5,1.2,1.2c0,0.6-0.5,1.2-1.2,1.2c-0.6,0-1.2-0.5-1.2-1.2
	C18.1,15.2,18.7,14.7,19.3,14.7L19.3,14.7z M22.9,14.7c0.6,0,1.2,0.5,1.2,1.2c0,0.6-0.5,1.2-1.2,1.2c-0.6,0-1.2-0.5-1.2-1.2
	C21.7,15.2,22.2,14.7,22.9,14.7L22.9,14.7z M15.7,14.7c0.6,0,1.2,0.5,1.2,1.2c0,0.6-0.5,1.2-1.2,1.2c-0.6,0-1.2-0.5-1.2-1.2
	C14.5,15.2,15.1,14.7,15.7,14.7z"/>
</svg>
