<?xml version="1.0" encoding="utf-8"?>
<!-- Generator: Adobe Illustrator 18.0.0, SVG Export Plug-In . SVG Version: 6.00 Build 0)  -->
<!DOCTYPE svg PUBLIC "-//W3C//DTD SVG 1.1//EN" "http://www.w3.org/Graphics/SVG/1.1/DTD/svg11.dtd">
<svg version="1.1" id="Layer_1" xmlns="http://www.w3.org/2000/svg" xmlns:xlink="http://www.w3.org/1999/xlink" x="0px" y="0px"
	 viewBox="0 0 50 50" enable-background="new 0 0 50 50" xml:space="preserve">
<circle fill="#133C62" cx="25" cy="25" r="25"/>
<g>
	<path fill="#FFFFFF" d="M11.5,25c0,5.2,3.1,9.7,7.6,11.9l-6.5-17.2C11.9,21.3,11.5,23.1,11.5,25z M34.1,24.3c0-1.6-0.6-2.8-1.1-3.6
		c-0.7-1.1-1.3-2-1.3-3.1c0-1.2,0.9-2.3,2.3-2.3c0.1,0,0.1,0,0.2,0c-2.4-2.1-5.6-3.5-9.1-3.5c-4.7,0-8.9,2.4-11.3,5.9
		c0.3,0,0.6,0,0.9,0c1.4,0,3.6-0.2,3.6-0.2c0.7,0,0.8,1,0.1,1.1c0,0-0.7,0.1-1.5,0.1l4.9,14.3l3-8.6l-2.1-5.6
		c-0.7,0-1.4-0.1-1.4-0.1c-0.7,0-0.6-1.1,0.1-1.1c0,0,2.2,0.2,3.6,0.2c1.4,0,3.6-0.2,3.6-0.2c0.7,0,0.8,1,0.1,1.1
		c0,0-0.7,0.1-1.5,0.1L31.8,33l1.3-4.4C33.7,26.8,34.1,25.5,34.1,24.3z M25.2,26.2l-4.1,11.5c1.2,0.3,2.5,0.5,3.8,0.5
		c1.6,0,3.1-0.3,4.5-0.7c0-0.1-0.1-0.1-0.1-0.2L25.2,26.2z M36.9,18.7c0.1,0.4,0.1,0.9,0.1,1.4c0,1.3-0.3,2.8-1,4.7l-4.1,11.6
		c4-2.3,6.7-6.5,6.7-11.4C38.5,22.7,37.9,20.6,36.9,18.7z M25,7C15,7,7,15,7,25S15,43,25,43S43,35,43,25S35,7,25,7z M25,40.8
		c-8.7,0-15.8-7.1-15.8-15.8S16.3,9.2,25,9.2S40.8,16.3,40.8,25S33.7,40.8,25,40.8z"/>
</g>
</svg>
